<?xml version="1.0" standalone="no"?>
<!DOCTYPE svg PUBLIC "-//W3C//DTD SVG 20010904//EN"
 "http://www.w3.org/TR/2001/REC-SVG-20010904/DTD/svg10.dtd">
<svg version="1.0" xmlns="http://www.w3.org/2000/svg"
 width="580.000000pt" height="867.000000pt" viewBox="0 0 580.000000 867.000000"
 preserveAspectRatio="xMidYMid meet">

<g transform="translate(0.000000,867.000000) scale(0.100000,-0.100000)"
fill="#000000" stroke="none">
<path d="M815 8656 c-111 -36 -185 -98 -234 -193 -45 -90 -61 -157 -61 -257 0
-92 8 -131 74 -350 15 -51 39 -183 56 -310 17 -122 38 -257 47 -301 15 -69 18
-138 18 -490 0 -366 2 -419 19 -489 21 -90 19 -97 -54 -211 -50 -77 -86 -173
-116 -310 -16 -75 -38 -139 -68 -200 -43 -86 -48 -91 -103 -120 -68 -35 -131
-94 -158 -150 -17 -33 -20 -61 -20 -160 0 -140 13 -175 89 -242 l44 -39 -13
-74 c-15 -86 -23 -109 -71 -204 -19 -38 -34 -79 -34 -91 0 -13 -11 -47 -25
-77 -33 -70 -34 -148 -2 -209 21 -42 21 -48 9 -109 -7 -36 -16 -166 -21 -290
-6 -168 -12 -234 -24 -260 -17 -39 -79 -256 -96 -338 -22 -105 -33 -346 -27
-561 5 -173 2 -261 -15 -470 -28 -331 -30 -571 -6 -665 26 -103 70 -206 152
-358 73 -135 74 -137 60 -171 -85 -203 12 -441 218 -538 114 -53 329 -97 567
-115 73 -5 76 -6 103 -44 34 -48 145 -122 245 -165 296 -124 735 -114 1017 25
117 57 243 168 293 256 22 39 422 39 444 0 50 -88 176 -199 293 -256 231 -114
593 -144 874 -74 152 38 335 139 388 214 27 38 30 39 103 44 238 18 453 62
567 115 206 97 303 335 217 539 -13 32 -12 36 61 170 82 152 126 255 152 358
24 94 22 334 -6 666 -17 209 -20 296 -15 465 7 236 -7 474 -35 598 -27 119
-72 277 -84 300 -6 12 -12 93 -13 195 -2 190 -18 318 -60 467 -26 91 -26 94
-9 135 11 26 18 68 18 106 0 52 -7 76 -36 135 -49 100 -57 121 -72 207 l-13
74 44 39 c76 67 89 102 89 242 0 99 -3 127 -20 160 -27 56 -90 115 -158 150
-55 29 -60 34 -103 120 -30 61 -52 125 -68 200 -30 137 -66 233 -116 310 -74
116 -76 124 -54 212 17 71 19 116 19 488 0 353 3 421 18 490 9 44 30 179 47
301 17 127 41 259 56 310 66 219 74 258 74 350 0 199 -87 356 -238 427 -66 32
-69 32 -222 32 -154 0 -156 0 -246 -36 -254 -99 -458 -262 -863 -689 -86 -91
-172 -184 -191 -208 l-35 -43 3 73 c11 227 -118 447 -323 551 -164 83 -365 83
-530 0 -203 -103 -334 -325 -323 -551 l3 -72 -40 47 c-22 27 -110 122 -196
213 -397 419 -602 582 -853 679 -86 33 -98 35 -231 38 -95 2 -153 -2 -180 -11z
m315 -46 c111 -30 280 -119 405 -211 69 -51 189 -160 323 -293 182 -180 263
-266 422 -448 21 -24 30 -28 55 -23 l31 7 -1 126 c0 107 4 137 23 194 84 242
340 398 590 360 146 -23 278 -105 361 -223 76 -108 96 -177 96 -331 l-1 -126
31 -7 c25 -5 34 -1 55 23 159 182 240 268 422 448 243 241 377 347 543 429
153 76 243 99 365 93 188 -10 301 -92 359 -260 42 -123 37 -218 -24 -414 -44
-139 -59 -217 -85 -419 -12 -88 -31 -212 -43 -275 -20 -106 -22 -146 -22 -515
0 -357 -2 -409 -19 -486 l-19 -86 30 -54 c16 -30 46 -80 66 -113 40 -65 80
-178 97 -273 14 -78 39 -152 78 -228 42 -81 48 -86 120 -125 120 -64 165 -147
155 -287 -8 -107 -44 -172 -116 -210 -26 -13 -28 -17 -22 -56 19 -121 39 -190
77 -271 51 -107 57 -177 21 -239 -21 -35 -21 -39 -7 -79 54 -152 91 -410 81
-573 -3 -58 0 -106 8 -135 108 -375 111 -390 125 -660 7 -132 7 -215 -1 -290
-10 -91 -8 -144 12 -390 13 -157 23 -366 24 -465 0 -159 -3 -189 -23 -260 -27
-93 -79 -207 -163 -358 l-60 -108 21 -56 c53 -143 31 -278 -65 -381 -30 -33
-80 -73 -113 -90 -108 -58 -337 -107 -553 -119 l-116 -6 -19 -35 c-55 -102
-286 -214 -500 -243 -111 -15 -404 -6 -494 15 -179 41 -297 103 -405 211 -45
44 -87 94 -94 112 -13 31 -13 31 -109 39 -122 9 -182 9 -304 0 -96 -8 -96 -8
-109 -39 -7 -18 -49 -68 -94 -112 -108 -108 -226 -170 -405 -211 -90 -21 -383
-30 -494 -15 -214 29 -445 141 -500 243 l-19 35 -116 6 c-216 12 -445 61 -553
119 -178 95 -249 282 -178 471 l21 56 -60 108 c-84 151 -136 265 -163 358 -20
71 -23 100 -22 265 0 102 11 308 24 460 20 239 21 289 12 385 -12 116 -2 424
19 555 12 79 63 271 95 360 20 56 24 97 33 295 6 127 17 260 25 298 15 67 15
68 -9 104 -34 50 -36 121 -5 183 9 19 20 52 24 72 4 21 25 75 46 120 36 75 56
145 75 264 6 39 5 41 -37 68 -68 43 -89 82 -99 184 -14 152 28 236 153 302 73
39 78 44 122 130 41 79 61 141 80 241 19 99 64 214 114 292 76 117 78 124 56
219 -17 74 -19 126 -19 483 0 368 -2 409 -22 515 -12 63 -31 187 -43 275 -26
204 -42 280 -85 418 -62 201 -67 290 -24 414 48 139 144 226 284 256 57 13
185 6 255 -13z"/>
<path d="M2821 8046 c-49 -18 -111 -74 -132 -120 -23 -51 -25 -143 -3 -194 33
-79 128 -142 214 -142 86 0 181 63 214 142 22 51 20 143 -3 194 -47 104 -181
160 -290 120z m152 -50 c57 -23 117 -111 117 -171 0 -60 -60 -148 -117 -171
-73 -31 -157 -11 -210 49 -28 32 -53 90 -53 122 0 59 59 147 115 171 39 17
107 17 148 0z"/>
<path d="M3892 6203 c-76 -150 -193 -462 -191 -510 0 -10 19 41 43 112 47 144
98 270 152 377 19 38 33 72 30 75 -2 3 -18 -21 -34 -54z"/>
<path d="M3937 6018 c-69 -126 -139 -278 -128 -278 4 0 22 33 39 73 18 39 61
125 96 190 35 64 60 117 56 117 -4 0 -32 -46 -63 -102z"/>
<path d="M1930 6079 c0 -37 164 -378 176 -366 2 2 -18 46 -45 98 -27 52 -66
135 -86 184 -40 96 -45 106 -45 84z"/>
<path d="M2857 6054 c-3 -3 -3 -20 0 -37 5 -31 4 -32 -37 -34 -71 -2 -109 -58
-79 -114 15 -29 67 -49 96 -38 13 5 37 6 54 2 l31 -6 -4 103 c-3 86 -7 104
-23 116 -21 15 -29 17 -38 8z m-12 -124 c21 -24 14 -46 -20 -62 -22 -10 -28
-9 -36 3 -19 31 -4 79 26 79 7 0 20 -9 30 -20z"/>
<path d="M3643 6044 c-6 -17 2 -123 11 -131 3 -3 12 -3 21 0 19 8 21 117 3
135 -16 16 -27 15 -35 -4z"/>
<path d="M1796 6028 c68 -118 273 -412 281 -404 2 2 -31 53 -74 113 -43 60
-105 153 -138 206 -33 53 -64 97 -68 97 -5 0 -5 -6 -1 -12z"/>
<path d="M2117 6003 c-12 -11 -7 -119 6 -135 27 -36 49 -26 67 30 16 47 29 73
31 61 13 -66 26 -94 47 -97 16 -3 22 2 22 17 0 25 20 71 31 71 8 0 14 -19 21
-64 4 -27 36 -45 48 -26 15 23 -15 128 -38 131 -4 0 -15 2 -24 4 -9 2 -25 -3
-34 -10 -15 -11 -22 -9 -46 8 l-28 21 -29 -22 c-28 -21 -29 -21 -34 -2 -5 20
-27 27 -40 13z"/>
<path d="M2427 6003 c-13 -12 -7 -58 10 -83 26 -38 45 -49 80 -50 50 0 32 -28
-20 -32 l-42 -3 32 -18 c39 -21 72 -15 104 19 18 20 23 36 23 91 1 63 -1 68
-21 71 -17 3 -25 -4 -36 -30 -8 -18 -23 -41 -35 -51 -19 -18 -20 -18 -36 5 -9
12 -16 37 -16 55 0 25 -4 33 -18 33 -10 0 -22 -3 -25 -7z"/>
<path d="M3004 5999 c-31 -9 -54 -42 -54 -79 0 -28 56 -78 95 -86 58 -11 125
17 125 52 0 24 -22 26 -46 3 -28 -26 -78 -30 -101 -6 -15 15 -14 16 18 11 19
-3 46 -1 62 5 35 14 36 53 2 86 -25 26 -49 29 -101 14z m70 -35 c11 -28 7 -34
-23 -34 -37 0 -50 19 -26 37 25 17 41 17 49 -3z"/>
<path d="M3205 6000 c-12 -19 5 -28 50 -28 25 1 51 -4 57 -10 9 -9 2 -12 -29
-12 -80 0 -113 -71 -46 -99 28 -11 141 -12 148 -2 2 4 -1 29 -6 56 -13 70 -52
105 -119 105 -27 0 -52 -4 -55 -10z m114 -93 c15 -19 4 -27 -36 -27 -31 0 -44
16 -26 33 11 12 50 8 62 -6z"/>
<path d="M3410 5995 c0 -43 34 -147 52 -156 26 -14 35 -5 43 40 9 54 27 68 68
53 43 -16 55 0 20 27 -27 22 -50 23 -94 6 -10 -4 -19 3 -27 20 -13 29 -62 36
-62 10z"/>
<path d="M3655 5871 c-8 -15 3 -31 21 -31 9 0 14 7 12 17 -4 20 -24 28 -33 14z"/>
<path d="M2310 5362 c-42 -21 -62 -57 -55 -97 8 -42 41 -72 106 -96 62 -23 75
-39 59 -70 -13 -23 -81 -26 -122 -5 -26 14 -27 13 -37 -15 -9 -27 -7 -30 21
-45 39 -20 137 -20 177 0 34 18 55 70 45 110 -8 35 -53 71 -113 91 -50 16 -65
33 -55 60 9 23 52 30 102 16 51 -13 47 -15 56 21 6 25 3 28 -31 37 -56 16
-113 13 -153 -7z"/>
<path d="M3182 5367 c-43 -13 -88 -66 -102 -118 -23 -84 16 -180 85 -213 43
-21 132 -24 175 -6 32 13 35 21 20 50 -9 16 -15 18 -36 10 -75 -29 -146 1
-164 70 -13 49 -5 87 28 122 33 36 78 44 126 24 36 -15 37 -15 46 10 13 33 7
41 -38 54 -45 12 -96 11 -140 -3z"/>
<path d="M3534 5369 c-73 -21 -122 -110 -110 -198 12 -84 62 -139 138 -150
125 -19 209 44 216 162 8 143 -102 227 -244 186z m135 -84 c47 -46 36 -166
-18 -195 -35 -18 -90 -12 -116 14 -59 59 -34 191 40 209 32 7 68 -4 94 -28z"/>
<path d="M4257 5366 c-74 -27 -107 -80 -107 -174 0 -92 52 -155 140 -170 42
-7 151 1 171 14 5 3 9 48 9 100 l0 94 -80 0 -80 0 0 -30 c0 -28 2 -30 40 -30
l40 0 0 -45 0 -45 -40 0 c-81 0 -120 41 -120 124 0 83 68 129 157 106 37 -9
48 -8 55 2 33 52 -89 88 -185 54z"/>
<path d="M1202 5198 c21 -95 38 -174 38 -175 0 -2 22 -3 48 -3 l48 0 18 123
c10 67 21 128 25 135 4 7 15 -38 25 -100 26 -170 21 -158 75 -158 l46 0 33
153 c18 83 35 162 38 175 6 20 3 22 -33 22 l-39 0 -18 -117 c-10 -65 -22 -124
-26 -132 -4 -7 -15 37 -24 100 -24 158 -19 149 -75 149 l-48 0 -18 -122 c-9
-68 -20 -126 -24 -131 -4 -4 -15 44 -25 105 -24 154 -21 148 -65 148 l-38 0
39 -172z"/>
<path d="M1660 5195 l0 -175 115 0 115 0 0 30 0 30 -75 0 -75 0 0 45 0 45 70
0 70 0 0 30 0 30 -70 0 -70 0 0 40 0 40 75 0 75 0 0 30 0 30 -115 0 -115 0 0
-175z"/>
<path d="M1960 5195 l0 -175 120 0 120 0 0 30 0 29 -77 3 -78 3 -3 143 -3 142
-39 0 -40 0 0 -175z"/>
<path d="M2570 5195 l0 -175 40 0 40 0 0 75 0 75 65 0 65 0 0 -75 0 -75 40 0
40 0 0 175 0 175 -40 0 -40 0 0 -70 0 -71 -62 3 -63 3 -3 68 -3 67 -39 0 -40
0 0 -175z"/>
<path d="M3840 5195 l0 -175 40 0 40 0 0 65 c0 63 1 65 25 65 28 0 48 -26 66
-87 12 -41 14 -43 51 -43 21 0 38 4 38 10 0 18 -42 115 -57 132 -13 15 -13 18
6 28 32 17 54 67 46 107 -10 55 -50 73 -162 73 l-93 0 0 -175z m166 104 c37
-31 -1 -89 -58 -89 -27 0 -28 1 -28 56 l0 57 36 -6 c20 -3 42 -11 50 -18z"/>
<path d="M4550 5195 l0 -175 45 0 45 0 0 175 0 175 -45 0 -45 0 0 -175z"/>
<path d="M2246 3663 c-10 -11 -7 -173 4 -194 6 -10 20 -19 30 -19 17 0 20 7
20 41 0 22 5 49 11 60 15 29 37 7 45 -43 7 -41 29 -72 45 -63 16 11 10 79 -11
112 -19 33 -57 50 -85 40 -10 -4 -16 4 -21 28 -6 32 -25 51 -38 38z"/>
<path d="M2887 3663 c-10 -16 10 -182 23 -198 23 -28 40 -18 40 26 0 33 3 40
17 37 10 -2 22 -13 28 -25 18 -36 37 -53 57 -53 21 0 19 18 -9 73 -12 24 -12
28 2 33 18 7 20 33 2 40 -7 2 -30 -2 -50 -11 -52 -22 -56 -20 -59 33 -3 39 -6
47 -25 50 -11 2 -23 -1 -26 -5z"/>
<path d="M1985 3653 c-69 -10 -51 -45 20 -41 l40 3 6 -53 c9 -66 27 -112 46
-112 11 0 14 16 12 83 l-2 82 49 0 c37 0 49 4 49 15 0 8 -13 18 -30 21 -34 7
-144 8 -190 2z"/>
<path d="M2462 3620 c-37 -15 -21 -35 24 -32 25 2 46 -3 59 -13 20 -16 20 -16
-3 -12 -13 3 -37 1 -53 -5 -70 -24 -54 -93 23 -102 24 -2 59 -4 78 -3 34 2 35
3 33 44 -2 47 -25 98 -51 112 -29 15 -86 21 -110 11z m97 -99 c20 -13 4 -31
-29 -31 -30 0 -45 13 -35 30 8 12 45 13 64 1z"/>
<path d="M2661 3617 c-13 -17 4 -138 22 -149 23 -15 40 -3 53 36 16 44 33 68
44 61 4 -3 13 -25 19 -50 12 -47 34 -66 54 -46 9 9 7 25 -8 68 -23 65 -47 79
-102 57 -29 -12 -32 -11 -37 12 -7 26 -27 31 -45 11z"/>
<path d="M3187 3613 c-13 -12 -7 -58 10 -83 26 -38 45 -49 82 -50 29 0 32 -2
20 -16 -8 -10 -24 -14 -46 -12 -37 4 -43 -6 -13 -22 36 -19 91 -8 113 22 28
37 36 138 13 157 -20 17 -32 8 -57 -40 -11 -22 -27 -43 -36 -46 -22 -8 -43 23
-43 64 0 25 -4 33 -18 33 -10 0 -22 -3 -25 -7z"/>
<path d="M3450 3607 c-39 -20 -56 -58 -41 -94 30 -72 157 -87 191 -23 14 25
-18 103 -48 119 -27 15 -71 14 -102 -2z m90 -58 c16 -37 8 -57 -25 -65 -59
-15 -88 74 -32 95 30 11 43 5 57 -30z"/>
<path d="M3634 3596 c-8 -35 13 -92 43 -116 30 -24 75 -26 93 -5 11 13 15 13
33 0 21 -15 57 -20 57 -9 0 3 -9 17 -20 31 -11 14 -22 41 -26 62 -8 41 -18 51
-44 44 -12 -3 -21 -18 -25 -42 -3 -20 -10 -43 -16 -51 -8 -13 -12 -12 -24 4
-8 11 -15 32 -15 47 0 40 -10 59 -31 59 -11 0 -21 -9 -25 -24z"/>
<path d="M2120 3131 c-5 -11 -10 -35 -10 -54 0 -30 -4 -35 -30 -40 -38 -8 -30
-37 9 -37 23 0 29 -6 37 -37 12 -52 37 -50 44 2 5 38 7 40 43 43 53 5 50 30
-5 34 -42 3 -43 4 -46 41 -4 47 18 50 39 6 8 -18 19 -32 24 -33 19 -2 16 40
-5 67 -27 34 -83 38 -100 8z"/>
<path d="M2842 3138 c-13 -13 -15 -134 -3 -178 5 -20 14 -26 45 -28 22 -2 49
-1 60 2 28 7 66 43 66 62 0 26 -65 84 -93 84 -22 0 -26 5 -29 32 -3 35 -25 47
-46 26z m86 -104 c26 -18 28 -31 5 -56 -28 -31 -43 -22 -43 27 0 49 5 53 38
29z"/>
<path d="M3270 3133 c0 -22 27 -63 41 -63 6 0 9 17 7 38 -2 30 -7 38 -25 40
-17 3 -23 -2 -23 -15z"/>
<path d="M2514 3095 c-8 -19 14 -113 32 -142 23 -37 50 -29 58 16 7 46 31 75
55 65 39 -16 51 -16 51 -1 0 31 -75 50 -110 28 -10 -7 -19 -2 -32 20 -19 31
-45 38 -54 14z"/>
<path d="M3353 3094 c-9 -23 14 -136 29 -146 25 -16 36 -7 54 45 23 63 44 67
59 12 13 -51 22 -65 42 -65 13 0 15 9 10 50 -3 27 -11 59 -17 70 -15 29 -58
37 -92 17 -28 -16 -29 -16 -38 8 -11 28 -37 33 -47 9z"/>
<path d="M3606 3089 c-37 -29 -35 -70 5 -103 18 -16 43 -26 62 -26 29 -1 30
-2 14 -14 -11 -9 -33 -12 -62 -8 -52 5 -57 -1 -15 -23 38 -19 90 -19 118 1 22
15 23 21 17 87 -5 54 -12 76 -27 90 -27 23 -79 22 -112 -4z m83 -23 c8 -10 8
-21 1 -40 -13 -35 -53 -33 -58 2 -6 42 33 68 57 38z"/>
<path d="M2325 3089 c-30 -17 -45 -40 -45 -68 1 -74 112 -119 174 -70 33 26
34 64 3 110 -19 29 -29 34 -67 36 -25 2 -54 -2 -65 -8z m91 -55 c15 -35 14
-38 -5 -58 -20 -19 -23 -20 -49 -6 -36 21 -41 62 -10 84 34 24 47 20 64 -20z"/>
<path d="M3045 3075 c-37 -36 -33 -76 10 -114 30 -26 44 -31 88 -31 58 0 97
20 97 50 0 28 -22 30 -53 4 -33 -28 -65 -31 -93 -8 -18 15 -18 15 11 11 38 -6
95 17 95 38 0 20 -19 57 -34 67 -6 4 -30 8 -54 8 -32 0 -49 -6 -67 -25z m99
-21 c13 -33 -16 -44 -56 -23 -21 11 -21 12 -3 25 25 19 51 18 59 -2z"/>
<path d="M3274 3035 c-8 -34 12 -105 31 -105 21 0 24 11 17 70 -5 40 -12 56
-24 58 -12 2 -19 -5 -24 -23z"/>
<path d="M2889 2633 c-19 -5 -29 -32 -29 -80 0 -28 -4 -33 -23 -33 -13 0 -27
-3 -30 -7 -12 -11 14 -33 39 -33 17 0 24 -6 24 -19 0 -33 11 -51 31 -51 15 0
19 7 19 40 l0 40 40 0 c58 0 54 27 -5 36 -43 6 -45 8 -45 40 0 43 24 46 39 4
11 -34 41 -41 41 -9 0 23 -52 80 -72 78 -7 -1 -20 -3 -29 -6z"/>
<path d="M3536 2627 c-11 -8 -19 -29 -21 -57 -2 -35 -7 -46 -21 -48 -41 -7
-47 -11 -34 -27 6 -7 24 -15 38 -17 20 -2 28 -9 30 -28 5 -36 21 -53 38 -40 8
7 11 24 7 46 l-6 34 41 0 c22 0 44 5 47 10 7 12 -36 30 -71 30 -20 0 -24 5
-24 28 0 38 13 57 27 40 6 -7 14 -23 17 -35 4 -14 15 -23 27 -23 23 0 24 18 3
50 -34 50 -64 62 -98 37z"/>
<path d="M2225 2597 c6 -32 6 -33 -31 -34 -50 -1 -88 -31 -92 -72 -6 -57 63
-106 115 -82 18 8 29 9 37 1 27 -27 36 -10 36 74 0 105 -13 146 -46 146 -23 0
-24 -3 -19 -33z m-9 -88 c13 -15 16 -24 8 -36 -28 -45 -74 -42 -74 5 0 51 34
67 66 31z"/>
<path d="M3285 2610 c-10 -33 5 -173 21 -190 12 -12 16 -12 23 -2 8 13 5 145
-5 190 -6 27 -30 29 -39 2z"/>
<path d="M3917 2623 c-7 -12 9 -47 27 -62 13 -11 17 -11 22 3 10 27 -5 66 -26
66 -10 0 -21 -3 -23 -7z"/>
<path d="M4602 2596 c4 -33 3 -33 -34 -33 -70 0 -110 -50 -88 -108 13 -35 72
-60 111 -46 18 6 31 6 34 0 4 -5 15 -9 25 -9 18 0 19 6 13 98 -6 109 -14 132
-44 132 -18 0 -21 -5 -17 -34z m-14 -89 l22 -23 -20 -22 c-27 -29 -48 -28 -61
2 -8 17 -8 29 0 45 15 27 32 27 59 -2z"/>
<path d="M1061 2581 c-25 -16 -1 -31 49 -31 27 0 52 -4 55 -10 4 -6 -7 -10
-27 -10 -43 0 -78 -25 -78 -55 0 -35 39 -57 92 -54 24 2 49 -1 56 -5 23 -14
35 5 29 49 -9 60 -27 94 -58 111 -31 16 -96 18 -118 5z m107 -93 c7 -7 12 -15
12 -19 0 -14 -31 -18 -56 -9 -22 9 -24 13 -14 25 15 18 42 19 58 3z"/>
<path d="M1379 2583 c-37 -9 -27 -119 14 -148 24 -17 63 -20 72 -5 3 6 15 5
31 -2 20 -9 30 -9 45 0 11 7 30 10 44 6 l25 -6 -7 63 c-3 35 -10 67 -16 70
-22 15 -44 -4 -56 -49 -9 -35 -14 -43 -21 -32 -6 8 -10 30 -10 48 0 36 -21 52
-45 32 -8 -7 -15 -27 -15 -44 0 -17 -4 -37 -9 -44 -12 -19 -21 8 -21 63 0 46
-5 54 -31 48z"/>
<path d="M1693 2575 c-67 -29 -68 -99 -3 -143 46 -31 105 -25 137 13 22 25 22
28 7 63 -29 71 -80 95 -141 67z m86 -59 c18 -39 4 -61 -40 -61 -27 0 -35 5
-43 27 -8 22 -6 32 9 48 25 28 57 22 74 -14z"/>
<path d="M1874 2575 c-9 -22 5 -106 22 -132 23 -36 41 -27 59 26 9 27 22 55
30 61 11 9 16 3 25 -32 13 -55 24 -73 41 -73 20 0 17 86 -4 119 -13 19 -26 26
-51 26 -18 0 -39 -7 -46 -15 -15 -18 -30 -11 -30 16 0 23 -38 27 -46 4z"/>
<path d="M2388 2583 c-32 -5 -68 -46 -68 -77 0 -49 61 -96 125 -96 47 0 95 25
95 50 0 31 -18 33 -51 6 -34 -29 -47 -31 -84 -14 -36 16 -31 24 14 20 49 -5
81 12 81 42 0 49 -49 79 -112 69z m62 -58 c0 -17 -23 -25 -49 -18 -28 7 -27
31 2 42 24 9 47 -3 47 -24z"/>
<path d="M2570 2564 c0 -40 21 -117 38 -137 24 -28 44 -16 56 32 13 53 37 72
66 53 26 -16 40 -15 40 3 0 8 -13 21 -30 30 -25 13 -34 13 -70 1 -36 -12 -40
-12 -40 3 0 22 -19 41 -42 41 -13 0 -18 -8 -18 -26z"/>
<path d="M3686 2582 c-10 -16 24 -147 41 -159 29 -22 42 -15 49 27 4 22 12 48
19 57 12 16 18 16 46 6 40 -16 57 -3 29 22 -21 19 -68 23 -97 7 -14 -9 -20 -5
-30 19 -12 28 -45 40 -57 21z"/>
<path d="M4061 2580 c-76 -18 -81 -106 -9 -150 56 -34 150 -21 164 23 11 35
-12 42 -46 13 -35 -29 -46 -31 -84 -16 -39 15 -31 26 17 22 53 -4 82 15 74 49
-14 55 -52 75 -116 59z m69 -61 c0 -13 -30 -18 -56 -9 -28 11 -24 27 10 40 20
8 46 -10 46 -31z"/>
<path d="M4252 2519 c4 -55 10 -76 24 -86 26 -19 34 -13 56 45 11 29 25 52 33
52 7 0 18 -21 25 -51 13 -52 32 -71 53 -50 14 14 -6 97 -30 123 -20 22 -61 23
-90 3 -20 -14 -22 -14 -25 7 -2 15 -11 24 -27 26 -24 4 -24 3 -19 -69z"/>
<path d="M3037 2573 c-4 -3 -7 -21 -7 -38 0 -73 86 -140 129 -101 18 16 21 16
50 1 39 -20 59 -11 35 16 -9 10 -23 40 -29 66 -10 41 -16 48 -36 48 -20 0 -27
-8 -39 -47 -8 -26 -18 -50 -22 -54 -10 -9 -38 58 -38 91 0 18 -5 25 -18 25
-10 0 -22 -3 -25 -7z"/>
<path d="M3927 2534 c-13 -13 -7 -79 9 -102 26 -37 35 -26 32 40 -2 47 -7 64
-18 66 -9 1 -19 0 -23 -4z"/>
<path d="M4700 2441 c0 -21 21 -33 39 -22 17 11 2 41 -20 41 -12 0 -19 -7 -19
-19z"/>
<path d="M2270 1640 c0 -16 7 -20 35 -20 l35 0 0 -115 0 -115 25 0 25 0 0 115
0 115 40 0 c33 0 40 3 40 20 0 19 -7 20 -100 20 -93 0 -100 -1 -100 -20z"/>
<path d="M2520 1525 c0 -128 1 -135 20 -135 17 0 20 7 20 50 0 59 16 97 43
106 31 10 47 -21 47 -93 0 -56 2 -63 20 -63 18 0 20 7 20 73 0 91 -17 121 -64
114 -17 -2 -39 -7 -48 -12 -16 -6 -18 -1 -18 44 0 44 -3 51 -20 51 -19 0 -20
-7 -20 -135z"/>
<path d="M3350 1526 l0 -136 61 0 c89 0 119 19 119 77 0 24 -7 37 -25 49 -25
17 -25 17 -5 31 27 19 28 78 1 92 -10 6 -48 13 -85 17 l-66 7 0 -137z m114 88
c9 -3 16 -16 16 -29 0 -24 -17 -35 -56 -35 -21 0 -24 5 -24 35 0 30 3 35 24
35 13 0 31 -3 40 -6z m14 -116 c29 -29 8 -63 -46 -74 l-32 -6 0 46 c0 45 0 46
33 46 18 0 38 -5 45 -12z"/>
<path d="M2740 1485 c0 -95 0 -95 25 -95 23 0 25 3 25 51 0 64 11 85 55 99 19
6 35 18 35 26 0 18 -24 18 -60 -1 -27 -14 -30 -14 -30 0 0 9 -9 15 -25 15 -25
0 -25 0 -25 -95z"/>
<path d="M2939 1551 c-44 -44 -36 -123 15 -151 31 -16 110 -9 114 10 2 12 -6
15 -38 12 -42 -4 -70 10 -70 34 0 11 16 14 65 14 l65 0 0 30 c0 75 -95 107
-151 51z m101 -20 c15 -30 14 -31 -35 -31 -30 0 -45 4 -45 13 0 37 62 51 80
18z"/>
<path d="M3153 1556 c-23 -20 -28 -32 -28 -69 0 -67 31 -97 102 -97 44 0 53 3
53 18 0 14 -7 17 -40 14 -42 -4 -70 10 -70 34 0 11 16 14 65 14 l65 0 0 30 c0
71 -90 105 -147 56z m95 -18 c25 -25 13 -38 -33 -38 -30 0 -45 4 -45 13 0 19
21 37 45 37 12 0 26 -5 33 -12z"/>
</g>
</svg>
