<?xml version="1.0" standalone="no"?>
<!DOCTYPE svg PUBLIC "-//W3C//DTD SVG 20010904//EN"
 "http://www.w3.org/TR/2001/REC-SVG-20010904/DTD/svg10.dtd">
<svg version="1.0" xmlns="http://www.w3.org/2000/svg"
 width="580.000000pt" height="867.000000pt" viewBox="0 0 580.000000 867.000000"
 preserveAspectRatio="xMidYMid meet">

<g transform="translate(0.000000,867.000000) scale(0.100000,-0.100000)"
fill="#000000" stroke="none">
<path d="M848 8654 c-125 -30 -214 -97 -267 -201 -45 -90 -61 -157 -61 -257 0
-92 8 -131 74 -350 15 -51 39 -183 56 -310 17 -122 38 -257 47 -301 15 -69 18
-138 18 -490 0 -366 2 -419 19 -489 21 -90 19 -97 -54 -211 -50 -77 -86 -173
-116 -310 -16 -75 -38 -139 -68 -200 -43 -86 -48 -91 -103 -120 -68 -35 -131
-94 -158 -150 -17 -33 -20 -61 -20 -160 0 -140 13 -175 89 -242 l44 -39 -13
-74 c-15 -86 -23 -107 -72 -207 -29 -59 -36 -83 -36 -135 0 -38 7 -80 18 -106
17 -41 17 -44 -9 -135 -42 -149 -58 -277 -60 -467 -1 -102 -7 -183 -13 -195
-12 -23 -57 -181 -84 -300 -28 -124 -42 -362 -35 -598 5 -169 2 -256 -15 -465
-28 -332 -30 -572 -6 -666 26 -103 70 -206 152 -358 73 -135 74 -137 60 -171
-85 -203 12 -441 218 -538 114 -53 329 -97 567 -115 73 -5 76 -6 103 -44 34
-48 145 -122 245 -165 296 -124 735 -114 1017 25 117 57 243 168 293 256 22
39 422 39 444 0 50 -88 176 -199 293 -256 231 -114 593 -144 874 -74 152 38
335 139 388 214 27 38 30 39 103 44 238 18 453 62 567 115 206 97 303 335 217
539 -13 32 -12 36 61 170 82 152 126 255 152 358 24 94 22 334 -6 665 -17 209
-20 297 -15 470 6 215 -5 456 -27 561 -17 82 -79 299 -96 338 -12 26 -18 93
-24 260 -5 124 -15 254 -21 290 -12 61 -12 67 9 109 32 61 31 139 -2 209 -14
30 -25 64 -25 77 0 12 -15 53 -34 91 -48 95 -56 118 -71 204 l-13 74 44 39
c76 67 89 102 89 242 0 99 -3 127 -20 160 -27 56 -90 115 -158 150 -55 29 -60
34 -103 120 -30 61 -52 125 -68 200 -30 137 -66 233 -116 310 -73 114 -75 121
-54 211 17 70 19 123 19 489 0 352 3 421 18 490 9 44 30 179 47 301 17 127 41
259 56 310 15 49 37 127 50 174 69 248 -15 503 -195 595 -280 142 -653 3
-1065 -395 -125 -121 -403 -412 -471 -493 l-40 -47 3 72 c13 270 -166 515
-433 594 -80 23 -230 23 -310 0 -268 -79 -446 -323 -433 -594 l3 -73 -35 43
c-56 70 -337 363 -473 495 -360 350 -694 502 -959 437z m282 -54 c111 -30 280
-119 405 -211 69 -51 189 -160 323 -293 182 -180 263 -266 422 -448 21 -24 30
-28 55 -23 l31 7 -1 126 c0 107 4 137 23 194 84 242 340 398 590 360 146 -23
278 -105 361 -223 76 -108 96 -177 96 -331 l-1 -126 31 -7 c25 -5 34 -1 55 23
159 182 240 268 422 448 243 241 377 347 543 429 153 76 243 99 365 93 188
-10 301 -92 359 -261 43 -124 38 -212 -25 -413 -42 -138 -58 -215 -84 -419
-12 -88 -31 -212 -43 -275 -20 -106 -22 -147 -22 -515 0 -357 -2 -409 -19
-483 -22 -95 -20 -102 56 -219 50 -78 95 -193 114 -292 19 -100 39 -162 80
-241 44 -86 49 -91 122 -130 125 -66 167 -150 153 -302 -10 -102 -31 -141 -99
-184 -42 -27 -43 -29 -37 -68 19 -119 39 -189 75 -264 21 -45 42 -99 46 -120
4 -20 15 -53 24 -72 31 -62 29 -133 -5 -183 -24 -36 -24 -37 -9 -104 8 -38 19
-171 25 -298 9 -198 13 -239 33 -295 32 -89 83 -281 95 -360 21 -131 31 -439
19 -555 -9 -96 -8 -146 12 -385 13 -152 24 -358 24 -460 1 -165 -2 -194 -22
-265 -27 -93 -79 -207 -163 -358 l-60 -108 21 -56 c53 -143 31 -278 -65 -381
-30 -33 -80 -73 -113 -90 -108 -58 -337 -107 -553 -119 l-116 -6 -19 -35 c-55
-102 -286 -214 -500 -243 -111 -15 -404 -6 -494 15 -179 41 -297 103 -405 211
-45 44 -87 94 -94 112 -13 31 -13 31 -109 39 -122 9 -182 9 -304 0 -96 -8 -96
-8 -109 -39 -7 -18 -49 -68 -94 -112 -108 -108 -226 -170 -405 -211 -90 -21
-383 -30 -494 -15 -214 29 -445 141 -500 243 l-19 35 -116 6 c-216 12 -445 61
-553 119 -178 95 -249 282 -178 471 l21 56 -60 108 c-84 151 -136 265 -163
358 -20 71 -23 101 -23 260 1 99 11 308 24 465 20 246 22 299 12 390 -8 75 -8
158 -1 290 14 270 17 285 125 660 8 29 11 77 8 135 -10 163 27 421 81 573 14
40 14 44 -7 79 -36 62 -30 132 21 239 38 81 58 150 77 271 6 39 4 43 -22 56
-72 38 -108 103 -116 210 -10 140 35 223 155 287 72 39 78 44 120 125 39 76
64 150 78 228 17 95 57 208 97 273 20 33 50 83 66 113 l30 54 -19 86 c-17 77
-19 129 -19 486 0 369 -2 409 -22 515 -12 63 -31 187 -43 275 -26 202 -41 280
-85 419 -61 196 -66 291 -24 414 48 138 144 225 284 255 57 13 185 6 255 -13z"/>
<path d="M877 8416 c-52 -19 -71 -38 -98 -99 -35 -81 -30 -163 20 -322 47
-147 62 -223 91 -450 12 -88 31 -209 43 -270 20 -101 22 -141 22 -515 1 -345
3 -416 18 -478 25 -108 22 -155 -16 -237 -17 -39 -44 -86 -59 -105 -43 -57
-78 -142 -98 -243 -22 -110 -41 -168 -85 -262 -54 -117 -102 -174 -186 -220
-44 -24 -75 -48 -77 -59 -4 -17 1 -18 39 -12 58 9 155 57 207 102 63 54 132
202 182 393 45 172 39 159 130 297 51 76 72 119 80 161 13 63 8 185 -11 243
-7 22 -12 146 -14 325 -2 239 -7 327 -28 505 -14 118 -31 269 -37 335 -14 163
-35 260 -83 390 -78 214 -95 324 -59 395 33 68 130 89 236 51 74 -26 167 -88
337 -224 192 -153 289 -255 465 -488 96 -128 156 -192 214 -232 l44 -31 -49
-23 c-61 -28 -110 -29 -152 -3 -18 10 -64 62 -102 113 -62 85 -119 137 -150
137 -22 0 -10 -48 27 -103 64 -96 183 -247 202 -257 37 -20 80 -9 203 51 92
44 147 64 205 74 87 15 375 22 487 11 39 -4 117 -3 175 1 58 5 186 6 285 2
205 -8 241 -17 406 -100 98 -48 143 -58 179 -39 19 10 138 161 203 257 43 66
50 108 15 97 -45 -14 -72 -39 -140 -131 -38 -52 -83 -103 -101 -113 -42 -26
-91 -25 -152 3 l-49 23 44 31 c61 42 112 98 215 233 105 138 224 276 297 347
68 66 293 243 381 301 161 104 311 110 359 12 36 -71 19 -181 -59 -395 -48
-130 -69 -227 -83 -390 -6 -66 -23 -217 -37 -335 -21 -178 -26 -266 -28 -505
-2 -179 -7 -303 -14 -325 -6 -19 -14 -70 -17 -112 -10 -113 13 -187 91 -302
83 -122 80 -115 125 -287 50 -191 119 -339 182 -393 24 -21 72 -51 107 -68
143 -68 197 -37 62 37 -58 32 -83 54 -117 100 -64 89 -122 228 -150 361 -25
122 -57 205 -102 264 -15 19 -42 66 -59 105 -38 82 -42 136 -16 235 15 56 17
123 18 470 0 372 2 414 22 520 12 63 31 187 42 275 30 228 45 303 92 450 53
169 56 246 13 332 -36 72 -72 94 -162 100 -155 11 -355 -84 -579 -275 -95 -81
-434 -425 -534 -542 -40 -47 -96 -111 -126 -143 l-53 -59 -89 21 c-158 37
-275 46 -431 33 -108 -10 -173 -10 -280 -1 -155 13 -278 4 -432 -32 l-88 -21
-53 59 c-30 32 -86 96 -126 143 -102 118 -440 462 -534 542 -260 221 -499 318
-650 264z"/>
<path d="M2821 8036 c-49 -18 -111 -74 -132 -120 -23 -51 -25 -143 -3 -194 33
-79 128 -142 214 -142 86 0 181 63 214 142 22 51 20 143 -3 194 -47 104 -181
160 -290 120z m152 -50 c57 -23 117 -111 117 -171 0 -60 -60 -148 -117 -171
-73 -31 -157 -11 -210 49 -28 32 -53 90 -53 122 0 59 59 147 115 171 39 17
107 17 148 0z"/>
<path d="M2127 6345 c-57 -15 -121 -72 -138 -123 -6 -19 -9 -61 -7 -93 3 -47
10 -66 35 -96 42 -53 98 -83 156 -83 86 0 154 41 188 115 72 156 -68 324 -234
280z"/>
<path d="M3567 6346 c-85 -23 -147 -105 -147 -193 1 -198 238 -276 363 -120
25 30 32 49 35 96 5 75 -9 119 -55 164 -53 53 -122 72 -196 53z"/>
<path d="M2825 5993 c-224 -30 -347 -174 -256 -300 37 -51 147 -109 226 -118
30 -4 55 -11 55 -16 0 -12 -112 -103 -163 -133 -122 -72 -334 -75 -467 -8 -45
22 -65 42 -106 102 -51 74 -81 96 -115 85 -56 -18 -17 -152 62 -213 79 -63
198 -94 354 -94 192 -1 282 29 408 137 l77 66 77 -66 c126 -108 216 -138 408
-137 156 0 275 31 354 94 79 61 118 195 62 213 -34 11 -64 -11 -115 -85 -41
-60 -61 -80 -106 -102 -133 -67 -345 -64 -467 8 -51 29 -163 121 -163 133 0 5
21 11 48 14 168 20 292 135 263 244 -32 117 -242 202 -436 176z"/>
<path d="M541 5110 c-51 -11 -91 -35 -91 -54 0 -18 45 -26 142 -26 71 0 78 -2
64 -15 -26 -26 -53 -116 -79 -265 -26 -144 -55 -234 -95 -300 -29 -46 -28 -54
6 -45 85 21 138 114 182 317 34 161 56 215 109 273 85 93 67 119 -87 122 -59
1 -127 -2 -151 -7z"/>
<path d="M5002 5110 c-45 -19 -38 -55 24 -120 47 -50 71 -111 104 -268 36
-166 74 -250 132 -293 39 -27 78 -38 78 -21 0 4 -10 23 -22 42 -39 63 -68 153
-89 270 -34 190 -62 282 -93 302 -6 4 26 8 70 8 107 0 146 8 142 29 -7 34 -76
54 -203 57 -66 2 -130 0 -143 -6z"/>
<path d="M597 4419 c-24 -14 -42 -52 -92 -194 -67 -190 -87 -304 -90 -535 -3
-167 -6 -203 -24 -253 -94 -266 -126 -534 -107 -897 6 -103 3 -194 -13 -385
-35 -420 -38 -525 -12 -625 30 -122 158 -379 245 -493 33 -44 33 -44 14 -68
-32 -41 -67 -115 -74 -157 -12 -78 36 -156 122 -194 59 -26 252 -66 376 -77
59 -6 158 -8 221 -4 l114 6 6 -58 c8 -77 27 -101 124 -153 115 -60 209 -83
381 -89 299 -12 507 49 634 185 52 56 72 91 88 153 l11 44 97 1 c125 1 439 1
564 0 l97 -1 11 -44 c15 -61 35 -96 83 -149 127 -138 334 -200 632 -189 179 6
271 27 388 89 97 52 116 76 124 153 l6 58 114 -6 c63 -4 162 -2 221 4 124 11
317 51 376 77 86 38 134 116 122 194 -7 42 -42 116 -74 157 -19 24 -19 24 14
68 87 114 215 371 245 493 26 100 23 205 -12 625 -16 191 -19 282 -13 385 19
363 -13 631 -107 897 -18 50 -21 86 -24 253 -3 226 -21 335 -85 522 -56 167
-86 218 -126 218 -18 0 6 -99 109 -445 19 -62 21 -97 22 -295 l0 -225 39 -105
c113 -309 119 -359 90 -815 -17 -267 -15 -333 18 -595 29 -239 23 -360 -27
-505 -51 -153 -85 -210 -168 -293 l-72 -72 -50 26 c-74 37 -154 59 -168 45
-20 -20 5 -44 92 -88 228 -114 291 -298 128 -378 -94 -46 -172 -57 -438 -62
l-246 -5 -13 67 c-16 86 -7 176 29 285 30 87 315 661 389 782 77 125 111 208
86 208 -67 0 -248 -281 -441 -680 -184 -383 -209 -483 -163 -645 11 -38 20
-96 20 -128 0 -55 -3 -62 -37 -96 l-38 -36 -5 46 c-13 106 -90 138 -90 37 0
-50 -23 -105 -47 -112 -24 -7 -143 -26 -165 -26 -14 0 -18 9 -18 40 0 47 -34
120 -55 120 -22 0 -35 -33 -35 -87 0 -71 -7 -77 -76 -69 -89 10 -174 28 -179
36 -3 5 0 31 7 58 10 44 9 54 -6 76 -33 52 -69 26 -83 -62 -3 -17 -10 -32 -15
-32 -18 0 -93 58 -135 103 -65 70 -77 101 -78 192 0 102 30 432 56 597 21 142
25 284 7 323 -8 18 -19 25 -38 25 -40 0 -51 -36 -56 -190 -3 -74 -14 -198 -25
-275 -12 -77 -23 -215 -26 -308 -5 -163 -6 -167 -26 -161 -28 9 -668 8 -695 0
-22 -7 -22 -6 -22 122 0 79 -9 201 -25 318 -13 104 -26 245 -29 314 -5 144
-16 180 -56 180 -19 0 -30 -7 -38 -25 -18 -39 -14 -181 7 -323 26 -165 56
-495 56 -597 -1 -91 -13 -122 -78 -192 -47 -51 -125 -108 -135 -98 -3 3 -13
29 -22 58 -19 62 -48 75 -76 32 -15 -23 -16 -33 -6 -77 7 -27 10 -53 7 -58 -5
-9 -95 -27 -181 -36 -58 -6 -61 -5 -67 17 -4 13 -7 41 -7 62 0 45 -15 77 -35
77 -21 0 -55 -73 -55 -120 0 -31 -4 -40 -17 -40 -23 0 -142 19 -166 26 -24 7
-47 62 -47 112 0 101 -77 69 -90 -37 l-5 -46 -38 37 c-34 33 -37 40 -37 95 0
32 9 90 20 128 46 162 21 262 -163 645 -159 329 -335 618 -402 660 -40 25 -45
25 -45 0 0 -24 26 -77 87 -178 81 -134 364 -703 393 -791 37 -109 46 -200 30
-285 l-12 -66 -202 0 c-338 0 -494 36 -559 130 -59 85 35 229 204 313 86 44
112 68 93 87 -14 14 -73 -1 -153 -38 -31 -14 -59 -26 -64 -26 -4 -1 -38 30
-76 67 -80 80 -115 140 -167 292 -49 145 -55 256 -26 505 33 277 35 330 18
595 -29 456 -23 506 90 815 l39 105 0 225 c1 198 3 233 22 295 105 355 127
445 107 445 -5 0 -17 -5 -27 -11z"/>
<path d="M867 4173 c-29 -34 -41 -105 -42 -253 0 -131 2 -150 23 -196 23 -50
104 -142 87 -99 -44 114 -53 218 -30 345 26 145 28 167 21 194 -8 30 -35 34
-59 9z"/>
<path d="M4876 4174 c-10 -26 -7 -62 15 -178 25 -130 22 -240 -10 -330 l-20
-56 29 20 c65 46 95 163 87 330 -6 122 -19 184 -45 213 -19 21 -48 22 -56 1z"/>
<path d="M1110 3835 l-64 -63 29 -38 c16 -22 63 -73 103 -114 l73 -75 -6 50
c-4 28 -13 68 -22 90 -8 22 -17 79 -20 128 -4 55 -10 86 -17 85 -6 0 -40 -29
-76 -63z"/>
<path d="M4597 3813 c-3 -49 -12 -106 -20 -128 -9 -22 -18 -62 -22 -90 l-6
-50 73 75 c40 41 87 92 103 114 l29 38 -69 64 c-38 35 -72 64 -76 64 -3 0 -9
-39 -12 -87z"/>
<path d="M1482 3821 c-68 -54 -183 -187 -206 -239 l-19 -42 49 -54 c27 -30
100 -110 163 -178 154 -166 235 -270 385 -488 154 -226 269 -373 336 -429 331
-279 914 -315 1307 -80 136 82 225 182 439 494 192 279 245 345 498 615 58 62
106 117 106 122 0 56 -213 298 -276 314 -14 4 -87 -13 -176 -39 -383 -114
-636 -159 -995 -177 -455 -22 -923 39 -1392 180 -74 22 -142 40 -152 40 -9 0
-40 -18 -67 -39z"/>
</g>
</svg>
