<?xml version="1.0" encoding="UTF-8"?>
<svg id="_レイヤー_1" data-name="レイヤー 1" xmlns="http://www.w3.org/2000/svg" width="204.61mm" height="305.86mm" viewBox="0 0 580 867">
  <path d="M453,657.01c13.85,19.15,19.41,42.51,22.85,65.63,4.27,28.67,1.34,54.56,15.98,80.02,7.55,13.13,6.3,30.26-9.15,36.52-8.22,3.33-10.98.72-18.08.91-14.94.41-27.27,9.85-44.14,3.93-2.64-.92-5.49-3.34-7.2-3.8-4.12-1.1-10.43-.48-14.82-1.85-5.2,6.77-11.83,12.54-20.95,12.68-3.5.06-7.61-2.08-10.31-1.41-4.65,1.15-7.09,7.45-15.68,8.33-7.68.79-10.73-2.31-17-3-11.32-1.25-23.49.21-34.84-1.08-3.1-.35-7.62-2.75-10.01-2.63s-6.26,2.28-9.33,2.63c-11.35,1.29-23.52-.17-34.84,1.08-9.21,1.02-13.85,6.39-24.54.56-3.07-1.68-5.05-5.12-8.13-5.89-2.7-.67-6.81,1.47-10.31,1.41-9.12-.15-15.75-5.91-20.95-12.68-4.38,1.37-10.7.74-14.82,1.85-1.64.44-4.08,2.69-6.47,3.53-17.83,6.33-29.26-3.25-44.88-3.67-7.97-.22-10.51,2.69-19.43-1.56-14.39-6.86-15.03-23.3-7.8-35.88,14.64-25.46,11.71-51.34,15.98-80.02,3.38-22.7,8.8-46.59,22.85-65.15-16.38-4.25-25.46-21.27-16.82-36.82,6.35-11.43,15.16-6.78,18.57-24.43,6.24-32.32-6.11-91.7-7.7-127.78-2.36-53.47.31-107.47,1.92-161,1.87-62.4-3.03-133.72,39.07-184.93,18.54-22.56,45.03-38.41,72.98-46.54-13.14-60.49,67.9-94.81,102.22-42.71,8.88,13.48,9.5,26.04,9.23,41.77,41.28,13.34,73.22,36.69,91.01,76.99,19.37,43.89,18.01,83.93,19.49,130.51,2.38,74.53,8.64,149.38.92,223.83-2.19,21.09-14.17,86.95.1,102.15,1.92,2.05,6.01,3.36,8.51,5.49,16.23,13.94,6.51,39.46-13.48,42.99ZM444,653.01c17.83,1.42,34.16-16.95,21.41-32.92-5.23-6.55-10.93-5.3-14.9-15.1-11.59-28.61,3.43-97.23,5.48-130.5,2.67-43.15-.83-85.83-2.03-128.95-1.79-64.21,4.82-145.8-26.79-203.21-19.02-34.56-50.18-52.37-86.76-64.29,4.23-19.54-1.58-39.93-16.89-53.06-24.54-21.04-63.4-14.09-78.69,14.35-7.17,13.33-7.85,26-4.84,40.65-14.45,2.97-29.37,9.77-41.9,17.6-80.68,50.39-67.78,150.42-70.04,232.96-1.62,59.05-5.62,115.48-.03,174.95,2.48,26.43,13.2,78.04,2.49,101.51-4.3,9.41-14.92,9.11-17.82,20.18-4.21,16.09,8.25,26.38,23.31,26.31-18.22,21.04-24.16,48.19-27.86,75.14-3.27,23.83-1.81,51.54-12.94,73.06-3.87,7.48-8.92,9.83-6.75,20.37s11.26,13.96,21.1,13.98c14.88.04,26.29,5.03,39.95,5.05,8.52,0,11.93-5.11,17.04-6.05,2.29-.42,16.34-1.72,17.95-1.16,1.87.65,3.98,5.77,7.02,8.12,10.62,8.21,16.26.54,23.9,3.05,4.82,1.58,5.92,7.12,13.07,7.97,7.83.94,11.07-2.91,16.04-3.09,11.33-.4,23.42.69,34.98-.93,3.33-.47,8.92-3.11,10.93-2.99,2.19.14,5.18,2.49,8.17,2.91,12.17,1.71,25.01.59,36.9,1.01,4.97.18,8.2,4.03,16.04,3.09,7.15-.85,8.25-6.39,13.07-7.97,4.43-1.46,7.67.86,11.89,1.01,7.63.26,15.09-4.74,17.73-11.84l1.29-.34c1.6-.56,15.66.74,17.95,1.16s5.7,3.45,8.57,4.43c14.98,5.14,28.8-3.99,42.58-4.37,8.18-.22,12.72,3.45,20.89-3.1,16.62-13.33-2.46-29.18-6.2-42.79-5.05-18.35-4.78-41.43-7.42-60.58-3.79-27.43-9.84-53.89-27.87-75.62Z"/>
  <path d="M314.76,60.68c0,12.44-10.08,22.52-22.52,22.52s-22.52-10.08-22.52-22.52,10.08-22.52,22.52-22.52,22.52,10.08,22.52,22.52ZM309.87,60.64c0-9.74-7.9-17.64-17.64-17.64s-17.64,7.9-17.64,17.64,7.9,17.64,17.64,17.64,17.64-7.9,17.64-17.64Z"/>
</svg>