<?xml version="1.0" standalone="no"?>
<!DOCTYPE svg PUBLIC "-//W3C//DTD SVG 20010904//EN"
 "http://www.w3.org/TR/2001/REC-SVG-20010904/DTD/svg10.dtd">
<svg version="1.0" xmlns="http://www.w3.org/2000/svg"
 width="580.000000pt" height="867.000000pt" viewBox="0 0 580.000000 867.000000"
 preserveAspectRatio="xMidYMid meet">

<g transform="translate(0.000000,867.000000) scale(0.100000,-0.100000)"
fill="#000000" stroke="none">
<path d="M2760 8574 c-191 -50 -356 -213 -405 -400 -15 -55 -22 -234 -11 -253
3 -4 -41 -25 -97 -45 -302 -111 -545 -299 -712 -551 -93 -140 -161 -300 -209
-490 -61 -246 -75 -399 -86 -945 -5 -256 -15 -598 -22 -760 -17 -386 -17
-1182 0 -1360 7 -74 26 -247 43 -385 49 -412 49 -649 0 -759 -13 -30 -33 -52
-69 -75 -168 -107 -160 -336 14 -427 l59 -31 -47 -79 c-109 -181 -160 -389
-208 -859 -11 -110 -28 -240 -37 -290 -16 -90 -51 -186 -72 -199 -6 -4 -23
-29 -36 -56 -20 -39 -25 -64 -25 -123 0 -64 4 -79 29 -119 18 -28 48 -57 78
-75 42 -25 58 -28 133 -29 105 -1 194 -12 238 -31 21 -8 75 -15 140 -16 95 -1
113 1 157 22 28 14 84 30 125 37 l75 11 34 -39 c61 -71 127 -91 259 -78 24 2
40 -4 60 -23 54 -52 153 -73 219 -45 23 9 304 30 394 28 14 0 47 6 72 14 40
12 54 12 94 0 25 -8 58 -14 72 -14 90 2 371 -19 394 -28 66 -28 165 -7 219 45
20 19 36 25 60 23 132 -13 198 7 259 78 l34 39 75 -11 c41 -7 98 -23 125 -37
44 -21 62 -23 157 -22 65 1 119 8 140 16 44 19 133 30 238 31 75 1 91 4 133
29 30 18 60 47 78 75 25 40 29 55 29 119 0 59 -5 84 -25 123 -13 27 -30 52
-36 56 -21 13 -56 109 -72 199 -9 50 -26 180 -37 290 -49 472 -98 676 -209
862 l-49 82 33 11 c48 16 111 64 139 107 76 116 40 269 -79 339 -73 42 -97
109 -110 299 -8 121 6 312 45 620 16 126 34 295 41 375 15 185 15 819 0 1150
-6 140 -18 500 -26 800 -18 695 -41 890 -136 1175 -83 249 -185 423 -338 575
-145 143 -310 245 -536 331 l-100 38 -2 92 c-3 122 -17 184 -61 271 -69 139
-213 254 -367 293 -74 19 -202 18 -275 -1z m260 -45 c167 -38 313 -175 371
-347 22 -63 29 -178 17 -270 -3 -21 8 -27 112 -66 244 -91 429 -205 567 -350
164 -170 283 -407 353 -699 57 -238 76 -442 85 -907 3 -168 13 -487 22 -710
20 -487 22 -1149 5 -1345 -7 -77 -26 -246 -43 -377 -37 -296 -50 -502 -39
-640 14 -177 46 -255 120 -297 182 -102 118 -348 -99 -377 -51 -7 -51 -7 -36
-28 176 -238 224 -398 285 -946 42 -384 60 -455 136 -555 72 -95 48 -225 -51
-283 -34 -19 -51 -22 -110 -19 -73 4 -211 -15 -245 -33 -11 -6 -68 -12 -127
-13 -100 -2 -112 0 -158 25 -66 35 -235 54 -243 28 -9 -25 -58 -73 -95 -92
-34 -17 -51 -19 -96 -13 -89 11 -113 7 -146 -24 -16 -16 -40 -34 -52 -40 -31
-16 -106 -14 -153 5 -22 9 -52 14 -66 11 -48 -9 -347 13 -391 29 -37 13 -47
13 -90 0 -50 -16 -341 -37 -386 -29 -15 3 -45 -2 -67 -11 -47 -19 -122 -21
-153 -5 -12 6 -36 24 -52 40 -33 31 -57 35 -146 24 -45 -6 -62 -4 -96 13 -37
19 -86 67 -95 92 -8 26 -177 7 -243 -28 -46 -25 -58 -27 -158 -25 -59 1 -116
7 -127 13 -34 18 -172 37 -245 33 -59 -3 -76 0 -110 19 -99 58 -123 188 -51
283 75 98 100 198 136 550 53 527 109 713 286 952 16 23 16 23 -22 23 -22 0
-62 11 -91 24 -69 32 -105 87 -111 164 -5 77 25 134 97 183 103 70 126 143
125 409 -1 102 -9 246 -18 320 -40 341 -56 497 -66 645 -14 227 -13 692 5
1180 8 231 19 620 25 865 6 281 15 493 25 575 68 563 274 935 653 1180 96 62
236 128 345 162 l88 28 -8 50 c-30 188 31 366 166 488 56 49 151 100 217 116
54 12 190 13 244 0z"/>
<path d="M2845 8275 c-150 -58 -194 -257 -80 -370 141 -142 378 -41 378 160 1
62 -8 87 -50 143 -49 66 -166 98 -248 67z m151 -54 c134 -61 134 -248 0 -318
-45 -23 -135 -14 -179 20 -100 76 -86 241 25 296 53 26 100 26 154 2z"/>
<path d="M3812 6593 c-58 -123 -156 -395 -150 -415 2 -5 26 59 55 144 28 84
76 207 107 272 31 66 55 121 53 123 -2 2 -31 -54 -65 -124z"/>
<path d="M3883 6478 c-64 -117 -125 -249 -120 -254 2 -2 44 78 95 178 50 100
90 183 88 185 -1 2 -30 -48 -63 -109z"/>
<path d="M1970 6558 c0 -26 160 -362 168 -353 2 2 -18 48 -45 102 -28 54 -63
130 -78 168 -26 63 -45 99 -45 83z"/>
<path d="M2860 6494 c0 -29 -3 -35 -16 -30 -17 7 -85 -19 -96 -37 -4 -7 -8
-27 -8 -44 0 -46 36 -68 117 -69 l63 -1 0 71 c0 93 -15 146 -40 146 -16 0 -20
-7 -20 -36z m-18 -81 c25 -22 23 -40 -8 -60 -25 -16 -27 -16 -40 2 -17 23 -17
30 -4 56 13 23 28 24 52 2z"/>
<path d="M3610 6476 c0 -63 7 -86 25 -86 9 0 14 18 17 56 3 60 -5 84 -27 84
-11 0 -15 -14 -15 -54z"/>
<path d="M1853 6496 c16 -41 247 -380 254 -372 3 2 -35 60 -82 128 -48 67
-105 153 -127 191 -37 62 -58 86 -45 53z"/>
<path d="M2444 6466 c-13 -54 36 -116 94 -116 30 0 33 -2 21 -16 -9 -11 -23
-14 -46 -11 -39 7 -43 -5 -8 -21 40 -19 69 -14 96 14 20 22 24 35 24 92 0 60
-2 67 -20 70 -16 2 -24 -6 -33 -31 -7 -19 -20 -42 -31 -51 -16 -15 -19 -15
-34 1 -8 10 -17 34 -19 53 -4 43 -34 55 -44 16z"/>
<path d="M3197 6483 c-34 -9 -10 -28 39 -31 58 -4 86 -22 33 -22 -44 0 -79
-24 -79 -55 0 -33 29 -47 106 -50 l64 -3 0 36 c0 48 -28 103 -60 119 -25 13
-68 15 -103 6z m102 -96 c14 -18 4 -27 -30 -27 -29 0 -44 13 -34 30 9 15 51
12 64 -3z"/>
<path d="M3394 6476 c-8 -22 15 -124 32 -141 26 -26 41 -17 53 30 13 51 30 63
66 47 30 -14 44 3 22 25 -17 18 -67 20 -94 5 -14 -9 -20 -5 -30 19 -13 31 -40
39 -49 15z"/>
<path d="M2144 6454 c-8 -31 1 -91 17 -110 24 -29 45 -16 63 41 19 62 30 64
40 6 8 -53 56 -70 56 -20 0 24 17 59 29 59 5 0 12 -18 16 -41 7 -42 28 -60 47
-41 9 9 8 24 -3 58 -18 59 -37 73 -81 56 -27 -10 -34 -9 -41 3 -13 23 -62 19
-80 -7 l-16 -23 0 23 c-1 32 -39 30 -47 -4z"/>
<path d="M2970 6460 c-37 -37 -22 -98 30 -125 58 -30 160 -11 160 31 0 24 -27
27 -49 5 -25 -25 -69 -27 -97 -5 -18 15 -18 15 10 9 15 -3 43 -1 62 5 38 13
45 40 18 78 -21 30 -104 32 -134 2z m94 -16 c11 -29 6 -35 -26 -32 -39 4 -48
25 -16 37 32 13 35 13 42 -5z"/>
<path d="M3620 6346 c0 -18 17 -29 30 -21 8 5 7 11 -1 21 -15 18 -29 18 -29 0z"/>
<path d="M2035 5948 c-9 -24 -105 -312 -105 -315 0 -2 20 -3 44 -3 41 0 45 2
51 30 7 30 8 31 58 28 45 -3 52 -6 57 -28 5 -22 12 -25 52 -28 l47 -3 -55 165
-56 166 -44 0 c-27 0 -47 -5 -49 -12z m70 -145 l7 -43 -32 0 c-24 0 -31 4 -27
14 3 8 9 32 13 53 13 71 24 64 39 -24z"/>
<path d="M2290 5795 l0 -165 40 0 39 0 3 63 3 62 58 3 c56 3 57 4 57 32 0 30
0 30 -60 30 l-60 0 0 35 0 35 65 0 65 0 0 35 0 35 -105 0 -105 0 0 -165z"/>
<path d="M2640 5949 c-126 -50 -131 -242 -8 -305 34 -18 150 -21 191 -5 27 10
27 12 27 101 l0 90 -75 0 -75 0 0 -29 c0 -26 4 -30 33 -33 29 -3 32 -6 32 -38
0 -31 -3 -35 -27 -38 -36 -4 -87 23 -98 54 -37 97 41 179 133 140 37 -15 38
-15 47 10 6 14 10 29 10 33 0 27 -136 41 -190 20z"/>
<path d="M2920 5795 l0 -165 40 0 40 0 0 70 0 70 50 0 50 0 0 -70 0 -70 45 0
45 0 0 165 0 165 -45 0 -45 0 0 -65 0 -65 -50 0 -50 0 0 65 0 65 -40 0 -40 0
0 -165z"/>
<path d="M3345 5948 c-9 -24 -105 -312 -105 -315 0 -2 20 -3 44 -3 41 0 45 2
51 30 7 30 8 31 58 28 45 -3 52 -6 57 -28 5 -22 12 -25 52 -28 l47 -3 -55 165
-56 166 -44 0 c-27 0 -47 -5 -49 -12z m70 -145 l7 -43 -32 0 c-24 0 -31 4 -27
14 3 8 9 32 13 53 13 71 24 64 39 -24z"/>
<path d="M3600 5795 l0 -165 40 0 39 0 3 93 3 92 50 -92 50 -93 43 0 42 0 0
165 0 165 -40 0 -40 0 0 -92 c-1 -107 -3 -107 -68 19 l-37 73 -42 0 -43 0 0
-165z"/>
<path d="M2517 5416 c-72 -27 -100 -71 -100 -157 0 -99 52 -159 146 -167 120
-10 194 61 185 180 -4 61 -23 96 -69 130 -33 25 -114 32 -162 14z m118 -81
c20 -19 25 -34 25 -75 0 -41 -5 -56 -25 -75 -43 -44 -105 -29 -125 31 -16 48
-5 99 27 124 34 27 69 25 98 -5z"/>
<path d="M2090 5255 l0 -165 40 0 40 0 0 70 0 70 55 0 55 0 0 -70 0 -70 40 0
40 0 0 165 0 165 -40 0 -39 0 -3 -62 -3 -63 -50 0 -50 0 -3 63 -3 62 -39 0
-40 0 0 -165z"/>
<path d="M2800 5305 c0 -141 12 -179 67 -201 47 -20 125 -14 154 12 38 34 49
77 49 194 l0 110 -45 0 -45 0 0 -118 c0 -124 -6 -142 -45 -142 -39 0 -45 18
-45 142 l0 118 -45 0 -45 0 0 -115z"/>
<path d="M3140 5256 l0 -166 40 0 39 0 3 93 3 92 50 -92 50 -93 43 0 42 0 0
165 0 165 -40 0 -40 0 0 -85 c0 -47 -3 -85 -8 -85 -4 0 -28 37 -52 83 -45 81
-46 82 -88 85 l-42 3 0 -165z"/>
<path d="M3480 5254 l0 -167 80 6 c139 9 190 55 190 170 0 111 -57 157 -193
157 l-77 0 0 -166z m173 75 c11 -14 17 -38 17 -71 0 -60 -33 -101 -78 -96 -27
3 -27 4 -30 87 -2 46 0 91 3 99 8 20 65 8 88 -19z"/>
<path d="M2888 4010 c-8 -24 9 -170 21 -184 23 -27 40 -19 43 22 4 47 25 48
47 2 10 -22 24 -36 39 -38 26 -4 28 8 6 50 -13 26 -14 35 -3 54 22 41 8 42
-88 7 -9 -4 -13 7 -13 34 0 39 -14 63 -36 63 -7 0 -14 -5 -16 -10z"/>
<path d="M2045 4005 c-5 -2 -23 -6 -40 -10 -29 -6 -29 -7 -10 -21 14 -10 32
-13 58 -9 l37 7 1 -44 c0 -57 20 -112 41 -116 16 -3 17 4 11 77 l-6 81 52 0
c58 0 68 20 15 31 -31 7 -142 10 -159 4z"/>
<path d="M2270 3927 c0 -88 14 -125 43 -114 11 4 17 21 19 54 4 65 27 65 49 0
20 -59 32 -73 48 -53 9 11 10 24 2 53 -15 56 -33 75 -77 82 -33 5 -39 10 -42
34 -2 19 -9 27 -23 27 -17 0 -19 -8 -19 -83z"/>
<path d="M2478 3973 c-10 -2 -18 -11 -18 -19 0 -10 13 -14 49 -14 28 0 53 -4
56 -10 4 -6 -6 -10 -22 -10 -38 0 -73 -26 -73 -54 0 -37 26 -50 102 -52 l70
-2 -6 44 c-9 69 -30 102 -74 113 -38 11 -55 12 -84 4z m93 -94 c27 -14 14 -29
-27 -29 -23 0 -34 5 -34 14 0 24 31 32 61 15z"/>
<path d="M2673 3964 c-9 -25 5 -126 19 -136 24 -15 40 -3 57 41 22 60 38 62
52 7 13 -54 31 -73 48 -52 16 19 5 79 -21 111 -22 28 -54 32 -84 10 -24 -16
-34 -11 -34 17 0 22 -28 24 -37 2z"/>
<path d="M3170 3934 c0 -47 45 -94 90 -94 45 0 33 -24 -16 -30 -37 -5 -38 -6
-17 -18 33 -18 77 -15 99 9 21 24 36 143 20 159 -19 19 -33 10 -51 -30 -10
-22 -24 -45 -32 -51 -21 -18 -43 8 -43 52 0 35 -3 39 -25 39 -22 0 -25 -4 -25
-36z"/>
<path d="M3423 3960 c-49 -20 -56 -78 -14 -121 24 -23 38 -29 73 -29 84 0 112
52 65 121 -19 28 -29 34 -62 36 -22 1 -50 -2 -62 -7z m87 -51 c16 -37 5 -62
-29 -67 -30 -5 -51 15 -51 49 0 53 60 66 80 18z"/>
<path d="M3604 3956 c-11 -27 6 -87 31 -112 28 -28 76 -32 95 -9 12 14 15 14
30 0 18 -16 60 -21 60 -7 0 5 -9 17 -20 27 -11 10 -23 36 -27 58 -10 65 -55
60 -67 -8 -13 -65 -42 -57 -54 16 -8 46 -36 66 -48 35z"/>
<path d="M2183 3522 c-23 -3 -30 -19 -35 -77 -3 -25 -8 -31 -31 -33 -36 -4
-30 -25 9 -32 22 -4 30 -11 32 -30 2 -14 9 -31 14 -38 17 -19 35 3 30 37 -4
27 -1 29 38 36 50 9 48 29 -4 33 -41 4 -52 18 -42 58 8 29 19 24 40 -17 14
-29 36 -36 36 -12 0 42 -47 82 -87 75z"/>
<path d="M2842 3503 c-12 -21 -3 -163 11 -182 15 -18 101 -9 127 14 40 36 20
86 -44 110 -36 14 -46 23 -48 44 -4 31 -32 40 -46 14z m98 -104 c9 -16 8 -25
-6 -40 -28 -31 -44 -24 -44 21 0 33 3 40 20 40 10 0 24 -9 30 -21z"/>
<path d="M3250 3511 c0 -22 24 -61 37 -61 10 0 13 10 11 33 -2 24 -8 33 -25
35 -13 2 -23 -1 -23 -7z"/>
<path d="M3602 3479 c-62 -18 -69 -95 -11 -125 17 -9 40 -14 50 -11 12 3 19 0
19 -9 0 -15 -12 -17 -72 -14 -21 1 -38 -1 -38 -5 0 -14 75 -36 106 -31 49 10
56 25 48 106 -6 64 -9 72 -35 85 -15 8 -29 15 -31 14 -2 0 -18 -5 -36 -10z
m46 -31 c17 -17 15 -44 -4 -62 -21 -21 -31 -20 -44 5 -9 16 -8 26 5 45 17 27
26 29 43 12z"/>
<path d="M2370 3473 c-29 -11 -60 -47 -60 -70 0 -76 102 -121 164 -72 30 24
32 45 10 93 -23 46 -68 66 -114 49z m68 -58 c17 -37 15 -53 -8 -65 -47 -25
-94 22 -65 66 21 32 58 32 73 -1z"/>
<path d="M2530 3460 c0 -39 22 -121 37 -135 25 -26 42 -18 49 25 9 54 33 75
68 59 36 -17 47 -2 16 23 -23 19 -48 20 -91 3 -10 -4 -19 3 -27 20 -14 31 -52
35 -52 5z"/>
<path d="M3079 3473 c-37 -6 -62 -37 -62 -75 0 -47 52 -88 113 -88 51 0 90 22
90 51 0 24 -15 24 -47 -1 -31 -24 -62 -26 -89 -4 -18 15 -18 15 8 10 31 -7 98
17 98 34 0 37 -51 86 -80 78 -3 0 -17 -3 -31 -5z m50 -42 c12 -22 5 -31 -25
-31 -31 0 -41 20 -19 37 25 17 32 17 44 -6z"/>
<path d="M3330 3453 c1 -50 18 -115 31 -124 23 -15 29 -10 45 29 33 83 41 86
63 17 11 -33 22 -51 35 -53 17 -4 18 1 13 48 -10 82 -48 107 -118 76 -12 -5
-18 -1 -22 13 -3 13 -13 21 -26 21 -16 0 -21 -6 -21 -27z"/>
<path d="M3260 3382 c0 -32 5 -54 15 -62 25 -21 35 0 27 55 -5 36 -12 51 -25
53 -14 3 -17 -4 -17 -46z"/>
<path d="M2930 2997 c0 -33 -2 -35 -42 -40 -75 -10 -105 -84 -52 -126 20 -16
39 -20 90 -19 l64 1 0 81 c0 85 -14 129 -43 134 -13 3 -17 -4 -17 -31z m-18
-84 c23 -21 23 -36 -2 -58 -36 -33 -73 12 -43 54 17 25 21 26 45 4z"/>
<path d="M3552 3018 c-7 -7 -12 -31 -12 -55 0 -38 -3 -43 -23 -43 -13 0 -27
-3 -30 -7 -11 -11 14 -33 39 -33 18 0 23 -6 26 -32 2 -22 9 -34 21 -36 14 -3
17 4 17 37 l0 41 40 0 c28 0 40 4 40 14 0 10 -14 16 -42 18 -41 3 -43 4 -43
36 0 39 16 44 33 8 15 -30 42 -35 42 -7 0 47 -78 89 -108 59z"/>
<path d="M3947 3013 c-11 -10 -8 -152 3 -174 6 -10 18 -19 27 -19 13 0 15 9 9
61 -3 34 -6 79 -6 100 0 37 -15 51 -33 32z"/>
<path d="M1828 2984 c-35 -10 -20 -34 21 -34 42 0 71 -8 71 -19 0 -4 -13 -6
-28 -3 -39 5 -87 -35 -78 -65 4 -11 19 -26 34 -32 30 -12 130 -12 138 0 11 18
-11 94 -35 120 -26 29 -84 44 -123 33z m90 -96 c20 -20 14 -28 -22 -28 -40 0
-54 14 -29 29 24 14 37 13 51 -1z"/>
<path d="M2595 2980 c-8 -13 4 -108 17 -132 16 -32 44 -21 56 21 11 34 38 70
45 60 2 -2 10 -26 18 -54 9 -30 21 -50 29 -50 37 0 15 118 -25 137 -18 8 -31
7 -56 -6 -40 -20 -37 -20 -41 6 -3 24 -32 36 -43 18z"/>
<path d="M3270 2980 c-21 -13 3 -129 31 -152 27 -23 34 -18 48 37 12 50 33 65
62 47 25 -16 39 -15 39 1 0 26 -47 42 -90 31 -36 -10 -39 -9 -44 11 -7 26 -27
37 -46 25z"/>
<path d="M2107 2973 c-4 -3 -7 -25 -7 -48 0 -67 59 -125 96 -94 11 9 21 9 38
1 18 -8 28 -7 42 3 13 9 24 10 37 4 25 -14 39 -2 27 21 -5 10 -10 37 -10 59 0
37 -2 41 -25 41 -20 0 -26 -7 -35 -40 -13 -48 -30 -52 -30 -7 0 42 -16 60 -42
46 -12 -6 -18 -21 -18 -42 0 -18 -4 -38 -9 -45 -12 -19 -21 8 -21 64 0 36 -3
44 -18 44 -10 0 -22 -3 -25 -7z"/>
<path d="M2399 2951 c-16 -16 -29 -39 -29 -51 0 -12 13 -35 29 -51 23 -23 38
-29 71 -29 98 0 123 62 56 138 -30 34 -89 30 -127 -7z m99 -26 c19 -42 15 -64
-15 -71 -51 -13 -82 38 -47 77 24 26 49 24 62 -6z"/>
<path d="M3060 2967 c-32 -16 -47 -58 -32 -91 32 -71 157 -86 196 -24 8 13 7
21 -1 29 -9 9 -19 6 -43 -15 -35 -29 -38 -30 -74 -16 -37 14 -32 27 9 22 22
-3 45 2 60 12 21 14 23 19 13 46 -17 49 -73 65 -128 37z m80 -37 c0 -26 -22
-35 -50 -20 -17 9 -19 14 -9 26 18 22 59 18 59 -6z"/>
<path d="M3704 2965 c-10 -25 3 -85 23 -107 32 -35 63 -42 94 -19 24 18 29 18
39 6 11 -14 50 -21 50 -10 0 2 -9 19 -20 37 -11 18 -20 43 -20 54 0 26 -22 46
-42 39 -8 -3 -19 -26 -26 -50 -18 -67 -41 -57 -52 20 -5 42 -34 61 -46 30z"/>
<path d="M2350 2561 c-5 -11 -10 -35 -10 -55 0 -30 -4 -35 -25 -38 -36 -4 -36
-21 1 -32 22 -7 33 -18 40 -40 13 -45 39 -41 38 6 -1 36 0 37 38 40 51 4 53
21 3 33 -47 11 -54 18 -47 51 6 32 18 30 37 -7 17 -32 42 -35 37 -3 -10 54
-90 86 -112 45z"/>
<path d="M2726 2571 c-8 -13 13 -59 31 -65 11 -5 14 3 11 32 -3 36 -28 56 -42
33z"/>
<path d="M3380 2545 c0 -32 -2 -35 -31 -35 -32 0 -69 -15 -81 -34 -4 -6 -8
-25 -8 -42 0 -49 29 -67 111 -70 l71 -3 -4 94 c-4 93 -15 125 -44 125 -9 0
-14 -12 -14 -35z m-18 -82 c22 -20 23 -31 1 -55 -22 -25 -41 -23 -54 6 -8 17
-8 29 0 45 14 25 28 27 53 4z"/>
<path d="M2505 2531 c-3 -6 2 -41 10 -80 12 -52 21 -72 36 -76 25 -8 39 2 39
28 0 49 49 84 77 56 20 -20 36 1 17 22 -19 21 -73 25 -105 9 -16 -9 -19 -7
-19 8 0 32 -40 56 -55 33z"/>
<path d="M3044 2526 c-4 -9 -3 -41 1 -70 10 -87 51 -102 73 -28 7 22 19 45 27
52 17 14 17 14 35 -57 8 -34 15 -43 32 -43 19 0 20 4 14 45 -3 25 -10 55 -16
65 -15 28 -58 36 -91 17 -27 -15 -28 -14 -31 6 -4 26 -36 35 -44 13z"/>
<path d="M2832 2513 c-12 -10 -24 -30 -28 -45 -5 -23 0 -34 29 -63 31 -31 41
-35 89 -35 58 0 88 19 88 53 0 23 -23 21 -45 -3 -21 -24 -77 -27 -95 -5 -10
12 -7 13 22 9 45 -7 84 15 80 46 -1 13 -10 32 -19 42 -21 24 -93 24 -121 1z
m89 -24 c9 -17 8 -23 -2 -30 -8 -5 -20 -7 -27 -4 -8 3 -18 5 -23 5 -16 0 -10
29 9 39 25 15 30 14 43 -10z"/>
<path d="M2730 2449 c0 -47 14 -79 35 -79 18 0 20 54 5 94 -16 42 -40 33 -40
-15z"/>
<path d="M3474 2405 c-7 -18 3 -35 21 -35 21 0 28 19 15 35 -16 19 -29 19 -36
0z"/>
<path d="M2260 1811 c0 -16 8 -20 38 -23 l37 -3 3 -107 c2 -100 4 -108 22
-108 19 0 20 7 20 110 l0 110 35 0 c28 0 35 4 35 20 0 19 -7 20 -95 20 -87 0
-95 -2 -95 -19z"/>
<path d="M2510 1700 c0 -123 1 -130 20 -130 18 0 20 7 20 63 0 65 11 87 42 87
24 0 38 -38 38 -101 0 -37 4 -49 15 -49 12 0 15 15 15 79 0 51 -4 82 -12 88
-25 19 -46 21 -72 8 l-26 -14 0 50 c0 42 -3 49 -20 49 -19 0 -20 -7 -20 -130z"/>
<path d="M3300 1700 l0 -133 65 6 c73 5 105 25 105 64 0 32 -17 63 -35 63 -21
0 -19 13 5 28 28 17 27 68 -1 83 -12 6 -48 14 -80 16 l-59 6 0 -133z m119 66
c4 -23 -24 -46 -56 -46 -20 0 -23 5 -23 36 0 35 1 35 37 32 28 -2 39 -8 42
-22z m-8 -86 c41 -23 16 -70 -38 -70 -32 0 -33 1 -33 40 0 36 2 40 26 40 14 0
34 -5 45 -10z"/>
<path d="M2936 1749 c-39 -11 -55 -36 -56 -87 0 -55 33 -92 84 -92 44 0 66 9
66 25 0 9 -11 12 -40 8 -41 -6 -70 8 -70 33 0 11 17 14 66 14 l67 0 -7 32
c-12 58 -51 82 -110 67z m59 -35 c24 -25 13 -39 -33 -42 -46 -3 -56 13 -26 42
20 20 38 20 59 0z"/>
<path d="M3143 1752 c-68 -11 -84 -123 -24 -169 29 -22 111 -14 111 11 0 7
-14 10 -38 8 -27 -3 -44 1 -55 13 -29 28 -19 35 48 35 59 0 65 2 65 21 0 16
-14 53 -25 67 -6 7 -63 17 -82 14z m48 -32 c10 -6 19 -20 19 -30 0 -17 -7 -20
-39 -20 -47 0 -59 14 -35 41 20 22 28 23 55 9z"/>
<path d="M2720 1660 c0 -83 1 -90 20 -90 18 0 20 7 20 55 0 60 22 95 60 95 11
0 20 7 20 15 0 19 -30 19 -58 -1 -20 -14 -22 -14 -22 0 0 9 -9 16 -20 16 -19
0 -20 -7 -20 -90z"/>
</g>
</svg>
