<?xml version="1.0" encoding="UTF-8"?>
<svg id="_レイヤー_1" data-name="レイヤー 1" xmlns="http://www.w3.org/2000/svg" width="180.65mm" height="301.96mm" viewBox="0 0 512.09 855.95">
  <path d="M308.76,824.96c-.92-.88-5.51-2-7.47-3.04s-3.39-3.49-5-4c-11.5-3.62-30.58.02-42.84-.17-10.46-.17-18.71-2.4-29.94-1.03-4.87.6-15.85,5.13-19.83,7.92-.88.62-5.02,8.48-6.7,10.55-22.84,28.17-77.62,24.04-107,9.04-3.28-1.67-8.36-6.15-10.93-7.07-5.23-1.86-13.76-2.03-20.06-3.94-23.3-7.09-43.22-26.9-38.75-52.77.47-2.75,3-6.43,2.59-9.03-.24-1.5-9.26-13.88-11-17.04-15.8-28.6-17.25-65.68,4.66-91.68,2.45-2.91,14.31-13.17,14.96-14.94.74-2-1.52-11.24-1.49-14.5.21-21.27,12.77-45.17,22.18-63.91,2.61-5.2,10.53-16.12,11.61-20.39.87-3.44-.11-7.7.48-11.52,1.05-6.77,5.94-16.96,7.46-24.54,4.09-20.33,1.13-32.87,12.13-52.87,2.17-3.95,6.89-8.95,8.38-12.62,3.21-7.86,3.3-14.13,8.27-22.73,1.85-3.2,11.04-14.27,11.26-15.64.76-4.72-9.31-9.93-12.76-13.82-7-7.88-12.05-20.56-12.96-31.04-.47-5.38.71-11.77-.08-16.92-.61-3.97-3.74-9.45-4.66-14.34-3.61-18.98,1-38,14.71-51.73.02-1.08-10.06-3.99-12.02-4.96-16.27-8.01-27.5-28.34-28.94-46.06-.59-7.18.99-16.13-.08-22.92-.55-3.52-4.77-10.22-6.2-14.8-8.87-28.35-3.87-63.27,24.89-77.64,7.76-3.88,21.11-5.89,27.32-10.68,2.89-2.23,5.4-6.63,8.53-9.47,15.88-14.43,28.21-26.57,51.37-21.32,3.36.76,11.5,4.47,13.58,4.33,1.07-.07,14.49-4.71,16.56-5.51,1.4-.55,7.42-3.3,8.04-3.97,2.14-2.32.08-4.45-.01-7.02-2.84-81.56,116.84-81.63,114,0-.09,2.58-2.16,4.7-.01,7.02.61.66,6.64,3.42,8.04,3.97,2.06.81,15.49,5.44,16.56,5.51,2.08.14,10.22-3.57,13.58-4.33,23.16-5.25,35.49,6.88,51.37,21.32,3.13,2.84,5.64,7.25,8.53,9.47,6.22,4.79,19.56,6.8,27.32,10.68,28.76,14.37,33.76,49.29,24.89,77.64-1.43,4.58-5.65,11.28-6.2,14.8-1.02,6.51.48,15.12-.02,21.98-1.3,17.74-11.72,37.76-27.73,46.27-4.49,2.39-9.14,3.02-13.29,5.69,14.17,14.21,18.58,33.94,14.33,53.35-.92,4.21-3.75,9.24-4.29,12.71-.83,5.41.39,12.08-.18,17.82-1.3,13.06-7.73,25.9-17.4,34.6-2.96,2.66-8.26,3.43-7.51,8.47.19,1.29,11.17,14.25,13.2,17.88,4.57,8.18,4.79,15.5,8.09,22.91,3.02,6.79,9.24,13.1,12.5,21.5,6.71,17.25,4.86,30.43,7.36,47.64,1.08,7.42,4.69,13.37,5.64,19.36.56,3.55-.22,7.14.47,10.53,1,4.96,6.94,12.02,9.29,16.71,14.11,28.09,30.49,56.74,21.63,89.29,7.21,9.15,17.35,16.88,23.03,27.05,14.45,25.88,12.22,56.63-1,82.34-1.98,3.85-11.89,17.8-12.18,19.91-.38,2.8,3.88,13.01,3.9,18.03.15,26.26-31,46-54.51,48.27-8.89.86-19-2.23-25.75-1.57-2.64.25-8.51,3.12-12,3.83-28.16,5.7-63.98,8.49-84.65-15.61-2.46-2.86-5.78-9.91-7.22-11.27ZM404.01,276.72c26.87.51,45.89-21.93,47.98-47.53.59-7.18-.99-16.13.08-22.92.55-3.52,4.77-10.22,6.2-14.8,6.97-22.28,5.69-52.03-14.35-67.17-10.59-8.01-22.55-8.39-32.85-14.15-5.87-3.28-13.28-12.9-19.05-17.95-14.48-12.68-22.32-17.99-42.23-13.2-3.2.77-6.96,3.01-9.54,3.5-3.24.62-16.39-3.78-20.23-5.31-4.43-1.76-8.37-4.73-13.04-6l-.84-1.05c7.06-25.39-6.71-52.51-31.16-61.91-40.16-15.45-79.91,20.78-69.16,61.9-.22.97-11.74,6.24-13.85,7.06-3.88,1.53-16.96,5.93-20.23,5.31-14.26-2.71-19.06-9.74-35.74-2.28-13.99,6.26-25.4,25.51-37.01,30.99-8.55,4.04-17.9,5.01-26.67,10.33-23.61,14.34-26.24,44.63-18.83,69.17,1.46,4.83,5.87,11.94,6.43,15.57,1.02,6.51-.48,15.12.02,21.98,1.93,26.17,20.5,48.71,48.04,48.47-19.12,14.79-27.71,37.07-20.28,60.77.87,2.79,3.83,7.02,4.08,8.94.53,3.98-1.29,12.29-.79,17.77.78,8.44,5.61,20.42,11.01,26.99s14.83,8.67,15.78,18.89c-6.73,8.12-13.82,16.32-17.58,26.36-1.6,4.27-1.93,9.15-3.72,13.28-2.13,4.91-7.1,10.2-9.68,15.32-9.1,18.11-6.47,30.73-10.12,48.88-1.53,7.58-6.34,17.78-7.47,24.53-.68,4.09.36,8.24-.7,12.3-1.15,4.36-7.74,12.36-10.07,16.93-12.86,25.09-27.5,52.14-21.6,81.32-11.12,11.75-22.15,20.52-27.62,36.47-7.6,22.17-5.06,43.39,5.59,63.93,2.19,4.22,13.71,20.13,14.02,22.05.35,2.16-3.1,7.53-3.74,10.88-4.44,23.31,17.43,41.56,37.89,46.91,5.4,1.41,12.57,1.34,17.25,2.75,2.44.73,5.12,3.91,7.72,5.28,28.23,14.84,78.87,22.64,103.06-3.01,3.08-3.27,7.36-11.9,9.43-13.57.6-.49,12.52-7.51,13.25-7.75,12.96-4.06,29.03-.18,41.77-.13,12.72.04,30.28-3.51,42.82.12.74.22,12.64,7.27,13.24,7.76,2.08,1.67,6.35,10.3,9.43,13.57,19.33,20.49,51.63,18.2,77.03,12.99,3.89-.8,12.16-4.33,14.54-4.47,6.33-.38,15,2.5,22.99,2,25.6-1.6,58.02-22.7,50.82-51.9-.71-2.88-3.56-7.53-3.36-9.58.17-1.79,9.38-14.65,11.18-17.89,11.99-21.61,16.37-40.86,10.11-65.45-4.89-19.22-17.19-30.83-31.17-43.87,6.19-20.4,3.13-39.49-5.25-58.7-4.04-9.27-9.68-20.56-14.32-29.68-2.33-4.59-9.42-13.28-10.31-17.69-.75-3.7.18-7.68-.47-11.53-.52-3.12-2.74-5.69-3.49-8.51-6.28-23.6-.43-43.78-13.76-67.24-2.15-3.79-6.93-8.58-8.25-11.75-2.44-5.87-2.8-13.14-6.1-19.9-2.64-5.41-15.62-19.95-16.03-22.06-1.45-7.52,10.48-12.49,14.83-17.78,5.4-6.58,10.23-18.55,11.01-26.99.45-4.85-1.34-14.84-.76-17.73.4-2,3.39-6.65,4.28-9.75,6.85-23.81-1.45-45.12-20.5-59.99ZM278.92,47.64c0,12.64-10.25,22.89-22.89,22.89s-22.89-10.25-22.89-22.89,10.25-22.89,22.89-22.89,22.89,10.25,22.89,22.89ZM273.85,47.58c0-9.86-7.99-17.85-17.85-17.85s-17.85,7.99-17.85,17.85,7.99,17.85,17.85,17.85,17.85-7.99,17.85-17.85Z"/>
</svg>