<?xml version="1.0" encoding="UTF-8"?>
<svg id="_レイヤー_1" data-name="レイヤー 1" xmlns="http://www.w3.org/2000/svg" viewBox="0 0 580 867">
  <path d="M580,0v867H0V0h580ZM342.76,831.25c1.21,1.15,4.31,7.81,6.27,10.23,17.04,21.03,46.37,22.57,71.34,19.38,8.82-1.13,19.13-5.51,26.49-6.31,6.83-.75,16.83,2.12,25.52,1.32,23.56-2.16,54.66-22.07,54.52-48.26-.03-5.01-4.29-15.23-3.9-18.03.29-2.09,10.21-16.09,12.19-19.91,10.63-20.53,13.71-40.92,8.33-63.67-4.78-20.23-16.9-31.16-30.35-45.72,9.03-32.57-8.21-63.25-22.61-91.31-6.91-13.46-6.28-9.35-8.78-25.22-.94-5.99-4.56-11.95-5.64-19.36-2.5-17.21-.65-30.39-7.36-47.64-3.2-8.24-9.78-15.02-12.51-21.49-3.2-7.59-3.49-14.69-8.08-22.92-2.03-3.64-13.01-16.59-13.2-17.88-.75-5.04,4.55-5.81,7.51-8.47,9.67-8.7,16.1-21.54,17.4-34.6.57-5.73-.64-12.41.18-17.82.53-3.48,3.36-8.5,4.29-12.71,4.25-19.41-.16-39.14-14.33-53.35,4.87-2.96,10.27-3.66,15.3-6.68,14.68-8.82,24.49-28.54,25.72-45.28.5-6.86-1-15.46.02-21.98.55-3.52,4.77-10.22,6.2-14.8,8.87-28.35,3.87-63.27-24.89-77.64-7.76-3.88-21.11-5.89-27.32-10.68-2.89-2.23-5.4-6.63-8.53-9.47-20.77-18.88-35.9-30.29-64.95-16.98-4.27-2.54-25.26-6.91-25.61-11.49-.12-1.52.97-3.34,1.03-5.02,2.85-81.59-116.84-81.61-114,0,.09,2.58,2.16,4.7.01,7.02-.61.66-6.64,3.42-8.04,3.97-2.06.81-15.49,5.44-16.56,5.51-2.08.14-10.22-3.57-13.58-4.33-23.16-5.25-35.49,6.88-51.37,21.32-3.13,2.84-5.64,7.25-8.53,9.47-6.22,4.79-19.56,6.8-27.32,10.68-28.76,14.37-33.76,49.29-24.89,77.64,1.43,4.58,5.65,11.28,6.2,14.8,1.06,6.79-.51,15.74.08,22.92,1.45,17.71,12.67,38.05,28.94,46.06,1.96.97,12.04,3.88,12.02,4.96-13.71,13.73-18.31,32.75-14.71,51.73.93,4.88,4.06,10.36,4.66,14.34,2.83,18.52-2.35,28.32,11.23,45.77,3.55,4.56,15.28,11.6,14.57,16.01-.17,1.07-9.46,12.5-11.26,15.64-4.86,8.48-5.29,15.73-8.71,23.29-1.59,3.52-5.9,8.26-7.94,12.06-10.97,20.46-8.11,32.09-12.11,52.89-1.46,7.61-6.4,17.66-7.48,24.52-1.55,9.86.08,10.25-5.04,19.96-11.8,22.36-29.18,49.64-29.28,75.81-.01,3.25,2.3,12.5,1.54,14.55s-14.1,13.51-16.87,17.03c-20.21,25.71-17.8,62.15-2.76,89.59,1.85,3.38,10.59,15.22,10.99,17.07s-3.68,12.76-3.74,16.92c-.41,26.18,26.03,41.19,47.89,46.88,12.6,3.28,11.87,3.43,23.01,8.99,29.73,14.83,83.93,19.42,107-9.04,1.68-2.07,5.81-9.93,6.7-10.55,3.98-2.79,14.97-7.32,19.83-7.92,11.23-1.38,19.49.86,29.94,1.03,12.25.2,31.34-3.44,42.84.17,1.61.51,3.03,2.95,5,4s6.55,2.16,7.47,3.04Z" style="fill: #fff;"/>
  <g>
    <path d="M342.76,831.25c-.92-.88-5.51-2-7.47-3.04s-3.39-3.49-5-4c-11.5-3.62-30.58.02-42.84-.17-10.46-.17-18.71-2.4-29.94-1.03-4.87.6-15.85,5.13-19.83,7.92-.88.62-5.02,8.48-6.7,10.55-23.07,28.46-77.27,23.87-107,9.04-11.15-5.56-10.41-5.71-23.01-8.99-21.86-5.69-48.3-20.7-47.89-46.88.06-4.16,4.12-15.12,3.74-16.92s-9.13-13.68-10.99-17.07c-15.04-27.43-17.46-63.88,2.76-89.59,2.77-3.52,16.13-15.04,16.87-17.03s-1.55-11.3-1.54-14.55c.11-26.16,17.48-53.44,29.28-75.81,5.12-9.7,3.49-10.1,5.04-19.96,1.08-6.86,6.02-16.91,7.48-24.52,4-20.81,1.14-32.43,12.11-52.89,2.04-3.8,6.35-8.54,7.94-12.06,3.42-7.56,3.85-14.81,8.71-23.29,1.8-3.15,11.09-14.57,11.26-15.64.71-4.4-11.02-11.45-14.57-16.01-13.59-17.45-8.4-27.24-11.23-45.77-.61-3.97-3.74-9.45-4.66-14.34-3.61-18.98,1-38,14.71-51.73.02-1.08-10.06-3.99-12.02-4.96-16.27-8.01-27.5-28.34-28.94-46.06-.59-7.18.99-16.13-.08-22.92-.55-3.52-4.77-10.22-6.2-14.8-8.87-28.35-3.87-63.27,24.89-77.64,7.76-3.88,21.11-5.89,27.32-10.68,2.89-2.23,5.4-6.63,8.53-9.47,15.88-14.43,28.21-26.57,51.37-21.32,3.36.76,11.5,4.47,13.58,4.33,1.07-.07,14.49-4.71,16.56-5.51,1.4-.55,7.42-3.3,8.04-3.97,2.14-2.32.08-4.45-.01-7.02-2.84-81.61,116.85-81.59,114,0-.06,1.68-1.15,3.5-1.03,5.02.35,4.57,21.34,8.95,25.61,11.49,29.05-13.31,44.17-1.9,64.95,16.98,3.13,2.84,5.64,7.25,8.53,9.47,6.22,4.79,19.56,6.8,27.32,10.68,28.76,14.37,33.76,49.29,24.89,77.64-1.43,4.58-5.65,11.28-6.2,14.8-1.02,6.51.48,15.12-.02,21.98-1.23,16.74-11.03,36.46-25.72,45.28-5.03,3.02-10.43,3.72-15.3,6.68,14.17,14.21,18.58,33.94,14.33,53.35-.92,4.21-3.75,9.24-4.29,12.71-.83,5.41.39,12.08-.18,17.82-1.3,13.06-7.73,25.9-17.4,34.6-2.96,2.66-8.26,3.43-7.51,8.47.19,1.29,11.17,14.25,13.2,17.88,4.59,8.22,4.89,15.33,8.08,22.92,2.73,6.47,9.3,13.25,12.51,21.49,6.71,17.25,4.86,30.43,7.36,47.64,1.08,7.42,4.69,13.37,5.64,19.36,2.5,15.87,1.86,11.76,8.78,25.22,14.41,28.06,31.64,58.74,22.61,91.31,13.45,14.56,25.57,25.49,30.35,45.72,5.38,22.75,2.3,43.15-8.33,63.67-1.98,3.82-11.9,17.82-12.19,19.91-.38,2.8,3.88,13.01,3.9,18.03.14,26.19-30.96,46.1-54.52,48.26-8.69.8-18.69-2.07-25.52-1.32-7.36.8-17.68,5.18-26.49,6.31-24.97,3.19-54.29,1.65-71.34-19.38-1.96-2.42-5.06-9.08-6.27-10.23ZM438,283.01c26.89.37,45.88-21.86,47.98-47.53.55-6.76-1.13-15.7-.45-21.64.4-3.46,5.26-11.4,6.72-16.09,6.95-22.22,5.63-52.08-14.35-67.17-10.59-8.01-22.56-8.39-32.85-14.15-11.73-6.56-21.28-23.98-35.84-30.16-16.59-7.05-20.87-.17-34.97,2.51-3.24.62-16.39-3.78-20.23-5.31-4.43-1.76-8.37-4.73-13.04-6l-.84-1.05c7.06-25.39-6.71-52.51-31.16-61.91-40.15-15.45-79.91,20.78-69.16,61.9-.22.97-11.74,6.24-13.85,7.06-3.88,1.53-16.96,5.93-20.23,5.31-14.26-2.71-19.06-9.74-35.74-2.28-13.71,6.13-23.74,23.59-35.07,29.93-5.87,3.28-13.65,4.45-19.92,7.08-30.77,12.93-36.61,44.43-27.28,74.24,1.43,4.58,5.65,11.28,6.2,14.8,1.06,6.79-.51,15.74.08,22.92,2.1,25.67,21.1,47.9,47.98,47.53-19.12,14.79-27.71,37.07-20.28,60.77.87,2.79,3.83,7.02,4.08,8.94.49,3.71-1.24,11.58-.79,16.77,1.03,11.78,6.98,25.29,16.07,32.93,1.94,1.63,5.86,2.95,6.97,4.3.61.74,3.75,8.14,3.75,8.99.01,1.09-11.16,14.5-12.98,17.63-4.79,8.23-5,15-8.33,22.67-2.14,4.92-7.12,10.19-9.68,15.32-8.99,18.03-6.49,30.81-10.12,48.88-1.53,7.58-6.34,17.78-7.47,24.53-.68,4.09.36,8.24-.7,12.3-1.16,4.39-7.75,12.34-10.07,16.93-4.34,8.54-9.48,19-13.32,27.68-7.89,17.87-11.65,33.87-8.28,53.63-11.72,12.26-23.35,21.71-28.37,38.72-6.42,21.74-4,41.75,6.34,61.68,2.19,4.21,13.69,19.98,14.02,22.05.39,2.47-3.27,7.3-3.76,10.86-3.12,22.81,14.53,39.69,34.9,45.92,6.68,2.04,14.52,2.01,20.26,3.74,2.52.76,6.76,4.76,9.73,6.27,27.94,14.15,77.4,21.07,101.04-4,3.08-3.27,7.36-11.9,9.43-13.57.6-.49,12.52-7.51,13.25-7.75,12.96-4.06,29.03-.18,41.77-.13,11.03.04,21.36-2.28,33.01-1.07,10.16,1.06,8.5,1.69,15.98,6.02,2.25,1.31,5.36,1.53,7.08,2.92,2.08,1.67,6.35,10.3,9.43,13.57,19.31,20.47,51.65,18.23,77.03,12.99,4.01-.83,11.7-4.29,14.54-4.48,3.2-.2,9.35,1.75,12.96,1.95,28.5,1.61,65.38-16.2,61.38-49.38-.5-4.16-4.39-10.11-3.71-12.85.58-2.32,8.97-13.44,10.99-17.09,11.93-21.5,16.33-40.99,10.11-65.45-4.89-19.22-17.19-30.83-31.17-43.87,6.66-21.6,2.63-40.6-6.25-60.7-3.83-8.68-8.98-19.15-13.32-27.68-2.33-4.59-9.42-13.28-10.31-17.69-.75-3.7.18-7.68-.47-11.53-.52-3.12-2.74-5.69-3.49-8.51-6.28-23.6-.43-43.78-13.76-67.24-5.5-9.68-6.3-9.66-10.24-20.76-4.94-13.91-11.41-22.63-20.93-33.73-.03-.45,3.5-7.8,3.92-8.23,1-1.01,4.78-2.29,6.64-3.86,9.09-7.64,15.04-21.15,16.07-32.93.45-5.19-1.28-13.06-.79-16.77.25-1.92,3.21-6.15,4.08-8.94,7.43-23.7-1.16-45.98-20.28-60.77Z"/>
    <path d="M312.91,53.91c0,12.65-10.26,22.91-22.91,22.91s-22.91-10.26-22.91-22.91,10.26-22.91,22.91-22.91,22.91,10.26,22.91,22.91ZM307.83,53.91c0-9.85-7.98-17.83-17.83-17.83s-17.83,7.98-17.83,17.83,7.98,17.83,17.83,17.83,17.83-7.98,17.83-17.83Z"/>
    <polygon points="282 280 282.01 286.01 268.99 285.99 268.99 292.01 281.01 291.99 281.01 297.01 269.44 297.94 269 306 282.01 305.99 282 311 262 311 262 280 282 280"/>
    <path d="M201.86,280.14l10.14,30.86-6.87-.12-2.76-6.75-9.49.45-1.82,5.98-7.05.43,10.09-30.89,7.76.04ZM198.99,287c-2.59-.28-1.59,0-2.02,1.46-1.02,3.46-1.1,7.29-2.97,10.53h8s-3.01-11.99-3.01-11.99Z"/>
    <path d="M396,280v6.01s-13.01-.01-13.01-.01v6.01s12.01-.01,12.01-.01v5.01s-10.37.13-10.37.13c-2.5.82-2.5,7.9,0,8.72l11.37.13v5.01h-19.01v-31h19Z"/>
    <polygon points="251 323 251.01 329.01 238 329 238.94 335.56 250.01 335.99 250.02 340.42 238 341 238.44 348.06 251.01 348.99 251 354 232 354 232 323 251 323"/>
    <polygon points="351 323 351.01 329.01 338 329 338.44 335.07 350.02 336.58 350.01 341.01 337.99 340.99 337.99 349.01 351.01 348.99 351 354 332 354 332 323 351 323"/>
    <polygon points="226 323 226.01 329.01 217 329 217 354 210 354 210 329 200.99 329.01 201 323 226 323"/>
    <polygon points="357 280 357 305 370.06 305.44 371 311 350 311 350 280 357 280"/>
    <path d="M217.99,229l1.52,3.99c1.85-5.26,8.3-5.91,9.51,0,.51.37,4.04-4.49,7.98-2.54,9.19,9.27.33,22.97-2.01,3.54-3.36,1.54-3.97,5.7-4,9l-4.06-.44c-4.37-17.19-2.9-5.48-6.5.37-5.1,8.3-11.26-14.98-2.45-13.93Z"/>
    <rect x="218" y="280" width="8" height="31"/>
    <rect x="316" y="323" width="8" height="31"/>
    <path d="M292,246c-6.69-1.27-18.43,2.94-18.1-7.52.2-6.31,6.76-8.9,12.09-6.48v-8c3.32-1.19,6.01,4.14,6.01,6.5v15.5ZM285.87,238.58c0-2.26-1.83-4.09-4.09-4.09s-4.09,1.83-4.09,4.09,1.83,4.09,4.09,4.09,4.09-1.83,4.09-4.09Z"/>
    <path d="M320.27,236.26c1.74-1.93,7.36-3.05,9.72-1.26v-1.98s-11-1.02-11-1.02l.02-2.96c11.33-2.99,17.59,2.99,17.91,14.35-.41,1.5-8.68,1.81-10.38,1.67-4.63-.37-10.76-3.8-6.27-8.79Z"/>
    <path d="M301.01,239c2.3,6.76,9.47,3.41,12.5-1,6.67,3.91-1.34,7.76-6.05,8.04-10.38.62-17.75-12.19-8.05-16.12,14.92-6.04,18.2,14.88,1.59,9.08ZM302.7,232.16c-1.18.34-1.85,1.56-2.69,2.34,7.54,7.28,9.66-4.37,2.69-2.34Z"/>
    <path d="M249.01,229c.77,22.45,7.68,1.65,9.97.44,5.85-3.09,4.81,14.96.32,17.61-3.14,1.86-8.84,1.38-11.3-1.56,2.49-.99,6.37,1.28,7.99-2.01,1.14-2.32-5.09-1.21-6.97-2.01-4.01-1.69-5.88-8.44-5.02-12.48h5.01Z"/>
    <path d="M346.02,234c4.5-3.08,11.73-3.49,12.98,2.99-8.86-3.41-10.54-1.52-11.13,7.86-7.96,3.27-7.03-10.3-8.93-15.22l4.05-1.19,3.04,5.56Z"/>
    <path d="M363.01,239c-.85-3.86-3.6-10.91-1.08-14.41,5.03-6.96,5.81,18.13,1.08,14.41Z"/>
    <circle cx="290" cy="53.91" r="17.83" style="fill: #fff;"/>
    <g>
      <path d="M288,311v-31c11.83-1.12,25.99.54,25.99,15.5,0,5.65-5.2,15.5-11.49,15.5h-14.5ZM295,285v21c16.52,2.41,16.47-22.71,0-21Z"/>
      <path d="M295,285c16.47-1.71,16.52,23.41,0,21v-21Z" style="fill: #fff;"/>
    </g>
    <g>
      <path d="M247.5,280c9.92,1.64,11.81,13.01,2.52,17.5l6.98,13.49-7.9-.09c-1.08-4.67-1.77-11.1-7.6-11.91-2.04-.28-1.31.15-1.5,1.49-.27,1.91.38,10.16,0,10.53h-7.01v-31.01c4.47.51,10.24-.7,14.5,0ZM240,285l.95,9.58c11.44.72,10.89-11.42-.95-9.58Z"/>
      <path d="M240,285c11.84-1.83,12.39,10.3.95,9.58l-.95-9.58Z" style="fill: #fff;"/>
    </g>
    <g>
      <path d="M258,323c12.92-1.97,32.67,3.65,17.03,17.49l5.99,13-6.88.37c-2.24-5-1.57-12.41-9.14-10.87v11.01s-7,0-7,0v-31ZM265,338c11.54.6,12.11-10.42,0-10.01v10.01Z"/>
      <path d="M265,338v-10.01c12.11-.41,11.54,10.61,0,10.01Z" style="fill: #fff;"/>
    </g>
    <g>
      <path d="M358,323c7.15-.07,14.89-.73,21.08,3.67,2.06,5.68,1.55,10.84-4.07,13.89l6,12.93-6.85.34c-3.12-5.6-1.52-12.69-10.17-10.84v11.01s-6,0-6,0v-31ZM365.64,328.08c-2.26.71-2.23,7.49-1.2,8.98,1.87,2.69,8.97.18,9.34-3.71l-.85-2.73c-1.22-1.68-5.35-3.14-7.28-2.53Z"/>
      <path d="M365.64,328.08c1.93-.61,6.07.85,7.28,2.53l.85,2.73c-.37,3.89-7.47,6.4-9.34,3.71-1.03-1.49-1.05-8.27,1.2-8.98Z" style="fill: #fff;"/>
    </g>
    <g>
      <path d="M287,323c14.11-1,31.14,1.9,17.13,18.32l5.88,12.17-7.05.05c-3.2-5.57-1.1-12.33-9.96-10.55v11.01s-6,0-6,0v-31ZM294.64,328.08c-2.26.71-2.23,7.49-1.2,8.98,1.87,2.69,8.97.18,9.34-3.71l-.85-2.73c-1.22-1.68-5.35-3.14-7.28-2.53Z"/>
      <path d="M294.64,328.08c1.93-.61,6.07.85,7.28,2.53l.85,2.73c-.37,3.89-7.47,6.4-9.34,3.71-1.03-1.49-1.05-8.27,1.2-8.98Z" style="fill: #fff;"/>
    </g>
    <g>
      <path d="M334.89,280.12l10.11,30.87-7.05-.43-1.82-5.98-9.49-.45-2.76,6.75-6.87.12,10.13-30.86,7.75-.02ZM334,299c.49-.49-1.46-11.54-3.99-11.99l-3.01,11.99h7Z"/>
      <path d="M334,299h-7s3.01-11.99,3.01-11.99c2.53.46,4.48,11.5,3.99,11.99Z" style="fill: #fff;"/>
    </g>
    <path d="M198.99,287l3.01,11.99h-8c1.87-3.24,1.95-7.07,2.97-10.53.43-1.46-.57-1.74,2.02-1.46Z" style="fill: #fff;"/>
    <circle cx="281.78" cy="238.58" r="4.09" style="fill: #fff;"/>
    <path d="M302.7,232.16c6.97-2.04,4.86,9.61-2.69,2.34.84-.78,1.51-1.99,2.69-2.34Z" style="fill: #fff;"/>
    <g>
      <path d="M438,283.01c19.12,14.79,27.71,37.07,20.28,60.77-.87,2.79-3.83,7.02-4.08,8.94-.49,3.71,1.24,11.58.79,16.77-1.03,11.77-6.98,25.29-16.07,32.93-1.87,1.57-5.64,2.85-6.64,3.86-.42.42-3.94,7.77-3.92,8.23,9.52,11.1,15.99,19.82,20.93,33.73,3.94,11.11,4.74,11.08,10.24,20.76,13.33,23.47,7.48,43.65,13.76,67.24.75,2.82,2.97,5.39,3.49,8.51.64,3.85-.29,7.83.47,11.53.9,4.4,7.98,13.1,10.31,17.69,4.34,8.54,9.48,19,13.32,27.68,8.87,20.11,12.91,39.1,6.25,60.7,13.99,13.05,26.28,24.65,31.17,43.87,6.22,24.47,1.82,43.95-10.11,65.45-2.03,3.65-10.42,14.77-10.99,17.09-.68,2.74,3.21,8.69,3.71,12.85,4,33.18-32.88,50.99-61.38,49.38-3.61-.2-9.76-2.16-12.96-1.95-2.84.18-10.53,3.65-14.54,4.48-25.38,5.24-57.73,7.48-77.03-12.99-3.08-3.27-7.36-11.89-9.43-13.57-1.72-1.39-4.83-1.62-7.08-2.92-7.47-4.34-5.81-4.97-15.98-6.02-11.65-1.21-21.98,1.11-33.01,1.07-12.75-.05-28.82-3.93-41.77.13-.74.23-12.65,7.26-13.25,7.75-2.08,1.67-6.35,10.3-9.43,13.57-23.64,25.07-73.1,18.15-101.04,4-2.97-1.5-7.21-5.51-9.73-6.27-5.74-1.73-13.58-1.7-20.26-3.74-20.37-6.23-38.02-23.11-34.9-45.92.49-3.56,4.16-8.4,3.76-10.86-.33-2.07-11.83-17.84-14.02-22.05-10.34-19.93-12.76-39.93-6.34-61.68,5.02-17.01,16.65-26.46,28.37-38.72-3.37-19.77.4-35.76,8.28-53.63,3.83-8.68,8.98-19.15,13.32-27.68,2.33-4.58,8.92-12.53,10.07-16.93,1.07-4.06.02-8.21.7-12.3,1.13-6.75,5.94-16.95,7.47-24.53,3.63-18.07,1.13-30.85,10.12-48.88,2.56-5.13,7.54-10.4,9.68-15.32,3.33-7.67,3.54-14.44,8.33-22.67,1.82-3.13,12.99-16.54,12.98-17.63,0-.85-3.14-8.25-3.75-8.99-1.11-1.35-5.02-2.67-6.97-4.3-9.09-7.64-15.04-21.15-16.07-32.93-.45-5.19,1.28-13.06.79-16.77-.25-1.92-3.21-6.15-4.08-8.94-7.43-23.7,1.16-45.98,20.28-60.77-26.88.37-45.89-21.86-47.98-47.53-.59-7.18.99-16.13-.08-22.92-.55-3.52-4.77-10.22-6.2-14.8-9.33-29.82-3.5-61.31,27.28-74.24,6.26-2.63,14.05-3.8,19.92-7.08,11.33-6.34,21.36-23.8,35.07-29.93,16.68-7.46,21.48-.43,35.74,2.28,3.27.62,16.35-3.78,20.23-5.31,2.1-.83,13.63-6.09,13.85-7.06-10.75-41.12,29-77.34,69.16-61.9,24.44,9.4,38.21,36.53,31.16,61.91l.84,1.05c4.68,1.27,8.61,4.23,13.04,6,3.84,1.53,16.99,5.92,20.23,5.31,14.11-2.68,18.39-9.56,34.97-2.51,14.55,6.18,24.11,23.6,35.84,30.16,10.29,5.76,22.26,6.14,32.85,14.15,19.98,15.1,21.3,44.96,14.35,67.17-1.46,4.68-6.32,12.63-6.72,16.09-.69,5.94,1,14.88.45,21.64-2.1,25.67-21.09,47.89-47.98,47.53ZM312.91,53.91c0-12.65-10.26-22.91-22.91-22.91s-22.91,10.26-22.91,22.91,10.26,22.91,22.91,22.91,22.91-10.26,22.91-22.91ZM292,246v-15.5c0-2.36-2.69-7.69-5.99-6.5v8c-5.35-2.41-11.9.17-12.1,6.48-.33,10.46,11.41,6.25,18.1,7.52ZM363.01,239c4.74,3.72,3.95-21.37-1.08-14.41-2.53,3.5.22,10.55,1.08,14.41ZM320.27,236.26c-4.49,4.99,1.64,8.43,6.27,8.79,1.7.14,9.97-.18,10.38-1.67-.32-11.35-6.58-17.34-17.91-14.35l-.02,2.96,11,1.02v1.98c-2.36-1.79-7.99-.67-9.73,1.26ZM346.02,234l-3.04-5.56-4.05,1.19c1.9,4.92.97,18.49,8.93,15.22.58-9.38,2.26-11.26,11.13-7.86-1.25-6.48-8.47-6.07-12.98-2.99ZM217.99,229c-8.81-1.05-2.66,22.23,2.45,13.93,3.6-5.85,2.13-17.56,6.5-.37l4.06.44c.03-3.3.63-7.46,4-9,2.34,19.43,11.2,5.74,2.01-3.54-3.93-1.95-7.47,2.9-7.98,2.54-1.21-5.91-7.67-5.26-9.51,0l-1.52-3.99ZM249.01,229h-5.01c-.86,4.05,1.02,10.79,5.02,12.48,1.88.8,8.11-.32,6.97,2.01-1.61,3.29-5.5,1.02-7.99,2.01,2.45,2.93,8.15,3.42,11.3,1.56,4.49-2.65,5.53-20.7-.32-17.61-2.29,1.21-9.2,22-9.97-.44ZM301.01,239c16.61,5.81,13.33-15.11-1.59-9.08-9.71,3.93-2.33,16.74,8.05,16.12,4.71-.28,12.72-4.13,6.05-8.04-3.03,4.41-10.21,7.76-12.5,1ZM201.86,280.14l-7.76-.04-10.09,30.89,7.05-.43,1.82-5.98,9.49-.45,2.76,6.75,6.87.12-10.14-30.86ZM218,280v31h8v-31h-8ZM247.5,280c-4.26-.7-10.03.51-14.5,0v31h7.01c.37-.37-.28-8.62,0-10.52.19-1.33-.54-1.77,1.5-1.49,5.83.8,6.52,7.24,7.6,11.91l7.9.09-6.98-13.49c9.3-4.49,7.4-15.86-2.52-17.5ZM282,280h-20v31h20v-5.01s-13,.01-13,.01l.44-8.07,11.57-.93v-5.01s-12.01.01-12.01.01v-6.01s13.01.01,13.01.01v-6.01ZM288,311h14.5c6.29,0,11.49-9.85,11.49-15.5,0-14.96-14.16-16.62-25.99-15.5v31ZM334.89,280.12l-7.75.02-10.13,30.86,6.87-.12,2.76-6.75,9.49.45,1.82,5.98,7.05.43-10.11-30.87ZM357,280h-7v31h21l-.94-5.56-13.06-.44v-25ZM396,280h-19v31h19v-5.01s-11.36-.13-11.36-.13c-2.5-.82-2.5-7.9,0-8.72l10.37-.13v-5.01s-12.01.01-12.01.01v-6.01s13.01.01,13.01.01v-6.01ZM226,323h-25v6.01s9,0,9,0v25h7v-25h9.01s0-6,0-6ZM251,323h-19v31h19v-5.01s-12.56-.93-12.56-.93l-.44-7.07,12.02-.57v-4.43s-11.08-.43-11.08-.43l-.94-6.57h13.01s0-6,0-6ZM258,323v31h7.01s0-11,0-11c7.57-1.54,6.9,5.86,9.14,10.87l6.88-.37-5.99-13c15.64-13.84-4.11-19.46-17.03-17.49ZM287,323v31h6.01s0-11,0-11c8.87-1.79,6.76,4.97,9.96,10.55l7.05-.05-5.88-12.17c14.01-16.41-3.02-19.31-17.13-18.32ZM316,323v31h8v-31h-8ZM351,323h-19v31h19v-5.01s-13.01.01-13.01.01v-8.01s12.01.01,12.01.01v-4.43s-11.57-1.51-11.57-1.51l-.44-6.07h13.01s0-6,0-6ZM358,323v31h6.01s0-11,0-11c8.65-1.85,7.05,5.24,10.17,10.84l6.85-.34-6-12.93c5.62-3.04,6.13-8.21,4.07-13.89-6.19-4.4-13.92-3.75-21.08-3.67ZM231.09,498.91c-.38-.32-2.66-12.51-4.93-5.25-.76,2.44-.06,16.42,1.3,18.38l4.53.97.99-10.33c6.03-3.52,3.57,11.56,8.52,11.3,4.1-3.31-.38-13.69-4.21-14.77-1.8-.51-5.63.19-6.21-.3ZM294.01,502c-.08-3.35,1.22-9.32-3.51-10.02-1.68-.25-1.79.58-2.01,2-.29,1.9.29,10.21.6,12.44.46,3.36,1.89,7.21,5.91,6.58.39-.41-1.23-8.84,2.49-7.99,3.2,3.38,2.12,9.1,8.51,7.99l-3.06-9.43,3.05-2.05-1.01-2.49-10.97,2.97ZM222.99,496.99c.32-3.32-5.06-3.73-7.51-3.98-6.25-.64-12.49.41-18.48,2,2.56,4.68,6.95,2.14,10.99,1.99.66.69-.51,18.92,6.01,15.5l-1-15.49h9.99ZM247.25,510.76c1.89,1.87,14.34,2.82,15.78,1.81,2.94-2.05-1.19-12.38-4.53-14.58-2.53-1.67-11.04-3.19-12.44-.91-3.25,5.27,8.77,1.05,10.93,4.42-4.69-.66-15.12,3.94-9.75,9.26ZM278.99,502c1.13,3.77,1.16,8.37,4.51,10.98,6.03-.03-.72-23.81-11-12l-2.44-4.54-3.09.02c-1.93,1.39.4,14.03,1.99,15.07,6.23,4.06,4.27-9.35,10.03-9.53ZM321.91,497.11l-2.43-.85c-7.21,6.91,2.42,15.31,10.52,14.24-2.1,3.55-5.8,1.97-8.99,3,12.39,8.49,17.32-4.67,14.52-15.52-6.29-3.86-5.13,8.15-10.99,9.03-3.13-2.51-2.46-6.37-2.62-9.89ZM344.71,497.22c-8.57,1.95-8.2,13.64,1.02,15.55,10.83,2.24,15.82-5.14,8.74-13.73-2.28-2.77-6.5-2.56-9.76-1.82ZM369.99,508c-5.11-.51-3.46-6.69-4.42-10.06l-4.56-.94c-.16,5.08-.82,10.35,4.04,13.46,7.05,4.52,9.74-1.44,10.46-1.44.38,0,3.69,4.59,6.5,2.98-1.93-4.59-4.55-7.62-4.45-13.04-1.12-1.78-3.98-.58-5.33.27l-2.22,8.77ZM219.01,545.01c3.47-.8,3.6,6.57,6.48,5.99,2.11-1.53,1.39-1.79.74-3.71-1.91-5.68-5.1-5.71-10.61-5.34l-1.61,11.06h-6c-.67,4.35,5.91,2.98,6.49,3.93,1.12,1.81.46,5.55,3.01,7.06,4.79-.19,1.1-7.67,1.49-7.99,11.96.77,12.25-4.75,0-4v-7ZM289,549c1.24-4.01-1.55-10.2-5.08-5.58-2.42,3.17.6,14.63.97,19,15.93,4.95,22.39-12.76,4.11-13.42ZM331,548.99c-.58-2.39-.72-8.01-4.49-6.98s1.41,8.66,4.49,6.98ZM232.31,559.69c4.67,5.22,18.14,4.21,17.7-3.1-.08-1.38-3.37-7.89-4.44-8.66-7.67-5.52-20.74,3.4-13.26,11.77ZM259.05,550.99l-2.02-4.52-2.52-.54-2.26,1.52c1.83,5.43.5,16.54,8.74,15.55-.2-2.58.52-8.29,3-9.55,3.06-1.56,7.56,2.95,8,.03.75-4.9-10.23-4.33-12.94-2.5ZM319,556c-.72,5.17-9.49,5.46-11.99,1.5,4.77.83,7.51-.02,11.99-1.5-1.04-1.17.62-9.12-6.63-9.66-16.41-1.22-14.06,19.69,5.07,16.59,3.1-.5,4.99-2.23,5.56-5.4-.55-1.66-3.86-1.37-4-1.53ZM337.94,546.06l-3.31.05c-2.39.81-.8,8.6-.19,10.95.75,2.92,2.09,5.47,5.55,4.92,1.18-4.02,1.79-8.97,6.01-10.99l2.94,10.4,3.12.15c2.75-8.94-4.13-19.19-13.04-10.56l-1.08-4.93ZM356,562.01c2.87,5.68,15.91,5.66,16.05-1.46.03-1.46-1.4-11.29-1.98-12.12-3.04-4.32-14.2-3.65-14.18,4.08.01,6.5,5.88,7.53,11.11,7.99-2.95,4.54-6.71,1.05-10.99,1.52ZM329.85,551.15l-3.85-.15c.08,4.39-1.41,12.44,4.99,12l-1.14-11.85ZM291,602.01c.2-2.71-.99-6.06,1.51-7.99l4.01,6.98c7.74-3.34-6.21-14.3-9.52-8.25l-1.43,9.32-5.57.94c1.2,3.14,3.97,3.11,6.93,3.06l1.63,6.99,3.43-.05.94-7.57,7.06-.44-1.67-2.82-7.33-.17ZM354,602.01c.2-2.71-.99-6.06,1.51-7.99l4.01,6.98c7.74-3.34-6.21-14.3-9.52-8.25l-1.43,9.32-5.57.94c1.2,3.14,3.97,3.11,6.93,3.06l1.63,6.99,3.43-.05.94-7.57,7.06-.44-1.67-2.82-7.33-.17ZM214.29,610.72c.7.85,5.3,3.01,6.46,3.11,2.57.22,3.54-1.53,4.92-1.66,1.62-.16,3.92,3.64,5.85.84.44-.63-.38-13.69-.62-15.41-.56-3.93-1.39-6.36-5.9-5.59l.95,5.51c-1.39,2.39-2.81.19-5.18.64-6.13,1.16-10.99,7.12-6.49,12.56ZM327,593.5v16c0,.46,2.1,3.95,3.49,3.49,1.99-1.39,1.53-3.48,1.58-5.5.06-2.56-1.09-15.17-2.58-15.49l-2.48,1.49ZM392.99,598.99l-.43-6.06-4.56-.93c-.22,3.42.78,7.7,4.99,6.99ZM460,614v-16.5c0-3.09-2.45-6.76-6-5.5v7c-8.83-4.23-17.56,7.92-8.73,13.22,5.86,3.51,7.87-.39,10.02,0,1.22.22,2.63,2.51,4.7,1.79ZM196.01,600c-2.65-9.11-5.81-4.23-4.9,3.39.4,3.41,1.37,9.48,5.93,8.19l5.46-10.57c2.06-.02,1.83,12.97,7.49,10.97.69-10.3-2.92-18.04-13.98-11.99ZM425.01,600l-1.99-4.56-2.92.68c-1.12,2.8.68,19.17,5.94,15.46,1.65-1.16,2.01-9.15,5.46-10.56,1.39-.02,3.43,15.61,7.03,10.01,3.97-6.18-5.5-18.77-13.52-11.03ZM124,601.99c-4.77-1.8-14.94,1.27-10.89,7.39,3.53,5.32,11.09.29,15.36,3.63,3.46-.55,1.16-15.14-6.18-16.8-1.69-.38-11.07-1.25-10.28,2.27.64,2.87,10.5-1.48,11.99,3.51ZM147.01,608c-2.16-3.02,2.1-14.66-4.03-11.52-4.84,2.47-1.06,17.29,7.25,15.29,6.05-1.45,2.4-.16,6.34.29,2.11.24,5.54-3.46,9.42-1.06l-1.42-12.02-4.65-.54-3.91,8.57-1.01-9h-5.01c.02,3.23.3,8.13-2.99,10ZM176.76,596.22c-11.58,1.7-9.84,15.08,1.01,16.58,15.01,2.07,12.24-18.53-1.01-16.58ZM240,607.01c3.99.48,9.01,1.02,11.92-2.67-.67-14.82-23.86-7.71-16.37,3.62,3.16,4.77,11.07,6.44,16.19,4.28,3.05-1.29,4.95-5.79,1.74-7.23-1.67-.75-1.97,2.36-3.48,3.47-3.15,2.32-7.97,2.21-10-1.47ZM262.86,596.13l-4.86-.13c-.16,3.42,1.9,18.48,7.48,16.99,2.41-.64.49-8.41,4.53-10.55,2.7-1.44,7.26,4.41,7.99.07-4.15-5.41-8.64-3.18-13.98-1.51l-1.15-4.87ZM311.99,608c-5.83.51-2.35-13.18-7.47-11.99-6.91,1.61,3.55,24.15,12.11,13.1l7.36,2.89-4.45-13.04-5.51-.92-2.04,9.96ZM372.01,601c-.47-3.73-2.07-5.65-6.01-5-.09,3.96.51,16.51,5.65,16.89,3.38.25,2.41-8.18,5.03-9.97,2.95-2.01,5.16,1.5,8.31,1.08-1.7-6.71-8.1-5.23-12.98-3ZM410.72,597.29c-4.7-3.9-17.1-.13-14.29,8.75,3.25,10.25,22.49,8.41,20.64.6-4.08-3.28-2.47-.35-4.51,1.38-3.35,2.84-7.53,2.7-10.55-.53,3.22-1.19,12.48,1.07,11.51-4.61-.2-1.16-1.98-4.91-2.8-5.59ZM392.99,612.99c-.35-2.56,1.79-13.66-3.49-11.99-3.15,1-.92,12.71,3.49,11.99ZM258,702l-4.85,1.64.3,24.42,4.56.94c.68-5.4-2.56-13.79,4.33-15.81,5.13-.15,3.4,12.62,3.68,15.81h3.99c-.01-9.66,2.02-23.86-11.99-17.01v-10ZM248,703h-19v4s7,0,7,0v22h5v-22h7s0-4,0-4ZM334,703v26c10.83,1.69,25.57-4.82,12-14.5-.26-.48,3.13-1,3.82-3.19,2.98-9.5-10.24-8.56-15.82-8.31ZM275,711v18h4c.06-4.65-1.09-11.09,3.45-14.05,2.31-1.5,6.11-.3,5.56-4.44-.26-1.92-8.01,1.6-8.51,3.49l-.59-2.89-3.91-.11ZM308,721c2.07-17.35-22.3-12.1-16.24,2.74,2.39,5.86,10.27,6.44,15.23,3.76l-1.57-2.51c-5.05,2.13-8.59,1.42-10.42-3.98h13ZM326.74,712.25c-5.99-6.45-16.42-.69-14.68,10.19,1.22,7.58,13.26,8.08,14.86,5.47,2.8-4.57-4.26-1.49-7.18-2.11-1.52-.32-3.78-1.39-3.75-3.3-.38-2.29.98-1.39,2.49-1.51,3.47-.26,7.05.19,10.52,0,.67-.67-1.31-7.72-2.26-8.74Z" style="fill: #fff;"/>
      <g>
        <path d="M334,703c5.58-.26,18.8-1.19,15.82,8.31-.69,2.19-4.07,2.71-3.82,3.19,13.57,9.68-1.18,16.2-12,14.5v-26ZM338.01,714l7.56-1.92-.02-4.12c-1.49-.99-5.08-2.61-6.6-1.53l-.94,7.58ZM338,725l7.59-.91c4.35-6.08-2.1-7.99-7.59-7.1v8.01Z"/>
        <path d="M258,702v10c14.02-6.85,11.99,7.35,12,17.01h-3.99c-.28-3.19,1.45-15.95-3.68-15.81-6.89,2.02-3.65,10.41-4.33,15.81l-4.56-.94-.3-24.42,4.85-1.64Z"/>
        <polygon points="248 703 248 707 241 707 241 729 236 729 236 707 229 707 229 703 248 703"/>
        <path d="M308,721h-13c1.83,5.41,5.37,6.12,10.42,3.99l1.57,2.51c-4.96,2.68-12.84,2.1-15.23-3.76-6.06-14.84,18.32-20.09,16.24-2.74ZM304,717.99c.38-2.6-1-4.55-3.55-5.04-3.2-.29-3.91,2.43-5.44,4.55l8.99.49Z"/>
        <path d="M326.74,712.25c.95,1.03,2.93,8.08,2.26,8.74-3.47.19-7.05-.25-10.52,0-1.51.11-2.87-.78-2.49,1.51-.03,1.91,2.23,2.98,3.75,3.3,2.92.62,9.98-2.46,7.18,2.11-1.6,2.61-13.64,2.12-14.86-5.47-1.75-10.88,8.69-16.64,14.68-10.19ZM323.73,714.27c-3-2.79-8.45-1.01-7.73,3.72h8.99c.48-.45-.72-3.22-1.26-3.72Z"/>
        <path d="M275,711l3.91.11.59,2.89c.5-1.89,8.25-5.41,8.51-3.49.55,4.14-3.25,2.94-5.56,4.44-4.55,2.96-3.39,9.4-3.45,14.06h-4v-18Z"/>
        <path d="M338,725v-8.01c5.49-.9,11.94,1.02,7.59,7.1l-7.59.91Z" style="fill: #fff;"/>
        <path d="M338.01,714l.94-7.58c1.52-1.09,5.11.54,6.6,1.53l.02,4.12-7.56,1.92Z" style="fill: #fff;"/>
        <path d="M304,717.99l-8.99-.49c1.53-2.12,2.24-4.84,5.44-4.55,2.55.49,3.93,2.44,3.55,5.04Z" style="fill: #fff;"/>
        <path d="M323.73,714.27c.54.51,1.74,3.28,1.26,3.72h-8.99c-.72-4.73,4.73-6.51,7.73-3.72Z" style="fill: #fff;"/>
      </g>
      <g>
        <path d="M321.91,497.11c.17,3.53-.51,7.39,2.62,9.89,5.86-.87,4.71-12.89,10.99-9.03,2.8,10.85-2.13,24.01-14.52,15.52,3.19-1.03,6.89.55,8.99-3-8.1,1.07-17.73-7.33-10.52-14.24l2.43.85Z"/>
        <path d="M247.25,510.76c-5.37-5.31,5.06-9.92,9.75-9.26-2.15-3.38-14.17.84-10.93-4.42,1.4-2.28,9.9-.76,12.44.91,3.34,2.2,7.47,12.53,4.53,14.58-1.45,1.01-13.9.06-15.78-1.81ZM257.92,506.09c-3.25-1.39-5.68-1.82-7.9,1.41l7.99,1.5-.08-2.9Z"/>
        <path d="M294.01,502l10.97-2.97,1.01,2.49-3.05,2.05,3.06,9.43c-6.38,1.11-5.3-4.61-8.51-7.99-3.72-.85-2.1,7.58-2.49,7.99-4.02.62-5.44-3.23-5.91-6.58-.31-2.23-.88-10.54-.6-12.44.21-1.42.33-2.25,2.01-2,4.73.71,3.43,6.67,3.51,10.02Z"/>
        <path d="M278.99,502c-5.76.18-3.8,13.6-10.03,9.53-1.59-1.04-3.92-13.68-1.99-15.07l3.09-.02,2.44,4.54c10.28-11.81,17.03,11.97,11,12-3.35-2.61-3.38-7.21-4.51-10.98Z"/>
        <path d="M231.09,498.91c.58.49,4.41-.22,6.21.3,3.82,1.08,8.3,11.46,4.21,14.77-4.95.26-2.49-14.81-8.52-11.3l-.99,10.33-4.53-.97c-1.37-1.96-2.06-15.94-1.3-18.38,2.27-7.27,4.55,4.93,4.93,5.25Z"/>
        <path d="M369.99,508l2.22-8.77c1.35-.85,4.21-2.04,5.33-.27-.09,5.42,2.52,8.45,4.45,13.04-2.81,1.61-6.12-2.98-6.5-2.98-.72,0-3.41,5.97-10.46,1.44-4.85-3.11-4.19-8.38-4.04-13.46l4.56.94c.97,3.38-.68,9.55,4.42,10.06Z"/>
        <path d="M344.71,497.22c3.26-.74,7.48-.95,9.76,1.82,7.08,8.59,2.08,15.97-8.74,13.73-9.22-1.91-9.59-13.6-1.02-15.55ZM346.71,500.16c-7.87,2.19-1.7,15.54,5.84,7.83l-2.53-7.53c-1.06-.7-2.15-.63-3.31-.3Z"/>
        <path d="M222.99,496.99h-9.99s1,15.5,1,15.5c-6.52,3.43-5.35-14.81-6.01-15.5-4.05.15-8.44,2.69-10.99-1.99,5.99-1.59,12.23-2.64,18.48-2,2.45.25,7.83.66,7.51,3.98Z"/>
        <path d="M257.92,506.09l.08,2.9-7.99-1.5c2.22-3.23,4.65-2.8,7.9-1.41Z" style="fill: #fff;"/>
        <path d="M346.71,500.16c1.16-.32,2.26-.4,3.31.3l2.53,7.53c-7.54,7.7-13.71-5.64-5.84-7.83Z" style="fill: #fff;"/>
      </g>
      <g>
        <path d="M319,556c-4.48,1.48-7.22,2.33-11.99,1.5,2.51,3.96,11.27,3.67,11.99-1.5.14.16,3.45-.13,4,1.53-.56,3.17-2.46,4.9-5.56,5.4-19.13,3.09-21.48-17.81-5.07-16.59,7.26.54,5.59,8.49,6.63,9.66ZM312.95,549.04c-1.77-.46-6.4,1.3-5.94,3.45,1.69,2.3,4.63,1.44,6.99,1.51l-1.05-4.96Z"/>
        <path d="M289,549c18.28.65,11.81,18.37-4.11,13.42-.37-4.37-3.39-15.83-.97-19,3.53-4.62,6.32,1.57,5.08,5.58ZM293.74,553.25c-1.06-1.04-3.26-1.3-4.73-1.25v7.99c3.47.58,7.74-3.79,4.73-6.74Z"/>
        <path d="M356,562.01c4.29-.47,8.04,3.02,10.99-1.52-5.22-.47-11.09-1.5-11.11-7.99-.01-7.73,11.14-8.4,14.18-4.08.58.83,2.01,10.66,1.98,12.12-.14,7.13-13.18,7.14-16.05,1.46ZM365.75,549.25c-3.34-3.52-9.06,5.13-3.14,7.69,3.08-.55,5.51-5.19,3.14-7.69Z"/>
        <path d="M219.01,545.01v7c12.25-.75,11.96,4.77,0,4-.39.32,3.3,7.8-1.49,7.99-2.55-1.52-1.89-5.25-3.01-7.06-.58-.94-7.16.42-6.49-3.93h6s1.61-11.06,1.61-11.06c5.52-.37,8.7-.33,10.61,5.34.65,1.92,1.37,2.18-.74,3.71-2.88.58-3.01-6.79-6.48-5.99Z"/>
        <path d="M337.94,546.06l1.08,4.93c8.91-8.63,15.79,1.61,13.04,10.56l-3.12-.15-2.94-10.4c-4.22,2.02-4.83,6.97-6.01,10.99-3.45.55-4.79-2-5.55-4.92-.61-2.35-2.2-10.14.19-10.95l3.31-.05Z"/>
        <path d="M232.31,559.69c-7.48-8.37,5.6-17.28,13.26-11.77,1.07.77,4.36,7.29,4.44,8.66.43,7.31-13.04,8.32-17.7,3.1ZM236.25,558.75c5.34,5.31,11.9-4.53,5.77-8.3-4.85-2.99-9.51,4.58-5.77,8.3Z"/>
        <path d="M259.05,550.99c2.71-1.83,13.69-2.4,12.94,2.5-.45,2.92-4.94-1.58-8-.03-2.47,1.26-3.2,6.97-3,9.55-8.24.99-6.91-10.13-8.74-15.55l2.26-1.52,2.52.54,2.02,4.52Z"/>
        <path d="M329.85,551.15l1.14,11.85c-6.4.44-4.91-7.61-4.99-12l3.85.15Z"/>
        <path d="M331,548.99c-3.07,1.68-8.22-5.97-4.49-6.98s3.9,4.59,4.49,6.98Z"/>
        <path d="M312.95,549.04l1.05,4.96c-2.36-.07-5.3.79-6.99-1.51-.46-2.15,4.17-3.91,5.94-3.45Z" style="fill: #fff;"/>
        <path d="M293.74,553.25c3.01,2.95-1.26,7.32-4.73,6.74v-7.99c1.47-.05,3.67.21,4.73,1.25Z" style="fill: #fff;"/>
        <path d="M365.75,549.25c2.37,2.51-.06,7.14-3.14,7.69-5.92-2.57-.2-11.21,3.14-7.69Z" style="fill: #fff;"/>
        <path d="M236.25,558.75c-3.73-3.72.92-11.29,5.77-8.3,6.13,3.77-.44,13.62-5.77,8.3Z" style="fill: #fff;"/>
      </g>
      <g>
        <path d="M147.01,608c3.28-1.88,3-6.77,2.99-10h5.01s1.01,9,1.01,9l3.91-8.57,4.65.54,1.42,12.02c-3.89-2.4-7.31,1.3-9.42,1.06-3.94-.45-.29-1.74-6.34-.29-8.32,1.99-12.09-12.82-7.25-15.29,6.13-3.13,1.88,8.51,4.03,11.52Z"/>
        <path d="M214.29,610.72c-4.5-5.45.36-11.4,6.49-12.56,2.37-.45,3.79,1.75,5.18-.64l-.95-5.51c4.5-.77,5.34,1.66,5.9,5.59.24,1.72,1.06,14.78.62,15.41-1.93,2.8-4.24-1-5.85-.84-1.38.13-2.36,1.89-4.92,1.66-1.16-.1-5.76-2.26-6.46-3.11ZM220.62,601.06c-7.48,5.96,1.7,14.59,4.43,4.49l-4.43-4.49Z"/>
        <path d="M460,614c-2.06.72-3.48-1.57-4.7-1.79-2.15-.38-4.17,3.51-10.02,0-8.84-5.29-.1-17.45,8.71-13.22v-7c3.56-1.25,6.01,2.42,6.01,5.5v16.5ZM447.05,609.95c14.71.03,1.94-14.81-.63-4.99-.44,1.7.59,3.33.63,4.99Z"/>
        <path d="M124,601.99c-1.49-4.98-11.35-.63-11.99-3.51-.78-3.52,8.6-2.65,10.28-2.27,7.34,1.66,9.64,16.24,6.18,16.8-4.27-3.34-11.83,1.7-15.36-3.63-4.06-6.12,6.12-9.19,10.89-7.39Z"/>
        <path d="M240,607.01c2.03,3.68,6.85,3.8,10,1.47,1.52-1.12,1.82-4.22,3.48-3.47,3.21,1.44,1.31,5.94-1.74,7.23-5.13,2.16-13.04.49-16.19-4.28-7.49-11.33,15.7-18.44,16.37-3.62-2.9,3.69-7.92,3.15-11.92,2.67ZM245.94,599.06c-.7-.66-7.63.24-5.93,3.43.81,1.95,4.47,1.96,6.04,1.04,1.07-.63.05-4.32-.11-4.47Z"/>
        <path d="M410.72,597.29c.81.68,2.6,4.43,2.8,5.59.97,5.68-8.29,3.42-11.51,4.61,3.02,3.23,7.2,3.37,10.55.53,2.05-1.73.43-4.67,4.51-1.38,1.84,7.82-17.39,9.65-20.64-.6-2.82-8.88,9.59-12.65,14.29-8.75ZM408,603.99c.78-6.17-3.38-6.12-6.99-2.48-1.13,2.36,5.81,2.72,6.99,2.48Z"/>
        <path d="M425.01,600c8.02-7.74,17.48,4.85,13.52,11.03-3.6,5.6-5.64-10.04-7.03-10.01-3.44,1.41-3.8,9.4-5.46,10.56-5.27,3.71-7.06-12.66-5.94-15.46l2.92-.68,1.99,4.56Z"/>
        <path d="M311.99,608l2.04-9.96,5.51.92,4.45,13.04-7.36-2.89c-8.56,11.05-19.02-11.49-12.11-13.1,5.11-1.19,1.64,12.5,7.47,11.99Z"/>
        <path d="M196.01,600c11.06-6.05,14.68,1.69,13.98,11.99-5.67,2-5.44-11-7.49-10.97l-5.46,10.57c-4.56,1.28-5.53-4.78-5.93-8.19-.9-7.62,2.25-12.5,4.9-3.39Z"/>
        <path d="M291,602.01l7.33.17,1.67,2.82-7.06.44-.94,7.57-3.43.05-1.63-6.99c-2.96.05-5.73.08-6.93-3.06l5.57-.94,1.43-9.32c3.31-6.06,17.26,4.9,9.52,8.25l-4.01-6.98c-2.49,1.92-1.3,5.27-1.51,7.99Z"/>
        <path d="M354,602.01l7.33.17,1.67,2.82-7.06.44-.94,7.57-3.43.05-1.63-6.99c-2.96.05-5.73.08-6.93-3.06l5.57-.94,1.43-9.32c3.31-6.06,17.26,4.9,9.52,8.25l-4.01-6.98c-2.49,1.92-1.3,5.27-1.51,7.99Z"/>
        <path d="M176.76,596.22c13.26-1.95,16.02,18.66,1.01,16.58-10.86-1.5-12.59-14.88-1.01-16.58ZM180.74,600.25c-1.8-1.82-5.86-.03-7.09,2-2.53,5.9,5.55,10.68,9.25,5.07.51-1.59-1.09-5.99-2.16-7.07Z"/>
        <path d="M262.86,596.13l1.15,4.87c5.34-1.66,9.83-3.9,13.98,1.51-.73,4.33-5.28-1.51-7.99-.07-4.04,2.15-2.12,9.92-4.53,10.55-5.58,1.48-7.64-13.57-7.48-16.99l4.86.13Z"/>
        <path d="M372.01,601c4.89-2.24,11.28-3.72,12.98,3-3.15.42-5.36-3.09-8.31-1.08-2.62,1.79-1.65,10.22-5.03,9.97-5.14-.38-5.75-12.94-5.65-16.89,3.94-.65,5.54,1.27,6.01,5Z"/>
        <path d="M327,593.5l2.48-1.49c1.49.32,2.64,12.94,2.58,15.49-.05,2.01.42,4.1-1.58,5.5-1.38.46-3.49-3.03-3.49-3.49v-16Z"/>
        <path d="M392.99,612.99c-4.4.72-6.64-10.99-3.49-11.99,5.28-1.67,3.13,9.42,3.49,11.99Z"/>
        <path d="M392.99,598.99c-4.21.71-5.21-3.57-4.99-6.99l4.56.93.43,6.06Z"/>
        <path d="M220.62,601.06l4.43,4.49c-2.73,10.09-11.91,1.47-4.43-4.49Z" style="fill: #fff;"/>
        <path d="M447.05,609.95c-.04-1.66-1.07-3.29-.63-4.99,2.57-9.81,15.34,5.02.63,4.99Z" style="fill: #fff;"/>
        <path d="M245.94,599.06c.16.15,1.19,3.84.11,4.47-1.57.92-5.23.91-6.04-1.04-1.7-3.19,5.22-4.09,5.93-3.43Z" style="fill: #fff;"/>
        <path d="M408,603.99c-1.18.23-8.12-.13-6.99-2.48,3.61-3.64,7.77-3.69,6.99,2.48Z" style="fill: #fff;"/>
        <path d="M180.74,600.25c1.07,1.08,2.67,5.49,2.16,7.07-3.7,5.61-11.78.83-9.25-5.07,1.23-2.03,5.29-3.82,7.09-2Z" style="fill: #fff;"/>
      </g>
    </g>
  </g>
</svg>