<?xml version="1.0" standalone="no"?>
<!DOCTYPE svg PUBLIC "-//W3C//DTD SVG 20010904//EN"
 "http://www.w3.org/TR/2001/REC-SVG-20010904/DTD/svg10.dtd">
<svg version="1.0" xmlns="http://www.w3.org/2000/svg"
 width="580.000000pt" height="867.000000pt" viewBox="0 0 580.000000 867.000000"
 preserveAspectRatio="xMidYMid meet">

<g transform="translate(0.000000,867.000000) scale(0.100000,-0.100000)"
fill="#000000" stroke="none">
<path d="M2760 8594 c-103 -27 -180 -72 -261 -153 -122 -123 -178 -267 -166
-433 l5 -79 -36 -18 c-21 -10 -79 -33 -130 -50 l-92 -31 -73 24 c-142 48 -250
41 -355 -20 -56 -33 -245 -195 -272 -235 -27 -37 -51 -49 -190 -98 -129 -46
-189 -81 -259 -156 -102 -107 -146 -252 -138 -445 6 -124 30 -226 72 -311 23
-43 25 -61 25 -171 0 -69 7 -153 15 -192 39 -182 173 -348 325 -401 25 -8 51
-17 58 -20 9 -3 0 -21 -27 -55 -118 -149 -150 -355 -86 -546 19 -57 25 -95 25
-163 0 -103 26 -218 67 -294 27 -50 100 -131 155 -172 44 -33 43 -54 -7 -115
-58 -70 -119 -187 -139 -267 -9 -35 -34 -89 -57 -124 -90 -135 -133 -267 -148
-460 -10 -116 -18 -156 -67 -309 -13 -42 -24 -98 -24 -125 0 -38 -9 -64 -35
-110 -71 -126 -228 -454 -256 -536 -33 -100 -52 -248 -41 -334 l8 -60 -97
-101 c-107 -112 -163 -208 -196 -339 -24 -97 -24 -316 0 -404 24 -88 86 -218
153 -318 l55 -83 -17 -53 c-10 -30 -17 -82 -17 -124 0 -64 4 -82 38 -149 85
-173 265 -288 500 -320 33 -4 70 -20 110 -45 214 -139 640 -192 881 -109 115
40 230 132 285 228 16 28 35 45 57 53 18 6 45 21 61 35 24 20 46 25 140 34 62
6 117 7 123 4 6 -4 135 -7 288 -8 l276 -1 32 -27 c17 -14 46 -31 64 -37 22 -8
41 -25 57 -53 52 -91 158 -179 266 -221 166 -64 449 -61 683 6 63 18 88 21
137 14 98 -14 240 -2 330 27 203 65 363 224 394 393 10 53 0 158 -19 194 -16
30 -12 48 28 107 145 214 202 401 189 610 -15 215 -69 338 -222 503 -88 95
-104 118 -100 139 31 158 24 297 -25 440 -27 81 -183 407 -255 535 -27 47 -35
72 -35 112 0 30 -10 79 -24 115 -27 74 -33 107 -46 289 -15 209 -65 366 -154
488 -20 27 -40 73 -50 111 -23 92 -76 194 -140 272 -31 37 -56 76 -56 87 0 12
17 32 44 50 129 89 206 258 206 452 0 68 6 106 25 163 64 191 32 397 -86 546
-27 34 -36 52 -27 55 7 3 33 12 58 20 152 53 286 219 325 401 8 39 15 123 15
192 0 110 2 128 25 171 42 85 66 187 72 311 8 193 -36 338 -138 445 -70 75
-130 110 -259 156 -139 49 -163 61 -190 98 -27 40 -216 202 -272 235 -105 61
-213 68 -356 20 l-73 -24 -99 34 c-54 19 -112 42 -129 50 l-29 16 5 78 c12
166 -44 310 -166 433 -82 82 -159 127 -266 154 -74 19 -202 18 -275 -1z m263
-49 c244 -64 412 -291 394 -535 -4 -42 -9 -83 -12 -92 -8 -19 82 -63 222 -110
l93 -31 78 26 c42 14 100 28 127 31 58 8 150 -13 204 -46 45 -28 179 -145 256
-224 55 -56 68 -63 160 -94 196 -65 294 -134 354 -253 84 -166 78 -436 -14
-618 -23 -43 -25 -61 -25 -171 0 -150 -18 -236 -65 -327 -81 -155 -194 -236
-357 -256 l-56 -7 68 -67 c157 -155 201 -379 114 -588 -12 -26 -17 -73 -18
-153 -1 -94 -5 -127 -25 -181 -32 -89 -85 -165 -149 -214 -54 -41 -81 -76 -82
-106 0 -9 29 -51 64 -93 74 -89 119 -176 143 -273 11 -45 29 -85 54 -118 97
-132 142 -288 153 -530 5 -107 20 -190 46 -248 12 -26 20 -65 20 -102 0 -54 5
-68 51 -145 28 -47 71 -130 97 -185 25 -55 54 -113 63 -130 32 -54 80 -176
100 -254 25 -95 27 -252 5 -338 l-16 -60 96 -99 c53 -54 113 -125 134 -157 99
-150 136 -406 85 -602 -20 -79 -92 -227 -161 -333 -32 -48 -53 -92 -50 -101 2
-9 12 -36 21 -60 31 -86 19 -192 -33 -276 -116 -189 -369 -292 -624 -256 -62
9 -83 8 -111 -4 -62 -26 -240 -57 -359 -62 -291 -14 -468 65 -591 263 -17 27
-36 44 -54 48 -15 4 -44 20 -64 36 -33 26 -46 30 -150 38 -63 4 -159 5 -214 0
-59 -5 -140 -4 -197 2 -65 6 -133 6 -208 -1 -101 -9 -117 -13 -149 -39 -20
-16 -49 -32 -64 -36 -18 -4 -37 -21 -54 -48 -66 -106 -160 -188 -256 -222
-124 -45 -297 -55 -472 -29 -179 27 -297 69 -410 145 -28 18 -64 30 -119 38
-216 33 -383 144 -455 302 -29 63 -28 174 0 241 l21 49 -61 91 c-134 199 -175
319 -175 514 0 228 49 348 211 515 l101 106 -6 74 c-9 100 2 219 28 305 12 39
51 131 87 205 36 74 76 158 88 185 13 28 46 88 74 135 44 74 51 92 51 139 0
29 11 88 24 130 50 157 59 199 67 308 14 191 49 302 139 443 29 45 55 101 65
139 23 88 63 164 135 255 l60 76 -20 48 c-15 34 -31 53 -56 67 -74 40 -147
150 -179 272 -10 37 -15 94 -14 158 2 84 -2 107 -20 147 -12 27 -27 85 -33
130 -22 168 30 320 151 439 l69 67 -56 7 c-163 20 -276 101 -357 256 -47 91
-65 177 -65 327 0 110 -2 128 -25 171 -64 128 -91 338 -61 479 32 152 116 267
242 330 32 16 104 44 159 62 92 31 105 38 160 94 77 79 211 196 256 224 54 33
146 54 204 46 28 -3 85 -17 127 -31 l78 -26 92 31 c148 49 231 90 223 110 -3
9 -8 50 -12 92 -17 242 148 470 390 535 69 18 179 19 250 0z"/>
<path d="M2826 8346 c-140 -52 -195 -205 -120 -333 47 -81 152 -126 242 -104
26 7 64 23 84 36 109 72 126 242 34 343 -53 59 -165 86 -240 58z m152 -57
c109 -53 133 -199 46 -283 -121 -118 -329 -11 -299 153 10 54 48 106 97 130
54 27 100 27 156 0z"/>
<path d="M3822 6493 c-60 -126 -157 -393 -150 -415 2 -6 15 24 27 68 31 104
104 290 153 388 22 43 37 80 35 82 -2 2 -31 -53 -65 -123z"/>
<path d="M3904 6398 c-60 -110 -136 -270 -130 -275 2 -2 31 52 64 121 33 68
76 152 96 185 19 34 32 61 28 61 -4 0 -30 -42 -58 -92z"/>
<path d="M1960 6458 c0 -24 160 -358 172 -358 4 0 -14 42 -41 93 -27 50 -64
128 -82 172 -29 72 -49 110 -49 93z"/>
<path d="M2860 6393 c0 -37 -1 -38 -39 -38 -50 -1 -81 -27 -81 -69 0 -57 30
-75 119 -74 l63 1 -4 92 c-4 93 -15 125 -44 125 -9 0 -14 -12 -14 -37z m-14
-84 c19 -22 13 -43 -18 -63 -36 -22 -64 37 -32 68 20 21 27 20 50 -5z"/>
<path d="M3615 6397 c-7 -37 10 -117 25 -117 14 0 22 40 18 96 -2 36 -7 50
-20 52 -12 2 -19 -6 -23 -31z"/>
<path d="M1840 6402 c0 -13 211 -329 245 -367 33 -37 30 -32 -122 195 -68 100
-123 177 -123 172z"/>
<path d="M3208 6383 c-35 -9 -20 -33 21 -33 43 0 71 -8 71 -20 0 -5 -9 -6 -20
-3 -56 15 -112 -49 -76 -85 20 -21 154 -28 162 -9 9 26 -21 110 -46 128 -27
19 -84 30 -112 22z m90 -95 c7 -7 12 -15 12 -19 0 -12 -35 -16 -59 -7 -19 7
-21 11 -11 23 15 18 42 19 58 3z"/>
<path d="M3408 6382 c-22 -4 -21 2 -2 -83 22 -96 63 -117 78 -38 9 51 28 65
66 49 39 -16 52 -4 21 21 -26 21 -62 25 -91 9 -15 -8 -20 -6 -25 9 -8 26 -26
38 -47 33z"/>
<path d="M2147 6373 c-4 -3 -7 -32 -7 -64 0 -48 4 -60 22 -73 28 -20 40 -9 57
52 18 62 32 55 43 -23 2 -11 12 -21 24 -23 18 -2 23 4 28 31 8 42 31 66 40 41
3 -8 6 -26 6 -39 0 -26 24 -50 40 -40 17 10 11 68 -10 103 -21 34 -45 40 -75
18 -17 -12 -21 -12 -33 5 -18 26 -57 24 -77 -3 l-15 -23 -6 23 c-6 21 -24 29
-37 15z"/>
<path d="M2440 6346 c0 -50 41 -96 86 -96 34 0 44 -12 22 -26 -7 -5 -26 -7
-43 -6 -28 2 -29 1 -11 -13 29 -22 82 -19 104 6 50 53 37 201 -13 159 -8 -7
-15 -18 -15 -26 0 -7 -11 -25 -24 -41 -20 -24 -26 -25 -40 -14 -10 8 -16 29
-16 52 0 35 -3 39 -25 39 -22 0 -25 -4 -25 -34z"/>
<path d="M2990 6367 c-86 -43 -17 -164 88 -154 43 5 82 29 82 53 0 25 -21 25
-51 0 -34 -29 -38 -30 -73 -16 -37 14 -32 27 8 22 45 -5 76 12 76 43 0 55 -70
82 -130 52z m77 -33 c10 -26 -12 -39 -43 -25 -21 9 -24 14 -14 26 16 20 49 19
57 -1z"/>
<path d="M3622 6238 c7 -19 38 -22 38 -4 0 10 -9 16 -21 16 -12 0 -19 -5 -17
-12z"/>
<path d="M1893 5715 l-51 -155 33 0 c29 0 35 4 45 35 12 36 12 36 63 33 48 -3
51 -5 59 -35 8 -30 12 -33 44 -33 25 0 35 4 32 13 -3 6 -26 76 -52 155 l-48
142 -37 0 -36 0 -52 -155z m110 25 l15 -60 -38 0 -38 0 16 60 c9 33 19 60 23
60 4 0 13 -27 22 -60z"/>
<path d="M2180 5715 l0 -155 35 0 35 0 0 155 0 155 -35 0 -35 0 0 -155z"/>
<path d="M2330 5715 l0 -155 35 0 35 0 0 61 c0 59 1 61 23 55 12 -3 25 -6 29
-6 4 0 15 -25 24 -55 17 -52 19 -55 51 -55 18 0 33 4 33 10 0 17 -33 94 -47
111 -12 14 -10 18 11 33 15 10 28 29 32 51 13 71 -39 105 -163 105 l-63 0 0
-155z m141 95 c22 -12 25 -52 6 -69 -8 -6 -28 -14 -45 -17 l-32 -6 0 51 c0 48
1 51 26 51 14 0 34 -5 45 -10z"/>
<path d="M2620 5715 l0 -155 100 0 100 0 0 25 c0 24 -2 25 -65 25 l-65 0 0 45
0 45 60 0 c53 0 60 2 60 20 0 16 -8 19 -57 22 l-58 3 0 35 0 35 63 3 c58 3 62
4 62 27 0 25 -1 25 -100 25 l-100 0 0 -155z"/>
<path d="M2880 5715 l0 -158 83 5 c124 6 171 49 171 153 0 103 -49 145 -176
153 l-78 5 0 -158z m137 95 c34 -12 53 -46 53 -95 0 -66 -35 -105 -95 -105
-25 0 -25 0 -25 105 0 116 1 118 67 95z"/>
<path d="M3224 5728 c-26 -79 -49 -149 -52 -155 -3 -9 7 -13 32 -13 32 0 36 3
44 33 8 30 11 32 60 35 50 3 51 3 60 -30 7 -29 13 -33 46 -36 29 -3 37 0 34
10 -3 7 -27 77 -54 155 l-49 143 -37 0 -36 0 -48 -142z m104 21 c16 -69 17
-69 -24 -69 -29 0 -35 3 -30 16 4 9 11 36 17 60 6 24 15 44 18 44 4 0 13 -23
19 -51z"/>
<path d="M3500 5715 l0 -155 100 0 c99 0 100 0 100 25 0 23 -4 24 -62 27 l-63
3 -3 128 -3 127 -34 0 -35 0 0 -155z"/>
<path d="M3770 5715 l0 -155 95 0 c94 0 95 0 95 25 0 23 -4 24 -62 27 l-63 3
0 40 0 40 58 3 c48 3 57 6 57 22 0 16 -9 19 -57 22 l-58 3 0 35 0 35 63 3 c58
3 62 4 62 27 0 25 -1 25 -95 25 l-95 0 0 -155z"/>
<path d="M2010 5410 c0 -29 2 -30 45 -30 l45 0 0 -125 0 -125 35 0 35 0 0 125
0 125 46 0 c44 0 45 1 42 28 l-3 27 -122 3 -123 3 0 -31z"/>
<path d="M2320 5285 l0 -155 95 0 c95 0 95 0 95 25 0 24 -2 25 -65 25 l-65 0
0 40 0 40 60 0 c57 0 60 1 60 25 0 22 -4 24 -57 27 -57 3 -58 3 -61 36 l-3 32
65 0 66 0 0 30 0 30 -95 0 -95 0 0 -155z"/>
<path d="M2580 5286 l0 -156 30 0 c30 0 30 0 30 56 l0 55 32 -3 c30 -3 35 -8
52 -55 17 -50 20 -53 53 -53 30 0 34 3 28 18 -4 9 -12 31 -17 47 -6 17 -18 38
-26 47 -14 16 -13 20 11 42 20 19 27 35 27 63 0 21 -4 43 -8 49 -15 23 -57 36
-133 41 l-79 6 0 -157z m141 85 c20 -16 22 -22 11 -45 -12 -26 -50 -43 -77
-32 -15 5 -22 76 -8 89 12 13 51 7 74 -12z"/>
<path d="M2870 5286 l0 -156 30 0 c30 0 30 0 30 56 l0 55 31 -3 c28 -3 34 -9
51 -55 18 -50 22 -53 53 -53 l34 0 -15 42 c-8 24 -22 53 -30 66 -15 23 -14 26
11 52 21 22 26 35 23 65 -4 56 -35 74 -136 82 l-82 6 0 -157z m148 77 c16 -23
15 -30 -9 -54 -13 -13 -30 -19 -47 -17 -23 2 -28 9 -30 36 -5 53 3 65 41 58
17 -3 38 -14 45 -23z"/>
<path d="M3160 5285 l0 -155 40 0 40 0 0 155 0 155 -40 0 -40 0 0 -155z"/>
<path d="M3320 5285 l0 -155 95 0 c95 0 95 0 95 25 0 24 -2 25 -65 25 l-65 0
0 40 0 40 60 0 c57 0 60 1 60 25 0 22 -4 24 -57 27 -57 3 -58 3 -61 36 l-3 32
65 0 66 0 0 30 0 30 -95 0 -95 0 0 -155z"/>
<path d="M3580 5286 l0 -156 30 0 c30 0 30 0 30 56 l0 55 31 -3 c28 -3 34 -9
52 -55 18 -49 22 -53 53 -53 19 0 34 3 34 8 0 4 -14 34 -30 67 l-29 60 25 26
c20 21 25 35 22 64 -5 56 -36 75 -137 82 l-81 6 0 -157z m148 77 c16 -23 15
-30 -9 -54 -13 -13 -30 -19 -47 -17 -23 2 -28 9 -30 36 -5 53 3 65 41 58 17
-3 38 -14 45 -23z"/>
<path d="M2267 3744 c-8 -9 -7 -127 2 -169 4 -21 13 -31 29 -33 19 -3 22 1 22
30 1 90 37 106 57 24 12 -48 29 -70 45 -60 16 10 7 72 -15 105 -18 26 -31 35
-59 37 -30 3 -37 8 -44 34 -9 32 -24 44 -37 32z"/>
<path d="M2888 3740 c-8 -24 9 -170 21 -184 23 -27 40 -19 43 22 4 47 25 48
47 2 10 -22 24 -36 39 -38 26 -4 27 6 7 54 -11 28 -12 39 -3 54 23 37 4 37
-89 3 -9 -4 -13 7 -13 34 0 39 -14 63 -36 63 -7 0 -14 -5 -16 -10z"/>
<path d="M2035 3735 c-5 -2 -23 -6 -40 -10 -28 -6 -29 -7 -11 -21 13 -9 32
-12 56 -8 l37 6 7 -56 c7 -66 24 -106 44 -106 12 0 14 14 10 80 l-5 80 49 0
c53 0 63 18 17 31 -25 7 -146 10 -164 4z"/>
<path d="M2478 3704 c-10 -3 -18 -12 -18 -20 0 -10 13 -14 49 -14 28 0 53 -4
56 -10 3 -6 -5 -10 -19 -10 -83 0 -116 -76 -43 -99 37 -12 125 -12 133 0 11
18 -11 94 -35 120 -26 29 -84 44 -123 33z m86 -90 c30 -11 18 -34 -17 -34 -40
0 -51 8 -36 27 12 14 29 16 53 7z"/>
<path d="M2665 3700 c-6 -10 10 -124 20 -140 16 -25 42 -8 62 40 12 28 26 50
32 50 6 0 16 -20 22 -45 14 -54 31 -72 49 -50 10 13 11 24 1 58 -22 74 -60 96
-109 61 -21 -14 -23 -14 -32 10 -9 26 -34 35 -45 16z"/>
<path d="M3181 3697 c-38 -38 21 -127 86 -127 30 0 34 -2 23 -15 -7 -8 -29
-15 -49 -15 -34 -1 -35 -2 -17 -15 28 -21 82 -19 106 5 25 25 32 54 28 116 -4
64 -29 72 -57 16 -11 -21 -27 -45 -36 -52 -15 -12 -19 -12 -31 5 -8 10 -14 33
-14 51 0 34 -20 50 -39 31z"/>
<path d="M3422 3684 c-76 -53 -27 -144 77 -144 38 0 81 31 81 59 0 22 -39 88
-55 95 -30 11 -80 6 -103 -10z m94 -50 c19 -45 5 -66 -40 -62 -41 4 -59 47
-31 78 28 31 54 25 71 -16z"/>
<path d="M3610 3655 c0 -38 5 -52 29 -76 33 -32 80 -39 101 -14 12 14 15 14
30 0 15 -14 50 -21 50 -10 0 2 -9 19 -20 37 -11 18 -20 45 -20 60 0 60 -51 47
-68 -17 -18 -67 -41 -58 -52 20 -4 32 -10 41 -27 43 -21 3 -23 -1 -23 -43z"/>
<path d="M2146 3228 c-3 -13 -6 -38 -6 -55 0 -30 -3 -33 -30 -33 -16 0 -30 -4
-30 -10 0 -12 35 -31 50 -28 7 2 17 -13 23 -32 16 -48 42 -47 41 3 -1 35 0 37
30 37 33 0 65 15 54 25 -3 4 -25 9 -47 12 -39 5 -41 7 -41 39 0 42 15 44 35 3
15 -28 35 -35 42 -13 2 5 -6 24 -17 42 -17 27 -25 32 -59 32 -32 0 -40 -4 -45
-22z"/>
<path d="M2841 3236 c-8 -9 -10 -36 -6 -82 10 -117 9 -114 64 -114 75 0 116
40 95 95 -8 19 -55 45 -83 45 -15 0 -20 8 -23 32 -3 36 -27 48 -47 24z m93
-102 c20 -19 20 -23 -1 -46 -27 -30 -43 -22 -43 22 0 44 16 52 44 24z"/>
<path d="M3255 3240 c-9 -15 22 -60 40 -60 12 0 14 7 9 28 -4 15 -9 30 -11 35
-6 11 -31 9 -38 -3z"/>
<path d="M2352 3195 c-89 -38 -43 -155 61 -155 37 0 87 32 87 56 0 22 -39 94
-53 99 -41 12 -66 12 -95 0z m85 -62 c11 -27 10 -34 -3 -47 -31 -32 -84 -8
-84 38 0 55 65 62 87 9z"/>
<path d="M2527 3203 c-7 -12 21 -133 34 -149 23 -27 46 -16 53 25 8 52 29 68
67 54 35 -13 49 1 25 25 -18 18 -82 20 -99 3 -8 -8 -14 -3 -23 19 -12 28 -46
42 -57 23z"/>
<path d="M3084 3203 c-70 -9 -90 -86 -35 -135 26 -23 40 -28 86 -28 42 0 60 5
75 20 11 11 20 25 20 30 0 21 -29 21 -49 1 -24 -24 -82 -28 -100 -8 -9 11 -3
14 34 13 61 -1 83 20 65 64 -7 18 -24 36 -37 41 -13 5 -25 8 -26 7 -1 0 -16
-3 -33 -5z m50 -39 c11 -28 7 -34 -23 -34 -37 0 -50 19 -26 37 25 17 41 17 49
-3z"/>
<path d="M3337 3197 c-7 -19 10 -117 24 -133 20 -24 38 -15 50 26 7 22 20 47
30 56 16 14 18 12 34 -41 12 -43 20 -55 33 -53 20 4 20 63 0 106 -16 33 -70
42 -98 17 -18 -16 -19 -16 -26 9 -7 27 -38 36 -47 13z"/>
<path d="M3582 3194 c-52 -36 -10 -124 61 -124 25 0 28 -2 17 -15 -10 -12 -24
-14 -59 -9 -43 6 -45 5 -30 -11 24 -25 93 -31 124 -11 24 16 25 20 19 84 -4
49 -11 72 -26 85 -25 21 -76 22 -106 1z m82 -31 c7 -16 -18 -63 -32 -63 -13 0
-32 23 -32 39 0 21 30 51 45 45 7 -3 16 -13 19 -21z"/>
<path d="M3260 3119 c0 -47 14 -79 35 -79 11 0 15 11 15 38 0 56 -10 82 -31
82 -16 0 -19 -8 -19 -41z"/>
<path d="M2882 2751 c-7 -4 -16 -30 -20 -57 -6 -44 -10 -49 -35 -52 -23 -3
-26 -6 -16 -18 6 -8 22 -14 34 -14 18 0 24 -7 29 -35 5 -25 12 -35 26 -35 15
0 19 8 22 38 3 35 5 37 41 40 51 4 43 26 -11 30 -42 3 -42 3 -42 43 0 49 16
50 36 3 8 -19 20 -34 27 -31 23 7 18 37 -11 67 -31 30 -56 37 -80 21z"/>
<path d="M3518 2753 c-16 -4 -22 -25 -31 -93 -1 -8 -15 -16 -30 -18 -23 -3
-26 -6 -16 -18 6 -8 22 -14 34 -14 18 0 24 -7 29 -35 5 -25 12 -35 26 -35 15
0 19 8 22 38 3 35 5 37 41 40 51 4 43 26 -11 30 -40 3 -42 4 -42 37 0 48 18
53 36 10 15 -37 36 -43 42 -12 4 20 -50 78 -70 76 -7 -1 -21 -3 -30 -6z"/>
<path d="M2252 2718 c3 -29 0 -33 -19 -30 -37 5 -92 -24 -99 -52 -10 -43 3
-72 42 -91 29 -14 41 -15 61 -6 19 9 29 9 39 0 30 -25 39 -5 35 81 -4 100 -13
130 -42 130 -17 0 -20 -5 -17 -32z m-18 -77 c30 -33 2 -83 -38 -68 -19 7 -22
57 -4 75 16 16 22 15 42 -7z"/>
<path d="M3277 2744 c-4 -4 -7 -44 -7 -89 0 -86 17 -132 40 -109 8 8 9 38 3
104 -7 85 -18 112 -36 94z"/>
<path d="M3880 2735 c0 -26 19 -55 36 -55 11 0 14 9 12 33 -2 24 -8 33 -25 35
-16 2 -23 -2 -23 -13z"/>
<path d="M4540 2718 c0 -31 -2 -33 -34 -34 -50 -1 -86 -28 -86 -65 0 -44 15
-66 54 -79 26 -8 40 -8 57 0 15 9 24 9 32 1 28 -28 37 -12 36 72 -1 104 -9
131 -37 135 -19 3 -22 -1 -22 -30z m-2 -102 c5 -24 -16 -46 -44 -46 -31 0 -41
34 -19 66 15 23 18 24 38 11 12 -8 23 -22 25 -31z"/>
<path d="M1923 2713 c-24 -9 -8 -137 19 -154 21 -14 30 -6 45 37 8 21 20 45
28 53 16 16 14 19 37 -54 8 -25 20 -41 32 -43 17 -4 18 1 13 48 -4 29 -14 61
-23 71 -18 20 -78 26 -89 9 -9 -15 -25 -12 -25 4 0 18 -22 35 -37 29z"/>
<path d="M4211 2710 c-20 -12 -7 -130 16 -147 25 -19 27 -18 54 40 13 28 28
52 34 52 5 0 14 -19 20 -42 11 -48 28 -69 45 -58 16 10 7 78 -14 110 -12 19
-25 25 -51 25 -18 0 -37 -4 -40 -10 -9 -15 -25 -12 -25 4 0 20 -23 36 -39 26z"/>
<path d="M1125 2699 c-11 -17 2 -23 50 -24 24 0 50 -7 57 -14 11 -11 9 -13
-10 -8 -55 13 -114 -33 -92 -72 12 -24 39 -33 88 -30 21 2 43 -1 51 -5 44 -28
37 90 -9 136 -24 23 -37 28 -79 28 -27 0 -53 -5 -56 -11z m112 -102 c-6 -19
-61 -15 -65 5 -2 9 4 18 15 20 24 6 55 -10 50 -25z"/>
<path d="M1420 2695 c-8 -10 -11 -30 -7 -58 9 -63 71 -109 104 -76 8 8 17 7
32 -3 17 -10 25 -10 41 0 12 7 31 10 47 6 25 -7 26 -6 18 22 -5 16 -9 45 -9
64 -1 30 -4 35 -26 35 -17 0 -26 -6 -29 -20 -2 -11 -8 -31 -13 -45 -7 -20 -11
-22 -18 -10 -6 8 -10 30 -10 48 0 27 -3 32 -25 32 -20 0 -25 -5 -25 -24 0 -14
-5 -37 -11 -53 l-11 -28 -10 25 c-5 13 -8 40 -6 60 3 39 -19 53 -42 25z"/>
<path d="M1733 2695 c-62 -27 -56 -106 10 -139 73 -35 145 1 133 67 -14 75
-71 103 -143 72z m86 -51 c16 -36 14 -52 -9 -64 -26 -14 -57 -5 -71 21 -14 26
-4 54 24 66 28 13 42 8 56 -23z"/>
<path d="M2397 2703 c-20 -3 -33 -14 -44 -38 -21 -43 -8 -76 39 -105 60 -36
158 -18 158 30 0 30 -17 32 -44 5 -28 -28 -63 -32 -92 -10 -18 13 -16 14 27
15 25 0 54 6 64 14 17 12 17 17 5 45 -19 47 -39 55 -113 44z m66 -42 c6 -25 0
-31 -30 -31 -27 0 -42 28 -22 41 23 15 46 10 52 -10z"/>
<path d="M2585 2663 c15 -108 73 -161 86 -80 8 52 32 76 59 59 45 -28 69 -5
25 24 -24 16 -54 15 -96 -1 -12 -4 -18 1 -23 19 -5 20 -13 26 -32 26 -26 0
-26 -1 -19 -47z"/>
<path d="M3031 2692 c-17 -32 7 -101 43 -123 38 -23 54 -24 76 -4 15 14 20 14
46 0 16 -8 32 -15 37 -15 12 0 8 22 -8 40 -8 9 -18 34 -23 56 -6 32 -13 40
-33 42 -22 3 -26 -2 -38 -48 -7 -27 -17 -50 -22 -50 -13 0 -29 35 -31 67 -3
49 -29 68 -47 35z"/>
<path d="M3660 2685 c0 -54 22 -125 42 -136 24 -13 31 -6 46 47 14 48 31 58
67 42 35 -16 45 0 15 24 -23 19 -48 20 -91 3 -10 -4 -19 3 -27 20 -16 34 -52
34 -52 0z"/>
<path d="M4013 2703 c-28 -5 -53 -39 -53 -71 0 -14 14 -38 34 -58 28 -28 41
-34 78 -34 51 0 91 18 96 44 6 30 -18 35 -43 10 -27 -27 -62 -31 -91 -9 -18
13 -16 14 28 15 71 0 91 32 53 83 -13 19 -64 29 -102 20z m65 -51 c3 -17 -1
-22 -20 -22 -13 0 -30 5 -38 10 -13 9 -12 12 5 25 26 21 49 15 53 -13z"/>
<path d="M3885 2641 c-7 -22 3 -70 18 -88 20 -26 28 -11 25 44 -2 44 -7 59
-20 61 -9 2 -19 -5 -23 -17z"/>
<path d="M4634 2579 c-3 -6 0 -17 7 -25 18 -17 44 -2 36 20 -7 18 -33 21 -43
5z"/>
<path d="M2540 1515 c0 -128 1 -135 20 -135 18 0 20 7 20 63 0 49 4 68 18 80
23 21 27 21 46 1 11 -11 16 -35 16 -80 0 -57 2 -64 20 -64 18 0 20 7 20 59 0
104 -34 151 -88 122 -31 -16 -32 -15 -32 39 0 43 -3 50 -20 50 -19 0 -20 -7
-20 -135z"/>
<path d="M2290 1620 c0 -16 7 -20 35 -20 l35 0 0 -110 0 -110 25 0 25 0 0 110
0 110 35 0 c28 0 35 4 35 20 0 19 -7 20 -95 20 -88 0 -95 -1 -95 -20z"/>
<path d="M3340 1509 l0 -132 62 7 c74 7 108 27 108 62 0 33 -17 64 -35 64 -21
0 -18 13 6 28 15 10 19 21 17 45 -4 40 -35 57 -105 57 l-53 0 0 -131z m94 91
c50 -18 20 -70 -40 -70 -10 0 -14 12 -14 40 0 43 8 48 54 30z m30 -122 c17
-27 -5 -52 -48 -56 l-36 -3 0 41 0 41 36 -3 c22 -2 42 -10 48 -20z"/>
<path d="M2823 1550 c-27 -16 -33 -17 -33 -5 0 8 -9 15 -20 15 -19 0 -20 -7
-20 -90 0 -83 1 -90 20 -90 17 0 20 7 20 49 0 55 26 98 63 103 23 3 38 38 15
38 -7 0 -28 -9 -45 -20z"/>
<path d="M2946 1549 c-19 -17 -29 -37 -33 -66 -5 -37 -2 -45 25 -73 30 -30 61
-37 109 -24 37 10 17 33 -23 27 -25 -4 -40 -1 -54 12 -32 29 -24 35 45 35 l65
0 0 29 c0 67 -82 104 -134 60z m82 -21 c25 -25 13 -38 -33 -38 -49 0 -53 4
-28 32 19 21 44 23 61 6z"/>
<path d="M3163 1560 c-49 -20 -60 -114 -18 -155 34 -34 125 -34 125 0 0 9 -11
12 -40 8 -41 -6 -70 8 -70 33 0 11 17 14 66 14 l67 0 -7 33 c-11 59 -67 90
-123 67z m71 -36 c26 -25 19 -34 -29 -34 -46 0 -58 13 -33 38 17 17 44 15 62
-4z"/>
</g>
</svg>
