<?xml version="1.0" encoding="UTF-8"?>
<svg id="_レイヤー_1" data-name="レイヤー 1" xmlns="http://www.w3.org/2000/svg" width="157.05mm" height="303.8mm" viewBox="0 0 445.19 861.15">
  <path d="M278.77,69.85l36.45,15.12c20.38-5.81,35.74-12.53,54.42,2.51,9.36,7.53,21.41,26.95,28.48,31.52,4.32,2.79,13.42,4.59,18.87,7.13,37.99,17.7,32.24,59.02,14.06,89.77-1.8,3.05-7.04,8.77-7.87,11.13-1.83,5.14-2.2,13.48-4.26,19.74-2.72,8.28-7.62,17.08-13.32,23.68-3.09,3.58-10.75,8.78-11.95,12.09-1.12,3.08-.08,17.41-.06,21.98.07,15.06-.05,15.58-6.75,29.16-5.09,10.32-2.21,12.04-3.32,22.68-1.75,16.76-8.6,21.82-17.32,33.68-1.02,1.39-8.2,12.64-8.2,13.43-.01,1.42,2.96,6.68,3.4,9.25.49,2.89-.31,6.36.22,8.56.14.6,6.6,5.94,8.43,8.79,7.59,11.79,4.83,17.37,6.65,29.35,2.03,13.37,7.78,25.28,8.93,41.07.86,11.88,1.97,23.28,2.99,35.01,1.52,17.5-1.16,31.87-11.87,45.92l15.16,78.78c5.14,11.73,14.3,20.68,19.58,32.42,12.71,28.29,8.42,58.91-7.79,84.73,16.86,12.84,26.66,28.87,16.64,49.83-9.54,19.97-36.25,24.11-56.25,22.83-6.51-.41-21.72-5.24-25.84-4.76-1.17.14-15.08,9.67-20.36,11.48-24.92,8.55-49.24,5.62-64.06-17.46-3.64-5.66-3.86-6.47-8.25-11.75-3.17-3.82-4.66-7.12-6.61-11.59l-33.24,1.15c-.2,6.61-7.12,10-10.11,14.38-2.31,3.38-3.77,8.71-6.56,12.44-18.91,25.35-59.29,19.7-81.05,1.31-19.19,4.52-38.47,7.2-57.83,1.7-34.79-9.88-38.21-51.83-7.57-69.44-18.84-28.08-21.46-62.05-4.79-91.81,3.44-6.15,8.77-11.84,12.23-17.77,6.46-11.09,5.48-20.12,7.9-32.1,1.82-9.04,13.36-57.09,11.17-61.8-.6-1.29-2.93-2.54-3.92-4.08-14.08-21.86-7.33-32.1-4.68-54.55,2.52-21.38-.11-33.7,8.35-55.65,7.03-18.23,16.06-23.56,25.2-37.8,7.13-11.1.9-10.33-5.46-17.41-12.91-14.37-23.7-22.78-25.02-43.99-.35-5.69.43-11.24.92-16.86-3.27-3.18-6.95-4.33-9.71-8.35-9.61-13.99-2.31-32.42-2.27-47.93.02-8.44-7.78-11.1-12.87-16.93-5.67-6.5-10.62-15.49-13.32-23.68-2.06-6.27-2.43-14.61-4.26-19.74-1.22-3.43-9.11-12.52-11.63-17.37-15.66-30.12-16.74-67.42,17.81-83.53,5.45-2.54,14.55-4.34,18.87-7.13,7.07-4.57,19.11-23.99,28.48-31.52,18.69-15.04,34.04-8.32,54.42-2.51,12.7-4.01,23.95-10.83,36.45-15.12-2.01-15.15-.53-28.1,6.97-41.53,23.11-41.4,85.47-36.32,102.2,8.15,4.37,11.61,4.5,21.19,3.12,33.39ZM389.91,277.27c.43-.69,9.43-7.18,11.75-9.75,7.02-7.81,11.54-17.65,14.23-27.77,1.26-4.73,1.25-10.52,2.67-14.33s8.59-11.82,11.24-16.76c12.41-23.03,18.21-57.63-7.25-74.09-8.61-5.57-21.24-7.21-28.41-12.59-4.7-3.52-9.22-11.84-13.48-16.52-15.76-17.31-25.11-26.8-50.03-19.98-4.14,1.13-11.65,5.3-15.52,5.07-1.99-.12-6.08-3.16-8.49-4.04-8.77-3.18-14.83-6.51-23-10-2.41-1.03-8.91-2.21-10-3-2.29-1.65.78-9.01,1-12.04,5.57-74.49-109.53-74.5-103.97,0,.23,3.03,3.29,10.39,1,12.04-1.09.78-7.59,1.97-10,3-8.17,3.49-14.23,6.82-23,10-2.42.88-6.5,3.92-8.49,4.04-3.86.24-11.38-3.94-15.52-5.07-24.92-6.81-34.28,2.67-50.03,19.98-4.26,4.68-8.78,13-13.48,16.52-7,5.25-19.4,6.94-27.79,12.21-26.09,16.37-20.48,51.07-7.87,74.47,2.66,4.94,9.82,12.92,11.24,16.76s1.4,9.61,2.67,14.33c4.44,16.63,12.92,29.15,27.09,38.91,4.39,21.56-13.42,51.4,14.09,62.43-4.06,13.73-2.37,32.28,6.56,43.92,3.17,4.13,14.46,15.83,18.51,19.48,1.32,1.19,5.64,3.39,5.81,3.69.21.36.81,7.46.73,8.35-.56,6.33-13.79,18.66-17.94,24.55-18.96,26.88-16.46,47.85-19.69,78.31-.44,4.12-2.48,8.72-2.88,13.12-1.41,15.47,1.42,29.19,12.45,40.53-1.09,22.66-7.78,45.33-12.19,67.73-1.16,5.88-1.21,13.52-2.72,19.28-2.45,9.35-11.5,18.29-16.36,26.64-18.3,31.4-12.68,63.02,5.74,92.7-17.91,10.57-29.39,28.28-17.35,48.52,9.76,16.4,35.74,18.39,52.9,17.07,5.46-.42,21.73-5.21,24.87-4.7,1.74.29,9.45,7.03,12.32,8.54,19.11,10.07,47.5,11.53,62.35-6.3,4.13-4.96,5-9.81,7.96-14.03s10.89-7.64,10.09-15.41c13.87-1.95,27.9-3.16,41.82-.97.51,4.98,2.96,8.72,6.05,12.44,1.26,1.52,3.49,2.21,4.47,3.53,2.44,3.29,3.79,9.5,7.16,13.84,17.82,22.93,56.51,15.18,75.93-1.92,23.19,6.34,64.38,11.28,78.29-13.69,11-19.74-1.47-37.21-18.8-46.87,18.68-27.77,24.15-60.26,7.51-90.46-3.71-6.73-9.2-12.55-12.94-19.06-6.49-11.31-5.44-20.04-7.87-32.13-3.86-19.15-8.76-38.09-11.66-57.45,0-2.87,3.71-5.51,5.37-8.43,7.3-12.74,8.38-22.83,6.44-37.28-2.71-20.24-2.33-40.41-6.93-60.07-1.08-4.6-4.04-10.08-4.7-14.31-1.86-11.92,1.21-18.9-7.81-30.18-1.53-1.91-7-6.03-7.25-6.75-.85-2.48.15-7.29-.4-10.6-.47-2.84-4.57-9.35-4.49-10.26.04-.52,5.5-6.55,6.55-8.16,9.77-15,21.22-25.95,21.18-45.82,0-2.84-2.19-9.63-1.76-11.89.19-.99,4.24-4.55,5.41-6.47,2.8-4.61,5.82-11.39,6.23-16.77.64-8.34-1.83-19.93-1.53-27.73.04-.92,1.63-7.89,1.93-8.37ZM245.3,56.36c0,12.52-10.15,22.67-22.67,22.67s-22.67-10.15-22.67-22.67,10.15-22.67,22.67-22.67,22.67,10.15,22.67,22.67ZM240.39,56.46c0-9.81-7.95-17.76-17.76-17.76s-17.76,7.95-17.76,17.76,7.95,17.76,17.76,17.76,17.76-7.95,17.76-17.76Z"/>
</svg>