<?xml version="1.0" standalone="no"?>
<!DOCTYPE svg PUBLIC "-//W3C//DTD SVG 20010904//EN"
 "http://www.w3.org/TR/2001/REC-SVG-20010904/DTD/svg10.dtd">
<svg version="1.0" xmlns="http://www.w3.org/2000/svg"
 width="580.000000pt" height="867.000000pt" viewBox="0 0 580.000000 867.000000"
 preserveAspectRatio="xMidYMid meet">

<g transform="translate(0.000000,867.000000) scale(0.100000,-0.100000)"
fill="#000000" stroke="none">
<path d="M2766 8614 c-186 -45 -330 -178 -404 -372 -23 -59 -26 -82 -26 -189
l0 -123 -45 -15 c-26 -8 -66 -27 -91 -41 -42 -24 -178 -79 -226 -91 -12 -2
-64 10 -115 28 -76 26 -110 33 -180 33 -79 1 -90 -2 -160 -36 -60 -30 -94 -56
-165 -130 -49 -51 -112 -122 -139 -158 -60 -80 -65 -83 -134 -105 -85 -26
-211 -89 -258 -129 -98 -85 -143 -199 -143 -360 0 -170 49 -323 154 -479 50
-74 65 -106 70 -147 10 -74 57 -210 97 -277 19 -32 70 -93 114 -137 l80 -79
-3 -91 c-1 -50 -7 -127 -13 -171 -20 -148 13 -259 95 -316 l45 -32 -6 -82 c-7
-101 9 -198 47 -283 29 -62 62 -101 226 -266 27 -28 53 -59 57 -69 10 -26 -22
-81 -89 -157 -180 -204 -266 -445 -278 -780 -2 -63 -11 -146 -20 -185 -18 -79
-20 -209 -5 -274 14 -61 56 -147 92 -187 l30 -35 -13 -77 c-6 -42 -30 -162
-51 -267 -44 -210 -61 -300 -80 -420 -14 -94 -29 -126 -114 -249 -107 -155
-148 -259 -167 -418 -20 -170 15 -339 106 -515 l43 -82 -43 -31 c-254 -182
-199 -548 98 -649 137 -47 327 -51 513 -12 l89 19 37 -29 c86 -68 229 -116
369 -126 198 -13 355 70 439 231 17 32 51 81 76 108 25 28 48 61 51 73 5 21
13 24 92 30 112 8 115 8 189 7 61 -2 62 -2 73 -38 7 -19 30 -54 53 -77 22 -23
51 -62 63 -87 50 -102 142 -187 239 -220 182 -62 433 -16 595 110 25 19 26 19
115 -2 72 -18 120 -22 240 -22 163 0 235 14 328 60 142 73 223 228 196 378
-15 85 -52 148 -131 221 l-68 62 30 55 c85 156 120 289 120 450 0 189 -47 324
-183 526 -80 118 -88 138 -108 267 -6 44 -31 172 -55 285 -23 113 -49 245 -58
293 l-15 89 34 49 c59 86 78 150 83 280 3 82 -1 139 -12 194 -9 42 -16 121
-16 176 0 131 -24 305 -56 409 -14 47 -30 126 -34 175 -12 134 -39 202 -110
276 -32 34 -40 50 -40 81 0 21 -8 60 -19 87 l-18 48 38 59 c21 33 59 83 85
113 88 101 134 236 134 389 0 78 3 99 20 122 11 16 34 57 50 92 33 70 36 104
31 310 l-4 127 79 78 c43 43 94 104 113 136 40 67 87 203 97 277 5 41 20 73
70 147 105 156 154 309 154 479 0 252 -105 386 -375 480 -44 15 -86 32 -94 38
-7 6 -46 51 -86 101 -111 138 -212 230 -291 267 -62 29 -78 33 -154 32 -69 0
-103 -7 -179 -33 -51 -18 -103 -30 -115 -28 -48 12 -184 67 -226 91 -25 14
-65 33 -91 41 l-45 15 0 123 c0 107 -3 130 -26 189 -38 101 -86 174 -155 238
-138 127 -336 178 -517 134z m263 -49 c92 -24 163 -65 232 -134 113 -113 167
-250 155 -396 -4 -44 -8 -93 -9 -108 -2 -27 2 -30 55 -47 31 -10 81 -31 110
-47 29 -17 78 -38 108 -48 30 -10 76 -28 101 -41 l45 -22 105 36 c86 29 119
36 189 36 75 1 92 -3 141 -27 64 -33 191 -156 291 -282 61 -77 66 -81 148
-113 255 -98 329 -168 366 -344 36 -170 -30 -409 -161 -587 -38 -51 -49 -75
-55 -123 -11 -77 -53 -200 -90 -265 -34 -59 -126 -162 -163 -182 -28 -15 -48
-85 -38 -134 4 -18 6 -90 6 -162 -1 -120 -3 -134 -28 -187 -15 -32 -40 -73
-56 -90 -27 -31 -28 -36 -20 -93 19 -139 -32 -303 -126 -404 -23 -25 -52 -64
-63 -86 -11 -22 -34 -56 -50 -75 l-29 -34 23 -51 c16 -33 24 -68 24 -104 0
-51 3 -56 40 -88 54 -46 97 -139 110 -236 6 -42 9 -81 6 -86 -3 -5 5 -41 19
-81 39 -114 56 -222 65 -405 4 -93 16 -215 25 -270 14 -82 15 -114 6 -179 -12
-87 -46 -171 -92 -229 l-30 -37 16 -93 c8 -50 35 -186 60 -302 24 -115 51
-259 61 -320 19 -124 31 -153 119 -280 107 -154 147 -254 164 -408 19 -167
-13 -309 -109 -494 l-59 -113 32 -16 c55 -29 144 -122 168 -177 34 -76 32
-174 -4 -250 -90 -182 -337 -249 -675 -182 l-123 24 -47 -36 c-146 -113 -393
-155 -552 -94 -79 30 -152 98 -193 179 -19 37 -53 86 -75 109 -23 24 -47 61
-53 82 l-12 40 -66 7 c-65 7 -242 0 -313 -12 -27 -5 -38 -12 -38 -24 0 -22
-44 -88 -75 -112 -13 -10 -35 -43 -49 -73 -31 -68 -107 -150 -166 -180 -157
-79 -409 -49 -572 68 l-64 45 -89 -20 c-127 -28 -329 -34 -425 -14 -202 43
-310 158 -310 329 1 104 49 187 154 264 33 25 61 48 61 52 0 3 -28 62 -62 131
-83 168 -97 223 -97 385 -1 197 38 312 169 499 82 118 99 158 115 271 7 50 34
194 60 320 27 127 56 278 65 336 l18 107 -41 53 c-22 30 -45 65 -52 79 -40 78
-52 236 -26 358 8 37 17 123 21 192 15 322 89 530 259 730 88 104 112 150 108
206 -2 32 -9 44 -32 58 -17 9 -49 40 -72 67 -24 28 -67 74 -97 102 -59 58 -94
118 -116 204 -16 62 -19 187 -6 244 8 35 7 37 -36 64 -99 63 -123 131 -104
307 7 65 13 157 14 205 0 84 -1 87 -29 106 -52 36 -148 142 -177 195 -38 69
-76 183 -86 258 -7 50 -18 73 -56 125 -131 178 -197 417 -161 587 37 176 111
246 366 344 82 32 87 36 148 113 100 126 227 249 291 281 49 25 67 29 141 28
70 0 103 -7 189 -36 l105 -36 45 22 c25 13 71 31 101 41 30 10 79 31 108 48
29 16 79 37 110 47 53 17 57 20 55 47 -1 15 -5 64 -9 108 -19 235 147 465 383
530 65 18 196 18 262 0z"/>
<path d="M2810 8274 c-176 -76 -179 -329 -6 -410 195 -91 394 114 296 306 -24
46 -66 85 -112 104 -47 20 -132 20 -178 0z m163 -48 c43 -17 84 -67 97 -117
19 -70 -6 -140 -67 -186 -31 -24 -46 -28 -103 -28 -57 0 -72 4 -103 28 -85 64
-98 177 -30 258 48 56 135 75 206 45z"/>
<path d="M3855 7231 c-73 -144 -186 -443 -185 -490 0 -9 23 52 51 134 28 83
77 206 110 274 32 68 57 126 55 129 -3 2 -16 -19 -31 -47z"/>
<path d="M3892 7038 c-62 -115 -125 -248 -119 -254 1 -2 44 79 94 179 51 99
91 182 89 184 -2 2 -30 -47 -64 -109z"/>
<path d="M1970 7103 c0 -32 140 -325 161 -339 7 -4 -6 26 -29 67 -22 41 -59
119 -82 174 -44 104 -50 115 -50 98z"/>
<path d="M2860 7053 c0 -37 -1 -38 -39 -38 -67 -1 -102 -57 -71 -115 13 -24
65 -41 93 -31 13 5 35 7 50 4 l27 -5 0 75 c0 77 -12 125 -33 139 -22 14 -27 8
-27 -29z m-18 -80 c10 -9 18 -21 18 -26 0 -18 -32 -47 -51 -47 -27 0 -36 46
-14 70 22 24 24 24 47 3z"/>
<path d="M3613 7074 c-8 -21 4 -115 17 -128 17 -17 30 12 30 70 0 61 -31 100
-47 58z"/>
<path d="M1841 7064 c-1 -13 207 -328 244 -369 l27 -30 -17 30 c-10 17 -30 46
-45 65 -22 28 -104 152 -197 296 -6 11 -12 14 -12 8z"/>
<path d="M2147 7033 c-4 -3 -7 -30 -7 -60 0 -40 5 -58 21 -74 28 -28 40 -21
56 34 21 72 34 70 45 -8 3 -21 48 -35 48 -15 0 6 7 27 15 48 13 29 18 34 25
22 5 -8 10 -26 10 -40 0 -28 16 -50 37 -50 20 0 16 70 -7 108 -21 34 -44 40
-73 17 -16 -12 -21 -11 -38 6 -25 25 -43 24 -68 -2 l-19 -21 -7 21 c-6 21 -25
28 -38 14z"/>
<path d="M2447 7033 c-4 -3 -7 -20 -7 -36 0 -42 61 -102 95 -93 27 7 33 -5 11
-23 -9 -7 -25 -9 -43 -5 -25 6 -26 5 -15 -8 18 -22 56 -30 87 -18 34 13 57 68
53 128 -3 40 -6 47 -25 50 -17 3 -25 -4 -36 -30 -31 -73 -77 -71 -77 3 0 31
-4 39 -18 39 -10 0 -22 -3 -25 -7z"/>
<path d="M3003 7033 c-28 -5 -53 -39 -53 -70 0 -38 49 -83 97 -90 51 -7 100
11 109 39 9 30 -16 41 -39 18 -24 -27 -60 -34 -89 -19 -22 13 -21 14 24 19 57
7 73 20 64 54 -12 50 -42 63 -113 49z m65 -51 c3 -17 -1 -22 -20 -22 -13 0
-30 5 -38 10 -13 9 -12 12 5 25 26 21 49 15 53 -13z"/>
<path d="M3192 7023 c3 -13 12 -17 33 -15 34 4 75 -5 75 -16 0 -4 -16 -8 -35
-8 -38 0 -75 -27 -75 -55 0 -31 44 -52 95 -47 25 3 48 1 55 -6 30 -30 33 59 3
116 -18 37 -42 48 -103 48 -44 0 -51 -3 -48 -17z m99 -73 c10 -6 19 -15 19
-20 0 -16 -39 -21 -61 -9 -22 11 -22 12 -4 25 23 17 21 17 46 4z"/>
<path d="M3394 7003 c15 -79 27 -113 47 -123 26 -15 39 -5 39 29 0 16 9 39 19
52 17 21 22 22 40 12 46 -29 71 -6 26 23 -24 16 -54 15 -97 -1 -12 -5 -17 0
-20 17 -2 17 -10 24 -32 26 -28 4 -28 3 -22 -35z"/>
<path d="M3622 6898 c7 -19 38 -22 38 -4 0 10 -9 16 -21 16 -12 0 -19 -5 -17
-12z"/>
<path d="M3025 6633 c-77 -17 -108 -58 -84 -114 10 -25 27 -38 76 -61 66 -30
73 -38 47 -59 -15 -12 -18 -12 -103 12 -8 2 -17 -7 -22 -24 -6 -21 -3 -29 11
-37 32 -17 95 -22 139 -10 83 22 90 120 10 160 -21 11 -45 20 -52 20 -8 0 -20
7 -27 16 -11 12 -10 18 3 31 14 14 23 15 64 6 26 -6 48 -11 49 -10 1 1 4 14 8
29 5 20 2 28 -11 31 -34 10 -88 15 -108 10z"/>
<path d="M2350 6485 l0 -145 40 0 40 0 0 145 0 145 -40 0 -40 0 0 -145z"/>
<path d="M2500 6486 l0 -146 35 0 35 0 0 50 c0 42 3 50 19 50 23 0 35 -15 50
-62 12 -35 15 -38 52 -38 21 0 39 3 39 8 0 4 -13 32 -28 63 l-28 57 23 20 c31
27 32 91 2 118 -17 15 -40 20 -110 22 l-89 4 0 -146z m117 88 c27 -7 39 -40
23 -59 -7 -8 -25 -15 -41 -15 -26 0 -29 3 -29 33 0 46 6 52 47 41z"/>
<path d="M2790 6485 l0 -145 40 0 40 0 0 145 0 145 -40 0 -40 0 0 -145z"/>
<path d="M3210 6485 l0 -145 40 0 40 0 0 60 0 60 45 0 45 0 0 -60 0 -60 40 0
40 0 0 145 0 145 -40 0 -40 0 0 -55 0 -55 -45 0 -45 0 0 55 0 55 -40 0 -40 0
0 -145z"/>
<path d="M2024 6149 c-18 -5 -46 -25 -63 -44 -27 -32 -31 -43 -31 -96 0 -104
49 -153 151 -154 102 0 160 74 144 183 -8 55 -45 96 -101 111 -45 13 -57 13
-100 0z m102 -73 c15 -11 19 -26 19 -69 0 -67 -15 -87 -65 -87 -50 0 -73 27
-73 85 0 55 23 85 68 85 17 0 40 -6 51 -14z"/>
<path d="M3179 6151 c-51 -17 -71 -34 -91 -78 -24 -55 -19 -119 12 -163 56
-79 212 -72 256 11 21 41 20 131 -2 167 -30 52 -114 82 -175 63z m93 -78 c33
-38 34 -106 1 -138 -18 -19 -87 -20 -102 -2 -28 34 -26 111 5 141 21 21 77 20
96 -1z"/>
<path d="M1551 6018 c16 -73 29 -139 29 -145 0 -9 17 -13 49 -13 l48 0 13 106
c14 114 23 117 34 14 14 -124 13 -121 64 -118 l46 3 27 130 c16 72 28 136 29
143 0 7 -13 12 -35 12 -39 0 -38 2 -55 -124 -6 -44 -12 -81 -14 -83 -4 -4 -12
48 -22 145 l-7 62 -47 0 -48 0 -12 -105 c-7 -58 -15 -104 -17 -101 -4 3 -32
178 -33 199 0 4 -17 7 -39 7 l-39 0 29 -132z"/>
<path d="M2280 6005 l0 -145 100 0 100 0 0 30 c0 29 -1 29 -62 32 l-63 3 -3
113 -3 112 -34 0 -35 0 0 -145z"/>
<path d="M2530 6005 l0 -145 40 0 40 0 0 55 0 55 50 0 c49 0 50 1 50 30 0 29
-1 30 -50 30 -49 0 -50 1 -50 30 0 30 1 30 55 30 54 0 55 0 55 30 l0 30 -95 0
-95 0 0 -145z"/>
<path d="M2780 6005 l0 -145 40 0 40 0 0 60 0 60 45 0 45 0 0 -60 0 -60 35 0
35 0 0 145 0 145 -35 0 -35 0 0 -55 0 -55 -45 0 -45 0 0 55 0 55 -40 0 -40 0
0 -145z"/>
<path d="M3422 6031 c3 -135 12 -152 80 -173 54 -16 113 3 138 45 17 26 20 51
20 140 l0 107 -40 0 -40 0 0 -110 c0 -99 -2 -110 -20 -120 -14 -8 -26 -8 -40
0 -18 10 -20 21 -20 120 l0 110 -41 0 -41 0 4 -119z"/>
<path d="M3720 6005 l0 -145 40 0 39 0 3 78 3 77 41 -75 c39 -73 41 -75 82
-78 l42 -3 0 145 0 146 -40 0 -40 0 0 -82 0 -83 -46 83 c-45 81 -46 82 -85 82
l-39 0 0 -145z"/>
<path d="M4030 6005 l0 -145 71 0 c93 0 135 20 160 74 24 52 24 102 1 145 -27
51 -73 71 -159 71 l-73 0 0 -145z m156 64 c13 -15 19 -35 18 -66 -1 -50 -23
-79 -64 -85 -25 -3 -25 -2 -28 85 l-3 87 29 0 c17 0 37 -9 48 -21z"/>
<path d="M2893 3927 c-13 -16 1 -173 17 -192 23 -28 40 -17 40 25 0 48 22 54
44 12 37 -72 79 -65 50 8 -13 32 -14 45 -6 48 7 2 12 11 12 19 0 16 -27 15
-87 -3 -21 -6 -23 -3 -23 34 0 30 -5 44 -19 51 -13 8 -22 7 -28 -2z"/>
<path d="M2264 3919 c-11 -18 7 -177 21 -189 20 -17 35 -3 35 30 0 16 5 41 11
57 l11 28 19 -24 c10 -13 19 -32 19 -43 0 -28 18 -58 35 -58 20 0 20 62 0 100
-19 36 -47 52 -79 44 -21 -5 -24 -1 -30 30 -7 35 -28 48 -42 25z"/>
<path d="M1991 3911 c-24 -15 -2 -31 43 -31 l43 0 11 -66 c20 -120 54 -124 51
-6 l-2 77 45 -3 c50 -4 70 11 39 27 -24 13 -210 14 -230 2z"/>
<path d="M2677 3888 c-15 -11 -16 -21 -7 -72 16 -100 47 -114 76 -34 11 28 24
53 31 55 6 3 18 -19 28 -52 12 -43 20 -55 33 -53 20 4 20 63 0 106 -15 30 -62
41 -98 22 -17 -9 -22 -7 -30 15 -11 29 -11 29 -33 13z"/>
<path d="M2465 3880 c-11 -18 3 -25 51 -25 24 0 49 -6 56 -13 9 -9 4 -12 -28
-12 -22 0 -50 -7 -62 -16 -51 -35 -7 -88 70 -83 24 2 50 -1 57 -5 7 -5 18 -3
24 3 15 15 -9 114 -34 137 -24 21 -123 32 -134 14z m110 -100 c0 -23 -59 -20
-63 3 -3 15 2 18 30 15 21 -2 33 -8 33 -18z"/>
<path d="M3177 3884 c-12 -13 -7 -55 10 -85 18 -31 64 -55 88 -45 9 3 15 0 15
-9 0 -17 -33 -28 -60 -20 -32 10 -23 -11 10 -25 70 -29 122 25 118 120 -3 47
-6 55 -23 58 -16 2 -26 -8 -43 -43 -31 -65 -67 -58 -74 15 -3 33 -24 51 -41
34z"/>
<path d="M3432 3875 c-64 -28 -64 -96 0 -135 39 -24 69 -25 108 -5 37 19 45
45 26 88 -25 62 -70 80 -134 52z m83 -59 c12 -27 11 -33 -2 -48 -21 -23 -46
-23 -67 1 -23 26 -17 63 13 78 30 14 39 10 56 -31z"/>
<path d="M3607 3867 c-10 -27 12 -92 38 -114 31 -27 61 -29 86 -7 16 15 20 15
41 0 43 -30 66 -12 31 26 -9 10 -19 35 -22 56 -5 31 -11 38 -32 40 -24 3 -28
-1 -39 -47 -7 -28 -16 -51 -21 -51 -13 0 -29 35 -33 72 -2 24 -9 34 -23 36
-11 2 -23 -3 -26 -11z"/>
<path d="M2161 3431 c-7 -5 -15 -29 -18 -54 -5 -41 -9 -47 -35 -52 -23 -6 -27
-9 -17 -21 6 -8 22 -14 34 -14 18 0 24 -7 29 -35 5 -26 12 -35 26 -35 17 0 20
7 20 40 l0 40 41 0 c55 0 47 24 -9 28 -42 3 -42 3 -42 43 0 45 15 51 33 12 13
-31 27 -44 39 -37 15 9 8 32 -18 63 -26 31 -56 39 -83 22z"/>
<path d="M2837 3418 c-8 -22 5 -172 16 -187 14 -17 87 -10 122 13 52 34 20
105 -55 121 -22 5 -30 13 -32 33 -3 29 -42 44 -51 20z m94 -97 c22 -18 23 -19
5 -45 -23 -37 -40 -28 -44 22 -3 46 4 51 39 23z"/>
<path d="M3256 3408 c16 -56 44 -63 44 -13 0 31 -3 35 -26 35 -22 0 -24 -3
-18 -22z"/>
<path d="M3341 3386 c-17 -20 3 -126 26 -143 25 -19 32 -16 39 15 9 38 33 82
44 82 5 0 16 -25 25 -56 12 -42 20 -54 33 -52 13 3 16 13 15 42 -4 64 -23 91
-66 94 -21 2 -45 -2 -53 -8 -11 -10 -16 -7 -24 14 -11 29 -22 33 -39 12z"/>
<path d="M3594 3386 c-39 -17 -52 -58 -29 -93 19 -28 60 -46 88 -37 14 4 18 2
15 -7 -3 -9 -26 -16 -59 -19 l-54 -6 40 -18 c36 -17 44 -17 80 -5 l40 14 -3
70 c-3 60 -7 73 -28 93 -29 25 -46 27 -90 8z m65 -30 c17 -20 -3 -66 -29 -66
-26 0 -36 24 -22 56 13 27 34 31 51 10z"/>
<path d="M2350 3377 c-64 -32 -57 -106 13 -141 34 -16 44 -17 78 -7 55 17 68
47 44 102 -10 22 -26 44 -36 50 -25 13 -69 11 -99 -4z m74 -33 c9 -8 16 -19
16 -24 0 -5 3 -15 6 -23 3 -10 -4 -22 -20 -32 -24 -16 -28 -16 -51 -1 -32 21
-33 59 -3 80 28 20 33 20 52 0z"/>
<path d="M2530 3366 c0 -51 24 -127 43 -138 23 -12 30 -5 45 48 14 48 31 58
67 42 35 -16 45 0 15 24 -23 19 -53 20 -91 4 -11 -5 -19 1 -27 19 -15 34 -52
34 -52 1z"/>
<path d="M3058 3379 c-15 -6 -30 -22 -36 -37 -22 -66 43 -129 125 -119 56 6
93 37 74 61 -12 14 -17 13 -43 -9 -32 -27 -58 -31 -89 -15 -30 17 -22 26 20
22 55 -5 84 12 76 46 -12 54 -63 74 -127 51z m76 -36 c4 -9 2 -21 -3 -26 -13
-13 -61 0 -61 17 0 27 54 35 64 9z"/>
<path d="M3260 3296 c0 -44 22 -82 41 -71 10 7 12 59 3 93 -4 13 -14 22 -25
22 -16 0 -19 -8 -19 -44z"/>
<path d="M2932 2907 c4 -35 3 -35 -40 -40 -55 -6 -82 -30 -82 -73 0 -51 36
-73 118 -72 l67 0 -3 82 c-4 89 -18 129 -46 134 -16 3 -18 -1 -14 -31z m-20
-84 c23 -21 23 -36 -2 -58 -36 -33 -73 12 -43 54 17 25 21 26 45 4z"/>
<path d="M3550 2921 c-5 -11 -10 -35 -10 -54 0 -31 -4 -35 -31 -41 -27 -5 -30
-8 -19 -21 7 -8 23 -15 36 -15 18 0 24 -6 24 -22 0 -33 15 -52 35 -44 12 4 16
15 13 38 -3 31 -1 33 35 38 48 6 53 24 7 28 -42 4 -59 23 -52 57 6 34 21 32
35 -5 14 -37 53 -44 42 -7 -19 59 -92 90 -115 48z"/>
<path d="M3950 2835 c0 -78 3 -97 16 -102 27 -10 32 10 25 102 -5 74 -9 90
-23 93 -16 3 -18 -7 -18 -93z"/>
<path d="M1818 2889 c-31 -18 -19 -29 31 -29 27 0 53 -6 59 -12 8 -10 1 -13
-28 -13 -45 -1 -70 -19 -70 -51 0 -37 37 -54 109 -52 l63 2 -5 47 c-8 63 -31
96 -76 109 -45 12 -61 12 -83 -1z m94 -90 c20 -11 20 -13 5 -24 -21 -15 -67
-8 -67 10 0 12 14 22 33 24 5 1 18 -4 29 -10z"/>
<path d="M2594 2885 c-4 -9 -3 -40 1 -70 5 -40 12 -59 28 -70 25 -18 28 -15
51 48 22 57 42 61 51 8 8 -47 27 -77 43 -67 16 10 15 60 -2 101 -18 42 -51 53
-94 31 -29 -15 -30 -15 -36 9 -7 28 -33 34 -42 10z"/>
<path d="M3273 2893 c-16 -6 -16 -18 -2 -84 13 -61 43 -97 65 -78 8 6 14 24
14 39 0 15 9 35 21 46 16 15 24 16 39 6 26 -16 40 -15 40 3 0 31 -60 43 -110
21 -11 -4 -19 2 -27 24 -11 30 -17 33 -40 23z"/>
<path d="M2098 2865 c-28 -61 40 -153 92 -125 14 8 26 8 41 0 16 -9 26 -8 43
3 15 10 28 12 38 6 23 -13 26 -3 19 61 -5 50 -8 55 -31 55 -17 0 -26 -6 -29
-20 -2 -11 -8 -31 -13 -45 -7 -20 -11 -22 -18 -10 -6 8 -10 29 -10 46 0 32
-18 48 -37 36 -5 -4 -13 -24 -16 -46 -11 -69 -31 -62 -32 12 0 56 -27 71 -47
27z"/>
<path d="M2413 2880 c-26 -11 -43 -40 -43 -73 0 -29 50 -76 83 -78 99 -5 135
47 84 122 -19 28 -29 34 -62 36 -22 1 -50 -2 -62 -7z m87 -52 c11 -21 12 -32
4 -45 -17 -28 -59 -28 -78 -1 -21 29 -20 34 5 59 26 26 49 21 69 -13z"/>
<path d="M3060 2877 c-13 -7 -28 -26 -33 -44 -13 -43 19 -88 74 -105 72 -21
159 26 119 66 -8 8 -14 7 -20 -5 -15 -27 -62 -41 -93 -30 -39 15 -33 27 11 23
26 -3 45 2 61 15 23 18 23 20 8 50 -24 45 -74 57 -127 30z m83 -37 c6 -24 -24
-36 -53 -20 -17 9 -19 14 -9 26 17 21 56 18 62 -6z"/>
<path d="M3705 2870 c-23 -74 74 -171 123 -122 16 16 22 17 37 5 19 -13 55
-18 55 -7 0 3 -9 17 -20 31 -11 14 -22 40 -26 59 -11 62 -48 55 -65 -12 -6
-25 -16 -47 -20 -50 -12 -7 -39 57 -39 91 0 31 -35 35 -45 5z"/>
<path d="M2352 2478 c-7 -7 -12 -31 -12 -55 0 -38 -3 -43 -23 -43 -13 0 -27
-3 -30 -7 -12 -11 14 -33 39 -33 20 0 24 -5 24 -30 0 -18 6 -33 15 -37 23 -8
29 3 27 42 -3 35 -2 35 38 35 28 0 40 4 40 14 0 10 -14 16 -42 18 -42 3 -43 4
-43 37 0 44 19 50 35 11 14 -33 40 -41 40 -11 0 10 -9 30 -21 45 -22 28 -66
35 -87 14z"/>
<path d="M2725 2481 c-8 -14 16 -63 33 -69 10 -3 12 6 10 34 -3 39 -28 58 -43
35z"/>
<path d="M3383 2457 l5 -35 -46 -5 c-53 -6 -82 -33 -82 -77 0 -47 39 -69 119
-68 l68 0 -5 82 c-5 90 -18 129 -46 134 -16 4 -18 -1 -13 -31z m-15 -90 l22
-23 -21 -23 c-27 -29 -53 -24 -57 12 -3 26 12 57 27 57 4 0 17 -10 29 -23z"/>
<path d="M2513 2443 c-16 -6 -16 -18 -2 -84 13 -61 43 -97 65 -78 8 6 14 22
14 34 0 13 8 33 19 46 17 21 22 22 45 11 34 -15 36 -15 36 3 0 31 -60 43 -110
21 -11 -4 -19 2 -27 24 -11 30 -17 33 -40 23z"/>
<path d="M3045 2440 c-9 -15 4 -122 17 -137 18 -23 45 -15 53 15 8 33 32 72
44 72 5 0 12 -18 16 -39 8 -47 27 -77 43 -67 16 10 15 60 -2 101 -18 42 -51
53 -94 31 -30 -15 -31 -15 -34 6 -3 25 -32 36 -43 18z"/>
<path d="M2842 2430 c-34 -14 -47 -58 -29 -96 16 -32 69 -64 106 -64 40 0 91
28 91 49 0 23 -22 41 -28 23 -2 -7 -17 -19 -34 -28 -25 -13 -35 -13 -59 -4
-38 16 -37 27 4 22 17 -2 45 1 61 7 24 10 27 15 21 39 -10 43 -34 62 -74 61
-20 0 -46 -4 -59 -9z m82 -37 c11 -28 -21 -41 -55 -22 -16 8 -18 13 -8 25 16
19 55 18 63 -3z"/>
<path d="M2737 2393 c-9 -8 -9 -76 -1 -97 3 -9 15 -16 26 -16 19 0 20 4 14 52
-9 66 -19 82 -39 61z"/>
<path d="M3475 2311 c-9 -16 3 -31 26 -31 14 0 19 6 17 17 -4 20 -33 29 -43
14z"/>
<path d="M2260 1580 c0 -16 7 -20 35 -20 l35 0 0 -110 0 -110 25 0 25 0 0 110
0 110 35 0 c28 0 35 4 35 20 0 19 -7 20 -95 20 -88 0 -95 -1 -95 -20z"/>
<path d="M2500 1470 c0 -123 1 -130 20 -130 17 0 20 7 20 53 0 62 21 100 53
95 20 -3 22 -10 25 -75 3 -65 5 -73 22 -73 18 0 20 7 20 71 0 89 -10 109 -55
109 -18 0 -37 -4 -40 -10 -14 -23 -25 -7 -25 40 0 43 -3 50 -20 50 -19 0 -20
-7 -20 -130z"/>
<path d="M3300 1470 l0 -130 54 0 c70 0 104 13 116 45 12 32 -3 75 -30 82 -19
5 -19 6 5 29 28 26 31 42 12 68 -13 18 -75 35 -129 36 l-28 0 0 -130z m119 76
c16 -19 3 -45 -25 -52 -37 -9 -54 2 -54 36 0 27 3 30 34 30 18 0 39 -6 45 -14z
m-8 -96 c44 -24 9 -86 -44 -78 -23 3 -35 43 -23 74 6 16 39 18 67 4z"/>
<path d="M2720 1430 c0 -83 1 -90 20 -90 18 0 20 7 20 54 0 47 4 57 26 75 15
12 33 21 40 21 8 0 14 7 14 15 0 19 -30 19 -58 -1 -20 -14 -22 -14 -22 0 0 9
-9 16 -20 16 -19 0 -20 -7 -20 -90z"/>
<path d="M2901 1494 c-30 -38 -28 -98 4 -130 21 -21 33 -25 72 -22 36 2 49 7
51 20 3 14 -1 16 -26 9 -35 -10 -75 6 -80 32 -3 15 5 17 64 17 l67 0 -7 32
c-10 49 -33 68 -82 68 -34 0 -47 -5 -63 -26z m101 -18 c18 -26 7 -36 -37 -36
-50 0 -60 18 -24 44 22 15 48 11 61 -8z"/>
<path d="M3113 1505 c-43 -30 -38 -131 8 -155 19 -11 102 -14 112 -4 15 15 -6
32 -31 24 -32 -9 -67 2 -75 23 -9 23 1 27 65 27 58 0 58 0 58 30 0 42 -31 70
-78 70 -21 0 -47 -7 -59 -15z m78 -15 c10 -6 19 -20 19 -30 0 -17 -7 -20 -45
-20 -49 0 -55 10 -25 40 23 23 25 23 51 10z"/>
</g>
</svg>
