<?xml version="1.0" encoding="UTF-8"?>
<svg id="_レイヤー_1" data-name="レイヤー 1" xmlns="http://www.w3.org/2000/svg" width="163.63mm" height="304.09mm" viewBox="0 0 463.84 862">
  <path d="M174.86,43.38c19.18-52.68,94.85-52.67,114.02,0C306.02,21.68,323.07-2.4,354.35.39c23.75,2.12,34.16,23.34,39.03,43.97,4.54,19.25,10.06,47.14,12.36,66.64,1.47,12.42.76,23.31.29,35.71,9.85,6,21.68,12.13,22.85,25.15.28,3.17-1.2,8.32-.85,9.81s4.5,4.5,5.81,6.23c3.95,5.17,7.83,11.24,7.92,18.07.04,2.76-1.96,6.68-1.61,8.76.25,1.45,4.72,6.79,5.89,8.97,4.27,7.99,6.08,13.69,4.74,23.08-.34,2.41-2.96,6.84-2.75,7.94.14.71,6.4,9.18,7.69,12.29,2.32,5.59,3.72,10.59,3.03,16.75-.34,3.05-2.81,7.32-2.81,9.11,0,2.59,3.62,8.61,3.54,13.84-.11,7.73-4.81,11.49-5.43,15.37-.47,2.93,2.92,11.4,2.85,15.75-.13,8.14-6.16,13.02-6.85,17.25-.38,2.35,1.76,6.6,1.88,9.79.65,16.6-14.2,27.4-29.95,25.62.15,3.06-2.91,5.85-3.07,8.44-.31,4.94,1.7,11.68.88,17.87-.42,3.18-3.43,8.03-3.5,10.08-.06,1.7,3.39,9.31,4.1,12.5,1.27,5.76,1.23,14.24,2.94,19.06,1.31,3.68,7.9,9.7,10.37,13.63,19.63,31.36,12.56,93.45,16.19,130.81,6.23,64.11,31.44,101.89-6.59,165.42-1.72,2.87-7.22,9.07-7.91,11.13-.49,1.43.75,10.33.53,13.49-2.49,36.4-39.55,43.32-69.34,44.66-33.24,35.78-105.45,32.7-129.35-12.27l-11.75,2.17c-25.38,42.81-95.54,45.34-128.3,10.1-28.95-1.42-65.5-7.69-69.18-42.82-.43-4.12.91-13.03.28-15.42-.38-1.45-9.35-13.39-11.2-16.66-27.71-49.05-15.42-87.07-6.5-138.09,6.85-39.18,2.05-79.3,8.46-117.54,3.15-18.81,11.46-29.2,17.11-45.89,1.56-4.6,10.71-33.75,10.73-36.25.03-3.2-1.86-7.32-2.04-10.98-.22-4.54,1.51-9.14,1-12.95-.46-3.44-4.03-6.63-4.07-10.47-16.75,1.79-31.56-9.99-29.78-27.51.25-2.51,2.08-5.62,1.71-7.9-.58-3.58-6.22-8.72-6.74-15.34-.47-5.95,2.95-12.6,2.8-16.91-.07-2.11-3.7-6.58-4.6-10.23-1.69-6.88.95-10.42.49-15.5-.29-3.25-2.84-7.06-2.85-11.23,0-3.7,2.15-11.92,3.58-15.49,1.65-4.11,8.39-12.96,9.04-15.92.31-1.39-2.13-5.26-2.46-7.67-1.31-9.44.45-15.05,4.74-23.08,1.16-2.18,5.64-7.52,5.89-8.97.35-2.07-1.64-6-1.61-8.76.09-6.83,3.97-12.9,7.92-18.07,1.32-1.72,5.46-4.72,5.81-6.23s-1.13-6.64-.85-9.81c1.16-13.04,13.02-19.17,22.85-25.15.59-8.44-1.25-16.34-.88-24.88.75-17.23,6.35-37.14,9.75-54.25,4.68-23.52,6.87-57.86,35.27-65.73,33.59-9.3,55.14,18.14,73.01,41.52ZM176.86,56.38c-7.93-9.73-14.16-21.2-22.96-30.53C124.13-5.66,88.23-1.82,76.36,42.36c-4.53,16.86-8.33,41.17-11.17,58.83-2.62,16.31-3.23,32.02-1.46,48.52-9.67,6.5-23.29,10.06-23.48,24.33-.04,3.07,2.02,6.49,1.23,9.36-1.9,6.85-14,9.05-13.67,23.49.07,2.85,2.05,7.94,1.87,8.84-.14.7-5.84,7.91-6.97,9.97-3.28,5.99-5.44,10.95-4.72,18.06.35,3.43,3.82,9.56,3.68,10.96-.19,1.91-8.76,13.76-10.28,17.66-1.93,4.94-3.39,13.11-2.29,18.27.46,2.13,2.65,4.03,2.68,6.2.05,3.71-2.72,6.46-1.66,12.78.76,4.5,5.57,9.42,5.77,11.25.51,4.9-4.26,12.66-2.94,20.93.87,5.49,7.52,10.83,7.78,12.2s-2.08,4.17-2.58,6.12c-4.58,17.96,11.5,27.42,27.59,25.38-.08,4.22,5.79,11.66,6.15,14.44.44,3.37-1.44,10.95-1.05,15.96.26,3.3,2.17,7.39,2,9.91-.22,3.25-11.24,36.85-13.2,41.81-3.1,7.87-7.86,14.98-10.78,23.22-9.47,26.73-6.54,59-7.94,87.06-3.16,63.26-33.32,123.04,1.15,182.76,1.92,3.33,11.13,14.82,11.6,16.39,1.25,4.17-.86,7.99-.83,11.75.31,37.29,38.36,41.9,67.33,43.75,24.58,30.26,84.07,31.68,111.2,4.79,3.2-3.17,8.78-13.58,11.12-14.88,2.46-1.37,14.09-2.66,16.9-2.11,2.38.46,9.71,13.74,12.99,17,27.12,26.89,86.62,25.48,111.2-4.79,28.97-1.85,67.02-6.46,67.33-43.75.03-3.77-2.08-7.58-.83-11.75.47-1.57,9.68-13.07,11.6-16.39,34.55-59.85,4.33-119.4,1.15-182.76-1.59-31.66,3.16-77.12-14.73-104.27-2.34-3.55-8.05-8.7-9.3-11.7-2.17-5.22-2.08-13.74-3.39-19.61-.73-3.3-5.16-14.41-5.16-15.47,0-1.67,4.23-9.47,4.61-14,.45-5.41-2.21-11.77-1.79-14.78s4.74-8.82,4.95-12.58c16.93,1.86,32.25-7.55,27.38-26.16-.44-1.66-2.66-3.78-2.36-5.34.26-1.37,6.91-6.72,7.78-12.2,1.32-8.27-3.46-16.03-2.94-20.93.23-2.22,5.51-7.08,6.02-13.02.68-7.93-3.65-10.33-4.02-14.05-.27-2.7,2.5-5.16,2.95-8.01,1.21-7.57-.28-13.57-3.77-20.11-1.28-2.41-6.72-8.88-7.03-10.05-.52-1.98,3.33-7.55,3.77-10.87.96-7.29-1.35-12.91-4.74-19.09-1.13-2.06-6.83-9.27-6.97-9.97-.18-.9,1.8-5.99,1.87-8.84.33-14.44-11.77-16.64-13.67-23.49-.8-2.86,1.27-6.29,1.23-9.36-.19-14.26-13.8-17.82-23.48-24.33,4.21-27.54-2.63-52.59-7.85-79.12-4.06-20.63-5.78-54.78-30.06-62.94-26.94-9.05-47.85,11.15-62.64,30.81-1.18,1.57-11.74,18.77-12.58,17.91-10.37-62.58-99.65-62.57-110.02,0ZM256.36,63.58c0,13.52-10.96,24.49-24.49,24.49s-24.49-10.96-24.49-24.49,10.96-24.49,24.49-24.49,24.49,10.96,24.49,24.49ZM250.92,63.62c0-10.52-8.53-19.06-19.06-19.06s-19.06,8.53-19.06,19.06,8.53,19.06,19.06,19.06,19.06-8.53,19.06-19.06Z"/>
</svg>