<?xml version="1.0" standalone="no"?>
<!DOCTYPE svg PUBLIC "-//W3C//DTD SVG 20010904//EN"
 "http://www.w3.org/TR/2001/REC-SVG-20010904/DTD/svg10.dtd">
<svg version="1.0" xmlns="http://www.w3.org/2000/svg"
 width="580.000000pt" height="867.000000pt" viewBox="0 0 580.000000 867.000000"
 preserveAspectRatio="xMidYMid meet">

<g transform="translate(0.000000,867.000000) scale(0.100000,-0.100000)"
fill="#000000" stroke="none">
<path d="M1609 8616 c-185 -50 -302 -239 -349 -566 -6 -41 -29 -163 -50 -270
-53 -266 -63 -352 -55 -496 l7 -122 -62 -33 c-117 -62 -179 -161 -167 -266 5
-45 3 -50 -40 -97 -24 -27 -51 -62 -58 -77 -25 -47 -36 -116 -26 -161 9 -37 7
-45 -20 -85 -57 -82 -79 -142 -79 -216 0 -37 6 -82 14 -100 13 -31 11 -36 -35
-117 -31 -55 -54 -112 -65 -160 -16 -69 -16 -80 -2 -135 11 -41 14 -74 8 -103
-9 -52 3 -124 30 -167 19 -30 19 -35 4 -105 -20 -99 -6 -175 43 -232 13 -14
13 -25 3 -68 -38 -158 62 -294 225 -307 l60 -5 23 -53 c20 -44 22 -62 16 -113
-4 -36 -2 -87 5 -124 12 -60 11 -68 -14 -133 -14 -39 -39 -122 -56 -185 -17
-67 -51 -158 -80 -220 -122 -252 -130 -305 -159 -1035 -11 -282 -22 -376 -74
-620 -58 -271 -70 -364 -70 -555 0 -96 5 -207 12 -246 30 -179 104 -365 209
-522 56 -85 56 -85 54 -156 -6 -189 86 -343 252 -422 77 -36 150 -53 337 -75
105 -13 105 -13 158 -61 73 -65 159 -114 267 -150 80 -28 106 -31 240 -35 125
-4 167 -2 250 16 182 37 354 144 436 272 33 50 39 53 114 63 39 5 40 5 75 -51
76 -120 228 -227 396 -275 70 -20 100 -23 264 -23 181 1 187 1 275 32 109 38
195 86 267 151 53 48 53 48 158 61 187 22 260 39 337 75 166 79 259 235 252
421 l-3 70 57 86 c105 158 179 343 209 523 7 39 12 152 12 251 -1 193 -15 300
-73 568 -57 258 -65 342 -81 837 -12 361 -23 473 -55 597 -30 112 -71 196
-140 285 -50 64 -53 70 -64 160 -7 51 -22 122 -34 158 -23 64 -23 66 -5 110
14 35 17 68 16 145 -2 66 2 112 11 136 14 36 16 37 76 41 163 14 263 150 225
308 -10 43 -10 54 3 68 49 56 63 133 43 230 -15 72 -15 73 11 121 30 59 34
146 9 205 -14 35 -14 42 0 88 29 86 -1 212 -71 304 -23 31 -24 34 -10 68 8 20
15 66 15 103 0 74 -22 134 -79 216 -27 40 -29 48 -20 85 10 45 -1 114 -26 161
-7 15 -34 50 -58 77 -43 47 -45 52 -40 97 12 105 -50 204 -167 266 l-62 33 7
122 c8 144 -2 230 -55 496 -21 107 -44 229 -50 270 -42 289 -136 467 -285 541
-51 25 -81 32 -148 36 -163 11 -273 -35 -417 -174 -53 -51 -123 -128 -155
-173 l-59 -80 -29 57 c-60 119 -163 221 -282 277 -93 45 -162 60 -265 60 -103
0 -172 -15 -265 -60 -119 -56 -222 -158 -282 -278 l-30 -59 -43 64 c-63 94
-252 278 -321 312 -111 55 -244 72 -350 43z m203 -47 c157 -34 317 -173 473
-413 l58 -89 26 79 c35 105 72 167 145 239 102 100 239 155 386 155 147 0 284
-55 386 -155 73 -72 110 -134 145 -239 l26 -79 58 89 c205 315 413 454 621
415 87 -16 129 -38 186 -99 87 -93 144 -250 173 -482 4 -30 26 -140 48 -245
40 -186 41 -195 42 -404 l2 -214 59 -30 c140 -71 184 -142 161 -259 -7 -35 -5
-40 48 -99 31 -33 63 -76 71 -95 16 -39 18 -102 4 -139 -8 -22 -5 -33 24 -73
84 -119 105 -210 66 -299 l-22 -51 36 -49 c20 -27 45 -70 56 -94 25 -55 27
-154 4 -203 -16 -32 -16 -36 5 -78 33 -69 23 -157 -26 -210 -14 -16 -14 -23 1
-82 29 -118 18 -184 -41 -247 -24 -26 -24 -28 -8 -59 21 -41 22 -127 2 -167
-38 -72 -114 -113 -213 -113 l-50 0 -27 -68 c-23 -60 -25 -73 -16 -108 15 -51
6 -140 -18 -195 -19 -43 -19 -46 -2 -86 17 -39 33 -113 58 -256 9 -47 19 -68
56 -110 102 -117 156 -275 174 -513 6 -76 16 -281 21 -454 13 -389 19 -444 80
-750 63 -317 72 -385 72 -560 1 -224 -40 -406 -128 -582 -38 -76 -103 -177
-137 -215 -17 -19 -19 -31 -14 -81 14 -130 -30 -258 -115 -338 -89 -83 -184
-114 -448 -145 -102 -11 -106 -13 -140 -48 -71 -75 -198 -145 -320 -178 -98
-26 -348 -23 -451 5 -176 48 -299 135 -385 274 -34 56 -37 58 -77 57 -23 0
-64 -4 -91 -8 -52 -9 -52 -9 -116 -101 -68 -98 -210 -186 -365 -226 -97 -25
-343 -25 -435 -1 -122 33 -249 103 -320 178 -34 35 -38 37 -140 48 -264 31
-359 62 -448 145 -85 80 -129 208 -115 338 5 50 3 62 -14 81 -34 38 -99 139
-137 215 -88 176 -129 358 -128 582 0 175 9 243 72 560 61 305 67 361 80 745
19 573 29 637 141 875 33 71 72 175 89 240 17 63 44 152 61 197 27 75 29 85
18 128 -7 29 -10 81 -6 136 3 49 2 91 -3 94 -5 3 -19 33 -31 65 l-22 60 -51 0
c-99 0 -175 41 -213 113 -20 40 -19 126 2 167 16 31 16 33 -8 59 -59 63 -70
129 -41 247 15 59 15 66 1 82 -42 46 -58 129 -36 190 8 24 7 37 -5 61 -36 68
-13 179 62 303 l52 86 -21 48 c-38 85 -17 179 67 296 29 40 32 51 24 73 -14
37 -12 100 4 139 8 19 40 62 71 95 53 59 55 64 48 99 -23 117 21 188 161 259
l59 30 2 214 c1 209 2 218 42 404 22 105 44 215 48 245 44 346 150 533 329
576 66 16 112 17 178 3z"/>
<path d="M2805 8221 c-95 -43 -147 -122 -147 -222 0 -109 69 -203 173 -233 65
-20 73 -20 138 0 104 30 173 124 173 233 0 136 -105 241 -242 241 -32 0 -72
-8 -95 -19z m148 -42 c160 -44 183 -276 35 -348 -121 -58 -261 15 -276 144 -9
87 43 171 124 200 48 17 68 18 117 4z"/>
<path d="M3848 6403 c-32 -65 -70 -152 -87 -193 -38 -99 -92 -272 -86 -278 2
-3 7 1 9 9 3 8 25 75 49 149 44 133 120 315 159 378 11 17 18 37 16 43 -2 6
-29 -43 -60 -108z"/>
<path d="M3925 6281 c-67 -120 -147 -291 -137 -291 4 0 25 38 46 84 21 47 65
133 97 192 33 59 58 109 55 111 -2 2 -30 -41 -61 -96z"/>
<path d="M1854 6315 c9 -41 166 -359 173 -352 3 3 -15 43 -40 89 -25 46 -64
128 -87 183 -46 108 -57 127 -46 80z"/>
<path d="M3626 6313 c-8 -8 -8 -117 0 -137 3 -9 12 -16 19 -16 13 0 28 111 18
136 -5 15 -28 25 -37 17z"/>
<path d="M2806 6275 c6 -35 6 -35 -29 -35 -20 0 -47 -5 -61 -11 -30 -14 -49
-61 -37 -92 16 -40 39 -51 117 -53 l74 -3 0 83 c0 105 -13 146 -46 146 -23 0
-24 -3 -18 -35z m-16 -90 l23 -25 -23 -25 c-30 -32 -47 -32 -62 0 -9 19 -8 29
6 50 21 31 27 31 56 0z"/>
<path d="M1711 6294 c-1 -10 108 -186 153 -249 13 -16 46 -63 75 -103 30 -40
56 -71 58 -68 2 2 -21 38 -51 80 -46 61 -124 178 -223 332 -6 11 -12 14 -12 8z"/>
<path d="M2358 6245 c-23 -52 44 -131 103 -123 16 3 29 1 29 -3 0 -16 -32 -31
-60 -27 -16 3 -30 1 -30 -3 0 -16 41 -30 77 -27 54 5 76 40 77 125 1 62 -1 68
-20 71 -17 2 -27 -7 -44 -43 -12 -26 -29 -49 -36 -52 -24 -9 -43 16 -46 60 -4
51 -31 63 -50 22z"/>
<path d="M2977 6259 c-46 -7 -65 -24 -73 -66 -6 -28 -2 -37 29 -68 35 -35 60
-42 127 -36 35 3 70 28 70 50 0 29 -26 32 -51 5 -26 -28 -75 -32 -105 -8 -18
15 -17 15 14 10 44 -8 102 17 102 42 0 24 -34 68 -57 74 -10 2 -35 1 -56 -3z
m56 -49 c6 -25 -12 -35 -48 -26 -33 8 -32 32 3 44 32 11 38 9 45 -18z"/>
<path d="M3173 6264 c-7 -3 -13 -12 -13 -20 0 -10 13 -14 44 -14 46 0 76 -7
76 -19 0 -3 -18 -6 -39 -6 -43 -1 -81 -27 -81 -55 0 -35 36 -53 115 -56 l75
-4 0 28 c0 46 -19 97 -45 122 -24 23 -103 37 -132 24z m102 -97 c24 -18 11
-37 -25 -37 -36 0 -49 19 -25 37 11 7 22 13 25 13 3 0 14 -6 25 -13z"/>
<path d="M3385 6259 c-10 -16 15 -138 32 -155 21 -20 53 -18 53 5 0 58 46 109
73 82 13 -13 47 -15 47 -2 0 31 -81 52 -120 31 -15 -8 -20 -4 -30 20 -12 30
-42 40 -55 19z"/>
<path d="M2037 6253 c-13 -13 -7 -109 9 -131 27 -39 49 -28 74 39 23 63 40 66
40 7 0 -29 25 -61 43 -55 6 2 15 18 18 36 4 18 14 40 22 49 14 14 16 13 21 -9
3 -13 7 -36 11 -51 6 -30 41 -40 51 -14 7 20 -13 92 -32 111 -20 19 -53 19
-75 -1 -16 -14 -18 -14 -29 5 -14 28 -57 27 -87 -1 l-23 -21 0 21 c0 21 -28
31 -43 15z"/>
<path d="M3627 6124 c-9 -10 12 -34 30 -34 19 0 12 34 -8 38 -8 1 -18 0 -22
-4z"/>
<path d="M1945 5668 c-21 -61 -135 -417 -135 -422 0 -3 27 -6 60 -6 l60 0 6
40 7 40 67 0 68 0 9 -37 9 -38 63 -3 c51 -2 62 0 58 11 -3 7 -35 107 -73 220
l-67 207 -64 0 c-42 0 -65 -4 -68 -12z m105 -240 c0 -14 -8 -18 -40 -18 -22 0
-40 3 -40 8 0 7 4 23 31 122 l12 45 18 -70 c10 -38 19 -78 19 -87z"/>
<path d="M2290 5460 l0 -220 60 0 59 0 3 103 3 102 59 -102 58 -103 69 0 69 0
-70 110 c-39 60 -70 114 -70 120 0 6 26 50 58 98 32 48 62 93 66 100 5 9 -9
12 -61 12 l-68 -1 -55 -92 -55 -92 -3 93 -3 92 -59 0 -60 0 0 -220z"/>
<path d="M2740 5460 l0 -220 65 0 65 0 0 220 0 220 -65 0 -65 0 0 -220z"/>
<path d="M2960 5635 l0 -45 60 0 60 0 0 -175 0 -175 60 0 60 0 2 173 3 172 63
3 62 3 0 44 0 45 -185 0 -185 0 0 -45z"/>
<path d="M3451 5467 c-39 -116 -71 -215 -71 -220 0 -4 27 -7 59 -7 l59 0 9 38
9 37 66 3 67 3 11 -41 11 -40 59 0 c33 0 60 3 60 7 0 5 -32 104 -71 220 l-71
213 -63 0 -63 0 -71 -213z m154 43 c9 -36 18 -73 21 -82 5 -15 -2 -18 -41 -18
-39 0 -46 3 -41 18 3 9 10 40 16 67 13 62 21 87 25 83 2 -2 11 -32 20 -68z"/>
<path d="M2842 3817 c-14 -17 1 -181 18 -202 23 -28 40 -18 40 25 0 55 31 56
57 3 11 -25 26 -39 41 -41 27 -4 29 14 5 63 -16 33 -16 36 0 48 11 8 14 17 7
27 -8 12 -15 12 -59 -2 -27 -9 -52 -13 -55 -10 -3 3 -6 22 -6 42 0 50 -25 75
-48 47z"/>
<path d="M2170 3722 c0 -76 4 -102 15 -112 25 -21 45 -4 45 39 0 101 41 94 66
-11 15 -65 60 -55 49 11 -10 59 -48 101 -91 101 -29 0 -34 4 -42 32 -4 18 -16
34 -25 36 -15 3 -17 -8 -17 -96z"/>
<path d="M1877 3803 c-35 -9 -10 -28 40 -31 l51 -3 6 -60 c9 -74 24 -111 45
-107 13 3 15 17 12 86 l-3 82 50 0 c58 0 76 15 37 30 -26 10 -203 12 -238 3z"/>
<path d="M2387 3770 c-27 -17 -11 -30 38 -30 45 0 75 -7 75 -19 0 -3 -18 -6
-40 -6 -84 0 -110 -84 -32 -104 53 -14 133 -11 139 5 9 25 -18 112 -42 134
-28 26 -109 37 -138 20z m120 -114 c-6 -18 -71 -13 -75 6 -2 9 4 18 15 20 24
5 64 -13 60 -26z"/>
<path d="M2602 3711 c8 -114 49 -138 83 -49 20 52 41 71 50 46 2 -7 9 -32 15
-55 8 -31 16 -43 29 -43 28 0 32 25 13 83 -13 40 -23 54 -44 61 -26 9 -31 8
-90 -22 -3 -2 -8 7 -10 20 -2 15 -11 24 -27 26 -24 4 -24 3 -19 -67z"/>
<path d="M3146 3765 c-22 -57 33 -135 94 -135 48 0 32 -24 -21 -30 -41 -5 -42
-6 -22 -18 33 -19 90 -15 113 8 25 25 32 53 28 121 -3 45 -6 54 -23 57 -15 2
-25 -8 -40 -40 -37 -78 -74 -76 -84 4 -6 45 -33 64 -45 33z"/>
<path d="M3410 3757 c-30 -15 -45 -54 -36 -91 15 -62 129 -88 182 -42 27 22
27 25 15 65 -17 60 -42 81 -93 81 -24 0 -54 -6 -68 -13z m94 -39 c31 -43 11
-88 -38 -88 -40 0 -59 59 -29 92 22 24 49 23 67 -4z"/>
<path d="M3610 3729 c0 -46 13 -76 44 -101 27 -23 82 -23 94 -2 9 16 11 16 33
0 23 -16 59 -22 59 -10 0 3 -9 17 -20 31 -11 14 -23 43 -26 65 -7 43 -16 52
-43 43 -13 -4 -23 -22 -31 -55 -7 -28 -16 -50 -21 -50 -14 0 -39 57 -39 90 0
25 -4 30 -25 30 -23 0 -25 -4 -25 -41z"/>
<path d="M2070 3290 c-18 -4 -26 -15 -31 -39 -4 -19 -5 -41 -2 -49 7 -17 -14
-32 -44 -32 -35 0 -17 -28 20 -32 28 -3 33 -7 37 -38 4 -27 10 -35 25 -35 17
0 20 6 18 36 -2 36 -2 37 43 44 56 8 54 29 -4 33 -44 3 -59 23 -47 62 9 29 25
25 38 -10 13 -34 35 -47 43 -25 8 20 -26 76 -51 85 -11 4 -31 4 -45 0z"/>
<path d="M2787 3284 c-12 -13 -7 -168 6 -194 12 -22 18 -25 62 -22 59 4 99 29
103 65 4 34 -35 72 -86 84 -32 8 -37 13 -37 38 0 23 -5 31 -20 33 -12 2 -24 0
-28 -4z m94 -113 c21 -16 22 -22 11 -45 -7 -15 -20 -26 -32 -26 -17 0 -20 7
-20 45 0 50 7 54 41 26z"/>
<path d="M3230 3272 c0 -25 34 -67 47 -59 6 4 8 20 4 39 -5 24 -13 34 -29 36
-16 3 -22 -2 -22 -16z"/>
<path d="M2455 3239 c-9 -14 3 -95 20 -136 11 -25 20 -33 39 -33 19 0 26 5 26
19 0 58 46 109 73 82 14 -14 47 -14 47 -1 0 5 -11 17 -25 26 -25 16 -65 16
-107 -1 -13 -5 -18 -2 -18 12 0 34 -40 57 -55 32z"/>
<path d="M3322 3181 c8 -114 49 -138 83 -49 11 28 25 53 32 55 6 3 18 -19 27
-51 19 -63 28 -73 50 -50 19 18 19 15 -2 79 -13 38 -24 52 -44 59 -26 9 -31 8
-90 -22 -3 -2 -8 7 -10 20 -2 15 -11 24 -27 26 -24 4 -24 3 -19 -67z"/>
<path d="M3592 3240 c-26 -11 -45 -54 -37 -81 9 -28 54 -59 87 -59 19 0 28 -4
25 -12 -3 -9 -22 -13 -56 -12 -60 2 -64 -13 -7 -32 40 -14 80 -10 108 10 25
19 14 150 -15 177 -22 20 -67 24 -105 9z m76 -51 c3 -28 -22 -63 -41 -56 -41
13 -27 91 16 85 15 -2 23 -11 25 -29z"/>
<path d="M2248 3224 c-52 -28 -49 -101 5 -134 45 -28 109 -26 143 4 26 22 27
25 16 63 -18 59 -45 83 -95 83 -23 -1 -54 -7 -69 -16z m96 -36 c30 -43 15 -88
-30 -88 -51 0 -73 66 -32 94 30 22 44 20 62 -6z"/>
<path d="M3014 3230 c-25 -10 -48 -61 -39 -89 9 -30 61 -69 101 -77 40 -7 101
12 118 38 8 14 7 21 -6 34 -15 15 -17 15 -27 -4 -16 -30 -61 -42 -99 -26 -43
18 -40 25 6 19 74 -11 113 36 72 88 -17 22 -29 27 -63 26 -23 0 -51 -4 -63 -9z
m89 -39 c3 -11 2 -22 -1 -25 -8 -9 -45 -7 -61 3 -12 8 -12 12 -2 25 19 23 58
20 64 -3z"/>
<path d="M3246 3193 c-8 -8 -8 -87 0 -107 3 -9 15 -16 25 -16 15 0 19 7 19 38
0 20 -3 47 -6 59 -6 22 -27 36 -38 26z"/>
<path d="M2885 2722 c6 -38 5 -39 -19 -35 -69 14 -131 -46 -110 -105 12 -35
74 -65 106 -53 13 5 38 6 56 4 l32 -5 -1 78 c0 99 -16 148 -48 152 -22 3 -23
1 -16 -36z m-15 -89 l21 -27 -26 -25 c-20 -21 -29 -24 -43 -15 -24 15 -27 52
-6 75 23 25 29 24 54 -8z"/>
<path d="M3545 2738 c-2 -13 -6 -39 -7 -58 -3 -30 -7 -35 -30 -38 -16 -2 -28
-7 -28 -12 0 -12 36 -31 51 -28 7 2 16 -12 19 -30 9 -40 15 -46 35 -39 9 4 15
19 15 42 0 32 3 35 28 35 15 0 33 4 41 9 23 15 2 31 -40 31 l-39 0 0 41 c0 47
15 49 40 4 9 -16 21 -30 28 -33 20 -6 14 43 -9 72 -16 20 -29 26 -60 26 -32 0
-39 -4 -44 -22z"/>
<path d="M3987 2754 c-4 -4 -7 -52 -7 -106 0 -80 3 -100 16 -105 28 -11 33 11
26 111 -6 91 -16 118 -35 100z"/>
<path d="M1687 2713 c-10 -2 -17 -12 -15 -21 3 -13 12 -16 37 -14 42 4 81 -5
81 -19 0 -7 -9 -9 -21 -6 -28 8 -77 -11 -90 -34 -22 -43 29 -81 105 -78 23 1
48 0 56 -2 37 -10 19 110 -23 149 -23 22 -94 36 -130 25z m104 -104 c11 -5 17
-14 14 -20 -8 -12 -72 -12 -80 1 -17 27 28 40 66 19z"/>
<path d="M2523 2704 c-9 -24 4 -126 19 -140 26 -26 39 -19 61 35 12 30 27 56
34 58 6 3 18 -19 27 -51 18 -62 33 -77 51 -52 27 36 -25 146 -68 146 -7 0 -25
-7 -41 -15 -36 -19 -33 -20 -40 10 -7 28 -33 34 -43 9z"/>
<path d="M3243 2703 c-11 -27 16 -136 38 -155 25 -21 49 -13 49 18 0 31 19 72
38 79 8 3 25 -1 37 -9 34 -22 52 -4 23 24 -23 21 -64 24 -108 6 -11 -5 -19 3
-27 24 -12 33 -40 40 -50 13z"/>
<path d="M1986 2694 c-30 -77 38 -173 102 -145 16 8 29 8 43 0 16 -8 26 -7 45
6 18 12 29 13 43 5 26 -13 34 1 21 36 -6 15 -10 37 -9 48 3 42 -1 47 -28 44
-22 -2 -29 -10 -34 -34 -3 -18 -9 -40 -14 -50 -7 -18 -8 -18 -15 1 -5 11 -9
34 -9 51 -2 65 -58 46 -63 -21 -4 -58 -22 -44 -26 20 -3 50 -5 55 -26 55 -13
0 -27 -7 -30 -16z"/>
<path d="M2325 2698 c-74 -40 -52 -135 36 -158 33 -9 46 -8 76 7 50 25 60 43
43 82 -25 62 -48 81 -93 81 -23 0 -51 -6 -62 -12z m92 -54 c13 -26 14 -39 7
-52 -13 -21 -60 -28 -80 -11 -22 18 -17 65 8 83 33 24 47 20 65 -20z"/>
<path d="M3020 2697 c-16 -8 -28 -26 -34 -50 -9 -36 -8 -40 26 -74 29 -29 45
-37 85 -40 53 -5 113 23 113 52 0 22 -31 31 -44 13 -27 -37 -89 -45 -115 -15
-7 9 4 12 39 12 66 0 88 21 70 65 -7 17 -21 35 -31 40 -25 14 -79 12 -109 -3z
m88 -44 c3 -20 -1 -23 -27 -23 -35 0 -48 15 -30 36 18 22 53 14 57 -13z"/>
<path d="M3715 2691 c-9 -29 11 -94 37 -118 38 -34 66 -38 94 -12 22 21 25 21
42 6 19 -18 62 -23 62 -9 0 5 -9 17 -20 27 -11 10 -23 36 -26 56 -12 74 -57
75 -75 3 -19 -76 -46 -70 -57 12 -6 40 -11 50 -29 52 -14 2 -23 -3 -28 -17z"/>
<path d="M2253 2265 c-3 -10 -6 -33 -7 -53 -1 -41 -10 -52 -43 -52 -13 0 -23
-4 -23 -10 0 -14 39 -32 56 -26 9 3 16 -4 20 -22 10 -48 14 -54 31 -50 14 3
17 12 15 40 -2 34 -2 35 39 41 22 3 43 8 46 10 13 13 -12 27 -48 27 -44 0 -55
14 -45 55 9 34 25 32 39 -5 6 -16 17 -32 24 -35 23 -8 26 23 6 57 -16 28 -26
33 -61 36 -32 2 -44 -1 -49 -13z"/>
<path d="M2660 2263 c0 -22 27 -63 41 -63 6 0 9 17 7 38 -2 30 -7 38 -25 40
-17 3 -23 -2 -23 -15z"/>
<path d="M3370 2243 l0 -38 -44 0 c-61 -1 -88 -26 -84 -78 3 -43 37 -78 74
-78 10 1 42 1 70 2 l51 0 -5 82 c-5 113 -13 141 -40 145 -19 3 -22 -1 -22 -35z
m0 -120 c0 -18 -47 -46 -65 -39 -22 8 -20 72 3 85 13 7 23 4 40 -11 12 -12 22
-27 22 -35z"/>
<path d="M2425 2229 c-12 -18 17 -141 37 -161 27 -27 41 -19 53 30 5 23 18 49
28 59 16 16 19 16 46 0 38 -22 55 -2 21 25 -23 19 -60 22 -95 9 -16 -6 -24 -2
-37 20 -18 30 -42 37 -53 18z"/>
<path d="M3005 2229 c-9 -13 4 -118 17 -142 16 -31 49 -17 65 27 15 44 32 68
43 61 4 -3 13 -24 19 -48 13 -54 33 -74 51 -52 17 21 -5 110 -33 130 -27 19
-45 19 -80 0 -26 -13 -28 -13 -37 10 -10 26 -34 33 -45 14z"/>
<path d="M2775 2208 c-71 -62 5 -167 112 -155 47 5 83 30 83 57 0 26 -25 31
-39 9 -17 -29 -55 -40 -91 -28 -36 13 -41 32 -6 23 38 -9 96 14 96 37 0 23
-18 61 -34 71 -25 17 -95 8 -121 -14z m99 -24 c3 -9 4 -20 0 -25 -7 -12 -45
-11 -64 1 -13 9 -12 12 4 25 26 20 52 19 60 -1z"/>
<path d="M2666 2163 c-7 -25 10 -94 26 -104 23 -14 31 8 24 65 -6 45 -11 56
-26 56 -10 0 -21 -8 -24 -17z"/>
<path d="M3473 2099 c-16 -16 -5 -39 17 -39 25 0 35 18 20 35 -15 18 -22 19
-37 4z"/>
<path d="M2420 1490 l0 -140 25 0 c24 0 25 2 25 64 0 65 14 96 44 96 26 0 36
-26 36 -92 0 -67 0 -68 26 -68 l27 0 -6 81 c-4 45 -12 88 -18 95 -13 16 -62
18 -90 4 -18 -10 -19 -7 -19 45 0 52 -1 55 -25 55 l-25 0 0 -140z"/>
<path d="M2160 1600 c0 -17 7 -20 40 -20 l40 0 0 -115 0 -115 25 0 25 0 0 115
0 115 40 0 c33 0 40 3 40 20 0 19 -7 20 -105 20 -98 0 -105 -1 -105 -20z"/>
<path d="M3280 1486 l0 -136 70 0 c62 0 74 3 95 25 14 13 25 35 25 49 0 24
-34 66 -53 66 -5 0 2 9 17 21 31 25 34 59 5 85 -15 13 -40 20 -90 22 l-69 4 0
-136z m128 65 c4 -28 -12 -41 -50 -41 -25 0 -28 3 -28 36 0 35 1 35 38 32 30
-2 38 -7 40 -27z m0 -93 c21 -21 14 -58 -14 -68 -53 -20 -64 -14 -64 35 0 44
1 45 33 45 18 0 38 -5 45 -12z"/>
<path d="M2650 1445 c0 -95 0 -95 25 -95 24 0 25 3 25 53 0 62 18 93 60 102
17 4 30 13 30 21 0 18 -41 18 -66 -1 -25 -19 -34 -19 -34 0 0 8 -9 15 -20 15
-19 0 -20 -7 -20 -95z"/>
<path d="M2855 1515 c-20 -19 -25 -34 -25 -73 0 -52 21 -83 67 -96 33 -10 93
4 93 21 0 12 -8 14 -36 9 -39 -8 -84 13 -84 39 0 12 15 15 71 15 l72 0 -6 38
c-8 47 -38 72 -89 72 -28 0 -46 -7 -63 -25z m105 -24 c15 -30 14 -31 -40 -31
-54 0 -55 1 -40 31 7 12 21 19 40 19 19 0 33 -7 40 -19z"/>
<path d="M3070 1515 c-17 -18 -23 -36 -23 -70 0 -49 20 -80 63 -97 34 -13 100
0 100 19 0 12 -7 14 -36 9 -39 -8 -84 13 -84 39 0 12 15 15 71 15 l72 0 -6 38
c-8 48 -38 72 -91 72 -32 0 -48 -6 -66 -25z m110 -24 c15 -30 14 -31 -40 -31
-34 0 -50 4 -50 13 0 38 71 52 90 18z"/>
</g>
</svg>
