<?xml version="1.0" standalone="no"?>
<!DOCTYPE svg PUBLIC "-//W3C//DTD SVG 20010904//EN"
 "http://www.w3.org/TR/2001/REC-SVG-20010904/DTD/svg10.dtd">
<svg version="1.0" xmlns="http://www.w3.org/2000/svg"
 width="580.000000pt" height="867.000000pt" viewBox="0 0 580.000000 867.000000"
 preserveAspectRatio="xMidYMid meet">

<g transform="translate(0.000000,867.000000) scale(0.100000,-0.100000)"
fill="#000000" stroke="none">
<path d="M2773 8436 c-179 -44 -335 -188 -394 -364 -23 -66 -32 -203 -19 -275
5 -29 4 -29 -85 -52 -224 -57 -431 -159 -592 -294 -47 -38 -69 -49 -108 -55
-143 -19 -230 -56 -360 -153 -188 -140 -331 -351 -436 -643 -22 -63 -76 -237
-119 -386 -98 -338 -207 -658 -269 -789 -33 -70 -75 -134 -138 -213 -178 -222
-212 -310 -220 -558 -7 -188 5 -275 48 -353 16 -30 29 -65 29 -77 0 -12 -14
-80 -31 -150 -41 -168 -39 -266 8 -364 17 -36 47 -83 66 -106 49 -55 189 -174
276 -232 62 -42 74 -55 106 -119 102 -204 345 -343 601 -343 41 0 74 -3 74 -8
0 -4 -31 -71 -70 -150 -97 -200 -111 -249 -117 -412 l-6 -135 -77 -81 c-134
-140 -189 -285 -190 -495 0 -169 50 -319 160 -480 l39 -57 -15 -48 c-23 -73
-14 -178 21 -251 40 -82 151 -191 237 -232 98 -46 206 -71 309 -71 l89 0 24
-38 c36 -57 111 -119 191 -157 109 -51 160 -60 340 -59 183 2 265 18 393 80
72 35 165 113 204 172 14 21 25 24 119 28 57 3 110 7 117 9 6 2 23 -12 36 -33
39 -62 137 -146 206 -179 163 -76 383 -102 575 -68 147 26 304 125 354 223
l18 35 79 -2 c173 -5 318 52 428 169 83 89 118 159 123 253 3 47 -1 89 -11
121 l-15 49 38 56 c111 163 161 312 161 478 0 207 -59 360 -191 498 l-79 82 0
103 c0 153 -25 242 -125 450 -46 96 -82 176 -80 178 2 2 27 -4 56 -12 97 -29
249 -16 381 34 136 50 272 171 333 293 32 64 44 77 106 119 87 58 227 177 276
232 19 23 49 70 66 106 47 98 49 196 8 364 -17 70 -31 138 -31 150 0 12 13 47
29 77 43 78 55 165 48 353 -8 247 -42 335 -219 557 -92 116 -146 210 -193 339
-73 202 -153 448 -215 665 -115 402 -183 575 -290 740 -102 155 -231 280 -376
361 -78 43 -127 59 -230 74 -72 10 -83 14 -153 69 -212 163 -397 253 -632 305
-26 6 -27 7 -17 48 25 106 -12 279 -81 387 -72 112 -219 213 -349 240 -68 14
-173 13 -239 -3z m287 -59 c168 -60 291 -196 330 -366 12 -52 9 -190 -6 -252
-6 -25 -3 -27 58 -38 216 -43 442 -154 645 -318 58 -47 67 -51 133 -57 39 -4
94 -14 123 -23 129 -38 314 -182 427 -334 121 -163 204 -361 320 -770 95 -330
225 -709 286 -834 29 -58 80 -134 144 -214 174 -216 203 -305 198 -597 l-3
-181 -39 -75 c-44 -85 -44 -88 1 -258 51 -191 29 -320 -74 -431 -68 -73 -187
-173 -272 -228 -56 -36 -68 -50 -97 -110 -55 -113 -178 -229 -295 -279 -128
-54 -301 -71 -389 -37 -42 16 -150 36 -150 27 0 -2 8 -16 19 -30 38 -56 191
-390 212 -467 18 -62 23 -108 23 -201 l1 -122 86 -89 c95 -98 138 -173 164
-284 52 -227 9 -428 -140 -643 l-48 -70 17 -45 c9 -26 16 -76 16 -112 0 -85
-40 -168 -119 -248 -103 -104 -206 -141 -387 -141 l-112 0 -13 -37 c-17 -51
-101 -133 -177 -170 -103 -52 -190 -66 -360 -60 -163 5 -228 19 -341 72 -80
38 -177 127 -200 183 -13 32 -19 35 -56 33 -11 -1 -74 -5 -139 -10 -102 -7
-121 -11 -130 -27 -6 -10 -37 -46 -69 -80 -62 -66 -156 -118 -272 -150 -91
-25 -340 -31 -429 -10 -136 32 -271 122 -305 203 l-12 30 -117 6 c-137 8 -212
26 -304 74 -85 44 -137 89 -181 155 -62 95 -75 187 -42 287 l16 49 -46 68
c-166 242 -204 466 -120 708 30 85 73 149 165 246 l71 74 -6 76 c-13 151 20
267 153 538 58 118 84 181 73 177 -48 -20 -160 -36 -206 -30 -139 18 -238 54
-331 120 -83 60 -148 134 -188 216 -29 60 -41 74 -97 110 -85 55 -204 155
-272 228 -103 111 -125 240 -74 431 45 170 45 173 1 258 l-39 75 -3 175 c-6
307 22 387 218 629 47 56 96 132 123 187 63 127 192 504 288 839 86 301 141
455 216 600 154 297 439 524 665 526 43 1 53 6 109 56 82 73 178 136 281 185
92 43 302 114 389 130 l56 11 -14 52 c-41 158 8 343 122 461 103 108 215 156
365 156 74 0 110 -6 160 -23z"/>
<path d="M2801 8134 c-202 -101 -128 -406 99 -406 175 0 275 185 181 334 -36
56 -113 98 -181 98 -30 0 -65 -9 -99 -26z m197 -53 c68 -48 89 -139 52 -215
-29 -60 -80 -91 -150 -91 -70 0 -121 31 -150 91 -45 91 -4 199 90 237 33 14
126 1 158 -22z"/>
<path d="M3826 6478 c-50 -86 -154 -352 -180 -463 -15 -60 3 -17 48 118 25 76
72 194 105 263 61 127 71 156 27 82z"/>
<path d="M3857 6288 c-57 -106 -120 -239 -114 -244 1 -2 42 74 90 169 47 94
85 172 83 174 -1 2 -28 -43 -59 -99z"/>
<path d="M2006 6340 c14 -58 153 -346 154 -319 0 4 -31 71 -68 150 -38 79 -74
155 -80 169 l-12 25 6 -25z"/>
<path d="M3596 6333 c-10 -10 -7 -103 5 -124 17 -33 29 -11 29 56 0 45 -4 64
-14 68 -8 3 -17 3 -20 0z"/>
<path d="M2860 6300 c0 -25 -4 -30 -24 -30 -65 0 -102 -38 -91 -92 9 -39 63
-64 106 -49 18 6 31 6 34 0 4 -5 13 -9 21 -9 11 0 14 16 14 74 0 88 -14 136
-41 136 -14 0 -19 -7 -19 -30z m-18 -77 c10 -9 18 -22 18 -29 0 -18 -39 -44
-56 -37 -17 6 -18 55 -2 71 15 15 18 15 40 -5z"/>
<path d="M1876 6308 c24 -43 218 -328 240 -353 37 -43 13 -3 -64 104 -33 47
-84 124 -114 172 -29 49 -57 88 -61 89 -5 0 -5 -6 -1 -12z"/>
<path d="M2165 6260 c-7 -33 2 -88 17 -107 18 -23 45 -15 52 15 13 55 29 84
37 70 5 -7 9 -25 9 -40 0 -17 8 -31 19 -38 28 -14 28 -14 35 24 4 19 13 39 21
46 15 12 18 4 27 -55 2 -12 12 -21 26 -23 18 -3 22 1 22 23 0 36 -26 94 -45
101 -9 4 -28 1 -42 -5 -21 -10 -29 -9 -43 4 -23 21 -39 19 -67 -7 l-23 -21 0
21 c0 35 -37 29 -45 -8z"/>
<path d="M2460 6251 c0 -32 6 -44 31 -65 17 -14 42 -26 56 -26 15 0 23 -5 20
-12 -2 -8 -19 -13 -41 -12 -28 1 -34 -2 -26 -11 16 -19 55 -26 85 -15 57 22
78 180 23 180 -4 0 -16 -17 -27 -38 -30 -58 -46 -68 -65 -40 -9 12 -16 35 -16
50 0 21 -5 28 -20 28 -17 0 -20 -7 -20 -39z"/>
<path d="M3000 6283 c-58 -21 -67 -79 -19 -124 25 -23 40 -29 78 -29 49 0 91
21 91 45 0 25 -21 28 -44 6 -25 -23 -78 -28 -94 -8 -8 9 0 12 33 12 28 0 50 6
61 16 14 15 14 19 0 47 -20 39 -59 52 -106 35z m64 -40 c7 -18 -12 -35 -32
-28 -8 3 -18 5 -23 5 -14 0 -11 28 4 33 25 11 45 7 51 -10z"/>
<path d="M3180 6275 c0 -11 12 -15 44 -15 25 0 48 -6 55 -14 9 -11 7 -12 -13
-9 -31 6 -86 -23 -86 -46 0 -33 32 -50 100 -53 74 -3 79 2 60 71 -16 61 -43
81 -107 81 -40 0 -53 -4 -53 -15z m109 -78 c14 -18 4 -27 -30 -27 -32 0 -48
18 -28 31 20 13 45 11 58 -4z"/>
<path d="M3383 6241 c8 -67 27 -106 52 -106 14 0 21 9 26 32 12 59 29 70 82
48 25 -11 22 22 -4 36 -21 11 -58 9 -91 -5 -12 -6 -17 -2 -20 16 -2 15 -11 24
-27 26 -23 4 -24 2 -18 -47z"/>
<path d="M3600 6156 c0 -15 24 -28 34 -19 7 7 -13 33 -25 33 -5 0 -9 -6 -9
-14z"/>
<path d="M1784 5598 c-26 -79 -49 -149 -52 -156 -3 -10 6 -12 39 -10 37 3 44
7 49 28 5 22 12 25 53 28 46 3 47 2 53 -27 6 -29 9 -31 50 -31 30 0 42 4 39
13 -2 6 -24 76 -50 155 l-47 142 -43 0 -43 0 -48 -142z m115 -25 c1 -19 -4
-23 -28 -23 -28 0 -29 1 -21 33 4 17 11 46 16 62 l7 30 13 -40 c7 -22 13 -50
13 -62z"/>
<path d="M2086 5708 c-3 -18 -10 -71 -16 -118 -6 -47 -13 -102 -16 -122 l-6
-38 41 0 41 0 1 48 c0 26 4 70 8 97 l7 50 13 -60 c7 -33 16 -76 20 -95 6 -32
10 -35 48 -38 l40 -3 18 96 c9 53 19 94 22 92 2 -3 8 -45 11 -94 l7 -88 38 -3
c44 -4 43 -15 20 171 l-16 137 -48 0 c-54 0 -49 8 -69 -105 -16 -89 -21 -108
-25 -103 -2 2 -12 50 -21 106 l-17 102 -48 0 c-46 0 -48 -1 -53 -32z"/>
<path d="M2460 5585 l0 -155 100 0 100 0 0 30 0 30 -60 0 -60 0 0 35 0 35 55
0 c54 0 55 0 55 30 0 30 -1 30 -55 30 -54 0 -55 0 -55 30 l0 30 60 0 60 0 0
30 0 30 -100 0 -100 0 0 -155z"/>
<path d="M2720 5585 l0 -155 40 0 40 0 0 56 c0 52 1 55 22 52 17 -2 27 -16 42
-55 18 -52 19 -53 58 -53 36 0 39 2 33 23 -4 12 -17 43 -29 69 l-23 48 24 22
c25 23 31 74 13 108 -14 25 -70 40 -152 40 l-68 0 0 -155z m148 61 c4 -31 -10
-46 -45 -46 -20 0 -23 5 -23 41 0 39 1 40 33 37 27 -3 33 -7 35 -32z"/>
<path d="M3020 5585 l0 -155 45 0 45 0 0 155 0 155 -45 0 -45 0 0 -155z"/>
<path d="M3230 5718 c-50 -34 -72 -81 -67 -146 4 -61 28 -99 78 -124 38 -20
113 -23 154 -8 23 9 26 14 20 38 -4 15 -7 28 -8 29 -1 1 -21 -4 -44 -10 -55
-14 -89 1 -109 49 -30 71 15 140 86 131 19 -2 42 -7 51 -11 12 -5 18 0 23 20
10 38 -5 48 -82 52 -57 3 -72 0 -102 -20z"/>
<path d="M3521 5603 c-24 -76 -46 -146 -48 -155 -5 -15 1 -18 35 -18 37 0 41
3 47 30 6 28 9 30 55 30 45 0 48 -2 54 -30 5 -27 9 -30 46 -30 22 0 40 3 40 8
0 4 -22 73 -48 152 l-49 145 -44 3 -44 3 -44 -138z m103 18 c3 -22 9 -46 12
-55 5 -13 -1 -16 -25 -16 -35 0 -35 0 -19 69 13 58 23 58 32 2z"/>
<path d="M3800 5585 l0 -155 40 0 39 0 3 86 3 87 46 -84 c45 -83 46 -84 87
-87 l42 -3 0 155 0 156 -40 0 -39 0 -3 -86 -3 -86 -48 86 c-48 85 -48 86 -87
86 l-40 0 0 -155z"/>
<path d="M1086 5270 c-60 -18 -96 -73 -96 -145 0 -113 90 -182 204 -156 51 12
59 22 46 55 -8 23 -13 25 -29 16 -22 -11 -71 -13 -96 -4 -8 4 -22 19 -30 35
-44 85 25 171 110 139 25 -9 31 -8 42 6 20 28 16 41 -18 53 -37 13 -92 13
-133 1z"/>
<path d="M1373 5261 c-54 -25 -77 -68 -77 -143 -1 -61 16 -93 67 -132 36 -26
131 -27 175 0 90 53 93 211 5 269 -40 26 -121 29 -170 6z m133 -72 c28 -32 25
-116 -5 -141 -30 -24 -76 -23 -101 2 -26 26 -28 114 -3 142 23 26 84 24 109
-3z"/>
<path d="M1736 5270 c-59 -18 -96 -76 -96 -151 0 -107 93 -175 204 -150 51 12
59 22 46 55 -8 23 -13 25 -29 16 -32 -16 -85 -12 -108 10 -28 25 -36 54 -29
94 11 58 62 85 122 66 40 -14 40 -14 49 21 6 23 3 28 -26 38 -37 13 -91 13
-133 1z"/>
<path d="M3013 5265 c-56 -24 -70 -85 -30 -129 12 -14 44 -34 72 -43 54 -20
69 -45 36 -62 -15 -8 -32 -7 -66 5 -53 17 -50 18 -58 -17 -6 -23 -2 -28 25
-40 47 -19 136 -15 167 9 20 15 27 29 29 63 3 53 -17 77 -91 104 -56 21 -65
31 -44 52 13 14 64 14 114 0 3 -1 10 10 14 25 6 24 3 28 -24 37 -41 15 -105
13 -144 -4z"/>
<path d="M1960 5120 l0 -150 40 0 40 0 0 71 c0 40 4 68 9 65 5 -4 26 -35 46
-71 36 -65 36 -65 80 -65 25 0 45 2 45 5 0 2 -20 36 -45 74 -25 38 -45 73 -45
78 0 4 18 35 40 68 22 33 40 63 40 68 0 4 -19 7 -43 7 -42 0 -44 -1 -78 -60
-18 -33 -37 -60 -41 -60 -5 0 -8 27 -8 60 l0 60 -40 0 -40 0 0 -150z"/>
<path d="M2270 5120 l0 -150 100 0 100 0 0 30 c0 28 -1 29 -57 32 -57 3 -58 3
-58 33 0 30 1 30 58 33 57 3 58 4 55 30 -3 25 -6 27 -61 30 -54 3 -58 5 -55
25 3 19 10 22 61 25 56 3 57 4 57 32 l0 30 -100 0 -100 0 0 -150z"/>
<path d="M2540 5120 l0 -150 40 0 40 0 0 56 c0 47 3 55 17 52 18 -3 36 -31 53
-80 8 -25 15 -28 51 -28 35 0 40 3 34 18 -4 9 -12 31 -17 47 -6 17 -18 38 -26
47 -14 16 -13 20 11 42 38 35 38 96 1 125 -23 18 -41 21 -115 21 l-89 0 0
-150z m131 90 c40 -22 14 -80 -35 -80 -12 0 -16 11 -16 45 0 48 11 56 51 35z"/>
<path d="M3250 5120 l0 -150 40 0 40 0 0 50 0 50 40 0 c66 0 94 20 114 83 11
34 -6 79 -38 98 -24 15 -50 19 -113 19 l-83 0 0 -150z m134 90 c18 -6 26 -17
26 -32 0 -34 -12 -47 -48 -54 l-32 -6 0 51 c0 55 6 60 54 41z"/>
<path d="M3562 5121 l-50 -151 43 0 c39 0 43 2 49 30 5 28 8 30 51 30 43 0 46
-2 52 -30 5 -28 9 -30 50 -30 38 0 44 3 39 18 -3 9 -25 76 -49 147 l-44 130
-45 3 -46 3 -50 -150z m113 20 l13 -51 -29 0 c-16 0 -29 5 -29 11 0 19 23 100
27 95 2 -2 10 -27 18 -55z"/>
<path d="M3850 5121 l0 -151 40 0 39 0 3 83 3 82 44 -82 c44 -82 45 -83 83
-83 l38 0 0 150 0 150 -35 0 -35 0 0 -82 c0 -52 -4 -78 -9 -72 -6 5 -27 41
-48 79 -37 68 -39 70 -81 73 l-42 3 0 -150z"/>
<path d="M4180 5120 l0 -150 45 0 45 0 0 150 0 150 -45 0 -45 0 0 -150z"/>
<path d="M4340 5120 l0 -150 100 0 100 0 0 30 0 30 -60 0 -60 0 0 35 0 35 55
0 c54 0 55 0 55 30 0 30 -1 30 -55 30 -52 0 -55 1 -55 25 0 24 3 25 60 25 l60
0 0 30 0 30 -100 0 -100 0 0 -150z"/>
<path d="M4600 5120 l0 -150 105 0 105 0 0 30 0 30 -60 0 -60 0 0 120 0 120
-45 0 -45 0 0 -150z"/>
<path d="M2892 4189 c3 -74 8 -94 23 -105 25 -18 35 -9 35 32 0 46 25 45 44
-1 10 -24 22 -35 35 -35 25 0 27 20 6 60 -14 26 -13 30 3 39 14 8 15 12 4 22
-9 10 -19 11 -45 1 -50 -18 -57 -15 -57 21 0 35 -15 57 -38 57 -12 0 -14 -17
-10 -91z"/>
<path d="M2045 4261 c-45 -9 -36 -26 16 -29 l46 -3 7 -56 c7 -63 20 -93 41
-93 12 0 14 13 8 75 l-6 75 52 0 c58 0 68 20 15 31 -38 8 -141 8 -179 0z"/>
<path d="M2290 4180 c0 -77 3 -91 19 -99 23 -13 31 -5 31 30 0 15 5 40 10 54
9 23 13 25 25 15 8 -7 18 -30 21 -51 7 -44 29 -68 46 -51 15 15 2 74 -23 106
-15 19 -30 26 -53 26 -29 0 -34 4 -39 30 -4 18 -13 30 -22 30 -12 0 -15 -16
-15 -90z"/>
<path d="M2487 4233 c-34 -9 -10 -28 41 -33 63 -7 80 -20 25 -20 -42 0 -73
-22 -73 -53 0 -26 44 -49 87 -46 21 2 44 0 51 -5 34 -21 39 52 6 115 -19 38
-80 57 -137 42z m98 -103 c0 -17 -34 -24 -54 -11 -7 5 -10 14 -6 20 10 17 60
9 60 -9z"/>
<path d="M2676 4231 c-12 -19 7 -114 26 -133 22 -22 33 -18 43 19 9 37 34 75
45 68 4 -3 11 -23 15 -44 7 -45 30 -70 46 -54 16 16 1 91 -22 114 -23 23 -57
24 -86 4 -20 -14 -22 -14 -25 7 -3 24 -32 36 -42 19z"/>
<path d="M3166 4225 c-13 -34 -5 -58 29 -92 28 -28 40 -34 60 -29 27 7 33 -5
11 -23 -8 -7 -26 -9 -43 -5 -27 6 -27 6 -11 -11 25 -27 78 -22 106 10 19 23
22 36 20 88 -4 80 -26 89 -58 23 -14 -31 -28 -46 -41 -46 -18 0 -25 15 -31 70
-3 29 -32 39 -42 15z"/>
<path d="M3396 4209 c-22 -17 -26 -28 -24 -57 6 -74 115 -106 164 -49 23 27
23 29 9 65 -9 20 -23 43 -32 50 -26 19 -87 15 -117 -9z m94 -28 c28 -52 -10
-97 -56 -66 -28 18 -31 46 -8 69 21 22 51 20 64 -3z"/>
<path d="M3584 4216 c-12 -31 6 -84 37 -110 35 -30 55 -32 79 -11 15 14 20 14
46 0 39 -20 52 -4 25 31 -11 15 -21 36 -21 48 -1 65 -47 60 -67 -6 -7 -27 -17
-48 -22 -48 -10 0 -29 45 -33 80 -3 28 -35 40 -44 16z"/>
<path d="M2182 3787 c-6 -7 -12 -30 -14 -52 -3 -35 -6 -40 -30 -43 -36 -4 -26
-32 12 -32 25 0 29 -4 32 -32 5 -50 36 -51 40 -1 3 36 5 38 41 41 50 4 44 25
-9 32 -35 5 -39 8 -39 34 0 40 19 43 35 6 13 -32 40 -41 40 -14 0 9 -9 29 -21
45 -22 31 -68 40 -87 16z"/>
<path d="M2847 3794 c-12 -13 -8 -169 6 -187 27 -38 147 5 147 53 0 24 -55 70
-85 70 -19 0 -24 6 -27 32 -3 31 -25 48 -41 32z m93 -113 c7 -15 5 -25 -9 -42
-23 -29 -41 -17 -41 27 0 27 4 34 20 34 10 0 24 -9 30 -19z"/>
<path d="M3240 3791 c0 -22 24 -61 37 -61 10 0 13 10 11 33 -2 24 -8 33 -25
35 -13 2 -23 -1 -23 -7z"/>
<path d="M2544 3746 c-11 -28 16 -125 39 -141 25 -18 30 -13 45 41 12 43 37
63 56 44 13 -13 46 -13 46 0 0 21 -56 40 -91 30 -18 -5 -33 -9 -34 -7 -1 1 -8
12 -14 25 -13 25 -39 29 -47 8z"/>
<path d="M3321 3723 c2 -62 13 -95 36 -110 21 -14 22 -13 34 26 7 22 20 48 30
57 17 15 19 14 30 -30 14 -54 31 -73 49 -51 9 11 8 24 -5 64 -9 27 -23 52 -31
55 -27 10 -57 7 -75 -9 -15 -15 -17 -14 -23 10 -4 16 -13 25 -26 25 -17 0 -20
-6 -19 -37z"/>
<path d="M3565 3748 c-26 -15 -35 -28 -35 -55 0 -30 57 -76 87 -70 15 3 22 0
20 -7 -2 -6 -26 -13 -53 -16 -45 -5 -47 -6 -27 -17 26 -16 87 -17 114 -3 17
10 19 18 13 78 -4 49 -11 72 -26 85 -23 19 -63 22 -93 5z m69 -31 c14 -22 -3
-51 -33 -55 -27 -4 -33 37 -9 66 13 15 28 12 42 -11z"/>
<path d="M2351 3732 c-28 -22 -31 -75 -6 -102 37 -41 118 -46 151 -9 21 23 13
76 -17 107 -25 28 -97 30 -128 4z m99 -33 c19 -34 9 -64 -23 -67 -34 -4 -57
13 -57 42 0 46 59 64 80 25z"/>
<path d="M3036 3734 c-61 -60 11 -154 108 -141 48 7 83 41 65 63 -9 11 -16 9
-41 -11 -34 -29 -56 -31 -84 -10 -18 13 -16 14 22 15 22 0 49 6 59 14 19 14
19 16 2 50 -16 34 -19 36 -66 36 -32 0 -55 -6 -65 -16z m88 -20 c3 -9 6 -20 6
-25 0 -12 -41 -11 -60 1 -13 9 -12 12 4 25 25 19 42 19 50 -1z"/>
<path d="M3250 3672 c0 -50 8 -72 27 -72 23 0 14 104 -9 108 -15 3 -18 -4 -18
-36z"/>
<path d="M2930 3284 c0 -20 -4 -33 -10 -29 -5 3 -28 1 -50 -5 -29 -8 -44 -18
-50 -36 -15 -38 -12 -53 14 -79 21 -21 33 -24 90 -23 l66 1 0 66 c0 89 -15
141 -40 141 -16 0 -20 -7 -20 -36z m-18 -71 c10 -9 18 -21 18 -28 0 -19 -38
-48 -55 -42 -18 8 -20 58 -3 75 15 15 18 15 40 -5z"/>
<path d="M3525 3298 c-2 -13 -6 -36 -7 -53 -3 -25 -8 -31 -31 -33 -23 -3 -26
-6 -16 -18 6 -8 22 -14 35 -14 18 0 23 -6 26 -32 5 -50 36 -51 40 -1 3 36 5
38 41 41 50 4 44 25 -9 32 -35 5 -39 8 -39 34 0 40 16 42 37 6 9 -17 22 -30
28 -30 17 0 11 36 -11 64 -28 35 -86 37 -94 4z"/>
<path d="M3922 3308 c-13 -13 -15 -116 -3 -158 4 -14 15 -26 25 -28 16 -4 17
3 11 90 -8 98 -14 115 -33 96z"/>
<path d="M1850 3270 c-22 -13 -4 -25 41 -26 22 0 45 -6 51 -12 9 -9 4 -12 -24
-12 -46 0 -83 -28 -74 -57 9 -28 50 -43 115 -41 l53 1 -5 51 c-3 40 -11 55
-36 78 -33 29 -90 38 -121 18z m91 -80 c10 -6 19 -15 19 -20 0 -16 -39 -21
-61 -9 -22 11 -22 12 -4 25 23 17 21 17 46 4z"/>
<path d="M2137 3269 c-24 -14 -23 -79 3 -112 25 -31 56 -43 75 -27 10 9 19 9
35 0 17 -9 26 -8 44 3 14 10 28 12 36 7 21 -13 32 -1 24 23 -4 12 -6 36 -6 54
1 19 -4 33 -13 37 -24 9 -45 -4 -45 -28 0 -12 -6 -31 -14 -41 -13 -18 -15 -16
-21 28 -6 42 -10 48 -29 45 -14 -2 -22 -11 -24 -28 -1 -14 -5 -36 -8 -49 -8
-37 -24 -6 -24 46 0 47 -7 56 -33 42z"/>
<path d="M2433 3265 c-56 -24 -57 -102 -3 -130 47 -24 105 -20 129 11 19 24
19 28 5 62 -8 21 -20 42 -27 48 -20 20 -70 24 -104 9z m77 -46 c6 -11 10 -30
8 -42 -2 -18 -10 -22 -38 -22 -28 0 -36 5 -44 27 -18 50 49 84 74 37z"/>
<path d="M2604 3218 c6 -65 24 -95 49 -85 8 3 18 19 22 35 3 17 15 38 25 47
18 16 19 15 30 -27 16 -57 28 -72 47 -57 16 14 10 55 -13 102 -12 21 -21 27
-49 27 -18 0 -37 -4 -40 -10 -10 -16 -22 -12 -28 10 -3 12 -14 20 -27 20 -22
0 -23 -3 -16 -62z"/>
<path d="M3078 3273 c-33 -5 -58 -37 -58 -73 0 -35 47 -79 91 -86 47 -8 109
18 109 45 0 31 -17 34 -44 6 -28 -28 -43 -30 -81 -13 -37 17 -31 24 18 20 24
-2 50 2 60 10 15 11 16 18 6 46 -10 29 -45 55 -67 51 -4 -1 -19 -4 -34 -6z
m56 -39 c12 -31 -21 -46 -54 -24 -13 9 -12 12 4 25 26 19 42 19 50 -1z"/>
<path d="M3253 3230 c8 -65 27 -104 53 -108 18 -3 22 4 28 37 7 44 39 72 59
52 16 -16 47 -14 41 3 -9 24 -57 38 -89 26 -15 -6 -29 -9 -30 -8 -1 2 -8 13
-14 26 -6 12 -21 22 -33 22 -19 0 -20 -4 -15 -50z"/>
<path d="M3680 3235 c0 -51 24 -91 61 -104 28 -10 35 -8 54 9 20 18 23 19 35
5 7 -8 24 -15 38 -15 24 0 24 1 8 19 -10 11 -23 39 -30 63 -10 31 -19 44 -34
46 -18 3 -23 -4 -33 -43 -6 -25 -16 -48 -20 -51 -11 -6 -39 56 -39 86 0 13 -7
20 -20 20 -16 0 -20 -7 -20 -35z"/>
<path d="M2372 2877 c-6 -7 -12 -30 -14 -52 -3 -35 -6 -40 -31 -43 -36 -4 -30
-25 9 -32 23 -4 30 -12 34 -35 3 -18 12 -31 23 -33 13 -3 17 4 17 31 0 32 2
35 40 41 62 10 46 36 -21 36 -27 0 -29 3 -29 36 0 42 18 42 38 1 13 -28 42
-37 42 -14 0 14 -28 58 -44 69 -17 12 -53 9 -64 -5z"/>
<path d="M2730 2874 c0 -24 19 -54 35 -54 17 0 19 23 5 51 -13 23 -40 25 -40
3z"/>
<path d="M3367 2884 c-3 -4 -4 -19 0 -34 5 -26 3 -28 -30 -28 -66 0 -98 -37
-83 -98 7 -27 68 -60 88 -48 6 4 28 6 49 6 l38 -2 -5 68 c-8 105 -13 130 -30
136 -19 7 -19 7 -27 0z m-12 -114 c17 -19 17 -21 0 -40 -25 -28 -53 -26 -61 5
-7 26 9 55 31 55 6 0 20 -9 30 -20z"/>
<path d="M2515 2840 c-10 -16 22 -133 41 -147 27 -19 38 -11 45 32 8 51 34 70
65 50 26 -17 43 -3 25 19 -18 21 -45 25 -85 11 -32 -11 -36 -11 -36 4 0 31
-40 55 -55 31z"/>
<path d="M3040 2801 c0 -59 12 -96 34 -104 13 -5 23 7 41 50 14 31 29 53 33
49 4 -4 14 -28 22 -54 20 -61 45 -64 44 -5 -1 56 -26 93 -64 93 -16 0 -32 -4
-35 -10 -10 -17 -32 -11 -38 10 -3 11 -12 20 -21 20 -12 0 -16 -11 -16 -49z"/>
<path d="M2830 2820 c-53 -53 3 -140 90 -140 42 0 90 26 90 49 0 28 -20 30
-46 4 -26 -26 -61 -30 -90 -8 -18 13 -17 14 16 13 77 -2 100 21 69 71 -16 27
-24 31 -64 31 -32 0 -51 -6 -65 -20z m89 -19 c12 -22 5 -31 -25 -31 -31 0 -41
20 -19 37 25 17 32 17 44 -6z"/>
<path d="M2735 2781 c-7 -22 3 -70 18 -88 20 -26 28 -11 25 44 -2 44 -7 59
-20 61 -9 2 -19 -5 -23 -17z"/>
<path d="M3455 2721 c-9 -16 3 -31 26 -31 14 0 19 6 17 17 -4 20 -33 29 -43
14z"/>
<path d="M2520 1835 c0 -104 2 -125 15 -125 11 0 15 11 15 39 0 21 5 52 11 70
9 27 16 32 38 29 25 -3 26 -6 29 -70 3 -60 5 -68 22 -68 18 0 20 7 20 66 0 84
-11 104 -55 104 -18 0 -37 -5 -40 -10 -13 -20 -25 2 -25 46 0 32 -4 44 -15 44
-13 0 -15 -21 -15 -125z"/>
<path d="M2280 1935 c0 -10 11 -15 35 -15 l35 0 0 -105 c0 -98 1 -105 20 -105
19 0 20 7 20 105 l0 105 40 0 c29 0 40 4 40 15 0 12 -17 15 -95 15 -78 0 -95
-3 -95 -15z"/>
<path d="M3290 1830 l0 -120 59 0 c64 0 94 16 106 58 5 17 -1 29 -25 52 -22
20 -27 30 -16 30 15 0 36 28 36 49 0 6 -9 20 -20 31 -16 16 -33 20 -80 20
l-60 0 0 -120z m109 76 c15 -18 5 -43 -22 -50 -41 -11 -47 -7 -47 29 0 32 3
35 29 35 16 0 34 -6 40 -14z m11 -105 c13 -25 13 -27 -6 -45 -8 -9 -29 -16
-45 -16 -27 0 -29 2 -29 40 0 39 1 40 35 40 24 0 37 -6 45 -19z"/>
<path d="M2720 1795 c0 -78 2 -85 20 -85 17 0 20 7 20 44 0 49 30 96 61 96 10
0 19 7 19 15 0 19 -30 19 -58 -1 -20 -14 -22 -14 -22 0 0 9 -9 16 -20 16 -18
0 -20 -7 -20 -85z"/>
<path d="M2900 1858 c-27 -29 -27 -87 1 -122 19 -24 27 -27 73 -24 30 2 49 7
46 13 -3 6 -19 9 -36 7 -30 -3 -64 17 -64 39 0 5 27 9 60 9 59 0 60 0 60 28 0
15 -7 38 -16 50 -21 31 -95 31 -124 0z m92 -15 c28 -25 22 -33 -27 -33 -48 0
-62 19 -27 39 24 14 33 13 54 -6z"/>
<path d="M3100 1860 c-14 -14 -20 -33 -20 -65 0 -62 24 -85 90 -85 39 0 50 4
50 16 0 12 -7 14 -29 9 -34 -7 -71 9 -71 30 0 12 14 15 60 15 l60 0 0 30 c0
43 -31 70 -80 70 -27 0 -47 -7 -60 -20z m94 -22 c14 -24 5 -30 -43 -26 -41 3
-41 3 -25 26 18 26 51 26 68 0z"/>
</g>
</svg>
