<?xml version="1.0" encoding="UTF-8"?>
<svg id="_レイヤー_1" data-name="レイヤー 1" xmlns="http://www.w3.org/2000/svg" width="204.61mm" height="305.86mm" viewBox="0 0 580 867">
  <path d="M104.5,576c-17.4-1.85-38.05-13.65-47.73-28.27-2.48-3.75-4.78-10.89-6.73-13.27-1.39-1.7-8.33-5.09-10.93-7.07-19.65-14.99-36.54-27.26-34.09-54.87.74-8.34,6.85-21.83,6.06-29.04-.37-3.34-4.55-8.34-5.79-12.25-3.02-9.5-2.98-26.6-2.27-36.71,2.49-35.05,25.7-45.34,38.16-73.84,24.98-57.1,34.18-167.9,101.6-190.4,5.93-1.98,15.92-1.86,20.2-3.8,1.46-.66,6.93-6.28,9.13-7.87,19.28-13.94,40.36-23.68,63.95-28.09l.73-.97c-8.81-32.39,16.48-65.7,49.68-67.59,36.72-2.09,66.33,32.14,56.54,68.03,17.8,3.17,34.6,10.13,49.92,19.6,6.71,4.14,17.51,14.31,23.19,16.81,8.98,3.96,18.83,2.28,30.57,8.43,60.96,31.95,66.66,127.56,92.16,185.84,12.46,28.49,35.68,38.79,38.16,73.84.72,10.12.76,27.21-2.27,36.71-1.13,3.55-4.84,8.03-5.48,10.52-1.77,6.84,5.01,22.5,5.74,30.77,2.26,25.52-11.33,37.05-29.53,51.44-3.9,3.08-12.47,7.47-15.01,9.99-1.8,1.8-3.84,8.4-5.65,11.35-15.06,24.5-48.46,36.77-75.8,27.71,7.19,17.31,19.27,34.36,20.98,53.51.57,6.41-.58,13.32.22,19.78,30.85,26.67,34.51,63.6,15.31,98.72-1.41,2.59-8.06,11.28-8.28,12.65-.24,1.52,2.34,7.28,2.65,9.94,3.77,31.94-34.12,54.86-62.95,48.86-14.67,30.59-59.28,32.27-87.49,22.57-13.7-4.71-22.64-13.05-30.9-24.65l-23.34,1.83c-22.26,35.34-93.72,39.32-116.21,2.27-5.72-1.21-11.62-.04-17.38-.62-24.77-2.45-52.74-22.92-49.51-50.27.32-2.68,2.89-8.39,2.65-9.94-.18-1.14-10.6-16.07-12.3-19.62-15.34-32.16-8.12-69.04,19.34-91.75.18-11.03-.24-20.72,2.49-31.51,3.5-13.82,12.44-25.29,16.71-38.79-5.31-.4-11.29.55-16.5,0ZM338,94c5.77-22.08-.06-45.88-19.67-58.82-40.87-26.96-92.04,13.1-75.33,58.81-20.85,3.64-43.05,10.96-60.73,22.78-4.37,2.92-14.91,13.36-17.53,14.47-3.23,1.37-6.65.41-9.97,1.03-74,13.84-84.1,130.47-108.6,188.4-11.32,26.78-36,41.65-38.21,71.79-.73,9.96-1.04,30.71,2.55,39.53,1.2,2.96,3.88,5.71,4.72,8.27,2.5,7.62-3.74,20.35-4.98,28.49-3.73,24.42,6.64,34.96,24.27,49.22,4.11,3.32,16.94,10.73,18.95,13.05,1.46,1.7,2.77,6.94,4.36,9.64,14.35,24.4,46.17,37.46,73.17,27.34-9.21,19.65-23.79,41.26-24.98,63.5-.56,10.43,4.01,12.62-3.5,21.5-2.08,2.46-5.55,4.47-7.16,6.34-20.65,23.9-20.57,55.49-5.52,82.32,1.62,2.88,9.72,13.83,9.98,15.07.4,1.91-3.41,11.5-3.42,15.93-.07,30.24,41.37,44.55,66.45,41.49,4.87,14.18,22.76,22.97,36.93,24.56,26.47,2.98,57.97-2.31,72.91-26.54l30.06-1.96c11.44,26.2,46.11,31.21,71.63,28.65,15.03-1.51,34.78-10.89,38.76-26.74,6.94-.71,14.47.48,21.35-.15,21.79-2,43.1-21.48,40.52-44.49-.41-3.64-3.51-7.94-2.82-10.73.42-1.71,8.21-11.88,9.99-15.09,13.16-23.73,15.64-56-2.19-78.15-2.6-3.23-14.06-12.86-14.77-15.22-1.18-3.95.93-10.9.78-15.79-.31-9.98-4.24-21.73-8.13-30.87-5.16-12.11-12.13-23.78-17.85-35.64,2.91,1.72,6.22.56,9.27,1.22,1.99.43,3.88,2.19,6.27,2.73,25.7,5.84,53.33-6.69,66.62-29.28,1.59-2.7,2.9-7.95,4.36-9.64,2-2.32,14.84-9.73,18.95-13.05,17.24-13.94,27.85-24.47,24.42-48.37-1.12-7.77-6.26-18.68-5.96-26.09.17-4.05,4.32-8.24,5.84-12.24,3.27-8.62,2.98-29.14,2.27-38.81-2.22-30.2-26.82-45-38.21-71.79-23.6-55.49-32.77-157.32-93.14-183.86-8.99-3.95-19.95-2.84-26.43-5.57-4.72-1.98-18.63-14.61-25.33-18.67-15.55-9.4-32.79-16.26-50.92-18.59ZM311.86,72.72c0,12.07-9.79,21.86-21.86,21.86s-21.86-9.79-21.86-21.86,9.79-21.86,21.86-21.86,21.86,9.79,21.86,21.86ZM307.14,72.83c0-9.45-7.66-17.11-17.11-17.11s-17.11,7.66-17.11,17.11,7.66,17.11,17.11,17.11,17.11-7.66,17.11-17.11ZM216.08,242.65c-.27,4.7.87,11.58,6.89,10.32l3.54-10.98c2.52,3.64-.06,10.69,6.49,10.01.02-3.3.63-7.46,3.99-9l1.45,8.06,4.55.94c.5-4.04-1.26-13.41-6.41-13.03-1.78.13-3.6,2.16-4.94,1.88-1.41-.28-2.12-3.21-5.09-2.91l-5.54,4.05v-4.01c-4.04-.8-4.71.8-4.93,4.65ZM292,255c-1.9.7-3.42-1.5-4.51-1.59-1.35-.11-3.15,1.45-4.99,1.46-12.77.11-10.17-17.98,3.51-14.87v-6.01s3.85.15,3.85.15c.05,1.44,2.14,4.68,2.14,5.36v15.5ZM279.11,250.89c3.55,1.89,8.57-1.49,5.95-5.43-3.8-5.73-7.35.61-5.95,5.43ZM342.98,598.98c-2.3,1.54-4.1-.58-5.45-.58-1.78,0-3.01,1.54-5.57,1.18-12.65-1.8-7.29-18.58,5.04-14.58-2.66-6.69,2.74-10.69,4.57-3.06,1.23,5.16-.08,11.58,1.42,17.04ZM330.1,595.9c10.9.93,5.36-11.15.33-6.99-2.3,1.97-1.3,4.51-.33,6.99ZM286,593.01c.23,1.27,1.85,2.21,2.97,2.55,7.44,2.27,8.95-4.7,9.52-4.56,6.88,1.67.16,7.91-5.98,8.1-15.01.46-16.04-19.22-.03-16.07,2.56.5,6.29,6.12,5.1,8-3.73,2.77-7.22,3.2-11.58,1.99ZM289.67,585.11c-1.64.14-5.3,2.74-2.71,4.42l6.01-1.03c-1.01-1.07-1.21-3.58-3.3-3.4ZM300,248.01c2.99,5.37,9.49,3.46,12.51-1.01,3.5-.78,4.27,6.43-4.97,7.05-15.78,1.06-17.29-17.75-2.14-16.03,3.68.42,6.5,4.29,6.18,7.98-3.34,3.45-7.37,3.35-11.58,2.01ZM305.89,241.1c-9.82-.61-5.75,6.28,1.11,3.89l-1.11-3.89ZM246.01,238c-.87,4.55.53,10.44,5.01,12.49,2.31,1.06,6.2-.74,5.97,2-2.25,3.33-5.31.14-7.98,1.01,2.16,2.56,5.68,4.1,9.02,3.1,7.44-2.22,7.74-19.83,2.49-18.59l-7.02,9.98c-3.35-2.55-3.87-5.97-3.51-9.99h-3.99ZM307,502.01c3.89,5.73,9.18,2.11,12.5-1.99l2.23,2.47c-2.88,7.78-14.14,6.81-18.74,1.03-8.48-10.67,12.05-17.27,14.58-6.52,1.41,6-6.39,5.03-10.57,5.02ZM311.95,494.04c-1.68-.78-7.31,2.05-5.94,3.95l6.99,1-1.05-4.96ZM354,507.01c3-.54,9.07,1.79,10.01-2.5-17.5,2.04-11.01-20.08,1.55-12.57,2.63,1.57,4.19,13.99,2.95,16.07-1.71,2.87-12.97,3.22-14.51-1ZM358,501c1.37.08,2.7.13,3.99-.5,6.73-3.3-4.78-14.74-3.99.5ZM289,494c5.52-1.19,14.25,5.17,9.69,10.71-1.69,2.05-11.32,4.25-13.21,2.32-2.27-2.31-2.32-19.27.03-20.02l3.01.96.48,6.03ZM289,497c-1.61,15.46,9.33,3.62,4,.49-1.26-.74-2.65-.51-4-.49ZM331.68,240.31c1.73,1.93,4.78,11.57,2.34,13.26-4.68-.65-15.92,1.59-16.02-5.17-.07-4.83,6.41-5.42,9.99-5.9-1.49-2.84-9.36-.84-10-1.51v-2.99c4.28.24,10.51-1.22,13.69,2.31ZM322,247.01c-.79,4.39,8.03,3.42,7.98,1.49-2.3-3.36-4.6-2.61-7.98-1.49ZM303.95,582.6c-1.35,1.77-.18,16.04,5.07,14.95l5.48-10.53c1.74-.04,3.55,15.36,7.03,10.01,1.58-2.42-.7-10.49-2.95-12.11-4.44-3.21-9.3,2.25-10.57,1.07.69-2.3-2.2-5.84-4.06-3.41ZM332,490.99c.18,5.82-.8,14.04,5.98,16,1.14-4.03,1.8-8.98,6-11,1.12,3.77,1.17,8.37,4.51,10.98,4.21-1.39,1.08-10.99-.75-12.72-3.11-2.92-8.36-.99-10.73,1.74l-1.16-4.85-3.85-.15ZM218.66,486.96c-2.26.55-1.22,8.13-2.1,10.1l-5.56,1.43c1.31,3.78,3.51,2.41,7,2.5l.47,6.03,3.52.97.44-7.06,7.55-2.42c-1.84-2.8-6.14-.64-8.05-1.95s-1.35-7.25,2.05-6.56c.58,2.89,1.01,6.84,5.01,5.99.49-6.02-4.16-10.53-10.33-9.03ZM236.14,579.15l-.58,8.92-5.56.94c-.58,4.22,5.42,2.16,6.56,3.93s-.61,7.98,4.44,5.56v-6.49s8-1.02,8-1.02c.81-4.38-8.45-2.45-9.01-2.98v-7c3.23-1.31,5.03,8.91,8,5.99.9-.89-2.31-6.91-3.28-7.7-2.4-1.98-6-1.43-8.58-.15ZM247.72,493.29c1.22.99,3.29,5.48,3.37,7.23.45,10.83-19.31,8.18-18.79-1.87.37-7.02,11.24-8.77,15.42-5.36ZM239.71,495.18c-3.94,1.17-3.88,8.02.84,8.81,9.05,1.52,6.2-10.91-.84-8.81ZM251.99,582.49c-1.92,1.31,1.09,13.16,3.06,14.97.89.82,2.22,1.38,3.43,1.55,2.22-.41.67-11,6.02-10.66.81.05,4.94,4.38,5.5,1.14.83-4.88-10.56-4.49-12.98-1.49.78-2.68-1.81-7.69-5.02-5.51ZM255.92,503.58c5.2,12.54,6.64-4.17,8.76-5.65,2.93-2.04,4.93,1.91,8.31,1.07-1.94-6.2-8.27-4.93-12.96-3-5.74-12.57-7.14.28-4.11,7.58ZM341.03,237.45l-3.08,1.21c-.08,3.56.76,14.13,4.7,15.21,5.19.81,2.13-7.4,6.37-9.42l6.98,1.54c.3-6.43-8.2-5.89-11.98-2.99l-2.99-5.55ZM361.5,247.98c3-3.5,1.03-9.58,1.41-13.87-6.54-4.4-4.15,13.79-1.41,13.87ZM274.51,587.01c-3.33,1.06-1.07,12.64,3.49,11.99-.35-2.56,1.79-13.66-3.49-11.99ZM328.84,497.65l-.79-1.21-3.05-.44c.23,4.46-1.57,10.65,3.98,11.99l-.14-10.35ZM328.56,487.94l-4.56-.93c.18,3.1.77,7.85,4.99,6.99l-.43-6.06ZM273.01,578.01c-.22,3.41.78,7.7,4.99,6.99.22-3.41-.78-7.7-4.99-6.99ZM204.14,243.44l8.98,18,1.46-.73-8.98-18-1.46.73ZM385.99,239c-3.08,3.67-6.89,10.44-8.53,14.96-.34.94-1.32,3.25.53,3.03l8-17.99ZM208.89,293.58l-3.89,30.41h8.01s1.5-19.01,1.5-19.01l3.51,19,8.94-.04,3.55-18.96,1.49,19.02h8.01s-3-31.01-3-31.01l-9.87.14-4.63,20.88-3.51-21-10.1.57ZM380,324h8v-17c3.63,2.7,6.61,14.04,9.42,16.08,2.36,1.7,5.78.72,8.58.92v-31h-8v17c-3.86-2.61-6.79-14.56-10.01-16.49-2.04-1.22-5.63-.23-7.99-.51v31ZM286.5,293c10.57,1.48,11.44,11.56,3.67,17.49l5.83,13.5-7.86-.13c-1.91-3.56-1.45-10.71-6.62-10.89-2.12-.07-1.3,0-1.52,1.5-.27,1.79.38,9.17.01,9.54h-8.01v-31.01c4.57.45,10.08-.62,14.5,0ZM286.86,300.14l-6.86-1.15v8.01l6.86-1.15v-5.72ZM191.86,293.14l10.14,30.86-8.95-.04-.93-5.37-9.18-.14-.93,5.57h-9s10.14-30.87,10.14-30.87h8.72ZM190,312l-2.99-10.99-2.02,10.99h5.01ZM375,323.99l-8.06-.43-.93-5.57-9.9.11-1.21,5.79-7.89.1,9.1-30.89,9.41.88,9.48,30.01ZM364,311.99c-1.27-3.32-.91-8.85-3.99-10.99l-2.01,10.99h5.99ZM246,293v31h20l-.94-6.56-11.08-1.01v-5.43s11.03-.57,11.03-.57v-5.43s-11.02.01-11.02.01v-6.01s12.01.01,12.01.01v-6.01h-20.01ZM338.06,293.44c-27.83-6.63-30.75,33.41-2.56,30.55,6.39-.65,7.3-1.81,5.49-8-22.33,9.84-22.27-25.25,0-15,.69-4.54,2.63-6.24-2.93-7.56ZM302,324h9v-31h-9v31ZM280,299v8.01l6.86-1.15v-5.72l-6.86-1.15ZM187.01,301.01l-2.02,10.99h5.01s-2.99-10.99-2.99-10.99ZM360.01,301l-2.01,10.99h5.99c-1.27-3.32-.91-8.85-3.99-10.99ZM385,370h8v-16l9.16,15.84,8.84.16v-29.5l-1.65-1.34-6.35-.16v17c-4.06-1.78-7.96-15.49-10.2-16.79-1.56-.91-5.73.16-7.8-.21v31ZM161.3,354.77c0,8.94-7.25,16.19-16.19,16.19s-16.19-7.25-16.19-16.19,7.25-16.19,16.19-16.19,16.19,7.25,16.19,16.19ZM141.69,346.2c-4.95,1.51-5.68,15.41.25,17.36,14.16,4.67,14.89-21.98-.25-17.36ZM254,339c5.25.11,19.19-.43,22.06,4.43,2.32,3.93,1.22,11.81-4.06,12.59l6.01,13.47-8.05.05c-2.1-1.4-1.74-11.89-7.95-10.54v11s-8,0-8,0v-31ZM262.01,354l6.53-1.95c.86-1.77.91-4.12-.52-5.57l-6.01-1.48v9ZM196,370h8v-14c7.1,6.28,5.63,16.96,17.99,13.99l-8.96-15.49,8.96-15.5c-10.96-2.48-11.87,5.54-16.51,13-2.28.38-1.36-1-1.49-2.49-.29-3.46.21-7.06,0-10.52h-8.01v31.01ZM228.5,339l-1.5,1.5v29.5h21v-6.01s-12.01.01-12.01.01v-7.01s11.01.01,11.01.01v-6.01s-11.01.01-11.01.01v-5.01s12.01,0,12.01,0l-1.5-7h-18ZM369.86,339.14l10.14,30.86-8.95-.04-.93-5.37-9.01-.47-1.21,5.79-8.9.1,10.1-30.89,8.76.04ZM369,357.99l-3.99-10.98-2.01,10.99h6ZM434,339v31h20v-6.01s-12.01.01-12.01.01v-6.43s11.01-.57,11.01-.57v-6.01s-11.01.01-11.01.01v-5.01s12.01.01,12.01.01v-7.01h-20.01ZM297.13,352.37c2.89,5.54,15.33,5.28,13.86,10.11-1.33,4.35-13.48-1.01-13.99-.49l-.6,6.04c21.41,10.6,34.79-12.37,8.74-18.16-2.54-9.12,12.31-2.23,12.85-2.87l1.02-5.99c-8.39-4.75-28.66-1.64-21.88,11.36ZM325,339c7.97.45,24.05-1.3,24.02,10.5-.02,9.32-8.13,11.5-16.02,10.49v10.01s-8,0-8,0v-31ZM333,355c10.34.21,11.54-10.68,0-10v10ZM180.5,370.99c5.95-.03,12.86-2.86,7-8.96-9.25,6.39-19.25-2.13-14.27-12.29,4.05-8.27,14.89-1.97,15.75-2.74l.98-5.94c-27.99-13.8-37.06,30.07-9.46,29.93ZM115.5,370.99c5.95-.03,12.86-2.86,7-8.96-15.83,10.53-21.84-16.4-6.92-16.97,4.72-.18,8.67,5.68,9.37-4.01-27.73-13.75-37.43,30.08-9.46,29.94ZM469,340.5c-2-2.33-7-2.33-9,0v29.5h21v-6.01s-12,0-12,0v-23.5ZM418,370h9v-31h-9v31ZM141.94,363.56c14.16,4.67,14.89-21.98-.25-17.36-4.95,1.51-5.68,15.41.25,17.36ZM268.54,352.04c.86-1.77.91-4.12-.52-5.57l-6.01-1.48v9s6.54-1.95,6.54-1.95ZM365.01,347.01l-2.01,10.99h6s-3.99-10.99-3.99-10.99ZM333,345v10c10.34.21,11.54-10.68,0-10ZM285.06,245.46c-3.8-5.73-7.35.61-5.95,5.43,3.55,1.89,8.57-1.49,5.95-5.43ZM330.42,588.91c-2.3,1.97-1.3,4.51-.33,6.99,10.9.93,5.36-11.15.33-6.99ZM286.97,589.53l6.01-1.03c-1.01-1.07-1.21-3.58-3.3-3.4-1.64.14-5.3,2.74-2.71,4.42ZM307,244.99l-1.11-3.89c-9.82-.61-5.75,6.28,1.11,3.89ZM306.01,497.99l6.99,1-1.05-4.96c-1.68-.78-7.31,2.05-5.94,3.95ZM362,500.5c6.73-3.3-4.78-14.74-3.99.5,1.37.08,2.7.13,3.99-.5ZM293.01,497.49c-1.26-.74-2.65-.51-4-.49-1.61,15.46,9.33,3.62,4,.49ZM329.98,248.5c-2.3-3.36-4.6-2.61-7.98-1.49-.79,4.39,8.03,3.42,7.98,1.49ZM215.51,539.03c-5.91-.26-4.42,14.89,3.23,15.86,2.25.29,3.2-1.85,4.6-1.72,1.18.11,2.4,1.83,4.01,1.66,2.59-.28,3.76-4.62,7.16-.84l1.49-1.49c-2.32-5.04,1.78-14.5-6.83-10.3-.35,2.77,0,6.46-3.16,7.82l-1.01-9.01c-7.93-1.63-2.88,7.03-6.98,10-1.57-2.18-.14-11.86-2.51-11.97ZM299,556c-5.54-1.64-12.54,2.43-16.47-3.02-5.4-7.48,3.48-13.6,10.46-10.98v-7s3.87.14,3.87.14c.1,1.66,2.14,5.37,2.14,6.36v14.5ZM287.62,545.07c-2.55.83-2.57,8.01.88,7.97l4.53-4.54c-.33-2.51-3.04-4.21-5.41-3.43ZM307.01,549c-.5,2.55.49,1.76,1.94,2.51,3.13,1.61,4.96,2.28,8.06-.03,2.13-1.59,3.92-7.99,4.89.87-8.09,10.81-27.83-4.11-17.46-11.42,12.4-8.74,23.31,14.19,2.58,8.07ZM312.98,542.01c-1.68-.73-7.36,2.06-5.98,3.98,4.92,1.57,7.8,2.07,5.98-3.98ZM200.99,555c-4.62-1.34-12.12,1.65-15.72-2.26-4.98-5.41,5.13-9.11,9.72-8.23-1.7-4.01-11.86.18-10.99-3.99,10.54-5.75,18.95,3.71,16.99,14.48ZM195.99,550.99c-.44-4.43-5.54-4.77-7.97-1.49,2.34,2.77,4.82,2.68,7.97,1.49ZM260,539c.19,5.76-.82,14.03,5.98,16,1.14-4.03,1.8-8.98,6-11,1.12,3.77,1.17,8.37,4.51,10.98,4.71-3.04.85-9.77-1.49-13.48-4.11-2.47-9.43,2.08-10,1.51.2-3.75-1.5-4.44-5.01-4.01ZM246.77,539.19c11.45-1.3,16.7,19.25-1.04,15.58-9.55-1.98-9.18-14.42,1.04-15.58ZM245.67,543.14c-3.42,1.14-3.45,8.08.85,8.88,9.13,1.69,6.09-11.2-.85-8.88ZM368.14,540.14c-3.42,8.13,7.38,20.8,13.36,10.88,2,2.74,4.13,3.43,7.5,2.97l-6.62-12.88-3.3-.02-3.59,9.89c-2.78-2.88-3.64-7.13-3.51-10.98l-3.84.14ZM353.66,534.96c-2.26.55-1.22,8.13-2.1,10.1l-5.56,1.43c1.79,2.57,4.03,2.79,7,2.5l.47,6.03,3.52.97.44-7.06,7.55-2.42c-1.84-2.8-6.14-.64-8.05-1.95s-1.35-7.25,2.05-6.56c.03,1.65,2.61,8.37,5.01,5.99s-3.36-10.72-10.33-9.03ZM325,539c.14,5.63.19,17.12,7.99,16.01-.04-3.13.11-7.75,3.28-9.31,2.83-1.39,4.4,2.13,7.72,1.29-2.25-6.17-7.86-5.01-12.97-2.99-.53-3.73-2.04-5.65-6.02-5ZM395.99,546.51c-.21-3.16-.74-8.87-2.49-11.49-3.29.13-5.15,21.53,2.49,19.98-.09-2.81.18-5.67,0-8.49ZM288.5,553.04l4.53-4.54c-.33-2.51-3.04-4.21-5.41-3.43-2.55.83-2.57,8.01.88,7.97ZM307,545.99c4.92,1.57,7.8,2.07,5.98-3.98-1.68-.73-7.36,2.06-5.98,3.98ZM188.02,549.5c2.34,2.77,4.82,2.68,7.97,1.49-.44-4.43-5.54-4.77-7.97-1.49ZM246.51,552.02c9.13,1.69,6.09-11.2-.85-8.88-3.42,1.14-3.45,8.08.85,8.88ZM240.55,503.99c9.05,1.52,6.2-10.91-.84-8.81-3.94,1.17-3.88,8.02.84,8.81ZM248.47,456c2.24,4.53,8.77,2.3,12.05,2.48,1.17.06,4.49,3.94,4.52-1.93.05-10.71-8.15-15.85-18.04-12.54.3,5.9,9.58.62,11.99,4.98-4.46-1.17-13.45,1.07-10.52,7.01ZM320.06,443.44c-2.66-1.86-3.86.58-4.01,3.17-.35,5.99,5.95,12.54,11.94,9.38-.55,5.17-4.36,3.7-7.99,3.01,9.85,10.49,16.98-3.99,13.52-14.03l-2.99-.95c-1.72.57-3.15,10.54-8.52,8.97l-1.96-9.55ZM289.01,439c-.94.64-.09,17.1,2,19.49.58.66,2.73,1.97,3.52.54l.46-6.53c4.52-2.76,3.73,4.68,5.99,6.01,6.25,3.7,3.95-5,1.04-8.03,4.7-1.74,3.5-5.15-1.27-4.31-1.92.34-4.06,2.68-6.74,1.83,1.33-2.73-1.27-11.55-5-9ZM361.49,444.01c-5.67-1.81-4.08,9.84,1.56,13.43,6.31,4.02,6.33-.94,8.58-1.34,1.76-.31,5.42,4.71,7.36,1.38.3-1.53-2.61-3.17-3.25-4.73-.97-2.38-.13-6.93-2.34-7.67-5.3-1.77-4.75,5.5-6.17,8.66-.61,1.35-.11,1.58-2.22,1.26-1.62-2.09-1.75-10.42-3.53-10.99ZM267.12,444.67c-.76,2.48,1.04,14.86,5.9,13.87l5.48-10.52c2.22-.04,1.66,13.95,7.03,10.01,1.41-9.69-4.1-17.87-13.52-10.03,1.42-4.09-3.67-7.31-4.89-3.33ZM342.71,444.21c3.52-.81,7.78-.62,10.16,2.42,7.57,9.66-3.3,16.65-12.21,11.21-6.13-3.74-4.62-12.1,2.05-13.63ZM350.39,451.83c0-2.62-2.13-4.75-4.75-4.75s-4.75,2.13-4.75,4.75,2.13,4.75,4.75,4.75,4.75-2.13,4.75-4.75ZM228.36,442.63c-.09,1.83.73,14.72,1.13,15.38.37.6,1.18.89,1.83,1.19l2.22-.17,1.47-9.38c6.05-3.69,3.54,11.39,8.49,10.35,3.7-.78.02-12.58-4.19-13.79-2.04-.59-4.2,0-6.26-.25l-1.1-5.91c-2.55-.49-3.46-.05-3.58,2.58ZM218.49,440.02c-2.22-.23-17.46,0-17.47,2.48,2.46,2.79,6.77,1.09,9.98,1.49.63.66-.74,17.86,6,14.5l-1.01-14.5h10c.32-3.32-5.06-3.73-7.51-3.98ZM345.64,447.08c-2.62,0-4.75,2.13-4.75,4.75s2.13,4.75,4.75,4.75,4.75-2.13,4.75-4.75-2.13-4.75-4.75-4.75ZM329,672c4.7-.07,17.02-1.57,15.84,6.27-.57,3.8-4.44,2.74-3.83,5.71,13,7.95-2.59,14.43-12.01,12.02v-24ZM339.73,680.75c1.3-1.07,1.52-3.81-.15-4.82l-6.59-.93v7.01c.38.37,5.95-.6,6.74-1.25ZM340.77,686.24l-7.77-1.25v8.01c4.8.98,10.36-1.62,7.77-6.76ZM252,696h4c.89-.84-2.85-19.79,6.85-12.35l.16,12.35h3.99c-.03-9.45,2.51-21.48-10.99-16.01v-9s-4.01,0-4.01,0v25ZM324,689h-12c-.47,2.45.72,3.91,2.98,4.59,4.07,1.22,7.96-3.27,7.03,2.4-6.71,1.09-13.32.97-14.34-7.16-1.78-14.21,18.88-13.37,16.34.17ZM320,685.99c.43-7.15-9.34-6.24-7.49.01h7.49ZM304,689h-12s2.24,4.35,2.24,4.35c1.28,1.53,8.9-1.57,8.74,1.15-.17,2.9-12.88,3.22-14.77-3.2-4.59-15.61,18.11-17.67,15.79-2.29ZM301,685.99c-3.33-10.74-11.74-.38-8.49.02l8.49-.02ZM228,672v3s7,0,7,0v21h4v-19.5l1.65-1.34,6.35-.16v-3h-19.01ZM272,696h4c-.59-6.96-.05-13.54,8.01-14.51,1.23-5.36-6.34-1.08-8,.51l-.1-2.89-3.91-.12v17ZM333,685v8.01c4.8.98,10.36-1.62,7.77-6.76l-7.77-1.25ZM339.59,675.93l-6.59-.93v7.01c.38.37,5.95-.6,6.74-1.25,1.3-1.07,1.52-3.81-.15-4.82ZM312.51,686.01h7.49c.43-7.16-9.34-6.25-7.49,0ZM292.51,686.01l8.49-.02c-3.33-10.74-11.74-.38-8.49.02Z"/>
</svg>