<?xml version="1.0" encoding="UTF-8"?>
<svg id="_レイヤー_1" data-name="レイヤー 1" xmlns="http://www.w3.org/2000/svg" width="202.77mm" height="290.23mm" viewBox="0 0 574.79 822.69">
  <path d="M101.89,554.14c-17.4-1.85-38.05-13.65-47.73-28.27-2.48-3.75-4.78-10.89-6.73-13.27-1.39-1.7-8.33-5.09-10.93-7.07C16.86,490.54-.03,478.26,2.41,450.65c.74-8.34,6.85-21.83,6.06-29.04-.37-3.34-4.55-8.34-5.79-12.25-3.02-9.5-2.98-26.6-2.27-36.71,2.49-35.05,25.7-45.34,38.16-73.84,24.98-57.1,34.18-167.9,101.6-190.4,5.93-1.98,15.92-1.86,20.2-3.8,1.46-.66,6.93-6.28,9.13-7.87,19.28-13.94,40.36-23.68,63.95-28.09l.73-.97C225.36,35.29,250.65,1.98,283.85.09c36.72-2.09,66.33,32.14,56.54,68.03,17.8,3.17,34.6,10.13,49.92,19.6,6.71,4.14,17.51,14.31,23.19,16.81,8.98,3.96,18.83,2.28,30.57,8.43,60.96,31.95,66.66,127.56,92.16,185.84,12.46,28.49,35.68,38.79,38.16,73.84.72,10.12.76,27.21-2.27,36.71-1.13,3.55-4.84,8.03-5.48,10.52-1.77,6.84,5.01,22.5,5.74,30.77,2.26,25.52-11.33,37.05-29.53,51.44-3.9,3.08-12.47,7.47-15.01,9.99-1.8,1.8-3.84,8.4-5.65,11.35-15.06,24.5-48.46,36.77-75.8,27.71,7.19,17.31,19.27,34.36,20.98,53.51.57,6.41-.58,13.32.22,19.78,30.85,26.67,34.51,63.6,15.31,98.72-1.41,2.59-8.06,11.28-8.28,12.65-.24,1.52,2.34,7.28,2.65,9.94,3.77,31.94-34.12,54.86-62.95,48.86-14.67,30.59-59.28,32.27-87.49,22.57-13.7-4.71-22.64-13.05-30.9-24.65l-23.34,1.83c-22.26,35.34-93.72,39.32-116.21,2.27-5.72-1.21-11.62-.04-17.38-.62-24.77-2.45-52.74-22.92-49.51-50.27.32-2.68,2.89-8.39,2.65-9.94-.18-1.14-10.6-16.07-12.3-19.62-15.34-32.16-8.12-69.04,19.34-91.75.18-11.03-.24-20.72,2.49-31.51,3.5-13.82,12.44-25.29,16.71-38.79-5.31-.4-11.29.55-16.5,0ZM335.39,72.13c5.77-22.08-.06-45.88-19.67-58.82-40.87-26.96-92.04,13.1-75.33,58.81-20.85,3.64-43.05,10.96-60.73,22.78-4.37,2.92-14.91,13.36-17.53,14.47-3.23,1.37-6.65.41-9.97,1.03-74,13.84-84.1,130.47-108.6,188.4-11.32,26.78-36,41.65-38.21,71.79-.73,9.96-1.04,30.71,2.55,39.53,1.2,2.96,3.88,5.71,4.72,8.27,2.5,7.62-3.74,20.35-4.98,28.49-3.73,24.42,6.64,34.96,24.27,49.22,4.11,3.32,16.94,10.73,18.95,13.05,1.46,1.7,2.77,6.94,4.36,9.64,14.35,24.4,46.17,37.46,73.17,27.34-9.21,19.65-23.79,41.26-24.98,63.5-.56,10.43,4.01,12.62-3.5,21.5-2.08,2.46-5.55,4.47-7.16,6.34-20.65,23.9-20.57,55.49-5.52,82.32,1.62,2.88,9.72,13.83,9.98,15.07.4,1.91-3.41,11.5-3.42,15.93-.07,30.24,41.37,44.55,66.45,41.49,4.87,14.18,22.76,22.97,36.93,24.56,26.47,2.98,57.97-2.31,72.91-26.54l30.06-1.96c11.44,26.2,46.11,31.21,71.63,28.65,15.03-1.51,34.78-10.89,38.76-26.74,6.94-.71,14.47.48,21.35-.15,21.79-2,43.1-21.48,40.52-44.49-.41-3.64-3.51-7.94-2.82-10.73.42-1.71,8.21-11.88,9.99-15.09,13.16-23.73,15.64-56-2.19-78.15-2.6-3.23-14.06-12.86-14.77-15.22-1.18-3.95.93-10.9.78-15.79-.31-9.98-4.24-21.73-8.13-30.87-5.16-12.11-12.13-23.78-17.85-35.64,2.91,1.72,6.22.56,9.27,1.22,1.99.43,3.88,2.19,6.27,2.73,25.7,5.84,53.33-6.69,66.62-29.28,1.59-2.7,2.9-7.95,4.36-9.64,2-2.32,14.84-9.73,18.95-13.05,17.24-13.94,27.85-24.47,24.42-48.37-1.12-7.77-6.26-18.68-5.96-26.09.17-4.05,4.32-8.24,5.84-12.24,3.27-8.62,2.98-29.14,2.27-38.81-2.22-30.2-26.82-45-38.21-71.79-23.6-55.49-32.77-157.32-93.14-183.86-8.99-3.95-19.95-2.84-26.43-5.57-4.72-1.98-18.63-14.61-25.33-18.67-15.55-9.4-32.79-16.26-50.92-18.59ZM309.25,50.86c0,12.07-9.79,21.86-21.86,21.86s-21.86-9.79-21.86-21.86,9.79-21.86,21.86-21.86,21.86,9.79,21.86,21.86ZM304.53,50.96c0-9.45-7.66-17.11-17.11-17.11s-17.11,7.66-17.11,17.11,7.66,17.11,17.11,17.11,17.11-7.66,17.11-17.11Z"/>
</svg>