<?xml version="1.0" encoding="UTF-8"?>
<svg id="_レイヤー_1" data-name="レイヤー 1" xmlns="http://www.w3.org/2000/svg" width="169.59mm" height="301.88mm" viewBox="0 0 480.74 855.71">
  <path d="M184.57,33.37l2.05-.61c26.09-50.81,102.47-39.18,112.95,16.62,17.65-24.74,50.31-60.57,83.51-39.02,22.66,14.71,18.88,44.68,20.43,67.57,1.76,25.93,6.05,51.06-1.04,76.82,9.33,4.78,17.68,13.02,18.13,24.11.15,3.6-1.29,7.24-1.04,9.93.31,3.25,4.14,9.13,5.27,12.81,7.37,23.84,2.38,61.87,17.28,81.72,2.51,3.34,6.14,5.02,8.43,7.57,8.01,8.88,8.96,22.77,1.02,32,19.76,10.25,22.33,33.42,3.22,45.98,11.3,16.06,8.45,40.07-13.23,43.53,2.73,5.18,6.5,8.9,7.55,14.94.91,5.2-1.03,12.11-.15,15.07.84,2.81,5.48,9.16,7.08,12.99,2.61,6.26,4.27,12.97,6.73,19.27,5.84,14.95,15.66,25.6,4.86,42.12,22.05,14.53,14.89,45.3-11.08,48.61,1.94,8.04,6.81,14.7,8.54,22.96,3.17,15.16-3.2,27.72-18.6,31.64,5.18,46.94,17.28,92.03-5.05,136.78-1.97,3.94-9.08,13.24-9.72,16.36-.8,3.9,1.42,14.86.83,20.75-1.8,17.89-16.12,31.59-32.98,36.02-9.62,2.52-24.08,1.91-32.27,4.73-2.05.71-3.82,3.77-5.82,5.18-32.54,22.86-83.59,22.16-109.36-10.47-1.45-1.84-1.24-4.56-4.08-4.99-8.28-1.24-12.4,9.07-17.95,14.07-22.52,20.3-64.43,22.23-90.55,8.49-5.34-2.81-12.01-9.58-15.74-11.26-5.2-2.33-18.81-2.32-25.44-3.56-22.38-4.16-36.71-15.16-40.51-38.49-.57-3.52.29-7.34-.52-10.48-.62-2.39-11.18-15.32-13.56-19.44-10.25-17.76-16.12-39.3-17.19-59.81-1.43-27.71,6.59-55.38,8.05-82.93-27.34-7.25-20.97-34.05-10.06-53.03-.22-1.03-7.96-3.16-9.88-4.15-19.09-9.83-19.63-35.06-1.12-45.41-12.09-17.68-.95-27.74,5.48-43,2.89-6.86,4.42-14.41,7.66-21.34,1.74-3.71,6.62-10,7.42-12.61,1.01-3.28-.74-6.73-.12-11.07.97-6.78,4.84-11.07,7.56-16.95-20.84-4.16-24.26-28.29-12.01-43.51-25.01-15.13-13.43-41.97,10.34-50.43,3.75-4.96-1.51-9.2-2.23-14.65-2.16-16.41,6.84-20.48,10.28-32.55,6.92-24.32,3.52-49.79,11.87-73.13,1.05-2.94,7.22-14.21,7.33-15.23.17-1.58-1.43-4.76-1.57-7.03-.51-8.47,3.58-16.64,10.09-21.89,2.37-1.91,8.31-4.32,9.61-5.87,2.43-2.89-.51-15.81-.69-20.23-.43-10.68.81-21.28,2.13-31.85,2.26-18,4.73-43.97,9.15-60.85,13.93-53.16,66.1-42.17,88.73-2.8ZM185.57,44.37c-12.39-21.53-35.96-47.87-63.71-36.18-13.67,5.76-19.34,22.57-22.02,35.98-3.65,18.29-8.08,48.24-9.28,66.72-.89,13.65,1.34,27.21.83,40.83-11.39,7.21-21.01,10.41-19.85,26.17.17,2.32,1.8,4.81,1.5,6.59-.46,2.73-5.56,10.34-6.98,13.92-9.99,25.26-3.77,56.4-14.34,79.66-3.34,7.36-8.6,11.28-9.1,20.98-.47,9.12,7.31,13.13,3.01,21.94-1.4,2.86-13.34,8.6-17.1,11.9-6.38,5.59-8.16,10.24-6.9,18.93,1.52,10.51,13.23,13.23,13.81,15.24-.16,5.32-4.3,8.98-5.95,13.8-6.05,17.61,5.15,29.8,23.05,28.56-4.65,7.33-12.45,13.08-13.04,22.45-.21,3.29,1.36,9.05.89,10.81-.39,1.49-4.52,5.43-5.67,7.41-5.18,8.91-6.56,18.4-10.45,27.55s-12.35,16.96-10.49,28.03c.72,4.3,6.01,10.15,5.81,12.18-.29,3.02-6.73,6.56-8.9,9.2-10.69,12.99-4.39,28.89,10.88,33.82,2.53.82,11.87,1.65,11.95,3.02-11.93,17.46-24.37,48.86,7.03,52.52-.43,1.15-.98,2.17-1.03,3.46-2.01,53.13-20.14,95.49,11.61,145.45,2.17,3.41,11.42,14.24,11.97,16.03,2.68,8.69-1.09,14.81,4.93,26.07,12.93,24.19,37.31,16.53,57.36,22.64,3.15.96,10.82,8.91,15.49,11.51,26.1,14.56,69.33,11.72,89.64-11.7,1.49-1.72,5.41-8.56,6.04-8.96,2.17-1.36,15.07-2.77,17.05-.81,2.47,2.46,5.36,9.32,8.9,12.84,19.71,19.58,61.44,21.7,85.06,8.98,4.33-2.33,14.7-12.02,15.65-12.35,7.68-2.67,23.75-2.22,33.34-4.66,20.89-5.3,31.81-21.44,29.98-43-.24-2.81-1.87-5.79-1.94-8.13-.09-3.29,9.61-16.43,11.82-21,13.17-27.22,13.45-56.28,9.98-85.73-2-16.97-6.74-33.78-5.92-51.03,30.34-6.36,17.82-35.12,6.06-53.09,1.71-2.44,4.79-1.12,7.27-1.76,15.55-4.02,26.46-15.88,17.56-32.08-2.74-4.98-8.42-7.63-11.71-12.32-.23-1.32,5.05-7.11,5.67-10.08,2.41-11.63-4.95-20.73-8.8-30.75-1.95-5.08-2.36-10.45-4.48-15.52-1.76-4.21-10.59-16.52-10.47-19.41.1-2.41,2.02-4.8,2.04-8.09.08-10-8.48-16.63-13.08-24.5,16.55,1.44,28.5-11.07,23.05-27.56-1.38-4.17-6.67-10.39-6.1-13.92.38-2.35,8.76-5.67,11.45-10.63,8.46-15.65-3.67-24.58-15.3-32.39,20.38-22.95-7.45-31.58-13.59-49.51-8.39-24.5-4-50.91-12.74-75.26-1.06-2.95-4.58-7.8-4.74-10.3s1.91-5.13,2.02-7.96c.42-11.12-10.43-18.68-18.71-23.91,1.16-10.47,4.26-21.54,4.71-32.03.63-14.45-2.12-30.51-3.08-45-1.39-20.89,2.13-56.71-21.59-67.41-34.67-15.64-62.45,29.11-79.89,51.86-2.26.42-1.39-.98-1.49-2.47-4.12-59.8-73-77.75-102.17-28.19-1.19,2.02-4.39,12.32-6.81,10.66ZM264.64,53.29c0,13.47-10.92,24.39-24.39,24.39s-24.39-10.92-24.39-24.39,10.92-24.39,24.39-24.39,24.39,10.92,24.39,24.39ZM258.85,53.27c0-10.36-8.4-18.76-18.76-18.76s-18.76,8.4-18.76,18.76,8.4,18.76,18.76,18.76,18.76-8.4,18.76-18.76Z"/>
</svg>