<?xml version="1.0" standalone="no"?>
<!DOCTYPE svg PUBLIC "-//W3C//DTD SVG 20010904//EN"
 "http://www.w3.org/TR/2001/REC-SVG-20010904/DTD/svg10.dtd">
<svg version="1.0" xmlns="http://www.w3.org/2000/svg"
 width="580.000000pt" height="867.000000pt" viewBox="0 0 580.000000 867.000000"
 preserveAspectRatio="xMidYMid meet">

<g transform="translate(0.000000,867.000000) scale(0.100000,-0.100000)"
fill="#000000" stroke="none">
<path d="M1733 8575 c-195 -60 -283 -230 -323 -625 -6 -58 -19 -157 -30 -220
-35 -204 -44 -342 -33 -479 6 -68 9 -130 6 -137 -3 -7 -29 -27 -58 -43 -110
-62 -167 -182 -136 -289 4 -17 -5 -47 -31 -101 -64 -135 -98 -299 -98 -477 0
-44 -7 -103 -15 -130 -8 -27 -22 -88 -30 -136 -11 -63 -25 -102 -51 -145 -65
-109 -82 -231 -41 -312 25 -49 14 -71 -54 -111 -135 -77 -183 -142 -184 -250
0 -84 31 -150 90 -192 l41 -29 -29 -58 c-34 -69 -45 -156 -27 -221 14 -55 100
-144 149 -155 17 -3 31 -9 31 -11 0 -2 -12 -22 -26 -43 -37 -57 -56 -127 -49
-183 6 -40 3 -52 -18 -80 -36 -48 -61 -101 -101 -216 -20 -57 -58 -146 -86
-199 -44 -84 -50 -102 -50 -157 0 -42 7 -76 23 -110 l23 -49 -42 -39 c-58 -53
-85 -115 -86 -194 -1 -112 70 -203 190 -246 26 -9 46 -23 45 -30 -1 -7 -18
-49 -37 -94 -64 -145 -67 -240 -10 -327 27 -41 106 -97 137 -97 17 0 18 -6 12
-72 -4 -40 -20 -167 -37 -283 -65 -442 -36 -742 98 -1007 34 -68 106 -180 153
-238 14 -17 21 -40 21 -72 1 -166 86 -311 226 -385 76 -40 115 -50 290 -73
l144 -20 54 -44 c66 -53 178 -109 266 -133 50 -14 103 -18 230 -18 189 0 269
17 394 83 66 34 167 122 211 184 14 20 32 30 62 34 39 6 42 4 58 -26 50 -96
218 -210 372 -252 113 -30 355 -30 466 0 94 26 221 90 279 142 42 36 47 38
173 54 239 31 326 66 420 167 82 89 99 143 101 309 l1 135 47 79 c65 108 113
229 144 360 24 102 26 129 26 326 0 191 -4 238 -31 415 -17 110 -34 232 -38
271 l-6 72 28 6 c76 19 147 101 164 190 11 58 -10 151 -55 250 -41 90 -42 96
-18 96 58 1 173 88 203 155 44 95 11 227 -73 299 l-39 34 22 44 c31 58 32 155
3 218 -12 25 -27 61 -34 80 -8 19 -17 40 -21 45 -4 6 -26 62 -48 124 -23 63
-56 142 -75 177 -31 56 -34 68 -29 118 7 67 -9 128 -48 187 l-29 44 23 6 c78
21 139 83 163 166 21 71 14 129 -26 208 l-29 60 44 38 c57 49 85 108 85 180 0
92 -43 166 -126 218 l-31 19 25 50 c51 103 22 224 -73 303 -58 49 -110 145
-124 232 -7 39 -20 102 -31 140 -11 43 -19 106 -20 165 -1 146 -27 287 -72
386 -17 38 -22 68 -22 139 -1 80 -4 95 -29 138 -25 42 -107 119 -137 129 -8 2
-7 30 5 93 23 129 29 300 16 450 -7 72 -16 218 -21 325 -5 107 -16 231 -25
275 -45 223 -171 349 -363 362 -158 11 -272 -39 -428 -189 -55 -54 -127 -133
-160 -178 l-59 -80 -16 53 c-49 162 -170 304 -319 375 -100 47 -163 62 -268
62 -96 0 -175 -19 -270 -66 -86 -42 -193 -138 -237 -213 -16 -28 -32 -51 -35
-51 -3 0 -15 14 -26 31 -91 129 -233 245 -342 279 -74 23 -185 25 -249 5z
m212 -51 c33 -8 80 -27 105 -41 59 -34 203 -181 260 -266 25 -37 48 -67 52
-67 4 0 23 35 44 78 48 99 150 204 244 250 220 108 466 66 633 -107 100 -103
157 -236 157 -363 0 -32 4 -58 9 -58 5 0 51 56 101 125 158 216 301 351 420
396 153 58 309 19 394 -98 66 -90 106 -269 106 -470 0 -42 7 -176 16 -298 17
-230 15 -295 -20 -502 l-13 -83 41 -24 c111 -66 162 -159 136 -251 -11 -38 -9
-47 10 -86 57 -110 90 -271 90 -434 0 -58 7 -113 19 -156 10 -36 24 -99 31
-140 15 -91 53 -162 131 -244 31 -33 64 -75 74 -94 26 -51 16 -127 -23 -190
l-31 -50 62 -43 c99 -69 132 -138 108 -226 -15 -56 -43 -94 -92 -121 -47 -27
-49 -44 -10 -114 39 -68 51 -125 39 -180 -20 -89 -82 -142 -182 -155 l-56 -7
54 -73 c73 -96 87 -147 64 -223 -10 -35 -9 -42 14 -76 52 -78 88 -154 108
-225 10 -40 31 -95 45 -122 14 -27 25 -54 25 -61 0 -6 9 -28 20 -50 32 -62 27
-139 -11 -200 l-31 -48 56 -54 c31 -30 62 -67 71 -82 35 -69 28 -152 -20 -216
-31 -41 -113 -85 -175 -92 -28 -3 -53 -10 -56 -14 -2 -5 7 -25 20 -46 47 -71
98 -204 104 -268 3 -49 0 -69 -16 -102 -28 -54 -73 -91 -129 -105 l-46 -11 6
-106 c4 -58 18 -175 32 -260 66 -411 54 -668 -41 -915 -35 -92 -47 -115 -117
-224 -38 -60 -39 -63 -28 -106 39 -156 -22 -332 -144 -416 -68 -47 -142 -68
-319 -92 -158 -22 -160 -22 -197 -57 -50 -49 -151 -107 -229 -133 -89 -29
-331 -37 -440 -14 -152 32 -309 135 -371 245 -26 47 -28 48 -130 36 -54 -6
-58 -8 -88 -55 -67 -104 -200 -190 -346 -226 -97 -24 -325 -25 -415 -1 -92 24
-199 79 -259 133 l-50 45 -153 20 c-182 23 -215 31 -291 71 -116 62 -176 163
-186 313 -6 88 -7 92 -47 140 -129 154 -215 352 -249 571 -24 152 -16 409 20
634 14 91 29 215 32 276 6 123 11 113 -59 128 -37 8 -85 51 -108 97 -39 75
-18 180 66 337 48 89 49 86 -24 96 -49 7 -115 38 -150 70 -92 83 -77 228 33
319 44 37 57 69 34 83 -20 12 -49 88 -49 129 0 24 10 59 24 85 60 113 95 191
121 270 33 100 57 152 95 200 26 33 28 40 23 102 -7 79 10 121 82 208 l45 55
-55 7 c-104 14 -159 57 -185 144 -16 53 -2 122 40 200 16 31 30 63 30 70 0 8
-18 23 -39 34 -62 31 -94 81 -99 151 -3 35 1 72 8 89 16 39 79 95 163 143 57
34 66 43 75 79 9 34 8 47 -7 77 -44 85 -34 169 30 275 32 53 44 88 60 169 10
56 26 126 34 155 9 29 13 56 11 61 -10 15 13 267 30 337 9 38 38 114 64 169
33 71 44 107 39 120 -13 35 -10 116 7 151 20 42 70 87 135 119 l50 26 -7 202
c-5 177 -3 219 15 342 22 140 39 268 61 445 36 278 123 424 280 466 62 17 115
17 185 -2z"/>
<path d="M2800 8285 c-88 -40 -144 -127 -144 -225 0 -145 117 -251 262 -237
70 6 109 24 156 73 105 108 81 289 -48 369 -41 25 -61 30 -120 33 -48 1 -82
-3 -106 -13z m200 -69 c66 -43 98 -147 69 -223 -23 -62 -109 -123 -174 -123
-65 0 -151 61 -174 123 -15 39 -14 101 3 140 17 41 74 95 112 107 46 15 123 3
164 -24z"/>
<path d="M3902 6697 c-23 -46 -51 -105 -62 -133 -56 -127 -134 -364 -121 -364
4 0 17 35 30 78 34 116 87 254 147 381 63 132 67 161 6 38z"/>
<path d="M3999 6608 c-35 -57 -179 -351 -174 -356 6 -7 -6 -30 107 196 92 183
112 231 67 160z"/>
<path d="M1916 6580 c10 -39 52 -137 99 -230 77 -151 77 -130 2 30 -41 85 -81
171 -91 190 -10 22 -14 26 -10 10z"/>
<path d="M3666 6573 c-8 -8 -8 -101 0 -130 8 -30 34 -30 34 1 0 13 3 44 6 69
6 38 4 47 -13 56 -11 6 -23 7 -27 4z"/>
<path d="M2855 6536 c7 -34 7 -34 -30 -34 -22 0 -49 -8 -64 -20 -21 -16 -26
-27 -26 -63 0 -40 3 -46 37 -64 31 -17 42 -18 68 -8 17 6 32 7 36 2 3 -5 14
-9 25 -9 17 0 19 8 19 84 0 105 -13 146 -46 146 -23 0 -24 -3 -19 -34z m-14
-92 l24 -26 -29 -24 c-22 -20 -31 -22 -42 -13 -17 14 -18 61 -2 77 17 17 21
15 49 -14z"/>
<path d="M1770 6555 c0 -22 279 -430 287 -421 3 2 -33 58 -79 123 -46 66 -110
161 -142 211 -53 84 -66 101 -66 87z"/>
<path d="M2416 6515 c-13 -35 -5 -65 29 -100 28 -31 40 -37 65 -33 33 5 38 -3
15 -22 -9 -7 -27 -10 -45 -6 -37 7 -39 -7 -5 -22 42 -19 79 -14 106 14 21 22
24 35 24 97 0 66 -2 72 -21 75 -17 2 -24 -5 -33 -29 -13 -38 -39 -69 -56 -69
-14 0 -32 41 -37 80 -3 29 -32 39 -42 15z"/>
<path d="M3027 6520 c-47 -9 -65 -25 -73 -68 -6 -28 -2 -37 30 -67 33 -31 44
-35 91 -35 43 0 60 5 82 24 26 23 27 26 12 41 -15 15 -18 15 -42 -9 -27 -27
-65 -33 -98 -16 -32 18 -22 25 28 22 32 -2 55 2 68 12 l20 15 -20 37 c-23 43
-45 53 -98 44z m48 -41 c9 -28 -8 -43 -39 -35 -32 8 -34 29 -3 44 31 15 35 15
42 -9z"/>
<path d="M3211 6521 c-25 -16 -1 -31 48 -31 28 0 53 -6 60 -13 8 -11 5 -13
-18 -9 -41 6 -91 -23 -91 -52 0 -39 31 -57 109 -61 76 -4 75 -5 71 50 -3 49
-27 93 -59 109 -33 17 -98 21 -120 7z m114 -97 c17 -13 18 -16 5 -24 -22 -14
-56 -12 -69 4 -10 11 -8 17 6 25 24 14 34 13 58 -5z"/>
<path d="M3425 6520 c-7 -12 22 -139 36 -157 7 -7 20 -13 30 -13 14 0 20 10
25 40 4 21 15 47 25 56 16 14 23 15 49 4 38 -16 49 -7 25 20 -19 21 -78 27
-105 10 -11 -7 -17 -2 -27 21 -12 29 -45 40 -58 19z"/>
<path d="M2097 6513 c-13 -13 -7 -109 9 -131 25 -36 52 -28 65 21 6 23 16 51
22 62 10 19 10 19 18 0 4 -11 8 -32 8 -47 1 -17 9 -32 21 -38 27 -14 40 -5 40
28 1 26 25 70 34 61 2 -2 8 -24 13 -49 7 -36 13 -46 31 -48 19 -3 22 1 22 35
0 21 -9 53 -20 71 -21 34 -46 40 -81 22 -15 -8 -23 -7 -35 5 -22 21 -54 19
-81 -7 l-23 -21 0 21 c0 21 -28 31 -43 15z"/>
<path d="M3672 6374 c2 -11 11 -20 22 -22 13 -3 17 1 14 14 -2 11 -11 20 -22
22 -13 3 -17 -1 -14 -14z"/>
<path d="M1865 5928 c-17 -45 -105 -314 -105 -320 0 -4 20 -8 44 -8 40 0 44 2
52 33 9 30 12 32 59 32 47 0 49 -1 57 -32 8 -31 11 -33 53 -33 25 0 45 1 45 3
0 1 -24 76 -53 167 l-53 165 -47 3 c-32 2 -49 -1 -52 -10z m68 -136 l14 -62
-34 0 c-33 0 -35 2 -29 28 18 71 28 104 31 100 2 -2 10 -31 18 -66z"/>
<path d="M2127 5933 c-4 -3 -7 -80 -7 -170 l0 -163 115 0 115 0 0 35 0 34 -67
3 -68 3 -3 133 -3 132 -38 0 c-21 0 -41 -3 -44 -7z"/>
<path d="M2448 5770 l-56 -170 48 0 c47 0 48 1 54 35 7 34 8 35 56 35 48 0 49
-1 56 -35 6 -34 7 -35 56 -35 27 0 47 3 45 8 -3 4 -28 80 -56 170 l-52 162
-47 0 -47 0 -57 -170z m120 29 c16 -69 16 -69 -18 -69 -16 0 -30 4 -30 9 0 22
24 111 30 111 4 0 12 -23 18 -51z"/>
<path d="M2803 5924 c-59 -29 -68 -113 -16 -154 14 -11 43 -25 64 -32 21 -6
46 -19 54 -28 15 -16 14 -19 0 -34 -20 -20 -45 -20 -92 -1 -40 17 -48 13 -58
-26 -6 -23 -2 -28 26 -38 45 -16 145 -14 179 4 43 22 57 74 33 123 -15 31 -29
41 -83 63 -36 14 -65 31 -64 37 1 7 2 17 3 23 1 8 22 10 71 6 55 -5 70 -3 70
8 0 7 3 20 6 28 13 34 -133 50 -193 21z"/>
<path d="M3070 5770 l0 -170 45 0 44 0 3 78 3 77 44 -77 45 -78 48 0 c26 0 48
2 48 5 0 3 -22 41 -50 85 -27 44 -50 82 -50 86 0 3 13 24 28 47 16 23 39 59
51 80 l23 37 -51 0 -50 0 -43 -72 -43 -73 -3 73 -3 72 -44 0 -45 0 0 -170z"/>
<path d="M3495 5928 c-17 -45 -105 -314 -105 -320 0 -4 20 -8 44 -8 40 0 44 2
52 33 9 30 12 32 59 32 47 0 49 -1 57 -32 8 -31 11 -33 53 -33 54 0 55 -15
-15 195 l-47 140 -46 3 c-32 2 -49 -1 -52 -10z m69 -136 l14 -62 -35 0 c-28 0
-33 3 -29 18 3 9 8 31 11 47 11 49 17 67 21 63 2 -2 10 -32 18 -66z"/>
<path d="M3757 5934 c-4 -4 -7 -81 -7 -171 l0 -163 45 0 45 0 0 92 c0 50 3 88
8 84 4 -4 27 -44 52 -89 45 -81 46 -82 88 -85 l42 -3 0 170 0 171 -40 0 -39 0
-3 -96 -3 -97 -51 94 c-51 92 -53 94 -91 97 -21 2 -42 0 -46 -4z"/>
<path d="M1570 5407 c0 -15 -28 -239 -35 -284 l-6 -33 46 0 45 0 1 53 c0 28 4
75 8 102 8 56 11 51 31 -60 18 -98 16 -95 65 -95 l44 0 11 58 c21 104 28 134
33 138 3 3 8 -40 12 -95 l7 -101 45 0 44 0 -6 33 c-7 45 -35 269 -35 284 0 9
-17 13 -55 13 -62 0 -55 12 -80 -134 -8 -49 -16 -91 -19 -93 -2 -2 -11 38 -20
89 -27 152 -19 138 -81 138 -38 0 -55 -4 -55 -13z"/>
<path d="M2007 5255 l-55 -165 48 0 c45 0 48 2 54 30 5 29 8 30 56 30 48 0 51
-1 57 -30 5 -28 8 -30 53 -30 l48 0 -55 165 -55 165 -48 0 -48 0 -55 -165z
m118 48 c3 -21 9 -48 12 -60 4 -20 1 -23 -26 -23 -17 0 -31 4 -31 9 0 23 24
111 31 111 4 0 10 -17 14 -37z"/>
<path d="M2320 5255 l0 -165 115 0 115 0 0 35 0 35 -70 0 -70 0 0 130 0 130
-45 0 -45 0 0 -165z"/>
<path d="M2695 5408 c-10 -26 -105 -312 -105 -316 0 -2 21 -2 48 0 43 3 47 5
50 31 3 26 6 27 56 27 51 0 54 -1 60 -30 5 -28 8 -30 51 -30 25 0 45 3 45 7 0
4 -24 78 -52 165 l-53 158 -48 0 c-29 0 -49 -5 -52 -12z m65 -110 c6 -24 13
-51 16 -60 4 -15 -1 -18 -29 -18 l-35 0 15 60 c9 33 17 60 19 60 2 0 8 -19 14
-42z"/>
<path d="M2980 5418 c0 -2 -9 -73 -20 -158 -11 -85 -20 -158 -20 -162 0 -5 18
-8 39 -8 46 0 51 8 52 88 1 31 4 71 8 87 6 25 10 13 27 -70 l19 -100 47 -3 46
-3 18 100 c10 56 21 101 26 101 4 0 8 -24 8 -54 0 -29 3 -74 6 -100 l7 -46 41
0 42 0 -20 165 -20 166 -55 -3 -56 -3 -19 -114 c-22 -128 -26 -127 -51 22
l-17 97 -54 0 c-30 0 -54 -1 -54 -2z"/>
<path d="M3382 5286 c3 -127 4 -136 27 -160 55 -58 151 -58 208 -1 l33 33 0
131 0 131 -39 0 -39 0 -4 -120 c-2 -97 -6 -123 -20 -137 -14 -13 -23 -15 -45
-7 l-28 9 -3 128 -3 127 -45 0 -46 0 4 -134z"/>
<path d="M3710 5385 c0 -35 0 -35 45 -35 l45 0 0 -130 0 -130 45 0 45 0 0 130
0 130 50 0 50 0 0 35 0 35 -140 0 -140 0 0 -35z"/>
<path d="M4050 5255 l0 -165 110 0 110 0 0 35 0 35 -65 0 -65 0 0 35 0 35 60
0 60 0 0 30 0 30 -60 0 -60 0 0 30 0 30 65 0 65 0 0 35 0 35 -110 0 -110 0 0
-165z"/>
<path d="M2887 4017 c-2 -7 -1 -53 4 -102 6 -67 12 -93 25 -102 28 -20 33 -16
36 30 4 53 26 56 50 8 36 -72 85 -63 53 9 -14 31 -16 43 -7 52 7 7 12 18 12
26 0 15 -12 14 -92 -4 -27 -6 -28 -5 -28 33 0 39 -14 63 -36 63 -6 0 -14 -6
-17 -13z"/>
<path d="M2224 4005 c-4 -8 -2 -54 2 -102 7 -63 13 -89 26 -97 24 -15 32 -3
38 57 4 38 9 53 22 55 12 2 20 -8 28 -40 16 -58 24 -72 45 -76 16 -4 17 2 13
48 -6 64 -41 104 -90 105 -28 0 -33 4 -38 30 -6 33 -36 47 -46 20z"/>
<path d="M1930 4000 c-13 -9 -13 -11 0 -20 8 -5 34 -10 56 -10 l42 0 7 -57 c9
-70 24 -105 44 -101 13 3 15 17 12 84 l-3 81 52 -5 c47 -4 52 -3 48 14 -3 17
-15 19 -123 22 -68 1 -126 -2 -135 -8z"/>
<path d="M2661 3981 c-11 -7 -12 -23 -7 -72 11 -98 56 -133 76 -60 6 22 19 49
29 62 l18 23 19 -59 c29 -92 79 -83 52 9 -17 61 -36 78 -78 73 -19 -2 -43 -7
-52 -11 -12 -6 -17 -2 -20 15 -3 26 -17 33 -37 20z"/>
<path d="M2435 3970 c-12 -19 6 -29 51 -28 25 0 51 -5 57 -11 8 -8 2 -11 -24
-11 -47 0 -79 -24 -79 -59 0 -35 38 -54 97 -50 21 2 44 0 51 -5 24 -15 35 6
29 57 -7 58 -28 94 -63 107 -33 13 -111 13 -119 0z m109 -86 c21 -8 21 -30 0
-38 -22 -9 -64 4 -64 19 0 21 34 31 64 19z"/>
<path d="M3190 3941 c0 -57 43 -105 94 -105 39 0 44 -7 21 -26 -9 -7 -26 -9
-45 -5 -37 8 -40 -7 -5 -23 65 -30 119 3 130 80 11 70 4 102 -22 106 -18 3
-27 -6 -43 -42 -35 -74 -69 -71 -79 6 -5 35 -10 44 -28 46 -21 3 -23 -1 -23
-37z"/>
<path d="M3462 3965 c-57 -25 -65 -96 -15 -135 37 -29 89 -36 129 -16 43 20
50 37 35 86 -21 71 -78 96 -149 65z m88 -44 c16 -31 12 -69 -9 -81 -28 -15
-69 4 -77 35 -13 51 62 90 86 46z"/>
<path d="M3650 3935 c0 -91 86 -159 135 -106 17 20 17 20 46 -1 41 -31 60 -11
29 30 -12 16 -25 45 -29 63 -5 27 -12 34 -31 34 -20 0 -26 -8 -37 -44 -19 -65
-30 -71 -48 -28 -8 20 -15 48 -15 62 0 20 -5 25 -25 25 -22 0 -25 -4 -25 -35z"/>
<path d="M2105 3490 c-3 -5 -7 -31 -9 -57 -2 -46 -4 -48 -34 -51 -18 -2 -32
-7 -32 -12 0 -13 34 -30 59 -30 15 0 20 -8 23 -32 2 -25 8 -33 23 -33 17 0 20
6 17 38 -3 36 -2 37 30 37 18 0 40 5 48 10 13 9 13 11 0 20 -8 5 -30 10 -48
10 -36 0 -48 16 -38 55 9 35 23 31 41 -11 8 -20 20 -34 27 -32 23 8 20 35 -7
67 -20 23 -35 31 -60 31 -19 0 -37 -4 -40 -10z"/>
<path d="M2842 3488 c-16 -16 -15 -156 1 -188 12 -22 18 -25 63 -22 122 7 138
109 22 144 -29 8 -38 16 -38 33 0 20 -17 45 -30 45 -3 0 -11 -5 -18 -12z m96
-110 c17 -17 15 -35 -8 -58 -27 -27 -40 -17 -40 31 0 31 4 39 18 39 10 0 23
-5 30 -12z"/>
<path d="M3276 3492 c-8 -13 23 -72 39 -72 18 0 21 50 3 68 -14 14 -34 16 -42
4z"/>
<path d="M2518 3453 c-22 -5 -22 -7 -3 -91 11 -47 22 -72 37 -81 19 -12 23
-11 35 5 7 10 13 28 13 41 0 13 9 32 20 43 19 19 22 19 50 5 38 -19 53 0 20
27 -25 21 -47 23 -87 7 -19 -7 -29 -7 -31 0 -8 24 -38 48 -54 44z"/>
<path d="M3365 3449 c-9 -13 4 -118 16 -141 15 -28 48 -22 59 10 15 41 34 75
44 76 5 1 15 -21 23 -49 18 -63 28 -74 49 -53 16 15 15 21 -2 75 -18 56 -20
58 -56 61 -20 2 -46 -2 -58 -8 -17 -9 -22 -7 -30 15 -10 26 -34 33 -45 14z"/>
<path d="M3645 3450 c-25 -9 -40 -28 -49 -57 -11 -35 40 -85 87 -85 31 0 36
-2 26 -14 -7 -9 -31 -14 -63 -14 -47 -1 -49 -2 -32 -15 31 -24 79 -28 119 -11
l37 15 -6 73 c-5 60 -10 77 -31 96 -25 23 -53 27 -88 12z m64 -38 c13 -24 -8
-67 -33 -67 -31 0 -42 29 -23 59 20 30 42 33 56 8z"/>
<path d="M2315 3434 c-37 -19 -45 -31 -45 -70 0 -59 80 -105 145 -84 50 16 66
42 52 86 -24 77 -83 104 -152 68z m69 -20 c23 -9 41 -71 26 -89 -15 -18 -61
-20 -78 -3 -20 20 -14 65 10 82 26 18 22 18 42 10z"/>
<path d="M3072 3443 c-27 -5 -56 -57 -48 -87 15 -62 111 -103 176 -76 32 13
55 44 45 60 -9 15 -35 12 -41 -4 -9 -23 -57 -38 -86 -27 -43 16 -39 26 13 26
65 0 87 21 69 65 -19 46 -52 57 -128 43z m76 -51 c3 -19 -1 -22 -27 -22 -37 0
-50 19 -25 37 26 19 48 12 52 -15z"/>
<path d="M3280 3363 c0 -42 18 -84 38 -91 10 -3 12 11 10 59 -3 58 -5 64 -25
67 -20 3 -23 -1 -23 -35z"/>
<path d="M2934 2935 c7 -34 6 -35 -26 -35 -73 0 -122 -53 -99 -108 16 -38 49
-51 130 -50 l64 1 -6 93 c-6 102 -17 134 -48 134 -19 0 -20 -4 -15 -35z m-14
-90 l24 -26 -26 -26 c-31 -30 -54 -26 -64 12 -4 18 -1 32 11 45 23 26 27 25
55 -5z"/>
<path d="M3590 2951 c-5 -11 -10 -35 -10 -55 0 -30 -4 -35 -31 -41 -38 -9 -33
-29 9 -33 26 -3 32 -8 32 -26 0 -29 24 -61 38 -52 7 4 12 22 12 41 0 31 3 34
41 40 51 9 46 29 -9 33 -42 3 -42 3 -42 43 0 44 24 55 36 17 10 -33 24 -48 39
-42 16 7 4 47 -22 76 -22 25 -79 24 -93 -1z"/>
<path d="M4022 2958 c-13 -13 -15 -99 -4 -163 6 -31 12 -40 27 -40 19 0 20 6
17 95 -4 98 -16 132 -40 108z"/>
<path d="M1747 2919 c-27 -16 -10 -29 37 -29 23 0 51 -6 61 -14 17 -12 15 -13
-22 -12 -79 2 -116 -71 -50 -99 38 -16 146 -16 148 0 3 30 -5 74 -19 104 -24
51 -107 78 -155 50z m112 -102 c15 -19 4 -27 -35 -27 -34 0 -50 12 -39 30 9
15 61 12 74 -3z"/>
<path d="M2574 2915 c-8 -20 4 -112 17 -137 14 -25 46 -23 54 5 13 41 37 87
46 87 11 0 13 -6 29 -67 8 -31 16 -43 29 -43 28 0 32 25 13 83 -21 64 -51 79
-102 53 -41 -20 -38 -20 -42 6 -4 27 -35 36 -44 13z"/>
<path d="M3285 2920 c-9 -14 14 -120 31 -147 24 -38 50 -29 63 21 13 54 35 75
62 58 44 -28 68 -5 24 24 -24 16 -60 16 -96 0 -12 -5 -20 1 -29 23 -12 31 -42
42 -55 21z"/>
<path d="M2044 2886 c-9 -52 12 -105 49 -121 23 -9 37 -10 51 -3 13 7 26 7 43
-1 20 -9 30 -9 47 3 13 8 34 12 51 8 25 -4 27 -3 20 14 -5 10 -10 41 -13 67
-4 45 -6 48 -30 45 -20 -2 -28 -11 -36 -41 -14 -51 -30 -52 -34 -2 -4 44 -17
58 -43 44 -12 -6 -19 -24 -21 -52 -4 -60 -22 -48 -26 18 -3 51 -5 55 -27 55
-20 0 -25 -7 -31 -34z"/>
<path d="M2385 2910 c-57 -22 -65 -89 -16 -132 42 -38 116 -40 149 -5 12 13
22 31 22 41 0 26 -37 93 -55 100 -23 8 -76 7 -100 -4z m71 -28 c6 -4 16 -22
22 -39 9 -27 8 -36 -4 -48 -40 -39 -105 5 -85 58 12 32 43 46 67 29z"/>
<path d="M3055 2895 c-37 -36 -33 -76 10 -113 54 -48 123 -53 168 -14 20 18
23 48 5 54 -7 3 -21 -6 -31 -19 -22 -28 -87 -32 -108 -7 -12 15 -10 16 17 10
32 -7 84 7 95 26 10 16 -10 67 -31 78 -36 19 -99 12 -125 -15z m103 -32 c3
-20 -1 -23 -28 -23 -34 0 -52 26 -29 41 24 15 54 6 57 -18z"/>
<path d="M3755 2901 c-10 -32 13 -98 42 -120 31 -25 70 -27 95 -4 17 15 19 15
36 0 19 -17 44 -22 55 -11 4 4 -5 20 -18 36 -23 27 -29 45 -26 74 1 6 -5 17
-13 23 -24 20 -52 -3 -60 -48 -11 -74 -43 -65 -54 15 -6 40 -11 50 -29 52 -14
2 -23 -3 -28 -17z"/>
<path d="M2321 2491 c-7 -5 -16 -32 -19 -60 -4 -44 -7 -51 -27 -51 -12 0 -25
-3 -28 -7 -11 -11 14 -33 37 -33 18 0 25 -8 32 -37 13 -53 38 -51 42 4 3 41 4
42 43 45 55 4 53 21 -4 32 -47 9 -48 10 -45 45 4 44 18 45 37 2 14 -30 34 -40
45 -23 7 11 -21 64 -41 80 -19 14 -52 16 -72 3z"/>
<path d="M3414 2489 c-3 -5 -3 -22 1 -38 6 -27 5 -28 -34 -28 -105 0 -138
-106 -46 -150 29 -14 42 -15 65 -6 18 7 32 7 36 2 3 -5 15 -9 26 -9 20 0 21 3
14 93 -4 50 -9 102 -12 114 -6 22 -40 38 -50 22z m-16 -122 c20 -21 21 -25 6
-45 -21 -31 -62 -29 -70 2 -7 28 10 66 30 66 7 0 22 -10 34 -23z"/>
<path d="M2710 2480 c0 -5 5 -21 12 -35 12 -28 55 -37 44 -9 -3 9 -6 24 -6 35
0 14 -7 19 -25 19 -14 0 -25 -4 -25 -10z"/>
<path d="M2478 2445 c-11 -12 22 -150 39 -163 28 -20 47 -10 54 30 3 20 11 44
19 52 14 18 46 21 55 6 9 -15 35 -12 35 5 0 8 -13 21 -30 30 -25 13 -35 13
-68 2 -38 -13 -39 -13 -50 15 -9 26 -39 38 -54 23z"/>
<path d="M2860 2440 c-70 -17 -83 -88 -25 -139 30 -26 44 -31 88 -31 58 0 97
20 97 50 0 31 -19 33 -51 6 -34 -29 -66 -33 -95 -11 -18 13 -16 14 27 15 61 0
83 17 75 58 -12 50 -50 68 -116 52z m60 -40 c20 -37 -16 -55 -55 -27 -17 13
-17 15 6 30 30 22 36 21 49 -3z"/>
<path d="M3050 2413 c1 -116 53 -179 79 -94 6 21 19 49 29 62 l19 22 19 -59
c19 -59 45 -81 57 -50 7 18 -16 100 -33 121 -16 19 -74 19 -90 0 -18 -21 -28
-19 -32 8 -2 14 -11 23 -25 25 -20 3 -23 -1 -23 -35z"/>
<path d="M2720 2354 c0 -51 14 -84 35 -84 18 0 21 80 5 111 -20 36 -40 23 -40
-27z"/>
<path d="M3514 2305 c-4 -10 -1 -21 7 -26 20 -12 34 -5 34 17 0 24 -33 31 -41
9z"/>
<path d="M2510 1290 l0 -140 25 0 c24 0 25 2 25 64 0 65 14 96 44 96 26 0 36
-26 36 -92 0 -61 2 -68 20 -68 18 0 20 7 20 76 0 41 -5 84 -10 95 -12 21 -59
26 -91 9 -18 -10 -19 -7 -19 45 0 52 -1 55 -25 55 l-25 0 0 -140z"/>
<path d="M2250 1400 c0 -17 7 -20 40 -20 l40 0 0 -115 0 -115 25 0 25 0 0 115
0 115 40 0 c33 0 40 3 40 20 0 19 -7 20 -105 20 -98 0 -105 -1 -105 -20z"/>
<path d="M3360 1286 l0 -136 59 0 c33 0 71 4 85 10 52 19 60 94 13 119 l-24
13 23 23 c54 54 16 98 -87 103 l-69 4 0 -136z m128 65 c4 -28 -12 -41 -50 -41
-25 0 -28 3 -28 36 0 35 1 35 38 32 30 -2 38 -7 40 -27z m0 -93 c21 -21 14
-58 -14 -68 -53 -20 -64 -14 -64 35 0 44 1 45 33 45 18 0 38 -5 45 -12z"/>
<path d="M2740 1245 c0 -95 0 -95 25 -95 24 0 25 3 25 58 0 62 12 83 58 96 26
9 30 36 4 36 -10 0 -27 -7 -38 -15 -25 -19 -34 -19 -34 0 0 8 -9 15 -20 15
-19 0 -20 -7 -20 -95z"/>
<path d="M2942 1320 c-45 -42 -37 -133 14 -161 25 -13 95 -16 114 -4 5 3 7 12
4 19 -4 10 -13 12 -34 6 -33 -9 -73 7 -78 33 -3 15 5 17 62 17 l66 0 0 33 c0
68 -96 105 -148 57z m96 -22 c25 -25 13 -38 -33 -38 -30 0 -45 4 -45 13 0 19
21 37 45 37 12 0 26 -5 33 -12z"/>
<path d="M3155 1315 c-30 -29 -34 -97 -10 -132 30 -42 145 -52 145 -13 0 16
-4 17 -31 10 -32 -9 -66 1 -81 24 -15 22 -6 26 62 26 l70 0 0 30 c0 46 -39 80
-90 80 -30 0 -47 -6 -65 -25z m103 -17 c26 -26 13 -38 -38 -38 -54 0 -55 1
-40 31 12 22 59 26 78 7z"/>
</g>
</svg>
