<?xml version="1.0" standalone="no"?>
<!DOCTYPE svg PUBLIC "-//W3C//DTD SVG 20010904//EN"
 "http://www.w3.org/TR/2001/REC-SVG-20010904/DTD/svg10.dtd">
<svg version="1.0" xmlns="http://www.w3.org/2000/svg"
 width="580.000000pt" height="867.000000pt" viewBox="0 0 580.000000 867.000000"
 preserveAspectRatio="xMidYMid meet">

<g transform="translate(0.000000,867.000000) scale(0.100000,-0.100000)"
fill="#000000" stroke="none">
<path d="M1205 8446 c-208 -66 -343 -263 -365 -531 -14 -173 17 -533 61 -710
26 -101 92 -241 154 -324 26 -35 54 -79 61 -97 24 -58 45 -214 38 -290 -12
-134 22 -253 97 -337 l38 -44 -10 -59 c-15 -91 -12 -384 5 -507 39 -274 128
-577 224 -759 60 -116 155 -241 279 -367 l102 -104 -59 -64 c-69 -74 -132
-164 -166 -236 -29 -64 -78 -279 -94 -407 -18 -154 -38 -258 -105 -565 -35
-159 -66 -312 -70 -340 -15 -113 -38 -222 -55 -261 -9 -22 -50 -96 -90 -163
-118 -200 -170 -382 -170 -596 0 -164 36 -321 116 -512 l27 -62 -75 -70 c-126
-118 -176 -245 -156 -393 40 -291 358 -433 743 -333 55 15 141 37 190 50 l90
23 19 -26 c48 -66 130 -135 203 -169 66 -32 86 -37 175 -41 121 -6 189 8 281
55 76 40 164 127 200 200 l23 45 37 -60 c47 -76 140 -163 211 -196 80 -38 147
-49 263 -44 94 4 109 8 179 43 79 39 195 142 209 185 6 19 12 20 68 14 34 -4
78 -12 97 -19 231 -86 307 -101 438 -91 159 13 267 60 351 152 73 80 95 144
96 274 0 98 -2 109 -33 175 -25 53 -53 89 -116 151 l-83 81 24 47 c38 74 91
242 109 346 23 132 15 319 -20 455 -27 103 -88 242 -150 339 -70 110 -83 145
-106 296 -12 80 -51 276 -85 435 -35 162 -79 403 -100 545 -41 290 -36 266
-82 384 -37 95 -76 162 -140 239 -33 39 -41 59 -46 102 -3 29 -14 73 -25 97
l-19 44 64 69 c78 83 180 235 222 327 69 155 142 404 183 625 18 98 22 159 23
359 l2 241 42 38 c87 79 128 201 117 350 -6 85 13 241 38 298 7 18 41 70 74
117 125 172 177 372 201 765 21 335 -33 531 -184 674 -82 78 -168 114 -280
119 -156 7 -275 -37 -498 -184 -117 -77 -154 -109 -323 -281 l-192 -194 -21
68 c-59 196 -232 358 -430 403 -69 16 -193 16 -262 0 -162 -37 -324 -165 -394
-311 -19 -40 -38 -88 -41 -107 l-6 -33 -197 199 c-173 176 -211 209 -326 285
-144 95 -250 149 -340 172 -71 18 -204 19 -260 1z m266 -62 c79 -23 179 -75
309 -161 99 -66 147 -108 349 -312 l234 -236 13 70 c24 137 66 215 164 309
209 200 542 190 742 -23 92 -97 148 -225 148 -338 0 -24 4 -43 9 -43 4 0 104
99 220 220 191 198 225 228 344 308 193 130 282 173 404 192 130 21 257 -24
349 -123 62 -67 92 -121 126 -227 21 -67 23 -93 23 -255 -1 -194 -23 -414 -55
-553 -29 -121 -74 -222 -144 -320 -79 -110 -73 -99 -92 -168 -10 -37 -18 -129
-23 -245 -7 -175 -9 -190 -35 -242 -24 -51 -78 -110 -120 -134 -16 -9 -17 -21
-7 -144 22 -274 -25 -594 -135 -919 -72 -212 -148 -343 -292 -504 l-80 -89 29
-54 c21 -40 29 -69 29 -105 0 -45 5 -56 43 -102 69 -80 116 -157 148 -242 38
-98 41 -114 84 -409 19 -132 60 -352 90 -490 31 -137 62 -292 70 -343 8 -51
19 -118 24 -150 6 -31 13 -73 16 -92 3 -19 43 -100 90 -180 94 -161 138 -269
160 -397 21 -119 19 -297 -4 -408 -19 -92 -75 -254 -117 -337 l-24 -47 43 -32
c23 -18 61 -51 85 -73 162 -154 172 -380 23 -527 -90 -89 -209 -125 -386 -117
-87 4 -119 11 -239 52 -101 35 -160 49 -215 53 l-76 5 -45 -63 c-103 -143
-266 -210 -440 -180 -184 33 -322 169 -371 369 -7 28 -16 52 -19 52 -4 0 -14
-28 -24 -62 -57 -204 -186 -328 -374 -359 -175 -29 -349 46 -443 192 -18 27
-37 49 -42 49 -5 0 -105 -25 -223 -55 -181 -46 -229 -55 -302 -55 -224 1 -366
72 -436 220 -27 57 -31 76 -31 150 0 70 5 95 26 140 29 63 108 153 179 205
l50 36 -29 58 c-40 78 -97 244 -116 337 -18 88 -21 280 -5 378 12 78 54 214
82 271 11 22 51 92 88 155 85 146 94 171 125 363 14 87 39 215 55 285 69 305
100 467 120 615 11 87 34 214 50 282 42 177 83 252 210 390 41 43 70 84 70 96
0 13 -28 47 -76 92 -152 142 -296 337 -357 482 -71 170 -143 433 -174 635 -21
137 -23 428 -5 539 l13 74 -40 34 c-22 18 -52 59 -67 90 -26 52 -28 67 -35
242 -7 178 -22 270 -51 324 -6 12 -34 51 -61 87 -100 130 -151 282 -183 545
-22 186 -25 476 -5 555 49 198 183 347 341 380 56 11 151 5 221 -16z"/>
<path d="M2805 7941 c-178 -81 -191 -324 -22 -421 43 -25 63 -30 117 -30 213
0 316 247 167 400 -45 46 -101 70 -167 70 -32 0 -72 -8 -95 -19z m184 -62
c115 -64 120 -233 10 -306 -91 -60 -217 -25 -261 74 -38 87 -8 186 72 232 48
28 130 28 179 0z"/>
<path d="M3876 6793 c-50 -100 -111 -249 -144 -356 -42 -132 -45 -143 -37
-135 3 3 29 72 56 153 26 80 76 203 109 272 63 133 76 185 16 66z"/>
<path d="M3970 6698 c-34 -54 -157 -301 -164 -328 -4 -14 26 40 67 120 40 80
85 166 101 193 31 52 27 66 -4 15z"/>
<path d="M1944 6665 c10 -41 155 -339 162 -333 3 3 -15 43 -40 89 -24 46 -61
125 -81 174 -40 97 -52 118 -41 70z"/>
<path d="M3646 6663 c-10 -10 -7 -113 5 -134 18 -34 29 -10 29 61 0 49 -4 69
-14 73 -8 3 -17 3 -20 0z"/>
<path d="M2860 6624 c0 -27 -4 -35 -14 -31 -24 9 -84 -12 -101 -36 -20 -29
-19 -60 4 -88 16 -20 29 -23 95 -25 l76 -3 0 78 c0 93 -14 141 -41 141 -15 0
-19 -7 -19 -36z m-18 -81 c10 -9 18 -21 18 -26 0 -17 -32 -47 -50 -47 -29 0
-41 55 -18 78 16 16 28 15 50 -5z"/>
<path d="M1810 6630 c41 -79 258 -395 267 -387 2 3 -29 51 -70 108 -40 57 -97
142 -127 189 -56 89 -94 139 -70 90z"/>
<path d="M2125 6603 c-25 -25 -16 -110 15 -135 28 -23 45 -11 54 36 3 18 13
41 20 52 13 17 15 16 21 -21 13 -70 48 -89 60 -32 15 68 40 75 49 13 7 -43 26
-63 48 -50 13 8 2 82 -18 112 -16 25 -62 30 -83 10 -10 -11 -14 -10 -22 5 -12
21 -62 23 -79 2 -16 -19 -30 -19 -30 -1 0 23 -17 28 -35 9z"/>
<path d="M2426 6596 c-13 -52 37 -116 91 -116 33 0 43 -12 21 -26 -7 -5 -26
-7 -43 -6 -28 3 -29 2 -13 -14 19 -19 66 -21 97 -5 26 14 43 73 39 131 -2 37
-7 46 -24 48 -16 2 -25 -7 -39 -38 -10 -22 -24 -45 -32 -52 -21 -17 -46 13
-47 59 -1 31 -5 39 -22 41 -16 2 -23 -4 -28 -22z"/>
<path d="M3011 6610 c-36 -8 -47 -20 -58 -59 -12 -49 56 -111 122 -111 37 0
95 34 95 55 0 19 -32 33 -38 17 -2 -7 -16 -19 -32 -27 -22 -11 -35 -12 -59 -4
-40 14 -40 30 -1 23 35 -8 90 12 90 33 0 40 -47 88 -80 82 -3 -1 -20 -5 -39
-9z m57 -32 c21 -21 14 -38 -15 -38 -46 0 -59 15 -32 34 28 19 31 20 47 4z"/>
<path d="M3203 6614 c-7 -3 -9 -12 -7 -19 4 -10 21 -14 51 -13 24 0 50 -5 56
-11 8 -8 2 -11 -24 -11 -44 0 -79 -24 -79 -55 0 -35 43 -54 118 -53 59 1 62 2
62 26 0 39 -21 100 -42 119 -18 16 -110 28 -135 17z m108 -95 c27 -14 14 -29
-25 -29 -39 0 -50 8 -35 27 14 16 33 17 60 2z"/>
<path d="M3410 6600 c0 -47 23 -126 42 -143 24 -20 48 -8 48 24 0 54 46 89 77
58 12 -12 33 -4 33 12 0 5 -15 16 -33 25 -30 14 -37 14 -70 0 -34 -14 -37 -14
-37 3 0 22 -19 41 -42 41 -11 0 -18 -7 -18 -20z"/>
<path d="M3653 6483 c-18 -6 -4 -33 18 -33 10 0 19 4 19 9 0 13 -24 29 -37 24z"/>
<path d="M1870 5845 l0 -175 78 0 c103 0 148 13 167 50 28 55 16 93 -40 123
-17 9 -23 16 -14 17 23 0 59 43 59 71 0 60 -62 89 -190 89 l-60 0 0 -175z
m164 82 c9 -15 7 -21 -8 -33 -11 -8 -30 -14 -43 -14 -20 0 -23 5 -23 36 0 34
1 35 31 32 18 -2 37 -11 43 -21z m-10 -120 c11 -8 17 -23 14 -38 -2 -20 -9
-25 -40 -27 l-38 -3 0 40 c0 36 3 41 23 41 13 0 31 -6 41 -13z"/>
<path d="M2218 5845 l-55 -175 47 0 c47 0 48 1 54 36 l7 35 51 -3 c49 -3 52
-5 60 -35 8 -32 11 -33 58 -33 l48 0 -57 173 -58 172 -49 3 -50 3 -56 -176z
m134 -18 c2 -18 -2 -23 -29 -25 -37 -4 -36 -5 -22 58 16 75 21 79 35 32 7 -23
14 -52 16 -65z"/>
<path d="M2594 6011 c-32 -14 -64 -60 -64 -92 0 -40 43 -85 103 -107 63 -24
81 -47 52 -68 -21 -16 -60 -12 -107 11 -25 12 -27 11 -37 -18 -14 -40 -3 -53
59 -66 109 -23 193 20 193 99 0 53 -28 83 -103 108 -46 16 -55 23 -55 43 0 22
4 24 50 24 28 -1 59 -3 69 -5 16 -4 21 2 27 28 4 19 2 35 -4 39 -18 11 -160
14 -183 4z"/>
<path d="M2860 5845 l0 -175 115 0 115 0 0 35 0 35 -70 0 -70 0 0 35 0 35 65
0 65 0 0 35 0 35 -66 0 -65 0 3 33 3 32 68 3 67 3 0 34 0 35 -115 0 -115 0 0
-175z"/>
<path d="M3160 5845 l0 -175 45 0 44 0 3 95 3 96 51 -93 51 -93 46 -3 47 -3 0
175 0 176 -45 0 -44 0 -3 -97 -3 -98 -53 98 -53 97 -44 0 -45 0 0 -175z"/>
<path d="M3658 5896 c-2 -83 -8 -129 -17 -140 -15 -18 -72 -21 -103 -5 -24 13
-24 13 -32 -28 -9 -41 15 -55 100 -56 119 -1 144 39 144 228 l0 125 -44 0 -44
0 -4 -124z"/>
<path d="M3830 5845 l0 -175 50 0 50 0 0 175 0 175 -50 0 -50 0 0 -175z"/>
<path d="M2243 3744 c-7 -19 5 -176 15 -186 23 -22 36 -11 47 42 13 70 34 73
56 7 18 -54 32 -72 48 -63 15 10 14 39 -5 86 -18 46 -38 60 -83 60 -24 0 -31
4 -31 19 0 46 -33 71 -47 35z"/>
<path d="M2887 3753 c-3 -4 -1 -48 3 -98 7 -66 13 -93 26 -102 24 -17 34 -8
34 32 0 50 26 53 50 5 13 -26 27 -40 40 -40 24 0 26 20 4 61 -14 29 -14 32 3
44 14 11 15 16 6 26 -10 10 -20 10 -50 0 -21 -7 -42 -13 -48 -14 -5 -1 -12 18
-15 43 -4 37 -9 46 -27 48 -11 2 -23 0 -26 -5z"/>
<path d="M1972 3743 c-41 -8 -17 -28 36 -31 l52 -3 0 -45 c0 -54 23 -114 44
-114 13 0 14 12 9 80 l-6 80 52 0 c37 0 51 4 51 14 0 7 -10 16 -22 20 -25 6
-180 6 -216 -1z"/>
<path d="M2457 3713 c-34 -9 -10 -28 39 -31 53 -3 87 -22 41 -22 -45 0 -87
-27 -87 -55 0 -35 39 -57 92 -54 24 2 49 -1 56 -5 36 -22 41 59 7 123 -21 41
-85 60 -148 44z m101 -95 c7 -7 12 -15 12 -19 0 -14 -31 -18 -56 -9 -22 9 -24
13 -14 25 15 18 42 19 58 3z"/>
<path d="M2663 3649 c6 -76 11 -85 40 -91 15 -2 23 9 39 50 21 57 42 67 52 25
18 -75 45 -106 60 -67 8 21 -12 94 -31 117 -20 21 -61 22 -90 2 -20 -14 -22
-14 -25 7 -2 15 -11 24 -27 26 -24 4 -24 4 -18 -69z"/>
<path d="M3187 3714 c-18 -18 -6 -75 22 -106 23 -26 36 -32 65 -31 41 1 42 0
20 -22 -11 -11 -25 -14 -45 -10 -41 9 -37 -11 5 -25 41 -13 78 -1 101 34 23
35 17 149 -8 154 -12 2 -22 -7 -31 -30 -8 -18 -24 -42 -35 -52 -28 -25 -43
-11 -50 46 -6 41 -26 60 -44 42z"/>
<path d="M3425 3686 c-35 -35 -33 -77 5 -109 40 -34 80 -41 124 -23 48 20 55
52 24 108 -22 41 -25 43 -76 46 -44 3 -55 -1 -77 -22z m111 -42 c12 -28 12
-39 3 -50 -14 -17 -61 -18 -77 -2 -18 18 -15 65 6 77 33 20 53 12 68 -25z"/>
<path d="M3632 3660 c8 -83 82 -136 126 -92 17 17 23 18 32 7 14 -17 48 -26
56 -14 3 5 -4 21 -15 35 -11 14 -23 42 -27 61 -4 19 -13 37 -20 40 -19 7 -44
-15 -44 -38 0 -10 -5 -30 -10 -45 -10 -24 -13 -26 -26 -13 -8 8 -18 35 -22 60
-6 36 -12 45 -31 47 -23 4 -24 2 -19 -48z"/>
<path d="M2132 3238 c-7 -7 -12 -31 -12 -54 0 -38 -2 -42 -31 -48 -39 -8 -33
-30 9 -34 28 -3 32 -7 32 -31 0 -31 23 -57 40 -46 6 4 10 23 8 44 -3 36 -3 36
40 39 55 4 51 26 -5 30 -45 3 -57 18 -47 58 8 32 22 30 37 -3 13 -31 27 -44
39 -37 28 18 -30 94 -71 94 -15 0 -32 -5 -39 -12z"/>
<path d="M2842 3238 c-15 -15 -16 -119 -1 -170 10 -37 11 -38 60 -38 42 0 55
5 80 29 16 16 29 35 29 41 0 21 -58 70 -89 76 -26 5 -31 11 -31 34 0 16 -7 30
-16 34 -20 8 -18 8 -32 -6z m86 -104 c26 -18 28 -31 5 -56 -28 -31 -43 -22
-43 27 0 49 5 53 38 29z"/>
<path d="M3265 3240 c-9 -14 23 -70 40 -70 17 0 20 32 5 61 -11 20 -35 25 -45
9z"/>
<path d="M2522 3201 c-11 -6 -10 -20 3 -76 17 -76 29 -95 55 -95 13 0 20 11
25 39 8 51 38 80 65 63 26 -16 40 -15 40 3 0 26 -46 40 -89 29 -36 -10 -39 -9
-54 18 -17 30 -24 33 -45 19z"/>
<path d="M3357 3204 c-4 -4 -7 -26 -6 -48 1 -104 51 -150 77 -72 26 80 45 85
62 15 13 -51 32 -71 52 -51 19 19 -12 114 -43 131 -23 13 -29 12 -59 -2 -41
-21 -38 -21 -42 5 -3 23 -27 35 -41 22z"/>
<path d="M3615 3198 c-28 -16 -35 -28 -35 -65 0 -40 42 -76 82 -71 19 3 28 0
28 -9 0 -14 -15 -17 -72 -14 -46 3 -48 -3 -8 -24 35 -18 70 -19 106 -3 25 12
26 14 22 86 -3 63 -7 77 -27 93 -26 21 -66 24 -96 7z m71 -43 c7 -30 -10 -55
-38 -55 -24 0 -33 25 -20 56 15 32 50 32 58 -1z"/>
<path d="M2335 3190 c-34 -13 -46 -36 -43 -76 5 -68 90 -104 158 -69 16 8 31
24 35 34 6 20 -15 72 -43 104 -16 18 -71 22 -107 7z m79 -42 c29 -42 11 -88
-33 -88 -16 0 -51 38 -51 55 0 19 36 55 54 55 8 0 22 -10 30 -22z"/>
<path d="M3045 3175 c-37 -36 -33 -76 10 -114 47 -41 119 -44 162 -7 23 20 25
26 14 40 -12 14 -16 13 -43 -9 -33 -28 -65 -32 -94 -11 -18 14 -16 15 22 14
60 -1 87 17 79 50 -11 45 -34 62 -82 62 -33 0 -50 -6 -68 -25z m98 -24 c6 -24
0 -31 -28 -31 -30 0 -49 22 -33 38 19 19 55 14 61 -7z"/>
<path d="M3277 3153 c-21 -21 2 -123 28 -123 11 0 15 12 15 53 0 59 -21 93
-43 70z"/>
<path d="M2935 2730 c-4 -6 -4 -23 0 -38 5 -26 4 -27 -33 -27 -59 0 -92 -27
-92 -74 0 -58 25 -74 115 -77 l75 -2 -6 77 c-8 113 -13 138 -30 145 -21 8 -22
8 -29 -4z m-17 -112 c17 -17 15 -38 -5 -60 -22 -25 -41 -23 -54 6 -21 45 26
87 59 54z"/>
<path d="M3581 2731 c-7 -5 -16 -32 -19 -60 -4 -48 -6 -51 -33 -51 -16 0 -29
-4 -29 -10 0 -14 37 -31 54 -24 12 5 16 0 16 -18 0 -31 23 -63 38 -54 7 4 12
23 12 42 0 30 3 34 28 34 15 0 33 4 41 9 23 15 2 31 -40 31 -39 0 -39 0 -39
40 0 49 16 52 36 5 15 -37 44 -48 44 -16 0 11 -12 33 -26 50 -26 31 -56 39
-83 22z"/>
<path d="M3987 2723 c-11 -10 -8 -149 3 -177 5 -14 16 -26 25 -26 12 0 15 14
15 74 0 114 -15 158 -43 129z"/>
<path d="M2591 2691 c-11 -7 -12 -22 -7 -66 13 -109 48 -128 81 -43 11 28 25
53 31 55 6 2 17 -20 25 -49 11 -42 19 -53 34 -53 17 0 20 6 18 38 -4 65 -23
92 -67 95 -21 2 -43 -1 -49 -7 -17 -17 -24 -13 -31 14 -7 27 -13 30 -35 16z"/>
<path d="M1775 2679 c-11 -17 4 -24 51 -24 24 0 49 -6 56 -13 9 -9 4 -12 -28
-12 -72 0 -107 -46 -64 -85 14 -13 39 -18 90 -21 l70 -2 0 34 c0 46 -22 98
-51 118 -26 18 -114 22 -124 5z m114 -92 c15 -19 4 -27 -34 -27 -17 0 -35 3
-38 7 -11 11 14 33 38 33 12 0 28 -6 34 -13z"/>
<path d="M2077 2683 c-4 -3 -7 -28 -7 -54 0 -54 31 -101 65 -99 11 1 43 1 72
0 28 0 54 4 58 10 3 5 17 7 30 4 23 -6 24 -5 18 53 -3 32 -9 62 -13 66 -16 18
-47 -4 -56 -39 -12 -46 -28 -45 -34 3 -4 30 -10 39 -27 41 -13 2 -23 0 -24 -5
-2 -31 -9 -68 -14 -82 -10 -27 -25 8 -25 62 0 39 -3 47 -18 47 -10 0 -22 -3
-25 -7z"/>
<path d="M2400 2677 c-34 -17 -55 -57 -46 -91 15 -58 118 -86 170 -45 31 24
33 47 6 98 -26 53 -74 67 -130 38z m91 -65 c10 -31 9 -37 -7 -49 -24 -18 -49
-16 -69 3 -23 23 -15 66 14 80 33 17 48 8 62 -34z"/>
<path d="M3085 2683 c-57 -14 -74 -80 -32 -128 51 -60 187 -48 187 17 0 24
-22 23 -45 -2 -21 -23 -72 -27 -99 -7 -16 11 -11 13 33 13 67 0 86 17 70 62
-16 47 -50 60 -114 45z m63 -51 c3 -19 -1 -22 -27 -22 -37 0 -50 19 -25 37 26
19 48 12 52 -15z"/>
<path d="M3270 2674 c0 -31 32 -139 43 -146 28 -18 44 -8 51 30 3 21 14 46 25
56 18 16 21 16 44 1 35 -23 49 1 16 27 -22 19 -48 20 -91 3 -13 -5 -20 0 -28
19 -11 30 -60 38 -60 10z"/>
<path d="M3737 2684 c-10 -11 -8 -57 4 -92 19 -55 83 -79 121 -45 17 15 19 15
36 0 23 -21 52 -22 52 -2 0 8 -4 15 -9 15 -10 0 -29 45 -33 80 -2 19 -10 26
-30 28 -23 3 -28 -1 -33 -25 -10 -43 -24 -73 -34 -73 -10 0 -28 49 -33 90 -3
24 -27 38 -41 24z"/>
<path d="M2350 2273 c-23 -9 -30 -24 -30 -70 0 -38 -3 -43 -23 -43 -13 0 -27
-3 -30 -7 -12 -11 14 -33 39 -33 18 0 24 -6 24 -22 0 -33 15 -52 35 -44 12 4
16 15 13 38 -3 32 -1 33 36 38 66 8 50 39 -21 40 -24 0 -31 14 -25 47 6 31 18
29 37 -7 15 -29 45 -42 45 -20 0 21 -30 70 -49 80 -21 11 -28 11 -51 3z"/>
<path d="M2720 2254 c0 -24 19 -54 35 -54 15 0 20 26 9 54 -8 21 -44 21 -44 0z"/>
<path d="M3400 2237 c0 -31 -2 -33 -35 -34 -69 -2 -111 -55 -86 -109 14 -32
66 -54 101 -44 15 4 39 6 54 3 l26 -5 0 79 c0 95 -14 143 -41 143 -15 0 -19
-7 -19 -33z m-14 -88 c13 -15 16 -24 8 -36 -28 -45 -74 -42 -74 5 0 51 34 67
66 31z"/>
<path d="M2490 2205 c0 -53 22 -125 43 -140 26 -18 47 -4 47 32 0 53 46 83 77
52 14 -14 34 -3 27 15 -10 27 -52 37 -93 23 -37 -13 -38 -13 -49 15 -14 37
-52 40 -52 3z"/>
<path d="M2861 2220 c-76 -18 -81 -105 -9 -151 57 -35 168 -10 168 38 0 23
-30 27 -45 5 -18 -25 -56 -35 -89 -22 -40 15 -31 25 24 25 56 0 75 13 67 47
-14 54 -52 74 -116 58z m59 -39 c5 -11 10 -22 10 -24 0 -12 -33 -15 -58 -6
l-27 11 24 19 c29 24 38 24 51 0z"/>
<path d="M3046 2221 c-5 -8 11 -128 19 -142 3 -3 14 -9 24 -12 17 -4 23 4 36
43 9 27 23 54 30 60 16 14 17 13 35 -57 12 -50 28 -63 46 -39 10 15 10 26 -1
62 -7 25 -19 51 -25 59 -16 19 -60 19 -87 0 -21 -15 -23 -14 -29 10 -6 24 -37
35 -48 16z"/>
<path d="M2727 2174 c-21 -21 2 -114 28 -114 23 0 17 113 -5 118 -9 1 -19 0
-23 -4z"/>
<path d="M3492 2083 c2 -10 14 -19 26 -21 19 -3 23 1 20 15 -2 10 -14 19 -26
21 -19 3 -23 -1 -20 -15z"/>
<path d="M2520 1505 l0 -135 25 0 c24 0 25 2 25 64 0 65 14 96 44 96 26 0 36
-26 36 -92 0 -61 2 -68 20 -68 18 0 20 7 20 73 0 49 -5 80 -16 95 -16 24 -53
29 -85 12 -18 -10 -19 -7 -19 40 0 47 -2 50 -25 50 l-25 0 0 -135z"/>
<path d="M2270 1615 c0 -11 11 -15 40 -15 l40 0 0 -115 c0 -108 1 -115 20
-115 18 0 20 8 22 113 l3 112 38 3 c24 2 37 8 37 18 0 11 -20 14 -100 14 -82
0 -100 -3 -100 -15z"/>
<path d="M3350 1500 l0 -130 53 1 c72 1 99 11 116 40 19 34 7 75 -27 93 -15 9
-22 15 -15 16 20 0 43 30 43 55 0 37 -35 55 -107 55 l-63 0 0 -130z m121 84
c20 -24 -1 -48 -45 -52 -35 -3 -36 -2 -36 32 0 34 2 36 34 36 18 0 39 -7 47
-16z m9 -114 c18 -34 -4 -60 -50 -60 -40 0 -40 0 -40 40 0 40 0 40 40 40 29 0
42 -5 50 -20z"/>
<path d="M2750 1465 c0 -88 1 -95 20 -95 17 0 20 7 20 53 0 60 17 92 55 101
14 4 25 13 25 21 0 19 -13 19 -50 0 -27 -14 -30 -14 -30 0 0 8 -9 15 -20 15
-19 0 -20 -7 -20 -95z"/>
<path d="M2945 1537 c-18 -15 -28 -36 -32 -64 -5 -37 -2 -45 26 -73 27 -27 36
-31 78 -28 35 2 49 7 51 20 3 14 -3 15 -37 11 -42 -6 -71 8 -71 33 0 11 17 14
66 14 l67 0 -6 38 c-12 69 -88 96 -142 49z m95 -28 c15 -28 10 -31 -44 -27
-46 3 -46 3 -31 26 20 28 61 29 75 1z"/>
<path d="M3153 1536 c-23 -20 -28 -32 -28 -71 0 -39 5 -51 29 -71 23 -20 37
-24 75 -22 33 2 47 8 49 20 3 14 -3 15 -37 11 -42 -6 -71 8 -71 33 0 11 17 14
66 14 l67 0 -6 38 c-12 70 -88 96 -144 48z m97 -27 c15 -28 10 -31 -44 -27
-46 3 -46 3 -31 26 20 28 61 29 75 1z"/>
</g>
</svg>
