<?xml version="1.0" standalone="no"?>
<!DOCTYPE svg PUBLIC "-//W3C//DTD SVG 20010904//EN"
 "http://www.w3.org/TR/2001/REC-SVG-20010904/DTD/svg10.dtd">
<svg version="1.0" xmlns="http://www.w3.org/2000/svg"
 width="580.000000pt" height="867.000000pt" viewBox="0 0 580.000000 867.000000"
 preserveAspectRatio="xMidYMid meet">

<g transform="translate(0.000000,867.000000) scale(0.100000,-0.100000)"
fill="#000000" stroke="none">
<path d="M2728 8434 c-222 -71 -378 -285 -378 -517 0 -46 6 -107 14 -137 8
-30 12 -58 8 -61 -4 -4 -41 -19 -82 -34 -110 -41 -273 -126 -395 -206 -106
-70 -283 -230 -355 -322 -27 -34 -48 -49 -98 -66 -80 -29 -244 -128 -358 -216
-119 -91 -279 -254 -336 -340 -142 -216 -201 -400 -269 -847 -59 -396 -71
-438 -199 -722 -137 -305 -170 -441 -170 -706 0 -250 35 -422 115 -566 51 -90
111 -152 230 -234 148 -102 181 -150 260 -382 57 -167 102 -258 163 -331 41
-50 111 -110 168 -143 18 -11 18 -14 1 -104 -25 -127 -59 -232 -127 -385 -87
-197 -112 -281 -117 -405 -10 -209 49 -462 149 -636 l49 -87 -21 -51 c-100
-247 22 -482 286 -551 32 -8 118 -20 193 -26 l136 -12 53 -48 c59 -54 148
-101 237 -125 93 -25 332 -31 436 -9 164 33 308 112 386 213 37 48 40 50 134
71 74 18 110 21 160 15 57 -6 67 -11 94 -43 109 -130 212 -200 360 -243 70
-20 102 -23 255 -23 136 0 189 4 240 18 94 25 182 71 242 126 l53 48 135 12
c74 7 162 19 195 27 137 35 253 130 294 239 28 74 28 190 1 278 l-20 65 44 74
c60 101 110 232 138 358 18 83 23 136 23 255 l0 150 -41 115 c-23 63 -64 169
-92 236 -54 130 -97 285 -110 404 -9 70 -8 76 12 89 45 30 124 124 163 193 23
40 65 140 93 223 86 248 115 291 265 395 119 82 179 144 230 234 80 144 115
316 115 566 0 265 -33 401 -170 706 -128 284 -140 326 -199 722 -68 445 -127
633 -268 844 -126 191 -435 445 -659 543 -66 29 -80 41 -169 144 -54 62 -134
142 -179 178 -152 121 -364 241 -532 302 l-91 32 14 52 c63 243 -75 526 -307
630 -122 55 -273 63 -402 21z m287 -39 c192 -50 336 -200 375 -390 16 -75 7
-186 -20 -257 -11 -29 -20 -54 -20 -54 0 -1 21 -7 46 -13 81 -21 245 -90 339
-143 217 -123 330 -214 480 -388 73 -84 89 -98 143 -118 177 -68 494 -316 619
-485 166 -227 222 -403 308 -977 43 -286 63 -352 210 -680 26 -58 61 -143 77
-190 107 -313 85 -761 -49 -990 -41 -69 -119 -146 -216 -212 -149 -103 -192
-168 -282 -428 -26 -74 -62 -163 -81 -197 -39 -70 -119 -162 -168 -192 l-32
-20 12 -89 c25 -185 63 -317 144 -507 90 -211 104 -263 104 -405 0 -235 -67
-465 -184 -635 l-32 -46 27 -84 c74 -227 -30 -405 -267 -460 -35 -7 -123 -19
-197 -24 l-134 -11 -58 -55 c-109 -104 -223 -139 -449 -139 -175 1 -258 17
-371 75 -70 35 -176 130 -204 183 -17 31 -25 36 -80 45 -90 16 -149 13 -253
-13 -80 -19 -95 -26 -111 -52 -29 -47 -129 -133 -194 -165 -109 -56 -194 -72
-367 -73 -116 0 -171 4 -220 17 -97 26 -181 71 -238 127 l-50 51 -134 10
c-155 12 -239 29 -308 64 -72 36 -116 79 -147 143 -25 50 -28 68 -28 152 0 85
4 101 31 157 l30 62 -34 53 c-117 183 -176 394 -176 628 0 145 15 202 114 425
81 184 121 318 145 487 l6 46 -61 33 c-68 36 -148 117 -198 201 -18 31 -58
125 -87 209 -95 269 -132 323 -283 427 -49 34 -114 88 -145 122 -133 143 -196
381 -184 698 7 212 40 345 140 567 150 335 169 398 212 685 86 574 142 750
308 977 131 177 446 421 634 491 71 25 79 32 156 121 182 211 438 382 727 487
58 21 107 39 108 40 2 2 -6 28 -17 59 -28 74 -37 184 -21 260 56 278 337 459
605 390z"/>
<path d="M2799 8173 c-74 -38 -111 -93 -117 -172 -5 -71 10 -121 51 -167 90
-103 244 -103 334 0 64 72 71 191 17 269 -37 54 -119 97 -184 97 -31 0 -65 -9
-101 -27z m182 -48 c152 -79 92 -315 -81 -315 -144 0 -223 172 -127 276 56 61
137 75 208 39z"/>
<path d="M3810 5920 c-69 -138 -179 -435 -165 -448 2 -3 7 1 9 9 69 219 114
335 177 462 16 31 27 57 24 57 -3 0 -23 -36 -45 -80z"/>
<path d="M3887 5818 c-72 -129 -152 -298 -141 -298 2 0 24 42 48 93 23 50 64
130 90 175 26 46 45 86 43 88 -3 3 -20 -23 -40 -58z"/>
<path d="M2024 5763 c44 -103 126 -266 131 -261 3 2 -19 51 -49 109 -29 57
-64 132 -77 167 -13 34 -27 62 -31 62 -4 0 8 -35 26 -77z"/>
<path d="M3597 5813 c-4 -3 -7 -25 -7 -47 0 -98 33 -120 44 -30 7 64 -11 103
-37 77z"/>
<path d="M2860 5780 c0 -25 -4 -30 -24 -30 -64 0 -105 -42 -92 -95 9 -35 66
-60 107 -46 18 6 31 6 34 0 4 -5 13 -9 21 -9 11 0 14 16 14 74 0 88 -14 136
-41 136 -14 0 -19 -7 -19 -30z m-18 -77 c10 -9 18 -22 18 -29 0 -18 -39 -44
-56 -37 -17 6 -18 55 -2 71 15 15 18 15 40 -5z"/>
<path d="M1880 5779 c21 -40 198 -302 225 -334 40 -45 20 -12 -71 118 -46 65
-97 142 -114 172 -31 54 -64 90 -40 44z"/>
<path d="M3203 5773 c-40 -7 -27 -33 16 -33 43 0 71 -8 71 -20 0 -4 -11 -5
-24 -3 -31 6 -86 -23 -86 -46 0 -32 32 -49 103 -54 l67 -5 0 26 c0 98 -58 150
-147 135z m86 -96 c14 -18 4 -27 -30 -27 -32 0 -48 18 -28 31 20 13 45 11 58
-4z"/>
<path d="M3390 5770 c-11 -7 -12 -19 -2 -71 17 -95 62 -121 76 -46 9 48 29 63
63 48 35 -16 52 1 22 23 -27 18 -62 21 -89 6 -15 -8 -20 -6 -25 9 -8 28 -28
41 -45 31z"/>
<path d="M2166 5754 c-10 -26 -7 -77 7 -104 21 -42 47 -32 69 29 21 55 38 55
38 0 0 -29 23 -55 40 -44 5 3 10 14 10 24 0 11 9 29 19 42 l19 24 9 -45 c7
-35 13 -45 28 -45 17 0 20 6 19 37 -2 71 -59 115 -94 73 -11 -14 -14 -13 -27
5 -18 26 -47 26 -71 0 l-19 -21 -6 21 c-6 24 -32 27 -41 4z"/>
<path d="M2454 5745 c-11 -45 40 -104 89 -105 19 0 27 -4 24 -12 -2 -8 -19
-13 -41 -12 -45 2 -47 -11 -2 -26 39 -12 80 -1 94 27 5 10 13 43 16 74 6 44 4
58 -8 69 -13 10 -19 10 -31 0 -8 -7 -15 -18 -15 -25 0 -7 -10 -24 -21 -39 -20
-26 -22 -26 -40 -10 -11 10 -19 30 -19 51 0 26 -4 33 -20 33 -13 0 -22 -9 -26
-25z"/>
<path d="M2990 5763 c-48 -19 -53 -83 -9 -124 25 -23 40 -29 78 -29 49 0 91
21 91 45 0 25 -21 28 -44 6 -25 -23 -78 -28 -94 -8 -8 9 0 12 33 12 28 0 50 6
61 16 14 15 14 19 0 47 -8 16 -23 32 -31 36 -20 7 -64 7 -85 -1z m74 -40 c4
-9 1 -20 -6 -25 -18 -11 -21 -10 -44 7 -16 13 -17 16 -4 25 23 15 47 12 54 -7z"/>
<path d="M3600 5636 c0 -17 27 -29 35 -16 4 6 3 15 0 20 -9 15 -35 12 -35 -4z"/>
<path d="M1753 5166 c-38 -17 -53 -43 -53 -89 0 -42 25 -67 104 -101 44 -20
57 -30 52 -42 -3 -8 -6 -18 -6 -20 0 -11 -84 -2 -110 11 -28 15 -29 14 -35
-17 -9 -39 8 -54 71 -64 57 -8 105 1 138 27 22 17 26 29 26 69 0 57 -21 79
-101 105 -42 14 -50 21 -47 38 2 18 11 23 45 25 23 2 51 -2 62 -7 22 -12 25
-9 35 30 7 33 -4 38 -89 45 -40 3 -71 0 -92 -10z"/>
<path d="M2063 5169 c-41 -12 -63 -44 -63 -90 0 -44 37 -81 101 -100 46 -14
62 -30 53 -53 -8 -20 -62 -21 -109 -2 -34 14 -34 14 -41 -17 -8 -38 10 -53 72
-63 99 -14 169 24 169 94 0 53 -23 77 -97 104 -49 17 -58 25 -56 42 2 16 11
22 41 24 22 2 52 -1 68 -7 25 -9 29 -8 29 9 0 10 3 25 6 33 11 30 -102 47
-173 26z"/>
<path d="M3484 5170 c-106 -33 -138 -198 -55 -281 84 -85 246 -52 282 58 25
76 -1 159 -62 205 -30 22 -120 32 -165 18z m121 -85 c20 -19 25 -34 25 -75 0
-41 -5 -56 -25 -75 -29 -30 -74 -32 -106 -6 -21 16 -24 28 -24 81 0 53 3 65
24 81 32 26 77 24 106 -6z"/>
<path d="M1070 5009 l0 -161 100 4 c85 3 102 6 121 24 39 39 20 134 -28 134
-7 0 -13 5 -13 10 0 6 6 10 14 10 18 0 33 19 41 52 6 22 1 33 -23 58 -29 29
-34 30 -121 30 l-91 0 0 -161z m144 95 c25 -10 19 -43 -10 -54 -39 -15 -44
-13 -44 25 0 36 15 44 54 29z m14 -139 c22 -21 -2 -55 -38 -55 -27 0 -30 3
-30 33 0 19 3 37 7 40 8 9 44 -1 61 -18z"/>
<path d="M1407 5033 c-25 -76 -48 -148 -51 -160 -7 -22 -4 -23 37 -23 41 0 45
2 51 30 5 28 8 30 55 30 47 0 50 -2 56 -30 6 -28 10 -30 51 -30 24 0 44 3 44
7 0 5 -23 77 -51 160 l-51 153 -48 0 -49 0 -44 -137z m111 6 c16 -69 16 -69
-18 -69 -16 0 -30 4 -30 9 0 22 24 111 30 111 4 0 12 -23 18 -51z"/>
<path d="M2310 5010 l0 -160 105 0 105 0 0 30 c0 29 -1 29 -62 32 -63 3 -63 3
-66 36 l-3 32 60 0 61 0 0 35 0 35 -61 0 c-60 0 -60 0 -57 28 3 26 6 27 66 30
61 3 62 3 62 32 l0 30 -105 0 -105 0 0 -160z"/>
<path d="M2580 5135 c0 -35 0 -35 45 -35 l45 0 0 -125 0 -125 45 0 45 0 0 125
0 125 45 0 c45 0 45 0 45 35 l0 35 -135 0 -135 0 0 -35z"/>
<path d="M3060 5010 l0 -160 40 0 40 0 0 65 0 65 50 0 50 0 0 -65 0 -65 45 0
45 0 0 160 0 160 -45 0 -45 0 0 -60 0 -60 -50 0 -50 0 0 60 0 60 -40 0 -40 0
0 -160z"/>
<path d="M3770 5050 c0 -139 10 -168 66 -195 45 -21 115 -16 153 12 38 29 50
74 50 196 l1 107 -45 0 -45 0 0 -119 c0 -128 -7 -146 -52 -139 -36 5 -48 43
-48 156 l0 102 -40 0 -40 0 0 -120z"/>
<path d="M4110 5010 l0 -160 40 0 39 0 3 88 3 87 48 -87 49 -88 44 0 44 0 0
160 0 160 -40 0 -40 0 0 -85 c0 -47 -3 -85 -8 -85 -4 0 -28 38 -52 85 l-45 85
-42 0 -43 0 0 -160z"/>
<path d="M4450 5010 l0 -160 81 0 c136 0 191 46 193 159 2 113 -55 161 -191
161 l-83 0 0 -160z m164 79 c22 -18 26 -28 26 -75 0 -45 -4 -59 -25 -79 -13
-14 -36 -25 -50 -25 l-25 0 0 100 c0 98 0 100 24 100 13 0 35 -9 50 -21z"/>
<path d="M2285 3770 c-4 -11 -3 -55 0 -96 6 -56 12 -77 25 -84 23 -12 30 -4
30 37 0 19 5 43 11 54 15 29 37 8 45 -42 7 -44 29 -68 46 -51 17 17 -1 82 -31
112 -20 20 -34 27 -53 23 -21 -4 -26 0 -34 28 -11 39 -30 48 -39 19z"/>
<path d="M2892 3699 c3 -74 8 -94 23 -105 25 -18 35 -9 35 32 0 42 25 46 43 7
13 -31 25 -43 45 -43 16 0 15 25 -3 60 -14 26 -13 30 3 39 13 8 14 12 5 22
-10 10 -21 10 -51 1 -53 -16 -52 -16 -52 21 0 35 -15 57 -38 57 -12 0 -14 -17
-10 -91z"/>
<path d="M2042 3772 c-40 -12 -29 -27 21 -30 47 -3 47 -3 48 -40 0 -51 21
-106 40 -110 14 -2 15 7 11 72 l-5 75 49 3 c51 3 62 18 22 30 -13 3 -54 6 -93
6 -38 0 -80 -3 -93 -6z"/>
<path d="M2481 3741 c-23 -15 -2 -31 40 -29 22 1 45 -4 51 -10 9 -9 4 -12 -22
-12 -44 -1 -70 -20 -70 -52 0 -31 41 -51 92 -47 18 2 39 -1 47 -5 31 -19 36
38 9 107 -18 46 -105 75 -147 48z m104 -101 c0 -17 -34 -24 -54 -11 -7 5 -10
14 -6 20 10 17 60 9 60 -9z"/>
<path d="M2675 3740 c-12 -20 6 -111 26 -131 23 -23 34 -19 44 18 9 37 34 75
45 68 4 -3 11 -23 15 -44 7 -43 27 -67 46 -56 14 9 4 81 -17 113 -17 26 -59
29 -91 7 -20 -14 -22 -14 -25 7 -3 24 -32 36 -43 18z"/>
<path d="M3166 3735 c-13 -34 -5 -58 29 -92 28 -28 40 -34 60 -29 27 7 33 -5
11 -23 -8 -7 -26 -9 -43 -6 -27 6 -27 6 -9 -9 31 -25 81 -20 105 10 16 21 21
41 21 90 0 56 -2 64 -19 64 -13 0 -26 -15 -41 -45 -31 -64 -65 -57 -72 15 -3
38 -31 54 -42 25z"/>
<path d="M3397 3720 c-76 -60 21 -166 116 -126 47 19 54 46 25 99 -21 39 -27
42 -69 45 -34 2 -52 -2 -72 -18z m98 -40 c19 -37 19 -37 -9 -55 -46 -31 -97
25 -60 66 25 27 51 24 69 -11z"/>
<path d="M3585 3729 c-11 -17 4 -75 25 -102 26 -33 67 -43 90 -22 17 15 21 15
49 1 16 -9 32 -16 36 -16 10 0 5 24 -10 40 -8 9 -18 34 -23 56 -6 32 -12 39
-32 39 -19 0 -25 -7 -34 -45 -6 -25 -15 -44 -21 -44 -15 2 -35 45 -35 77 0 20
-5 27 -19 27 -11 0 -23 -5 -26 -11z"/>
<path d="M2175 3298 c-2 -7 -6 -31 -7 -53 -3 -36 -6 -40 -31 -43 -36 -4 -30
-25 9 -32 23 -4 30 -12 34 -35 3 -18 12 -31 23 -33 14 -3 17 4 17 32 0 34 2
36 40 42 61 10 46 34 -21 34 -27 0 -29 3 -29 35 0 44 24 47 39 5 9 -28 41 -43
41 -20 0 20 -29 68 -45 74 -28 10 -65 7 -70 -6z"/>
<path d="M2853 3303 c-16 -6 -18 -155 -2 -184 9 -18 17 -20 56 -14 61 8 81 20
89 52 6 21 1 32 -25 55 -17 15 -42 28 -56 28 -21 0 -25 5 -25 29 0 29 -14 42
-37 34z m82 -109 c14 -14 14 -19 2 -38 -22 -33 -42 -26 -45 17 -4 41 14 50 43
21z"/>
<path d="M3246 3301 c-9 -14 15 -61 31 -61 21 0 13 64 -9 68 -9 2 -19 -1 -22
-7z"/>
<path d="M2543 3254 c-8 -22 15 -121 34 -139 22 -23 34 -14 49 35 14 49 30 63
55 49 26 -13 49 -11 43 5 -12 31 -93 41 -111 14 -3 -6 -12 4 -19 21 -14 33
-41 41 -51 15z"/>
<path d="M3325 3260 c-4 -6 -4 -36 0 -66 5 -39 12 -58 28 -69 25 -17 30 -13
46 37 7 20 18 42 26 48 12 10 16 4 26 -34 13 -52 34 -75 51 -58 8 8 7 25 -3
64 -11 43 -19 54 -42 62 -22 8 -35 7 -57 -6 -28 -16 -29 -16 -32 5 -3 24 -32
35 -43 17z"/>
<path d="M3555 3245 c-33 -32 -31 -50 5 -87 23 -22 37 -29 56 -25 15 3 23 0
21 -7 -2 -6 -26 -13 -53 -16 -45 -5 -47 -6 -27 -17 27 -16 87 -17 114 -2 18 9
20 18 15 76 -3 41 -12 73 -22 84 -25 28 -79 25 -109 -6z m85 -36 c0 -24 -27
-49 -45 -43 -20 8 -19 49 1 69 19 19 44 4 44 -26z"/>
<path d="M2353 3245 c-50 -35 -33 -104 34 -132 55 -23 123 4 123 49 0 22 -28
80 -44 90 -19 13 -91 9 -113 -7z m95 -40 c17 -37 15 -53 -7 -65 -34 -18 -71 6
-71 46 0 47 59 61 78 19z"/>
<path d="M3036 3245 c-40 -41 -24 -101 35 -133 57 -30 172 13 139 53 -12 14
-16 13 -40 -10 -29 -28 -51 -31 -83 -12 -20 11 -18 12 27 17 60 6 75 24 55 66
-13 26 -20 29 -65 32 -37 2 -56 -2 -68 -13z m88 -21 c10 -26 7 -34 -13 -34
-49 0 -67 24 -28 40 31 12 34 12 41 -6z"/>
<path d="M3250 3176 c0 -28 6 -51 16 -61 25 -24 34 -6 26 50 -5 36 -12 51 -25
53 -14 3 -17 -4 -17 -42z"/>
<path d="M2930 2797 c0 -31 -3 -34 -31 -35 -62 -2 -104 -55 -80 -101 17 -31
65 -53 93 -42 13 5 37 7 52 4 l29 -6 -5 91 c-4 90 -16 122 -44 122 -9 0 -14
-12 -14 -33z m-15 -83 c19 -19 16 -43 -6 -57 -26 -16 -49 -1 -49 31 0 45 24
56 55 26z"/>
<path d="M3530 2811 c-5 -11 -10 -36 -10 -55 0 -32 -3 -36 -26 -36 -34 0 -26
-24 9 -28 20 -3 27 -9 27 -25 0 -32 15 -51 35 -43 12 4 15 13 10 35 -6 27 -4
29 35 35 58 9 47 36 -15 36 -29 0 -39 14 -31 46 9 33 25 30 37 -6 12 -33 39
-41 39 -11 0 10 -9 30 -21 45 -25 32 -73 36 -89 7z"/>
<path d="M3920 2732 c0 -82 8 -112 32 -112 9 0 11 144 2 178 -4 12 -13 22 -20
22 -11 0 -14 -20 -14 -88z"/>
<path d="M1853 2783 c-7 -2 -13 -11 -13 -19 0 -10 13 -14 49 -14 28 0 53 -4
56 -10 4 -6 -7 -10 -27 -10 -19 0 -44 -7 -56 -16 -50 -35 -8 -86 70 -83 23 1
50 0 58 -2 20 -5 24 29 10 81 -16 60 -89 97 -147 73z m97 -93 c13 -9 13 -11 0
-20 -29 -19 -80 -4 -66 19 9 14 46 14 66 1z"/>
<path d="M2607 2783 c-18 -18 1 -130 25 -145 21 -13 25 -10 42 36 28 73 42 76
60 12 16 -56 38 -72 50 -39 4 9 -1 38 -10 65 -18 56 -50 72 -95 46 -26 -16
-28 -15 -33 8 -6 23 -25 31 -39 17z"/>
<path d="M3254 2776 c-9 -25 16 -123 36 -141 24 -22 36 -14 44 29 9 46 27 59
70 50 44 -8 48 9 8 30 -28 15 -78 11 -89 -6 -3 -6 -12 4 -19 21 -14 32 -41 41
-50 17z"/>
<path d="M2127 2773 c-4 -3 -7 -26 -7 -50 0 -33 6 -50 25 -68 25 -26 54 -32
71 -15 8 8 19 7 37 -1 20 -9 30 -9 41 0 8 7 25 9 42 5 25 -6 27 -5 19 17 -4
13 -8 38 -9 54 -1 17 -5 35 -9 42 -9 14 -47 5 -47 -13 0 -7 -5 -25 -11 -41 -8
-22 -12 -24 -19 -13 -6 8 -10 27 -10 42 0 31 -11 41 -34 32 -9 -4 -16 -18 -16
-34 0 -16 -3 -35 -6 -44 -11 -29 -24 -5 -24 45 0 41 -3 49 -18 49 -10 0 -22
-3 -25 -7z"/>
<path d="M2423 2768 c-12 -6 -26 -23 -32 -38 -26 -77 97 -141 161 -83 30 27
16 96 -26 125 -16 11 -77 8 -103 -4z m87 -37 c16 -31 12 -59 -11 -71 -46 -25
-97 53 -51 79 27 16 50 13 62 -8z"/>
<path d="M3040 2760 c-32 -32 -26 -73 15 -109 26 -23 45 -31 73 -31 49 0 86
20 90 48 4 27 -12 28 -45 2 -31 -24 -62 -26 -89 -4 -18 15 -18 15 11 11 41 -7
99 18 91 39 -3 8 -6 19 -6 24 0 41 -104 56 -140 20z m90 -15 c16 -19 4 -35
-25 -35 -32 0 -42 20 -20 37 24 17 30 16 45 -2z"/>
<path d="M3680 2745 c0 -47 22 -88 55 -103 34 -16 45 -15 65 3 15 14 20 14 45
1 41 -22 47 -11 19 37 -13 23 -24 52 -24 65 0 18 -5 23 -22 20 -16 -2 -25 -15
-36 -48 -8 -25 -16 -47 -19 -49 -9 -11 -27 23 -32 61 -5 35 -10 44 -28 46 -20
3 -23 -1 -23 -33z"/>
<path d="M2379 2393 c-19 -5 -33 -61 -23 -87 5 -12 0 -16 -18 -16 -14 0 -28
-3 -31 -7 -10 -10 13 -33 34 -33 12 0 21 -11 27 -32 12 -46 36 -43 40 4 3 35
5 37 40 40 48 4 44 21 -7 31 -38 8 -41 10 -41 43 0 42 18 44 33 4 7 -18 19
-30 29 -30 10 0 18 2 18 5 0 17 -33 66 -49 75 -20 10 -25 11 -52 3z"/>
<path d="M2730 2374 c0 -24 19 -54 35 -54 16 0 18 12 9 48 -7 25 -44 31 -44 6z"/>
<path d="M3370 2358 c0 -32 -2 -33 -39 -33 -54 -1 -83 -28 -79 -74 4 -47 55
-80 99 -64 17 7 31 7 35 2 3 -5 14 -9 25 -9 18 0 19 5 14 83 -9 114 -12 127
-35 127 -16 0 -20 -7 -20 -32z m-18 -75 c25 -22 23 -40 -8 -60 -25 -16 -27
-16 -40 2 -17 23 -17 30 -4 56 13 23 28 24 52 2z"/>
<path d="M3047 2353 c-12 -11 -7 -97 6 -123 21 -41 44 -37 58 9 11 37 34 70
43 60 2 -2 9 -24 17 -49 17 -54 49 -69 49 -22 0 82 -45 126 -102 98 -28 -14
-29 -14 -38 10 -9 24 -21 30 -33 17z"/>
<path d="M2514 2313 c15 -82 27 -112 46 -118 27 -9 40 2 40 31 0 14 5 34 10
45 11 20 45 26 55 9 9 -15 35 -12 35 5 0 31 -60 43 -111 21 -12 -5 -18 0 -23
18 -5 20 -13 26 -32 26 -25 0 -26 -2 -20 -37z"/>
<path d="M2855 2343 c-29 -7 -45 -32 -45 -69 0 -48 47 -84 109 -84 48 0 91 21
91 45 0 25 -21 28 -44 6 -25 -23 -78 -28 -94 -8 -8 9 -1 12 32 12 58 0 78 17
64 56 -15 44 -50 57 -113 42z m69 -40 c7 -18 -12 -35 -32 -28 -8 3 -18 5 -23
5 -14 0 -11 28 4 33 25 11 45 7 51 -10z"/>
<path d="M2734 2287 c-8 -34 9 -91 29 -95 14 -3 17 5 17 45 0 65 -33 101 -46
50z"/>
<path d="M3461 2226 c-8 -10 -7 -17 3 -26 17 -13 36 -6 36 15 0 19 -27 26 -39
11z"/>
</g>
</svg>
