<?xml version="1.0" encoding="UTF-8"?>
<svg id="_レイヤー_1" data-name="レイヤー 1" xmlns="http://www.w3.org/2000/svg" width="145.76mm" height="293.33mm" viewBox="0 0 413.17 831.48">
  <path d="M149.6,67c2.66-19.43,19.68-37.55,38.05-43.46,35.33-11.36,69.32,10.08,77.45,45.45,19.99-21.51,39.19-42.44,65.49-56.51,34.36-18.39,68.55-10.05,79.51,29.53,7,25.26,1.41,82.65-10.62,106.37-4.15,8.18-12.39,15.52-15.15,23.85-5.88,17.69.24,34.65-5.95,51.05-2.66,7.04-7.97,11.76-13.61,16.39,2.9,30.23-.4,59.46-8.45,88.56-7.73,27.96-18.92,53.19-40.45,73.27,4.56,5.56,3.37,13.87,5.27,19.47,1.13,3.34,11.37,13.94,14.28,19.72,11.3,22.43,11.1,49.07,15.5,73.5,3.42,18.97,8.69,37.67,12.39,56.61,1.79,9.16,2.01,20.64,4.57,29.43,3.12,10.71,14.53,24.03,19.2,35.8,12.79,32.2,8.78,68.29-7.2,98.5,15.45,12.78,26.14,25.42,23.61,46.88-3.25,27.58-31.6,38.33-56.26,36.48-17.42-1.31-30.69-11.39-47.97-11.95-17.21,31.3-61.32,34.26-83.63,6.55-2.91-3.62-4.67-8.32-8.01-11.48-14.53,38-69.15,40.52-89.61,6.12-24.19,6.21-45.9,15.13-71.18,8.15-30.21-8.34-41.59-41.9-22.2-66.76,4.03-5.16,10.32-8.9,13.96-13.99-16.08-33.47-19.73-70.55-3.84-104.89,5.11-11.04,14.16-20.65,17.57-32.43s4.09-25.33,6.59-37.41c3.57-17.23,8.29-34.3,11.38-51.62,3.51-19.68,4.33-41.03,11.04-59.96,4.84-13.64,15.16-23.91,24.27-34.7-27.46-22.12-42.97-49.94-52.5-83.53-8.78-30.94-12.8-63.51-7.66-95.3-3.08-3.62-6.6-6.9-8.86-11.17-9.01-16.98-1.22-36.26-7.94-55.06-2.35-6.57-8.23-12.01-11.84-18.16C.43,122.41-6.96,53.97,8.44,25.33,24.62-4.76,55.07-5.32,82.63,9.48c27.16,14.57,45.82,35.9,66.97,57.52ZM153.6,78c-1.77-.59-3.13-1.79-4.52-2.97-13.67-11.53-25.81-29.09-40-41C82.96,12.11,38.66-13.09,14.81,25.7c-15.37,24.99-9.18,88.5,2.95,114.66,4.95,10.68,14.12,17.94,17.14,28.86,6.06,21.94-4.6,47.96,16.62,62.46-8.79,62.75,7.33,138.12,59.17,178.75.84.86,1,1.91,1.01,3.05.03,4.4-12.46,15.37-15.91,20.19-15.5,21.67-14.97,48.34-19.48,73.52-3.66,20.4-9.04,40.5-13.21,60.79-1.97,9.59-2.37,20.78-4.93,30.07-3.34,12.12-13.49,23.55-18.72,35.28-15.15,33.96-10.56,71.18,6.94,103.19-46.08,30.6-26.74,80.48,28.72,75.47,14.45-1.31,30.42-8.92,45.02-11.01,2.01.17,5.62,7.26,7.52,9.5,26.67,31.35,76.4,12.18,79.98-27.47,2.64-.3,1.58.06,2.01,1.47,2.82,9.27,4.12,16.65,10.47,24.54,16.04,19.95,47.46,23,66.06,5.03,2.69-2.6,8.7-12.62,10.95-13.05,16.76-1.96,31.14,9.28,47.13,10.88,19.68,1.98,43.78-2.76,51.4-23.36,8.85-23.94-5.07-38.38-22.74-52.01,16.97-31.53,22.07-69.04,7.19-102.48-3.98-8.93-10.38-16.85-14.63-25.37-5.72-11.46-5.79-26.95-8.31-39.69-3.67-18.57-8.94-37.24-12.23-55.77-5.39-30.36-3.14-54.65-21.87-81.13-1.69-2.39-6.92-6.97-7.9-9.1-1.23-2.67-.24-7.48-.96-11.04-.79-3.91-3.59-7-5.31-10.45,4.91-6.64,11.08-12.07,16.15-18.59,25.34-32.63,33.4-81.1,35.64-121.44l-2.06-24.76c27.91-14.74,10.21-47.72,22.19-71.03,2.67-5.19,8.09-10.35,11.24-15.76,15.23-26.11,22.64-95.06,6.4-121.24-23.92-38.57-68.27-13.44-94.29,8.35-14.51,12.15-27.22,31.5-41.52,42.48-1,.77-1.27,1.94-3,1.49-.15-70.65-101.89-73.52-106.02-3ZM230.44,73.62c0,13.16-10.67,23.83-23.83,23.83s-23.83-10.67-23.83-23.83,10.67-23.83,23.83-23.83,23.83,10.67,23.83,23.83ZM224.76,73.71c0-10.02-8.13-18.15-18.15-18.15s-18.15,8.13-18.15,18.15,8.13,18.15,18.15,18.15,18.15-8.13,18.15-18.15Z"/>
</svg>