<?xml version="1.0" encoding="UTF-8"?>
<svg id="_レイヤー_1" data-name="レイヤー 1" xmlns="http://www.w3.org/2000/svg" width="197.14mm" height="293.56mm" viewBox="0 0 558.82 832.14">
  <path d="M331.4,73.48c27.63,8.8,56.61,24.67,76.52,46,3.8,4.07,9.71,13.55,13.57,16.43,4.76,3.55,18.72,8.59,25.83,13.17,65.84,42.36,64.36,80.39,77.4,150.6,5.15,27.72,15.11,42.67,24.45,67.55,13.38,35.65,16.47,98.3-14.75,125.78-8.85,7.79-18.74,10.91-25.83,21.17-14.54,21.05-13.51,54.57-39.21,68.9,1.69,12.05,3.61,24.01,7.31,35.62,4.77,14.96,13.32,28.78,16.84,44.16,5.27,23.05-.64,51.38-10.75,72.51-1.54,3.21-7.74,11.74-8.19,13.86s3.28,10.28,3.7,13.87c4.75,40.58-31.96,48.27-64.19,48.59-23.68,26.9-79.02,26.1-105.17,3.77-3.66-3.13-10.15-12.75-12.14-13.86-1.74-.97-9.66-2.17-11.89-2.19-2.5-.03-19.7,3.4-21.22,4.36-.74.47-3.76,5.71-5.25,7.25-26.21,26.98-83.69,29.09-109.73.68-32.25,1.14-73.4-11.56-63.66-52.06.76-3.15,4.54-10.32,4.21-12.42-.31-1.93-7.42-12.49-9.03-16.05-9.1-20.12-13.95-48.56-8.75-70.1,5.93-24.59,23.58-47.29,23.79-73.91-14.97-8.67-23.93-20.79-30.35-36.68-5.43-13.45-8.13-30.53-18.52-41.48-5.96-6.27-15.84-10.47-22.52-16.48-30.66-27.59-27.56-89.81-14.24-125.29,5.68-15.13,14.49-29.21,19.28-44.72,11.79-38.27,8.03-77.59,26.78-115.22,12.99-26.09,41.3-51.56,67.04-64.96,4.28-2.23,15.06-5.48,17.38-7.13,1.44-1.02,5.05-6.9,6.78-8.71,23.09-24.21,48.16-41.09,80.11-51.95-8.4-26.77,2.25-56.62,28.03-68.91,44.55-21.25,92.86,21.38,76.37,67.86ZM324.41,77.48c17.88-38.76-15.08-80.05-57.03-70.53-23.33,5.3-39.59,28.31-37.95,52.02.48,6.98,3.36,12.87,4.97,19.49-25.62,7.58-51.15,20.4-71,38.51-5.94,5.42-15.62,19.35-20.48,22.52-3.29,2.15-9.02,3.2-12.87,5.13-24.16,12.13-51.63,34.18-65.45,57.55-24.66,41.68-17.99,91.16-35.72,135.28-17.35,43.14-32.26,69.09-19.6,118.66,9.89,38.73,36.65,35.37,50.3,63.7,6.15,12.76,8.41,27.2,15.41,39.59,6.47,11.46,14.79,18.63,26.32,24.75-1.36,15.82-5.69,30.61-11.44,45.29-9.99,25.54-18.02,34.6-14.34,64.4,2.43,19.71,9.29,37.85,20.55,54.12-16.4,28.54-2.41,51.77,28.94,56.39,7.18,1.06,21.03.07,26.62,2.38,2.82,1.17,3.02,3.59,4.87,5.13,27.44,22.97,76.36,19.07,100.42-7.37,1.44-1.58,2.41-4.85,3.48-5.52.81-.5,16.67-4.19,18.6-4.41,3.57-.4,19.79.4,22.16,2.12.34.25,2.9,5.65,4.26,7.25,19.95,23.52,60.2,28.84,87.65,16.7,7.15-3.16,15.1-12.92,18.06-13.94,6.51-2.24,18.97-1.23,26.64-2.36,22.12-3.25,38.71-15.68,35.36-40.12-.55-4.03-4.97-12.9-4.75-15.2.16-1.73,8.59-13.61,10.19-16.88,8.88-18.12,14.38-46.77,10.16-66.52-2.74-12.82-9.65-24.73-14.09-36.91-5.71-15.66-9.14-31.21-10.91-47.82,30.13-16.33,24.87-58.03,48.19-78.4,8.52-7.44,17.79-11,25.45-20.55,18.46-23.03,18.92-67.81,12.35-95.3-5.22-21.84-17.87-40.53-24.61-61.39-8.75-27.08-8.83-58.07-16-86-11.65-45.35-39.98-73.18-80.35-94.65-3.02-1.61-7.04-2.24-9.86-4.14-4.19-2.81-8.73-10.6-12.47-14.53-22.02-23.17-50.75-41.04-82.03-48.48ZM301.74,48.7c0,12.34-10,22.34-22.34,22.34s-22.34-10-22.34-22.34,10-22.34,22.34-22.34,22.34,10,22.34,22.34ZM296.4,48.78c0-9.38-7.61-16.99-16.99-16.99s-16.99,7.61-16.99,16.99,7.61,16.99,16.99,16.99,16.99-7.61,16.99-16.99Z"/>
</svg>