<?xml version="1.0" encoding="UTF-8"?>
<svg id="_レイヤー_1" data-name="レイヤー 1" xmlns="http://www.w3.org/2000/svg" width="201.59mm" height="299.24mm" viewBox="0 0 571.44 848.23">
  <path d="M553.42,401.17c-8.32,8.31-20.8,11.24-27.63,19.87s-9.34,22.22-14.85,32.15c-9.82,17.7-26.39,29.13-47.17,28.34,11.44,23.4,24.1,47.25,29.51,72.98,7.62,36.21-1.83,71.1,9,108,3.92,13.36,11.41,26.31,12.53,40.47,1.93,24.47-9.47,50.97-24.06,70.01-1.27,1.65-4.28,3.55-4.79,5.25-.89,2.98.85,5.16.71,7.67-1.28,23.54-18.55,36.27-40.52,39.49-4.38.64-15.94.32-18.72,1.28-.54.19-6.14,6.1-8.35,7.65-27.81,19.55-84.11,18.25-109.78-4.85-3.13-2.82-9.44-12.76-10.57-13.43s-6.92-1.62-8.46-1.61c-12.96.09-15.95,10.99-25.02,18.05-28.11,21.87-90.57,21.9-115.19-6-26.87.41-55.28-6.74-59.28-37.5-.49-3.8.72-7.66-.56-11.44-.75-2.22-9.55-12.33-11.87-16.13-8.45-13.83-17.33-38.26-16.62-54.46.75-17.11,10.26-33.26,14.53-49.46,9.26-35.13.36-69.98,8-105,5.54-25.39,18.29-48.39,28.5-71.99-22.24,4.42-41.68-8.44-52.16-27.34-5.3-9.55-7.97-22.88-14.86-31.14-6.16-7.39-17.59-11.43-24.99-18.01C.21,385.74-2.88,350.92,2.06,325.32c4.66-24.12,21.6-42.3,27.39-66.61,9.76-40.96,7.15-69.51,42.3-99.7,16.32-14.02,31.06-18.06,47.94-28.06,6.67-3.95,16.21-14.04,23.76-19.24,26.38-18.17,58.01-31.45,89.32-38.2-10.16-27.9,5.93-60.12,33.47-70.01,44.57-16.01,86.73,25.5,72.94,70.06,30.95,7.3,61.71,20.11,87.9,38.14,7.59,5.22,16.36,14.48,23.33,18.67,12.94,7.79,25.91,11.33,39.67,21.33,44.92,32.62,40.38,59.27,52.18,107.82,5.52,22.71,20.76,39.5,26.22,61.78,6.01,24.51,3.78,61.04-15.06,79.86ZM331.76,78.52c5.48-16.31,6.39-31.88-2.19-47.3-18.82-33.81-68.79-33.81-87.61,0-8.58,15.42-7.67,30.99-2.19,47.3-33.94,5.01-68.49,20.34-96.32,40.19-6.39,4.56-15.3,14.01-20.76,17.24-16.54,9.77-30.88,13.28-46.94,27.06-37.46,32.16-30.47,62.44-42.73,104.27-5.4,18.42-18.49,33.67-23.75,52.25-7.11,25.1-5.27,62.03,15.48,80.5,7.47,6.65,18.6,10.39,24.99,18.01,7.98,9.52,10.5,23.43,16.86,34.14,13.04,21.98,34.58,29.17,58.17,18.34-19.05,37.27-40.91,78.18-38.99,121.48.94,21.21,1.73,43.5-3.5,64.52-3.69,14.83-13.16,31.57-14.49,46.51-1.91,21.42,8.44,46.18,20.57,63.4,1.6,2.27,7.2,7.56,7.9,9.1,1.47,3.22.14,11.15.62,15.38,3,26.37,35.18,30.12,56.23,30.77,23.76,27.95,87.69,27.37,113.15,2.83,2.89-2.78,6.7-9.95,8.56-11.44,6.73-5.36,19.98-4,27.78-2.39,4.86,11.91,15.91,20.17,27.48,25.01,24.28,10.17,68.4,9.69,89.18-8.18,1.87-1.61,3.33-5.26,5.19-5.81,4.26-1.26,12.07-.63,16.69-1.31,19.31-2.83,38.06-9.88,39.6-32.39.22-3.18-1.13-9.41-.81-10.78.29-1.25,12.98-16.55,15.35-20.69,13.35-23.28,17.82-44.88,9.75-70.79-9.39-30.15-15.93-48.65-15.32-81.78.21-11.39,2.25-19.59.92-31.82-3.89-35.8-21.72-66.79-36.87-98.62,11.08,2.23,18.6,3.37,29.36-1.15,30.14-12.69,24.85-47,44.71-61.29,6.64-4.77,15-7.28,21.43-13.57,18.27-17.88,19.58-54.05,13.22-77.21-5.14-18.72-18.19-33.92-23.73-52.27-12.68-41.98-5.11-72.52-42.97-105.03-16.67-14.32-31.39-17.61-48.37-27.63-5.65-3.33-13.99-12.14-20.33-16.67-27.59-19.68-61.76-34.83-95.32-40.19ZM308.53,54.37c0,12.57-10.19,22.76-22.76,22.76s-22.76-10.19-22.76-22.76,10.19-22.76,22.76-22.76,22.76,10.19,22.76,22.76ZM302.9,54.43c0-9.47-7.67-17.14-17.14-17.14s-17.14,7.67-17.14,17.14,7.67,17.14,17.14,17.14,17.14-7.67,17.14-17.14Z"/>
</svg>