<?xml version="1.0" standalone="no"?>
<!DOCTYPE svg PUBLIC "-//W3C//DTD SVG 20010904//EN"
 "http://www.w3.org/TR/2001/REC-SVG-20010904/DTD/svg10.dtd">
<svg version="1.0" xmlns="http://www.w3.org/2000/svg"
 width="580.000000pt" height="867.000000pt" viewBox="0 0 580.000000 867.000000"
 preserveAspectRatio="xMidYMid meet">

<g transform="translate(0.000000,867.000000) scale(0.100000,-0.100000)"
fill="#000000" stroke="none">
<path d="M2751 8544 c-89 -24 -171 -73 -246 -149 -136 -137 -193 -328 -151
-508 l13 -57 -26 -6 c-399 -95 -763 -275 -1046 -519 -33 -29 -71 -56 -85 -60
-55 -17 -203 -97 -306 -166 -191 -129 -318 -266 -399 -433 -58 -120 -88 -227
-135 -486 -54 -290 -56 -295 -190 -550 -79 -151 -117 -270 -129 -407 -23 -264
33 -493 154 -630 26 -30 95 -85 159 -127 63 -41 126 -91 141 -110 15 -20 53
-97 85 -171 90 -207 170 -306 302 -368 69 -33 166 -51 228 -44 28 3 50 4 50 1
0 -2 -16 -36 -36 -75 -58 -116 -170 -379 -203 -478 -65 -192 -94 -417 -79
-594 11 -115 -13 -474 -37 -574 -8 -35 -37 -125 -65 -200 -105 -291 -111 -378
-44 -603 49 -161 120 -299 209 -403 30 -35 33 -44 37 -126 6 -107 35 -177 102
-249 83 -88 203 -134 391 -148 97 -7 99 -8 138 -46 46 -44 192 -118 282 -143
79 -22 386 -32 480 -16 103 18 214 57 283 98 66 41 178 144 187 174 9 27 103
52 164 44 44 -6 50 -11 93 -70 87 -119 248 -208 440 -241 119 -21 381 -15 478
11 94 24 240 97 286 143 40 38 43 39 135 46 181 13 301 58 386 142 73 73 121
208 106 299 -5 30 -1 40 32 76 92 102 166 243 221 425 24 78 28 106 28 224 l1
135 -49 135 c-119 332 -127 386 -131 820 -2 291 -4 336 -24 430 -39 185 -121
400 -252 663 l-49 97 34 0 c144 0 298 84 391 214 43 60 63 102 140 289 35 84
92 150 159 184 133 67 211 145 271 268 51 108 64 158 75 290 19 225 -19 405
-130 615 -134 255 -136 260 -190 550 -21 118 -51 256 -65 305 -32 112 -100
252 -159 331 -125 166 -385 357 -607 444 -28 11 -82 46 -119 78 -254 214 -633
409 -935 482 -49 11 -95 23 -101 25 -9 3 -8 19 2 62 66 280 -120 584 -401 658
-74 19 -222 19 -294 -1z m250 -48 c179 -38 326 -172 379 -344 27 -86 27 -209
0 -294 -11 -34 -20 -66 -20 -69 0 -4 30 -12 68 -19 317 -59 754 -271 1015
-495 43 -36 96 -72 117 -80 142 -50 366 -192 488 -309 186 -178 256 -336 327
-735 20 -108 45 -227 56 -265 11 -38 65 -157 120 -265 130 -256 143 -302 143
-526 1 -148 -2 -180 -22 -250 -49 -167 -125 -264 -276 -349 -124 -70 -170
-128 -233 -296 -108 -288 -304 -431 -519 -380 -30 7 -56 11 -58 9 -2 -2 20
-53 50 -114 140 -285 222 -476 254 -589 53 -190 75 -378 59 -508 -12 -107 5
-414 32 -557 11 -57 44 -170 73 -250 70 -192 80 -238 80 -346 0 -174 -97 -428
-225 -588 l-62 -77 -1 -88 c-1 -73 -6 -96 -29 -144 -65 -133 -190 -192 -449
-213 -82 -6 -89 -9 -109 -36 -27 -39 -137 -102 -232 -134 -160 -53 -437 -55
-603 -4 -146 45 -272 131 -329 226 -28 49 -31 50 -95 61 -52 9 -76 8 -115 -2
-69 -19 -105 -34 -105 -44 0 -18 -71 -98 -117 -134 -71 -54 -160 -95 -260
-120 -125 -32 -399 -31 -517 1 -104 28 -219 86 -272 137 l-43 42 -121 12
c-194 18 -286 54 -363 140 -56 62 -77 124 -77 227 l0 74 -53 63 c-102 125
-168 261 -213 436 -22 88 -26 120 -22 200 4 85 12 116 72 290 37 107 74 227
82 265 18 85 38 371 33 480 -11 261 4 410 62 607 34 115 180 457 247 578 46
84 74 140 68 140 -1 0 -36 -12 -77 -26 -149 -53 -302 -15 -418 104 -60 61
-109 146 -161 277 -53 136 -89 180 -220 267 -173 115 -232 192 -282 365 -20
68 -23 100 -22 248 0 225 12 267 149 540 116 231 125 259 174 540 32 181 65
308 107 408 66 158 215 326 394 446 89 60 257 150 309 166 13 4 61 39 105 77
172 149 472 321 718 412 94 35 324 96 360 96 22 0 22 1 -2 78 -72 229 38 485
254 594 106 54 212 68 327 44z"/>
<path d="M2829 8237 c-83 -31 -130 -85 -150 -173 -31 -135 79 -267 221 -267
66 0 114 21 164 71 100 99 75 275 -49 347 -53 32 -134 41 -186 22z m156 -70
c115 -65 111 -239 -8 -296 -24 -12 -58 -21 -77 -21 -54 0 -117 36 -145 84 -67
114 14 256 145 256 28 0 60 -9 85 -23z"/>
<path d="M3845 6496 c-45 -68 -206 -489 -192 -502 2 -2 25 60 51 138 26 79 74
198 106 265 57 119 67 148 35 99z"/>
<path d="M3907 6358 c-57 -99 -162 -318 -152 -318 3 0 26 46 53 103 27 56 67
135 91 176 23 41 40 76 37 78 -2 2 -15 -15 -29 -39z"/>
<path d="M1990 6353 c0 -31 147 -339 157 -329 3 3 -11 33 -30 68 -19 35 -54
108 -77 163 -45 105 -50 115 -50 98z"/>
<path d="M2860 6305 c0 -33 -2 -35 -34 -35 -72 0 -112 -74 -66 -120 24 -24 18
-22 99 -24 l63 -2 -4 92 c-4 92 -15 124 -44 124 -9 0 -14 -12 -14 -35z m-18
-82 c25 -22 23 -39 -7 -59 -31 -20 -45 -11 -45 30 0 49 18 60 52 29z"/>
<path d="M3600 6287 c0 -65 7 -87 27 -87 11 0 13 14 11 67 -2 55 -6 68 -20 71
-15 3 -18 -5 -18 -51z"/>
<path d="M1870 6300 c22 -45 198 -304 230 -340 17 -19 7 1 -24 45 -31 44 -86
127 -123 185 -68 108 -108 160 -83 110z"/>
<path d="M3198 6294 c-10 -3 -18 -12 -18 -20 0 -10 13 -14 49 -14 28 0 53 -4
56 -10 3 -6 -5 -10 -19 -10 -33 0 -73 -19 -80 -37 -8 -19 10 -51 31 -56 50
-14 69 -15 83 -7 9 5 19 5 28 -2 41 -34 31 91 -11 130 -22 21 -87 35 -119 26z
m91 -93 c7 -5 10 -14 7 -20 -9 -14 -53 -15 -61 -1 -15 25 24 40 54 21z"/>
<path d="M3385 6290 c-11 -17 17 -128 36 -146 25 -23 49 -11 49 24 0 56 25 71
83 47 12 -5 17 -2 17 9 0 19 -30 36 -65 36 -14 0 -35 -5 -46 -10 -16 -9 -19
-7 -19 8 0 33 -40 56 -55 32z"/>
<path d="M2155 6260 c-7 -33 2 -88 17 -107 23 -28 44 -14 62 42 19 62 30 64
40 6 9 -59 56 -69 56 -12 0 28 24 60 33 44 2 -4 7 -25 11 -45 5 -29 12 -38 26
-38 15 0 20 7 20 29 0 75 -41 117 -89 91 -17 -9 -25 -8 -37 5 -21 21 -44 19
-71 -7 l-23 -21 0 21 c0 35 -37 29 -45 -8z"/>
<path d="M2450 6256 c0 -48 51 -100 92 -94 31 5 36 -3 13 -22 -8 -7 -25 -10
-40 -6 -35 9 -31 -9 5 -24 69 -29 113 19 108 118 -2 44 -7 58 -20 60 -13 2
-22 -9 -34 -38 -30 -75 -74 -69 -74 9 0 26 -4 31 -25 31 -22 0 -25 -4 -25 -34z"/>
<path d="M2990 6283 c-36 -15 -51 -64 -30 -104 35 -64 190 -64 190 2 0 24 -15
24 -40 -1 -23 -23 -82 -27 -99 -7 -9 11 -3 14 34 13 71 -2 95 42 49 89 -15 15
-74 19 -104 8z m80 -50 c0 -10 -9 -13 -32 -11 -39 4 -48 25 -16 37 25 10 48
-2 48 -26z"/>
<path d="M3610 6156 c0 -18 16 -29 30 -21 13 8 1 35 -16 35 -8 0 -14 -6 -14
-14z"/>
<path d="M2070 5649 l0 -162 82 7 c46 4 93 13 105 22 47 30 40 108 -11 133
l-28 13 23 12 c31 15 46 58 31 90 -13 30 -63 46 -144 46 l-58 0 0 -161z m134
98 c26 -19 13 -54 -24 -62 -16 -4 -34 -4 -40 0 -11 7 -14 58 -3 68 11 11 48 8
67 -6z m16 -137 c16 -29 -3 -57 -42 -63 -44 -6 -48 -3 -48 44 0 39 0 39 40 39
29 0 42 -5 50 -20z"/>
<path d="M2340 5650 l0 -160 100 0 100 0 0 30 0 30 -65 0 -65 0 0 40 0 40 60
0 c57 0 60 1 60 25 0 22 -4 24 -57 27 l-58 3 0 35 0 35 63 3 c58 3 62 4 62 27
0 25 -1 25 -100 25 l-100 0 0 -160z"/>
<path d="M2695 5800 c-6 -9 -105 -299 -105 -307 0 -2 15 -3 34 -3 30 0 36 4
46 35 11 34 13 35 64 35 51 0 53 -1 62 -32 8 -29 15 -33 46 -36 l37 -3 -53
158 -53 158 -35 3 c-20 2 -39 -2 -43 -8z m54 -97 c26 -100 27 -93 -13 -93 -40
0 -44 11 -25 71 6 19 12 40 15 47 6 21 13 14 23 -25z"/>
<path d="M2991 5793 c-48 -25 -73 -63 -79 -122 -12 -132 103 -211 251 -170
l37 10 0 84 0 85 -70 0 c-68 0 -70 -1 -70 -25 0 -22 4 -25 35 -25 34 0 35 -1
35 -39 0 -47 -21 -59 -74 -41 -45 15 -67 41 -73 88 -13 94 70 146 169 107 20
-8 36 31 19 48 -20 20 -142 20 -180 0z"/>
<path d="M3270 5650 l0 -160 100 0 100 0 0 30 0 30 -65 0 -65 0 0 130 0 130
-35 0 -35 0 0 -160z"/>
<path d="M3532 5653 l3 -158 98 -3 97 -3 0 31 0 30 -65 0 -65 0 0 40 0 40 60
0 c57 0 60 1 60 25 0 22 -4 24 -57 27 l-58 3 0 35 0 35 63 3 c58 3 62 4 62 27
0 25 -1 25 -100 25 l-101 0 3 -157z"/>
<path d="M2280 3841 c0 -68 4 -93 16 -105 23 -23 33 -12 40 45 6 47 18 68 31
55 3 -3 13 -29 23 -58 19 -60 43 -71 48 -21 6 60 -39 116 -89 110 -19 -1 -24
4 -29 28 -3 17 -12 31 -23 33 -15 3 -17 -6 -17 -87z"/>
<path d="M2888 3919 c-2 -6 0 -47 3 -92 6 -60 12 -84 25 -94 24 -17 34 -8 34
33 0 45 22 45 49 -1 13 -23 28 -35 42 -35 16 0 19 4 14 18 -25 61 -28 76 -17
80 7 2 12 11 12 19 0 16 -27 15 -87 -3 -20 -6 -23 -3 -23 24 0 17 -3 37 -6 46
-7 18 -40 22 -46 5z"/>
<path d="M2017 3913 c-33 -9 -11 -28 35 -31 l45 -3 7 -56 c7 -63 20 -93 41
-93 12 0 14 13 8 75 l-6 75 52 0 c53 0 65 12 32 30 -19 10 -178 12 -214 3z"/>
<path d="M2475 3880 c-12 -19 7 -31 38 -25 21 4 39 1 52 -8 18 -14 17 -15 -18
-15 -63 0 -100 -51 -60 -83 9 -8 39 -14 68 -15 28 0 56 -3 62 -7 16 -10 23 3
23 41 0 46 -26 97 -56 111 -31 14 -101 15 -109 1z m96 -80 c10 -6 19 -15 19
-20 0 -16 -39 -21 -61 -9 -22 11 -22 12 -4 25 23 17 21 17 46 4z"/>
<path d="M2674 3828 c4 -48 11 -67 28 -81 22 -19 22 -19 48 34 14 29 30 52 35
51 6 0 15 -19 20 -41 13 -50 30 -70 47 -53 9 9 9 22 0 59 -7 26 -18 53 -24 60
-12 15 -74 17 -83 3 -10 -16 -22 -12 -28 10 -3 12 -14 20 -27 20 -22 0 -23 -3
-16 -62z"/>
<path d="M3164 3866 c-13 -53 55 -122 107 -109 24 6 24 6 5 -15 -14 -16 -25
-20 -47 -15 -38 7 -37 -5 2 -21 72 -30 121 18 117 114 -3 47 -6 55 -23 58 -16
2 -25 -7 -39 -38 -10 -23 -25 -44 -33 -47 -22 -8 -43 24 -43 64 0 26 -4 33
-20 33 -12 0 -22 -9 -26 -24z"/>
<path d="M3421 3872 c-68 -34 -60 -107 15 -138 57 -24 124 4 124 53 0 36 -28
83 -56 93 -35 14 -44 13 -83 -8z m79 -43 c28 -51 -10 -94 -56 -64 -30 19 -32
59 -3 79 24 17 45 12 59 -15z"/>
<path d="M3593 3834 c8 -74 76 -126 117 -89 17 15 21 15 49 1 35 -19 52 -5 27
23 -8 9 -19 35 -24 57 -6 32 -12 39 -31 39 -20 0 -26 -8 -38 -47 -7 -27 -17
-48 -22 -48 -12 0 -31 48 -31 80 0 26 -4 30 -26 30 -26 0 -26 -2 -21 -46z"/>
<path d="M2178 3439 c-13 -7 -18 -23 -18 -53 0 -41 -2 -44 -31 -50 -27 -5 -30
-8 -19 -21 7 -8 23 -15 36 -15 17 0 24 -6 24 -19 0 -30 11 -51 26 -51 15 0 17
9 14 53 -1 25 1 27 39 27 30 0 41 4 41 15 0 11 -11 15 -40 15 -45 0 -56 14
-46 56 6 21 9 24 21 14 8 -7 15 -18 15 -25 0 -7 7 -18 15 -25 23 -19 30 12 11
48 -21 41 -53 52 -88 31z"/>
<path d="M2838 3423 c-9 -36 7 -174 21 -183 37 -22 133 18 139 58 4 28 -38 71
-77 78 -23 5 -31 12 -33 33 -4 32 -43 43 -50 14z m96 -92 c19 -20 13 -47 -14
-61 -24 -13 -30 -4 -30 42 0 43 16 50 44 19z"/>
<path d="M3250 3422 c0 -27 27 -59 39 -47 16 17 1 65 -20 65 -12 0 -19 -7 -19
-18z"/>
<path d="M3331 3397 c-10 -13 0 -114 14 -137 15 -24 44 -9 56 28 24 75 42 80
58 17 12 -47 37 -68 51 -45 9 14 -12 96 -29 113 -13 13 -69 11 -87 -3 -11 -10
-16 -7 -24 14 -11 29 -22 33 -39 13z"/>
<path d="M3583 3400 c-23 -10 -43 -39 -43 -65 0 -27 46 -65 80 -65 21 0 30 -4
27 -12 -3 -9 -22 -12 -58 -11 -47 2 -51 1 -38 -12 22 -23 83 -30 120 -15 30
13 31 15 25 58 -3 25 -6 58 -6 73 0 21 -7 32 -30 44 -33 17 -45 18 -77 5z m61
-42 c14 -23 -2 -52 -31 -56 -26 -4 -36 21 -21 54 13 27 35 28 52 2z"/>
<path d="M2370 3393 c-58 -22 -68 -86 -19 -127 40 -34 97 -35 135 -2 l28 23
-18 47 c-10 25 -26 51 -36 56 -20 11 -65 12 -90 3z m76 -59 c19 -45 5 -66 -40
-62 -23 2 -33 10 -41 32 -8 24 -6 31 14 47 34 28 50 24 67 -17z"/>
<path d="M2536 3392 c-8 -13 23 -135 37 -144 27 -17 47 -9 47 21 0 16 8 39 19
52 17 21 22 22 45 11 34 -15 36 -15 36 3 0 31 -60 43 -112 21 -12 -6 -17 -2
-20 16 -3 23 -41 38 -52 20z"/>
<path d="M3052 3390 c-49 -20 -48 -101 2 -133 52 -34 147 -23 162 18 13 33
-13 39 -46 11 -24 -20 -38 -24 -58 -20 -54 13 -60 32 -8 26 45 -5 76 12 76 43
0 53 -64 80 -128 55z m75 -36 c10 -26 -12 -39 -43 -25 -21 9 -24 14 -14 26 16
20 49 19 57 -1z"/>
<path d="M3257 3353 c-11 -10 -8 -72 3 -94 20 -37 40 -23 40 29 0 55 -21 87
-43 65z"/>
<path d="M2267 2954 c-3 -4 -3 -19 0 -35 5 -27 3 -29 -25 -29 -93 0 -129 -90
-53 -134 28 -16 39 -17 62 -9 17 7 31 7 35 2 3 -5 14 -9 24 -9 19 0 19 6 14
93 -4 50 -11 100 -16 110 -9 17 -29 23 -41 11z m-13 -113 c19 -21 13 -47 -16
-62 -36 -20 -60 19 -38 62 13 24 32 24 54 0z"/>
<path d="M2870 2934 c-6 -14 -10 -39 -10 -55 0 -24 -4 -29 -25 -29 -14 0 -25
-4 -25 -9 0 -14 28 -33 42 -29 8 3 17 -9 23 -31 14 -48 39 -48 43 2 3 33 6 37
30 37 15 0 34 4 42 10 11 7 9 11 -13 19 -16 6 -37 11 -48 11 -15 0 -19 7 -19
35 0 43 14 45 35 5 19 -36 50 -42 40 -7 -20 64 -96 92 -115 41z"/>
<path d="M3492 2948 c-7 -7 -12 -31 -12 -55 0 -39 -2 -43 -24 -43 -14 0 -27
-4 -31 -9 -7 -12 28 -33 47 -29 7 2 14 -8 16 -22 2 -14 9 -31 14 -38 17 -20
38 5 31 38 -5 27 -3 29 33 32 53 4 56 26 5 34 -48 8 -55 16 -47 50 8 32 21 30
36 -6 14 -33 40 -41 40 -11 0 10 -9 30 -21 45 -22 28 -66 35 -87 14z"/>
<path d="M3857 2953 c-12 -20 34 -85 47 -65 9 15 -10 67 -26 70 -9 2 -18 -1
-21 -5z"/>
<path d="M4503 2926 l6 -36 -40 0 c-29 0 -47 -7 -64 -25 -27 -26 -30 -41 -15
-79 12 -32 76 -54 108 -37 14 7 23 8 27 1 3 -5 13 -10 21 -10 11 0 14 17 14
83 0 88 -14 130 -44 135 -17 4 -18 -1 -13 -32z m-21 -83 c23 -21 23 -36 -2
-58 -16 -15 -22 -15 -35 -5 -18 15 -20 51 -3 68 15 15 18 15 40 -5z"/>
<path d="M3267 2943 c-11 -10 -8 -138 3 -167 5 -14 17 -26 26 -26 15 0 16 9
11 68 -4 37 -7 82 -7 100 0 30 -16 43 -33 25z"/>
<path d="M1177 2913 c-32 -9 -12 -28 34 -31 49 -4 80 -22 36 -22 -46 0 -77
-20 -77 -51 0 -17 7 -32 18 -37 29 -15 77 -21 92 -12 9 5 20 5 28 -2 42 -35
36 76 -7 124 -26 29 -82 44 -124 31z m87 -89 c28 -11 18 -34 -13 -34 -31 0
-47 13 -36 30 7 11 26 13 49 4z"/>
<path d="M1935 2910 c-4 -6 -4 -34 0 -63 14 -104 43 -115 80 -31 13 30 29 53
34 50 5 -3 12 -23 16 -43 8 -44 21 -63 43 -63 12 0 14 9 8 45 -3 25 -10 55
-16 65 -15 28 -58 36 -91 17 -27 -15 -28 -14 -31 6 -3 24 -32 35 -43 17z"/>
<path d="M2593 2905 c-10 -27 18 -135 38 -145 30 -16 37 -12 44 29 9 53 28 68
66 54 20 -8 31 -8 35 -1 17 28 -70 51 -106 28 -11 -7 -17 -2 -27 21 -13 31
-40 39 -50 14z"/>
<path d="M3643 2905 c-10 -27 18 -135 38 -145 30 -16 37 -12 44 29 9 53 28 68
66 54 20 -8 31 -8 35 -1 17 28 -70 51 -106 28 -11 -7 -17 -2 -27 21 -13 31
-40 39 -50 14z"/>
<path d="M4173 2904 c-3 -8 -3 -38 0 -66 11 -88 44 -104 71 -34 23 61 42 75
50 39 12 -51 28 -83 43 -83 21 0 26 25 13 67 -23 71 -60 91 -107 58 -21 -15
-23 -14 -29 10 -7 28 -31 34 -41 9z"/>
<path d="M1457 2903 c-15 -15 -7 -91 13 -116 18 -22 26 -25 82 -23 35 0 68 5
75 9 7 4 24 5 39 1 24 -6 26 -5 18 17 -5 13 -9 40 -9 59 0 31 -4 35 -28 38
-19 2 -27 -1 -27 -12 0 -8 -5 -27 -11 -43 -8 -22 -12 -24 -19 -13 -6 8 -10 27
-10 42 0 31 -11 41 -34 32 -10 -4 -16 -18 -16 -38 0 -34 -15 -64 -26 -53 -4 4
-7 30 -6 57 1 42 -2 50 -17 50 -10 0 -21 -3 -24 -7z"/>
<path d="M1746 2889 c-49 -39 -26 -113 42 -134 37 -11 91 3 107 29 14 21 14
28 -1 65 -9 23 -25 46 -35 51 -30 17 -85 11 -113 -11z m94 -28 c24 -47 0 -88
-45 -77 -33 8 -44 50 -20 76 23 25 51 25 65 1z"/>
<path d="M2381 2891 c-32 -32 -28 -83 10 -115 54 -45 169 -29 169 25 0 25 -22
24 -45 -1 -20 -23 -77 -27 -93 -7 -8 9 0 12 33 12 28 0 50 6 61 17 16 15 15
19 -3 50 -17 29 -25 33 -65 36 -37 2 -51 -1 -67 -17z m90 -44 c-12 -12 -54 -5
-59 11 -2 6 7 16 20 21 17 7 26 5 36 -7 7 -9 8 -20 3 -25z"/>
<path d="M3025 2900 c-4 -6 -4 -28 0 -50 11 -67 92 -115 125 -75 10 12 15 12
36 -1 13 -9 31 -13 40 -10 15 6 15 9 -5 30 -12 13 -25 40 -28 60 -10 65 -48
59 -68 -11 -6 -20 -15 -38 -21 -40 -13 -4 -34 48 -34 83 0 17 -6 24 -19 24
-11 0 -23 -5 -26 -10z"/>
<path d="M3968 2898 c-69 -52 -16 -148 81 -148 52 0 91 21 91 51 0 25 -22 24
-45 -1 -20 -23 -77 -27 -93 -7 -8 9 0 12 33 12 28 0 50 6 61 17 16 15 15 19
-3 50 -16 28 -25 33 -63 36 -26 2 -52 -3 -62 -10z m83 -51 c-12 -12 -54 -5
-59 11 -2 6 7 16 20 21 17 7 26 5 36 -7 7 -9 8 -20 3 -25z"/>
<path d="M3867 2863 c-21 -20 2 -113 28 -113 11 0 15 11 15 44 0 24 -3 51 -6
60 -6 16 -26 21 -37 9z"/>
<path d="M4597 2793 c-12 -12 -7 -31 10 -37 24 -9 39 9 23 29 -14 16 -23 19
-33 8z"/>
<path d="M2547 1793 c-4 -3 -7 -62 -7 -130 0 -116 1 -123 20 -123 18 0 20 7
20 54 0 66 27 108 57 90 14 -9 19 -26 21 -78 3 -58 5 -66 22 -66 18 0 20 7 20
73 0 101 -26 124 -102 92 -16 -6 -18 -1 -18 44 0 36 -4 51 -13 51 -8 0 -17 -3
-20 -7z"/>
<path d="M2300 1770 c0 -17 7 -20 40 -20 l40 0 0 -105 c0 -98 1 -105 20 -105
19 0 20 7 20 105 l0 105 35 0 c28 0 35 4 35 20 0 19 -7 20 -95 20 -88 0 -95
-1 -95 -20z"/>
<path d="M3330 1665 l0 -125 49 0 c27 0 61 4 75 10 51 19 59 90 12 112 l-24
10 25 23 c54 46 6 95 -93 95 l-44 0 0 -125z m114 75 c17 -17 -8 -45 -43 -48
-30 -3 -31 -2 -31 34 0 36 1 36 32 30 18 -3 37 -11 42 -16z m6 -110 c14 -26
-15 -60 -51 -60 -27 0 -29 3 -29 38 0 21 2 41 5 44 11 10 66 -5 75 -22z"/>
<path d="M2840 1713 c-8 -3 -23 -12 -32 -21 -16 -14 -18 -13 -18 1 0 10 -8 17
-20 17 -18 0 -20 -7 -20 -85 0 -78 2 -85 20 -85 16 0 20 7 20 34 0 59 18 94
56 106 19 6 34 18 34 26 0 14 -13 17 -40 7z"/>
<path d="M2953 1709 c-48 -25 -55 -122 -10 -154 30 -21 117 -21 117 1 0 13 -7
15 -32 10 -32 -6 -78 14 -78 34 0 6 30 10 66 10 l67 0 -6 37 c-4 20 -12 43
-20 50 -18 19 -77 25 -104 12z m75 -31 c25 -25 13 -38 -33 -38 -49 0 -50 1
-35 31 12 21 50 25 68 7z"/>
<path d="M3154 1709 c-48 -24 -59 -105 -19 -144 19 -20 34 -25 75 -25 39 0 50
3 50 16 0 13 -7 15 -32 10 -32 -6 -78 14 -78 34 0 6 30 10 66 10 l67 0 -6 37
c-4 20 -12 43 -20 50 -18 18 -77 25 -103 12z m74 -31 c25 -25 13 -38 -33 -38
-49 0 -50 1 -35 31 12 21 50 25 68 7z"/>
</g>
</svg>
