<?xml version="1.0" encoding="UTF-8"?>
<svg id="_レイヤー_1" data-name="レイヤー 1" xmlns="http://www.w3.org/2000/svg" width="156.13mm" height="299.11mm" viewBox="0 0 442.59 847.87">
  <path d="M275.41,74.32c2.75.23,5.56,3.37,7.59,3.9,11.5,2.98,17.5.46,28.74,9.26,2.68,2.1,6.07,7.07,8.59,8.41,11.37,6.02,20.1,5.49,27.74,19.26,2.13,3.84,2.67,9.15,4.3,11.7,1.24,1.93,4.96,3.28,6.9,5.1,11.34,10.66,30.06,37.67,35.75,52.25,10.69,27.38,9.08,55.31,13.38,83.62,1.25,8.23,6.8,34.34,10.08,40.92,1.04,2.09,4.85,3.38,6.79,5.21,11.74,11.06,14.29,17.94,15.03,34.06.31,6.75,1.12,8.92,1.85,15.06,1.05,8.86.34,17.87-4.09,25.7-1.97,3.49-9.2,9.88-9.65,11.42-.6,2.11,1.15,12.2.72,16.65-1.9,19.6-12.43,33.61-30.66,40.34-9.84,3.63-7.97,3.19-16.31,8.69s-16.3,7.79-25.92,8.1c.89,3.43.49,8.13,1.76,11.24.96,2.35,5.73,6.99,7.43,10.57,2.25,4.75,2.57,11.11,4.4,14.6,1.18,2.25,5.87,6.12,7.84,9.16,5.65,8.74,4.27,13.77,7.06,21.94,1.07,3.14,4.72,6.66,6.29,10.71,2.18,5.63,1.37,8.71,2.44,13.56,1,4.47,6.2,10.41,7.35,17.65.61,3.84-.13,8.06.69,11.31.95,3.75,5.33,7.97,6.31,13.69,1.9,11.09,3.2,22.31,5.65,33.35.59,2.64,4.55,6.85,5.99,10.01,2.57,5.67,2.52,11.76,4.36,16.64.8,2.1,3.51,4.18,4.64,6.36,6.74,13.03,3.95,17.57,5.87,30.13.6,3.91,3.43,8.11,3.93,13.07.66,6.53-2.1,15.12-1.71,18.86s4.45,9.59,4.76,16.1c.4,8.4-4.04,14.99-4.08,20.02-.03,4.38,3.95,12.21,4.11,18.01.92,32.78-30.45,43.85-57.58,46.49-7.38.72-16.51-.15-23.93,1.07-4.76.78-11.78,4.27-17.52,5.48-40.09,8.46-84.75,6.13-99.06-39.01-13.88-2.69-28.74-5.53-42.87-3.42-4.82,26.12-27.4,44.01-53.56,45.94-25.45,1.87-39.93-3.8-63.15-8.92-6.76-1.49-12.58-.4-18.87-1.13-27.16-3.11-58.82-13.08-57.55-46.53.13-3.34,3.01-12.48,2.8-13.79s-3.87-5.91-4.78-8.14c-2.51-6.11-3.54-12.17-2.72-18.77.55-4.4,4.2-10.81,4.46-13.39.42-4.08-2.44-12.72-1.62-19.76.52-4.43,3.28-8.58,3.83-12.17,1-6.51-.29-12.08,1.55-19.45,2.06-8.25,6.56-11.33,8.93-17.07,1.98-4.81,1.88-11.01,4.39-16.61,1.43-3.18,5.39-7.34,5.99-10.01,2.4-10.81,3.76-21.65,5.45-32.55.87-5.63,5.59-10.76,6.52-14.48,2.19-8.78,1.01-13.68,5.06-23.94,2.78-7.04,2.86-11.37,5.14-17.86,1.62-4.6,5.19-7.78,6.54-11.46,2.91-7.89,1.63-13.45,7.08-21.92,1.96-3.05,6.66-6.91,7.84-9.16,1.89-3.61,2.25-10.11,4.39-14.61,1.76-3.71,7.57-9.22,8.45-11.59.67-1.81-.64-5.81.75-8.21-10.44.16-19.58-3.23-28.34-8.69-2.71-1.69-6.87-6.38-8.73-7.27-3.62-1.75-9.81-1.93-14.62-4.38-15.14-7.71-22.52-25.3-23.13-41.67-.12-3.19,1.77-6.83.59-10.8-.45-1.5-7.85-8.74-9.61-12.38-3.27-6.73-3.9-15.42-3.17-22.81.33-3.32,2.18-6.68,2.44-9.37,1.43-14.68-2.64-19.37,8.14-33.06,1.91-2.42,9.78-8.78,10.2-9.8,2.78-6.73,7.05-26.3,8.72-34.28,6.88-32.82,3.18-67.32,17.32-98.68,8.89-19.72,24.83-35.84,37.63-52.39.88-1.14,2.85-1.54,3.27-2.2.86-1.33,2.05-8.15,3.41-11.09,4.84-10.42,12.61-14.9,22.58-19.42,9.04-4.1,8.05-5.36,15.37-10.63,2.8-2.02,6.37-4.15,9.56-5.44,9.58-3.87,19.01-2.22,27.92-8.11,1.29-1.84-1.35-8.69-1.56-11.56-4.21-59.43,71.44-84.79,102.79-36.79,10.05,15.38,10.72,31.47,7.33,49.17ZM358.91,138.81c-2.72-2.66-9.42-5.95-11.13-8.37-3.45-4.87-2.83-12.55-8.98-19.02-7.23-7.61-14.38-6.63-21.48-10.52-3.96-2.18-8.09-9.5-15.85-13.15-8.21-3.86-14.15-2.48-21.26-4.74-2.94-.93-7.57-4.95-11.52-5.51-1.63-2.37,1.78-7.9,2.31-10.8,11.66-63.81-78.71-84.53-97.78-26.78-4.49,13.58-2.53,24.13,1,37.5-5.34-.38-10.73,4.58-14.71,5.79-11.85,3.58-18.25.32-29.72,10.28-2.23,1.93-5.14,6.61-6.56,7.44-2.33,1.35-7.95,2.14-11.32,3.68-6.75,3.1-12.85,8.24-15.84,15.16s-.91,7.36-6.34,13.64c-16.64,19.21-35.27,40.19-42.73,65.29-8.37,28.12-6.19,58.69-12.6,87.4-1.24,5.55-6.91,30.02-8.65,33.35-.83,1.59-6.41,4.63-8.13,6.37-4.86,4.92-10.33,16.19-10.43,23.16-.05,3.43,1.44,6.46,1.14,9.99-.27,3.15-2.5,6.47-2.94,10.11-1.56,12.72,3.44,24.56,14.4,31.34-4.81,25.5,1.96,45.01,27.45,53.59,9.22,3.1,6.05,2.51,13.31,7.69,4.79,3.41,15.48,8.77,21.23,8.76,4.09,0,8.51-2.69,12.51-2.47-3.21,5.24-.82,13.12-2.22,17.78-.6,2.01-7.71,9.27-9.52,13.48-1.94,4.48-2.03,10.69-3.85,14.15-1.93,3.69-7.56,6.96-10.3,12.7-3.15,6.61-1.91,11.13-3.56,16.44-.95,3.06-5.93,7.43-7.61,12.39-1.54,4.55-1.21,9.51-2.41,13.59s-4.49,7.77-5.87,13.13-.52,12.04-1.25,14.88c-1.36,5.25-6.86,8.81-7.41,18.46-.58,10.18-1.05,7.54-3.52,16.48-1.26,4.56-.75,9.55-1.72,13.28-.65,2.52-5.17,7-6.55,10.45-2,4.97-1.64,11.35-3.47,15.53-1.97,4.5-6.21,6.94-8.24,13.76-2.6,8.73-.7,13.47-1.51,20.4-.45,3.86-4.34,9.28-4.86,15.22-.6,6.78,2.94,13.57,2.62,16.73-.23,2.26-3.94,7.75-4.51,11.39-1,6.44-.56,12.64,1.91,18.61,1.04,2.52,5.44,8.21,5.61,9.31.23,1.45-2.45,7.94-2.75,10.84-3.1,30.27,20.8,41.14,46.61,44.37,7.52.94,17.05.11,23.82,1.18,3.13.5,8.36,3.59,12.34,4.66,16.17,4.32,39.97,6.81,56.44,4.01,23.35-3.98,39.76-21.05,43.73-44.27,17.15-3.84,34.75.67,51.86,2.73,3.67,20.07,18.16,35.51,37.98,40.52,16.78,4.24,40.48,1.86,57.39-2.02,5.38-1.23,12.41-5,16.38-5.62,5.36-.85,12.27.38,17.93-.07,27.59-2.19,60.43-9.86,57.55-44.53-.41-4.98-4.76-13.83-4.65-15.98.13-2.69,5.24-9.78,5.23-16.81s-5.11-15.16-5.21-18.16c-.13-4.16,3.15-10.16,2.58-17-.47-5.72-4.65-11.53-4.98-15.1-.46-5.02,1.22-9.95-.26-16.65-1.99-9.03-7.25-11.92-9.49-17.51-1.9-4.74-1.41-11.03-4.07-16.93-1.29-2.86-5.57-7.53-5.98-9.02-.96-3.42-.51-8.82-1.7-13.3-2.4-9.03-3.34-6.06-3.42-16.49-.07-8.34-5.49-12.83-6.84-18.24-1.05-4.19-.46-10.28-1.71-15.29-1.31-5.3-5.06-9.23-6.07-12.93-1.25-4.6-.71-9.07-2.69-14.31-1.68-4.45-5.61-7.83-6.85-11.15-1.8-4.86-.9-9.71-3.39-15.61-2.85-6.75-8.75-9.82-10.96-14.04-2-3.83-2.05-10.65-4.39-15.61-1.64-3.47-8.53-10.52-8.98-12.02-1.39-4.67,1.15-12.27-2.2-17.29,12.69,1.06,22.32-1.75,32.48-9.03,1.89-1.35,3.82-4.59,5.57-5.43,3.84-1.84,10.68-2.02,15.63-4.37,18.68-8.87,23.26-32.88,19.46-51.45,10.6-9.24,16.47-18.35,14.75-33.12-.44-3.77-3.19-8.43-3.42-11.07-.24-2.92,1.6-6.83,1.55-9.99-.11-7.14-5.88-19.1-10.99-24.09-2.51-2.45-7.87-4.62-9.6-6.4-1.96-2.03-10.24-36.47-11.15-41.85-5.86-34.65-1.92-68.55-20.87-100.13-4.15-6.92-18.52-27.59-23.77-32.73ZM244.03,51.99c0,12.57-10.19,22.77-22.77,22.77s-22.77-10.19-22.77-22.77,10.19-22.77,22.77-22.77,22.77,10.19,22.77,22.77ZM238.49,52.06c0-9.52-7.71-17.23-17.23-17.23s-17.23,7.71-17.23,17.23,7.71,17.23,17.23,17.23,17.23-7.71,17.23-17.23Z"/>
</svg>