<?xml version="1.0" standalone="no"?>
<!DOCTYPE svg PUBLIC "-//W3C//DTD SVG 20010904//EN"
 "http://www.w3.org/TR/2001/REC-SVG-20010904/DTD/svg10.dtd">
<svg version="1.0" xmlns="http://www.w3.org/2000/svg"
 width="580.000000pt" height="867.000000pt" viewBox="0 0 580.000000 867.000000"
 preserveAspectRatio="xMidYMid meet">

<g transform="translate(0.000000,867.000000) scale(0.100000,-0.100000)"
fill="#000000" stroke="none">
<path d="M2756 8545 c-175 -48 -316 -178 -383 -352 -22 -57 -26 -85 -27 -173
-1 -58 3 -123 7 -146 l8 -41 -53 -25 c-31 -15 -80 -28 -118 -32 -86 -8 -191
-59 -256 -126 -27 -27 -56 -50 -64 -50 -34 0 -157 -70 -198 -110 -47 -47 -73
-91 -92 -157 -14 -45 -52 -94 -133 -171 -27 -26 -63 -71 -81 -102 -18 -30 -58
-89 -90 -130 -106 -140 -178 -320 -211 -525 -8 -49 -24 -187 -35 -305 -24
-255 -37 -327 -90 -520 -22 -80 -40 -150 -40 -156 0 -7 -28 -41 -63 -76 -91
-91 -121 -157 -124 -277 -1 -52 -8 -118 -14 -146 -6 -29 -10 -89 -7 -132 5
-91 28 -148 88 -215 l39 -44 0 -100 c0 -121 23 -205 81 -292 58 -86 152 -150
245 -168 24 -4 58 -22 85 -45 75 -62 185 -111 262 -117 l66 -5 -3 -42 c-3 -31
-15 -57 -44 -96 -35 -46 -81 -155 -81 -191 0 -5 -18 -31 -41 -56 -54 -62 -84
-123 -99 -202 -7 -37 -25 -85 -42 -112 -33 -53 -58 -126 -58 -169 0 -16 -13
-54 -29 -86 -33 -65 -50 -129 -51 -187 0 -23 -13 -65 -32 -104 -24 -49 -34
-84 -39 -146 -4 -44 -16 -106 -28 -136 -11 -30 -20 -72 -21 -93 0 -26 -11 -57
-35 -95 -31 -51 -65 -150 -65 -192 0 -8 -14 -33 -30 -54 -46 -60 -71 -140 -77
-236 -2 -47 -14 -115 -25 -153 -17 -56 -19 -82 -14 -155 4 -48 7 -94 7 -102 1
-8 -7 -35 -16 -60 -38 -101 -27 -220 31 -311 20 -33 22 -42 12 -66 -6 -15 -12
-71 -12 -124 -1 -91 1 -98 37 -171 84 -170 262 -256 575 -277 101 -7 157 -16
212 -34 114 -39 239 -58 415 -64 192 -6 271 7 391 67 131 64 251 208 284 341
12 46 12 47 62 53 50 7 323 -19 366 -35 12 -5 22 -14 22 -22 0 -35 75 -164
127 -219 73 -77 141 -121 240 -154 67 -23 99 -28 223 -31 169 -5 369 19 491
60 58 20 111 28 239 36 191 13 304 37 409 88 134 64 211 166 233 307 10 68 9
84 -11 166 -22 89 -22 92 -4 138 26 68 24 201 -4 264 -17 38 -20 54 -12 80 15
54 11 164 -10 226 -10 31 -21 98 -24 147 -5 101 -30 180 -77 241 -16 21 -30
46 -30 54 0 42 -34 141 -65 192 -23 37 -35 68 -35 93 0 20 -11 69 -24 108 -13
40 -26 104 -28 143 -4 55 -12 85 -37 130 -22 41 -31 71 -31 105 0 55 -31 161
-60 204 -11 17 -20 46 -20 66 0 46 -23 111 -59 169 -17 26 -32 67 -36 97 -9
67 -52 156 -103 214 -26 29 -43 59 -47 85 -9 48 -53 140 -89 186 -20 25 -29
48 -31 86 l-4 52 38 0 c81 0 175 40 261 110 25 21 62 40 84 44 211 40 361 261
343 504 l-6 76 49 53 c64 70 90 140 90 242 0 43 -6 98 -13 122 -8 26 -12 71
-9 110 9 141 -61 275 -194 369 -16 11 -32 56 -67 190 -54 206 -51 187 -82 500
-13 135 -32 283 -40 329 -36 188 -107 357 -200 478 -30 37 -75 100 -100 138
-55 81 -116 147 -162 176 -23 15 -36 32 -44 62 -25 98 -105 187 -212 238 -34
16 -68 29 -76 29 -8 0 -40 24 -71 54 -80 76 -190 126 -279 126 -20 0 -56 10
-81 23 l-45 23 12 49 c67 291 -116 593 -407 670 -68 18 -218 18 -284 0z m247
-50 c288 -61 468 -362 380 -638 -16 -50 -12 -77 10 -77 7 0 31 -10 52 -21 22
-12 76 -27 121 -34 102 -16 184 -56 249 -120 37 -37 65 -55 106 -68 116 -36
192 -110 224 -220 14 -48 23 -62 60 -87 55 -38 108 -94 148 -157 18 -28 61
-88 95 -134 152 -199 202 -361 242 -784 25 -272 38 -347 93 -554 l44 -164 44
-29 c113 -75 181 -216 162 -334 -7 -37 -4 -61 10 -104 14 -41 18 -73 15 -126
-6 -89 -33 -148 -100 -213 -45 -45 -49 -52 -43 -81 14 -61 7 -183 -14 -250
-43 -137 -132 -223 -267 -258 -54 -13 -82 -27 -118 -59 -78 -69 -168 -102
-278 -103 l-57 0 10 -32 c5 -18 9 -58 9 -89 0 -43 5 -60 20 -74 39 -35 80
-113 97 -181 13 -55 25 -78 59 -115 56 -61 82 -115 93 -192 7 -47 18 -77 40
-107 33 -46 61 -125 61 -172 0 -15 13 -54 30 -85 30 -57 50 -137 50 -196 0
-16 15 -59 32 -95 27 -55 33 -78 33 -138 1 -40 6 -78 13 -86 15 -19 42 -124
42 -165 0 -21 11 -48 29 -74 32 -43 55 -107 66 -178 4 -26 20 -61 40 -87 45
-59 68 -133 71 -234 2 -55 10 -104 23 -140 23 -62 25 -133 7 -200 -10 -39 -10
-50 6 -82 40 -82 40 -200 0 -278 -18 -34 -18 -36 5 -100 45 -128 24 -268 -52
-357 -97 -114 -257 -166 -558 -183 -113 -6 -156 -13 -212 -33 -83 -30 -245
-56 -399 -63 -212 -10 -375 42 -486 155 -59 61 -124 173 -136 236 -7 39 6 35
-194 60 -127 15 -251 18 -304 6 -26 -5 -31 -12 -43 -65 -44 -193 -210 -343
-423 -382 -146 -27 -450 0 -595 53 -52 18 -104 27 -200 34 -317 23 -487 97
-563 244 -33 65 -42 187 -19 265 15 51 15 55 -4 81 -65 91 -78 207 -35 312 23
54 23 60 9 105 -18 57 -12 153 13 209 11 24 18 68 19 118 3 102 26 181 69 238
25 32 38 64 49 122 11 53 27 95 50 129 26 39 35 66 40 115 4 35 19 89 33 120
18 39 24 65 19 88 -8 43 11 119 43 173 15 26 25 57 23 72 -4 45 19 139 50 201
16 32 29 70 29 85 0 48 28 127 62 173 24 33 34 60 40 106 9 75 36 131 93 192
33 36 45 59 54 102 14 65 39 117 87 176 29 35 34 49 34 95 0 29 4 69 10 87 5
19 9 36 7 37 -1 1 -27 -4 -57 -12 -33 -9 -71 -12 -95 -8 -55 9 -168 67 -218
113 -27 24 -56 40 -80 44 -94 15 -197 84 -244 165 -52 89 -76 238 -54 337 6
26 2 35 -37 69 -84 76 -123 209 -91 316 8 25 14 86 14 135 0 81 3 97 32 155
35 71 49 90 107 137 36 30 40 38 77 180 64 243 78 317 99 548 33 350 58 482
120 627 33 76 103 190 160 258 20 25 41 56 45 69 4 13 37 56 74 94 36 39 82
87 103 109 24 25 40 55 48 89 25 104 112 190 228 226 43 13 70 31 107 69 63
64 142 103 236 115 41 6 90 19 109 29 19 10 54 24 78 31 46 13 48 19 28 75
-74 212 37 480 245 589 115 60 221 76 342 50z"/>
<path d="M2815 8256 c-152 -66 -188 -264 -68 -378 39 -37 93 -58 153 -58 129
0 224 96 224 225 0 95 -53 175 -141 212 -41 17 -129 16 -168 -1z m127 -46 c44
-13 93 -52 113 -91 22 -41 19 -114 -6 -158 -32 -57 -81 -86 -149 -86 -44 0
-65 6 -93 25 -49 33 -77 87 -77 144 0 77 42 135 117 161 47 17 49 17 95 5z"/>
<path d="M3808 6403 c-54 -114 -98 -229 -133 -343 -9 -30 -19 -62 -21 -70 -3
-8 -2 -11 2 -7 4 4 26 65 50 136 23 71 69 189 103 262 33 73 59 134 57 136 -1
2 -28 -50 -58 -114z"/>
<path d="M3873 6278 c-70 -129 -125 -248 -115 -247 8 0 183 351 178 356 -1 2
-30 -48 -63 -109z"/>
<path d="M1980 6356 c0 -30 156 -353 166 -344 2 2 -18 44 -43 93 -26 50 -61
125 -79 168 -29 73 -44 100 -44 83z"/>
<path d="M2860 6297 c0 -31 -3 -34 -30 -34 -65 0 -100 -41 -86 -99 9 -35 69
-60 104 -44 18 8 28 8 36 0 26 -26 36 -10 36 63 0 94 -15 147 -40 147 -16 0
-20 -7 -20 -33z m-18 -84 c10 -9 18 -22 18 -29 0 -17 -39 -44 -55 -38 -18 7
-26 44 -14 66 12 22 27 23 51 1z"/>
<path d="M3600 6283 c0 -103 33 -131 44 -39 7 64 1 86 -25 86 -16 0 -19 -8
-19 -47z"/>
<path d="M1860 6305 c0 -19 250 -388 258 -381 2 2 -37 62 -86 133 -49 70 -106
156 -127 191 -35 57 -45 70 -45 57z"/>
<path d="M2457 6283 c-4 -3 -7 -21 -7 -39 0 -46 52 -97 92 -92 31 5 36 -3 13
-22 -8 -7 -25 -10 -40 -6 -35 9 -31 -9 5 -24 65 -27 113 24 108 116 -4 74 -27
86 -55 28 -33 -69 -72 -71 -78 -2 -2 18 -3 36 -4 41 -1 9 -25 9 -34 0z"/>
<path d="M3191 6281 c-24 -15 -1 -31 44 -31 24 0 47 -4 50 -10 4 -6 -7 -10
-27 -10 -43 -1 -68 -20 -68 -53 0 -34 29 -49 84 -46 23 2 47 -1 54 -5 34 -21
40 44 10 109 -20 45 -106 72 -147 46z m104 -101 c0 -18 -43 -26 -57 -12 -16
16 2 33 30 30 16 -2 27 -9 27 -18z"/>
<path d="M3386 6282 c-9 -14 20 -133 37 -149 23 -24 43 -10 51 36 7 44 32 66
57 50 7 -5 23 -9 34 -9 18 1 17 3 -8 26 -16 13 -36 23 -45 20 -63 -19 -69 -18
-76 8 -6 25 -38 37 -50 18z"/>
<path d="M2157 6273 c-4 -3 -7 -28 -7 -54 0 -79 57 -122 74 -55 3 14 11 38 17
53 8 22 12 24 19 13 6 -8 10 -27 10 -42 0 -17 8 -31 19 -38 22 -11 24 -10 40
43 15 44 28 48 37 10 12 -57 16 -63 36 -63 19 0 20 5 15 45 -7 71 -59 109 -96
73 -10 -11 -15 -10 -25 5 -17 22 -54 22 -78 0 -17 -15 -18 -15 -18 0 0 17 -30
24 -43 10z"/>
<path d="M2970 6260 c-54 -54 6 -140 97 -140 46 0 102 37 89 58 -11 18 -31 14
-51 -8 -21 -23 -63 -26 -89 -7 -17 12 -13 14 28 14 30 0 53 6 63 16 16 15 16
19 0 52 -16 33 -19 35 -67 35 -37 0 -55 -5 -70 -20z m94 -16 c11 -28 7 -34
-23 -34 -37 0 -50 19 -26 37 25 17 41 17 49 -3z"/>
<path d="M3610 6146 c0 -17 27 -29 35 -16 4 6 3 15 0 20 -9 15 -35 12 -35 -4z"/>
<path d="M3164 5779 c-92 -27 -130 -145 -75 -235 33 -54 121 -78 220 -58 l31
7 0 88 0 89 -65 0 -65 0 0 -30 c0 -27 3 -30 30 -30 28 0 30 -3 30 -35 0 -33
-2 -35 -34 -35 -75 0 -117 82 -77 147 23 37 70 51 116 33 25 -9 31 -8 42 6 19
27 16 34 -22 50 -38 16 -84 17 -131 3z"/>
<path d="M3762 5770 c-34 -15 -47 -29 -64 -66 -50 -114 17 -224 137 -224 98 0
155 57 155 156 0 121 -112 187 -228 134z m132 -72 c9 -12 16 -42 16 -66 0 -76
-67 -117 -121 -74 -30 25 -33 109 -5 141 27 30 89 29 110 -1z"/>
<path d="M1510 5630 l0 -150 63 1 c34 0 78 5 97 12 69 24 79 100 17 137 -18
11 -25 20 -16 20 23 0 49 33 49 63 0 46 -41 67 -131 67 l-79 0 0 -150z m121
90 c25 -14 24 -36 -2 -50 -28 -16 -49 -6 -49 23 0 38 15 46 51 27z m20 -126
c19 -23 -1 -48 -40 -52 -30 -3 -31 -2 -31 32 0 33 2 36 29 36 16 0 34 -7 42
-16z"/>
<path d="M1780 5630 l0 -150 95 0 95 0 0 30 c0 30 -1 30 -55 30 l-55 0 0 35 0
35 55 0 c54 0 55 0 55 30 0 30 -1 30 -55 30 -52 0 -55 1 -55 25 0 24 3 25 55
25 54 0 55 0 55 30 l0 30 -95 0 -95 0 0 -150z"/>
<path d="M2040 5629 l0 -152 80 5 c60 4 88 10 108 25 85 62 80 211 -8 255 -24
12 -59 18 -107 18 l-73 0 0 -151z m152 74 c24 -21 25 -114 2 -137 -18 -19 -59
-30 -73 -21 -7 3 -11 42 -11 91 l0 84 32 0 c17 0 40 -7 50 -17z"/>
<path d="M2340 5630 l0 -150 100 0 100 0 0 35 0 35 -60 0 -60 0 0 115 0 115
-40 0 -40 0 0 -150z"/>
<path d="M2600 5630 l0 -150 45 0 45 0 0 150 0 150 -45 0 -45 0 0 -150z"/>
<path d="M2760 5630 l0 -150 40 0 40 0 0 83 c1 94 4 93 62 -19 32 -61 35 -64
71 -64 l37 0 0 150 0 150 -35 0 -35 0 0 -82 c-1 -95 -4 -94 -62 18 -33 63 -33
64 -75 64 l-43 0 0 -150z"/>
<path d="M3400 5750 c0 -28 2 -30 40 -30 l40 0 0 -120 0 -120 40 0 40 0 0 120
0 120 40 0 c38 0 40 2 40 30 l0 30 -120 0 -120 0 0 -30z"/>
<path d="M4040 5631 l0 -151 40 0 40 0 0 88 0 87 48 -87 c46 -87 47 -88 84
-88 l38 0 0 150 0 150 -35 0 -35 0 0 -82 c0 -52 -4 -78 -9 -72 -6 5 -27 41
-48 79 -37 68 -39 70 -81 73 l-42 3 0 -150z"/>
<path d="M2000 5330 c0 -28 2 -30 40 -30 l40 0 0 -120 0 -120 40 0 39 0 3 118
3 117 43 3 c39 3 42 5 42 33 l0 29 -125 0 -125 0 0 -30z"/>
<path d="M2310 5210 l0 -150 95 0 95 0 0 30 0 30 -61 0 -60 0 3 33 c3 31 4 32
56 35 47 3 52 5 52 27 0 22 -5 24 -52 27 -49 3 -53 5 -56 31 -3 27 -3 27 57
27 l61 0 0 30 0 30 -95 0 -95 0 0 -150z"/>
<path d="M2570 5211 l0 -151 35 0 35 0 0 55 c0 30 4 55 9 55 26 0 42 -16 56
-61 16 -48 18 -49 56 -49 21 0 39 2 39 4 0 15 -34 93 -46 108 -15 16 -14 19
11 40 35 30 38 90 6 122 -18 18 -36 22 -111 24 l-90 4 0 -151z m144 67 c13
-22 -18 -58 -51 -58 -20 0 -23 5 -23 41 0 39 1 40 31 37 18 -2 37 -11 43 -20z"/>
<path d="M2850 5211 l0 -151 40 0 40 0 0 55 c0 30 4 55 9 55 26 0 42 -16 56
-61 16 -48 18 -49 56 -49 21 0 39 2 39 4 0 15 -33 93 -46 107 -14 15 -13 19
10 42 34 34 36 95 5 123 -17 15 -40 20 -115 22 l-94 4 0 -151z m150 74 c18
-22 -12 -65 -45 -65 -22 0 -25 4 -25 40 0 37 2 40 29 40 16 0 34 -7 41 -15z"/>
<path d="M3150 5210 l0 -150 40 0 40 0 0 150 0 150 -40 0 -40 0 0 -150z"/>
<path d="M3310 5210 l0 -150 95 0 95 0 0 30 c0 30 -1 30 -55 30 l-55 0 0 35 0
35 50 0 c47 0 50 2 50 25 0 23 -3 25 -50 25 -49 0 -50 1 -50 30 0 30 1 30 55
30 54 0 55 0 55 30 l0 30 -95 0 -95 0 0 -150z"/>
<path d="M3570 5211 l0 -151 35 0 35 0 0 49 c0 28 4 53 10 56 20 12 48 -15 60
-60 12 -43 14 -45 51 -45 47 0 48 7 11 80 l-27 56 23 19 c35 31 39 76 9 111
-24 27 -30 29 -116 32 l-91 4 0 -151z m145 70 c8 -27 -4 -50 -31 -57 -33 -8
-44 2 -44 42 0 32 2 34 34 34 25 0 36 -5 41 -19z"/>
<path d="M2276 3704 c-3 -9 -3 -52 0 -96 5 -60 11 -81 24 -88 22 -12 30 -4 30
31 0 15 5 40 11 56 l11 28 19 -24 c10 -13 19 -33 19 -45 0 -29 24 -61 38 -52
30 18 -1 115 -42 134 -13 6 -33 8 -44 5 -16 -4 -21 2 -26 31 -7 37 -29 48 -40
20z"/>
<path d="M2888 3709 c-2 -6 0 -47 3 -92 6 -60 12 -84 25 -94 24 -17 34 -8 34
33 0 45 22 45 49 -1 13 -23 28 -35 42 -35 16 0 19 4 14 18 -25 61 -28 76 -17
80 7 2 12 11 12 19 0 16 -27 15 -87 -3 -20 -6 -23 -3 -23 24 0 17 -3 37 -6 46
-7 18 -40 22 -46 5z"/>
<path d="M2010 3699 c-20 -8 -22 -12 -10 -19 8 -5 34 -10 58 -10 42 0 42 0 42
-37 0 -61 19 -115 38 -111 14 3 16 14 14 76 l-4 72 46 0 c50 0 67 13 37 29
-25 14 -187 13 -221 0z"/>
<path d="M2477 3673 c-20 -19 -4 -31 38 -30 24 1 50 -4 57 -11 9 -9 4 -12 -28
-12 -68 0 -98 -54 -49 -86 18 -12 39 -15 70 -12 24 3 48 1 54 -5 16 -16 24 17
17 68 -9 59 -50 95 -110 95 -24 0 -46 -3 -49 -7z m109 -94 c7 -12 -13 -29 -36
-29 -23 0 -43 17 -36 29 4 6 20 11 36 11 16 0 32 -5 36 -11z"/>
<path d="M2670 3642 c0 -66 23 -121 51 -122 4 0 14 20 23 44 9 25 23 50 31 56
12 10 16 4 26 -34 13 -53 34 -75 51 -58 13 13 -3 95 -24 119 -12 15 -74 17
-83 3 -10 -16 -22 -12 -28 10 -3 12 -14 20 -26 20 -18 0 -21 -6 -21 -38z"/>
<path d="M3170 3643 c1 -58 56 -112 100 -98 11 4 20 2 20 -4 0 -18 -38 -32
-66 -25 -35 9 -24 -9 15 -26 24 -9 35 -9 57 2 38 18 54 52 54 121 0 53 -2 57
-22 57 -17 0 -27 -10 -40 -40 -9 -22 -24 -43 -34 -47 -20 -8 -46 22 -43 52 3
37 -1 45 -21 45 -16 0 -20 -7 -20 -37z"/>
<path d="M3420 3662 c-30 -14 -35 -23 -38 -55 -4 -46 15 -71 64 -87 44 -15
101 3 116 35 20 44 -41 125 -95 125 -7 0 -28 -8 -47 -18z m89 -63 c9 -26 7
-31 -14 -45 -23 -15 -27 -15 -51 0 -33 22 -30 65 6 83 29 14 44 5 59 -38z"/>
<path d="M3595 3659 c-11 -17 4 -75 25 -102 26 -33 66 -42 96 -22 22 14 26 14
49 -1 31 -20 53 -9 30 16 -9 10 -22 38 -29 62 -10 31 -19 44 -34 46 -18 3 -23
-4 -33 -43 -6 -25 -15 -48 -20 -50 -11 -8 -39 49 -39 80 0 18 -5 25 -19 25
-11 0 -23 -5 -26 -11z"/>
<path d="M2165 3219 c-4 -5 -8 -29 -9 -52 -2 -38 -5 -42 -30 -45 -35 -4 -29
-25 10 -32 23 -4 30 -12 34 -35 3 -17 12 -31 22 -33 13 -2 17 6 20 35 3 36 5
38 41 41 51 4 43 26 -11 30 -40 3 -42 4 -42 37 0 48 18 53 36 10 8 -20 20 -35
27 -32 20 6 19 32 -3 60 -16 20 -31 27 -55 27 -19 0 -37 -5 -40 -11z"/>
<path d="M2842 3213 c-11 -20 -1 -160 12 -182 11 -17 89 -8 123 14 47 31 12
105 -56 118 -23 5 -30 12 -33 34 -4 33 -32 43 -46 16z m98 -102 c7 -15 5 -25
-9 -42 -23 -29 -41 -17 -41 27 0 27 4 34 20 34 10 0 24 -9 30 -19z"/>
<path d="M3250 3214 c0 -24 19 -54 35 -54 16 0 18 12 9 48 -7 25 -44 31 -44 6z"/>
<path d="M3341 3191 c-21 -13 -9 -131 15 -148 27 -20 30 -17 50 39 11 28 24
53 31 55 6 3 18 -19 27 -51 16 -55 38 -72 50 -40 7 18 -11 92 -26 112 -13 15
-62 16 -89 2 -16 -9 -21 -7 -29 15 -11 28 -10 28 -29 16z"/>
<path d="M3594 3189 c-39 -11 -62 -56 -44 -88 15 -30 56 -54 80 -48 13 3 20 0
20 -8 0 -10 -17 -15 -52 -17 -51 -3 -52 -4 -29 -17 31 -17 96 -18 116 -1 16
13 21 93 9 138 -5 18 -53 55 -66 51 -2 0 -17 -5 -34 -10z m40 -25 c32 -12 15
-74 -20 -74 -20 0 -24 5 -24 28 0 15 5 33 12 40 14 14 12 14 32 6z"/>
<path d="M2362 3175 c-87 -38 -43 -150 60 -150 28 0 45 8 65 27 l27 27 -19 41
c-31 68 -67 83 -133 55z m88 -81 c0 -35 -35 -50 -66 -29 -33 21 -30 64 6 82
22 11 27 10 43 -8 9 -12 17 -32 17 -45z"/>
<path d="M2535 3180 c-10 -16 22 -133 41 -147 26 -19 38 -11 45 31 8 51 33 75
59 58 26 -16 40 -15 40 2 0 23 -55 40 -91 27 -18 -6 -33 -11 -34 -11 -2 0 -6
11 -9 25 -6 25 -39 35 -51 15z"/>
<path d="M3064 3179 c-40 -11 -62 -58 -46 -94 15 -33 69 -65 110 -65 44 0 92
26 92 49 0 28 -20 30 -46 4 -26 -26 -61 -30 -90 -8 -18 13 -16 14 28 15 29 0
53 6 62 16 14 14 14 18 1 44 -24 47 -51 57 -111 39z m64 -47 c3 -18 -1 -22
-23 -22 -29 0 -45 27 -24 41 22 14 44 6 47 -19z"/>
<path d="M3254 3125 c-8 -20 2 -74 17 -92 22 -26 30 -12 27 44 -2 46 -7 59
-21 61 -9 2 -20 -4 -23 -13z"/>
<path d="M3563 2742 c-23 -3 -30 -19 -35 -77 -3 -25 -8 -31 -31 -33 -23 -3
-26 -6 -16 -18 6 -8 22 -14 35 -14 18 0 24 -6 24 -22 0 -33 15 -52 34 -45 11
5 15 17 14 39 -3 32 -1 33 35 36 49 4 44 26 -7 30 -42 4 -52 19 -38 59 l9 28
23 -37 c12 -21 26 -38 31 -38 15 0 10 44 -9 66 -20 24 -38 31 -69 26z"/>
<path d="M2930 2707 c0 -29 -3 -34 -18 -30 -11 2 -35 -2 -55 -11 -37 -15 -53
-44 -45 -82 5 -28 67 -66 92 -57 12 4 36 6 54 5 l32 -2 -1 78 c-1 99 -9 126
-37 130 -19 3 -22 -1 -22 -31z m-18 -74 c10 -9 18 -24 18 -34 0 -21 -35 -43
-56 -35 -17 7 -19 57 -2 74 15 15 18 15 40 -5z"/>
<path d="M3937 2734 c-4 -4 -7 -45 -7 -90 0 -63 4 -86 16 -99 28 -28 35 -3 27
95 -7 85 -18 112 -36 94z"/>
<path d="M2607 2698 c-18 -9 -18 -17 -1 -111 3 -15 14 -32 25 -37 17 -9 22 -4
43 45 14 30 29 55 34 55 5 0 15 -24 23 -52 9 -33 20 -54 30 -56 26 -5 30 24
11 81 -17 51 -18 52 -57 51 -22 0 -48 -4 -57 -8 -14 -6 -18 -4 -18 12 0 26
-11 33 -33 20z"/>
<path d="M1825 2690 c-11 -18 6 -32 31 -26 29 8 74 -2 74 -16 0 -5 -8 -8 -17
-7 -31 5 -72 -11 -83 -31 -22 -42 26 -76 97 -69 16 2 34 0 41 -4 23 -15 34 4
27 47 -10 57 -32 95 -61 106 -33 13 -101 13 -109 0z m101 -84 c26 -20 6 -41
-30 -32 -27 7 -35 31 -13 39 19 8 22 8 43 -7z"/>
<path d="M2123 2693 c-8 -3 -13 -24 -13 -54 0 -40 5 -55 25 -74 25 -26 54 -32
71 -15 8 8 19 7 37 -1 23 -10 30 -9 46 5 12 11 21 14 26 7 3 -6 13 -11 21 -11
12 0 14 7 8 33 -4 17 -7 44 -6 59 1 15 -2 30 -8 33 -15 9 -50 -4 -50 -20 0 -8
-5 -26 -11 -42 -10 -26 -12 -27 -19 -8 -5 11 -9 33 -9 48 -1 24 -5 28 -23 25
-19 -2 -24 -11 -29 -45 -10 -75 -26 -67 -31 16 -3 44 -11 54 -35 44z"/>
<path d="M2423 2685 c-62 -26 -56 -104 10 -138 33 -17 44 -18 78 -8 21 6 44
21 49 32 24 44 -32 130 -84 129 -11 -1 -35 -7 -53 -15z m87 -58 c9 -28 8 -34
-10 -49 -37 -30 -89 7 -75 53 7 21 42 39 62 32 6 -3 17 -19 23 -36z"/>
<path d="M3078 2693 c-32 -5 -58 -37 -58 -70 0 -13 13 -37 29 -55 26 -30 35
-33 85 -33 44 0 60 5 77 22 19 18 20 24 10 37 -12 14 -17 13 -43 -9 -34 -29
-56 -31 -84 -10 -18 13 -17 14 19 15 76 0 99 38 52 85 -24 25 -32 26 -87 18z
m60 -51 c3 -17 -1 -22 -20 -22 -13 0 -30 5 -38 10 -13 9 -12 12 5 25 26 21 49
15 53 -13z"/>
<path d="M3257 2693 c-10 -17 21 -137 39 -150 27 -19 38 -11 47 34 10 54 29
70 61 53 38 -20 53 -8 25 19 -24 22 -55 24 -101 6 -12 -5 -17 0 -20 17 -3 23
-40 38 -51 21z"/>
<path d="M3693 2643 c4 -37 12 -54 36 -75 36 -32 57 -35 82 -12 16 14 20 14
48 0 16 -9 32 -16 36 -16 10 0 5 24 -10 40 -8 9 -18 34 -23 56 -6 32 -12 39
-31 39 -20 0 -26 -8 -38 -47 -7 -27 -17 -48 -22 -48 -12 0 -31 48 -31 80 0 26
-4 30 -26 30 -26 0 -26 -2 -21 -47z"/>
<path d="M2355 2288 c-2 -7 -6 -31 -7 -53 -3 -36 -6 -40 -31 -43 -36 -4 -30
-25 9 -32 22 -4 30 -11 32 -30 8 -57 42 -62 42 -6 0 31 3 34 40 40 62 10 46
36 -21 36 -27 0 -29 3 -29 35 0 44 24 47 39 5 11 -33 41 -41 41 -11 0 35 -38
71 -76 71 -19 0 -37 -6 -39 -12z"/>
<path d="M2726 2292 c-8 -14 18 -57 37 -60 15 -3 17 1 11 25 -4 15 -9 31 -11
36 -6 9 -31 9 -37 -1z"/>
<path d="M3374 2267 c6 -32 5 -33 -28 -34 -44 -1 -75 -18 -86 -49 -21 -55 42
-116 100 -96 19 7 31 7 38 0 6 -6 17 -8 25 -5 11 4 13 23 9 89 -6 101 -15 128
-43 128 -19 0 -20 -4 -15 -33z m-9 -87 c17 -19 17 -21 0 -40 -24 -27 -59 -22
-63 8 -4 25 13 52 33 52 6 0 20 -9 30 -20z"/>
<path d="M2510 2235 c0 -53 22 -125 41 -136 26 -13 35 -6 43 35 4 18 15 41 25
50 18 16 21 16 43 2 23 -15 38 -13 38 5 0 5 -14 16 -31 24 -24 13 -37 14 -61
6 -17 -6 -32 -10 -33 -9 -1 2 -8 13 -14 26 -16 31 -51 30 -51 -3z"/>
<path d="M2875 2253 c-84 -13 -93 -107 -15 -148 38 -19 99 -19 128 1 25 17 29
49 8 57 -8 3 -19 21 -25 40 -7 20 -22 39 -37 46 -14 6 -26 10 -27 10 -1 -1
-15 -4 -32 -6z m44 -42 c12 -22 5 -31 -25 -31 -31 0 -41 20 -19 37 25 17 32
17 44 -6z m42 -72 c-28 -23 -60 -24 -87 -4 -18 15 -18 16 11 11 17 -3 44 1 60
8 39 17 47 10 16 -15z"/>
<path d="M3043 2194 c10 -103 42 -125 71 -50 28 74 42 76 61 11 12 -43 20 -55
33 -53 20 4 20 63 0 106 -16 33 -70 42 -98 17 -16 -15 -18 -14 -24 10 -4 17
-13 25 -28 25 -20 0 -21 -3 -15 -66z"/>
<path d="M2730 2176 c0 -46 16 -86 35 -86 11 0 15 11 15 44 0 57 -8 76 -31 76
-15 0 -19 -7 -19 -34z"/>
<path d="M3464 2129 c-10 -17 23 -46 37 -32 7 7 9 19 6 27 -7 18 -33 21 -43 5z"/>
<path d="M2540 1450 c0 -123 1 -130 20 -130 17 0 20 7 20 53 0 62 21 100 53
95 20 -3 22 -10 25 -75 3 -65 5 -73 22 -73 18 0 20 7 20 68 0 81 -17 112 -60
112 -16 0 -32 -4 -35 -10 -14 -23 -25 -7 -25 40 0 43 -3 50 -20 50 -19 0 -20
-7 -20 -130z"/>
<path d="M2300 1555 c0 -10 11 -15 35 -15 l35 0 0 -110 0 -110 25 0 25 0 0
110 0 110 35 0 c24 0 35 5 35 15 0 12 -17 15 -95 15 -78 0 -95 -3 -95 -15z"/>
<path d="M3330 1444 l0 -126 64 4 c74 4 106 25 106 68 0 28 -27 60 -51 60 -9
0 -7 5 6 12 26 15 35 28 35 55 0 34 -37 53 -102 53 l-58 0 0 -126z m111 80
c19 -23 -1 -48 -40 -52 -30 -3 -31 -2 -31 32 0 33 2 36 29 36 16 0 34 -7 42
-16z m-3 -100 c12 -8 22 -21 22 -29 0 -19 -39 -45 -67 -45 -21 0 -23 5 -23 45
0 40 2 45 23 45 12 0 33 -7 45 -16z"/>
<path d="M2750 1410 c0 -83 1 -90 20 -90 17 0 20 7 20 43 0 57 19 89 58 101
17 5 32 15 32 22 0 18 -31 18 -56 -1 -25 -19 -34 -19 -34 0 0 8 -9 15 -20 15
-19 0 -20 -7 -20 -90z"/>
<path d="M2939 1481 c-20 -16 -24 -29 -24 -71 0 -43 4 -55 24 -71 32 -26 114
-23 119 4 3 14 0 16 -22 7 -30 -11 -70 1 -79 23 -9 23 1 27 65 27 56 0 58 1
58 25 0 62 -90 98 -141 56z m89 -23 c25 -25 13 -38 -33 -38 -49 0 -50 1 -35
31 12 21 50 25 68 7z"/>
<path d="M3140 1480 c-38 -38 -38 -102 1 -141 26 -26 112 -24 117 4 3 14 0 16
-22 7 -30 -11 -70 1 -79 23 -9 23 1 27 65 27 56 0 58 1 58 25 0 62 -95 100
-140 55z m88 -22 c25 -25 13 -38 -33 -38 -49 0 -50 1 -35 31 12 21 50 25 68 7z"/>
</g>
</svg>
