<?xml version="1.0" standalone="no"?>
<!DOCTYPE svg PUBLIC "-//W3C//DTD SVG 20010904//EN"
 "http://www.w3.org/TR/2001/REC-SVG-20010904/DTD/svg10.dtd">
<svg version="1.0" xmlns="http://www.w3.org/2000/svg"
 width="580.000000pt" height="867.000000pt" viewBox="0 0 580.000000 867.000000"
 preserveAspectRatio="xMidYMid meet">

<g transform="translate(0.000000,867.000000) scale(0.100000,-0.100000)"
fill="#000000" stroke="none">
<path d="M2773 8585 c-75 -16 -181 -71 -245 -125 -59 -51 -128 -156 -159 -240
-20 -55 -24 -84 -24 -182 l0 -117 -75 -6 c-113 -10 -226 -39 -331 -85 -89 -40
-99 -42 -199 -43 -82 -2 -115 -7 -150 -22 -41 -19 -49 -20 -85 -7 -96 33 -214
-12 -269 -102 -25 -40 -31 -60 -33 -118 -2 -67 -3 -70 -48 -120 -61 -68 -100
-146 -131 -266 -36 -135 -73 -200 -234 -407 -76 -99 -155 -209 -174 -245 -91
-172 -139 -507 -103 -713 18 -104 67 -212 124 -277 33 -37 43 -59 58 -125 44
-201 140 -322 273 -342 40 -6 82 -37 82 -61 0 -8 -7 -54 -16 -103 -16 -85 -18
-89 -43 -89 -42 -1 -103 -34 -143 -78 -39 -43 -58 -93 -58 -153 0 -42 43 -181
69 -222 17 -28 17 -30 -15 -115 -18 -48 -39 -132 -48 -188 -21 -131 -38 -180
-129 -354 -41 -80 -85 -174 -98 -210 -12 -36 -36 -84 -51 -108 -50 -73 -68
-123 -68 -187 0 -78 24 -130 85 -182 l47 -42 -22 -65 c-22 -68 -61 -135 -88
-150 -39 -23 -93 -82 -116 -129 -43 -85 -32 -173 31 -255 l26 -34 -27 -77
c-30 -86 -56 -213 -56 -271 0 -25 -13 -64 -37 -110 -45 -86 -55 -166 -28 -235
19 -51 91 -120 136 -130 29 -7 29 -7 29 -83 0 -136 37 -246 114 -336 l33 -40
-35 -74 c-58 -128 -43 -227 48 -304 40 -35 96 -58 141 -58 31 0 41 -8 67 -51
31 -51 111 -123 168 -152 80 -41 146 -55 327 -73 l172 -17 58 -54 c85 -78 234
-148 357 -168 366 -58 682 47 854 287 38 53 42 55 103 65 45 8 81 8 126 0 61
-10 65 -12 103 -65 172 -240 488 -345 854 -287 123 20 272 90 357 168 l58 54
172 17 c188 18 249 33 336 79 70 37 159 130 182 190 14 38 21 45 61 55 64 17
137 92 158 163 20 64 20 97 2 174 l-14 59 29 33 c68 78 109 203 109 335 0 76
0 76 29 83 45 10 117 79 136 130 27 69 17 149 -28 235 -24 46 -37 85 -37 110
0 58 -26 185 -56 271 l-27 77 26 34 c63 82 74 170 31 255 -23 47 -77 106 -116
129 -27 15 -66 82 -88 150 l-22 65 47 42 c109 95 115 225 17 369 -15 24 -39
72 -51 108 -13 36 -56 128 -95 205 -92 178 -112 231 -132 357 -9 57 -30 142
-48 190 -32 85 -32 87 -15 115 26 41 69 180 69 222 0 60 -19 110 -58 153 -40
44 -101 77 -143 78 -25 0 -27 4 -45 100 l-20 100 26 24 c14 13 42 26 62 29 85
13 160 69 206 155 35 66 62 158 62 214 0 31 8 45 48 85 56 57 103 143 128 233
28 100 25 350 -5 495 -46 222 -73 276 -265 525 -157 202 -194 268 -230 402
-31 120 -70 198 -131 266 -45 50 -46 53 -48 120 -2 58 -8 78 -33 118 -55 90
-173 135 -269 102 -36 -13 -44 -12 -85 7 -35 15 -68 20 -150 22 -100 1 -110 3
-199 43 -105 46 -218 75 -331 85 l-75 6 0 117 c0 138 -20 205 -92 314 -126
191 -359 283 -590 233z m229 -49 c188 -40 339 -183 393 -370 13 -45 16 -81 12
-155 -3 -53 -9 -108 -12 -123 l-7 -27 101 0 c140 -1 274 -35 402 -102 38 -20
59 -23 154 -24 100 0 114 -2 156 -26 41 -23 49 -25 70 -13 43 24 106 28 153
10 87 -33 134 -114 122 -210 -7 -52 -6 -53 27 -79 19 -15 53 -53 74 -85 37
-56 52 -96 102 -268 22 -77 57 -131 227 -356 142 -187 178 -245 207 -340 45
-142 61 -250 61 -413 0 -220 -34 -326 -140 -430 -50 -49 -51 -52 -57 -120 -6
-81 -36 -166 -76 -223 -33 -45 -118 -92 -166 -92 -23 0 -41 -11 -73 -43 l-42
-43 20 -102 c11 -57 20 -116 20 -132 0 -29 2 -30 48 -30 93 0 171 -69 179
-157 5 -55 -33 -186 -69 -236 -19 -26 -20 -33 -9 -61 38 -96 61 -176 75 -264
21 -131 41 -185 130 -355 40 -78 86 -175 100 -215 14 -41 40 -94 57 -118 59
-87 75 -167 45 -237 -12 -30 -77 -97 -94 -97 -29 -1 -31 -18 -12 -89 35 -125
67 -176 158 -248 48 -38 82 -104 82 -158 0 -50 -32 -115 -69 -143 l-30 -22 19
-42 c34 -78 71 -222 77 -303 5 -66 13 -93 44 -156 73 -144 43 -249 -87 -298
l-49 -19 -6 -118 c-7 -141 -28 -205 -95 -291 -35 -44 -44 -64 -40 -83 32 -153
30 -191 -17 -261 -22 -34 -88 -74 -137 -83 -20 -4 -31 -19 -53 -70 -45 -103
-132 -174 -257 -210 -51 -14 -311 -46 -379 -46 -23 0 -43 -14 -88 -58 -64 -65
-185 -131 -288 -157 -91 -24 -302 -30 -405 -12 -190 33 -332 117 -447 261
l-63 81 -73 12 c-57 10 -89 10 -150 0 l-78 -12 -55 -72 c-159 -207 -376 -296
-684 -280 -140 8 -209 25 -320 79 -59 29 -103 59 -143 100 -45 44 -65 58 -88
58 -68 0 -328 32 -379 46 -113 33 -202 100 -246 185 -22 45 -27 48 -71 54 -71
10 -110 24 -144 52 -71 60 -78 139 -24 262 19 43 35 83 35 88 0 4 -23 35 -50
68 -73 87 -92 144 -98 291 l-4 120 -43 12 c-125 33 -170 156 -104 286 17 33
34 66 39 71 4 6 10 48 13 95 6 89 43 234 77 300 26 50 25 52 -9 73 -36 21 -71
91 -71 142 0 54 34 120 82 158 90 71 119 117 158 244 22 73 21 93 -5 93 -22 0
-87 61 -101 97 -30 70 -14 150 45 237 17 24 43 77 57 118 14 40 60 137 100
215 89 170 109 225 130 357 9 56 32 143 51 195 l35 93 -30 57 c-41 77 -66 171
-59 222 11 82 91 149 180 149 45 0 47 1 47 30 0 16 9 75 20 132 l20 102 -42
43 c-32 32 -50 43 -73 43 -44 0 -131 46 -160 84 -37 49 -72 134 -91 227 -16
73 -23 90 -62 134 -51 57 -83 116 -108 200 -28 92 -26 333 5 485 42 210 62
248 314 577 111 145 146 212 177 333 31 120 72 202 136 266 55 54 55 54 48
103 -20 155 141 270 275 197 21 -12 29 -10 70 13 42 24 56 26 156 26 98 1 115
4 160 27 129 66 259 98 405 99 l92 0 -7 27 c-3 15 -9 70 -12 123 -9 160 40
282 156 392 130 122 287 168 453 133z"/>
<path d="M2829 8297 c-83 -31 -130 -85 -150 -173 -35 -153 112 -299 266 -265
201 45 246 313 71 416 -54 32 -135 41 -187 22z m152 -63 c15 -7 38 -27 53 -44
94 -113 14 -282 -134 -282 -148 0 -228 169 -134 282 55 65 139 82 215 44z"/>
<path d="M3822 6382 c-78 -163 -173 -424 -159 -438 2 -3 19 42 37 98 36 117
104 287 150 378 17 34 30 64 27 66 -2 2 -27 -45 -55 -104z"/>
<path d="M3894 6267 c-56 -102 -136 -268 -131 -273 2 -2 44 78 95 178 50 100
90 183 89 184 -2 2 -25 -38 -53 -89z"/>
<path d="M1996 6258 c37 -91 135 -288 144 -288 4 0 -18 51 -50 113 -32 61 -68
140 -81 175 -13 34 -27 62 -31 62 -4 0 5 -28 18 -62z"/>
<path d="M2860 6263 c0 -37 -1 -38 -39 -38 -51 -1 -81 -27 -81 -71 0 -51 36
-74 117 -72 l65 1 -4 95 c-3 78 -7 97 -23 108 -29 21 -35 17 -35 -23z m-18
-80 c22 -20 23 -31 1 -55 -21 -24 -40 -23 -53 3 -9 16 -8 26 5 45 18 28 23 29
47 7z"/>
<path d="M3610 6238 c0 -69 12 -100 30 -82 6 6 10 38 8 75 -2 51 -6 64 -20 67
-16 3 -18 -5 -18 -60z"/>
<path d="M1850 6272 c0 -15 235 -366 257 -383 17 -13 17 -13 3 7 -8 12 -70
104 -137 204 -68 101 -123 178 -123 172z"/>
<path d="M2145 6217 c-9 -48 10 -113 36 -120 21 -6 21 -5 49 71 17 43 25 40
36 -10 7 -34 14 -44 32 -46 18 -3 22 1 22 25 1 26 20 63 33 63 3 0 9 -20 12
-44 7 -42 25 -63 46 -50 14 8 11 39 -7 84 -19 47 -54 62 -82 36 -17 -14 -19
-14 -35 4 -22 26 -45 25 -74 -2 l-23 -21 0 21 c0 15 -6 22 -20 22 -14 0 -21
-9 -25 -33z"/>
<path d="M2444 6225 c-4 -16 1 -36 15 -59 24 -38 38 -46 83 -46 30 0 31 -1 13
-20 -13 -14 -26 -18 -49 -14 -29 5 -30 5 -12 -10 39 -31 99 -19 121 25 21 39
20 135 -1 143 -23 9 -22 10 -45 -40 -12 -25 -29 -48 -37 -52 -21 -7 -42 25
-42 65 0 26 -4 33 -20 33 -13 0 -22 -9 -26 -25z"/>
<path d="M2990 6237 c-33 -16 -47 -58 -32 -92 15 -32 69 -65 107 -65 57 0 118
50 86 70 -10 6 -24 1 -44 -16 -34 -29 -57 -30 -87 -6 -21 17 -21 17 22 14 55
-4 83 15 74 51 -13 54 -68 73 -126 44z m75 -42 c0 -22 -31 -31 -54 -16 -12 8
-13 12 -1 26 18 22 55 16 55 -10z"/>
<path d="M3187 6244 c-14 -14 6 -24 47 -24 27 0 48 -6 57 -16 11 -13 9 -14
-13 -9 -37 9 -88 -19 -88 -49 0 -37 26 -51 101 -53 l69 -2 0 30 c0 38 -25 98
-48 115 -17 14 -113 19 -125 8z m109 -88 c27 -20 11 -30 -43 -27 -24 1 -32 26
-10 34 21 9 33 7 53 -7z"/>
<path d="M3390 6230 c0 -48 23 -121 42 -135 28 -19 33 -14 47 40 13 52 31 64
67 45 31 -17 42 -6 19 20 -20 22 -50 25 -88 11 -22 -9 -26 -7 -31 15 -8 31
-56 35 -56 4z"/>
<path d="M3616 6105 c4 -9 13 -15 21 -13 23 5 20 23 -4 26 -18 3 -21 0 -17
-13z"/>
<path d="M3410 5723 c-47 -25 -62 -73 -33 -111 19 -26 37 -38 98 -64 22 -10
30 -20 30 -38 0 -23 -3 -25 -50 -25 -27 1 -57 4 -66 9 -12 5 -18 1 -22 -16 -9
-34 6 -42 88 -46 68 -4 76 -2 99 21 52 52 27 114 -61 153 -61 27 -76 50 -47
71 18 13 60 12 99 -3 15 -6 31 34 18 47 -4 4 -33 11 -63 14 -42 5 -63 2 -90
-12z"/>
<path d="M1990 5580 l0 -150 73 0 c82 0 116 14 135 52 18 38 5 76 -31 95 -31
15 -31 16 -9 24 32 12 48 52 34 84 -16 34 -49 45 -133 45 l-69 0 0 -150z m138
88 c7 -7 12 -15 12 -19 0 -16 -33 -39 -56 -39 -21 0 -24 5 -24 35 0 32 3 35
28 35 15 0 33 -5 40 -12z m10 -136 c5 -32 -15 -52 -49 -52 -27 0 -29 3 -29 41
l0 40 38 -3 c30 -2 38 -7 40 -26z"/>
<path d="M2260 5580 l0 -150 95 0 c94 0 95 0 95 25 0 23 -4 24 -62 27 l-63 3
-3 38 -3 37 60 0 c58 0 61 1 61 25 0 22 -4 24 -57 27 -57 3 -58 3 -61 36 l-3
32 65 0 c64 0 66 1 66 25 0 25 0 25 -95 25 l-95 0 0 -150z"/>
<path d="M2520 5580 l0 -150 30 0 c30 0 30 1 30 55 0 51 2 55 24 55 29 0 40
-13 57 -67 11 -40 15 -43 46 -43 31 0 34 2 28 23 -4 12 -16 43 -28 68 l-22 46
21 16 c45 34 38 113 -12 136 -14 6 -58 11 -99 11 l-75 0 0 -150z m138 88 c29
-29 -5 -78 -55 -78 -21 0 -23 5 -23 45 0 44 1 45 33 45 18 0 38 -5 45 -12z"/>
<path d="M2800 5580 l0 -150 30 0 30 0 0 90 c0 50 3 90 8 90 4 0 30 -41 57
-90 47 -84 52 -90 83 -90 l32 0 0 150 0 150 -30 0 -30 0 0 -92 c-1 -107 -1
-107 -71 20 -38 68 -42 72 -75 72 l-34 0 0 -150z"/>
<path d="M3110 5580 l0 -150 100 0 100 0 0 25 c0 24 -2 25 -65 25 l-65 0 0 40
0 40 60 0 c57 0 60 1 60 25 0 24 -3 25 -60 25 l-60 0 0 35 0 35 65 0 c63 0 65
1 65 25 l0 25 -100 0 -100 0 0 -150z"/>
<path d="M3640 5580 l0 -150 95 0 c94 0 95 0 95 25 0 23 -4 24 -62 27 l-63 3
0 35 0 35 58 3 c53 3 57 5 57 27 0 22 -4 24 -57 27 -57 3 -58 3 -58 33 0 30 0
30 63 33 58 3 62 4 62 27 0 25 -1 25 -95 25 l-95 0 0 -150z"/>
<path d="M1746 5198 c-9 -79 -16 -146 -16 -150 0 -5 13 -8 29 -8 25 0 29 4 35
38 3 20 6 57 7 82 1 88 14 87 33 -1 25 -124 23 -119 61 -119 38 0 36 -5 61
119 19 88 32 89 33 1 1 -25 4 -62 7 -82 6 -34 10 -38 37 -38 l30 0 -7 63 c-3
34 -11 102 -17 150 l-12 88 -40 -3 -41 -3 -22 -103 c-12 -57 -24 -105 -27
-108 -5 -5 -32 108 -44 178 -5 37 -7 38 -48 38 l-42 0 -17 -142z"/>
<path d="M2165 5321 c-82 -56 -88 -198 -11 -259 59 -46 185 -33 222 23 44 68
40 158 -11 214 -31 33 -37 35 -101 39 -57 2 -74 -1 -99 -17z m138 -51 c28 -23
43 -74 33 -115 -17 -67 -105 -90 -145 -39 -31 39 -29 117 4 149 30 31 73 32
108 5z"/>
<path d="M2452 5223 c4 -132 16 -163 70 -182 43 -15 74 -14 113 4 46 23 55 51
55 180 l0 115 -30 0 -30 0 0 -110 c0 -97 -2 -112 -20 -130 -11 -11 -27 -20
-35 -20 -8 0 -24 9 -35 20 -18 18 -20 33 -20 130 l0 110 -36 0 -36 0 4 -117z"/>
<path d="M2760 5190 l0 -150 30 0 30 0 0 90 c0 50 3 90 8 90 4 0 30 -40 57
-90 49 -88 51 -90 88 -90 l37 0 0 150 0 150 -35 0 -35 0 0 -92 c-1 -107 -1
-107 -71 20 -38 68 -42 72 -75 72 l-34 0 0 -150z"/>
<path d="M3070 5315 c0 -22 4 -25 40 -25 l40 0 0 -125 0 -125 35 0 35 0 0 125
0 125 45 0 c41 0 45 2 45 25 l0 25 -120 0 -120 0 0 -25z"/>
<path d="M3445 5328 c-46 -127 -95 -271 -95 -279 0 -5 15 -9 34 -9 29 0 34 4
40 30 5 29 8 30 60 30 52 0 54 -1 60 -30 5 -27 10 -30 41 -30 19 0 35 1 35 3
0 4 -87 259 -95 280 -8 20 -73 24 -80 5z m69 -150 c6 -27 5 -28 -29 -28 -41 0
-42 5 -18 81 l16 54 12 -40 c7 -22 15 -52 19 -67z"/>
<path d="M3680 5190 l0 -150 35 0 35 0 0 150 0 150 -35 0 -35 0 0 -150z"/>
<path d="M3830 5190 l0 -150 30 0 30 0 0 91 c0 51 4 88 9 85 5 -4 31 -44 57
-91 45 -80 50 -85 81 -85 l33 0 0 150 0 150 -30 0 -30 0 0 -91 c0 -54 -4 -88
-10 -84 -5 3 -31 44 -57 90 -45 79 -50 85 -80 85 l-33 0 0 -150z"/>
<path d="M2460 4840 l0 -150 73 0 c119 0 177 49 177 148 0 101 -61 152 -183
152 l-67 0 0 -150z m153 80 c32 -25 43 -76 27 -124 -13 -41 -35 -56 -79 -56
l-31 0 0 100 0 100 29 0 c15 0 40 -9 54 -20z"/>
<path d="M2824 4980 c-67 -27 -100 -129 -68 -209 47 -115 233 -119 280 -5 30
72 3 172 -55 207 -31 18 -120 22 -157 7z m126 -58 c34 -28 40 -117 10 -154
-17 -23 -29 -28 -64 -28 -51 0 -74 21 -83 73 -12 74 22 127 81 127 19 0 44 -8
56 -18z"/>
<path d="M3149 4967 c-66 -44 -86 -125 -49 -202 27 -56 70 -79 145 -80 33 0
72 3 88 8 27 7 27 8 27 92 l0 85 -70 0 c-68 0 -70 -1 -70 -24 0 -21 5 -25 38
-28 35 -3 37 -5 37 -38 0 -46 -35 -61 -87 -36 -98 47 -67 196 42 196 23 0 50
-4 60 -10 27 -15 40 28 14 47 -31 22 -135 17 -175 -10z"/>
<path d="M2893 3528 c-17 -21 2 -180 23 -195 24 -17 34 -8 34 33 0 45 22 45
49 -1 13 -22 28 -35 41 -35 24 0 24 -1 3 52 -12 30 -13 43 -5 46 16 5 15 29 0
35 -7 2 -27 -2 -45 -10 -48 -19 -53 -17 -53 25 0 51 -25 78 -47 50z"/>
<path d="M2270 3448 c0 -59 5 -90 15 -105 23 -33 45 -19 45 31 0 22 5 48 10
56 9 13 12 12 25 -4 8 -11 18 -34 21 -52 7 -39 30 -62 45 -47 17 17 -2 85 -33
116 -21 21 -36 28 -53 24 -21 -4 -26 1 -33 27 -5 17 -16 32 -25 34 -15 3 -17
-7 -17 -80z"/>
<path d="M2001 3511 c-24 -15 -2 -31 43 -31 l43 0 7 -56 c7 -65 20 -94 42 -94
13 0 15 12 9 81 l-7 81 51 -7 c42 -6 51 -4 51 8 0 8 -7 18 -16 21 -24 9 -207
7 -223 -3z"/>
<path d="M2681 3491 c-21 -13 -9 -131 15 -148 27 -20 30 -17 50 39 25 67 40
71 55 14 13 -53 34 -75 51 -58 13 13 -3 95 -24 119 -13 16 -62 17 -89 3 -16
-9 -21 -7 -29 15 -11 28 -10 28 -29 16z"/>
<path d="M2465 3480 c-12 -19 5 -28 43 -23 25 3 43 -1 57 -12 20 -16 20 -16
-4 -11 -13 3 -39 -1 -58 -9 -25 -11 -33 -20 -33 -39 0 -35 37 -58 92 -55 24 2
49 -1 55 -4 39 -24 23 94 -17 135 -24 23 -37 28 -79 28 -27 0 -53 -4 -56 -10z
m110 -86 c17 -13 18 -16 5 -24 -27 -17 -70 -8 -70 15 0 11 13 19 40 24 3 0 14
-6 25 -15z"/>
<path d="M3170 3453 c0 -21 6 -45 13 -54 22 -29 65 -51 87 -44 23 7 27 -7 6
-24 -8 -7 -25 -9 -40 -5 -37 9 -33 -12 4 -25 68 -23 110 22 110 116 0 56 -2
63 -20 63 -13 0 -24 -11 -33 -32 -8 -18 -22 -39 -31 -47 -15 -12 -19 -12 -32
1 -9 8 -16 31 -17 49 -2 27 -7 35 -24 37 -21 3 -23 -1 -23 -35z"/>
<path d="M3425 3474 c-36 -18 -45 -31 -45 -65 0 -47 76 -96 131 -84 43 10 63
38 55 81 -14 73 -75 103 -141 68z m74 -27 c6 -8 14 -27 17 -43 5 -25 2 -32
-18 -41 -13 -6 -32 -7 -45 -2 -31 11 -32 62 -1 83 27 19 33 20 47 3z"/>
<path d="M3604 3475 c-13 -32 5 -90 36 -117 35 -32 56 -35 81 -12 16 14 20 14
48 -1 42 -21 56 -11 30 24 -12 16 -24 44 -28 62 -5 27 -12 34 -30 34 -20 0
-26 -8 -38 -47 -7 -27 -17 -48 -22 -48 -11 0 -29 47 -33 85 -3 33 -34 47 -44
20z"/>
<path d="M2156 3024 c-3 -9 -6 -33 -6 -55 0 -37 -2 -39 -31 -39 -40 0 -34 -22
9 -35 23 -7 32 -15 32 -31 0 -12 7 -27 16 -35 21 -17 35 4 27 43 -5 26 -4 28
30 28 39 0 58 17 36 31 -8 5 -26 9 -41 9 -32 0 -42 13 -34 46 9 33 25 30 37
-6 12 -33 39 -41 39 -11 0 34 -38 71 -75 71 -21 0 -35 -6 -39 -16z"/>
<path d="M2841 3023 c-5 -11 -7 -48 -5 -83 9 -112 8 -110 63 -110 57 0 101 28
101 65 0 29 -52 75 -85 75 -19 0 -24 6 -27 32 -3 38 -31 50 -47 21z m94 -103
c17 -19 17 -21 0 -40 -29 -32 -45 -25 -45 20 0 45 16 52 45 20z"/>
<path d="M3250 3025 c0 -26 19 -55 36 -55 11 0 14 9 12 33 -2 24 -8 33 -25 35
-16 2 -23 -2 -23 -13z"/>
<path d="M2534 2986 c-8 -22 15 -124 32 -141 23 -23 43 -18 50 13 15 74 28 82
87 57 12 -5 17 -3 17 8 0 35 -65 52 -107 29 -14 -9 -20 -5 -30 19 -13 31 -40
39 -49 15z"/>
<path d="M3335 2990 c-10 -16 4 -115 19 -136 19 -25 42 -12 56 33 24 73 43 78
55 16 8 -44 21 -63 43 -63 19 0 12 79 -12 115 -19 29 -60 33 -93 10 -20 -14
-22 -14 -25 7 -3 25 -32 36 -43 18z"/>
<path d="M3570 2980 c-45 -45 -6 -120 61 -120 16 0 29 -4 29 -9 0 -15 -30 -21
-71 -15 -46 8 -50 0 -9 -21 35 -18 70 -19 105 -3 25 11 26 13 19 82 -4 53 -11
75 -26 89 -27 23 -83 22 -108 -3z m90 -40 c0 -22 -28 -52 -43 -47 -25 8 -31
35 -13 61 14 22 20 25 36 16 11 -6 20 -19 20 -30z"/>
<path d="M2335 2966 c-40 -41 -30 -93 25 -121 40 -21 83 -19 114 6 32 25 33
55 3 100 -20 29 -29 34 -70 37 -39 3 -51 -1 -72 -22z m105 -37 c16 -37 5 -62
-29 -67 -30 -5 -51 15 -51 47 0 57 59 72 80 20z"/>
<path d="M3042 2973 c-12 -10 -24 -30 -28 -45 -5 -23 0 -34 29 -63 30 -30 41
-35 84 -35 54 0 93 21 93 51 0 25 -22 24 -45 -1 -21 -24 -77 -27 -95 -5 -10
12 -7 13 22 9 45 -7 84 15 80 46 -1 13 -10 32 -19 42 -21 24 -93 24 -121 1z
m87 -22 c12 -22 5 -31 -25 -31 -31 0 -41 20 -19 37 25 17 32 17 44 -6z"/>
<path d="M3260 2902 c0 -32 5 -54 15 -62 24 -20 33 -1 26 55 -4 36 -11 51 -23
53 -15 3 -18 -4 -18 -46z"/>
<path d="M2260 2513 c0 -37 -1 -38 -39 -38 -50 -1 -81 -27 -81 -69 0 -57 30
-75 118 -74 l62 1 0 66 c0 96 -19 150 -52 151 -5 0 -8 -17 -8 -37z m-18 -80
c10 -9 18 -21 18 -26 0 -18 -32 -47 -51 -47 -27 0 -36 46 -14 70 22 24 24 24
47 3z"/>
<path d="M2881 2541 c-7 -5 -15 -29 -18 -54 -5 -41 -9 -47 -35 -52 -23 -6 -27
-9 -17 -21 6 -8 22 -14 34 -14 18 0 24 -7 29 -36 10 -49 40 -44 44 8 3 35 5
37 40 40 51 4 47 22 -5 26 -43 3 -43 3 -43 43 0 45 15 51 33 12 20 -47 55 -55
41 -10 -15 52 -67 81 -103 58z"/>
<path d="M3502 2538 c-7 -7 -12 -31 -12 -54 0 -38 -2 -42 -31 -48 -38 -7 -34
-29 7 -36 23 -4 30 -12 34 -35 3 -18 12 -31 23 -33 14 -3 17 4 17 37 l0 41 41
0 c53 0 48 23 -7 30 -36 5 -39 7 -39 38 0 38 15 44 31 13 19 -37 32 -47 39
-28 7 17 -6 46 -31 71 -18 19 -55 21 -72 4z"/>
<path d="M3873 2534 c-7 -19 16 -64 34 -64 18 0 16 45 -3 64 -19 20 -23 20
-31 0z"/>
<path d="M4525 2540 c-4 -6 -4 -22 -1 -36 6 -22 3 -24 -24 -24 -86 0 -129 -72
-76 -125 21 -21 33 -24 93 -23 l68 0 -3 82 c-4 81 -17 126 -39 133 -6 2 -14
-1 -18 -7z m-16 -114 l23 -24 -22 -22 c-28 -28 -54 -22 -58 13 -3 26 12 57 27
57 4 0 18 -11 30 -24z"/>
<path d="M3272 2443 c3 -90 5 -98 23 -98 18 0 19 6 17 80 -4 95 -8 115 -28
115 -12 0 -14 -17 -12 -97z"/>
<path d="M1923 2494 c-3 -9 -2 -41 3 -71 7 -40 15 -60 31 -71 21 -13 23 -13
33 14 14 42 34 77 43 78 5 1 16 -21 25 -49 22 -64 47 -69 46 -8 -1 77 -53 115
-114 83 -15 -8 -19 -5 -24 15 -7 28 -33 33 -43 9z"/>
<path d="M2597 2497 c-15 -11 -15 -17 -1 -80 11 -45 22 -71 35 -78 27 -14 35
-6 43 39 8 54 27 68 66 52 39 -16 52 -4 21 21 -26 21 -48 24 -85 9 -21 -7 -26
-6 -31 10 -10 30 -29 41 -48 27z"/>
<path d="M4192 2501 c-14 -9 -9 -80 9 -128 14 -37 46 -29 60 15 23 73 42 80
58 20 6 -24 15 -50 21 -58 8 -13 11 -13 25 1 15 14 14 20 -2 70 -17 52 -19 54
-57 57 -21 2 -43 -1 -49 -7 -17 -17 -25 -13 -29 11 -3 24 -17 32 -36 19z"/>
<path d="M1147 2493 c-16 -15 -5 -23 32 -23 69 0 102 -24 35 -26 -69 -1 -98
-72 -38 -94 28 -11 133 -10 140 1 11 19 -19 110 -43 129 -25 20 -111 29 -126
13z m101 -85 c26 -26 -2 -43 -46 -27 -26 10 -26 11 -8 25 24 17 38 18 54 2z"/>
<path d="M1437 2493 c-12 -12 -7 -83 8 -112 16 -31 59 -48 80 -31 9 8 20 7 39
-1 21 -10 29 -9 43 4 14 12 23 13 36 5 10 -5 20 -8 23 -6 2 3 0 31 -4 64 -6
50 -10 59 -29 62 -18 3 -24 -4 -33 -37 -15 -56 -27 -58 -35 -5 -5 39 -9 45
-28 42 -15 -2 -23 -11 -25 -28 -9 -86 -32 -89 -32 -4 0 46 -3 54 -18 54 -10 0
-22 -3 -25 -7z"/>
<path d="M1737 2482 c-71 -44 -26 -142 67 -145 73 -2 105 48 71 113 -27 52
-85 65 -138 32z m87 -34 c25 -35 20 -67 -11 -74 -51 -13 -82 38 -47 77 22 25
39 24 58 -3z"/>
<path d="M2390 2487 c-33 -16 -47 -58 -32 -92 15 -32 69 -65 107 -65 57 0 118
50 86 70 -10 6 -24 1 -44 -16 -34 -29 -57 -30 -87 -6 -21 17 -21 17 22 14 55
-4 83 15 74 51 -13 54 -68 73 -126 44z m75 -42 c0 -22 -31 -31 -54 -16 -12 8
-13 12 -1 26 18 22 55 16 55 -10z"/>
<path d="M3025 2481 c-11 -37 13 -100 48 -121 40 -25 52 -25 76 -1 17 17 21
18 32 5 11 -13 59 -20 59 -8 0 3 -9 17 -20 31 -11 14 -22 40 -26 58 -3 19 -12
36 -20 39 -16 6 -44 -19 -44 -39 0 -8 -5 -26 -10 -41 -14 -36 -29 -21 -45 43
-13 51 -39 69 -50 34z"/>
<path d="M3650 2481 c0 -49 23 -122 42 -136 28 -19 33 -14 47 39 12 50 37 65
70 44 28 -17 38 -3 16 22 -18 20 -54 25 -90 11 -15 -6 -22 -3 -30 13 -14 29
-55 34 -55 7z"/>
<path d="M3993 2490 c-26 -11 -43 -40 -43 -73 0 -28 47 -73 86 -83 50 -13 124
18 124 52 0 22 -24 21 -53 -2 -34 -29 -57 -30 -87 -6 -22 18 -22 18 18 14 75
-7 103 29 61 82 -22 27 -62 34 -106 16z m72 -45 c0 -22 -31 -31 -54 -16 -12 8
-13 12 -1 26 18 22 55 16 55 -10z"/>
<path d="M3875 2437 c-9 -34 8 -91 28 -95 27 -5 24 93 -3 108 -16 9 -20 7 -25
-13z"/>
<path d="M4615 2371 c-9 -16 3 -31 26 -31 14 0 19 6 17 17 -4 20 -33 29 -43
14z"/>
<path d="M2540 1490 c0 -123 1 -130 20 -130 18 0 20 7 20 58 0 47 4 63 21 78
35 31 53 9 57 -70 3 -58 5 -66 22 -66 18 0 20 7 20 68 0 81 -17 112 -60 112
-16 0 -32 -4 -35 -10 -14 -23 -25 -7 -25 40 0 43 -3 50 -20 50 -19 0 -20 -7
-20 -130z"/>
<path d="M2300 1596 c0 -9 12 -16 33 -18 l32 -3 3 -107 c2 -99 4 -108 22 -108
18 0 20 9 22 108 l3 107 38 3 c24 2 37 8 37 18 0 11 -19 14 -95 14 -76 0 -95
-3 -95 -14z"/>
<path d="M3330 1485 l0 -125 63 0 c78 0 107 17 107 65 0 24 -7 39 -24 52 -23
19 -23 20 -5 31 12 8 19 23 19 42 0 41 -32 60 -102 60 l-58 0 0 -125z m114 79
c25 -25 4 -54 -39 -54 -32 0 -35 3 -35 28 0 16 3 32 7 35 12 13 51 7 67 -9z
m9 -101 c15 -9 6 -53 -14 -63 -34 -19 -64 -9 -67 23 -6 48 4 60 40 52 18 -4
36 -9 41 -12z"/>
<path d="M2750 1450 c0 -83 1 -90 20 -90 17 0 20 7 20 39 0 61 14 88 54 102
38 14 49 39 18 39 -10 0 -27 -7 -38 -15 -25 -19 -34 -19 -34 0 0 8 -9 15 -20
15 -19 0 -20 -7 -20 -90z"/>
<path d="M2949 1530 c-42 -24 -49 -120 -11 -152 35 -31 122 -31 122 -1 0 10
-8 12 -34 8 -28 -6 -39 -2 -58 17 l-23 23 68 3 67 3 0 30 c0 59 -78 100 -131
69z m79 -32 c25 -25 13 -38 -33 -38 -49 0 -50 1 -35 31 12 21 50 25 68 7z"/>
<path d="M3147 1520 c-78 -62 -11 -189 85 -162 39 10 30 27 -15 27 -27 0 -43
6 -53 20 -15 19 -13 20 51 23 l65 3 0 34 c0 64 -79 97 -133 55z m91 -37 c3
-21 -1 -23 -43 -23 -25 0 -44 3 -42 8 2 4 7 15 10 25 10 28 71 20 75 -10z"/>
</g>
</svg>
