<?xml version="1.0" encoding="UTF-8"?>
<svg id="_レイヤー_1" data-name="レイヤー 1" xmlns="http://www.w3.org/2000/svg" width="186.98mm" height="301.15mm" viewBox="0 0 530.02 853.64">
  <path d="M320.01,68.1c10.15.46,20.26,1.57,30.01,4.5,5.91,1.77,17.68,8.68,21.74,9.35,3.44.56,10.5-1.33,15.64-.73,3.92.46,11.72,4.52,13.1,4.52s5.46-2.23,8.12-2.51c14.22-1.48,25.21,8.3,26.44,22.36.2,2.23-.89,6.54-.5,7.58.35.94,8.93,9.44,10.99,12.91,7.11,11.99,7.29,25.33,14.29,37.71,11.12,19.66,30.69,34.4,38.21,56.79,8.33,24.81,12.22,66.08-5.62,87.45-1.47,1.76-7.06,6.16-7.26,6.74-.69,2.07.13,5.25-.28,7.72-1.96,11.9-7.42,25.51-18.98,31.02-6.29,3-12.88,1.31-16.53,8.06l3.68,19.48c11.54-.63,22.04,9.18,22.94,20.57.77,9.74-4.69,19.89-8.51,28.55,6.19,10.26,6.29,22,8.79,33.16,3.88,17.3,21.17,48.71,29.89,65.11,7.38,13.86,4.87,27.29-8.72,35.68l-.44,1.42c1.78,5.37,3.18,11,6.17,15.88,3.48,5.67,8.67,7.12,12.79,12.21,5.19,6.41,7.31,13.24,5.58,21.53-1.19,5.72-5.91,9.11-7.58,14.35,4.34,9.6,6.31,19.77,8.01,30.11.4,2.42-.3,5.09.24,7.76.58,2.89,3.69,6.09,4.97,9.03,6.53,15.01,1.79,31.56-15.15,34.74.66,13.14-.57,24.77-7.24,36.26-1.4,2.41-5.94,7.01-6.3,8.57-.51,2.25,2.72,11.17,2.56,15.63-.35,10.1-6.67,19.18-15.77,23.29-1.8.81-5.38.89-6.09,1.4-.5.36-3.48,8.51-5.38,11.13-15.18,20.98-41.95,19.55-65.13,21.87-31.13,33.25-93.36,32.18-123.67-1.73-1.47-1.64-6.7-9.94-7.25-10.24-.58-.33-12.01-2.14-13.18-2.12-1.11.02-11.85,1.79-12.4,2.1s-5.63,8.48-7.23,10.26c-30.5,33.88-92.37,35.03-123.67,1.73-24.04-2.41-47.37-.65-64.28-20.72-1.46-1.73-3.69-6.73-4.28-7.22-1.38-1.13-7.11-1.25-9.54-1.96-20.98-6.18-21.08-26.92-10.47-42.81-12.53-12.45-16.08-28.14-14.78-45.44-16.94-3.17-21.68-19.73-15.15-34.74,1.28-2.94,4.38-6.14,4.97-9.03.54-2.68-.16-5.34.24-7.76,1.7-10.34,3.67-20.5,8.01-30.11-1.67-5.23-6.38-8.63-7.58-14.35-1.73-8.3.39-15.13,5.58-21.53,4.12-5.09,9.31-6.54,12.79-12.21,2.99-4.88,4.39-10.51,6.17-15.88l-.44-1.42c-13.59-8.39-16.1-21.82-8.72-35.68,8.73-16.39,26.01-47.81,29.89-65.11,2.5-11.16,2.6-22.91,8.79-33.16-3.81-8.66-9.28-18.81-8.51-28.55.9-11.39,11.39-21.2,22.94-20.57-.31-5.33,4.52-16.56,2.53-20.92-2.11-4.64-10.51-4.3-15.38-6.62-9.25-4.41-14.48-14.09-17.56-23.44-1.57-4.76-2.2-13.24-4.11-16.89-1.25-2.38-6.19-6.5-8.25-9.75-14.05-22.15-10.14-62.97-.94-86.58,7.75-19.89,27.14-35.34,37.28-53.72,6.71-12.17,6.95-25.26,13.95-37.05,2.06-3.47,10.64-11.98,10.99-12.91.39-1.04-.7-5.35-.5-7.58,1.24-14.01,12.17-23.85,26.44-22.36,2.66.28,6.78,2.51,8.12,2.51s9.18-4.06,13.1-4.52c5.14-.6,12.2,1.29,15.64.73,4.06-.66,15.83-7.57,21.74-9.35,9.75-2.93,19.86-4.03,30.01-4.5-9.94-49.94,44.44-86.95,87.32-57.81,18.35,12.47,27.39,36.16,22.69,57.81ZM314.01,74.1c13.4-43.68-29.73-83.89-71.87-63.37-23.7,11.54-33.13,38.51-26.13,63.37-13.87-1.1-26.22.52-39.25,5.26-4.69,1.71-12.82,6.78-16.48,7.52-6.93,1.41-13.21-2.25-22.27.74-2.02.67-6.85,4.1-7.52,4.15-.72.05-6.49-3.06-9.26-3.4-9.87-1.23-20.08,6.19-21.16,16.34-.4,3.72,1.49,8.32.78,10.7-.52,1.76-4.71,3.76-6.38,5.69-12.26,14.15-10.38,27.16-17.94,42.06-8.69,17.14-27.33,32.64-36.08,49.92-11,21.72-15.46,66.11-2.28,87.36,2.15,3.47,8.22,8.53,9.27,10.73,1.82,3.79,2.42,12.85,4.09,17.91,2.8,8.46,7.07,16.72,15.77,20.23,3.93,1.58,8.16,1.21,10.67,2.33,1.24.55,7.85,7.61,7.93,8.91l-3.91,25.58c-27.97-2.28-26.61,24.6-14.18,41.76.65,2.59-5.26,15.02-6.33,19.23-1.52,5.95-1.64,12.29-2.94,18.06-3.4,15.07-11.85,26.95-18.41,40.59-2.46,5.11-3.61,11.22-5.96,16.04-2.59,5.3-7.87,9.75-8.94,16.06-1.92,11.27,2.75,19.46,13.35,23.23,1.7,2.4-5.66,20.1-7.77,23.36-3.9,6.02-8.69,7.23-12.79,12.21-7.88,9.58-6.93,23.31,4.84,28.62l.16,1.28c-5.03,10.13-8.25,21-9.9,32.2-.52,3.49.41,7.31-.34,10.66-.82,3.64-6.21,8.96-7.3,13.7-3.03,13.13,4.24,23.04,17.47,24.05,0,12.27-1.04,24.19,5.24,35.26,1.84,3.25,9.18,10.46,9.65,12.4,1.41,5.93-12.34,17.47-5.05,30.99,6.27,11.63,17.38,6.92,23.16,10.84,1.36.93,3.71,7.12,5.52,9.48,13.88,18.09,42.43,16.02,62.86,18.14,24.33,31.39,83.72,31.27,111.67,5.35,3.07-2.85,12.92-16.52,13.97-17.03,1.12-.54,14.54-2.51,16.35-2.41,1.39.08,13.05,2.11,13.67,2.41,1.05.51,10.9,14.18,13.97,17.03,27.98,25.95,87.39,26.01,111.67-5.35,21.06-2.1,50.76-.06,64.17-19.83,1.77-2.6,4.51-11.24,5.39-12.11,1-.99,9.13-2.15,12.71-4.79,4.53-3.34,8.13-11.31,8.14-16.93,0-4.62-3.57-12.11-2.91-15.76.45-2.51,6.29-8.03,8.03-11.04,6.42-11.13,6.01-22.6,5.95-35.05,7.12-3.92,15.93-5.56,17.62-15.38,2.32-13.52-5.22-15.09-7.33-24.19-1.19-5.14-.76-12.11-1.89-18.11-1.55-8.19-4.8-16.94-8.26-24.48,10.58-7.79,13.67-20.08,4.25-30.51-2.48-2.75-6.02-4.21-8.41-6.59-7.13-7.06-9.52-18.49-12.14-27.82,10.61-4.53,15.83-11.91,13.79-23.83-1.07-6.31-6.36-10.75-8.94-16.06-2.35-4.82-3.5-10.93-5.96-16.04-4.4-9.14-10.68-18.44-14.34-27.66-6.26-15.78-5.14-33.29-13.53-48.57,4.99-11.06,13.93-24.8,5.43-36.33-5.09-6.9-11.21-7.69-19.42-7.08l-3.91-25.58c.08-1.3,6.69-8.36,7.93-8.91,2.35-1.04,6.37-.69,9.97-2.03,9.01-3.35,13.9-11.84,16.3-20.7,1.29-4.78,1.1-14.29,2.23-16.77.7-1.55,5.59-4.42,7.47-6.53,17.24-19.44,12.98-60.3,5.31-83.27s-28.48-38.77-39.48-58.52c-8.14-14.62-5.66-28.14-18.29-42.71-1.67-1.92-5.85-3.93-6.38-5.69-.72-2.41,1.24-7.34.61-11.55-1.17-7.87-9.27-15.35-17.29-15.78-5.08-.28-11.58,3.79-12.96,3.7-.66-.04-5.5-3.48-7.52-4.15-9.05-2.99-15.34.67-22.27-.74-8.78-1.79-23.35-12.77-34.22-12.77h-21.5ZM287.77,52c0,12.58-10.2,22.78-22.78,22.78s-22.78-10.2-22.78-22.78,10.2-22.78,22.78-22.78,22.78,10.2,22.78,22.78ZM282.54,52.1c0-9.68-7.85-17.53-17.53-17.53s-17.53,7.85-17.53,17.53,7.85,17.53,17.53,17.53,17.53-7.85,17.53-17.53Z"/>
</svg>