<?xml version="1.0" encoding="UTF-8"?>
<svg id="_レイヤー_1" data-name="レイヤー 1" xmlns="http://www.w3.org/2000/svg" width="200.98mm" height="293.96mm" viewBox="0 0 569.72 833.27">
  <path d="M337.93,71.07c6.96,2.49,13.73,5.32,19.48,10.05,1.3,1.07,2.34,3.87,3.15,4.07,4.58,1.12,15.7.18,21.68,1.1,8.81,1.36,17.03,4.51,24.1,9.9,1.93,1.47,4.98,5.78,6.53,6.47,2.15.95,4.65.22,7.01.99,9.69,3.19,21.33,10.29,28.99,17.01,2.32,2.04,4.19,5.7,6,7,3.04,2.17,10.17,3.15,14.91,6.09,8.53,5.31,16.55,15.69,19.86,25.14,1.02,2.91,2.01,11.32,2.44,12.07.52.92,13.86,9.63,16.82,12.68,9.31,9.59,17.36,24.72,18.95,38.05.38,3.19-.72,8.2.18,10.82.27.8,9.83,9.64,11.81,12.19,10.74,13.83,15.69,27.99,12.17,45.75,14.06,13.27,20.75,33.74,16.41,52.78-1.1,4.82-6.16,12.41-6.55,15.53-.34,2.75,1.01,5.18,1.04,7.87.16,13.5-2.93,23.93-12.01,34.07-1.72,1.92-6.34,4.53-6.84,6.16-1.17,3.82-.5,12.41-1.89,18.11-1.75,7.21-9.78,17.76-10.31,20.74-.48,2.74.91,4.92.81,6.96-1.35,26.12-16.72,46.92-42.32,53.48-2.17,8.46-6.95,18.68-14.49,23.03,12.55,11.83,20.36,27.44,22.88,44.6.76,5.17.2,15.88,1.33,19.67.47,1.58,9.74,10.5,11.97,15.03,6.38,12.96,3.35,22.89,6.03,34.97.52,2.33,4.63,7.88,5.96,11.04,7.03,16.63,11.44,34,2.65,51-1.64,3.18-7.88,9.67-8.4,11.63-.44,1.66.72,5.52.47,8.41-.78,8.86-6.39,19.26-11.91,26.11-2.87,3.57-9.47,8.19-11.4,11.6s-2.49,9.45-4.38,13.62c-9.72,21.42-39.21,26.37-60.23,26.77-4.31,11.92-15.59,19.58-26.98,24.02-31.06,12.14-76.67,1.09-97.95-25.01-4.62-5.67-4.57-11.63-12.53-11.54-9.89.11-9.94,6.99-15.53,13.54-20.31,23.83-64.58,34.93-93.93,24.99-12.44-4.21-26.15-12.7-29.15-26.34-24.21.49-61.95-4.84-65.8-34.7-.47-3.63.65-8.56-.29-11.71-.41-1.38-8.93-10.57-10.98-15.02-4.02-8.74-2.21-13.56-4.06-20.94-.68-2.74-5.51-9.38-6.94-13.06-7.31-18.86-2.79-43.33,6.36-61,1.43-2.75,7.16-9.84,7.61-11.39,1.55-5.39,0-13.23,2.44-20.56,2.82-8.49,13.78-17.76,14.57-20.43.91-3.06-.1-8.04.33-11.67,1.5-12.55,4.54-25.03,11.07-35.93,2.92-4.87,6.99-8.14,9.82-12.18.6-.85,1.39-1,.98-2.51-9.03-2.26-18.5-2.79-27.26-6.25-19.25-7.6-28.88-26.87-30.22-46.78-12.13-6.38-23.53-17.51-28.54-30.46-1.84-4.76-2.93-15.97-4.54-18.46-1.34-2.06-8.29-6.76-10.85-10.15-9.96-13.18-4.93-20.63-7.79-33.21-.5-2.19-5.18-7.93-6.65-11.35-8.46-19.63-2.8-42.72,10.5-58.86-7.11-15.87-2.26-33.18,5.84-47.51,1.94-3.44,9.75-12.81,10.3-14.69,1.06-3.63-.98-10.95-.76-15.78.45-9.94,5.09-23.28,10.18-31.81,2.23-3.74,9.39-10.76,10.28-12.72,1.26-2.82,1.1-8.57,2-12,3.32-12.71,14.76-24.58,25.86-31.14,2.55-1.51,10.32-4.18,11.41-5.09.58-.48,5.86-10.81,7.45-13.06,10.48-14.84,16.62-15.91,31.49-23.51s20.6-15.26,39.84-16.18c3.1-.15,8.04,1.31,9.75.86,1.47-.39,5.34-5.2,7.4-6.69,7.08-5.1,15.63-7.36,24.12-8.88s15.65-.36,23.22-5.31C218.74,30.54,255.89-9.28,299.62,1.91c29.68,7.59,46.7,39.94,38.31,69.16ZM330.85,75.16c15.22-37.69-16.7-77.54-57.01-68.5-31.66,7.1-46.06,39.83-35.06,69.42-4.38.61-8.23,5.18-11.93,6.4s-9.97.31-14.22.96c-12.26,1.9-25,6.06-32.36,16.56-13.38-2.7-28.84.61-40.33,7.75-7.33,4.56-9.7,5.77-17.46,9.54-6.56,3.2-14.48,10.25-19.04,15.96-3.13,3.92-7.89,14.67-9.86,16.65-1.34,1.34-8.12,3.27-10.75,4.75-11.79,6.68-23.53,18.33-25.88,32.12-.48,2.8.45,6.1-.31,8.69-.57,1.95-6.07,6.04-7.77,8.23-6.61,8.47-12.19,21.17-13.06,31.94-.4,4.97,1.63,18.2.85,20.82-.35,1.18-6.66,7.48-8.23,9.81-8.16,12.17-13.32,25.32-11.48,40.3.39,3.17,3.96,10.58,3.69,11.98-.15.77-7.74,9.56-9.32,12.61-6.6,12.77-8.13,29.08-2.34,42.37,1.55,3.56,7.35,10.36,7.71,12.38.44,2.49-1.1,7.84-.83,11.75.52,7.45,4.37,17.06,9.46,22.53,2.64,2.83,8.55,5.34,9.78,8.22,1.43,3.38,1.31,10.59,2.7,15.3,3.98,13.47,16.71,26.73,29.89,31.61.22,21.75,10.28,41.23,32.15,47.35,9.98,2.79,21.35,1.58,28.99,9.99-19.72,15.78-26.74,39.03-25.19,63.79-11.04,8.88-15.67,17.31-17.67,31.33-.45,3.14.46,6.85-.34,9.66-.48,1.67-6.72,9.58-8.27,12.73-8.08,16.3-12.47,38.38-5.69,55.67,1.54,3.94,7.17,11.27,7.64,14.2,1.09,6.84-.5,11.19,3.04,19.12,2.49,5.56,9.66,11.12,10.98,14.02s.19,8.7.63,12.37c3.54,29.46,39.76,32.59,63.26,31.75,3.33,5.9,4.74,11.82,10.14,16.85,26.98,25.12,85.56,12.45,107.46-14.52,2.28-2.8,5.89-10.19,7.5-11.5,3.94-3.23,14.58-2,19.54-1.47,13.08,26.48,43.95,39.77,72.44,40.55,19.56.54,47.76-8.52,52.66-29.93,19.61,1.2,51.01-3.14,59.67-23.84,1.75-4.19,1.8-11.24,3.16-13.58.72-1.23,6.11-4.21,7.55-5.7,5.14-5.29,14.44-18.36,15.42-25.58.59-4.31-.69-9.66.33-13.67.61-2.39,6.11-7.91,7.93-11.07,8.79-15.33,4.83-32.13-2-47.34-1.49-3.31-6.72-10.7-7.13-12.87-.84-4.54.37-10.99-.06-15.94-1.12-12.99-7.51-24.38-17.8-32.2,1.55-25.28-5.48-50.17-26.17-65.81,10.05-6.91,15.61-16.47,18.21-28.28,20.61-2.89,38.61-22.27,40.65-42.85.47-4.77-.74-11.5.36-15.64.63-2.39,5.17-7.26,6.64-10.36,3.87-8.2,6.04-19.88,4.05-28.69,11.13-5.95,20.11-20.44,20.16-33.19.01-4.15-2.52-9.67-2.09-12.93.28-2.11,4.93-8.61,6.04-12.03,6.38-19.54-.42-41.06-16.58-53.52,8.66-21.78-6.11-44.12-22.95-56.95,3.27-25.62-13.5-48.96-35.02-61.05-1.55-15.08-9.24-30.78-23.45-37.55-3.67-1.75-9.46-2.38-11.99-4.01-1.94-1.25-6.2-7.56-9.03-9.97-5.36-4.56-18.31-12.22-25-14-2.64-.7-6.29.05-8.02-.98-.71-.42-2.82-4-4.53-5.47-6.86-5.9-17.11-10.01-26.09-10.91-5.51-.55-15.27.98-19.67-.33-1.94-.58-7.03-7.06-10.01-8.99-5.36-3.48-12.55-5.27-18.7-6.82ZM307.22,55.17c0,12.35-10.01,22.36-22.36,22.36s-22.36-10.01-22.36-22.36,10.01-22.36,22.36-22.36,22.36,10.01,22.36,22.36ZM301.82,55.17c0-9.37-7.59-16.96-16.96-16.96s-16.96,7.59-16.96,16.96,7.59,16.96,16.96,16.96,16.96-7.59,16.96-16.96Z"/>
</svg>