<?xml version="1.0" standalone="no"?>
<!DOCTYPE svg PUBLIC "-//W3C//DTD SVG 20010904//EN"
 "http://www.w3.org/TR/2001/REC-SVG-20010904/DTD/svg10.dtd">
<svg version="1.0" xmlns="http://www.w3.org/2000/svg"
 width="580.000000pt" height="867.000000pt" viewBox="0 0 580.000000 867.000000"
 preserveAspectRatio="xMidYMid meet">

<g transform="translate(0.000000,867.000000) scale(0.100000,-0.100000)"
fill="#000000" stroke="none">
<path d="M2732 8425 c-225 -72 -382 -287 -382 -520 0 -38 6 -95 13 -126 l14
-56 -36 -20 c-23 -13 -65 -23 -116 -28 -158 -14 -271 -54 -346 -122 -40 -36
-42 -37 -132 -39 -132 -3 -275 -52 -367 -125 -19 -15 -61 -37 -92 -49 -113
-42 -229 -148 -304 -278 -36 -63 -43 -69 -118 -106 -61 -30 -100 -58 -156
-115 -88 -88 -126 -156 -142 -257 -10 -59 -18 -76 -55 -119 -52 -60 -103 -156
-133 -250 -18 -55 -23 -95 -24 -190 l-1 -120 -47 -66 c-128 -178 -174 -372
-124 -519 11 -33 9 -38 -31 -99 -53 -79 -80 -151 -93 -243 -18 -128 7 -259 68
-345 23 -33 27 -52 33 -138 9 -142 34 -202 120 -288 65 -65 68 -70 83 -145 9
-42 30 -105 48 -140 40 -80 133 -181 209 -228 52 -32 59 -41 59 -68 0 -95 73
-258 149 -335 69 -69 154 -108 295 -136 65 -12 120 -25 123 -28 3 -4 -16 -30
-41 -59 -59 -66 -129 -210 -151 -308 -9 -41 -19 -115 -22 -165 l-6 -90 -49
-52 c-72 -77 -107 -160 -115 -268 -6 -79 -10 -93 -44 -144 -98 -147 -159 -409
-130 -566 6 -33 30 -100 55 -150 34 -70 45 -105 50 -158 6 -81 47 -172 106
-239 37 -43 40 -50 40 -105 0 -168 104 -297 285 -357 65 -21 233 -46 310 -46
l60 0 18 -44 c41 -101 187 -201 348 -240 83 -20 232 -21 340 -1 259 48 463
166 571 330 36 55 46 65 80 70 60 11 91 -1 113 -42 32 -60 134 -163 213 -214
196 -129 519 -187 725 -130 158 43 288 130 335 224 l22 44 100 7 c181 12 325
64 417 148 54 51 86 104 108 183 14 50 29 72 84 130 114 119 181 260 168 356
-4 32 1 45 35 91 80 105 108 214 88 344 -14 89 -55 211 -98 288 -24 43 -30 67
-36 151 -12 171 -44 258 -125 347 l-48 53 -7 103 c-13 196 -79 370 -179 478
l-53 57 30 31 c41 44 76 102 96 160 17 47 20 50 74 66 155 48 308 219 346 385
6 28 12 85 12 129 0 71 4 83 31 124 45 66 77 164 84 256 l6 80 54 52 c36 35
66 78 91 131 36 77 37 80 37 199 0 73 5 127 11 135 6 8 22 41 34 74 32 85 32
242 1 335 -26 75 -70 151 -114 197 -30 33 -31 33 -31 150 -1 103 -4 126 -26
178 -35 81 -89 162 -161 236 -58 60 -59 62 -59 118 0 173 -117 380 -282 501
-71 52 -76 58 -82 102 -11 76 -77 197 -144 260 -62 59 -112 89 -178 107 -28 7
-51 23 -68 45 -58 77 -291 216 -361 216 -19 0 -44 15 -80 49 -91 83 -185 115
-365 127 -109 7 -110 7 -148 44 -22 20 -74 52 -116 70 -67 30 -76 37 -71 55
14 45 17 192 5 248 -27 133 -122 270 -240 350 -127 86 -317 111 -468 62z m276
-40 c189 -45 332 -188 377 -377 8 -35 15 -81 15 -103 0 -39 -21 -153 -35 -187
-5 -13 5 -19 51 -33 83 -24 143 -57 189 -104 l39 -41 97 0 c53 0 120 -5 150
-10 80 -15 172 -62 224 -114 34 -35 53 -46 76 -46 71 0 265 -113 340 -199 33
-37 55 -52 89 -61 146 -39 261 -170 292 -333 12 -64 15 -68 60 -97 179 -116
297 -309 304 -496 l3 -81 64 -64 c75 -75 130 -155 158 -230 28 -72 35 -182 17
-235 l-15 -41 48 -47 c90 -90 140 -207 141 -335 0 -90 -13 -147 -53 -221 -29
-54 -30 -56 -18 -122 15 -83 2 -155 -44 -241 -26 -50 -116 -147 -136 -147 -3
0 -6 -35 -7 -78 -1 -99 -27 -188 -76 -263 -35 -56 -38 -65 -38 -134 0 -152
-38 -251 -138 -357 -76 -80 -122 -110 -209 -134 l-62 -17 -16 -56 c-20 -70
-72 -149 -124 -192 l-41 -32 68 -67 c122 -120 181 -266 189 -469 l6 -125 52
-50 c86 -85 125 -194 125 -350 0 -77 3 -88 34 -141 19 -31 49 -96 67 -143 30
-79 33 -97 33 -202 1 -128 -8 -154 -85 -256 -37 -49 -39 -54 -39 -126 0 -66
-4 -84 -35 -144 -39 -79 -103 -160 -157 -201 -26 -20 -39 -38 -43 -63 -29
-163 -131 -263 -320 -315 -33 -9 -114 -19 -180 -22 l-120 -6 -23 -52 c-30 -68
-90 -125 -177 -168 -114 -57 -175 -71 -305 -71 -313 0 -591 133 -712 341 l-34
58 -65 3 c-108 5 -121 0 -168 -72 -116 -181 -331 -297 -621 -336 -136 -19
-243 -1 -377 60 -99 46 -163 107 -191 183 l-20 52 -63 1 c-382 5 -563 118
-577 359 -4 75 -7 82 -41 120 -20 22 -46 56 -59 76 -26 43 -55 149 -50 188 2
19 -14 62 -45 122 -73 145 -81 240 -35 424 25 102 60 185 109 259 30 44 39 68
39 100 0 126 43 232 126 312 l54 51 0 92 c0 190 62 354 181 476 l71 73 -42 28
c-30 20 -75 35 -157 51 -135 27 -200 54 -265 112 -78 69 -148 233 -148 345 0
27 -6 34 -54 59 -139 73 -247 230 -263 381 -5 52 -11 65 -36 86 -124 103 -159
172 -162 320 -2 91 -4 97 -39 149 -48 70 -68 143 -67 244 0 127 48 253 127
337 l24 26 -20 57 c-28 79 -27 191 3 277 28 83 84 183 135 240 l40 46 -5 109
c-4 83 -1 126 11 175 24 95 80 202 140 268 51 55 53 60 58 124 8 92 38 149
127 239 60 60 93 85 159 115 45 22 85 47 88 56 3 9 27 50 53 90 77 118 184
206 286 238 22 7 55 26 73 41 84 73 237 122 368 118 78 -3 85 -2 100 20 9 13
43 40 76 62 65 41 192 76 303 82 79 4 189 60 180 92 -31 107 -38 173 -27 250
43 292 320 486 600 420z"/>
<path d="M2805 8101 c-171 -79 -166 -333 7 -405 77 -33 182 -14 242 42 88 82
88 242 0 324 -62 58 -171 75 -249 39z m158 -45 c44 -18 95 -78 103 -121 11
-60 -4 -106 -50 -151 -72 -72 -160 -72 -232 0 -67 67 -72 154 -11 223 53 60
122 78 190 49z"/>
<path d="M3790 6038 c-57 -121 -156 -395 -146 -406 6 -6 8 -2 36 96 26 90 95
264 144 360 20 39 34 72 30 72 -3 0 -32 -55 -64 -122z"/>
<path d="M3833 5873 c-45 -87 -84 -169 -87 -183 -4 -14 22 34 58 105 35 72 78
154 95 183 17 28 28 52 23 52 -5 0 -45 -71 -89 -157z"/>
<path d="M2005 5975 c8 -40 144 -320 151 -313 3 3 -9 31 -26 61 -17 31 -54
106 -81 169 -28 62 -48 100 -44 83z"/>
<path d="M2860 5935 c0 -26 -4 -33 -15 -29 -26 10 -86 -16 -96 -43 -13 -35
-11 -48 10 -74 15 -19 29 -23 90 -25 l71 -3 0 67 c0 90 -15 142 -40 142 -16 0
-20 -7 -20 -35z m-18 -72 c10 -9 18 -21 18 -28 0 -19 -38 -48 -55 -42 -18 8
-20 58 -3 75 15 15 18 15 40 -5z"/>
<path d="M3590 5923 c0 -61 9 -95 24 -90 7 2 11 29 11 68 0 53 -3 64 -17 67
-15 3 -18 -4 -18 -45z"/>
<path d="M1881 5940 c11 -24 203 -316 232 -352 8 -10 17 -18 21 -18 4 0 -12
26 -35 58 -23 31 -77 111 -120 177 -43 66 -85 129 -94 140 -15 19 -15 19 -4
-5z"/>
<path d="M2170 5911 c-24 -45 -2 -131 34 -131 18 0 25 9 37 46 16 51 32 59 37
17 8 -59 46 -72 56 -19 4 19 13 39 21 46 12 10 16 5 21 -29 7 -43 26 -67 44
-56 14 9 13 50 -4 89 -16 39 -55 52 -81 27 -15 -15 -17 -15 -26 2 -13 22 -62
23 -80 1 -12 -14 -14 -14 -21 5 -9 26 -24 27 -38 2z"/>
<path d="M2460 5891 c0 -51 38 -91 88 -91 29 0 33 -2 22 -15 -7 -8 -29 -15
-49 -15 l-36 -1 25 -14 c38 -22 74 -18 100 10 19 20 23 36 24 87 1 56 -1 63
-19 66 -16 2 -26 -8 -43 -43 -12 -25 -28 -45 -37 -45 -19 0 -35 31 -35 69 0
24 -4 31 -20 31 -17 0 -20 -7 -20 -39z"/>
<path d="M3003 5923 c-29 -6 -53 -40 -53 -74 0 -56 100 -105 157 -77 37 18 51
44 34 60 -11 11 -14 11 -18 0 -7 -19 -62 -44 -83 -37 -10 3 -23 11 -28 18 -8
9 2 12 39 12 32 0 53 5 58 14 14 21 -8 71 -36 82 -25 9 -32 9 -70 2z m61 -39
c12 -31 -20 -46 -53 -25 -12 8 -12 12 -2 25 17 21 47 20 55 0z"/>
<path d="M3185 5920 c-11 -18 5 -29 38 -24 20 4 40 0 52 -9 19 -14 18 -15 -17
-14 -62 2 -101 -52 -62 -84 10 -8 45 -15 85 -16 65 -2 69 0 69 20 0 44 -21 97
-47 117 -27 21 -107 28 -118 10z m96 -81 c26 -13 15 -29 -20 -29 -34 0 -44 9
-30 27 14 16 24 16 50 2z"/>
<path d="M3384 5873 c8 -66 28 -103 56 -103 15 0 20 7 20 29 0 16 9 39 19 52
17 21 22 22 40 12 27 -17 41 -16 41 0 0 26 -46 41 -86 29 -33 -10 -36 -9 -44
14 -6 15 -17 24 -31 24 -21 0 -21 -3 -15 -57z"/>
<path d="M3602 5788 c3 -7 13 -15 22 -16 12 -3 17 1 14 10 -3 7 -13 15 -22 16
-12 3 -17 -1 -14 -10z"/>
<path d="M1260 5205 l0 -167 89 4 c61 3 97 9 115 21 49 32 47 105 -4 136 l-30
18 25 11 c44 20 46 94 3 121 -14 9 -59 17 -110 19 l-88 4 0 -167z m134 99 c9
-3 16 -16 16 -29 0 -23 -17 -35 -51 -35 -14 0 -19 7 -19 28 0 41 15 51 54 36z
m14 -136 c20 -20 14 -48 -15 -59 -38 -14 -53 -5 -53 36 0 32 3 35 28 35 15 0
33 -5 40 -12z"/>
<path d="M1560 5205 l0 -165 45 0 45 0 0 165 0 165 -45 0 -45 0 0 -165z"/>
<path d="M1791 5352 c-52 -26 -74 -63 -79 -131 -5 -70 15 -120 61 -153 38 -27
142 -37 187 -18 17 7 30 13 30 15 0 1 -5 16 -11 33 -10 30 -10 30 -46 16 -27
-12 -42 -13 -69 -4 -44 15 -64 45 -64 96 0 78 62 120 133 90 l36 -14 10 30 c6
17 10 32 9 33 -38 30 -146 34 -197 7z"/>
<path d="M2050 5205 l0 -165 45 0 45 0 0 70 0 70 50 0 50 0 0 -70 0 -70 45 0
45 0 0 165 0 165 -45 0 -45 0 0 -65 0 -65 -50 0 -50 0 0 65 0 65 -45 0 -45 0
0 -165z"/>
<path d="M2455 5351 c-45 -27 -67 -66 -72 -130 -9 -110 56 -181 165 -181 109
0 167 57 167 165 0 72 -28 125 -79 149 -47 22 -143 21 -181 -3z m151 -72 c14
-15 19 -36 19 -74 0 -67 -22 -95 -74 -95 -42 0 -54 7 -70 37 -22 43 -9 124 23
145 23 16 83 8 102 -13z"/>
<path d="M2770 5205 l0 -165 40 0 40 0 0 92 c0 50 3 88 8 84 4 -4 27 -44 52
-89 45 -81 46 -82 88 -85 l42 -3 0 165 0 166 -40 0 -39 0 -3 -92 -3 -93 -50
93 -50 92 -42 0 -43 0 0 -165z"/>
<path d="M3260 5205 l0 -165 45 0 45 0 0 65 0 65 55 0 c54 0 55 0 55 30 0 30
-1 30 -55 30 l-55 0 0 35 0 35 60 0 60 0 0 35 0 35 -105 0 -105 0 0 -165z"/>
<path d="M3540 5205 l0 -165 40 0 40 0 0 60 c0 53 2 60 19 60 24 0 31 -10 52
-70 15 -43 18 -45 57 -48 24 -2 42 1 42 7 0 19 -33 95 -48 114 -14 16 -13 20
10 45 35 37 41 64 24 106 -18 42 -57 56 -163 56 l-73 0 0 -165z m141 95 c21
-12 25 -50 7 -68 -7 -7 -25 -12 -40 -12 -27 0 -28 2 -28 45 0 39 3 45 21 45
11 0 29 -5 40 -10z"/>
<path d="M3850 5205 l0 -165 50 0 50 0 0 165 0 165 -50 0 -50 0 0 -165z"/>
<path d="M4051 5344 c-24 -20 -31 -34 -31 -61 0 -53 16 -73 85 -104 71 -32 82
-43 65 -64 -15 -18 -43 -18 -95 0 -21 8 -40 13 -42 11 -2 -1 -6 -16 -9 -33 -5
-27 -3 -31 27 -42 45 -16 135 -14 169 4 39 20 56 72 37 117 -14 33 -37 48
-119 78 -36 13 -38 47 -3 56 23 6 48 2 96 -12 12 -3 18 4 21 27 6 39 -16 49
-107 49 -54 0 -68 -4 -94 -26z"/>
<path d="M4330 5205 l0 -165 105 0 105 0 0 35 0 35 -65 0 -65 0 0 35 0 35 60
0 60 0 0 30 0 30 -60 0 -60 0 0 30 0 30 65 0 65 0 0 35 0 35 -105 0 -105 0 0
-165z"/>
<path d="M2897 3293 c-12 -11 -7 -147 6 -173 7 -14 20 -26 30 -28 14 -3 17 4
17 37 0 52 20 54 43 6 17 -35 42 -54 55 -41 3 4 -1 26 -9 50 -14 39 -14 44 0
54 12 8 13 13 4 22 -9 10 -20 9 -53 -4 -52 -21 -50 -21 -50 15 0 48 -24 82
-43 62z"/>
<path d="M2287 3278 c-7 -21 5 -162 16 -175 18 -24 37 -14 37 20 1 104 41 101
64 -5 4 -19 13 -28 26 -28 24 0 27 34 6 85 -16 37 -42 55 -80 55 -19 0 -26 6
-31 30 -7 30 -29 41 -38 18z"/>
<path d="M2020 3270 c-24 -16 8 -32 53 -26 37 4 37 4 38 -32 1 -55 22 -116 42
-120 15 -3 16 5 10 79 l-6 82 46 -5 c51 -6 62 -1 46 19 -14 16 -205 18 -229 3z"/>
<path d="M2681 3251 c-10 -6 -11 -22 -6 -62 14 -103 44 -118 77 -39 12 28 26
49 32 47 6 -2 17 -25 24 -50 10 -35 18 -47 33 -47 22 0 24 17 8 73 -5 20 -21
44 -34 53 -22 14 -27 14 -56 0 -40 -20 -37 -20 -41 6 -3 25 -17 32 -37 19z"/>
<path d="M2477 3244 c-14 -14 6 -24 48 -24 24 0 47 -4 50 -10 4 -6 -6 -10 -22
-10 -63 0 -99 -65 -51 -91 27 -14 136 -20 144 -7 12 19 -18 108 -43 128 -25
19 -111 29 -126 14z m104 -85 c26 -13 15 -29 -21 -29 -30 0 -45 13 -35 30 8
13 31 13 56 -1z"/>
<path d="M3167 3243 c-4 -3 -7 -19 -7 -34 0 -39 52 -89 92 -89 27 0 29 -2 17
-16 -8 -10 -23 -14 -41 -12 -35 6 -36 -5 -3 -20 39 -18 63 -14 91 13 22 22 25
32 22 92 -3 76 -19 91 -45 43 -10 -18 -26 -42 -35 -54 -18 -21 -18 -21 -33 -2
-8 11 -15 35 -15 53 0 25 -4 33 -18 33 -10 0 -22 -3 -25 -7z"/>
<path d="M3420 3243 c-58 -22 -68 -86 -19 -127 69 -59 179 -13 147 61 -27 64
-72 87 -128 66z m70 -42 c17 -32 12 -69 -10 -76 -54 -17 -93 42 -50 77 29 23
47 23 60 -1z"/>
<path d="M3584 3236 c-11 -28 7 -88 33 -112 31 -28 78 -32 92 -7 9 17 10 17
28 0 18 -15 53 -24 53 -12 0 2 -9 19 -20 37 -11 18 -20 43 -20 54 0 27 -22 46
-43 38 -9 -3 -18 -23 -22 -45 -12 -69 -40 -63 -53 12 -8 46 -36 66 -48 35z"/>
<path d="M2193 2810 c-19 -8 -23 -17 -23 -53 0 -42 -2 -45 -31 -51 -27 -5 -30
-8 -19 -21 7 -8 23 -15 36 -15 18 0 23 -6 26 -32 2 -22 9 -34 21 -36 14 -3 17
4 17 37 l0 41 41 0 c53 0 48 23 -7 30 -36 5 -39 7 -39 38 0 40 15 43 35 7 17
-30 33 -35 38 -10 3 15 -49 76 -65 74 -4 0 -18 -4 -30 -9z"/>
<path d="M2847 2804 c-4 -4 -7 -45 -7 -90 0 -60 4 -87 15 -98 30 -29 135 6
143 48 6 29 -26 65 -67 77 -32 9 -41 17 -43 38 -3 25 -26 39 -41 25z m84 -105
c17 -17 18 -23 7 -37 -33 -42 -48 -36 -48 19 0 44 10 49 41 18z"/>
<path d="M3240 2798 c0 -18 28 -58 41 -58 6 0 9 15 7 33 -2 24 -8 33 -25 35
-14 2 -23 -2 -23 -10z"/>
<path d="M3331 2770 c-11 -6 -12 -22 -7 -66 11 -96 46 -112 75 -35 22 61 37
62 53 4 10 -36 18 -48 33 -48 17 0 20 6 17 34 -4 58 -23 86 -59 89 -18 2 -41
-2 -53 -8 -16 -8 -20 -8 -20 3 0 21 -23 37 -39 27z"/>
<path d="M3574 2766 c-50 -22 -58 -63 -19 -101 15 -16 35 -25 55 -25 21 0 30
-4 27 -12 -3 -9 -22 -12 -56 -11 -28 1 -51 0 -51 -2 0 -10 61 -35 84 -35 14 0
37 5 52 12 24 11 26 16 20 56 -3 25 -6 58 -6 73 0 21 -7 32 -30 44 -35 18 -36
18 -76 1z m60 -39 c14 -22 -4 -52 -30 -52 -23 0 -31 39 -13 61 14 17 28 14 43
-9z"/>
<path d="M2370 2757 c-84 -43 -39 -147 63 -147 68 0 95 47 62 110 -25 49 -74
63 -125 37z m74 -39 c25 -35 20 -67 -11 -74 -34 -9 -57 6 -61 39 -2 17 4 30
20 41 29 21 34 20 52 -6z"/>
<path d="M2540 2749 c0 -29 21 -112 33 -126 20 -27 45 -14 52 26 9 54 26 67
65 51 39 -16 52 -4 21 21 -26 21 -48 24 -84 10 -21 -8 -26 -6 -36 15 -13 30
-51 33 -51 3z"/>
<path d="M3063 2763 c-27 -5 -53 -39 -53 -70 0 -56 85 -101 155 -82 42 12 62
41 40 59 -12 10 -18 8 -33 -10 -23 -28 -75 -31 -99 -7 -15 15 -14 16 18 11 78
-13 114 32 64 81 -23 24 -43 28 -92 18z m62 -48 c0 -23 -30 -32 -51 -14 -11 9
-12 15 -2 26 17 20 53 12 53 -12z"/>
<path d="M3250 2678 c0 -49 12 -73 31 -66 10 4 13 20 11 57 -3 42 -7 51 -23
51 -16 0 -19 -7 -19 -42z"/>
<path d="M2275 2297 c6 -32 6 -32 -35 -33 -51 -2 -80 -26 -80 -68 0 -57 28
-74 116 -73 l61 0 -5 81 c-6 99 -15 126 -42 126 -18 0 -20 -4 -15 -33z m-10
-127 c-22 -24 -50 -26 -59 -4 -10 26 -7 42 10 59 16 15 19 15 42 -9 25 -25 25
-26 7 -46z"/>
<path d="M2870 2304 c-6 -14 -10 -36 -10 -49 0 -18 -7 -26 -25 -31 -32 -8 -27
-28 7 -32 19 -2 28 -11 35 -35 12 -45 37 -42 41 5 3 35 5 37 40 40 51 4 47 22
-5 26 -42 3 -43 4 -43 38 0 42 14 44 35 4 9 -16 20 -30 25 -30 20 0 20 22 0
55 -18 29 -28 35 -56 35 -28 0 -36 -5 -44 -26z"/>
<path d="M3264 2317 c-3 -8 -4 -52 -2 -98 3 -76 5 -84 23 -84 18 0 19 6 17 80
-2 44 -5 88 -8 98 -6 20 -23 23 -30 4z"/>
<path d="M3476 2308 c-3 -13 -6 -35 -6 -50 0 -21 -6 -28 -30 -33 -25 -6 -29
-9 -19 -21 6 -8 22 -14 34 -14 18 0 24 -7 29 -36 5 -26 12 -34 24 -32 12 2 17
14 17 38 0 33 2 35 38 38 48 4 44 26 -5 30 -41 4 -50 18 -39 59 l8 28 22 -37
c26 -43 41 -49 41 -15 0 56 -100 95 -114 45z"/>
<path d="M3840 2318 c0 -18 28 -58 41 -58 6 0 9 15 7 33 -2 24 -8 33 -25 35
-14 2 -23 -2 -23 -10z"/>
<path d="M4480 2295 c0 -26 -4 -33 -15 -29 -8 3 -30 1 -49 -6 -64 -21 -72
-107 -13 -129 13 -5 49 -9 81 -9 l56 1 0 72 c0 87 -14 135 -41 135 -15 0 -19
-7 -19 -35z m-18 -72 c10 -9 18 -24 18 -34 0 -21 -35 -43 -56 -35 -17 7 -19
57 -2 74 15 15 18 15 40 -5z"/>
<path d="M1190 2280 c-22 -14 -3 -25 46 -25 24 0 49 -7 56 -14 11 -11 9 -13
-11 -8 -13 3 -40 0 -58 -8 -29 -12 -34 -19 -31 -42 4 -37 40 -53 108 -50 l55
3 -3 39 c-4 52 -27 94 -58 105 -32 13 -85 13 -104 0z m91 -80 c35 -19 13 -44
-30 -33 -31 8 -27 34 7 42 2 1 12 -4 23 -9z"/>
<path d="M1476 2278 c-13 -42 -13 -65 -1 -95 16 -39 56 -59 86 -43 13 7 25 7
38 0 21 -11 51 -4 51 11 0 6 9 5 20 -1 27 -15 43 -4 30 20 -5 10 -10 34 -10
54 0 63 -43 58 -61 -6 -12 -46 -26 -40 -31 12 -2 27 -8 36 -24 38 -18 3 -22
-3 -27 -38 -3 -23 -8 -45 -12 -48 -12 -12 -25 23 -23 63 2 31 -1 40 -15 43 -9
2 -19 -2 -21 -10z"/>
<path d="M1784 2280 c-27 -10 -54 -48 -54 -73 0 -10 13 -32 29 -48 37 -37 104
-41 139 -9 26 24 27 41 7 80 -27 53 -71 71 -121 50z m76 -61 c15 -35 1 -59
-34 -59 -47 0 -63 57 -25 84 27 19 44 12 59 -25z"/>
<path d="M1945 2280 c-6 -10 10 -114 20 -131 15 -23 44 -8 56 29 23 71 43 80
54 25 10 -53 22 -73 41 -66 12 5 15 15 11 45 -8 60 -31 88 -72 88 -18 0 -37
-4 -40 -10 -10 -17 -25 -11 -25 10 0 21 -33 29 -45 10z"/>
<path d="M2414 2279 c-43 -12 -64 -60 -43 -98 33 -59 137 -78 182 -32 17 17
18 23 8 35 -12 14 -17 13 -43 -9 -33 -28 -37 -29 -72 -15 -37 14 -32 27 8 22
71 -8 98 37 51 83 -26 26 -41 29 -91 14z m64 -47 c3 -18 -1 -22 -21 -22 -35 0
-54 25 -30 39 27 16 48 9 51 -17z"/>
<path d="M2596 2281 c-7 -11 12 -108 26 -134 6 -11 18 -17 31 -15 16 2 23 11
25 34 5 46 32 68 66 53 36 -17 47 -2 16 23 -23 19 -48 20 -91 3 -12 -4 -18 1
-23 19 -6 26 -38 36 -50 17z"/>
<path d="M3630 2269 c0 -29 21 -112 33 -126 20 -27 43 -14 55 31 13 49 31 61
67 44 35 -16 45 0 15 24 -23 19 -48 20 -91 3 -10 -4 -19 3 -27 20 -14 31 -52
35 -52 4z"/>
<path d="M3977 2283 c-20 -3 -33 -14 -45 -39 -15 -32 -15 -38 -2 -62 21 -38
82 -66 126 -57 46 8 80 41 64 61 -11 12 -17 10 -43 -12 -22 -19 -37 -24 -56
-19 -44 11 -48 25 -7 25 75 0 98 39 51 85 -24 25 -32 26 -88 18z m58 -48 c0
-23 -31 -31 -55 -15 -13 9 -12 12 5 25 26 20 50 15 50 -10z"/>
<path d="M4154 2228 c12 -101 42 -117 78 -40 13 26 28 46 33 45 6 -1 15 -20
20 -42 13 -52 28 -67 45 -46 11 13 11 24 0 58 -6 23 -17 48 -22 55 -12 14 -74
16 -83 2 -10 -16 -22 -12 -28 10 -3 12 -14 20 -27 20 -22 0 -22 -2 -16 -62z"/>
<path d="M3023 2263 c-3 -9 0 -35 8 -57 18 -53 71 -84 105 -61 18 11 28 12 53
2 38 -14 50 -4 26 23 -10 11 -21 37 -24 58 -5 31 -10 37 -31 37 -21 0 -26 -7
-38 -50 l-14 -49 -19 23 c-11 13 -19 38 -19 57 0 28 -4 34 -20 34 -11 0 -23
-7 -27 -17z"/>
<path d="M3852 2194 c2 -31 9 -51 20 -58 25 -15 31 -3 23 53 -6 42 -11 51 -26
51 -18 0 -20 -6 -17 -46z"/>
<path d="M4570 2155 c0 -18 24 -30 39 -21 16 10 1 36 -20 36 -10 0 -19 -7 -19
-15z"/>
<path d="M2550 1265 c0 -118 1 -125 20 -125 18 0 20 7 20 58 0 60 11 82 42 82
23 0 38 -38 38 -96 0 -32 4 -44 15 -44 12 0 15 15 15 73 0 82 -9 97 -55 97
-17 0 -36 -5 -43 -12 -9 -9 -12 0 -12 40 0 45 -3 52 -20 52 -19 0 -20 -7 -20
-125z"/>
<path d="M2310 1365 c0 -10 11 -15 35 -15 l35 0 0 -105 0 -105 25 0 25 0 0
105 0 105 35 0 c24 0 35 5 35 15 0 12 -17 15 -95 15 -78 0 -95 -3 -95 -15z"/>
<path d="M3320 1260 l0 -120 65 0 c52 0 69 4 85 20 28 28 25 64 -7 90 l-27 21
22 15 c12 8 22 26 22 39 0 36 -36 55 -102 55 l-58 0 0 -120z m104 84 c39 -15
6 -64 -43 -64 -17 0 -21 6 -21 35 0 30 3 35 24 35 13 0 31 -3 40 -6z m7 -104
c41 -23 16 -70 -38 -70 -32 0 -33 1 -33 40 0 36 2 40 26 40 14 0 34 -5 45 -10z"/>
<path d="M2760 1225 c0 -78 2 -85 20 -85 18 0 20 7 20 54 0 45 4 58 22 70 12
9 30 16 40 16 10 0 18 7 18 15 0 19 -30 19 -56 0 -25 -19 -34 -19 -34 0 0 8
-7 15 -15 15 -12 0 -15 -16 -15 -85z"/>
<path d="M2936 1291 c-9 -10 -19 -35 -23 -55 -10 -65 45 -114 114 -101 49 9
44 35 -5 28 -28 -4 -43 0 -55 12 -29 28 -19 35 49 35 l67 0 -7 32 c-10 49 -33
68 -81 68 -28 0 -47 -6 -59 -19z m89 -17 c23 -23 14 -38 -25 -42 -44 -5 -59
12 -35 38 22 24 38 25 60 4z"/>
<path d="M3132 1287 c-24 -25 -30 -84 -12 -116 14 -27 64 -44 105 -37 45 9 42
32 -3 28 -37 -4 -72 13 -72 33 0 12 14 15 60 15 l60 0 0 30 c0 66 -91 97 -138
47z m88 -17 c27 -27 17 -40 -31 -40 -32 0 -39 3 -39 20 0 17 23 39 43 40 4 0
16 -9 27 -20z"/>
</g>
</svg>
