<?xml version="1.0" encoding="UTF-8"?>
<svg id="_レイヤー_1" data-name="レイヤー 1" xmlns="http://www.w3.org/2000/svg" width="204.61mm" height="305.86mm" viewBox="0 0 580 867">
  <path d="M345.04,84.93l16.33,4.87c17.49-13.75,28.6-33.09,51.79-38.15s78.12,7.2,91.04,29.66c12.78,22.21,1,48.58-21.24,58.36,1.53,9.29,1.34,17.98-.6,27.18-.73,3.45-4.97,12.98-4.97,14.65,0,1.48,2.48,4.57,3.1,6.53,2.51,7.99,2.01,15.35-1.48,22.96,18.75,4.35,25.18,24.52,14.42,40.07,4.39,6.66,7.5,14.24,10.33,21.69,1.94,5.1,3.02,12.78,5.04,16.96,1.36,2.83,4.86,4.97,6.61,8.39,7.03,13.67.39,27.83-13.03,33.77-3.64,1.61-7.23,1.57-10.35,3.62,2.78,6.89,8.8,5.51,14.53,7.45,12.77,4.33,19.49,15.94,17.21,29.31-1.33,7.79-14.63,21.85-22.77,23.75,3.15,7.45,4.98,15.48,5.99,23.5.48,3.77-.54,7.97.24,11.76.82,3.99,5.07,10.83,6.49,15.51,5,16.4,6.24,40.08-5.74,53.69-1.92,2.18-6.69,4.7-6.73,6.79.75,4.41,1.09,8.35,2.27,12.73s5.75,17.6,7.72,21.28c2.08,3.88,7.15,6.63,9.59,11.41,3.4,6.67,4.07,13.16,1.65,20.29-1.33,3.92-6.06,8.51-6.45,10.55-1.13,5.94.97,13.06,1.05,18.98.06,4.48-1.5,15.48-.92,18.76.39,2.23,4.42,6.64,5.72,9.36,2.88,6.03,6.75,14.87,8.88,21.12s2.86,15.86,5,21c1.05,2.52,5.39,6.79,7.05,9.95,7.92,15.01,2.08,30.49-14.35,35.27-.1,17.86-5.58,33.19-17.94,46.04,6.4,12.97,10.06,29.36-4.19,38.84-4.4,2.93-11.19,3.15-13.88,5.12-1.53,1.12-2.91,4.79-4.48,6.52-18.57,20.51-42.49,18.74-68.27,19.5-9.04,12.54-26.82,22.58-42.22,24-30.93,2.86-62.94-6.06-75.72-36.76-8.63-1.91-17.93-1.82-26.57-.04-7.01,20.46-30.65,35.02-51.71,36.79-25.27,2.13-50.13-2.91-66.15-23.82-24.15-1.33-50.64.93-67.75-19.25-1.18-1.39-4.38-7.43-4.81-7.69-.9-.54-5.33-.76-7.76-1.75-12.77-5.18-17.43-20.01-13.73-32.7.82-2.81,3.99-6.38,3.32-8.81-11.27-12.86-19.63-29.47-16.62-46.91-13.07-3.52-18.22-15.22-15.54-28.11,1.04-5.02,5.62-10.22,7.07-14.93,2.18-7.04,2.62-15.1,5.21-22.79s13.48-25.78,14.23-29.77c.82-4.42.85-33.57.02-37.93-.46-2.43-5.12-6.9-6.49-11.5-2.46-8.26-.59-15.72,4.29-22.75,3.07-4.42,6.92-6.44,9.42-11.58,2.13-4.39,9.43-29.4,7.6-32.49-.25-.42-4.07-1.99-5.29-3.21-13.75-13.83-12.17-39.3-6.54-56.52,1.29-3.95,5.16-10.02,5.81-13.19,1.1-5.41.5-13.33,1.51-19.49.91-5.57,2.67-10.98,4.7-16.22-17.2-8.76-33.05-30.58-15.52-47.6,8.18-7.94,19.18-4.42,24.54-13.44-3.17-2.04-6.63-2.04-10.31-3.7-14.01-6.32-20.41-21.78-11.88-35.51,1.71-2.76,4.81-4.58,5.93-7.07,2.09-4.61,3.42-12.95,5.51-18.49,1.88-4.99,8.65-16.31,9.29-19.68.3-1.61-4-7.49-4.47-10.64-2.12-14.04,4.81-26.33,18.94-29.45-3.12-8.61-3.7-14.74-1.07-23.55.59-1.97,2.64-4.05,2.82-5.1.19-1.13-5.11-15.07-5.65-18.94-1.1-7.78.16-15.89-.06-23.73-27.95-13.03-36.72-48.57-11.05-69.18,16.35-13.13,59.85-23.18,80.25-19.23,23.47,4.54,34.79,24.83,52.39,38.54l19.36-5.83c-12.52-45.24,29.61-85.58,74.51-69.98,29.17,10.14,43.49,41.59,35.53,70.95ZM477.12,135.11c21.18-5.45,34.55-32.21,21.71-51.44-14.91-22.35-80.54-37.99-102.74-18.08l-31.54,29.47c-1.16,1.16-2.32.96-3.78.77-2.81-.36-22.16-6.67-22.68-8.49,15.9-43.69-27.13-86.26-70.31-66.05-25.13,11.76-34.73,41.1-25.79,66.7l-28.28,7.86c-19.66-15.44-31.58-38.32-59.18-39.89-17.06-.97-53.89,8.02-67.45,18.63-24.05,18.8-13.89,51.91,12.97,61.02-1.18,12.1-1.67,21.5,1.45,33.38.87,3.34,4.32,10.24,4.48,12.58.21,3.04-2.73,5.31-3.73,8.19-2.88,8.29-.68,15.51,3.45,22.75-3.03,4.66-8.91,3.79-13.65,7.05s-8.55,10.73-8.02,16.81c.42,4.89,6.25,11.83,5.79,14.88s-6.63,12.68-8.32,16.75c-2.94,7.11-4.9,18.61-7.74,24.26-2.16,4.3-7.65,6.63-8.71,13.28-2.7,16.98,13.8,23.92,27.93,24.45-3.61,18.19-10.81,13.92-23,19.49-8.36,3.82-12.65,12.7-10.77,21.77.98,4.73,10.92,15.38,15.24,17.76,2.83,1.56,6.32,2.62,9.54,2.98-2.36,6.51-5.43,12.88-6.73,19.76s-.25,15.4-1.5,21.5c-.67,3.29-4.81,9.61-6.23,13.77-4.92,14.39-7.35,40.62,5.43,51.49,1.79,1.52,6.66,3.29,6.87,3.62,2.74,4.39-6.65,32.99-9.35,38.83-3.53,7.63-12.45,12.4-13.42,21.63-1.18,11.16,6.94,14,7.88,19.95,1.58,9.97-.78,21.03-1.03,30.94-.09,3.4,1.66,6.31.91,9.77-.5,2.29-6.04,9.94-7.67,13.37-7.38,15.55-7.58,26.16-12.44,40.56-3.11,9.21-10.84,12.9-6.19,24.79,2.88,7.36,9.18,8.36,15.42,11.63-4.5,19.99,5.89,36.38,17.9,51.06-8.02,10.09-8.72,28.32,4.1,34.88,3.21,1.64,9.92,2.01,10.87,2.63.53.35,4.73,8.67,6.68,10.82,15.37,17.01,44,14.26,64.85,15.15,25.15,37.47,95.81,32.06,110.88-11.96,11.35-2.75,23.2-3.14,34.53.06,15.53,43.87,86.17,49.67,110.96,11.72,25.06-.41,60.32,2.47,71.46-25.82,8.3-.43,17.46-3.27,21.03-11.48,4.59-10.56-1.82-17.44-5.75-26.78,13.41-14.91,20.95-30.01,18.7-50.78,14.09-1.63,23.03-12.28,16.41-26.17-1.88-3.95-6.17-7.86-7.75-11.25-2.4-5.15-3.13-15.19-5.33-21.67-2.08-6.12-5.8-14.47-8.58-20.42-1.38-2.96-5.07-6.67-5.67-9.33-1.63-7.27.03-22.43-.17-30.83-.09-3.88-1.85-7.67-1.01-11.94.53-2.7,6.29-6.78,7.5-11.49,4.07-15.85-7.9-17.69-12.03-27.02-2.32-5.24-6.7-17.46-8.02-22.98-.58-2.41-2.92-16.96-2.33-17.89,18.66-7.46,18.55-32.47,14.36-49.15-1.7-6.76-7.21-15.47-8.28-20.72-.96-4.68.15-10.64-.35-15.65-.85-8.54-4.93-16.37-6.86-24.6,14.48-2.9,30.74-20.14,21.84-35.37-5.75-9.84-16.98-7.21-23.89-12.11-3.27-2.32-7.45-10.12-7.94-14.08-.25-2.01.03-1.29,1.45-1.47,4.22-.54,7.05.15,11.75-1.27,11.9-3.59,19.43-16.48,12.63-28.07-1.63-2.77-5.28-4.53-6.59-7.41-1.85-4.06-2.7-11.46-4.51-16.49-3.18-8.81-7.37-17.17-11.61-25.5-.28-2.04,4.92-7.64,5.62-11.99,1.1-6.78-1.74-14.14-7.27-18.26-4.55-3.39-10.35-2.88-13.33-7.65,3.35-6.83,4.98-12.67,3.39-20.41-.66-3.22-4.4-7.72-4.49-9.41-.12-2.44,4.61-11.74,5.46-15.5,2.45-10.79,1.29-21.04.59-31.92ZM313.24,64c0,12.84-10.41,23.24-23.24,23.24s-23.24-10.41-23.24-23.24,10.41-23.24,23.24-23.24,23.24,10.41,23.24,23.24ZM307.45,63.97c0-9.64-7.81-17.45-17.45-17.45s-17.45,7.81-17.45,17.45,7.81,17.45,17.45,17.45,17.45-7.81,17.45-17.45ZM214,248.99c.3,3.36-1.16,12.64,1.97,14.53,5.99,2.4,5.02-3.81,6.53-7.52.48-1.17.95-2.22,2-3,1.94,3.73.33,10.67,6.49,10,.02-3.3.63-7.46,3.99-9,1.21.91.17,11.9,5.54,9.03,1.79-4.68-.78-14.1-6.95-13.06-1.51.25-2.85,2.12-3.94,1.93-2.03-.36-5.36-6.88-10.13.07-.74-.04-1.15-2.44-1.7-2.75-1.08-.61-2.58-.12-3.79-.23ZM292,266c-6.49-1.34-18.04,2.72-18.1-7.49-.05-7.7,5.84-7.72,12.11-7.51v-7.01s3.86.14,3.86.14c.1,1.66,2.14,5.37,2.14,6.36v15.5ZM280.63,254.06c-4.89,1.43-1.67,13.52,3.93,7,3.19-3.71-1.34-7.76-3.93-7ZM316.75,511.26c1.25,1.18,2.95,6.12,1.82,7.78-1.57,2.29-8.18,1.51-10.56,2.45,1.46,1.62,3.96,2.41,6.04,2.08,4.38-.69,4.59-5.66,7.44-4.57,4.99,1.9-2.57,7.25-6.25,7.77-13.92,1.99-19.88-16.72-4.74-16.87,1.79-.02,4.94.11,6.25,1.34ZM312.89,513.1l-5.85.96c-1.26,4.25,3.75,3.82,6.96,2.93l-1.11-3.89ZM251.53,259c-3.64-2.23-1.63-7.52-3.01-10.03-.92-1.69-3.72-1.38-4.36.69-2.17,6.93,4.93,13.79,11.83,12.35.01,4.26-5.21,3.41-7.99,2-.39,1.96,1.39,3.04,2.94,3.54,10.96,3.53,13.09-8.7,11.91-16.9l-1.48-1.52-3.29-.02c-1.08,3.77-2.22,8.57-6.56,9.9ZM300,259.01c3.32,4.98,10.65,3.71,13.51-1.01,3.73.79,2.98,3.54.46,5.47-6.2,4.75-19.62,1.01-19.06-7.97s14.63-8.94,16.64-2.55c2.5,7.92-6.09,7.7-11.55,6.06ZM306.97,255.97l-1.49-4.98-5.47,2.02c-.09,3.55,4.4,3.97,6.97,2.96ZM371.79,526.8c-5.07,3.74-10.49,2.42-15.79.19,2.4-4.04,8.08,1.91,10.99-3.49-13.33,2.33-16.41-15.16-2.51-14.55,8.85.38,6.28,11.54,7.31,17.86ZM362.69,512.11c-2.91.72-3.98,6.1-1.16,7.89,2.55.76,4.64-2.64,5.32-4.66l-1.28-2.39c-.83-.82-1.72-1.11-2.88-.83ZM288.86,506.15l.18,5.81c6.17-.36,13.88,4.8,10.01,11.33-1.69,2.86-13.53,5.07-14.89,1.04-.22-.66-1.3-12.59-1.22-13.81.25-3.96,1.99-6.83,5.92-4.37ZM289,515c.29,2.96-1.15,6.82,1.49,8.97,6.25-2.86,5.27-8.48-1.49-8.97ZM320.24,262.76c-5.59-5.59,4.65-10.14,9.75-9.26-2.15-3.38-14.17.84-10.93-4.42,1.27-2.06,9.44-.85,11.85.5,3.72,2.09,7.8,13.18,5.11,14.97-1.55,1.03-13.9.09-15.78-1.79ZM330.92,258.09c-3.25-1.39-5.68-1.82-7.9,1.41l7.99,1.5-.08-2.9ZM350.5,525.98c6.03-.03-.74-23.82-11-12-8.19-15.55-6.82,8.41-3.54,10.56,6.22,4.07,4.27-9.36,10.03-9.53,1.13,3.77,1.16,8.37,4.51,10.98ZM215.99,505.49c-2.8,2.82-1.84,6.91-2.03,10.47l-5.95,1.06c.48,3.72,6.47,2.61,6.94,3.05.28.26.12,6.08,2.57,6.94,3.72.86,2.11-7.63,2.48-8,2.69-.21,6.02,1.02,7.98-1.5l-8.93-2.55-.04-6.95c4.31-.06,2.88,7.16,7.99,5.99.9-.88-2.32-6.92-3.28-7.7-1.72-1.4-5.85-1.93-7.73-.8ZM236.71,510.21c3.6-.82,7.71-.62,10.15,2.42,6.85,8.51.98,15.23-9.14,13.13-9.6-2-9.71-13.57-1.02-15.55ZM238.71,513.16c-7.87,2.19-1.7,15.54,5.84,7.83l-2.53-7.53c-1.06-.7-2.15-.63-3.31-.3ZM252.98,511.52c-.74,4.12,1.68,16.5,8.01,14.48l2.98-9.55,8.02,1.54c.3-6.59-8.98-5.92-12.98-3,.39-4.46-4.99-9.26-6.03-3.47ZM339.99,248.49l-.94,1.91c2.28,5.8.16,15.91,8.94,14.6-.32-2.87.13-8.1,3-9.53,4-1.99,5.16,3.55,7.98.03-3.38-5.02-9.35-4.38-13.97-1.5.78-2.68-1.81-7.69-5.02-5.51ZM364.49,244.01c-5.95-1.89-2.66,11.5-2.48,14,6.01,2.19,4.64-13.31,2.48-14ZM327.51,514.01c-2.85.63-2.38,13.82,3.48,11.99.4-1.99.05-12.77-3.48-11.99ZM329.49,512.99c2.02-.34,1.16-9.1-2.97-7.98-3.17.86.79,8.35,2.97,7.98ZM201.14,254.44l9.98,20,1.46-.73-9.98-20-1.46.73ZM327,299v32h20v-6.01s-13.01.01-13.01.01v-7.43s12.01-.57,12.01-.57v-6.01s-12.01.01-12.01.01v-7.01s13.01.01,13.01.01v-5.01h-20.01ZM348,340v32h20v-6.01s-13.01.01-13.01.01v-7.43s12.01-.57,12.01-.57v-6.01s-12.01.01-12.01.01v-7.01s13.01.01,13.01.01v-5.01h-20.01ZM234.91,369.91l-.92-5.91c-23.93,11.3-24.29-27.81,0-17l2.01-4.98c-35.3-15.41-36.98,41-1.09,27.89ZM278,340v32h20v-6.01s-13,0-13,0v-26h-7ZM305,340v32h20v-6.01s-13,0-13,0v-26h-7ZM332,372h8v-32h-8v32ZM369.5,299c2.78.56,6.54,3.97,7.11,6.97,1.34,6.96-5.53,9.88-5.58,10.52-.07.79,6.99,11.44,5.97,14.51l-6.86-.13-4.81-11.9-5.33.03v12.01s-7-1.5-7-1.5v-30.5c4.89.67,11.95-.91,16.5,0ZM368.74,311.73c3.85-4.66-3.71-9.72-8.74-7.74l.94,9.58c1.63,1.16,6.85-.69,7.81-1.84ZM360,304l.94,9.58c1.63,1.16,6.85-.69,7.81-1.84,3.85-4.66-3.71-9.72-8.74-7.74ZM295,299h14.5c.56,0,6.63,2.89,7.43,3.57,5.95,5.12,5.56,19.4-.42,24.43-4.33,3.65-16.63,5.82-21.51,2.49v-30.5ZM302,325c15.47,3.97,17.26-21.13,3.46-21.06-1.11,0-3.46.53-3.46,1.56v19.5ZM305.46,303.94c-1.11,0-3.46.53-3.46,1.56v19.5c15.47,3.97,17.26-21.13,3.46-21.06ZM281.5,299c9.24,1.65,10.38,13.86,1.5,17.49l6.99,14.5-7.04-.45c-3.18-4.81-2.13-13.2-9.96-11.54v12.01s-7,0-7,0v-32c4.71.58,11.04-.79,15.5,0ZM273,314c11.89.4,12.71-11.44,0-10.01v10.01ZM273,304v10.01c11.89.4,12.72-11.44,0-10.01ZM217.5,299c8.07,1.42,9.31,13.1.49,14.5,18.85,11.07-1.7,20.13-14.99,17.5v-32c4.43.53,10.31-.74,14.5,0ZM210.64,304.11c-2.32.77-2.3,6.28-.69,7.47,10.91,1.66,9.3-10.33.69-7.47ZM209,325c13.17,2.26,13.18-10.27,0-8.01v8.01ZM209,317v8.01c13.17,2.26,13.18-10.27,0-8.01ZM209.95,311.58c10.91,1.66,9.3-10.33.69-7.47-2.32.77-2.3,6.28-.69,7.47ZM254.81,339.23c22.41-1.21,22.86,30.28,4.61,32.68-24.95,3.29-25.48-31.55-4.61-32.68ZM253.73,345.2c-10.21,2.22-8.92,25.42,6.34,20.36,8.08-2.68,6.95-23.25-6.34-20.36ZM260.06,365.56c8.08-2.68,6.95-23.25-6.34-20.36-10.21,2.22-8.92,25.42,6.34,20.36ZM242.79,298.21c21.71-2.18,24.2,30.24,4.62,32.7-23.79,2.98-25.6-30.59-4.62-32.7ZM238.32,306.32c-3.97,3.62-3.41,16.75,2.39,18.47,10.54,3.12,13.63-5.53,12.23-14.23-1.04-6.43-9.98-8.48-14.62-4.24ZM240.7,324.79c10.54,3.12,13.63-5.53,12.23-14.23-1.04-6.43-9.98-8.48-14.62-4.24-3.97,3.62-3.41,16.75,2.39,18.47ZM284.56,261.06c3.19-3.71-1.34-7.76-3.93-7-4.89,1.43-1.67,13.52,3.93,7ZM307.04,514.06c-1.26,4.25,3.75,3.82,6.96,2.93l-1.11-3.89-5.85.96ZM305.48,251l-5.47,2.02c-.09,3.55,4.4,3.97,6.97,2.96l-1.49-4.98ZM361.53,519.99c2.55.76,4.64-2.64,5.32-4.66l-1.28-2.39c-.83-.82-1.72-1.11-2.88-.83-2.91.72-3.98,6.1-1.16,7.89ZM290.49,523.98c6.25-2.86,5.27-8.48-1.49-8.97.29,2.96-1.15,6.82,1.49,8.97ZM323.02,259.5l7.99,1.5-.08-2.9c-3.25-1.39-5.68-1.82-7.9,1.41ZM322.09,472.41l6.9,2.07c-2.19,3.95-4.74,1.29-7.99,2.01,12.04,9.41,16.96-4.6,14.85-15.34l-3.86-.73c-4.38,10.02-10.33,14.63-10-.43-8.77-.93-4.96,9.48.09,12.42ZM289.01,455c-1.12.81-.07,18.13,2,20.49.58.66,2.73,1.97,3.52.54l.43-6.36,2.55-1.68c2.51,3.46,2.72,9.15,8.48,7.99.76-3.97-6.19-8.92-.96-10.49l-1.02-3.04-10.01,2.54c1.3-2.64-1-12.89-5-9.99ZM256.99,466c.53-4.84-10.31-2.28-11-3v-2.99c10.34-2.24,17.28,1.59,17.93,12.64.42,7.05-2.8,2.91-4.4,2.83-1.77-.1-3.75.77-6,.56-13.3-1.25-6.3-13.78,3.46-10.03ZM257.99,471.99c-.55-5.04-5.25-4.74-7.97-1.49,2.19,2.37,5.13,2.53,7.97,1.49ZM361.1,460.1c-2.27,5.56,1.78,15.85,8.41,15.83,2.4,0,3.74-2.48,5.17-2.73,1.87-.33,6.7,4.53,7.32,1.28.26-1.34-2.38-3.03-3.08-4.9-.93-2.47-.55-7.82-3.56-8.4-5.09-.98-3.32,8.58-6.85,10.8l-3.64-11.84-3.76-.04ZM284.49,475.99c4.98-1.02-2.58-22.74-11.99-12.01l-3.01-4.98c-5.82-1.44-2.42,18.89,2.53,16.56,3.2-2.74,1.89-10,6.97-10.56.59,2.26,2.06,11.69,5.5,10.99ZM226.02,466.49c.2,2.85.64,8.79,3.3,9.71l2.22-.17c1.44-2.72-.87-10.6,4.45-11.03,2.4,3.9.87,12.55,7.01,11.99.97-8.41-2.23-16.21-11.89-15.1l-1.11-5.89c-5.42-1.05-4.25,6.55-3.97,10.49ZM345.74,460.23c13.99-2.44,16.97,18.26,2.03,16.58-10.89-1.22-13.56-14.57-2.03-16.58ZM347.73,463.13c-6.57.99-6.82,11.32,1.72,9.87,6.09-1.03,2.19-10.46-1.72-9.87ZM213.42,460.97c2.06-2.83,10.73,1.44,10.56-1.47-.13-2.19-8.48-3.42-10.51-3.5-2.24-.09-17.89.53-15.47,3.98,3.6,1.38,6.38,1.17,9.99.01-.65,2.51,1.98,19.88,6,16l-.57-15.04ZM250.02,470.5c2.19,2.37,5.13,2.53,7.97,1.49-.55-5.04-5.25-4.74-7.97-1.49ZM349.44,473c6.09-1.03,2.19-10.46-1.72-9.87-6.57.99-6.82,11.32,1.72,9.87ZM333,667c6.27-.33,20.82-1.44,16.33,8.78-1.09,2.47-3.99,1.1-4.33,3.21,5.39.09,7.53,5.17,5.26,9.79s-12.71,2.84-17.27,3.22v-25ZM338,677c10.69,1.38,10.66-8.4,0-7.01v7.01ZM345.75,687.76c4.58-4.52-3.56-8.63-7.74-7.76v9.01c2.12-.02,6.17.31,7.74-1.25ZM254,692h4c.4-3.26-1.17-12.17,1.68-14.06,9.41-4.9,5.21,13.01,6.33,14.07h3.99c.34-9.31,1.39-23.47-11.99-16v-10s-4.01,0-4.01,0v26ZM329,685h-13c-.99.89,2.5,4.54,3.72,4.86,3.34.88,8.35-3.82,7.28,2.13-4.49,1.15-12.84,1.36-14.56-3.94-5.51-16.93,17.22-20.13,16.56-3.06ZM325,681.99c-.06-7.18-10.18-6.54-8.49.01h8.49ZM308,685h-13c.66,1.66,1.57,3.45,3.25,4.28,2.29,1.13,8.9-1.12,8.73,1.22-.21,2.91-14.88,5.13-15.93-6.12-1.36-14.54,19.74-14.05,16.95.63ZM304,682c1.29-6.71-6.97-6.93-8.99-1.47-.78,2.94,7.62.91,8.99,1.47ZM229,667v3s7,0,7,0v22h5v-22h7.01s0-3,0-3h-19ZM275,692h4c.08-3.63-.62-9.65,1.95-12.55,1.88-2.12,6.69-2.06,7.06-2.95,2.56-6.19-7.97.56-8.5.51l-.6-2.88-3.91-.13v18ZM338,680v9.01c2.12-.02,6.17.31,7.74-1.25,4.58-4.52-3.56-8.63-7.74-7.76ZM338,670v7.01c10.69,1.38,10.66-8.4,0-7.01ZM316.51,682.01h8.49c-.06-7.19-10.18-6.55-8.49,0ZM295.02,680.52c-.78,2.94,7.62.91,8.99,1.47,1.29-6.71-6.97-6.93-8.99-1.47ZM142.05,560.06c-1.63,5.79-1.12,14.69,6.46,15.01,1.62.07,8.57.06,9.92-.07,1.9-.19,4.21-2.61,7.55-1l-1.09-11.89-4.89.37-4,8.52-1.48-9.04c-.82-1.4-3.1-.71-3.94-.04s-.82,11.95-3.58,9.08v-11s-4.96.05-4.96.05ZM231.99,576.99c-5.54-1.66-16.12,2.29-18.55-4.93-2.74-8.15,5.84-11.62,12.55-10.07l-.99-6.99c9.79-.65,4.34,15.38,6.99,21.99ZM220.62,565.05c-4.84.78-3.47,16.2,5.36,4.45l-5.36-4.45ZM460,577c-5.36-1.75-13.65,2.34-17.07-3.43-4.77-8.08,3.48-13.96,11.06-11.57v-6.99c3.86-1.21,6.01,4.85,6.01,7.5v14.5ZM448.63,565.06c-4.94,1.43-2.17,13.31,3.9,6.97,3.39-3.54-1.37-7.71-3.9-6.97ZM249.75,561.26c.44.42,2.01,3.84,2.1,4.49.78,5.46-8.26,5.39-11.84,4.75,2.13,3.19,6.59,3.24,9.79,1.78,2.26-1.03,1.69-4.31,5.2-3.27,1.48,11.2-16.84,8.82-20.26.71-3.74-8.87,10.63-12.61,15.02-8.45ZM247,566.99c-.9-9.88-11.2-1.25-4.49,0,1.41.26,3.04-.08,4.49,0ZM401,570.01c2.99,5.33,10.48,3.66,13.51-1.01,4.06-.9,3.57,7.11-5.99,7.46-13.49.5-16.53-14.23-7.81-16.25,16.37-3.79,16.78,15.33.29,9.79ZM406.98,562c-9.11,1.11-6.62,6.75,1.02,5l-1.02-5ZM129.99,576c-4.59-1.58-11.57,1.38-15.57-1.92-3.22-2.65-1.27-7.47,2.52-8.63,2.31-.7,6.11.44,7.04-1.44l-10.32-1.18-1.66-2.82c12.54-4.24,19.4,3.77,17.99,15.98ZM118.64,568.12c-5.43,1.65,3.7,6.86,6.34,2.38-1.57-2.14-3.68-3.19-6.34-2.38ZM349.01,566l-5.99,1.5c.95,2.49,6.39,2.15,6.86,2.62.59.59,3.85,17.48,5.11-1.12,12.62.56,8.97-4.83-1-3.99v-7c4.33-.06,2.9,7.16,8,5.99-1.43-13.3-15.71-12.39-12.99,2.01ZM286.01,566l-5.99,1.5c.95,2.49,6.39,2.15,6.86,2.62.59.59,3.85,17.48,5.11-1.12,12.62.56,8.97-4.83-1-3.99v-7c4.33-.06,2.9,7.16,8,5.99-1.43-13.3-15.71-12.39-12.99,2.01ZM190.98,561.52c-.61,3.42,2.06,17.53,6.97,13.44.46-.38,1.74-9.81,4.55-10.94,1.97-.05,2.75,14.12,7.49,10.98,3.24-2.15-3.88-22.62-13.98-11,1.34-4.6-4.13-7.53-5.03-2.48ZM307.57,560.99c-2.15-2.58-5.27-1.39-5.22,2.31.07,4.92,2.8,10.92,8.22,11.66,5.92.81,5.09-2.97,5.94-2.98,2.01-.03,4.06,4.45,7.49,3.01-.29-2.67-2.6-4.34-3.53-6.96-1.27-3.59.99-8.77-5.52-6.58l-2.96,9.55c-5.15.46-3.77-9.22-4.42-10ZM420.13,559.13c-1.83,1.08.65,12.16,1.08,14.64l4.74,1.2c1.12-3.88,2.25-8.84,6.04-10.97l3.03,10.99,3.02-.45c2.31-8.93-3.76-18.68-13.03-10.55l-1.13-4.87h-3.75ZM184.72,561.29c1.15.94,3.94,7.76,3.89,9.22-.32,8.43-20.72,7.24-19.6-3.92.68-6.8,11.51-8.75,15.71-5.3ZM180.85,563.17c-6.52-1.82-9.42,5.05-4.85,9.34,7.77,2.13,8.26-3.86,4.85-9.34ZM370.05,559.45c-7.24-4.89-3.84,10.1-2.26,13.26,1.41,2.83,2.98,3.69,6.2,3.3-.2-2.59.52-8.26,2.99-9.54,2.99-1.55,7.47,3.44,8.01.02.66-4.17-10.65-5.36-12.98-1.49l-1.96-5.55ZM258.97,559.47c-1.78,1.27.31,17.41,5.58,16.52,3.35-.11,2.44-7.41,4.6-9.82,3.37-2.06,6.5,3.84,8.83.33-3.84-5.32-8.76-4.6-13.97-1.5.8-2.91-2-7.69-5.04-5.53ZM327,572.5c0,.33,2.06,3.38,2.51,3.5,4.92,1.25.25-17.23,1.33-19.34l-1.36-1.65-2.48,1.49v16ZM389.51,564.01c-2.98.94-1.9,13.72,3.49,11.99-.35-2.57,1.79-13.66-3.49-11.99ZM391.5,562.98c2.85.16,1.32-9.86-3.49-7.97-.88,1.94,1.95,7.89,3.49,7.97ZM225.98,569.5l-5.36-4.45c-4.84.78-3.47,16.2,5.36,4.45ZM452.53,572.03c3.39-3.54-1.37-7.71-3.9-6.97-4.94,1.43-2.17,13.31,3.9,6.97ZM242.51,566.99c1.41.26,3.04-.08,4.49,0-.9-9.88-11.2-1.25-4.49,0ZM408,567l-1.02-5c-9.11,1.11-6.62,6.75,1.02,5ZM124.98,570.5c-1.57-2.14-3.68-3.19-6.34-2.38-5.43,1.65,3.7,6.86,6.34,2.38ZM175.99,572.51c7.77,2.13,8.26-3.86,4.85-9.34-6.52-1.82-9.42,5.05-4.85,9.34ZM244.55,520.99l-2.53-7.53c-1.06-.7-2.15-.63-3.31-.3-7.87,2.19-1.7,15.54,5.84,7.83Z"/>
</svg>