<?xml version="1.0" encoding="UTF-8"?>
<svg id="_レイヤー_1" data-name="レイヤー 1" xmlns="http://www.w3.org/2000/svg" width="180.82mm" height="299.13mm" viewBox="0 0 512.55 847.92">
  <path d="M311.28,74.36l16.33,4.87c17.49-13.75,28.6-33.09,51.79-38.15s78.12,7.2,91.04,29.66c12.78,22.21,1,48.58-21.24,58.36,1.53,9.29,1.34,17.98-.6,27.18-.73,3.45-4.97,12.98-4.97,14.65,0,1.48,2.48,4.57,3.1,6.53,2.51,7.99,2.01,15.35-1.48,22.96,18.75,4.35,25.18,24.52,14.42,40.07,4.39,6.66,7.5,14.24,10.33,21.69,1.94,5.1,3.02,12.78,5.04,16.96,1.36,2.83,4.86,4.97,6.61,8.39,7.03,13.67.39,27.83-13.03,33.77-3.64,1.61-7.23,1.57-10.35,3.62,2.78,6.89,8.8,5.51,14.53,7.45,12.77,4.33,19.49,15.94,17.21,29.31-1.33,7.79-14.63,21.85-22.77,23.75,3.15,7.45,4.98,15.48,5.99,23.5.48,3.77-.54,7.97.24,11.76.82,3.99,5.07,10.83,6.49,15.51,5,16.4,6.24,40.08-5.74,53.69-1.92,2.18-6.69,4.7-6.73,6.79.75,4.41,1.09,8.35,2.27,12.73s5.75,17.6,7.72,21.28c2.08,3.88,7.15,6.63,9.59,11.41,3.4,6.67,4.07,13.16,1.65,20.29-1.33,3.92-6.06,8.51-6.45,10.55-1.13,5.94.97,13.06,1.05,18.98.06,4.48-1.5,15.48-.92,18.76.39,2.23,4.42,6.64,5.72,9.36,2.88,6.03,6.75,14.87,8.88,21.12s2.86,15.86,5,21c1.05,2.52,5.39,6.79,7.05,9.95,7.92,15.01,2.08,30.49-14.35,35.27-.1,17.86-5.58,33.19-17.94,46.04,6.4,12.97,10.06,29.36-4.19,38.84-4.4,2.93-11.19,3.15-13.88,5.12-1.53,1.12-2.91,4.79-4.48,6.52-18.57,20.51-42.49,18.74-68.27,19.5-9.04,12.54-26.82,22.58-42.22,24-30.93,2.86-62.94-6.06-75.72-36.76-8.63-1.91-17.93-1.82-26.57-.04-7.01,20.46-30.65,35.02-51.71,36.79-25.27,2.13-50.13-2.91-66.15-23.82-24.15-1.33-50.64.93-67.75-19.25-1.18-1.39-4.38-7.43-4.81-7.69-.9-.54-5.33-.76-7.76-1.75-12.77-5.18-17.43-20.01-13.73-32.7.82-2.81,3.99-6.38,3.32-8.81-11.27-12.86-19.63-29.47-16.62-46.91-13.07-3.52-18.22-15.22-15.54-28.11,1.04-5.02,5.62-10.22,7.07-14.93,2.18-7.04,2.62-15.1,5.21-22.79s13.48-25.78,14.23-29.77c.82-4.42.85-33.57.02-37.93-.46-2.43-5.12-6.9-6.49-11.5-2.46-8.26-.59-15.72,4.29-22.75,3.07-4.42,6.92-6.44,9.42-11.58,2.13-4.39,9.43-29.4,7.6-32.49-.25-.42-4.07-1.99-5.29-3.21-13.75-13.83-12.17-39.3-6.54-56.52,1.29-3.95,5.16-10.02,5.81-13.19,1.1-5.41.5-13.33,1.51-19.49.91-5.57,2.67-10.98,4.7-16.22-17.2-8.76-33.05-30.58-15.52-47.6,8.18-7.94,19.18-4.42,24.54-13.44-3.17-2.04-6.63-2.04-10.31-3.7-14.01-6.32-20.41-21.78-11.88-35.51,1.71-2.76,4.81-4.58,5.93-7.07,2.09-4.61,3.42-12.95,5.51-18.49,1.88-4.99,8.65-16.31,9.29-19.68.3-1.61-4-7.49-4.47-10.64-2.12-14.04,4.81-26.33,18.94-29.45-3.12-8.61-3.7-14.74-1.07-23.55.59-1.97,2.64-4.05,2.82-5.1.19-1.13-5.11-15.07-5.65-18.94-1.1-7.78.16-15.89-.06-23.73-27.95-13.03-36.72-48.57-11.05-69.18,16.35-13.13,59.85-23.18,80.25-19.23,23.47,4.54,34.79,24.83,52.39,38.54l19.36-5.83c-12.52-45.24,29.61-85.58,74.51-69.98,29.17,10.14,43.49,41.59,35.53,70.95ZM443.37,124.54c21.18-5.45,34.55-32.21,21.71-51.44-14.91-22.35-80.54-37.99-102.74-18.08l-31.54,29.47c-1.16,1.16-2.32.96-3.78.77-2.81-.36-22.16-6.67-22.68-8.49,15.9-43.69-27.13-86.26-70.31-66.05-25.13,11.76-34.73,41.1-25.79,66.7l-28.28,7.86c-19.66-15.44-31.58-38.32-59.18-39.89-17.06-.97-53.89,8.02-67.45,18.63-24.05,18.8-13.89,51.91,12.97,61.02-1.18,12.1-1.67,21.5,1.45,33.38.87,3.34,4.32,10.24,4.48,12.58.21,3.04-2.73,5.31-3.73,8.19-2.88,8.29-.68,15.51,3.45,22.75-3.03,4.66-8.91,3.79-13.65,7.05s-8.55,10.73-8.02,16.81c.42,4.89,6.25,11.83,5.79,14.88s-6.63,12.68-8.32,16.75c-2.94,7.11-4.9,18.61-7.74,24.26-2.16,4.3-7.65,6.63-8.71,13.28-2.7,16.98,13.8,23.92,27.93,24.45-3.61,18.19-10.81,13.92-23,19.49-8.36,3.82-12.65,12.7-10.77,21.77.98,4.73,10.92,15.38,15.24,17.76,2.83,1.56,6.32,2.62,9.54,2.98-2.36,6.51-5.43,12.88-6.73,19.76s-.25,15.4-1.5,21.5c-.67,3.29-4.81,9.61-6.23,13.77-4.92,14.39-7.35,40.62,5.43,51.49,1.79,1.52,6.66,3.29,6.87,3.62,2.74,4.39-6.65,32.99-9.35,38.83-3.53,7.63-12.45,12.4-13.42,21.63-1.18,11.16,6.94,14,7.88,19.95,1.58,9.97-.78,21.03-1.03,30.94-.09,3.4,1.66,6.31.91,9.77-.5,2.29-6.04,9.94-7.67,13.37-7.38,15.55-7.58,26.16-12.44,40.56-3.11,9.21-10.84,12.9-6.19,24.79,2.88,7.36,9.18,8.36,15.42,11.63-4.5,19.99,5.89,36.38,17.9,51.06-8.02,10.09-8.72,28.32,4.1,34.88,3.21,1.64,9.92,2.01,10.87,2.63.53.35,4.73,8.67,6.68,10.82,15.37,17.01,44,14.26,64.85,15.15,25.15,37.47,95.81,32.06,110.88-11.96,11.35-2.75,23.2-3.14,34.53.06,15.53,43.87,86.17,49.67,110.96,11.72,25.06-.41,60.32,2.47,71.46-25.82,8.3-.43,17.46-3.27,21.03-11.48,4.59-10.56-1.82-17.44-5.75-26.78,13.41-14.91,20.95-30.01,18.7-50.78,14.09-1.63,23.03-12.28,16.41-26.17-1.88-3.95-6.17-7.86-7.75-11.25-2.4-5.15-3.13-15.19-5.33-21.67-2.08-6.12-5.8-14.47-8.58-20.42-1.38-2.96-5.07-6.67-5.67-9.33-1.63-7.27.03-22.43-.17-30.83-.09-3.88-1.85-7.67-1.01-11.94.53-2.7,6.29-6.78,7.5-11.49,4.07-15.85-7.9-17.69-12.03-27.02-2.32-5.24-6.7-17.46-8.02-22.98-.58-2.41-2.92-16.96-2.33-17.89,18.66-7.46,18.55-32.47,14.36-49.15-1.7-6.76-7.21-15.47-8.28-20.72-.96-4.68.15-10.64-.35-15.65-.85-8.54-4.93-16.37-6.86-24.6,14.48-2.9,30.74-20.14,21.84-35.37-5.75-9.84-16.98-7.21-23.89-12.11-3.27-2.32-7.45-10.12-7.94-14.08-.25-2.01.03-1.29,1.45-1.47,4.22-.54,7.05.15,11.75-1.27,11.9-3.59,19.43-16.48,12.63-28.07-1.63-2.77-5.28-4.53-6.59-7.41-1.85-4.06-2.7-11.46-4.51-16.49-3.18-8.81-7.37-17.17-11.61-25.5-.28-2.04,4.92-7.64,5.62-11.99,1.1-6.78-1.74-14.14-7.27-18.26-4.55-3.39-10.35-2.88-13.33-7.65,3.35-6.83,4.98-12.67,3.39-20.41-.66-3.22-4.4-7.72-4.49-9.41-.12-2.44,4.61-11.74,5.46-15.5,2.45-10.79,1.29-21.04.59-31.92ZM279.49,53.43c0,12.84-10.41,23.24-23.24,23.24s-23.24-10.41-23.24-23.24,10.41-23.24,23.24-23.24,23.24,10.41,23.24,23.24ZM273.69,53.39c0-9.64-7.81-17.45-17.45-17.45s-17.45,7.81-17.45,17.45,7.81,17.45,17.45,17.45,17.45-7.81,17.45-17.45Z"/>
</svg>