<?xml version="1.0" encoding="UTF-8"?>
<svg id="_レイヤー_1" data-name="レイヤー 1" xmlns="http://www.w3.org/2000/svg" width="147.9mm" height="297.42mm" viewBox="0 0 419.26 843.07">
  <path d="M262.69,72.41c7.55,2.57,17.24,12.35,24.67,13.87,4.47.92,9.91-.18,14.65.35,20.61,2.33,46.64,11.93,53.67,33.33,2.63,8.01.16,11.5,1.14,16.78.5,2.7,5.4,10.39,6.85,14.23,4.05,10.79,3.58,20.03,6.21,29.79.65,2.4,4.01,5.64,5.26,9.74,2.24,7.3,1.71,11.98-1.03,19.02,4.14,2.31,12.31,11.87,15.58,13.44,3.02,1.44,8.24,1.34,11.97,3.03,10.62,4.84,14.65,16.73,11.48,27.52-.63,2.16-2.99,5.76-3.07,6.49-.2,1.79,1.66,5.15,1.6,7.97-.18,8.81-7.75,18.35-16.01,21.06-2.43.8-8.04.41-9.51,2.49-2.81,11.92-8.99,22.9-16.5,32.5l7.9,6.13c-2.96,4.39,1.9,9.26,1.89,14.86,0,7.33-4.48,13.99-9.42,18.97,3.84,9.75,2.55,20.23,3.71,29.95.4,3.34,2.31,7.38,2.8,11.2.94,7.39,0,17.6,1.17,23.83.15.79,6.04,13.85,6.49,14.51.73,1.1,6.05,3.49,7.94,5.06,18.15,15.08,11.12,48.91-14.46,49.99,1.77,13.3.14,30.28-6.19,42.31-2,3.81-8.58,10.13-9.38,12.62-2.4,7.46-1.69,17.93-6.49,25.49,7.83,3.52,15.7,8.63,19.23,16.89,1.52,3.56,1.24,6.87,2.36,9.64,1.79,4.4,8.43,9.7,11.21,16.79,4.05,10.3,2.15,19.52,4.45,27.55.73,2.54,8.22,11.65,10.27,16.73,3.13,7.76,2.89,14.18,4.76,21.24.57,2.16,4.09,6.77,5.24,9.76,8.81,22.87,11.57,59.35-15.53,70.65,1.5,4.51-1.46,9.56-1.64,12.96-.77,14.52,2.52,24.39-9.77,36.42-22.91,22.43-60.29,9.58-86.9,2.88-16.97,26.06-59.66,29.37-83.13,11.05-2.01-1.57-8.39-9.37-9.99-8.98-21.01,27.76-70.76,27.42-91.12-1.04-24.85,7.54-61.63,16.82-82.46-4.42-13.23-13.48-7.94-27.33-10.85-43.15-.35-1.88.03-3.84-.05-5.73-27.12-11.31-24.32-47.82-15.53-70.65,1.15-2.99,4.67-7.6,5.24-9.76,1.87-7.06,1.63-13.48,4.76-21.24,2.05-5.08,9.54-14.19,10.27-16.73,2.3-8.03.4-17.25,4.45-27.55,2.79-7.08,9.43-12.39,11.21-16.79,1.12-2.77.84-6.08,2.36-9.64,3.53-8.25,11.4-13.37,19.23-16.89-4.79-7.56-4.09-18.03-6.49-25.49-.8-2.48-7.38-8.81-9.38-12.62-6.32-12.03-7.96-29.01-6.19-42.31-19.26-2.15-25.82-15.29-23.97-33.51.72-7.15,3.65-11.48,8.98-16.02,1.64-1.4,8.51-5.26,8.78-5.71.63-1.07.21-3.81.9-5.6,4.4-11.36,2.77-16.95,4.46-28.54.8-5.5,2.93-10.92,3.76-16.24,1.3-8.32.71-17.59,3.78-25.96-18.63-10.36-17.47-33.56,1.32-42.93-7.53-9.59-13.65-20.57-16.53-32.47-4.11-2.62-8.44-2.33-12.8-5.2-9.03-5.94-11.9-16.95-8.4-27.07.93-2.69,3.71-5.18,4.15-6.72,1.21-4.24-.63-8.69,2.77-15.37,2.51-4.93,6.01-5.99,8.49-9.01,1.03-1.25,1.65-4.05,3.36-6.14,4.6-5.63,12.99-8.44,12.98-17.01,0-7.1-2-9.57,1.49-17.51,1.02-2.32,3.75-4.85,4.26-6.74,2.82-10.43,2.29-19.78,6.75-31.25,1.35-3.47,5.82-10.2,6.3-12.77.58-3.12-1.05-6.35-.57-10.48,2.38-20.67,24.4-33.04,42.74-37.28,6.44-1.49,14.41-1.47,20.05-2.95,4.49-1.18,18.47-10.94,24.09-13.91,2.15-1.14,4.55-1.95,6.85-2.7C143.82,24.57,189.38-13.56,231.99,4.65c25.88,11.06,40.01,40.8,30.7,67.76ZM256.8,75.33c-.06-5,2.43-9.15,2.86-14.28,4.32-50.73-59.45-75.5-89.87-35.86-11.27,14.69-11.88,30.62-8.25,48.26-14.95,2.91-25.69,16.24-40.53,18.96-18.35,3.37-43.53,6.89-51.59,27.41-3.23,8.22.12,12.62-.96,17.96-.43,2.11-5.23,9.15-6.6,12.48-5.09,12.35-5.12,25.07-10.44,36.56-4.85,10.48-2.28,9.69-2.75,19.16-.63,12.66-8.54,12.52-14.07,20.02-1.51,2.05-1.69,4.44-2.95,6.05-1.55,1.97-4.68,2.94-6.86,6.14-4.55,6.64-1.88,9.76-3.41,15.59-.5,1.89-3.22,4.6-4.27,7.72-4.87,14.42,6.8,23.6,20.3,24.21,3.56,13.73,9.49,29.66,21.21,38.31.53,2.08-8.09,5.65-9.93,7.06-13.75,10.49-9.39,28.21,6.91,31.91-4.39,10.77-4.54,22.45-6.23,33.77-.84,5.57-3.12,11.59-3.62,17.38-.98,11.31.65,12.43-3.33,23.67-.88,2.47-1.29,7.01-2.35,8.65-2.54,3.93-13.16,6.66-15.67,14.33-1.2,3.65-1.26,13.33-.79,17.25,1.27,10.6,14.48,16.08,24.03,15.48-2.06,14.75-1.71,32.36,5.83,45.66,1.93,3.4,8.48,9.54,8.95,11.05,1.24,3.98,1.19,10.58,2.5,15.5.86,3.24,5.71,13.15,5.69,14.32-.05,3.28-13.43,8.06-16.98,11.98-5.62,6.2-4.08,10.91-6.53,16.47-2.04,4.63-8.99,10.08-11.66,17.34-3.48,9.46-1.14,17.5-3.05,24.95-.71,2.77-9.05,13.23-11.24,18.76-2.72,6.87-2.97,13.68-5,20-1.1,3.42-3.99,7.09-5.29,10.71-8.1,22.42-10.7,56.38,17.77,64.31-2.73,5.01.05,10.66.09,15.47.03,3.72-1.31,6.83-1.08,10.97,1.15,20.9,16.92,31.75,36.51,33.51,19.21,1.73,35.33-5.9,53.8-9.05,18.7,30.55,71.52,29.53,87.7-2.93,1.87-1.28,4.83,5.13,6,6.47,23.3,26.44,66.42,25.2,85.44-5.26,24.52,6.04,52.3,17.83,76.86,5.6,10.21-5.08,17.51-16.94,17.7-28.38.05-3.19-1.69-6.87-1.53-9.99.25-4.73,3.57-10.98.51-16.43,28.61-8.28,25.9-41.35,17.48-64.02-1.25-3.35-3.93-6.76-4.97-10.03-2.17-6.81-2.17-13.64-5.03-20.97-2.18-5.61-10.51-15.92-11.24-18.76-1.81-7.05.32-15.23-2.77-24.23-2.79-8.13-9.75-13.07-11.95-18.05-2.45-5.55-.91-10.27-6.53-16.47-3.55-3.92-16.92-8.69-16.98-11.98-.02-1.17,4.83-11.08,5.69-14.32,1.31-4.92,1.26-11.52,2.5-15.5.47-1.51,7.03-7.65,8.95-11.05,7.54-13.3,7.89-30.92,5.83-45.66,19.85-.45,26.32-10.43,24.03-29.53-1.41-11.74-14.38-12.43-16.78-16.72-.64-1.14-.7-5.22-1.75-7.76-1.21-2.93-4.66-5.93-5.28-8.71-1.22-5.45.27-13.78-.23-19.77-.79-9.58-2.76-23.03-4.28-32.72-.86-5.51-2.73-10.8-3.72-16.28,1.42-3.62,4.87-4.01,7.21-7.81,4.56-7.41,3.16-14.59-1.95-21.22l1.74-2.48-10.98-5.51c12.26-9.18,19.31-25.59,22.08-40.4,11.03,1.79,23.71-4.31,23.98-16.6.08-3.45-2.04-7.05-1.84-8.86.23-2.12,3.9-5.36,4.53-8.37,3.11-14.83-9.06-21.31-21.7-22.85l-19.62-17.41c4.85-8.65,4.56-13.85.76-22.73-5.35-12.52-5.03-24.01-10.19-36.81-1.41-3.51-6.43-11.1-6.86-13.22-.57-2.83,1-6.37.9-9.77-.63-21.59-29.76-32.87-47.69-35.37-5.69-.79-12.37-.45-17.79-1.21-8.91-1.26-20.66-12.71-29.41-16.09ZM232.3,49.01c0,12.52-10.15,22.67-22.67,22.67s-22.67-10.15-22.67-22.67,10.15-22.67,22.67-22.67,22.67,10.15,22.67,22.67ZM205.36,32.74c-5.9,1.09-11.76,7.48-12.67,13.32-3.1,19.94,24.47,27.34,32.33,10.34,6.29-13.6-5.28-26.32-19.67-23.66Z"/>
</svg>