<?xml version="1.0" encoding="UTF-8"?>
<svg id="_レイヤー_1" data-name="レイヤー 1" xmlns="http://www.w3.org/2000/svg" width="204.61mm" height="305.86mm" viewBox="0 0 580 867">
  <path d="M343.06,82.9c7.55,2.57,17.24,12.35,24.67,13.87,4.47.92,9.91-.18,14.65.35,20.61,2.33,46.64,11.93,53.67,33.33,2.63,8.01.16,11.5,1.14,16.78.5,2.7,5.4,10.39,6.85,14.23,4.05,10.79,3.58,20.03,6.21,29.79.65,2.4,4.01,5.64,5.26,9.74,2.24,7.3,1.71,11.98-1.03,19.02,4.14,2.31,12.31,11.87,15.58,13.44,3.02,1.44,8.24,1.34,11.97,3.03,10.62,4.84,14.65,16.73,11.48,27.52-.63,2.16-2.99,5.76-3.07,6.49-.2,1.79,1.66,5.15,1.6,7.97-.18,8.81-7.75,18.35-16.01,21.06-2.43.8-8.04.41-9.51,2.49-2.81,11.92-8.99,22.9-16.5,32.5l7.9,6.13c-2.96,4.39,1.9,9.26,1.89,14.86,0,7.33-4.48,13.99-9.42,18.97,3.84,9.75,2.55,20.23,3.71,29.95.4,3.34,2.31,7.38,2.8,11.2.94,7.39,0,17.6,1.17,23.83.15.79,6.04,13.85,6.49,14.51.73,1.1,6.05,3.49,7.94,5.06,18.15,15.08,11.12,48.91-14.46,49.99,1.77,13.3.14,30.28-6.19,42.31-2,3.81-8.58,10.13-9.38,12.62-2.4,7.46-1.69,17.93-6.49,25.49,7.83,3.52,15.7,8.63,19.23,16.89,1.52,3.56,1.24,6.87,2.36,9.64,1.79,4.4,8.43,9.7,11.21,16.79,4.05,10.3,2.15,19.52,4.45,27.55.73,2.54,8.22,11.65,10.27,16.73,3.13,7.76,2.89,14.18,4.76,21.24.57,2.16,4.09,6.77,5.24,9.76,8.81,22.87,11.57,59.35-15.53,70.65,1.5,4.51-1.46,9.56-1.64,12.96-.77,14.52,2.52,24.39-9.77,36.42-22.91,22.43-60.29,9.58-86.9,2.88-16.97,26.06-59.66,29.37-83.13,11.05-2.01-1.57-8.39-9.37-9.99-8.98-21.01,27.76-70.76,27.42-91.12-1.04-24.85,7.54-61.63,16.82-82.46-4.42-13.23-13.48-7.94-27.33-10.85-43.15-.35-1.88.03-3.84-.05-5.73-27.12-11.31-24.32-47.82-15.53-70.65,1.15-2.99,4.67-7.6,5.24-9.76,1.87-7.06,1.63-13.48,4.76-21.24,2.05-5.08,9.54-14.19,10.27-16.73,2.3-8.03.4-17.25,4.45-27.55,2.79-7.08,9.43-12.39,11.21-16.79,1.12-2.77.84-6.08,2.36-9.64,3.53-8.25,11.4-13.37,19.23-16.89-4.79-7.56-4.09-18.03-6.49-25.49-.8-2.48-7.38-8.81-9.38-12.62-6.32-12.03-7.96-29.01-6.19-42.31-19.26-2.15-25.82-15.29-23.97-33.51.72-7.15,3.65-11.48,8.98-16.02,1.64-1.4,8.51-5.26,8.78-5.71.63-1.07.21-3.81.9-5.6,4.4-11.36,2.77-16.95,4.46-28.54.8-5.5,2.93-10.92,3.76-16.24,1.3-8.32.71-17.59,3.78-25.96-18.63-10.36-17.47-33.56,1.32-42.93-7.53-9.59-13.65-20.57-16.53-32.47-4.11-2.62-8.44-2.33-12.8-5.2-9.03-5.94-11.9-16.95-8.4-27.07.93-2.69,3.71-5.18,4.15-6.72,1.21-4.24-.63-8.69,2.77-15.37,2.51-4.93,6.01-5.99,8.49-9.01,1.03-1.25,1.65-4.05,3.36-6.14,4.6-5.63,12.99-8.44,12.98-17.01,0-7.1-2-9.57,1.49-17.51,1.02-2.32,3.75-4.85,4.26-6.74,2.82-10.43,2.29-19.78,6.75-31.25,1.35-3.47,5.82-10.2,6.3-12.77.58-3.12-1.05-6.35-.57-10.48,2.38-20.67,24.4-33.04,42.74-37.28,6.44-1.49,14.41-1.47,20.05-2.95,4.49-1.18,18.47-10.94,24.09-13.91,2.15-1.14,4.55-1.95,6.85-2.7-11.78-44.87,33.77-83,76.38-64.79,25.88,11.06,40.01,40.8,30.7,67.76ZM337.17,85.82c-.06-5,2.43-9.15,2.86-14.28,4.32-50.73-59.45-75.5-89.87-35.86-11.27,14.69-11.88,30.62-8.25,48.26-14.95,2.91-25.69,16.24-40.53,18.96-18.35,3.37-43.53,6.89-51.59,27.41-3.23,8.22.12,12.62-.96,17.96-.43,2.11-5.23,9.15-6.6,12.48-5.09,12.35-5.12,25.07-10.44,36.56-4.85,10.48-2.28,9.69-2.75,19.16-.63,12.66-8.54,12.52-14.07,20.02-1.51,2.05-1.69,4.44-2.95,6.05-1.55,1.97-4.68,2.94-6.86,6.14-4.55,6.64-1.88,9.76-3.41,15.59-.5,1.89-3.22,4.6-4.27,7.72-4.87,14.42,6.8,23.6,20.3,24.21,3.56,13.73,9.49,29.66,21.21,38.31.53,2.08-8.09,5.65-9.93,7.06-13.75,10.49-9.39,28.21,6.91,31.91-4.39,10.77-4.54,22.45-6.23,33.77-.84,5.57-3.12,11.59-3.62,17.38-.98,11.31.65,12.43-3.33,23.67-.88,2.47-1.29,7.01-2.35,8.65-2.54,3.93-13.16,6.66-15.67,14.33-1.2,3.65-1.26,13.33-.79,17.25,1.27,10.6,14.48,16.08,24.03,15.48-2.06,14.75-1.71,32.36,5.83,45.66,1.93,3.4,8.48,9.54,8.95,11.05,1.24,3.98,1.19,10.58,2.5,15.5.86,3.24,5.71,13.15,5.69,14.32-.05,3.28-13.43,8.06-16.98,11.98-5.62,6.2-4.08,10.91-6.53,16.47-2.04,4.63-8.99,10.08-11.66,17.34-3.48,9.46-1.14,17.5-3.05,24.95-.71,2.77-9.05,13.23-11.24,18.76-2.72,6.87-2.97,13.68-5,20-1.1,3.42-3.99,7.09-5.29,10.71-8.1,22.42-10.7,56.38,17.77,64.31-2.73,5.01.05,10.66.09,15.47.03,3.72-1.31,6.83-1.08,10.97,1.15,20.9,16.92,31.75,36.51,33.51,19.21,1.73,35.33-5.9,53.8-9.05,18.7,30.55,71.52,29.53,87.7-2.93,1.87-1.28,4.83,5.13,6,6.47,23.3,26.44,66.42,25.2,85.44-5.26,24.52,6.04,52.3,17.83,76.86,5.6,10.21-5.08,17.51-16.94,17.7-28.38.05-3.19-1.69-6.87-1.53-9.99.25-4.73,3.57-10.98.51-16.43,28.61-8.28,25.9-41.35,17.48-64.02-1.25-3.35-3.93-6.76-4.97-10.03-2.17-6.81-2.17-13.64-5.03-20.97-2.18-5.61-10.51-15.92-11.24-18.76-1.81-7.05.32-15.23-2.77-24.23-2.79-8.13-9.75-13.07-11.95-18.05-2.45-5.55-.91-10.27-6.53-16.47-3.55-3.92-16.92-8.69-16.98-11.98-.02-1.17,4.83-11.08,5.69-14.32,1.31-4.92,1.26-11.52,2.5-15.5.47-1.51,7.03-7.65,8.95-11.05,7.54-13.3,7.89-30.92,5.83-45.66,19.85-.45,26.32-10.43,24.03-29.53-1.41-11.74-14.38-12.43-16.78-16.72-.64-1.14-.7-5.22-1.75-7.76-1.21-2.93-4.66-5.93-5.28-8.71-1.22-5.45.27-13.78-.23-19.77-.79-9.58-2.76-23.03-4.28-32.72-.86-5.51-2.73-10.8-3.72-16.28,1.42-3.62,4.87-4.01,7.21-7.81,4.56-7.41,3.16-14.59-1.95-21.22l1.74-2.48-10.98-5.51c12.26-9.18,19.31-25.59,22.08-40.4,11.03,1.79,23.71-4.31,23.98-16.6.08-3.45-2.04-7.05-1.84-8.86.23-2.12,3.9-5.36,4.53-8.37,3.11-14.83-9.06-21.31-21.7-22.85l-19.62-17.41c4.85-8.65,4.56-13.85.76-22.73-5.35-12.52-5.03-24.01-10.19-36.81-1.41-3.51-6.43-11.1-6.86-13.22-.57-2.83,1-6.37.9-9.77-.63-21.59-29.76-32.87-47.69-35.37-5.69-.79-12.37-.45-17.79-1.21-8.91-1.26-20.66-12.71-29.41-16.09ZM312.67,59.5c0,12.52-10.15,22.67-22.67,22.67s-22.67-10.15-22.67-22.67,10.15-22.67,22.67-22.67,22.67,10.15,22.67,22.67ZM285.73,43.24c-5.9,1.09-11.76,7.48-12.67,13.32-3.1,19.94,24.47,27.34,32.33,10.34,6.29-13.6-5.28-26.32-19.67-23.66ZM216.53,226.98c4.18,7.99,7.81-3.61,8.49-7.98,2.64-.25,1.62-.06,1.97,1.49.56,2.5.14,5.68,2.55,7.48,4.36,1.43,3.11-6.95,5.97-8.97,2.73,1.18.46,11.49,6.49,9.99,1.43-2.79-.52-11.28-2.97-12.51-4.2-2.11-6.54,1.27-7.54,1.28-.75,0-2.28-3.62-6.98-2.82-3.12.53-1.36,3.71-4.48,3.05-3.13-10.51-6.26,3.68-3.49,8.98ZM216.56,535.98c-.74-1.12-3.62-1.46-4.47-.89-2.81,1.88-1.1,14.34,5.52,14.92,2.89.25,3.94-1.58,4.91-1.65s2.52,1.6,4.07,1.67c2.37.12,4.77-3.1,8.41-1.05l-.99-12c-7.08-1.27-4.77,2.29-6.77,6.74-.61,1.37-.12,1.57-2.23,1.26l-1.02-8.99c-7.5-.59-2.84,7.2-6.98,9.99-1.89-2.14-.17-9.59-.45-10.02ZM299,552c-1.9.7-3.42-1.5-4.51-1.59-2.97-.24-4.68,3.12-10.21-.2-8.66-5.2-.05-15.97,8.73-13.21v-7c3.31-1.19,5.99,4.14,5.99,6.5v15.5ZM286.1,547.9c2.8,1.52,5.25.02,6.81-2.58.69-2.64-3.35-5.96-5.89-5.31l-.91,7.89ZM292,231c-5.54-1.64-12.54,2.43-16.47-3.02-5.32-7.36,3.55-13.98,10.46-10.98v-7s3.87.14,3.87.14c.1,1.66,2.14,5.37,2.14,6.36v14.5ZM281.62,219.06c-6.76,5.75-.03,14.15,4.41,4.44l-4.41-4.44ZM343,595c-5.54-1.64-12.54,2.43-16.47-3.02-5.4-7.48,3.48-13.6,10.46-10.98v-7s3.87.15,3.87.15c.05,1.44,2.14,4.68,2.14,5.36v15.5ZM332.62,583.06c-2.81,1.53-3.11,4.37-2.47,7.29,1.75,5.33,12.9-3.24,2.47-7.29ZM247.01,439.52c-.83,3.99,8.79.41,11,2.5.67,3.56-2.35.76-5.03,1.37-8.57,1.93-7.56,9.7,1.65,10.59,3.02.29,6.09-1.23,9.37.03,1.89-11.19-5.47-20.48-16.99-14.49ZM319,544c.14.16,3.43-.47,3.96,1.58-.06,3.26-3.69,4.97-6.52,5.35-17.68,2.36-20.21-19.19-2.13-15.69,5.23,1.01,4,7.98,4.69,8.76-4.4,1.77-7.37,1.88-12,1.5,2.9,3.64,11,3.66,12-1.5ZM313.99,541.99l-1.98-4.55-5.01,1.56c-.14,3.94,4.23,2.99,6.99,2.98ZM286.01,588c-1.79,1.73,5.35,5.94,9.99,2.48,1.51-1.13,1.82-4.21,3.48-3.47,5.85,2.6-2.51,10.39-12.03,7.03-6.92-2.44-10.11-11.68-2.69-14.77,14.27-5.94,19.27,14.99,1.25,8.73ZM288.69,581.12c-1.02.28-2.9,2.13-2.68,3.36,8.18,5.91,7.89-4.79,2.68-3.36ZM317.87,495.87l-10.87,1.14c2.59,4.08,6.68,3.65,10.24,1,2.02-1.51.68-3.78,4.76-2.01,0,10.42-17,8.31-20.25.73-5.08-11.86,18.72-15.23,16.12-.86ZM313,493.99c.78-6.17-3.38-6.12-6.99-2.48-1.13,2.36,5.81,2.72,6.99,2.48ZM301,225.01c1.95,3.5,5.94,3.75,9,1.47,1.51-1.13,1.82-4.21,3.48-3.47,5.98,2.67-3.28,11.3-13.18,6.19-14.17-7.31,2.17-20.64,9.15-13.14,6.88,7.4-1.47,10.13-8.45,8.95ZM305.95,217.03c-1.15-.83-6.77,1.4-5.95,3.96l6.02.54c1.58-.62.12-4.36-.07-4.5ZM322.03,450.43c2.45.75,4.67.28,6.97,1.07-1.05,1.21-1.83,2.14-3.52,2.48-1.59.32-5.33-.96-5.47,1.01,12.02,6.48,16.93-4.17,14.55-15.04l-4.44-.81c-3.46,10.88-9.94,12.23-9.12-1.14-8.71-1.61-4.2,10.84,1.03,12.43ZM354.01,502.99l10.98-2.5c.29-2.48-2.36-.19-4.99-.91-12.11-3.32-3.99-18.92,6.56-12.64,2.53,1.51,4.09,14.21,2.96,16.07-2.17,3.59-12.12,1.88-15.52-.02ZM361.62,488.06c-4.34,2.88-5.58,9.63,1.4,7.47l1.52-5.49-2.92-1.97ZM252.62,223.94c-3.68-.6-1.93-7.22-3.09-8.97-3.27-4.89-8.18,5.02-.59,10.59,2.77,2.03,4.76,1.52,8.06,1.44l-1.67,2.82-6.33.18c12.13,9.8,15.7-4.5,14-15.01-5.78-2.53-5.92,9.67-10.37,8.95ZM288.24,435.62c-.11.62.76,11.26,1,12.64.54,3.12,2.1,6.34,5.76,5.73.68-.7-1.77-8.62,2.99-7.99,1.05,4.15,2.88,8.93,8.01,7.99l-3.03-8.58c7.49-9.57-8.41-1.8-8.96-2.42,2.87-5.73-4.59-13.77-5.77-7.38ZM289,489c4.93-.49,11.94,2.22,10.84,8.26-.91,4.97-12.31,6.87-14.36,4.77-1.7-1.74-2.59-16.22-1.29-18.31,3.21-5.19,6.01,1.39,4.82,5.29ZM289,492c-1.61,15.46,9.33,3.62,4,.49-1.26-.74-2.65-.51-4-.49ZM199.99,551c-4.55-1.59-11.37.63-15.08-2.41-3.51-2.87-1.93-6.93,2.04-8.14,2.31-.71,6.11.44,7.04-1.44l-11-1.02.07-2.91c11.71-4.02,18.5,4.6,16.92,15.91ZM195,544.01c-1.4-1.21-9.3-1.22-7.99,1.47,2.02,2.49,8.15,2.58,7.99-1.47ZM319.28,227.74c-3.35-3.64.42-6.91,4.1-7.94,2.79-.78,6.35,1.4,5.62-1.78-2.44-2.3-13.39,2.45-10.03-3.54,3.91-1.22,10.7-.66,13.49,2.57,1.44,1.67,4.33,11.39,2.55,12.5s-13.74.38-15.74-1.79ZM329.99,225.99c1.82-2.42-6.21-5.82-7.97-1.49,1,2.03,7,2.78,7.97,1.49ZM260,534c.21,5.1-1.43,16.14,5.97,15.99.14-1.73,3.25-12.04,6.01-9.98,1.4,3.56.71,10.82,6,9.99,2.05-8.24-3.89-19.52-12.49-11.02l-1.57-4.92-3.93-.07ZM369.16,535.15c-3.32,5.96,3.54,17.77,10.83,14.34.9-.42,1.7-2.21,2.5-2.27,1.66-.14,4.96,5.35,7.5,1.28-3.86-1.22-4.73-12-6.49-12.49-4.83-1.37-3.91,8.07-6.99,9.97-2.77-2.88-3.64-7.13-3.51-10.98l-3.83.15ZM270.02,437.44l-3.07,1.22c-.55,3.04.85,17.67,6.1,13.91.55-.39,2.59-6.02,3.46-7.59.62-1.13-.08-2.44,1.96-1.96,2.9,1.48,1.36,13.27,7.45,9.92.28-9.64-3.72-17.04-13.92-10.92l-1.99-4.56ZM358.98,440.52c-1.53,8.55,8,17.67,13.51,9.48,1.99,2.25,4.47,3.35,7.5,2.99l-4.93-12.56-5.03-.4c.12,1.27-1.27,10.01-3.52,8.96-3.59-1.68-1.78-8.42-2.65-9.84-.79-1.29-4.3-1.86-4.87,1.37ZM333.63,486.12c-3.67,1.21.61,18.09,4.39,15.43,1.09-.74,4.61-13.06,6.97-10.54,3.35,24.21,10.39,1.3,1.99-2.48-4.07-1.83-6.31.72-9.98,1.48v-4s-3.38.13-3.38.13ZM304,577.99c-.07,4.9-.42,10.07,1.92,14.57,7.57,3.01,3.97-8.96,10.06-9.57-.1,2.06,2.63,10.99,4.51,10.98,4.31-1.44.95-11.29-.99-12.99-2.47-2.15-7.69-1.13-10.02.98l-1.64-3.81-3.85-.18ZM344.75,438.22c10.45-1.73,14.98,12.08,7.99,15.02-14.03,5.9-22.39-12.64-7.99-15.02ZM346.68,441.14c-5.64.52-6.88,9.96-.18,9.95,7.48-.01,3.92-10.3.18-9.95ZM353.59,530.89l-1,9.14-5.58.98c-.73,4.31,6.06,3.05,6.53,3.9.03,10,5.82,8.68,4.46-.91,12.43.16,9.33-4.55-1-3.99v-7c3.23-1.31,5.03,8.91,8,5.99.9-.89-2.31-6.91-3.28-7.7-2.29-1.89-5.59-1.43-8.13-.41ZM240.74,486.21c9.44-.9,15.69,16.09,1.68,16.73-11.69.53-15.01-15.46-1.68-16.73ZM243.88,490.13c-7.11-4.58-11.38,11.55-1.76,9.38,5.01-1.13,3.53-8.24,1.76-9.38ZM244.73,535.24c15.07-2.78,16.82,18.77,1,15.53-9.25-1.9-11-13.69-1-15.53ZM249.85,538.17c-5.83-2.34-9.65,5.54-5.26,8.76,2.44,1.62,4.92,1.04,6.95-.92,1.52-2.45-.9-5.47-1.69-7.84ZM228,450.5c0,1.39,3.22,4.65,4.99,3.5,1.5-2.14-.14-11.84,3.5-10.99,3.57,3.2,1.93,9.11,6.01,11.98,2.95.03,2.22-13.44-5.25-14.84-1.55-.29-3.7.85-4.29.43-1.94-1.41.52-7.85-4.96-6.57v16.5ZM204.49,434.99c-1.08.11-5.44.55-4.48,2.49,2.48,2.78,6.76,1.13,9.99,1.51.79.83-.62,16.73,5.99,15l-.94-14.4,2.2-1.41,7.75.8-.07-2.91c-.88-1.42-17.56-1.38-20.44-1.09ZM236.66,573.96c-2.26.55-1.22,8.13-2.1,10.1l-5.56,1.43c1.79,2.6,4,2.73,6.98,2.52.46.45-.81,8.73,3.51,6.97,3.16-1.29-.34-5.27.93-7.04l7.59-1.46c-.08-4.24-7-1.26-8.59-3.42l.59-6.06,6.98,5.99c.48-6.04-4.17-10.52-10.33-9.03ZM217.66,481.96c-2.26.55-1.22,8.13-2.1,10.1l-5.56,1.43c1.79,2.6,4,2.73,6.98,2.52.46.45-.81,8.73,3.51,6.97,3.16-1.29-.34-5.27.93-7.04l7.59-1.46c-.08-4.24-7-1.26-8.59-3.42l.59-6.06,6.98,5.99c.48-6.04-4.17-10.52-10.33-9.03ZM260.57,490.94l-3.16-4.86-4.15,1.37c1.25,3.81,1.23,15,6.4,15.43,3.83.31,1.25-10.59,6.85-10.52l6.49,1.63c.12-.09-.95-2.37-1.3-2.7-3.47-3.26-7.28-1.87-11.13-.36ZM325.97,534.47c-2.13,1.51.83,19.35,7.09,15.95,1.6-8.52,1.87-11.67,10.93-7.42.31-6.58-8.99-5.93-12.98-3,.8-2.91-2-7.69-5.04-5.53ZM251.01,578c.39,5.79.46,14.43,6.5,16.98l5.52-10.53,6.96,1.55c-1.72-6.91-7.99-4.79-12.97-3-.52-3.72-2.04-5.65-6.02-5ZM338,214c-.8.77,1.96,14.29,3.98,15.52,6.43,3.88,3.32-7.12,8.05-9.07l6.96,1.55c-1.73-6.94-8-4.77-12.98-2.99l-1.15-4.87-4.86-.13ZM392.13,542.37c.31,3.25.64,10.69,4.88,8.12l-1.01-19.5c-5.6-1.1-4.24,7.39-3.86,11.38ZM359.99,210.51l1.02,13.49c3.73,2.83,5.43-17.38-1.02-13.49ZM325,490.99c-.21,4.6-.59,8.95,3.5,11.99,2.34.05,1.79-10.07.35-11.83l-3.85-.15ZM273,582.99c-.05,4.21-1.03,11.51,4.99,11l-1.14-10.85-3.85-.15ZM273.51,574.01c-2.99.7,1.44,8.74,4.48,6.99-.07-2.44-.8-7.85-4.48-6.99ZM325.51,482.01c-3.1.75.99,8.64,4.49,6.98-.74-2.68-.45-7.63-4.49-6.98ZM300,260v7h14c-4.17,9.34-15.99,15.57-14,27h25v-7h-14c3.32-9.67,15.94-15.89,14-27h-25ZM370,260v34h10v-34h-10ZM240.74,260.24c2.62-.45,6.05-.51,8.68-.15,19.59,2.67,19.17,36.71-6.92,33.91-18.89-2.03-18.58-30.88-1.76-33.76ZM243.72,267.19c-9.69,2.14-8.67,22.62,4.56,19.59,8.24-1.89,8.11-22.39-4.56-19.59ZM248.29,286.78c8.24-1.89,8.11-22.39-4.56-19.59-9.69,2.14-8.67,22.62,4.56,19.59ZM359.66,264.34c8.75,8.75,4.84,27.94-9.13,29.68-15.49,1.93-24.92-9.33-20.04-24.04,3.74-11.26,21.45-13.36,29.17-5.64ZM344.73,267.2c-8.87,1.93-8.62,22.58,4.56,19.59,8.73-1.98,8.3-22.39-4.56-19.59ZM349.29,286.78c8.73-1.98,8.3-22.39-4.56-19.59-8.87,1.93-8.62,22.58,4.56,19.59ZM200,260c12.51-1.6,35.48,2.38,18,16.99,8.18-.71,9.46,11.54,3.39,14.9-.76.42-6.38,2.11-6.89,2.11h-14.5v-34ZM209,267c-1.44,7.48,3.41,9.23,7.07,3.5.47-4.39-3.88-3.59-7.07-3.5ZM209,287c4.68.63,9.44-.54,7.58-6.08l-7.58-.93v7.01ZM216.57,280.93l-7.58-.93v7.01c4.68.63,9.44-.54,7.58-6.08ZM216.07,270.5c.47-4.39-3.88-3.59-7.07-3.5-1.44,7.48,3.41,9.23,7.07,3.5ZM282.5,260c11.72,1.42,16.84,12.07,5.51,18.02l6.99,15.97-9.04-.45c-2.68-3.67-1.49-11.32-7.44-11.58-2.12-.09-1.31.03-1.53,1.51-.29,1.91.4,10.15.01,10.54h-9.01v-34.01c4.63.4,9.99-.55,14.5,0ZM277,276c10.15.38,11.35-10.49,0-9.01v9.01ZM277,267v9.01c10.16.38,11.36-10.49,0-9.01ZM292.91,545.31c.69-2.64-3.35-5.96-5.89-5.31l-.91,7.89c2.8,1.52,5.25.02,6.81-2.58ZM286.03,223.5l-4.41-4.44c-6.76,5.75-.03,14.15,4.41,4.44ZM330.15,590.34c1.75,5.33,12.9-3.24,2.47-7.29-2.81,1.53-3.11,4.37-2.47,7.29ZM312.02,537.45l-5.01,1.56c-.14,3.94,4.23,2.99,6.99,2.98l-1.98-4.55ZM286.01,584.48c8.18,5.91,7.89-4.79,2.68-3.36-1.02.28-2.9,2.13-2.68,3.36ZM306.01,491.51c-1.13,2.36,5.81,2.72,6.99,2.48.78-6.17-3.38-6.12-6.99-2.48ZM300,220.99l6.02.54c1.58-.62.12-4.36-.07-4.5-1.15-.83-6.77,1.4-5.95,3.96ZM363.02,495.52l1.52-5.49-2.92-1.97c-4.34,2.88-5.58,9.63,1.4,7.47ZM293.01,492.49c-1.26-.74-2.65-.51-4-.49-1.61,15.46,9.33,3.62,4,.49ZM187.01,545.48c2.02,2.49,8.15,2.58,7.99-1.47-1.4-1.21-9.3-1.22-7.99,1.47ZM322.02,224.5c1,2.03,7,2.78,7.97,1.49,1.82-2.42-6.21-5.82-7.97-1.49ZM346.5,451.1c7.48-.01,3.92-10.3.18-9.95-5.64.52-6.88,9.96-.18,9.95ZM242.11,499.51c5.01-1.13,3.53-8.24,1.76-9.38-7.11-4.58-11.38,11.55-1.76,9.38ZM244.59,546.92c2.44,1.62,4.92,1.04,6.95-.92,1.52-2.45-.9-5.47-1.69-7.84-5.83-2.34-9.65,5.54-5.26,8.76ZM332,674c10.1-1.34,24.53,1.16,12,11.99,4.96.08,7.51,4.85,4.47,8.98-3.59,4.87-11.19,2.53-16.47,3.03v-24ZM343.73,682.75c1.3-1.07,1.52-3.81-.15-4.82l-6.59-.93v7.01c.38.37,5.95-.6,6.74-1.25ZM344.86,688.14l-7.86-1.15v8.01l7.86-1.15v-5.72ZM254,698h4c-.8-5.53.28-18.27,7.85-12.35l.16,12.35h3.99c-.45-3.8,1.61-15.38-2.66-16.84l-9.33.83v-9s-4.01,0-4.01,0v25ZM308,691h-13c1.09,5.82,6.29,5.67,10.99,4l-.66,3.01c-5.71,2.33-13.32-.01-14.3-6.59-2.1-14.18,18.51-14.47,16.97-.43ZM302.73,684.28c-4.04-3.79-8.82,2.78-7.72,3.72h8.99c.48-.44-.69-3.18-1.27-3.72ZM328,691h-13c-1.01.91,2.48,4.49,3.72,4.84,2.9.83,9.49-3.34,6.61,2.18-5.71,2.33-13.32-.01-14.3-6.59-2.08-14.01,18.12-14.66,16.96-.43ZM322.73,684.28c-4.04-3.79-8.82,2.78-7.72,3.72h8.99c.48-.44-.69-3.18-1.27-3.72ZM230,674v3s8,0,8,0v21h4v-21h7.01s0-3,0-3h-19ZM275,698h4c-.02-4.3-.24-11.26,4.27-13.24,1.39-.61,4.59-.58,4.74-1.26,1.21-5.6-7.18-.87-9,.51l-.1-2.88-3.91-.13v17ZM337,687v8.01l7.86-1.15v-5.72l-7.86-1.15ZM343.59,677.93l-6.59-.93v7.01c.38.37,5.95-.6,6.74-1.25,1.3-1.07,1.52-3.81-.15-4.82ZM295.01,687.99h8.99c.48-.44-.69-3.18-1.27-3.72-4.04-3.79-8.82,2.78-7.72,3.72ZM315.01,687.99h8.99c.48-.44-.69-3.18-1.27-3.72-4.04-3.79-8.82,2.78-7.72,3.72Z"/>
</svg>