<?xml version="1.0" encoding="UTF-8"?>
<svg id="_レイヤー_1" data-name="レイヤー 1" xmlns="http://www.w3.org/2000/svg" width="156.46mm" height="299.25mm" viewBox="0 0 443.51 848.28">
  <path d="M163.31,100.83c-5.4-28.92,15.41-59.22,43.8-65.7,43-9.81,79.96,24.8,73.31,68.06l4.93,2.2c15.98-22.66,25.62-49.19,43.44-70.58,20.86-25.04,53.29-51.42,83.56-21.53,23.49,23.19,30.06,93.87,20.9,123.98-1.89,6.2-6.25,12.68-6.94,19.06-2.15,19.82,9.09,38.89,2.78,56.78-1.72,4.87-5.41,8.3-6.79,13.13,6.43,17.96,14.11,36.6,17.72,55.39,7.85,40.85,1.6,80.94-9.99,120.42-9.35,31.83-29.46,53.76-57.72,70.3l-.98,1.91c10.32,26.07,19.37,51.68,24.69,79.36,6.76,35.18.88,70.88,9.37,104.63,9.14,36.3,25.08,65.98,3.73,102.89-1.82,3.14-7.93,10.08-8.56,12.44-.9,3.35-.63,8.59-1.52,12.48-6.8,29.94-37.72,33.16-63.56,32.94-17.54,42.91-87.16,36.43-102.32-5h-13.68c-11.08,28.08-44.64,39.78-72.6,31.78-14.26-4.08-23.52-13.83-30.56-26.44-24.61-.72-55.28-1.9-64.06-29.94-2.61-8.33-.17-15.62-1.18-20.94-.18-.96-8.44-13.27-9.94-16.94-17.62-43.18,10.81-78.69,13.22-120.14,1.4-24.1-.75-45.11,3.25-69.75,4.6-28.37,13.71-56.3,24.69-82.72-32.35-17.45-57.78-39.82-68.48-76.07C5.05,373.13-1.42,338.28.27,307.3c1.53-28.13,11.1-55.03,21.05-81.05-1.38-4.83-5.07-8.26-6.79-13.13-6.31-17.89,4.93-36.97,2.78-56.78-.69-6.38-5.06-12.85-6.94-19.06C1.76,108.96,7.71,44.86,25.48,20.51c32.96-45.17,76.76-5.88,98.86,26.8,8.51,12.59,14.31,26.89,22.16,39.84,1.72,2.83,6.91,11.48,8.82,13.26,2.21,2.05,4.94-.19,7.99.43ZM169.32,105.84c-4.21-1.24-13.71,3.22-16.55,1.09-1.49-1.12-9.64-14.1-11.26-16.78-5.47-9.04-9.67-18.87-15.02-27.98-16.65-28.35-56.1-79.2-91.07-44.72C13.35,39.2,7.55,106.54,15.81,134.84c4.42,15.15,8.73,17.38,7.49,35.49-1.09,15.88-9.33,27.81-1.86,43.88,1.82,3.91,4.87,6.46,6.86,10.1-5.55,17.62-15.4,36.24-18.71,54.31-7.7,42.1-2.16,82.77,10.01,123.44,11.11,37.13,37.84,56.16,69.47,75.24-13.82,34.81-26.62,72.2-28.75,110.05-.99,17.64,1.05,35.36-1.02,52.98-4.47,38.06-29.15,70.22-12.17,110.19,2.07,4.88,8.86,13.27,9.79,16.3.68,2.22-.94,11.21-.16,16.07,4.97,31.17,40.17,29.78,64.39,31.11,15.5,39.95,70.34,36.36,90.99,2.16,1.19-1.97,1.5-5.63,3.21-6.79,2.93-2,19.09-2.21,21.73-.31.46.33,3.4,7.43,4.43,9.08,20.23,32.53,74.98,34.51,89.78-3.83,30.11-3.38,55.83.95,62.91-35.09.54-2.76-.35-5.29.66-8.34.73-2.2,4.88-5.93,6.48-8.52,23.02-37.1,8.67-62.81-.95-100.11-8.79-34.1-3.44-67.95-9.4-102.6-5.28-30.73-15.29-59.82-27.75-88.25,27.42-15.71,50.21-36.07,60-67.13,12.24-38.84,18.64-82.37,10.76-122.64-3.78-19.32-12.41-38.69-18.66-57.35,1.97-3.64,5.01-6.17,6.83-10.07,7.84-16.88-3.71-38.3-1.92-57.92.71-7.72,5.43-14.17,7.55-21.45,7.6-26.02,2.08-90.08-15.09-111.92-23.46-29.84-50.53-15.84-71.93,6.9-23.07,24.51-33.72,55.71-53.46,82.58l-13.95-4.65c14.03-50.41-45.35-90.57-85.98-56.31-16.21,13.67-21.55,33.78-18.09,54.4ZM245.73,87.6c0,13.23-10.72,23.95-23.95,23.95s-23.95-10.72-23.95-23.95,10.72-23.95,23.95-23.95,23.95,10.72,23.95,23.95ZM239.95,87.6c0-10.03-8.13-18.16-18.16-18.16s-18.16,8.13-18.16,18.16,8.13,18.16,18.16,18.16,18.16-8.13,18.16-18.16Z"/>
</svg>