<?xml version="1.0" encoding="UTF-8"?>
<svg id="_レイヤー_1" data-name="レイヤー 1" xmlns="http://www.w3.org/2000/svg" width="204.61mm" height="305.86mm" viewBox="0 0 580 867">
  <path d="M228,111c-5.4-28.92,15.41-59.22,43.8-65.7,43-9.81,79.96,24.8,73.31,68.06l4.93,2.2c15.98-22.66,25.62-49.19,43.44-70.58,20.86-25.04,53.29-51.42,83.56-21.53,23.49,23.19,30.06,93.87,20.9,123.98-1.89,6.2-6.25,12.68-6.94,19.06-2.15,19.82,9.09,38.89,2.78,56.78-1.72,4.87-5.41,8.3-6.79,13.13,6.43,17.96,14.11,36.6,17.72,55.39,7.85,40.85,1.6,80.94-9.99,120.42-9.35,31.83-29.46,53.76-57.72,70.3l-.98,1.91c10.32,26.07,19.37,51.68,24.69,79.36,6.76,35.18.88,70.88,9.37,104.63,9.14,36.3,25.08,65.98,3.73,102.89-1.82,3.14-7.93,10.08-8.56,12.44-.9,3.35-.63,8.59-1.52,12.48-6.8,29.94-37.72,33.16-63.56,32.94-17.54,42.91-87.16,36.43-102.32-5h-13.68c-11.08,28.08-44.64,39.78-72.6,31.78-14.26-4.08-23.52-13.83-30.56-26.44-24.61-.72-55.28-1.9-64.06-29.94-2.61-8.33-.17-15.62-1.18-20.94-.18-.96-8.44-13.27-9.94-16.94-17.62-43.18,10.81-78.69,13.22-120.14,1.4-24.1-.75-45.11,3.25-69.75,4.6-28.37,13.71-56.3,24.69-82.72-32.35-17.45-57.78-39.82-68.48-76.07-8.76-29.7-15.23-64.55-13.54-95.54,1.53-28.13,11.1-55.03,21.05-81.05-1.38-4.83-5.07-8.26-6.79-13.13-6.31-17.89,4.93-36.97,2.78-56.78-.69-6.38-5.06-12.85-6.94-19.06-8.62-28.31-2.66-92.42,15.11-116.77,32.96-45.17,76.76-5.88,98.86,26.8,8.51,12.59,14.31,26.89,22.16,39.84,1.72,2.83,6.91,11.48,8.82,13.26,2.21,2.05,4.94-.19,7.99.43ZM234.01,116c-4.21-1.24-13.71,3.22-16.55,1.09-1.49-1.12-9.64-14.1-11.26-16.78-5.47-9.04-9.67-18.87-15.02-27.98-16.65-28.35-56.1-79.2-91.07-44.72-22.07,21.75-27.87,89.1-19.6,117.39,4.42,15.15,8.73,17.38,7.49,35.49-1.09,15.88-9.33,27.81-1.86,43.88,1.82,3.91,4.87,6.46,6.86,10.1-5.55,17.62-15.4,36.24-18.71,54.31-7.7,42.1-2.16,82.77,10.01,123.44,11.11,37.13,37.84,56.16,69.47,75.24-13.82,34.81-26.62,72.2-28.75,110.05-.99,17.64,1.05,35.36-1.02,52.98-4.47,38.06-29.15,70.22-12.17,110.19,2.07,4.88,8.86,13.27,9.79,16.3.68,2.22-.94,11.21-.16,16.07,4.97,31.17,40.17,29.78,64.39,31.11,15.5,39.95,70.34,36.36,90.99,2.16,1.19-1.97,1.5-5.63,3.21-6.79,2.93-2,19.09-2.21,21.73-.31.46.33,3.4,7.43,4.43,9.08,20.23,32.53,74.98,34.51,89.78-3.83,30.11-3.38,55.83.95,62.91-35.09.54-2.76-.35-5.29.66-8.34.73-2.2,4.88-5.93,6.48-8.52,23.02-37.1,8.67-62.81-.95-100.11-8.79-34.1-3.44-67.95-9.4-102.6-5.28-30.73-15.29-59.82-27.75-88.25,27.42-15.71,50.21-36.07,60-67.13,12.24-38.84,18.64-82.37,10.76-122.64-3.78-19.32-12.41-38.69-18.66-57.35,1.97-3.64,5.01-6.17,6.83-10.07,7.84-16.88-3.71-38.3-1.92-57.92.71-7.72,5.43-14.17,7.55-21.45,7.6-26.02,2.08-90.08-15.09-111.92-23.46-29.84-50.53-15.84-71.93,6.9-23.07,24.51-33.72,55.71-53.46,82.58l-13.95-4.65c14.03-50.41-45.35-90.57-85.98-56.31-16.21,13.67-21.55,33.78-18.09,54.4ZM310.42,97.76c0,13.23-10.72,23.95-23.95,23.95s-23.95-10.72-23.95-23.95,10.72-23.95,23.95-23.95,23.95,10.72,23.95,23.95ZM304.64,97.76c0-10.03-8.13-18.16-18.16-18.16s-18.16,8.13-18.16,18.16,8.13,18.16,18.16,18.16,18.16-8.13,18.16-18.16ZM236,314v33h22v-7.01s-13,0-13,0l.44-6.07,11.57-.93v-6.01s-12.01.01-12.01.01v-6.01s13.01.01,13.01.01v-7.01h-22.01ZM315,314v33h22v-7.01s-13.01.01-13.01.01v-6.43s12.01-.57,12.01-.57v-6.01s-12.01.01-12.01.01v-6.01s13.01.01,13.01.01v-7.01h-22.01ZM203,314v7.01s9,0,9,0v26h9v-26h9.01s0-7,0-7h-27ZM297,314v33h10v-33h-10ZM207.16,211.66c-1.44,4.64-.78,16.58,6.76,14.26l3.09-10.92c2.59-.3,1.58.02,2.01,1.45,1.4,4.61-.82,8.95,5.97,8.55-.4-3.76.95-7.26,3.51-10,5.47,25.07,11.64-.58,1.51-3.62-2.91-.87-4.22,1.15-6.53,2.59-3.32-6.22-7.16-3.86-11.48.02.81-3.66-3.74-5.9-4.85-2.34ZM288,228c-5.42-1.6-14.25,2.12-17.9-3.6-5.02-7.87,4.66-14.84,11.89-11.4v-8c3.32-1.19,6.01,4.14,6.01,6.5v16.5ZM275.24,216.25c-1.9,3.01-2.15,7.83,2.08,8.6,2.36-.68,4.42-2.61,4.52-5.2l-3.82-4.16-2.78.76ZM308.87,219.88c-4.24,1.74-7.37,2.82-11.87,1.13,2.73,5.28,10.92,3.67,12.99-1.54,1.07-.85,4.86,2.48,1.55,5.58-5.2,4.88-16.2,2.45-19.41-3.68-6.6-12.59,19.41-16.81,16.74-1.49ZM302.9,213.09c-1.02-.73-7.47.27-5.89,3.41,3.54,4.55,9.58-.75,5.89-3.41ZM238.9,210.59c-3.34,8.12,4.45,13.99,12.1,13.91-2.4,4.8-7.07,0-8.99,3.49,9.72,4.72,15.49,1.28,16.03-9.45.22-4.42.69-9.16-5.09-7.09-1.62,3.24-2.33,7.47-6.46,8.61-4.96-1.42-2.41-6.52-3.56-9.97l-4.03.51ZM333.99,227c-4.48-1.08-17.37,1.54-18.04-5.55-.56-5.92,8.43-5.34,12.04-5.94-1.89-4.3-12.89.31-11.99-3.99,11.89-6.02,19.63,3.81,17.99,15.48ZM322.64,219.12c-5.43,1.65,3.7,6.86,6.34,2.38-1.57-2.14-3.68-3.19-6.34-2.38ZM342.07,210.43l-5.07-.43c1.16,6.23-.08,18.42,8.99,17.01.69-6.35.24-12.78,7.73-9.25,4.43,2.09,4.08-1.71.64-3.62-4.55-2.54-6.97,0-11.37.87l-.94-4.58ZM361.02,220h2.95c4.17-18.93-7.67-20.68-2.95,0ZM180.15,215.58l14.16,20.88,1.37-.93-14.16-20.88-1.37.93ZM373.99,217.01c-1.44-.24-1.31,1.69-1.73,2.74-2.8,7.11-4.35,14.69-7.25,21.76l1.98.49,7-25ZM194.14,216.44l9.98,20,1.46-.73-9.98-20-1.46.73ZM277.32,224.85c2.36-.68,4.42-2.61,4.52-5.2l-3.82-4.16-2.78.76c-1.9,3.01-2.15,7.83,2.08,8.6ZM297.01,216.49c3.54,4.55,9.58-.75,5.89-3.41-1.02-.73-7.47.27-5.89,3.41ZM328.98,221.5c-1.57-2.14-3.68-3.19-6.34-2.38-5.43,1.65,3.7,6.86,6.34,2.38ZM356,298c3.02-.28,6.87,1.11,9-1.5v-16.5l10.16,17.84,8.84.16v-34h-9v18l-10.2-17.79-8.8-.21v34ZM278.92,266.63c-8.3-6.27-29.37-2.88-23.4,11.35,2.41,5.75,15.16,5.97,15.27,10.34.15,5.51-11.71,1.86-14.78-.32l-2.02,6.98c7.63,4.25,25.58,5.75,26.08-6.51s-16.15-10.15-16.14-14.98c.01-5.33,11.3-2.67,14.05-.5l.93-6.37ZM285,264v7.01s9,0,9,0v27h9v-27h9.01s0-7,0-7h-27ZM328.74,264.24c11.35-1.93,21.58,2.98,22.27,15.3.8,14.19-11.29,21.76-24.46,17.41-14.72-4.86-13.33-30.07,2.19-32.71ZM330.72,271.21c-6.99,1.58-7.25,16.26-.46,19.03,13.95,5.68,16.92-22.75.46-19.03ZM330.26,290.24c13.95,5.68,16.92-22.75.46-19.03-6.99,1.58-7.25,16.26-.46,19.03ZM220.34,293.66c-7.88-7.88-5.42-26.44,6.59-29.23,16.25-3.77,27.01,7.31,22.4,23.4-3.19,11.1-21.36,13.46-28.99,5.83ZM230.71,271.22c-9.11,2.08-8.08,22.34,4.56,19.59,8.88-1.93,8.6-22.6-4.56-19.59ZM235.27,290.8c8.88-1.93,8.6-22.6-4.56-19.59-9.11,2.08-8.08,22.34,4.56,19.59ZM188,264c6.37.14,22.14-1.52,23.83,6.74.48,2.37-.02,5.07-1.77,6.83-1.91,1.92-4.77.46-4.05,3.42,6.27.59,8.61,6.63,5.42,11.94-3.62,6.02-17.04,4.64-23.42,5.08v-34ZM197,277c8.89.87,9.98-7.56,0-6.01v6.01ZM203.75,289.75l.35-4.29c-1.96-1.91-4.35-2.76-7.1-2.46v8.01s6.74-1.25,6.74-1.25ZM204.1,285.46c-1.96-1.91-4.35-2.76-7.1-2.46v8.01s6.74-1.25,6.74-1.25l.35-4.29ZM197,270.99v6.01c8.9.87,9.99-7.56,0-6.01ZM281.5,314c10.37,1.72,12.18,14.2,2.5,18.5,4.23,3.64,5.63,9.34,6.99,14.5l-8.86-.13c-1.91-3.56-1.45-10.71-6.62-10.89-2.12-.07-1.3,0-1.52,1.5-.27,1.79.38,9.17.01,9.54h-9.01v-33.01c5.07.58,11.67-.8,16.5,0ZM274,329c4.95.97,9.62-1.32,7.11-6.59l-7.1-2.41v9ZM281.11,322.41l-7.1-2.41v9c4.94.97,9.61-1.32,7.1-6.59ZM359.5,314c10.95,1.54,13.6,13.72,3.51,18.02v1.96c4.37,1.34,4.58,9.31,6.99,13.01l-9.04-.45-3.44-9.56-5.52-.99v11.01s-8,0-8,0v-33c4.87.48,10.79-.66,15.5,0ZM352,329c10.05,1.78,11.67-9.4.97-8.58l-.97,8.58ZM352.97,320.42l-.97,8.58c10.05,1.78,11.67-9.4.97-8.58ZM203.11,565.11c-2.5,5.05,0,15.56,6.46,15.89,2.27.11,3.73-1.65,4.93-1.65,1.12,0,2.55,1.61,4.09,1.68,2.47.13,5.33-3.38,9.41-1.04l-1.94-12.54-4.97-.36-2.58,8.9-2.55-9.97c-8.31-.57-2.98,6.24-6.45,10.97-3.02-1.72-.7-11.23-1.5-12l-4.89.12ZM343,628.99c-6.65-1.5-18.31,2.92-19.82-6.75-1.01-6.49,7.43-11.28,12.81-8.24v-8c9.88,1.05,4.14,16.01,7.01,22.99ZM331.5,616.04c-8.12,5.77-.46,15.15,4.54,5.46l-4.54-5.46ZM296,583c-2.22.95-4.35-1.48-5.51-1.58-1.7-.15-3.65,1.91-6.73,1.41-12.51-2.02-7.28-20.1,6.24-15.83l-.99-6.99c9.9-.79,4.63,16.18,6.99,22.99ZM282.1,578.89c3.7.84,6.08-.44,7.5-3.84l-4.24-4.97c-4.72,1.53-4.73,4.75-3.26,8.81ZM316,523c-2.18-.15-3.4,1.73-5.59,2-.97.12-9.35-1.94-6.41.99,2.37,2.36,11.75,2.22,12-2.99.24.28,6.63-.15,3.07,4.57-5.52,7.32-23.3,2.4-20.87-8.84,1.26-5.84,12.06-7.67,15.66-3.09,1.94,2.47,1.89,7.07,2.14,7.36ZM303,519.99c5.42,2.41,11.52.28,4.66-3.89l-4.66,3.89ZM305,576.01c2.87,4.9,10.94,3.63,12.02-2l3.72,2.48c-4.05,10.35-22.53,5.88-21.79-4.97.55-8.07,12.5-8.72,16.07-4.03,6.28,8.27-3.54,9.32-10.01,8.53ZM309.51,567.03l-5.49,3.47c3.7,4.5,10.03,2.24,5.49-3.47ZM282,622.01c3.25,5.66,10.99,3.31,13.5-1.99l2.53,3.49c-3.74,8.85-21.58,5.04-22.12-4.01s12.64-11.25,16.52-5.44c5.12,7.66-4.47,10.36-10.43,7.95ZM287.89,614.09c-1.95-1.22-8.33,1.89-6.89,3.9,2.19.36,4.85,1.95,7.04.55,1.49-.95.26-4.19-.15-4.44ZM370.8,530.8c-5.64,3.98-10.88,2.72-16.79.18-.04-1.7-.56-2.16,1.41-1.92,3.93.49,7.56,2.75,10.58-1.57-5.67-.31-12.94-1.37-11.97-8.9.86-6.7,11.6-8.48,15.04-3.16.71,1.09,2.21,14.53,1.73,15.37ZM361.62,515.05c-2.73.43-4.02,7.21-1.09,8.94,3.16.44,4.35-2.51,5.05-4.92.22-1.48-2.66-4.21-3.96-4.01ZM285.13,514.86c.43.67,8.94,1.4,11.14,6.42,3.14,7.17-7.68,9.87-12.85,9.63-3.67-.17-4.23-6.48-4.46-9.38-.26-3.3-1.02-16.31,5.11-12.11l1.06,5.43ZM289.75,520.25c-1.05-1.04-3.28-1.3-4.74-1.25-2.22,15.9,8.97,5.41,4.74,1.25ZM173.18,578.84c-3.5-5.7,5.9-11.26,10.81-7.84v-1.98s-12-1.02-12-1.02v-2.97c10.63-3.76,19.1,2.39,19.05,13.52-.03,5.87-3.35,1.99-4.52,1.93-2.7-.14-11.42,1.5-13.35-1.64ZM184.99,576.99c-.54-4.38-5.89-5.24-7.99-1.48-1.12,2.85,6.56,2.6,7.99,1.48ZM335.03,512.43l-4.07,1.24c.36,5.11-.52,16.74,6.94,15.23,1.41-3.94,1.8-8.89,6.08-10.9,0,11.62,10.6,17.62,5.96,2.55-3.43-11.11-13.04-2.58-13.94-3.55l-.97-4.57ZM258.07,564.43l-4.06-.43c-.72.69-.42,19.4,6.03,16.59,1.88-1.31,1.79-10.27,6.45-10.6.76-.01,2.8,16.09,7.04,10.04,1.69-2.4-1.59-11.54-3.96-13.09-3.85-2.52-7.14.46-10.56,2.07l-.94-4.57ZM303.4,610.05c-5.31-.89-2.49,14.85.57,16.49,5.2,2.79,4.33-8.71,8.53-10.52,2.76,2.03,2.11,9.99,5.1,10.89,6.25,1.89,1.17-12.38-.58-13.42-4.24-2.54-10.58,1.92-11.01,1.52l-2.62-4.96ZM212.44,518.07c-.77-2.31-1.15-5.37,1.06-7.05,10.19,17.03,8.37-3.18-1.02-3.09-5.3.05-5.98,7.06-4.91,11.1l-6.55,2.47,7.53,3.45c1.17,1.71-.54,8.16,4.49,5.48l-.04-7.42,9-1.01c-1.07-3.98-8.28-2.12-9.56-3.92ZM370.15,565.15c-4.19,9.12,6.9,22.08,14.35,11.87,1.28,1.48,5.88,6.07,7.49,2.46.37-.84-2.94-3.25-3.71-5.24-.87-2.25-1.16-7.66-2.9-8.18l-4.17,1.16-3.71,9.75-3.57-11.91-3.78.08ZM232.77,513.19c12.81-1.76,18.36,20.58-1.04,16.57-10.62-2.19-9.95-15.06,1.04-16.57ZM236.85,517.16c-1.29-.79-6,.08-6.92,1.51-5.48,8.48,10.37,12.28,8.91,3.09-.08-.53-1.77-4.47-1.98-4.6ZM365.98,567.51c-2.6-5.13-4.74-8.99-11.35-7.38-2.46.85-2.59,8.32-2.68,10.81l-5.94,1.55c1.38,3.27,5.55,1.87,6.84,2.66,1.53.93-.11,7.93,3.66,7.83,2.18-.06,1.44-7.42,1.49-8.98.65-.65,7.61,1.35,8.98-1.5l-9.92-2.55c-.19-2.73-.91-7.12,2.93-6.95l2.06,5.96,3.93-1.45ZM239.49,615.99c3.59-.7-1.57-9-4.2-9.8-10.21-3.07-5.92,8.3-7.72,10.87l-5.56.94c-.61,4.5,5.78,2.63,6.54,3.91.4,3.87.62,10.28,5.38,5.45l-.92-6.36,9.01-1.01-1.24-2.25-8.33-1.67c-1.5-2.08.49-9.01,2.56-7.07.67,2.33,1.6,6.5,4.5,6.99ZM237.73,565.24c1.94-.36,4.87-.6,6.75-.22,5.38,1.08,11.1,14.6-.23,16.77-12.36,2.37-19.25-14.19-6.52-16.55ZM237.24,569.24c-5.73,13.37,15.13,11.82,5.78-.79l-5.78.79ZM247.05,515.4c2.28,5.79.16,15.91,8.95,14.6.27-3.63.53-10.36,5.42-10.02,2.47.17,4.49,3.71,6.56.52-4.31-5.74-7.96-4.73-13.95-2.5-.12-4.53-5.24-7.69-6.98-2.59ZM248.03,610.44l-3.69,2c1.03,3.7,1.28,13.92,5.36,15.38,6.26,2.24,2.22-7.72,7.59-10.11l7.7,1.29c-1.83-7.15-8.81-4.82-13.96-3l-3.01-5.55ZM323.95,564.45c-1.63,1.08,1.11,12.91,2.24,14.86.82,1.42,2.01,2.06,3.48,2.58,3.57.27,2.68-8.8,5.31-10.43,1.49-1.98,9.05,3.87,9.01.04-.04-3.44-11.53-4.9-13.97-1.5-.6-3.71-1.53-7.56-6.06-5.54ZM395,579.5c0,1.01,4.41,4.68,5.05-.03.51-3.78-2.32-13-1.21-17.81l-1.36-1.65-2.48,1.49v18ZM272.86,617.64l-1.48-1.52-3.38-.12c.07,3.96-1.06,12.56,4.99,12l-.14-10.35ZM324.51,518.01c-2.98.94-1.9,13.72,3.49,11.99-.35-2.57,1.79-13.66-3.49-11.99ZM268.51,606.01c-3.3.85.99,9.63,4.48,7.99.48-2.62-.55-9.01-4.48-7.99ZM327.56,509.94l-4.56-.93c-.22,3.42.78,7.7,4.99,6.99l-.43-6.06ZM336.04,621.5l-4.54-5.46c-8.12,5.77-.46,15.15,4.54,5.46ZM289.6,575.05l-4.24-4.97c-4.72,1.53-4.73,4.75-3.26,8.81,3.7.84,6.08-.44,7.5-3.84ZM307.66,516.1l-4.66,3.89c5.42,2.41,11.52.28,4.66-3.89ZM304.02,570.5c3.7,4.5,10.03,2.24,5.49-3.47l-5.49,3.47ZM281,617.99c2.19.36,4.85,1.95,7.04.55,1.49-.95.26-4.19-.15-4.44-1.95-1.22-8.33,1.89-6.89,3.9ZM360.53,523.99c3.16.44,4.35-2.51,5.05-4.92.22-1.48-2.66-4.21-3.96-4.01-2.73.43-4.02,7.21-1.09,8.94ZM285.01,519c-2.22,15.9,8.97,5.41,4.74,1.25-1.05-1.04-3.28-1.3-4.74-1.25ZM177.01,575.51c-1.12,2.85,6.56,2.6,7.99,1.48-.54-4.38-5.89-5.24-7.99-1.48ZM229.93,518.67c-5.48,8.48,10.37,12.28,8.91,3.09-.08-.53-1.77-4.47-1.98-4.6-1.29-.79-6,.08-6.92,1.51ZM243.02,568.45l-5.78.79c-5.73,13.37,15.13,11.82,5.78-.79ZM320.26,475.24l6.73,1.24c-2.22,3.33-5.15,2.9-8.48,1.5l-.51,2c4.52,1.9,10.02,3.82,13.47-1.01,1.7-2.38,3.85-14.54.54-16.5-5.21-2.7-4.4,9.24-9.53,9.58-3.79-.01-3.75-7.54-3.49-10.06-9.4-.87-4.36,10.79,1.26,13.25ZM284.08,458.63c2.46,6.4-2.36,19.71,6.92,20.37v-8c6.45-1.74,3.53,6.81,9.5,8.04l2.47-1.52-3.95-8.02c4.49-1.63,4.15-6.28-1.02-5.04-2.37.57-5.01,3.06-7.99,2.54-.87-.91,2.54-15.19-5.93-8.37ZM251.99,468c.58-2.3-.99-2.4-2.73-2.72-3.08-.57-6.18-.2-9.26-.28,2.04-7.6,14.74-3.22,17.23,2.27.9,1.99,3.08,11.27.24,11.74-3.52-2.97-4.25-.14-7.68-.23-14.7-.34-9.81-14.48,2.2-10.79ZM245,473.99c12.5,4.28,7.35-6.83,1.65-2.88-1.19.82-2,1.19-1.65,2.88ZM264.41,477.09c5.85,4.9,4.58-9.99,10.08-10.1,2.89,20.68,12.67,7.42,3.96-1.93-4.72-5.06-10.97,1.43-11.44.94l-1.02-5c-7.57-2.14-3.7,14.31-1.58,16.08ZM220,473.5c0,2.09,1.78,5.95,4.42,5.46,3.14-.59-.48-12.14,5.57-11.96,7.53,28.15,11.93-.77.49-2.99-1.76-.34-3.63.29-5.39-.11l-2.6-6.9-2.49,1.5v15ZM367.5,473.98c-3.66-1.68-2.43-15.09-7.54-11.52s6.23,23.36,13.67,12.63l6.84,2.91c1.79-.37,1.25-1.24.51-2.48-2.34-3.9-4.24-6.01-4.92-11.11l-1.72-1.23-3.11,1.07-3.74,9.72ZM342.71,462.21c16.69-3.82,18.32,21.76.45,16.12-9.24-2.92-9.15-14.13-.45-16.12ZM345.73,465.13c-7.09,1.06-5.58,11.2.68,10.88,8.02-.4,3.63-11.52-.68-10.88ZM209.48,458.01c-6.56-.68-13.19.32-19.48,2,2.55,4.5,7.04,2.59,10.99,1.99.13,3.74.78,15.47,4.52,16.99,1.72.7,1.96-1.48,1.97-2.49.02-2.29-1.2-13.8-.49-14.5h10c.32-3.32-5.06-3.73-7.51-3.98ZM246.65,471.11c-1.19.82-2,1.19-1.65,2.88,12.5,4.28,7.35-6.83,1.65-2.88ZM346.4,476.01c8.02-.4,3.63-11.52-.68-10.88-7.09,1.06-5.58,11.2.68,10.88ZM331,683c6.14-.18,19.92-1.68,16.82,8.31-.9,2.89-4.58,1.66-3.82,4.68,3.61-.27,4.87,2.24,5.06,5.53.55,9.68-11.48,7.23-18.06,7.48v-26ZM336,694l7.91-2.62-.39-3.41-7.52-1.98v8.01ZM343.75,698.24c-1.58-1.56-5.62-1.23-7.75-1.25v9.01c4.33,1.33,12.2-3.37,7.75-7.76ZM248,709h5.01c.64-5.52-2.84-15.61,5.5-15.1,4.07.25,2.01,12.18,2.5,15.1h4v-14.5c0-.36-1.53-2.51-2.05-2.94-4.6-3.86-9.05,1.41-9.95.44v-10s-5.01,0-5.01,0v27ZM223,683v4s7,0,7,0v22h5v-22h8s0-4,0-4h-20ZM326,701h-13c.05,6.33,6.46,6.98,10.99,4l-.06,3.93c-5.97,1.66-13.61,1.12-15.46-5.91-4.07-15.48,19.63-18.38,17.54-2.02ZM320.75,694.25c-3.02-3.01-9.25.06-7.75,4.74h9c.05-1.44-.22-3.72-1.25-4.74ZM302.72,692.28c1.23,1.23,3.2,7.77,2.28,8.72-3.47.19-7.05-.26-10.52,0-1.51.12-2.87-.78-2.5,1.51.3,1.87,2.33,3.64,4,4.09,3.64.97,8.02-3.34,7.02,2.39-7.02,2.01-15.66.22-16.07-8.51s9.81-14.18,15.78-8.21ZM299.74,694.26c-3.51-3.34-8.99-.16-7.74,4.74l8.04-.46c1.53-.94.65-3.38-.3-4.28ZM270,709h5.01c.35-4.06-1.45-11.38,2.59-13.9,2.45-1.53,6.99-.22,6.41-4.59-.25-1.92-8.01,1.6-8.51,3.49l-.55-2.91-4.95-.08v18ZM336,697v9.01c4.33,1.33,12.2-3.37,7.75-7.76-1.58-1.56-5.62-1.23-7.75-1.25ZM343.92,691.38l-.39-3.41-7.52-1.98v8.01s7.92-2.62,7.92-2.62ZM313,699h9c.05-1.44-.22-3.72-1.25-4.74-3.02-3.01-9.25.06-7.75,4.74ZM292,699l8.04-.46c1.53-.94.65-3.38-.3-4.28-3.51-3.34-8.99-.16-7.74,4.74Z"/>
</svg>