<?xml version="1.0" encoding="UTF-8"?>
<svg id="_レイヤー_1" data-name="レイヤー 1" xmlns="http://www.w3.org/2000/svg" width="199.93mm" height="287.92mm" viewBox="0 0 566.74 816.14">
  <path d="M335.45,73.44l25.99,8.01c10.03-30.24,63.85-49.07,68.02-5,20.53-4.85,33.6,6.23,46.51,19.98,7.32,7.79,19.42,27.22,25.99,32.01,9.72,7.09,25.92,8.18,37.51,17.49,13.18,10.59,12.67,16.62,18.48,30.52,1.96,4.69,5.49,8.44,7.02,13.98,2.13,7.69,2.83,22.09-.79,29.25s-14.03,13.27-18.16,18.84c-1.58,2.14-2.89,7.28-4.77,10.23-2.41,3.77-6.58,8-8.37,11.63-3.73,7.62-4.23,22.71-7.72,32.28-1.8,4.93-6,10.3-7.42,14.58-2.37,7.13-.69,12.92-5.87,20.13-4.85,6.75-11.83,7.35-17.94,12.06.54,11.21-6.58,21.45-8.41,31.59-.88,4.89-.6,11.8-1.09,16.91-.25,2.62-2.25,7.99-1.83,9.82.27,1.14,4.39,4.61,5.71,7.32,6.91,14.16.09,23.67-10.88,32.36,18.73,12.44,22.49,37.52,20.99,58.51-.9,12.57-6.77,28.48-6.88,40.12-.08,8.37,2.78,12.5.44,22.44-.8,3.42-3.99,8.59-4.07,11.44-.18,6.39,11.36,29.55,13.23,39.31,2.1,10.99-.35,16.24-.15,25.34.34,15.45,7.18,21.07.2,39.12-3.8,9.85-17.34,26.05-17.73,36.34-.13,3.34,4.47,9.48,5.74,13.13,7.46,21.33.32,46.61-20.73,56.82-15.29,7.41-32.77,6.59-49.34,6.44-27.74,41.56-107.14,39.08-131.51-4.68-4.35-7.82-3.27-16.62-15.31-12.71-4.6,17.45-18.35,31.87-34.53,39.26-31.59,14.43-81.96,9.52-102.06-21.88-27.29,1.33-61.89-.75-70.8-31.98-4.57-16.02-1.28-28.97,6.25-43.33-6.49-20.51-22.36-33.13-20.73-56.16.42-5.99,3.73-14.01,3.9-19.11.09-2.81-1.65-5.88-1.91-8.92-.66-7.92.71-15.65,2.73-23.25,2.28-8.61,11.35-26.19,11.74-33.11.2-3.65-5.19-12.96-5.47-19.66-.99-23.02,14.44-38.2,18.72-57.25,4.12-18.36,4.9-27.02,13.09-44.91,1.48-3.23,4.41-5.67,4.19-9.31-12.32-.82-20.26-12.53-19-24.51.39-3.67,2.47-6.09,2.93-9.05,1.09-7.05-2.06-10.9-2.82-17.05-.71-5.67-.01-13.19-1.17-18.83-2.1-10.24-10.14-21.11-7.89-32.91-9.13-3.35-16.08-8.81-18.61-18.6-.9-3.49-.54-7.63-1.74-11.26-1.42-4.28-5.62-9.65-7.42-14.58-3.5-9.59-3.88-23.79-7.39-31.61-.82-1.82-12.27-20.91-13.47-22.53-2.55-3.45-11.23-9.68-14.42-13.58-7.57-9.24-7.54-22.47-4.71-33.7,1.54-6.12,5.08-9.7,7.21-14.79,5.82-13.9,5.3-19.92,18.48-30.52,12.64-10.16,32.61-11.19,41.99-22.01,13.57-15.64,24.1-36.69,44.35-45.65,3-1.33,6.37-1.3,8.63-2.37,2.38-1.13,5.99-6.54,9.35-8.65,19.7-12.34,49.36.25,62.26,17.26l37.44-11.07c-9.49-26.64,3.81-57.68,29.73-68.75,44.65-19.07,89.65,23.28,74.26,68.75ZM328.45,77.44c7.66-19.09,6.09-39.86-7.97-55.52C300.67-.15,265.47.03,245.94,22.44c-13.64,15.65-15.02,36.18-7.48,55.01-15.53,2.61-30.63,7.42-45.36,12.85-15.07-17.17-43.68-32.98-63.67-14.37-1.45,1.35-2.65,4.38-3.97,5.03-4.23,2.08-10.18,1.85-16.33,5.67-17.27,10.75-31.07,41.39-44.7,48.3-21.19,10.75-36.6,8.34-47.76,34.24-4.17,9.69-10.8,23.47-11.27,33.73-.36,7.89-.3,12.03,5,18.1,3.1,3.55,12.94,11.32,14.73,13.76,1.51,2.06,3.22,8.34,5.12,11.38,7.66,12.27,8.18,9.35,11.47,24.53,3.31,15.29,7.81,21.6,12.42,34.58,3.13,8.79.37,18.67,10.97,24.03,2.36,1.2,5.38,1.19,7.33,2.67,2.69,2.04,2.49,12.95,3.47,17.53,1.54,7.15,6.26,15.02,7.3,21.7.74,4.78-.14,9.81.36,14.64.56,5.32,3.49,11.19,3.6,16.4.19,8.61-5.89,11.31-2.49,21.5,2.96,8.86,10.9,11.55,19.66,10.84,3.29,2.93-5.34,14.46-7.07,18.22-8.36,18.15-7.93,30.8-13.54,47.46-6.51,19.32-19.36,32.46-16.2,55.63.59,4.32,3.63,7.32,4.47,10.57,1.84,7.14-9.86,30.84-12.06,40.01-.94,3.88-2.4,10.75-2.51,14.55-.15,5.38,2.46,10.03,2.55,13.95.14,6.02-4.49,16.68-4.57,24.07-.16,14.65,11.02,27.26,16.89,40.09.89,1.94,5.13,11.77,5.1,12.87-.07,2.18-8.03,14.43-8.84,22.11-4.5,42.73,36.77,50.54,70.24,46.45,24.14,42.43,104.84,39.32,125.52-4.69,3.98-8.46.8-13.72,12.61-13.46,12.54.28,9.82,5.73,13.96,14.12,21.39,43.35,101.08,46.35,125.18,4.03,33.07,4.01,74.1-3.44,70.34-45.55-.83-9.31-5.48-15.66-8.97-23.9,3.33-19.97,21.44-34.1,21.61-54.28.07-7.73-3.57-16.26-3.61-22.83-.04-8.16,2.46-11.54.69-21.71-2.07-11.9-13.94-34.7-13.81-43.31.06-3.96,4.37-9.11,5.02-14.06.95-7.27-1.21-14.12-.91-20.89.43-9.92,4.6-21.95,5.87-32.16,2.92-23.6.75-44.5-17.86-60.88l-10.01-7.48c13.23-.16,24.28-8.81,20.52-23.04-1.19-4.52-9.57-10.19-9.38-12.29,5.74-8.16,2.71-18.08,4.09-26.94,1.66-10.68,10.88-22.89,8.71-35.08,7.64-6.41,16.71-5.09,20.91-15.29,2.24-5.45,1.63-10.48,3.44-15.56,4.62-12.98,9.11-19.28,12.42-34.58,3.32-15.34,3.93-12.2,11.47-24.53,1.98-3.24,3.22-8.6,4.93-11.07,1.49-2.16,4.91-3.1,6.87-5.13,2.27-2.34,7.66-8.09,9.53-10.47,7.83-9.92,2.24-26.49-2.32-36.72-2.92-6.56-5.28-14.3-8.68-20.32-10.69-18.92-27.77-19.01-44.5-27.5-9.37-4.75-13.55-15.14-20.05-22.95-10.56-12.69-24.68-31-42.63-31.46-3.25-.08-11.26,2.45-13.32,1.48-3.89-1.82-2.62-8.51-3.26-11.82-1.78-9.31-11.99-15.13-21.1-14.66-17.22.89-32.02,16.89-38.28,31.87l-35.39-9.96ZM305.75,49.45c0,12.31-9.98,22.3-22.3,22.3s-22.3-9.98-22.3-22.3,9.98-22.3,22.3-22.3,22.3,9.98,22.3,22.3ZM300.4,49.48c0-9.36-7.58-16.94-16.94-16.94s-16.94,7.58-16.94,16.94,7.58,16.94,16.94,16.94,16.94-7.58,16.94-16.94Z"/>
</svg>