<?xml version="1.0" encoding="UTF-8"?>
<svg id="_レイヤー_1" data-name="レイヤー 1" xmlns="http://www.w3.org/2000/svg" width="204.61mm" height="305.86mm" viewBox="0 0 580 867">
  <path d="M342,102.99l25.99,8.01c10.03-30.24,63.85-49.07,68.02-5,20.53-4.85,33.6,6.23,46.51,19.98,7.32,7.79,19.42,27.22,25.99,32.01,9.72,7.09,25.92,8.18,37.51,17.49,13.18,10.59,12.67,16.62,18.48,30.52,1.96,4.69,5.49,8.44,7.02,13.98,2.13,7.69,2.83,22.09-.79,29.25s-14.03,13.27-18.16,18.84c-1.58,2.14-2.89,7.28-4.77,10.23-2.41,3.77-6.58,8-8.37,11.63-3.73,7.62-4.23,22.71-7.72,32.28-1.8,4.93-6,10.3-7.42,14.58-2.37,7.13-.69,12.92-5.87,20.13-4.85,6.75-11.83,7.35-17.94,12.06.54,11.21-6.58,21.45-8.41,31.59-.88,4.89-.6,11.8-1.09,16.91-.25,2.62-2.25,7.99-1.83,9.82.27,1.14,4.39,4.61,5.71,7.32,6.91,14.16.09,23.67-10.88,32.36,18.73,12.44,22.49,37.52,20.99,58.51-.9,12.57-6.77,28.48-6.88,40.12-.08,8.37,2.78,12.5.44,22.44-.8,3.42-3.99,8.59-4.07,11.44-.18,6.39,11.36,29.55,13.23,39.31,2.1,10.99-.35,16.24-.15,25.34.34,15.45,7.18,21.07.2,39.12-3.8,9.85-17.34,26.05-17.73,36.34-.13,3.34,4.47,9.48,5.74,13.13,7.46,21.33.32,46.61-20.73,56.82-15.29,7.41-32.77,6.59-49.34,6.44-27.74,41.56-107.14,39.08-131.51-4.68-4.35-7.82-3.27-16.62-15.31-12.71-4.6,17.45-18.35,31.87-34.53,39.26-31.59,14.43-81.96,9.52-102.06-21.88-27.29,1.33-61.89-.75-70.8-31.98-4.57-16.02-1.28-28.97,6.25-43.33-6.49-20.51-22.36-33.13-20.73-56.16.42-5.99,3.73-14.01,3.9-19.11.09-2.81-1.65-5.88-1.91-8.92-.66-7.92.71-15.65,2.73-23.25,2.28-8.61,11.35-26.19,11.74-33.11.2-3.65-5.19-12.96-5.47-19.66-.99-23.02,14.44-38.2,18.72-57.25,4.12-18.36,4.9-27.02,13.09-44.91,1.48-3.23,4.41-5.67,4.19-9.31-12.32-.82-20.26-12.53-19-24.51.39-3.67,2.47-6.09,2.93-9.05,1.09-7.05-2.06-10.9-2.82-17.05-.71-5.67-.01-13.19-1.17-18.83-2.1-10.24-10.14-21.11-7.89-32.91-9.13-3.35-16.08-8.81-18.61-18.6-.9-3.49-.54-7.63-1.74-11.26-1.42-4.28-5.62-9.65-7.42-14.58-3.5-9.59-3.88-23.79-7.39-31.61-.82-1.82-12.27-20.91-13.47-22.53-2.55-3.45-11.23-9.68-14.42-13.58-7.57-9.24-7.54-22.47-4.71-33.7,1.54-6.12,5.08-9.7,7.21-14.79,5.82-13.9,5.3-19.92,18.48-30.52,12.64-10.16,32.61-11.19,41.99-22.01,13.57-15.64,24.1-36.69,44.35-45.65,3-1.33,6.37-1.3,8.63-2.37,2.38-1.13,5.99-6.54,9.35-8.65,19.7-12.34,49.36.25,62.26,17.26l37.44-11.07c-9.49-26.64,3.81-57.68,29.73-68.75,44.65-19.07,89.65,23.28,74.26,68.75ZM335,106.99c7.66-19.09,6.09-39.86-7.97-55.52-19.81-22.07-55.02-21.89-74.54.51-13.64,15.65-15.02,36.18-7.48,55.01-15.53,2.61-30.63,7.42-45.36,12.85-15.07-17.17-43.68-32.98-63.67-14.37-1.45,1.35-2.65,4.38-3.97,5.03-4.23,2.08-10.18,1.85-16.33,5.67-17.27,10.75-31.07,41.39-44.7,48.3-21.19,10.75-36.6,8.34-47.76,34.24-4.17,9.69-10.8,23.47-11.27,33.73-.36,7.89-.3,12.03,5,18.1,3.1,3.55,12.94,11.32,14.73,13.76,1.51,2.06,3.22,8.34,5.12,11.38,7.66,12.27,8.18,9.35,11.47,24.53,3.31,15.29,7.81,21.6,12.42,34.58,3.13,8.79.37,18.67,10.97,24.03,2.36,1.2,5.38,1.19,7.33,2.67,2.69,2.04,2.49,12.95,3.47,17.53,1.54,7.15,6.26,15.02,7.3,21.7.74,4.78-.14,9.81.36,14.64.56,5.32,3.49,11.19,3.6,16.4.19,8.61-5.89,11.31-2.49,21.5,2.96,8.86,10.9,11.55,19.66,10.84,3.29,2.93-5.34,14.46-7.07,18.22-8.36,18.15-7.93,30.8-13.54,47.46-6.51,19.32-19.36,32.46-16.2,55.63.59,4.32,3.63,7.32,4.47,10.57,1.84,7.14-9.86,30.84-12.06,40.01-.94,3.88-2.4,10.75-2.51,14.55-.15,5.38,2.46,10.03,2.55,13.95.14,6.02-4.49,16.68-4.57,24.07-.16,14.65,11.02,27.26,16.89,40.09.89,1.94,5.13,11.77,5.1,12.87-.07,2.18-8.03,14.43-8.84,22.11-4.5,42.73,36.77,50.54,70.24,46.45,24.14,42.43,104.84,39.32,125.52-4.69,3.98-8.46.8-13.72,12.61-13.46,12.54.28,9.82,5.73,13.96,14.12,21.39,43.35,101.08,46.35,125.18,4.03,33.07,4.01,74.1-3.44,70.34-45.55-.83-9.31-5.48-15.66-8.97-23.9,3.33-19.97,21.44-34.1,21.61-54.28.07-7.73-3.57-16.26-3.61-22.83-.04-8.16,2.46-11.54.69-21.71-2.07-11.9-13.94-34.7-13.81-43.31.06-3.96,4.37-9.11,5.02-14.06.95-7.27-1.21-14.12-.91-20.89.43-9.92,4.6-21.95,5.87-32.16,2.92-23.6.75-44.5-17.86-60.88l-10.01-7.48c13.23-.16,24.28-8.81,20.52-23.04-1.19-4.52-9.57-10.19-9.38-12.29,5.74-8.16,2.71-18.08,4.09-26.94,1.66-10.68,10.88-22.89,8.71-35.08,7.64-6.41,16.71-5.09,20.91-15.29,2.24-5.45,1.63-10.48,3.44-15.56,4.62-12.98,9.11-19.28,12.42-34.58,3.32-15.34,3.93-12.2,11.47-24.53,1.98-3.24,3.22-8.6,4.93-11.07,1.49-2.16,4.91-3.1,6.87-5.13,2.27-2.34,7.66-8.09,9.53-10.47,7.83-9.92,2.24-26.49-2.32-36.72-2.92-6.56-5.28-14.3-8.68-20.32-10.69-18.92-27.77-19.01-44.5-27.5-9.37-4.75-13.55-15.14-20.05-22.95-10.56-12.69-24.68-31-42.63-31.46-3.25-.08-11.26,2.45-13.32,1.48-3.89-1.82-2.62-8.51-3.26-11.82-1.78-9.31-11.99-15.13-21.1-14.66-17.22.89-32.02,16.89-38.28,31.87l-35.39-9.96ZM312.3,79c0,12.31-9.98,22.3-22.3,22.3s-22.3-9.98-22.3-22.3,9.98-22.3,22.3-22.3,22.3,9.98,22.3,22.3ZM306.94,79.03c0-9.36-7.58-16.94-16.94-16.94s-16.94,7.58-16.94,16.94,7.58,16.94,16.94,16.94,16.94-7.58,16.94-16.94ZM222.92,261.91l3.6-9.9,3.16,8.06,3.32.94c1.04-3.14.33-7.57,4-9l2.15,8.86,3.85.15c.52-4.74-.44-9.18-3.99-12.54-3.42-1.71-4.61,1.52-6.52,1.56l-5.93-3.08-5.54,4.05v-4.01c-4.62-4.56-7.33,17.95,1.91,14.92ZM292,264c-1.9.7-3.42-1.5-4.51-1.59-1.35-.11-3.15,1.45-4.99,1.46-12.77.11-10.17-17.98,3.51-14.87v-6.01s3.85.15,3.85.15c.05,1.44,2.14,4.68,2.14,5.36v15.5ZM279.11,259.89c3.55,1.89,8.57-1.49,5.95-5.43-3.8-5.73-7.35.61-5.95,5.43ZM318.23,583.84l2.71.21c1.15,8.89-12.58,8.72-17.35,3.87-10.66-10.82,13.78-20.91,14.64-4.08ZM313,581.99c.58-5.25-4.43-5.14-6.98-1.49,2.07,2.49,4.15,2.55,6.98,1.49ZM366.74,576.26c.88.93,2.19,10.58,2.22,12.39.1,6.97-13.13,6.43-15.95,1.36,3.98-.58,8.66,2.67,11-2-21.02.68-6.82-21.86,2.74-11.75ZM362.74,583.73c3.42-4.11-2.32-10.08-5-4.46-2.2,4.6,2.76,7.15,5,4.46ZM260,247.42l-6.5,9.56c-3.18-2.55-3.93-5.1-2.94-9.01l-4.55-.98c-1.21,7.53,2.98,13.82,10.99,13.01l-1.66,2.91-4.82-.93c-1.84,2.61,3.68,4.01,5.75,3.81,8.47-.83,8.31-11.34,7.59-17.63l-3.86-.73ZM300,257.01c2.99,5.37,9.49,3.46,12.51-1.01,4.09.87,2.7,4.28-.14,5.87-4.52,2.54-12.79,1.54-15.85-2.9-7.96-11.5,14.71-18.24,15.01-3.93-3.35,3.41-7.33,3.3-11.53,1.96ZM305.89,250.1c-9.82-.61-5.75,6.28,1.11,3.89l-1.11-3.89ZM289.05,576.95c.41.43,7.93.2,10.2,5.31,3.11,7.02-5.99,9.82-11.72,8.71s-3.66-15.23-2.57-19.51h3.08s1.02,5.49,1.02,5.49ZM289.01,588c7.15.43,6.24-9.34-.01-7.49v7.49ZM319.24,260.77c-5.22-5.04,3.71-10.07,8.76-9.26l-10.97-3c10.7-5.77,19.36,2.45,17.51,13.53-1.64,2.33-2.95-.61-4.04-.67-.91-.05-2.09,1.37-3.78,1.37-1.21,0-6.74-1.24-7.48-1.95ZM322,256.01c-.79,4.39,8.03,3.42,7.98,1.49-2.3-3.36-4.6-2.61-7.98-1.49ZM216.95,580.96l-5.95,1.54c.88,2.44,6.68,2.28,6.94,2.56s-.16,6.96,2.56,6.92c3.54-.05,1.17-7.65,1.5-7.98,2.69-.19,6.02.97,7.99-1.52l-8.58-3.45.6-6.03c2.15.02,4.34,8.76,6.98,5.99,4.2-4.39-14.89-18.47-12.04,1.96ZM337.98,589.99c.06-1.73,3.58-11.8,6.01-9.99,1.4,3.56.71,10.82,6,9.99,1.45-9.07-3.49-18.29-12.98-11-5.44-15.25-8.55,11.88.97,10.99ZM239.74,575.24c3.87-.68,5.65-.74,8.27,2.26,4.31,4.94,4.88,11.86-2.75,13.3-12.38,2.34-17.85-13.37-5.52-15.56ZM238.25,586.75c2.48,1.62,5.51,1.98,7.29-.77l-1.48-7.54c-3.9-2.67-9.71,4.4-5.8,8.31ZM254,575c.84,5.48.18,16.66,8,16,.9-6.25.08-11.18,7.5-8.99,6.04,1.78,2.23-3.39-1.03-4s-5.84.4-8.45,1.99l-1.15-4.86-4.86-.13ZM337.12,248.58c-.24,2.52,4.19,19.67,8.39,13.43,2.98-4.44-2.03-12.83,10.49-7.01-.13-7.29-8.38-5.01-12.99-2.99.83-4.31-2.49-7.29-5.88-3.42ZM361.5,256.98c3-3.5,1.03-9.58,1.41-13.87-6.27-4.39-4.57,13.82-1.41,13.87ZM328.84,580.66l-.79-1.21-3.05-.44c.38,4.16-1.98,11.35,3.99,11.99l-.15-10.34ZM328.56,571.94l-4.56-.93c-1.07,1.02,2.21,7.85,4.99,6.99l-.43-6.06ZM366,387h9v-19l11.01,18.49,8.99.51v-34h-9v18l-10.16-17.84-9.84-.16v34ZM214,366h-16v7.01s7.01-.01,7.01-.01v7.01c-23.1,2.41-14.9-30.4,4.98-18.01,3.6-7.64.92-8.84-6.75-9.75-14.63-1.73-24.42,8.81-20.28,23.3,3.84,13.46,20.06,13.04,31.05,9.45v-19ZM271,353v34h9.01s.93-13.56.93-13.56l11.07-.43v-6.01s-12.01.01-12.01.01v-7.01s13.01.01,13.01.01v-7.01h-22.01ZM300,353v34h9v-14h12.01s0-6.01,0-6.01l-12.02-.57v-6.43s12.02.01,12.02.01v-7.01h-21.01ZM254,353v34h9v-34h-9ZM340.77,352.25c26.88-3.31,28.1,38.64-1.18,34.66-18.11-2.47-18.86-32.19,1.18-34.66ZM339.71,360.22c-5.84,1.71-6.43,15.3-.08,18.65,14.31,7.55,18.52-24.04.08-18.65ZM339.63,378.86c14.31,7.55,18.52-24.04.08-18.65-5.84,1.71-6.43,15.3-.08,18.65ZM231,307v23.5c0,.27,1.76,4.23,2.15,4.85,4.15,6.64,15.48,7.43,21.37,2.67,1.46-1.18,4.48-6.06,4.48-7.52v-23.5h-9v23.5c0,4.86-10,4.13-10-1v-22.5h-9ZM402.49,306.02c-6.82-.58-17.03.77-17.16,9.66-.18,11.26,17.43,10.88,16.62,15.71-.9,5.41-11.84,1.15-14.94-.39l-2.02,6.96c8.35,4.23,26.49,5.72,26.09-7.47-.34-11.24-15.68-11-16.15-13.08-.2-.88-.02-2.74.49-3.48,4.32-2.58,9.2,0,13.56,1.07,2.65-7.26.43-8.39-6.5-8.98ZM297.97,322.26c3.3,4.33,14.54,4.5,14.09,9.24-.63,6.69-14.47-1.09-15.06-.49-1.91,7.11-.5,8.64,6.73,9.76,7.41,1.15,18.41-.74,18.3-10.28-.13-11.07-17.78-10.11-16.98-14.87,3.5-5.21,10.13-1.8,14.94-.61l1.01-6.99c-9.9-6.02-33.51.48-23.03,14.24ZM266.97,322.26c3.3,4.33,14.54,4.5,14.09,9.24-.63,6.69-14.47-1.09-15.06-.49-1.91,7.11-.5,8.64,6.73,9.76s18.58-.72,18.2-10.17c-.45-11.16-12.6-8.06-16.89-14.97,3.5-5.21,10.13-1.8,14.94-.61l1.01-6.99c-9.91-6.15-33.52.47-23.03,14.24ZM328,307v33h22v-7.01s-13.01.01-13.01.01v-6.43s12.01-.57,12.01-.57v-6.01s-12.01.01-12.01.01v-6.01s13.01.01,13.01.01v-7.01h-22.01ZM357,307v33h23v-7h-14v-26h-9ZM169,306c7.25.54,27.37-1.11,23.57,11.04-1.02,3.26-3.97,3.71-5.56,5.94,10.67.74,7.41,17.01-.51,17.01h-17.5v-34ZM178,320l6.55-1.97c1.61-4.4-3.08-5.57-6.55-5.03v7.01ZM184.77,327.24l-6.77-1.25v8.01c4.51.97,9.25-2.33,6.77-6.76ZM178,326v8.01c4.51.97,9.25-2.33,6.77-6.76l-6.77-1.25ZM184.55,318.03c1.61-4.4-3.08-5.57-6.55-5.03v7.01s6.55-1.97,6.55-1.97ZM218.5,307c7.9,1.7,9.13,15.51.52,18.5l6.98,14.49-9.9-.09c-1.44-4.36-1.32-12.33-7.59-11.91l-.51,12.02h-9.01v-33.01c5.65.82,14.3-1.12,19.5,0ZM208,322c10.93,1.32,11.09-10.65,0-9.01v9.01ZM208,313v9.01c10.93,1.32,11.09-10.65,0-9.01ZM238.5,353c10.17,1.67,11,15.42,1.5,18.5,2.95,1.09,7.95,14.59,6.99,15.5l-8.9-.1c-1.59-5.23-1.56-13.54-9.1-11.9v12.01s-8,0-8,0v-34c5.37.61,12.37-.84,17.5,0ZM236.75,366.76c5.62-5.55-10.95-14.83-7.75,1.25,2.13-.02,6.18.31,7.75-1.25ZM229,368c2.13-.02,6.18.31,7.75-1.25,5.62-5.55-10.95-14.83-7.75,1.25ZM285.06,254.46c-3.8-5.73-7.35.61-5.95,5.43,3.55,1.89,8.57-1.49,5.95-5.43ZM306.02,580.5c2.07,2.49,4.15,2.55,6.98,1.49.58-5.25-4.43-5.14-6.98-1.49ZM357.74,579.27c-2.2,4.6,2.76,7.15,5,4.46,3.42-4.11-2.32-10.08-5-4.46ZM307,253.99l-1.11-3.89c-9.82-.61-5.75,6.28,1.11,3.89ZM288.99,580.51v7.49c7.16.43,6.25-9.34,0-7.49ZM329.98,257.5c-2.3-3.36-4.6-2.61-7.98-1.49-.79,4.39,8.03,3.42,7.98,1.49ZM255.62,542.97c.72.06,8.05-.17,8.4-.41,1.76-1.22.22-7.72-.5-9.58-3.16-8.12-16.57-6.78-16.5-4.48,2.8,4.32,9.23-1.19,11.98,4.49-10.79-4-16.78,8.89-3.38,9.98ZM324.39,536.94c-5.36.94-1.19-15.01-8.23-8.28-1.4,7.41,4.71,12.47,11.85,11.35-1.53,3.53-4.82,3.73-7.99,1.99-1.82,2.14,7.12,6.52,11.44,1.94,3.75-3.98,2.32-10.98,2.56-15.95l-4.89.12-4.73,8.82ZM289,537.5c0,1.75,3.57,7.41,6.01,5,.28-2.54-1.02-5.64,1.49-7.48,3.04,1.97,3.23,7.37,6.99,8,4.47.74-1.61-8.45-1.56-9.45s3.92-.95,3.06-3.56c-3.94-1.58-7.11,1.6-10.99,1.99l-.9-8.41-4.1-.59v14.5ZM270.51,526.02l-3.41,2.65c.62,2.94.49,11.44,2.9,12.84,5.97,3.47,3.74-7.05,8.51-9.49l3.65,9.83,3.85.15c-.33-5.99-.7-13.85-8.52-13.09-2.61.25-3.19,2.02-5.47,2.09l-1.5-4.97ZM359.51,527.01c-3.35.7-1.99,13.84,6.06,14.96,2.82.39,5.22.37,5.45-2.97,2.51,1.75,4.62,3.55,7.97,3-1.9-4.42-5.47-7.51-5.04-12.94l-4.85.05-2.11,8.89c-5.5.5-2.61-12-7.47-10.99ZM229,540.5c0,.95,3.55,3.2,5,2.5-.08-2.3.07-11.03,3.49-11.01l3.65,10.87,3.85.14c.53-4.68-1.38-12.87-6.75-13.86-1.55-.28-3.71.84-4.28.42-1.94-1.41.52-7.85-4.96-6.57v17.5ZM343.74,527.21c10.85-2.13,16.12,14.11,5.7,15.73-13.83,2.16-17.38-13.44-5.7-15.73ZM349.87,538.87c1.72-13.07-13.5-9.4-6.88.65l6.88-.65ZM206.51,524.01c-.88.08-7.52.82-5.51,2.98l9.99,1.02c-.45,2.43,2.08,18.78,6,15l-.94-14.41,2.2-1.41,7.75.8v-2.97c-.97-1.18-16.79-1.27-19.5-1.02ZM342.99,539.52l6.88-.65c1.72-13.07-13.5-9.4-6.88.65ZM332,700c4.37.59,11.51-1.66,14.58,1.91s.79,7.77-3.58,8.58c14.48,8.09.14,16.19-11,13.5v-24ZM336,710c10.73.37,10.65-8.04,0-7.01v7.01ZM343.76,719.76c1.6-2.13,1.13-4.47-.75-6.27l-7.01-.49v8.01s7.76-1.25,7.76-1.25ZM255,724h4c-2.32-19.33,10.56-19.81,8.01,0h3v-14.51c0-3.41-8.91-4-10.99-.5v-10s-4.01,0-4.01,0v25ZM308,717h-13c1.11,5.92,6.48,4.79,10.99,4.01,3.08,2.59-11.86,6.69-14.54-1.95-4.52-14.56,17.23-18.27,16.55-2.06ZM302.73,710.27c-2.9-2.72-8.16-.54-7.73,3.72h8.99c.46-.43-.67-3.16-1.26-3.72ZM327,717h-12c-.34,1.9,1.84,3.66,3.29,4.27,2.07.87,7.78-1,7.69,1.22s-12.87,3.22-14.77-3.2c-4.59-15.54,17.93-18.11,15.79-2.29ZM323,713.99c.43-7.15-9.34-6.24-7.49.01h7.49ZM231,700v3s7,0,7,0v21h5v-21h7.01s0-3,0-3h-19ZM276,724h4c-.15-7.62-1.64-14.13,8.02-14.5l-.02-3.5-8.5,4-.5-3h-3v17ZM343.01,713.49l-7.01-.49v8.01s7.76-1.25,7.76-1.25c1.6-2.13,1.13-4.47-.75-6.27ZM336,703v7.01c10.74.37,10.66-8.04,0-7.01ZM295,713.99h8.99c.46-.43-.67-3.16-1.26-3.72-2.9-2.72-8.16-.54-7.73,3.72ZM315.51,714.01h7.49c.43-7.16-9.34-6.25-7.49,0ZM150.01,636.48c4.55,3.49,6.54-.27,8.47-.12.77.06,1.81,1.54,3.09,1.68,2.17.24,5.52-3.43,9.43-1.05l-1.96-11.52-4.11-.04-3.91,7.57-1.49-8.02c-7.02-3.01-3.06,5.64-6.02,9.02-2.94-1.61-.76-10.28-1.51-11-7.56-2.01-5.81,10.55-1.99,13.49ZM253.16,631.84c.42.49,3.44.15,3.82,1.72.68,2.84-4.21,5.06-6.55,5.37-17.01,2.28-19.12-18.39-3-15.87,7.21,1.12,4.53,7.4,5.73,8.79ZM248,630l-1.49-4.96-5.49,3.47c1.69,2.3,4.54,1.42,6.98,1.5ZM451.74,619.27c1,1.21,2.34,18.89,1.78,19.75-1.48,2.29-3.47-.6-5.01-.65-1.66-.05-3.34,1.74-5.79,1.44-11.86-1.48-7.45-18.55,5.27-14.82l-.95-5.44c.8-2.01,3.59-1.61,4.69-.28ZM441.25,635.75l2.77.77,3.9-4.16c-3.11-9.1-11.01-1.28-6.68,3.39ZM231.75,619.26c.94.98,1.11,2.88,1.25,4.22.19,1.8.95,14.89.53,15.54-1.52,2.35-3.56-.7-5.02-.69-1.07.01-2.35,1.53-3.98,1.57-12.66.36-11.06-18.65,3.47-14.91l-.95-5.44,2.29-1.39c.76.33,1.85.52,2.41,1.1ZM227.67,632.31c0-2.18-1.77-3.95-3.95-3.95s-3.95,1.77-3.95,3.95,1.77,3.95,3.95,3.95,3.95-1.77,3.95-3.95ZM119.01,623.03v2.97s10.98,1.02,10.98,1.02c-.48,1.86-4.27.76-6.25,1.26-5.77,1.45-6.45,8.05-.04,9.51,3.99.91,5.99-.52,8.86-.69.23-.01.78,3.13,3.42,1.91,1.45-11.67-5.02-19.58-16.99-15.98ZM397,633.01c1.51,3.05,5.21,3.48,8.05,2.56,1.17-.38,8.35-7.29,6.94-1.09-2.2,9.7-26.36,3.44-18.91-8.91,5.87-4.82,15.93-3.73,15.48,5.42-3.35,3.66-7.28,2.98-11.56,2.01ZM404,629.99c-.52-5.21-3.3-5.88-6.99-2.48-.72,2.99,5.45,2.68,6.99,2.48ZM298.98,625.51c-2.49-5.19-6.01-10.58-11.98-5.76l-.99,9.26c-8.98-1.33-4.4,4.83.97,2.99l1.09,6.94,3.93.07v-7.01c.56-.54,7.68,1.53,7-2.99l-7.99-1.02v-6.99c3.65-.91,3.71,5.74,4,6,.69.6,3.38-.21,3.97-1.49ZM303.51,623.01c-5.03,5.42,2.79,17.71,9.46,14.51.92-.44,1.69-2.24,2.67-2.42,1.5-.29,4.69,3.97,7.36,2.9l-4.92-12.58-1.72-1.23-3.11,1.07-2.25,8.74c-5.78.29-1.83-12.78-7.48-10.99ZM200.98,637.99c.14-1.73,3.25-12.04,6.01-9.98,1.4,3.55.72,10.82,6.01,9.99.98-9.2-3.33-18.87-12.98-11l-1.02-5c-8.05-1.75-3.08,19.55,1.99,15.99ZM420.5,626.98c-1.06-.03-2.55-7.91-5.03-4.01-1.69,2.67-.5,16.66,5.51,15.02.9-.63,1.43-10.8,6.01-9.98.76,3.63.7,10.72,6,9.99,1.06-8.31-3.68-19.28-12.5-11.01ZM347.01,629l-5.99,1.5c.91,2.64,5.74,1.72,6.03,1.96,1.9,1.6-.43,7.41,4.44,6.53,2.42-1.68-.18-4.56.5-6.99,2.42.84,11.78-1.3,6.62-3.12-1.84-.65-6.33-.65-7.2-1.81-1.3-1.74.52-8.98,2.81-4.79,1.22,2.22.46,5.55,4.77,4.72-1.25-12.73-14.68-12.32-11.99,2.01ZM179.71,623.22c14.86-3.42,16.75,19.49,1.26,15.32-9.12-2.46-10.19-13.26-1.26-15.32ZM184.87,626.13l-5.94,1.54c-6.14,9.45,14.02,12.64,5.94-1.54ZM262.98,622.44l-4.05,1.19c1.07,3.38,1.79,15.38,6.56,15.41,4.07.03,1.33-7.66,4.5-9.58,2.96-1.8,7.53,3.1,8.01.02.65-4.18-10.66-4.44-12.98-1.49l-2.03-5.56ZM365.49,622c-4.74-1-2.14,16.47,3.17,16.87,3.62.28,1.32-10.62,7.79-9.93l4.55,2.04c.46-6.54-8.15-6.29-11.98-3l-3.53-5.99ZM326,636.5c0,.31,2.03,1.87,2.51,2.49h1.49s0-17.49,0-17.49c0-1.86-2.1-3.18-4-2.5v17.5ZM388.84,628.66l-.79-1.21-3.05-.44c.38,4.16-1.98,11.35,3.99,11.99l-.15-10.34ZM385.51,618.01c-3.47.69.13,8.74,3.48,7.99.63-2.15-.27-8.63-3.48-7.99ZM246.51,625.03l-5.49,3.47c1.69,2.3,4.54,1.42,6.98,1.5l-1.49-4.96ZM444.02,636.52l3.9-4.16c-3.11-9.1-11.01-1.28-6.68,3.39l2.77.77ZM223.72,628.36c-2.18,0-3.95,1.77-3.95,3.95s1.77,3.95,3.95,3.95,3.95-1.77,3.95-3.95-1.77-3.95-3.95-3.95ZM397,627.51c-.72,2.99,5.45,2.68,6.99,2.48-.52-5.21-3.3-5.88-6.99-2.48ZM178.93,627.67c-6.14,9.45,14.02,12.64,5.94-1.54l-5.94,1.54ZM245.54,585.99l-1.48-7.54c-3.9-2.67-9.71,4.4-5.8,8.31,2.48,1.62,5.51,1.98,7.29-.77Z"/>
</svg>