<?xml version="1.0" encoding="UTF-8"?>
<svg id="_レイヤー_1" data-name="レイヤー 1" xmlns="http://www.w3.org/2000/svg" width="160.8mm" height="298.7mm" viewBox="0 0 455.82 846.72">
  <path d="M167.85,82.21v-16.5c0-6.67,8.12-23.09,12.49-28.51,24.66-30.66,70.33-30.71,95.02,0,4.36,5.42,12.49,21.84,12.49,28.51v16.5c21.98-13.98,35.45-37,55.53-52.97,30.52-24.28,77.33-49.32,103.28-4.33,16.83,29.18,8.59,100.07-9.4,128.21-3.38,5.29-8.36,9.42-10.46,15.54-7.45,21.78,4.93,49.65-17.01,65.25,9.94,71.33,9.8,152.74-32.98,213.83,3.03,8.67,7.92,16.72,8.91,26.09.72,6.83-1.62,17.71-.68,22.63,1.21,6.27,11.49,22.31,14.55,30.5,12.77,34.16,8.32,67.28,17.33,101.67,6.28,23.99,21.45,44.24,20.96,70.13-.34,18.18-6.45,39.31-14.52,55.47-1.25,2.51-5.61,7.99-6.04,9.87-.32,1.4,3.24,10.97,3.55,14.57,2.45,27.83-15.77,42.87-41.66,46.41-5.69.78-17.63.15-21.67,1.33-.98.29-10.81,9.09-14.04,10.96-25.66,14.91-73.03,11.78-94.71-9.63-2.31-2.28-6.94-10.29-8.25-11.25-1.14-.84-10.37-3.38-12.09-3.26-1.46.1-16.56,4.83-17.55,5.53-1.93,1.38-4.57,6.54-6.53,8.47-25.24,24.84-84.18,27.36-108.2-.88-32.85,1.06-68.96-9.35-64.23-49.55.49-4.15,4.91-12.56,4.85-14.12-.03-1.02-7.82-13.84-9.13-16.81-7.52-16.95-12.38-42.75-9.69-61.04,3.39-23.07,18.3-44.38,23.4-68.6,7.53-35.76,3.99-63.4,19.29-98.71,2.72-6.28,10.43-17.85,11.76-23.33.58-2.38-.78-8.03-.62-11.54.54-11.56,6.13-21.37,11.99-30.95-6.19-10.09-13.55-19.46-18.84-30.13-27.32-55.11-26.66-127.28-18.46-186.95-22.68-15.89-10.07-43.9-17.62-65.98-2.52-7.37-10.6-14.83-14.57-22.43C.95,120.58-5.4,58.06,5.67,31.53c23.36-55.99,81.93-25.4,113.71,3.65,16.5,15.09,28.95,34.91,48.47,47.03ZM49.52,5.59c-19.87.33-34.73,15.28-40.39,33.4-7.78,24.91-1.51,83.81,11.55,106.89,4.86,8.59,11.23,12.84,14.1,22.9,4.15,14.6,1.71,25.93,3.09,39.91,1.07,10.87,7.28,17.1,14.75,24.12-7.29,45.63-8.18,94.07,1.73,139.4,6.35,29.01,17.73,55.52,36.56,78.54-5.3,10.33-12.31,18.71-13.09,30.91-.26,4.05,1.2,10.1.84,12.82-.53,4.02-10.58,20.49-12.98,26.04-14.89,34.47-11.47,64.32-19.32,99.68s-26.96,51.21-22.38,89.36c1.36,11.32,4.21,22.83,8.7,33.3,1.6,3.73,10.07,17.19,10.17,18.9.16,2.56-3.56,9.06-4.36,12.57-5.81,25.3,10.14,40.96,33.96,44.75,7.76,1.23,19.99.05,26.66,2.34,2.28.78,6.31,6.26,8.82,8.18,20.98,16.01,66.18,13.98,86.83-2,4.36-3.37,10.51-12.47,13.72-14.28,1.73-.98,18.08-5.97,20.01-6.07,2.59-.14,13.28,2.94,15.33,4.46,3.26,2.43,8.19,11.02,13.01,14.99,23.69,19.5,76.37,20.1,96.7-5.33,29.8.03,70.1-7.85,60.86-47.23-.67-2.87-3.76-8.19-3.56-10.39.16-1.73,6.16-9.89,7.53-12.54,10.15-19.67,16.57-48.01,11.82-69.86-3.86-17.77-14.72-34.42-19.27-52.73-8.87-35.75-4.44-68.29-18.31-103.69-2.82-7.19-12.49-22.88-13.57-28.48s1.57-16.86.54-24.5c-1.19-8.8-6.57-16.18-9.79-24.21,44.33-60.74,44.52-143.3,34.04-214.99.47-3.07,3.99-3.96,5.85-6.22,14.22-17.28,4.67-39.03,11.89-60.11,3.01-8.79,11.73-16.37,16.14-25.86,11.35-24.47,17.3-83.51,6.31-108.03-23.65-52.76-81.51-15.2-109.2,12.14-9.35,9.23-17.21,20.12-26.96,29.04-2.77,2.54-23.88,20.52-25.51,20.53-4.86.04-.7-11.33-.47-14.51C287.54,1.38,168.11.03,173.87,80.69c.21,2.93,4.44,13.6-.52,13.56-1.57-.01-21.85-17.12-24.51-19.53-10.15-9.19-18.27-20.48-27.96-30.04C105.08,29.11,72.27,5.21,49.52,5.59ZM252.15,70.9c0,13.42-10.88,24.3-24.3,24.3s-24.3-10.88-24.3-24.3,10.88-24.3,24.3-24.3,24.3,10.88,24.3,24.3ZM246.33,70.93c0-10.21-8.27-18.48-18.48-18.48s-18.48,8.27-18.48,18.48,8.27,18.48,18.48,18.48,18.48-8.27,18.48-18.48Z"/>
</svg>