<?xml version="1.0" encoding="UTF-8"?>
<svg id="_レイヤー_1" data-name="レイヤー 1" xmlns="http://www.w3.org/2000/svg" width="204.61mm" height="305.86mm" viewBox="0 0 580 867">
  <path d="M346.04,89.96l21.97,5.6c15.46-8.34,25.17-20.26,42.98-25.07,50.31-13.59,77.44,15.07,102.42,53.59,15.01,23.15,47.71,74.76,46.63,101.46-.71,17.36-12.21,33.64-28.12,40.1,16.16,56.43,29.98,117.55-12.4,166.37-2.21,2.55-12.84,11.41-13.3,12.19-1.41,2.41,1.05,18.05-4.03,22.47,20.05,32.1,50.78,58.36,53.8,98.84,1.18,15.81-3.83,35.19-.75,49.75,2,9.44,9.12,19.97,12.28,29.72,9.2,28.4,7.61,61.35-6,88.04-1.78,3.5-11.01,16.16-11.33,17.72-.47,2.25,3.41,13.18,2.7,19.65-4.08,37.51-51.05,33.67-77.43,35.56-10.8.78-10.71,3.99-18.78,8.22-34.87,18.24-116.62,17.52-143.38-16.97-11.39-1.3-32.21-3.42-42.59,2-2.13,1.11-8.13,8.44-11.97,11.03-28.97,19.5-95.64,19.56-126.72,5.25-4.39-2.02-12.11-8.68-14.72-9.28-8.21-1.87-24.83-.08-34.78-1.22-18.71-2.15-43.61-10.85-46.43-32.57-.59-4.55.78-10.22-.53-14.47-.62-2.01-7.75-9.26-9.78-12.22C5.18,715.61,0,678.37,12.24,643.74c2.9-8.21,8.43-16.09,10.81-24.19,5.25-17.94-1.44-39.78,1.07-58.93,4.7-35.88,31.04-60.78,50.45-89.1l-2.09-21.49c-22.25-16.73-38.71-40.64-44.99-68.01-8.66-37.73,1.77-78.53,13.55-114.44-7.9-3.31-14.7-7.2-19.87-14.24-21.58-29.43,1.47-66.24,16.66-93,23.41-41.26,58.53-104.02,115.22-92.88,18.31,3.6,31.97,15.14,47.42,24.48,10.82-3.28,22.17-5.13,33.53-4.93,3.11-75.13,111.65-72.5,112.04,2.96ZM339.1,93.9c4.29-37.49-31-67-67.09-53.38-21.42,8.08-33.94,29.88-32.01,52.49-13.9-.77-27.2.73-40.45,4.98-11.06-4.75-20.14-14-30.88-19.16-61.72-29.63-100.95,41.36-125.85,85.5-13.41,23.78-34.4,57.2-17.66,84.01,5.6,8.97,14.27,12.22,23.89,15.26-11.91,35.9-23.53,76.63-15.74,114.59,4.71,23,16.88,44.18,34.16,59.84,1.99,1.81,11.92,8.52,12.31,9.18.82,1.41-1.17,11.69-.78,15.3.98,9.1,5.1,6.2-1.18,15.8-19.24,29.37-45.16,49.32-47.86,88.15-1.36,19.55,4.92,39.9-2.2,58.8-1.92,5.08-5.23,9.72-7.24,14.76-14.7,36.71-9.85,74.06,13.06,105.9,1.65,2.3,8.74,9.14,9.24,10.8.87,2.9-1.09,7.84-.82,11.76,2.41,34.9,55.88,31.45,80.3,32.73,14.04,13.65,38.18,17.8,57.22,18.78,29.89,1.55,68.39-1.75,88.41-26.55,6.44-.35,13.35-2.9,19.6-3.43,5.18-.43,26.43.49,30.49,2.48.75.37,7.88,9.18,10.67,11.33,26.58,20.51,96.09,20.95,125.01,5.35,3.35-1.81,8.71-7.75,10.84-8.16,9.29-1.77,25.72-.13,35.97-1.03,20.95-1.85,47.8-9.3,46.56-35.51-.18-3.87-4.22-13.57-3.91-14.76s8.66-11.69,10.38-14.7c15.07-26.28,17.53-58.71,8.5-87.54-4.88-15.6-14.08-25.26-14.1-42.98-.04-31.33,6.73-44.9-9.39-75.53-5.66-10.75-43.15-57.89-43.15-62.48,0-1.7,3.85-7.01,4.39-10.24.73-4.33-.72-10.71.76-14.24.52-1.25,9.8-8.63,11.99-11.01,12.73-13.76,23.31-34.6,27.02-52.98,7.82-38.71-5.1-77.42-14.59-114.52.49-3.1,4.37-2.77,6.95-4.13,37.92-19.9,17.69-60.61,2.63-88.41-26.35-48.65-65.52-122.96-132.9-90.86-12.1,5.76-20.49,17.11-33.35,21.69l-29.17-7.92ZM312.54,82.34c0,12.58-10.2,22.78-22.78,22.78s-22.78-10.2-22.78-22.78,10.2-22.78,22.78-22.78,22.78,10.2,22.78,22.78ZM287.77,65.19c-18.88,2.6-19.34,30.35-2.04,33.57,27.22,5.07,26.05-36.88,2.04-33.57ZM307,543.01c.51,1.83,4.02,2.92,5.53,2.88,4.45-.11,5.72-6.93,9.51-3.32-1.67,10.5-20.4,6.67-21-2.12-.72-10.56,17.69-11.62,16.87-.12-1.04,3.3-8.14,2.73-10.89,2.68ZM309.73,535.15c-5.45.8-3.54,5.44,1.65,4.76,2.68-.82,2.32-5.35-1.65-4.76ZM354,548.99c2.37-3.62,8.23,1.73,10.99-3.49-3.33.26-7.01.38-9.46-2.53-7.8-9.26,11.17-18.54,13.38-4.38.23,1.45.71,9.24.19,9.95-3.04,4.2-11.03,2.38-15.1.45ZM360.6,534.07c-1.98,1.21-3.5,5.11-2.17,6.98,4.32,3.77,8.04-3.08,5.09-6.04l-2.93-.94ZM289.11,533.89c.35.43,7.48,1.09,9.78,4.72,5.81,9.15-11.21,11.68-13.64,9.15-1.43-1.49-2.29-16.07-1.06-18.05,4.33-6.98,4.61,3.8,4.92,4.18ZM290.49,537.02c-3.11.11-1.93,16,4.16,4.48l-4.16-4.48ZM332.01,532c.07,2.97.65,13.16,2.98,14.51,5.97,3.47,3.75-7.05,8.51-9.49,1.4-.02,3.6,15.28,7.03,10.01,1.57-2.41-.7-10.5-2.95-12.11-4.54-3.26-9.95,1.69-10.57,1.08.2-3.74-1.5-4.44-5-4ZM222.5,530.02l4.01,6.98c4.81-.07.23-7.67-1.51-8.5-2.17-1.04-5.07-.32-7.43-.55l-1.7,9.94-4.88,1.13c-.55,4.24,4.92,2.34,5.89,3.1.64.51,3.92,17.23,5.11-1.11,2.69-.21,6.02,1.03,7.98-1.5-1.37-2.84-8.34-.84-8.98-1.49.2-2.71-.98-6.06,1.5-7.98ZM239.77,532.19c12.51-1.82,17.08,19.74-1.06,15.59-8.82-2.02-8.66-14.18,1.06-15.59ZM243.74,536.25l-2.83-.78c-8.41,3.64-2.1,13.99,4.65,7.51l-1.81-6.73ZM254,532c.23,5.83-.21,16.96,7.99,16.01-.12-3.38.31-7.18,2.99-9.57l8.01,1.56c-1.38-6.32-8.45-5.67-12.98-2.99-.44-3.73-2.09-5.66-6.01-5.01ZM325.01,537c-.04,2.04-.47,10.55,1.63,11.05l3.36-.04-1.02-10.99-3.97-.02ZM62.54,244.04l-14.53,2.95c9.66,1.02,19.04-2.25,27-7.52.49-.33,3.9-.88,1.99-2.47-.67-.56-12.07,6.78-14.46,7.03ZM127.22,90.72c-1.16.34-4.23.82-4.21,2.27,8.57-2.79,13.84-2.92,22.62-2.11,1.12.1,3.59.92,3.37-.87-7.51-1.48-14.42-1.46-21.78.71ZM49.01,373c.15,5.97,2.29,12.47,4.53,17.96.48,1.19,1.03,4.01,2.45,4.03l-6.98-21.99ZM328.56,528.94l-4.56-.93c-1.07,1.02,2.21,7.85,4.99,6.99l-.43-6.06ZM38.99,210.01c-1.4-.24-1.35,1.68-1.74,2.73-2.03,5.48-2.5,9.93-2.24,15.78.05,1.22-.76,3.71.99,3.48-.82-7.63,1.33-14.69,3-21.99ZM29,669v26h1v-26h-1ZM47,340v26h1v-26h-1ZM520.42,246.91l-11.41.08c5.69,1.68,13.79,3.28,17.99-1.98l-6.58,1.9ZM416,303h-18v8.01s8.01-.01,8.01-.01v8.01c-11.73,2.37-20.56-8.71-13.46-18.96,5.94-8.58,18.6-1.3,19.45-2.04l2.01-6.98c-12.67-5.98-30.75-4.4-33.56,11.93-3.81,22.15,18.75,29.33,35.55,20.56v-20.5ZM198,288v28.5c0,1.26,3.31,6.34,4.64,7.36,6.82,5.21,19.56,4.24,24.21-3.51.4-.66,2.15-4.58,2.15-4.85v-27.5h-10v27.5c0,4-11,4.98-11-1v-26.5h-10ZM237,288v38h26v-8h-16v-30h-10ZM270,288v38h25v-8h-15v-30h-10ZM302,326v-38h14.5c.37,0,6.23,1.62,7.05,1.95,12.09,4.82,14.12,23.87,4.79,31.9-1.11.95-6.85,4.16-7.84,4.16h-18.5ZM312,319c16.48,2.12,17.15-26.1,0-23v23ZM312,296v23c16.48,2.12,17.15-26.1,0-23ZM377.09,307.41c0,11.03-8.94,19.97-19.97,19.97s-19.97-8.94-19.97-19.97,8.94-19.97,19.97-19.97,19.97,8.94,19.97,19.97ZM363.72,298.28c-11.06-11.05-23.19,12.25-11.64,19.14,12.85,7.67,18.07-12.72,11.64-19.14ZM352.08,317.42c12.85,7.67,18.07-12.72,11.64-19.14-11.06-11.05-23.19,12.25-11.64,19.14ZM164,289.5c.95-3.08,17.66-1.09,21.01-.01,5.49,1.76,7.84,7.23,5.47,12.5-1.25,2.78-5.19,2.86-6.47,5,8.18-.35,10.72,10.23,6.02,15.54-.59.67-5.18,3.47-5.53,3.47h-20.5v-36.5ZM174,303c11.23,2.1,11.29-9.09,0-7.01v7.01ZM174,319.01c11.52,1.8,12.85-10.18.94-8.59l-.94,8.59ZM174.94,310.42l-.94,8.59c11.52,1.8,12.85-10.18.94-8.59ZM174,296v7.01c11.23,2.1,11.29-9.09,0-7.01ZM216.94,232.44c-1.81,1.33-1.5,12.56,1.03,14.08l4.53-.52c5.24-19.93,4.22-2.02,6.42-.44l4.06.44c-.34-3.6.49-7.29,3.99-9.01.72,3.89-.24,12.08,5.54,9.03,1.59-2.48-1.68-11.26-4.57-12.56-3.41-1.53-6,2.55-6.47,2.52-.41-.02-1.43-4.39-6.66-3.46-2.34.42-1.94,2.87-3.82,3.47l-1.03-3.99-3.03.44ZM312.32,240.7c.33.59,2.18.76,2.57,1.92,2.91,8.44-20.39,8.54-19.97-3.08.2-5.55,5.54-7.98,10.49-7.51,5.47.52,5.04,5.36,6.91,8.68ZM305.9,235.1c-1.9-1.18-6.42,1.1-5.89,3.89,4.3,1.58,8.6,1.84,5.89-3.89ZM292,249c-5.63-1.92-12.5,2.47-16.47-3.02-5.32-7.36,3.55-13.98,10.46-10.98v-7s3.87.15,3.87.15c.05,1.44,2.14,4.68,2.14,5.36v15.5ZM281.62,237.06c-6.76,5.75-.03,14.15,4.41,4.44l-4.41-4.44ZM318.97,232.47l.58,3.49c3.48-1.4,6.79-1.45,9.45,1.55-9.86-2.64-16.15,9.03-4.41,10.47,3.45.42,6.8-1.28,10.41.03.34-4.08-.11-10.73-3.3-13.68-2.82-2.61-9.11-2.93-12.72-1.84ZM249.61,243.89l7.38,2.59-7.99,2.01c12.5,8.28,14.46-3.81,14.92-13.87l-2.43-1.69-2.55.51c-3.7,11.01-9.7,11.44-8.95-1.45-7.86-1.41-5.34,9.06-.39,11.9ZM338.01,232c.53,5.47.28,17.26,7.99,16.01.73-9.01,2.15-11.4,11-8.01-1.7-6.71-8.1-5.23-12.98-3-.47-3.73-2.07-5.66-6.01-5ZM360.51,228.01c-3.48,1.1-.75,16.32,2.48,13.99,1.01-2.67,2.99-15.72-2.48-13.99ZM300,238.99c4.3,1.58,8.6,1.84,5.89-3.89-1.9-1.18-6.42,1.1-5.89,3.89ZM286.03,241.5l-4.41-4.44c-6.76,5.75-.03,14.15,4.41,4.44ZM311.38,539.92c2.68-.82,2.32-5.35-1.65-4.76-5.45.8-3.54,5.44,1.65,4.76ZM358.44,541.05c4.32,3.77,8.04-3.08,5.09-6.04l-2.93-.94c-1.98,1.21-3.5,5.11-2.17,6.98ZM294.65,541.5l-4.16-4.48c-3.11.11-1.93,16,4.16,4.48ZM240.91,535.48c-8.41,3.64-2.1,13.99,4.65,7.51l-1.81-6.73-2.83-.78ZM255.76,499.75c1.61.23,8.74.2,9.16-1.37-.51-11.33-6.26-17.75-17.91-14.35v2.97c.69.74,9.38-1.43,10.99,1.51-2.7.77-7.63.54-9.73,2.76-4.41,4.67,3.57,7.92,7.49,8.49ZM319.77,495.02l8.22,3.47-7.48.5-.51,2c4.81,2.47,11.36,3.37,13.54-2.94,1.48-4.29,3.52-14.97-3.52-14.03-.76,3.69-2.03,7.68-5.51,9.7-4.51-.82-3.41-6.16-3.51-9.71-8.31-.89-4.84,7.23-1.23,11.02ZM290.51,478.97c-1.62-.38-1.79.61-1.93,1.92-.49,4.7-.6,20.04,6.42,19.1v-8c5.11-1,3.35,7.02,8.66,7.88l2.32-1.37-3.96-8.02c-.17-.71,5.18-1.33,2-4l-10,2.51c-.09-3.36,1.23-9.3-3.5-10.03ZM266.98,485.52c-.4,2.28,1.16,11.9,2.98,13.02,4.97,3.07,4.52-8.91,8.55-10.54,1.52,1.92,3.04,15.71,7.03,10.02,1.47-2.1-1.41-10.93-3.2-12.1-4.72-3.07-9.99,2.52-10.32,2.07,1.34-4.6-4.13-7.53-5.03-2.48ZM228,494.5c0,2.09,1.78,5.95,4.42,5.46,2.86-.53.44-12.42,4.07-10.95s2.65,9.23,4.46,10.55l3.07-.05c1.93-6.81-2.53-15.17-10.87-13.64l-1.21-5.8-3.93-.06v14.5ZM359.09,484.09c-1.14,4.58-.34,10.6,3.95,13.36,6.63,4.28,8.28-1.28,9.45-1.3.99-.01,5.01,5.47,7.49,1.34-6.08-5.46-5.99-22.89-11.71-4.71-.29.91.07,3.09-1.75,2.2-2.33-1.13-3.86-8.41-3.53-10.99l-3.89.09ZM343.73,484.24c8.63-1.59,11.6,2.96,12.12,11.03-10.17,15.06-29.12-7.9-12.12-11.03ZM345.74,487.14c-7.18,1.01-3.72,13.87,3.68,8.76,3.28-2.27.22-9.31-3.68-8.76ZM216,484c1.94-.75,8.79,1.75,8.99-1.48-7.76-4.15-16.89-2.16-24.99-.5,2.28,4.6,5.74,2.05,8.59,2.04,4.72-.03-.18,15.3,7.4,15.95v-16ZM349.42,495.91c3.28-2.27.22-9.31-3.68-8.76-7.18,1.01-3.72,13.87,3.68,8.76ZM145.99,581c-.74,5.07-.05,16.17,7.44,15.01,5.24-.81,5.27.31,8.01.02,2.28-.24,4.36-3.27,8.55-1.03-1.53-4.13-2.63-7.41-1.99-12l-4.96.05-2.54,7.93c-2.97-1.98.34-10.46-4.99-8.97-2.88.8-.18,10.58-4.5,10v-11s-5.01,0-5.01,0ZM233,598c-4.55-2.29-5.33-.53-8.73-.2-13.37,1.32-11.48-18.47,2.73-14.8v-7c3.32-1.19,6.01,4.14,6.01,6.5v15.5ZM221.01,586.01c-4.78,15.09,11.54,6.28,3.54.94-1.2-.8-2.04-1.24-3.54-.94ZM455,598c-1.9.7-3.42-1.5-4.51-1.59-3.41-.28-6.63,4.06-11.51-1.89-6.18-7.55,3.72-13.72,11.02-11.53l-.99-6.99c2.76-1.17,5.99,3.57,5.99,5.49v16.5ZM444.67,586.11c-6.13,1.58-.85,15.03,4.3,4.42-.41-2.23-1.55-5.13-4.3-4.42ZM118.48,594.02c2.46,4.11,11.62-.1,14.99,2.99,3.31-.52-.15-12.44-2.51-14.47-1.42-1.22-5.59-2.51-7.5-2.59-.82-.03-7.47.46-6.46,2.53,1.69,3.48,9.39-.67,10.99,3.51-4.99-1.61-12.8,2.54-9.52,8.03ZM407.75,582.26c.44.42,2.01,3.84,2.1,4.49.8,5.63-8.21,5.09-11.84,4.75,6.35,6.22,9.03-.07,14.99-1.49.23,11.56-20.5,8.47-20.06-2.48.3-7.41,11.37-8.53,14.81-5.26ZM404.99,587.99c.18-9.43-11.67-1.33-4.49,0,1.41.26,3.04-.08,4.49,0ZM250.75,582.26c.44.42,2.01,3.84,2.1,4.49.8,5.63-8.21,5.09-11.84,4.75,6.35,6.22,9.03-.07,14.99-1.49-.28,12.91-23.62,7.22-19.55-5.07,1.57-4.73,11.52-5.32,14.3-2.68ZM247.99,587.99c.18-9.43-11.67-1.33-4.49,0,1.41.26,3.04-.08,4.49,0ZM416.94,580.44c-2.59,1.9-.28,18.93,5.11,15.12,2.09-3.47,1.75-8.6,5.93-10.56l3.03,10.99,3.02-.45c2.31-8.94-3.76-18.68-13.03-10.55l-1.03-5-3.04.44ZM347.56,586.03l-5.56.97c-.12,3.44,3.61,3.92,5.91,3.02.8,9.77,6.06,10.99,5.08-.03,12.43.16,9.33-4.55-1-3.99v-7c4.33-.06,2.9,7.16,8,5.99.9-.88-2.32-6.92-3.28-7.7-6.64-5.41-11.23,2.3-9.16,8.74ZM194.94,580.44c-2.16,1.59-1.17,17.39,5.04,15.55,1.02-3.9,2.26-8.86,6.01-10.99.18,2.3,2.11,13.43,5.94,10.95,2.03-1.32-.82-11.36-2.16-12.71-2.83-2.84-8.22-.59-10.76,1.76l-1.03-5-3.04.44ZM297.49,584.99c3.42-.65-1.63-8.02-4.19-8.79-7.58-2.28-7.47,5.15-7.29,10.8h-5c-.01,3.5,3.44,3.93,5.99,2.98l1.57,7.07,3.43-.05v-7.01s8-1.01,8-1.01c-1.65-3.39-5.85-3.1-9-2.98v-7c3.49-.78,3.59,6.54,6.49,5.99ZM305.49,581.01c-5.6-1.79-4,9.36,1.01,12.98,7.08,5.12,8.47-1.04,9.01-1.02,2.1.07,4.48,4.01,7.48,3.02l-5.62-13.93-4.16,1.17c-.41.57-1.13,11.08-4.2,8.77-1.61-2.09-1.75-10.42-3.52-10.99ZM187.75,582.25c.29.28,2.63,5.1,2.79,5.72,2.84,10.84-13.93,11.95-17.81,2.73s10.92-12.41,15.02-8.46ZM183.87,584.13c-8.99-2.18-8.91,10.91-1.6,9.68,5.84-.98,3.4-5.98,1.6-9.68ZM363.99,580.49c-1.75,1.19.8,11.17,1.8,13.22,5.4,11.05,6.37-5.14,8.2-6.24,2.96-1.79,7.53,3.1,8.01.02.76-4.93-10.53-4.46-12.98-1.49.78-2.68-1.81-7.69-5.02-5.51ZM258.95,583.45c0,3.92,2.03,13.08,6.59,13.52,2.18.21,1.1-.16,1.55-1.37.96-2.59.74-5.95,2.88-8.14,2.94-1.81,7.53,3.12,8.01.03.65-4.18-10.66-4.44-12.98-1.49.76-5.45-6.06-9.06-6.06-2.55ZM326,593.5c0,.33,2.07,3.39,2.51,3.5,4.59-.89,1.6-5.69,1.49-8.51-.14-3.83.09-7.68-.01-11.49h-4v16.5ZM389.06,585.44l-3.05-.45c-.37,4.11-1.58,11.45,3.99,12l-.94-11.55ZM385.01,576.01c-.22,3.42.78,7.7,4.99,6.99.49-3.82-.46-7.44-4.99-6.99ZM224.55,586.94c-1.2-.8-2.04-1.24-3.54-.94-4.78,15.09,11.54,6.28,3.54.94ZM448.98,590.53c-.41-2.23-1.55-5.13-4.3-4.42-6.13,1.58-.85,15.03,4.3,4.42ZM400.51,587.99c1.41.26,3.04-.08,4.49,0,.18-9.43-11.67-1.33-4.49,0ZM243.51,587.99c1.41.26,3.04-.08,4.49,0,.18-9.43-11.67-1.33-4.49,0ZM182.27,593.81c5.84-.98,3.4-5.98,1.6-9.68-8.99-2.18-8.91,10.91-1.6,9.68ZM332,672c3.77.46,12.36-1.23,15.02,1.47,2.73,4.81.79,7.53-3.02,10.52,3.91.02,5.12,1.76,5.11,5.51-.03,8.95-10.93,6.1-17.11,6.5v-24ZM337,682c4.12.3,8.54-1.4,6.57-6.08l-6.58-.93v7.01ZM337,693c3.44.2,7.24.52,8.05-3.56-.03-4.76-4.22-4.77-8.05-4.45v8.01ZM255,696h4c.89-.84-2.85-19.79,6.85-12.35l.16,12.35h4v-14.5c0-2.92-9.03-3.6-10.99-.5v-10s-4.01,0-4.01,0v25ZM328,689h-13c-.05,3.47,2.22,5.1,5.48,5.02,2.95-.07,7.42-3.17,4.85,2-6.32,2.17-13.31.8-14.29-6.6-1.88-14.16,18.05-14.55,16.96-.42ZM323.99,685.99c-.35-5.35-7.86-6.76-8.97-1.48-.63,3,7.44.87,8.97,1.48ZM308,689h-13c1.09,5.83,6.29,5.68,10.99,4.01l-.66,3.01c-17.77,6.85-19.63-21.98-2.04-16.8,3.31.97,5.01,6.63,4.71,9.78ZM302.73,682.28c-4.04-3.79-8.82,2.78-7.72,3.72h8.99c.48-.44-.69-3.18-1.27-3.72ZM231,672v3s7,0,7,0v21h4v-21h8.01s0-3,0-3h-19ZM275,696h5.01c.5-4.84-2.03-10.75,3.27-13.24,1.41-.66,4.58-.55,4.73-1.27,1.21-5.6-7.18-.87-9,.51l-.1-2.88-3.91-.13v17ZM345.04,689.45c-.03-4.76-4.22-4.77-8.05-4.45v8.01c3.44.2,7.24.52,8.05-3.56ZM343.57,675.93l-6.58-.93v7.01c4.13.3,8.55-1.4,6.58-6.08ZM315.02,684.52c-.63,3,7.44.87,8.97,1.48-.35-5.35-7.86-6.76-8.97-1.48ZM295.01,685.99h8.99c.48-.44-.69-3.18-1.27-3.72-4.04-3.79-8.82,2.78-7.72,3.72Z"/>
</svg>