<?xml version="1.0" encoding="UTF-8"?>
<svg id="_レイヤー_1" data-name="レイヤー 1" xmlns="http://www.w3.org/2000/svg" width="200.24mm" height="280.12mm" viewBox="0 0 567.62 794.04">
  <path d="M340.35,57.97l21.97,5.6c15.46-8.34,25.17-20.26,42.98-25.07,50.31-13.59,77.44,15.07,102.42,53.59,15.01,23.15,47.71,74.76,46.63,101.46-.71,17.36-12.21,33.64-28.12,40.1,16.16,56.43,29.98,117.55-12.4,166.37-2.21,2.55-12.84,11.41-13.3,12.19-1.41,2.41,1.05,18.05-4.03,22.47,20.05,32.1,50.78,58.36,53.8,98.84,1.18,15.81-3.83,35.19-.75,49.75,2,9.44,9.12,19.97,12.28,29.72,9.2,28.4,7.61,61.35-6,88.04-1.78,3.5-11.01,16.16-11.33,17.72-.47,2.25,3.41,13.18,2.7,19.65-4.08,37.51-51.05,33.67-77.43,35.56-10.8.78-10.71,3.99-18.78,8.22-34.87,18.24-116.62,17.52-143.38-16.97-11.39-1.3-32.21-3.42-42.59,2-2.13,1.11-8.13,8.44-11.97,11.03-28.97,19.5-95.64,19.56-126.72,5.25-4.39-2.02-12.11-8.68-14.72-9.28-8.21-1.87-24.83-.08-34.78-1.22-18.71-2.15-43.61-10.85-46.43-32.57-.59-4.55.78-10.22-.53-14.47-.62-2.01-7.75-9.26-9.78-12.22-20.6-30.11-25.79-67.35-13.54-101.98,2.9-8.21,8.43-16.09,10.81-24.19,5.25-17.94-1.44-39.78,1.07-58.93,4.7-35.88,31.04-60.78,50.45-89.1l-2.09-21.49c-22.25-16.73-38.71-40.64-44.99-68.01-8.66-37.73,1.77-78.53,13.55-114.44-7.9-3.31-14.7-7.2-19.87-14.24-21.58-29.43,1.47-66.24,16.66-93,23.41-41.26,58.53-104.02,115.22-92.88,18.31,3.6,31.97,15.14,47.42,24.48,10.82-3.28,22.17-5.13,33.53-4.93,3.11-75.13,111.65-72.5,112.04,2.96ZM333.41,61.91c4.29-37.49-31-67-67.09-53.38-21.42,8.08-33.94,29.88-32.01,52.49-13.9-.77-27.2.73-40.45,4.98-11.06-4.75-20.14-14-30.88-19.16-61.72-29.63-100.95,41.36-125.85,85.5-13.41,23.78-34.4,57.2-17.66,84.01,5.6,8.97,14.27,12.22,23.89,15.26-11.91,35.9-23.53,76.63-15.74,114.59,4.71,23,16.88,44.18,34.16,59.84,1.99,1.81,11.92,8.52,12.31,9.18.82,1.41-1.17,11.69-.78,15.3.98,9.1,5.1,6.2-1.18,15.8-19.24,29.37-45.16,49.32-47.86,88.15-1.36,19.55,4.92,39.9-2.2,58.8-1.92,5.08-5.23,9.72-7.24,14.76-14.7,36.71-9.85,74.06,13.06,105.9,1.65,2.3,8.74,9.14,9.24,10.8.87,2.9-1.09,7.84-.82,11.76,2.41,34.9,55.88,31.45,80.3,32.73,14.04,13.65,38.18,17.8,57.22,18.78,29.89,1.55,68.39-1.75,88.41-26.55,6.44-.35,13.35-2.9,19.6-3.43,5.18-.43,26.43.49,30.49,2.48.75.37,7.88,9.18,10.67,11.33,26.58,20.51,96.09,20.95,125.01,5.35,3.35-1.81,8.71-7.75,10.84-8.16,9.29-1.77,25.72-.13,35.97-1.03,20.95-1.85,47.8-9.3,46.56-35.51-.18-3.87-4.22-13.57-3.91-14.76s8.66-11.69,10.38-14.7c15.07-26.28,17.53-58.71,8.5-87.54-4.88-15.6-14.08-25.26-14.1-42.98-.04-31.33,6.73-44.9-9.39-75.53-5.66-10.75-43.15-57.89-43.15-62.48,0-1.7,3.85-7.01,4.39-10.24.73-4.33-.72-10.71.76-14.24.52-1.25,9.8-8.63,11.99-11.01,12.73-13.76,23.31-34.6,27.02-52.98,7.82-38.71-5.1-77.42-14.59-114.52.49-3.1,4.37-2.77,6.95-4.13,37.92-19.9,17.69-60.61,2.63-88.41-26.35-48.65-65.52-122.96-132.9-90.86-12.1,5.76-20.49,17.11-33.35,21.69l-29.17-7.92ZM306.84,50.34c0,12.58-10.2,22.78-22.78,22.78s-22.78-10.2-22.78-22.78,10.2-22.78,22.78-22.78,22.78,10.2,22.78,22.78ZM282.07,33.2c-18.88,2.6-19.34,30.35-2.04,33.57,27.22,5.07,26.05-36.88,2.04-33.57Z"/>
</svg>