<?xml version="1.0" encoding="UTF-8"?>
<svg id="_レイヤー_1" data-name="レイヤー 1" xmlns="http://www.w3.org/2000/svg" width="204.61mm" height="305.86mm" viewBox="0 0 580 867">
  <path d="M230,91v-16.5c0-6.67,8.12-23.09,12.49-28.51,24.66-30.66,70.33-30.71,95.02,0,4.36,5.42,12.49,21.84,12.49,28.51v16.5c21.98-13.98,35.45-37,55.53-52.97,30.52-24.28,77.33-49.32,103.28-4.33,16.83,29.18,8.59,100.07-9.4,128.21-3.38,5.29-8.36,9.42-10.46,15.54-7.45,21.78,4.93,49.65-17.01,65.25,9.94,71.33,9.8,152.74-32.98,213.83,3.03,8.67,7.92,16.72,8.91,26.09.72,6.83-1.62,17.71-.68,22.63,1.21,6.27,11.49,22.31,14.55,30.5,12.77,34.16,8.32,67.28,17.33,101.67,6.28,23.99,21.45,44.24,20.96,70.13-.34,18.18-6.45,39.31-14.52,55.47-1.25,2.51-5.61,7.99-6.04,9.87-.32,1.4,3.24,10.97,3.55,14.57,2.45,27.83-15.77,42.87-41.66,46.41-5.69.78-17.63.15-21.67,1.33-.98.29-10.81,9.09-14.04,10.96-25.66,14.91-73.03,11.78-94.71-9.63-2.31-2.28-6.94-10.29-8.25-11.25-1.14-.84-10.37-3.38-12.09-3.26-1.46.1-16.56,4.83-17.55,5.53-1.93,1.38-4.57,6.54-6.53,8.47-25.24,24.84-84.18,27.36-108.2-.88-32.85,1.06-68.96-9.35-64.23-49.55.49-4.15,4.91-12.56,4.85-14.12-.03-1.02-7.82-13.84-9.13-16.81-7.52-16.95-12.38-42.75-9.69-61.04,3.39-23.07,18.3-44.38,23.4-68.6,7.53-35.76,3.99-63.4,19.29-98.71,2.72-6.28,10.43-17.85,11.76-23.33.58-2.38-.78-8.03-.62-11.54.54-11.56,6.13-21.37,11.99-30.95-6.19-10.09-13.55-19.46-18.84-30.13-27.32-55.11-26.66-127.28-18.46-186.95-22.68-15.89-10.07-43.9-17.62-65.98-2.52-7.37-10.6-14.83-14.57-22.43-13.38-25.65-19.73-88.17-8.66-114.7,23.36-55.99,81.93-25.4,113.71,3.65,16.5,15.09,28.95,34.91,48.47,47.03ZM111.67,14.38c-19.87.33-34.73,15.28-40.39,33.4-7.78,24.91-1.51,83.81,11.55,106.89,4.86,8.59,11.23,12.84,14.1,22.9,4.15,14.6,1.71,25.93,3.09,39.91,1.07,10.87,7.28,17.1,14.75,24.12-7.29,45.63-8.18,94.07,1.73,139.4,6.35,29.01,17.73,55.52,36.56,78.54-5.3,10.33-12.31,18.71-13.09,30.91-.26,4.05,1.2,10.1.84,12.82-.53,4.02-10.58,20.49-12.98,26.04-14.89,34.47-11.47,64.32-19.32,99.68s-26.96,51.21-22.38,89.36c1.36,11.32,4.21,22.83,8.7,33.3,1.6,3.73,10.07,17.19,10.17,18.9.16,2.56-3.56,9.06-4.36,12.57-5.81,25.3,10.14,40.96,33.96,44.75,7.76,1.23,19.99.05,26.66,2.34,2.28.78,6.31,6.26,8.82,8.18,20.98,16.01,66.18,13.98,86.83-2,4.36-3.37,10.51-12.47,13.72-14.28,1.73-.98,18.08-5.97,20.01-6.07,2.59-.14,13.28,2.94,15.33,4.46,3.26,2.43,8.19,11.02,13.01,14.99,23.69,19.5,76.37,20.1,96.7-5.33,29.8.03,70.1-7.85,60.86-47.23-.67-2.87-3.76-8.19-3.56-10.39.16-1.73,6.16-9.89,7.53-12.54,10.15-19.67,16.57-48.01,11.82-69.86-3.86-17.77-14.72-34.42-19.27-52.73-8.87-35.75-4.44-68.29-18.31-103.69-2.82-7.19-12.49-22.88-13.57-28.48s1.57-16.86.54-24.5c-1.19-8.8-6.57-16.18-9.79-24.21,44.33-60.74,44.52-143.3,34.04-214.99.47-3.07,3.99-3.96,5.85-6.22,14.22-17.28,4.67-39.03,11.89-60.11,3.01-8.79,11.73-16.37,16.14-25.86,11.35-24.47,17.3-83.51,6.31-108.03-23.65-52.76-81.51-15.2-109.2,12.14-9.35,9.23-17.21,20.12-26.96,29.04-2.77,2.54-23.88,20.52-25.51,20.53-4.86.04-.7-11.33-.47-14.51,5.66-78.36-113.77-79.72-108.02.95.21,2.93,4.44,13.6-.52,13.56-1.57-.01-21.85-17.12-24.51-19.53-10.15-9.19-18.27-20.48-27.96-30.04-15.8-15.58-48.6-39.47-71.35-39.09ZM314.3,79.69c0,13.42-10.88,24.3-24.3,24.3s-24.3-10.88-24.3-24.3,10.88-24.3,24.3-24.3,24.3,10.88,24.3,24.3ZM308.48,79.72c0-10.21-8.27-18.48-18.48-18.48s-18.48,8.27-18.48,18.48,8.27,18.48,18.48,18.48,18.48-8.27,18.48-18.48ZM269,247v24.5c0,.3,2.07,4.89,2.52,5.48,4.01,5.34,17.26,5.7,21.9.94,1.09-1.12,3.58-6.17,3.58-7.42v-23.5h-9v23.5c0,4.74-10,4.74-10,0v-23.5h-9ZM223,298v34h22v-7.01s-13.01.01-13.01.01v-6.43s12.01-.57,12.01-.57v-7.01s-12.01.01-12.01.01v-6.01s13.01.01,13.01.01v-7.01h-22.01ZM335,298v34h22v-7.01s-13.01.01-13.01.01v-6.43s12.01-.57,12.01-.57v-7.01s-12.01.01-12.01.01v-6.01s13.01.01,13.01.01v-7.01h-22.01ZM189,298v7.01s9,0,9,0v27h9v-25.5c1.36-2.91,9.3-.79,10-1.49v-7.01h-28ZM304,247v34h23v-7.01c-.93-.94-12.25,1.68-14-1.49v-25.5h-9ZM333,247v34h23v-7.01c-.93-.94-12.25,1.68-14-1.49v-25.5h-9ZM317,298v34h10v-34h-10ZM210.16,199.66c-.58,1.86-.4,8.54.06,10.62.57,2.6,4.72,5.89,6.26,3.74l3.53-11.02c2.65-.26,1.61-.04,1.97,1.49,1.07,4.57-.58,8.91,6.01,8.51-.29-3.57.77-7.94,3.99-10-.11,15.23,11.87,13.22,5.23.28-2.68-5.23-6.86-5.07-10.73-1.3-3.48-6.2-7.18-4.3-11.48.02.81-3.66-3.74-5.9-4.85-2.34ZM292,216c-5.46-1.71-15.49,2.56-18.48-4.01-3.69-8.1,5.33-14.21,12.47-10.99-3.53-11.52,6.01-9.12,6.01-1.5v16.5ZM279.24,204.25c-4.69,9.21,3.69,12.45,6.6,3.4l-3.82-4.16-2.78.76ZM310.72,199.29c.73.6,2.7,4.65,2.91,5.68,1.1,5.49-9.18,5.16-12.62,4.52,6.48,7.33,9.77-.07,15.99-1.49,1.81,8.36-10.31,9.54-15.91,6.41-14.8-8.27,1.27-22.04,9.64-15.13ZM308,206c.77-6.16-3.4-6.13-7-2.48-.68,2.97,5.23,2.69,7,2.48ZM246.07,198.43l-4.01-.37c-2.95,8.52,4.34,15.57,12.94,13.95-2.05,4.19-5.12,3.57-9,3,12.21,11.29,17.17-5.01,15-16.01-7.88-2.09-4.51,6.79-10.49,9.71l-2.27-.95-2.17-9.32ZM339,215c-4.84-1.22-18.15,2.38-18.09-5.5.04-6.24,6.99-5.35,11.09-5.99-3.08-4.26-6.53-1.28-9.52-1.47-3.17-.2-3.8-3.52.97-4.08,12.68-1.48,15.87,5.54,15.55,17.04ZM332.93,208.09c-10.1-3.73-11,4.54.08,2.91l-.08-2.91ZM342,198c-.91.89,1.61,21.96,8.87,16.85.05-3.21.95-8.88,4.15-10.42,2.67-1.28,5.85,5.48,6.97.08-4.43-5.75-8.45-2.71-13.99-1.51l-1.15-4.87-4.87-.14ZM366.51,193.01c-3.48,4.01-.62,10.29-.5,15l2.93-.04c1.08-2.54,3.12-16.71-2.43-14.95ZM183.15,204.58l14.16,20.88,1.37-.93-14.16-20.88-1.37.93ZM378.99,206.01c-1.44-.24-1.31,1.69-1.73,2.74-2.15,5.46-4.8,13.32-6.03,18.99-.22,1.01-1.01,3.51.76,3.26l7-24.99ZM196.14,203.44l10.98,22,1.46-.73-10.98-22-1.46.73ZM300.5,298c12.15,1.72,12.82,13.75,3.51,19.98,2.91-.37,7.59,13.47,6.99,14.01l-8.86-.13c-1.88-3.94-1.91-11.64-7.62-11.9-2.12-.1-1.31.04-1.53,1.51-.28,1.91.4,10.15.01,10.54h-9.01v-34.01c5.18.51,11.5-.71,16.5,0ZM293,305l.95,8.58,6.58-1.54-.47-6.6-7.07-.44ZM293.95,313.58l6.58-1.54-.47-6.6-7.07-.44.95,8.58ZM268.5,298c10.71,1.5,13.56,13.9,3.51,18.02l6.99,15.97-9.9-.09c-.99-3.89-1.42-11.74-6.58-11.93-2.12-.08-1.3,0-1.52,1.5-.28,1.91.4,10.15.01,10.54h-9.01v-34.01c5.18.51,11.49-.7,16.5,0ZM261,314c10.15.38,11.35-10.49,0-9.01v9.01ZM261,305v9.01c10.16.38,11.36-10.49,0-9.01ZM254.5,247c9.88,1.46,12.64,12.4,2.5,15.5,5.48,3.03,8.76,5.59,6.54,12.56-.94,2.96-6.34,5.95-9.05,5.95h-15.5v-34c4.84.5,10.83-.69,15.5,0ZM248,260.01c4.22.33,8.56.46,6.58-5.08l-6.58-.93v6.01ZM248,274l6.59-.91c1.4-1.08,2.07-3.67.98-5.16l-7.57-1.92v8ZM254.59,273.09c1.4-1.08,2.07-3.67.98-5.16l-7.57-1.92v8s6.58-.91,6.58-.91ZM254.57,254.93l-6.58-.93v6.01c4.22.33,8.56.46,6.58-5.08ZM380.5,298c11.68,1.64,12.95,13.85,3.52,19.5,4.21,3.65,5.62,9.33,6.98,14.49l-8.86-.13c-1.88-3.94-1.91-11.64-7.62-11.9-2.12-.1-1.31.04-1.53,1.51-.28,1.91.4,10.15.01,10.54h-9.01v-34.01c5.18.51,11.49-.7,16.5,0ZM373,305l.95,8.58,6.58-1.54-.47-6.6-7.07-.44ZM373.95,313.58l6.58-1.54-.47-6.6-7.07-.44.95,8.58ZM285.84,207.64l-3.82-4.16-2.78.76c-4.69,9.21,3.69,12.45,6.6,3.4ZM301,203.51c-.68,2.97,5.23,2.69,7,2.48.77-6.16-3.4-6.13-7-2.48ZM333.01,211l-.08-2.91c-10.1-3.73-11,4.54.08,2.91ZM207.66,598.14c-5.43,1.39-3,16.63,4.93,16.89,2.24.07,3.4-1.97,4.74-1.86,2.97.25,5.15,4.46,9.15-.94l4.52,1.77-1.12-12.86-5.64.1-2.73,8.75-2.6-9.9-3.98.33c-2.17,1.54.71,10.1-3.92,9.57-2.24-3.23,2.25-13.29-3.35-11.86ZM297.75,594.26c1.59,1.66,3.04,21.91,2.25,22.73-2.08.67-3.99-1.57-5.48-1.61-1.63-.05-3.27,1.63-5.77,1.41-14.44-1.26-8.69-20.85,5.26-15.8l-.93-6.37c.63-2.19,3.48-1.62,4.68-.36ZM291.7,611.68c.54-.45,2.18-2.95,1.86-3.68-10.9-12.47-10.58,10.89-1.86,3.68ZM329.29,660.72c-6.05-7.35,4.44-15.78,11.7-12.72v-7c1.3.07,2.91-.35,4.06.45,1.64,1.13,3.09,20.67,2.47,21.56-1.93,2.8-4.23-.99-5.85-.84-1.34.12-2.56,1.87-5.07,1.8-1.47-.04-6.44-2.19-7.31-3.25ZM335.69,651.1c-4.27,1.06-4.21,12.27,2.86,7.95,5.07-3.1.38-8.76-2.86-7.95ZM317.75,547.25c.23.22,2.72,5.24,2.85,5.74,1.39,5.31-9.33,5.2-12.6,4.5,6.48,7.33,9.77-.07,15.99-1.49,1.3,9.97-13.29,9.63-18.89,4.39-10.41-9.74,6.86-18.73,12.65-13.14ZM313.95,549.04c-1.77-.46-6.4,1.3-5.94,3.45,1.69,2.3,4.63,1.44,6.99,1.51l-1.05-4.96ZM286.01,656c2.18,7.15,10.31,3.65,13.5-1,3.57.72,3.25,4.02.87,5.88-5.31,4.15-15.96,2.72-19.43-3.33-7.25-12.64,17.85-18.39,16.95-3.23-1.04,3.31-9.29,3.37-11.89,1.68ZM293,652.99l-2.6-4.92-5.38,3.43c2.36,2.77,4.82,2.67,7.98,1.49ZM309.01,609c2.43,6.82,10.37,3.71,13.5-1,3.59-.81,4.16,7.12-5,8.03-12.3,1.22-20.27-12.23-10.52-16.54,15.89-7.02,20.64,15.46,2.02,9.51ZM316,605.99c.84-1.14-1.01-4.54-2.64-4.84l-5.34,3.35c.98,2.05,7.05,2.75,7.98,1.49ZM323.07,494.43l-3.97-.33c-3.32,7.44,4.01,15.46,11.89,13.9l-1.67,2.82-6.33.18c12.27,10,17.53-5.09,14.52-16.03-4.26-6.23-6.62,12.83-12.43,8.93l-2.02-9.47ZM289.11,547.89c4.71.23,13.26,4.39,11.49,10.13-1.56,5.06-13.36,7.85-16.05,3.92-2.07-3.03-3.01-20.4.93-20.71,3.78.98,3.62,3.24,3.63,6.66ZM289,552c.29,2.97-1.14,6.82,1.49,8.98,6.11-2.87,6.12-9.51-1.49-8.98ZM373.74,547.25c.96,1.02,2.17,10.2,2.28,12.28.54,9.71-10.98,7.65-17.01,4.45l11.99-2c.72-3.36-2.83-1.11-5.5-1.89-15.43-4.52-.27-21.88,8.24-12.84ZM366.67,548.11c-3.07.79-3.95,6.95-1.14,8.88,4.63,1.38,8.04-9.26,1.14-8.88ZM186,603.99c-1.84-4.63-10.34-.15-11.99-3.51-.8-1.63,1.71-2.01,2.74-2.21,5.32-1.04,11.85-.32,14.46,5.02,1.11,2.28,3.37,12.22.27,12.72-4.09-3.22-12.06,1.43-15.54-3.43-4.5-6.28,4.76-9.94,10.07-8.59ZM181.73,607.15c-6.6,1.85,2.77,7.6,6.25,2.35-1.49-1.69-3.96-3-6.25-2.35ZM258.66,496.34c3.08,3.01,4.29,10.43,3.34,14.66-6.12-1.5-11.98,1.75-17.52-2.98-2.41-7.88,5.56-9,11.52-8.52-2.76-4.45-8.68-1.1-10.97-1.97-.7-.27-2.79-2.13-1.02-3.03,3.61-2.62,11.57-1.19,14.66,1.84ZM248,505.99c2.89.62,6.58,2.46,8.98-.49-1.98-3.25-8.79-4.19-8.98.49ZM290.51,488.94c-1.14.11-2.07.55-2.42,1.71-.2.66.79,12.16,1.01,13.76.46,3.36,1.89,7.21,5.91,6.58v-8c6.92-1.73,3.98,9.6,12,8,1.61-1.53-6.38-10.77-.96-11.5l-1.02-3.04-11.01,2.54c-.37-3.52,1.79-10.59-3.5-10.06ZM309.07,645.43l-4.06-.43c-.77,3.05.41,20.03,6,16.58,2.57-1.59,1.9-10.16,6.48-10.59,1.27-.02,2.79,16.16,7.03,10.03,1.49-2.16-.53-10.73-2.55-12.5-3.6-3.15-8.77-1.34-11.96,1.47l-.94-4.57ZM216.5,544.02c7.72,14.45,9.39,1.65,3.07-2.08-8.63-5.1-10.51,4.33-9.56,11.07h-6c-.59,4.21,5.88,3.36,6.82,4.16,1.01.86.44,9.24,5.18,6.32v-7.5s8.99-1.01,8.99-1.01c-1.73-4.22-6.27-2.88-10-2.98.2-2.71-.98-6.06,1.5-7.98ZM277.5,499.02c2.05-.03,1.79,12.32,6.99,10.97,3.09-.9-.5-12.18-3.2-13.81-3.22-1.95-7.01-.12-9.8,1.79-1.48-.12-1.25-6.17-4.98-4.97-3.22,1.03-.55,20.97,5.4,16.89.55-.38,2.59-9.97,5.59-10.88ZM223,506.5c0,2.69,3.03,5.57,6,4.5.49-.48-1.34-12.46,3.99-12,1.37,2.52,2.89,13.75,6.5,12.99,5.36-1.13-2.79-22.15-11.48-15,.07-2.7-1.03-10.9-5.01-6.5v16ZM336.94,545.44c-2.43,1.78-1.31,18.02,5.08,17.09.93-.71,4.2-14.09,6.97-11.53,5.49,27.35,10.91-.22,2.32-2.8-4.14-1.25-6.72.43-10.3,1.8l-1.02-4.99-3.04.44ZM260.51,597.02c-5.89-.36-3.36,18.95,3.48,17.98,1.27-4.18,1.95-9.04,5.51-11.98,1.86-.03,2.6,15.37,7.49,11.98,4.21-2.92-4.44-23.94-13.97-12l-2.5-5.97ZM357.57,604.04l-6.55,2.46c1.44,3.15,5.39,1.89,7.04,2.94s-.21,7.84,4.43,6.55c2.71-.75-.22-6.2.51-7.99.64-.66,7.62,1.33,8.98-1.5l-9.55-3.43.59-7.07c3.84,1.32,3.02,7.9,7.98,6.99-1.57-13.27-16.06-13.97-13.43,1.04ZM230.99,651.99l-6.99,1.5c1.99,2.97,4.78,2.7,8,2.5-.2,3.23-.47,6.03,2.49,7.99,3.08-2.11,2.74-4.16,1.61-7.41l.84-1.11,8.05-.47v-2.99s-9.6-1.95-9.6-1.95l.6-7.05c2.31.04,5.27,9.81,7.98,6.99,4.19-4.34-16.43-20.99-13,2ZM365.14,494.14c-3.93,6.89,3.76,19.16,11.85,15.34.92-.43,1.87-2.32,2.5-2.33.52,0,4.92,4.34,7.51,2.84-1.59-4.77-5.68-8.41-5.12-13.85-6.33-2.69-5.65,3.77-7.41,7.87-.37.85-.25,2.78-1.95,1.99-3.34-1.56-1.92-8.89-3.65-11.85h-3.73ZM375,599c-2.96,8.82,8.03,22.85,14.03,12,1.02,1.04,9.09,6.09,8.96,2.5-.02-.66-7.34-7.8-5.14-11.84l-1.49-1.52h-4.23s-3.62,10.84-3.62,10.84c-3.68-2.91-3.71-7.75-3.49-11.99h-5.01ZM234.73,546.23c4.37-.9,7.47-.2,10.12,3.43,8.57,11.76-4.75,17.88-14.2,11.2-6.67-4.71-3.17-13.14,4.08-14.63ZM233.25,558.76c3.09,3.06,9.81,1.57,8.35-4.8-2.3-10.12-13.81-.6-8.35,4.8ZM250.69,600.31c7.12,6.62,3.53,16.93-6.92,15.49-19.9-2.74-4.49-26.12,6.92-15.49ZM246.88,602.12c-9.66-2.64-11.14,11.51-1.43,9.88,5.63-.95,2.71-6.35,1.43-9.88ZM342.29,497.28c6.85-8.39,21.3-1.03,19,9.44-6.25,10.7-26.99.36-19-9.44ZM353.76,498.24c-3.98-4.15-11.36,4.19-6.09,8.83,2.75,1.46,5.62,1.09,7.89-1.07.84-1.36-.82-6.74-1.8-7.76ZM219.99,493.49c.37-2.24-2.09-2.16-3.43-2.55-4.43-1.29-11.31-1.3-15.94-.81-12.95,1.38-7.44,6.81,1.79,3.98l1.11.84c1.64,2.69-.48,18,6.47,15.54l-1-16.49,10.99-.52ZM328,598c-.38,3.46,1.79,19.59,7.48,18,2.56-.72.55-11.42,6.95-11.01,1.74.11,6.2,4.04,5.59.51-1.35-7.92-13.08-1.65-14-2.49l-1.15-4.87-4.87-.14ZM248,645c-.5,3.91,1.6,19.57,7.47,18l3.94-10.08c3.45-2.72,5.15,1.28,8.08,1.09,2.33-2.53-2.93-5.49-5.12-5.71-3.2-.33-5.53,2.22-8.36,2.7l-1.15-5.86-4.86-.14ZM251,546c.19,5.68.28,19.89,8.9,16.89-.04-3.21.34-10.52,4.61-10.52,2.35,0,5.68,5.01,6.49.15-3.94-5.05-9.28-4.08-13.99-.51l-1.15-5.86-4.86-.14ZM400.94,594.44c-2.45,1.8-.35,24.91,4.05,21.55.84-2.88.05-21.32-1.01-21.99l-3.04.44ZM272,649.99c.23,4.56-1.76,13.36,4.99,13l-1.14-12.85-3.85-.15ZM327.99,551.59c-1.69,16.82,8.82,15.51,3.87-.44l-3.87.44ZM328.51,541.01c-3.73,1.12.55,9.45,4.48,7.98-.28-2.3-.58-9.16-4.48-7.98ZM271,641.01c.69,8.79,8.09,11.65,4.94.05l-4.94-.05ZM293.56,608c-10.9-12.47-10.58,10.89-1.86,3.68.54-.45,2.18-2.95,1.86-3.68ZM338.56,659.05c5.07-3.1.38-8.76-2.86-7.95-4.27,1.06-4.21,12.27,2.86,7.95ZM308.01,552.49c1.69,2.3,4.63,1.44,6.99,1.51l-1.05-4.96c-1.77-.46-6.4,1.3-5.94,3.45ZM290.4,648.07l-5.38,3.43c2.36,2.77,4.82,2.67,7.98,1.49l-2.6-4.92ZM313.36,601.15l-5.34,3.35c.98,2.05,7.05,2.75,7.98,1.49.84-1.14-1.01-4.54-2.64-4.84ZM290.49,560.98c6.11-2.87,6.12-9.51-1.49-8.98.29,2.97-1.14,6.82,1.49,8.98ZM365.53,556.99c4.63,1.38,8.04-9.26,1.14-8.88-3.07.79-3.95,6.95-1.14,8.88ZM187.98,609.5c-1.49-1.69-3.96-3-6.25-2.35-6.6,1.85,2.77,7.6,6.25,2.35ZM256.98,505.5c-1.98-3.25-8.79-4.19-8.98.49,2.89.62,6.58,2.46,8.98-.49ZM241.6,553.95c-2.3-10.12-13.81-.6-8.35,4.8,3.09,3.06,9.81,1.57,8.35-4.8ZM245.45,612c5.63-.95,2.71-6.35,1.43-9.88-9.66-2.64-11.14,11.51-1.43,9.88ZM347.67,507.07c2.75,1.46,5.62,1.09,7.89-1.07.84-1.36-.82-6.74-1.8-7.76-3.98-4.15-11.36,4.19-6.09,8.83ZM336,747c6.99-.38,21.08-1.16,16.33,9.78-1.07,2.47-3.99,1.1-4.33,3.21,4.02.12,6.11,2.54,6.11,6.51,0,9.08-11.8,7.52-18.12,7.5v-27ZM340,758l8.02-1.48c3.69-6.49-3.19-5.76-8.02-5.53v7.01ZM340,770c5.16.37,10.88.78,9.56-6-.89-1.7-7.16-3.65-8.61-2.59l-.96,8.59ZM252,774h4c.41-.38-.29-8.66-.05-10.55.83-6.41,8.05-6.42,8.05-3.95v14.5h5.01c.3-10.38,1.65-24.71-13-17v-11s-4.01,0-4.01,0v28ZM309,766h-13c-.33,6.27,6.17,5.69,10.42,3.99l1.57,2.51c-8.51,4.46-18.94-.11-16.77-10.77,2.33-11.47,21.02-8.28,17.78,4.27ZM305,762.99c.68-7.04-10.38-6.62-8.49.01h8.49ZM331,766h-14c.37,3.64,3.29,4.97,6.5,5.11,2.35.11,5.06-2.46,5.49,1.37-.54,2.6-12.86,2.87-15.24-2.74-7.36-17.28,18.79-21.38,17.25-3.75ZM327,762.99c.12-7.23-11.34-6.68-9.49.01h9.49ZM226,747v4s8,0,8,0v23h4v-23h8s0-4,0-4h-20ZM274,774h5.01c.44-5.89-2.2-12.14,4.27-15.24,1.42-.68,4.58-.54,4.74-1.27,1.43-6.6-9.57.98-10,.51l-.1-2.87-3.91-.13v19ZM349.56,764c-.89-1.7-7.16-3.65-8.61-2.59l-.96,8.59c5.16.37,10.88.78,9.56-6ZM348.02,756.52c3.69-6.49-3.19-5.76-8.02-5.53v7.01s8.02-1.48,8.02-1.48ZM296.51,763.01h8.49c.68-7.05-10.38-6.63-8.49,0ZM317.51,763.01h9.49c.12-7.24-11.34-6.69-9.49,0Z"/>
</svg>