<?xml version="1.0" encoding="UTF-8"?>
<svg id="_レイヤー_1" data-name="レイヤー 1" xmlns="http://www.w3.org/2000/svg" width="204.61mm" height="305.86mm" viewBox="0 0 580 867">
  <path d="M345,75.99c21.49.4,42.57,2.22,62.35,11.15,17.47,7.89,31.89,22,47.96,30.04,19.06,9.54,26.76,8.55,42.71,26.29,30.07,33.44,41.17,82.04,53.26,123.74,8.31,28.68,26.91,47.13,23.71,79.27-.73,7.33-6.96,17.59-6.99,22.99-.05,6.47,4.36,16.74,4.99,24.03,2.06,23.85-7.38,49.99-10.21,73.76-2.19,10.17-12.9,16.02-17.61,23.39-2.84,4.44-4.04,10.86-6.3,15.7-13.42,28.63-41.56,38.13-69.35,21.99l-7.43,5.26c5.16,9.32,9.61,19.07,12.43,29.4,3.24,11.88,4.25,32.35,8.76,42.24,1.17,2.57,5.67,6.39,7.56,9.44,6.69,10.71,4.09,11.99,4.1,22.82,0,3.47,1.84,6.61,2.07,10.01.6,8.86,1.31,19.5-4.17,26.81-3.87,5.16-6.31,2.83-5.8,10.15,1.41,20.02,21.75,27.48,17.74,48.79-1.74,9.25-14,19.98-23.72,19.78-2.3,10.31,5.64,17.25,6.85,27.57,5.27,45.09-33.13,56.11-70.23,54.56-10.85,15.14-30.75,25.08-49.29,26.71-29.04,2.54-62.81-4.58-77.88-31.88l-6.98,9.02c-28.01,31.95-95.81,31.9-121.18-3.85-36.85,1.36-74.82-8.91-70.33-53.65,1.09-10.83,9.13-17.85,6.95-28.47-9.72.21-21.98-10.53-23.72-19.78-4.06-21.62,16.86-29.1,17.78-48.81.29-6.18-4.16-7.02-7.06-11.91-7.47-12.63-1.44-22.04-.93-34.09.19-4.34-1.66-7.58-.79-12.71,1.6-9.51,9.63-14.21,12.5-20.49,4.52-9.89,5.52-30.35,8.76-42.24,2.45-8.99,6.18-18.76,11.33-26.51l-7.31-7.47c-27.82,15.19-55.18,5.51-68.39-22.66-6.75-14.4-5.51-13.08-15.66-25.34-10.79-13.04-8.9-19.29-11.61-34.39-3.3-18.34-8.57-34.98-6.76-54,.66-6.95,4.93-16.89,4.88-23.14-.04-5.22-6.1-15.27-6.9-22.09-3.79-32.38,15.25-51.32,23.61-80.18,11.6-40.05,19.85-77.34,44.47-112.53,19.22-27.47,32.23-27.54,58.49-42.51,8-4.56,15.26-10.91,23.66-15.34,23.74-12.53,53.2-18.02,79.67-20.84-7.89-29.61,11.87-62.19,41.8-68.7,42.13-9.16,77.78,27.06,68.21,68.7ZM338,80.99c17.43-45.9-32.16-87.95-75.04-62.52-21.2,12.57-28.93,38.41-21.96,61.53-30.13,3.56-61.79,8.9-88.31,24.2-7.29,4.21-14.28,10.46-21.65,14.35-26.22,13.84-37.54,14.59-55.46,41.54-23.1,34.76-30.59,69.22-41.87,108.13-7.88,27.18-27.52,49.07-23.46,79.03.9,6.64,6.61,15.9,6.79,21.29.24,7.17-4.2,17.52-4.92,25.09-1.57,16.37,4.72,48.54,8.18,65.58s12.88,18.1,19.56,29.44c2.47,4.2,3.78,11.32,5.97,16.03,12.85,27.67,41.73,34.68,66.16,16.32,2.01,5.74,6.54,9.76,10.88,13.63-4.44,9.76-9.49,18.96-12.36,29.37-3.44,12.5-4.3,32.17-9,43-3.53,8.14-13.45,11.91-12.42,24.36.75,9.12.38,6.71-.83,15.39-1.14,8.15-1.88,18.24,3.31,25.18,4.81,6.43,7.25,2.27,6.41,13.55-1.11,14.96-7.94,17.94-14.17,28.82-10.63,18.54,1.35,32.56,20.25,35.3-1.21,3.82,1.34,9.53.79,12.65-.82,4.61-6.98,11.69-7.84,20.25-4.17,41.22,34.2,50.36,67.31,46.59,21.5,36.36,90.94,36.99,116.1,5.82,3.34-4.14,5.44-9.23,8.35-13.61.42-.63-.27-1.8,1.72-1.31.81.2,6.8,11.93,8.68,14.34,24.96,31.85,94.81,31.31,116.51-5.23,11.96,1.7,25.84.72,37.53-2.39,26.21-6.98,36.11-31.11,26.55-55.97-1.05-2.74-4.29-6.67-4.61-8.48-.56-3.12,2-8.83.79-12.65,17.63-2.59,30.21-15.17,21.25-33.29-5.81-11.74-13.98-14.93-15.16-30.83-.82-11.05,1.1-7.18,6-12.97s4.7-16.73,3.97-24.01c-.88-8.79-1.87-7.44-1.07-17.14,1.02-12.45-8.89-16.22-12.42-24.36-4.75-10.95-5.59-30.99-9.23-43.77-3.22-11.3-8.71-21.35-14.2-31.64l13.58-9.45c24.77,16.12,52.3,10.43,65.21-16.79,2.35-4.95,3.71-12.33,6.29-16.71,3.99-6.78,15.48-13,17.63-22.37,2.51-22.86,12.19-48.97,10.21-71.76-.69-7.89-5.27-18.6-5.03-25.98.19-5.82,6.28-15.49,7.04-23.04,2.96-29.6-15.84-50.12-23.71-77.27-11.75-40.55-22.66-88.64-51.77-121.23-14.9-16.68-22.13-16.13-40.42-24.58-14.81-6.85-29.75-21.58-45.74-29.26-22.14-10.64-46.09-12.17-70.36-12.15ZM312.7,60.28c0,12.54-10.16,22.7-22.7,22.7s-22.7-10.16-22.7-22.7,10.16-22.7,22.7-22.7,22.7,10.16,22.7,22.7ZM307.7,60.31c0-9.78-7.93-17.7-17.7-17.7s-17.7,7.93-17.7,17.7,7.93,17.7,17.7,17.7,17.7-7.93,17.7-17.7ZM344,612c-5.22-1.35-14.64,2.25-17.48-4.01-3.58-7.88,4.63-11.99,11.48-10.98v-7c3.31-1.19,5.99,4.14,5.99,6.5v15.5ZM333.62,600.05c-7.69,5.52.19,14.1,4.42,4.45l-4.42-4.45ZM286.01,605c-.5,2.63.51,1.76,1.99,2.45,3.44,1.62,5.2,1.68,8.4-.59,1.4-.99,1.37-3.6,3.08-2.85,1.5.65,1.88,2.86,1.4,4.34-5.72,6.25-16.97,3.84-20.15-3.64-4.32-10.14,17.26-15.2,16.84-1.72-2.96,3.45-7.56,3.95-11.56,2.01ZM291.89,598.1c-9.53-.55-7.06,6.91,1.11,3.89l-1.11-3.89ZM304.94,594.44c-2.4,1.77-.99,18.51,6.02,15.52l3.15-9.86c4.57-1.55,2.68,5.62,4.99,9.3,2.45,3.9,4.3-.17,3.63-4.64-2.37-15.74-13.04-5.07-13.72-5.77l-1.03-5-3.04.44ZM233.95,600.96l-5.95,1.54c1.77,2.61,4.02,2.72,6.98,2.52.44.43-.78,8.77,3.51,6.97,3.21-1.35-.03-5.69.94-7.02l8.55-2.47-9.57-3.47.59-6.03c3.5-.79,3.22,5.23,4.13,5.86l3.86.13c-2.94-12.66-15.15-12.69-13.04,1.96ZM249.92,595.65c1.73,5.8.29,17.11,9.08,15.36-.61-3.45.7-10.57,5.27-9.88,1.98.3,3.67,3.54,5.71.37-4.18-5.23-8.71-3.61-13.97-1.5.5-4.32-2.18-7.81-6.09-4.35ZM274.51,599.01c-2.69.57-2.85,13.93,3.48,11.99.3-1.93-.16-12.69-3.48-11.99ZM273.51,590.01c-3.81,1.06,1.83,9.95,3.48,7.99.09-2.35,1-9.23-3.48-7.99ZM338.03,604.5l-4.42-4.45c-7.69,5.52.19,14.1,4.42,4.45ZM293,601.99l-1.11-3.89c-9.53-.55-7.06,6.91,1.11,3.89ZM217.51,241.02c-6,.99-3.77,14.85.16,15.87,4.33,1.13,4.81-8.18,6.35-10.9,3.81,2.24.26,12.14,7.52,9.03.82-3.1-.23-6.1,2.98-8.03l3.43,8.55c7.52,2.49,2.41-11.43-.64-12.37-3.2-1.09-5.14.53-7.78,1.85-2.29-5.3-7.09-3.35-10.51-.03l-1.51-3.97ZM292,259c-2.13.73-3.85-1.97-5.33-1.83-2.12.21-2.54,2.5-6.68,1.39-11.89-3.18-5.27-18.63,6-14.57v-7s3.87.15,3.87.15c.05,1.44,2.14,4.68,2.14,5.36v16.5ZM279.25,254.77c2.19,2.33,8.65-1.03,5.81-5.31-4.25-6.4-9.3,1.61-5.81,5.31ZM312.01,251.01c3.89-1.57,5.16,2.99,1.93,5.44-4.93,3.72-15.74,1.36-18.42-4.46-5.43-11.82,18.93-15.77,16.49-.97ZM307,248.99c.78-6.17-3.38-6.12-6.99-2.48-1.13,2.36,5.81,2.72,6.99,2.48ZM252.5,251.03l-3-2.03-.97-7.02c-2.76-4.14-7.3,2.68-2.05,9.05,3.15,3.81,5.85,4.67,10.53,2.98-.8,2.51-1.67,3.7-4.45,3.83-1.91.09-5.22-2.62-4.55,1.15,12.62,5.93,16.48-4.15,14.86-15.34l-1.48-1.53-3.29-.02c-.77,2.49-2.21,8.93-5.59,8.93ZM336,258c-2.64,1.22-3.19-1.92-3.42-1.91-5,.27-11.18,3.58-13.62-3.65.54-6.39,6.39-5.18,11.05-5.94-3.83-4.5-10.88,1.68-12-4.49,12.75-4.48,19.27,3.81,18,15.99ZM331,251.01c-2.75-.78-7.88-2.71-7.99,1.98,2.75.78,7.88,2.71,7.99-1.98ZM342.34,241.13l-2.88.83c-1.45,2.13,1.35,15.84,6.03,16.06,1.88.27,1.28-.2,1.75-1.28,1.46-3.4.16-8.4,5.26-9.41,1.44.01,4.88,4.31,5.49,1.15.91-4.78-10.46-5.24-12.98-1.49.17-2.5-.18-4.8-2.67-5.87ZM361,236.99l1.02,14h2.97c-.9-4.83,2.18-9.5-.15-13.84l-3.84-.16ZM225.86,295.14l11.14,32.85-7.9-.09-2.04-7.46c-8.51-1.56-10.82-1.32-13.02,7.1l-7.04.45,10.48-32.01,8.37-.84ZM226,314.99c-2.17-3.93-1.19-10.25-4.99-12.99l-3.01,12.99h8ZM291.86,295.14l11.14,32.85-7.9-.09-2.04-7.46c-8.51-1.56-10.82-1.32-13.02,7.1l-7.04.45,10.48-32.01,8.37-.84ZM292,314.99c-2.07-3.87-1.58-10.13-4.99-12.99l-3.01,12.99h8ZM353,295v33h20v-6.01s-13.01.01-13.01.01v-8.43s12.01-.57,12.01-.57v-5.01s-12.01.01-12.01.01v-7.01s13.01.01,13.01.01v-6.01h-20.01ZM240.11,296.38l11.03,31.48,7.2.18,11.66-33.03-7.9.09c-2.14,6.85-3.32,15.99-6.05,22.45-.43,1.03-.64,2.33-2.04,2.45l-6.11-24.9c-1.69.26-8.43-1.43-7.8,1.28ZM181.07,297.57c-16.91,11.86,1.37,39.99,20.84,28.34l-.93-5.91c-25.53,11.3-24.08-30.03,0-17,5.16-11.15-14.38-9.31-19.92-5.43ZM308,295v33h20.5l1.5-6h-14v-27h-8ZM337,295v33l6.35-.16,1.65-1.34v-31.5h-8ZM395.5,295c10.54,1.74,11.19,13.61,2.52,18.5,4.28,3.6,5,9.54,6.98,14.49-11.66,4.12-7.58-13.12-15.55-13-4.25.06-1.87,9.96-2.44,13.01h-7.01v-33.01c4.77.55,10.95-.75,15.5,0ZM387,310c4.39.39,8.61.34,10.05-4.55.85-3.81-6.87-6.65-9.11-5.03l-.94,9.58ZM397.04,305.45c.85-3.81-6.87-6.65-9.11-5.03l-.94,9.58c4.39.39,8.61.34,10.05-4.55ZM221.01,302l-3.01,12.99h8c-2.17-3.93-1.19-10.26-4.99-12.99ZM287.01,302l-3.01,12.99h8c-2.07-3.87-1.58-10.13-4.99-12.99ZM285.06,249.45c-4.25-6.4-9.3,1.61-5.81,5.31,2.19,2.33,8.65-1.03,5.81-5.31ZM300.01,246.51c-1.13,2.36,5.81,2.72,6.99,2.48.78-6.17-3.38-6.12-6.99-2.48ZM323,252.99c2.75.78,7.88,2.71,7.99-1.98-2.75-.78-7.88-2.71-7.99,1.98ZM319.29,507.71c.64.9,3.05,1.22,3.54,2.77-2.68,5.98-11.09,6.93-16.34,3.52-9.47-6.14-5.05-16.22,6.03-15.08,6.36.66,4.73,5.94,6.77,8.78ZM312.89,502.1c-9.53-.55-7.06,6.91,1.11,3.89l-1.11-3.89ZM355,514.01c3.56.12,7.94,2.8,10.99-.53l-6.69-2.27c-11.2-6.3,2.15-18.17,9.24-11.25,2.74,2.67,3.1,11.03,2.46,14.54-.99,5.37-13.87,4.51-16-.49ZM361.1,501.1c-1.32,2.46-2.32,8.94,2.25,7.76,4.11-1.06,3.98-9.83-2.25-7.76ZM288.91,495.1l.13,5.86c18.04,2.22,11.97,18.11-3.8,13.8-.74-4.92-6.03-23.36,3.66-19.66ZM289,504c.29,2.96-1.15,6.82,1.49,8.97,6.25-2.86,5.27-8.48-1.49-8.97ZM332.96,500.54c-.51,3.18,1.68,16.98,6.96,13.38,1.2-3.51,1.22-9.46,6.07-9.91-1.6,4.67,7.01,16.45,6.51,6.89-.11-2.01-2-8.01-3.53-9.35-5.08-4.44-9.89,2.63-10.97,1.47,1.38-4.67-4.24-7.47-5.04-2.46ZM215,505l-5.98,1.5c1.75,2.59,4.04,2.76,6.98,2.5l.47,6.03,3.52.97v-8s8.01,0,8.01,0v-2.99s-8.86-1.15-8.86-1.15l.34-5.87c1.94-3.58,4.6,8.06,7.51,5.01,4.37-4.57-15.73-18.65-11.99,2ZM237.74,499.23c12.74-2.23,16.84,14.57,5.77,15.79-13.64,1.5-17.56-13.73-5.77-15.79ZM236.25,510.76c5.15,5.06,12.6-2.32,5.76-8.31-4.63-1.89-9.13,5-5.76,8.31ZM257,498.42l-4.06,1.25c.73,5.43.17,16.48,8.02,15.29,1.42-8.85,1.74-12.05,11.03-7.97.3-6.59-8.99-5.92-12.98-3l-2.01-5.58ZM329.5,504l-3.49-1,.89,11.41,4.1.59-1.5-11ZM328.51,501.99c2.44,1.02,1.68-6.27,1.34-6.83-2.74-4.52-7.98,3.25-1.34,6.83ZM314,505.99l-1.11-3.89c-9.53-.55-7.06,6.91,1.11,3.89ZM363.34,508.86c4.11-1.06,3.98-9.83-2.25-7.76-1.32,2.46-2.32,8.94,2.25,7.76ZM290.49,512.98c6.25-2.86,5.27-8.48-1.49-8.97.29,2.96-1.15,6.82,1.49,8.97ZM242.01,502.44c-4.63-1.89-9.13,5-5.76,8.31,5.15,5.06,12.6-2.32,5.76-8.31ZM320.11,460.39c2.72,2.53,5.44,3.59,8.88,1.61-.27,4.31-4.19,4.7-7.48,2.98l-.51,2c8.01,3.89,12.95,2.01,14.55-6.93.81-4.56,2.03-12.04-4.61-9.61-2.17,3.6-2.04,9.83-7.85,8.46-1.12-18.92-11.52-6.45-2.98,1.49ZM293.55,445.95l-3.05-1.02-2.39,1.64c2.47,6.14-2.31,18.83,6.88,19.42v-7.49c5.97-2.07,3.97,9.24,11,7.49.79-2.87-2.71-6.72-2.81-8.67-.08-1.59,2.51-3.15,1.81-5.32l-10.99,2-.46-8.05ZM247.31,457.3c.48-.57,2.71-1.87,3.44-2.03,2.27-.51,6.31.66,7.25-1.26-3.79-2.96-11.54,1.4-11.99-4,9.35-3.13,17.09.25,17.91,10.62.68,8.51-2.47,3.86-4.43,3.72-.87-.06-2.09,1.37-3.78,1.37-4.32,0-12.72-3.37-8.4-8.42ZM252.64,458.12c-5.43,1.65,3.7,6.86,6.34,2.38-1.57-2.14-3.68-3.19-6.34-2.38ZM346.73,449.22c9.65-.86,16.15,14.18,4.54,16.55-14.17,2.89-18.56-15.3-4.54-16.55ZM345.7,453.18c-4.5,1.34-3.88,10.59,2.56,9.65,6.27-.92,4.14-11.65-2.56-9.65ZM267,448.99c.19,5.37-1.71,15.97,5.97,15.99,1.18-4.02,1.79-8.97,6.01-10.99l3.03,10.99,3.02-.45c2.39-8.97-3.82-19.2-13.03-10.55l-1.14-4.86-3.87-.14ZM365.05,463.45c6.77,4.24,7.73-1.08,9.44-1.23s4.96,5.35,7.5,1.28c-4.09-1.48-4.36-11.56-6.6-12.39l-3.3-.02c-.62.42-2,12.24-5.07,9.91l-2.02-11c-8.64-1.33-4.69,10.48.05,13.45ZM227,463.5c0,.94,3.55,3.21,4.99,2.5l2.52-11c5.01-1.04,2.62,13.8,8.49,10.49.84-8.4-2.46-16.05-12-13.49l-.48-6.03-3.52-.98v18.5ZM222.28,447.22c-3.29-1.9-24.22-2.08-24.26,1.28,1.6,3.02,10.18.69,10.98,1.5-.11,5.48-.63,11.62,3.48,15.96l2.51-.95-1.01-15.01h10c.35-1.72-.43-2.04-1.71-2.78ZM258.98,460.5c-1.57-2.14-3.68-3.19-6.34-2.38-5.43,1.65,3.7,6.86,6.34,2.38ZM348.27,462.83c6.27-.92,4.14-11.65-2.56-9.65-4.5,1.34-3.88,10.59,2.56,9.65ZM331,691c10.02-1.1,24.48,2.73,12,12.99,5.03-.11,7.3,5.19,4.8,9.31s-12.38,3.76-16.8,3.7v-26ZM336,702c9.76-.03,10.89-8.1,0-7.01v7.01ZM336,713c11.64,2.3,10.6-9.67,0-8.01v8.01ZM252,717h4c.45-6.04-2.8-17.62,7.12-14.41l.89,14.42h3.99c.41-9.44,1.35-24.82-11.99-16v-10s-4.01,0-4.01,0v26ZM326,709h-12c-1.12,8.13,10.03,2.94,10.99,5.51,1.02,2.75-7,2.66-8.43,2.43-10.56-1.64-10.09-19.79,2.49-18.5,6.21.64,7.44,4.88,6.95,10.55ZM317.66,701.22c-2.3.21-3.57,2.51-4.63,4.29.09,1.98,7.53,1.93,9.01,1.02,2.16-1.21-1.7-5.56-4.37-5.31ZM227,691v4s8,0,8,0v22h4v-22h8s0-4,0-4h-20ZM306,709h-13c0,5.85,6.77,5.92,10.98,4l1.01,2.51c.39,1.11-14.47,5.2-15.95-6.09-1.88-14.38,19.18-14.94,16.96-.41ZM302,707c.66-6.59-5.65-7.86-8.99-2.47-.74,3.43,7.07,2.44,8.99,2.47ZM273,717h4c-.57-8.11-.43-14.48,9.01-15.51l-1.49-3.46-7.02,3.96-.59-2.88-3.91-.11v18ZM336,705v8.01c11.64,2.3,10.6-9.67,0-8.01ZM336,695v7.01c9.76-.03,10.9-8.1,0-7.01ZM313.02,705.51c.09,1.98,7.53,1.93,9.01,1.02,2.16-1.21-1.7-5.56-4.37-5.31-2.3.21-3.57,2.51-4.63,4.29ZM293.01,704.53c-.74,3.43,7.07,2.44,8.99,2.47.66-6.59-5.65-7.86-8.99-2.47ZM214.54,548.96c-7.18-3.45-5.47,10.68-1.51,13.51,4.81,3.44,5.98-.12,8.48-.12,1.12,0,2.55,1.61,4.08,1.69,2.39.12,4.77-3.1,8.41-1.04-.93-3.35.26-16.91-5.58-12.08-2.65,2.19-.64,8.49-4.4,8.09l-1.01-9.01-4.06.44-1.95,9.56c-4-1.84-.7-8.25-2.45-11.04ZM299,566c-2.06.72-3.48-1.57-4.7-1.79-2.15-.38-4.18,3.51-10.02,0-8.63-5.19.04-17.49,8.71-13.22v-7c2.98-1.06,6.01,1.81,6.01,4.5v17.5ZM287.62,554.07c-6.21,2.03,3.27,15.78,5.24,2.64-.78-2.04-3.08-3.35-5.24-2.64ZM316.7,549.31c1.51,1.13,3.94,6.8,2.09,8.46l-10.79,1.73c3.02,3.23,7.2,3.37,10.55.53,2.05-1.73.43-4.67,4.51-1.38,1.96,8.3-18.86,9.34-20.92-1.38-1.51-7.83,9.71-11.58,14.55-7.95ZM314,555.99c.78-6.17-3.38-6.12-6.99-2.48-1.13,2.36,5.81,2.72,6.99,2.48ZM197.99,564.99c-4.44-3.06-12.56,1.36-16.06-3.42-4.09-5.59,5.31-9.5,10.07-7.58-1.77-5.98-12.98,1.22-10.03-5.52,11.79-3.29,18.65,5.59,16.02,16.53ZM185,559.99c1.9.93,8.69,2.11,7.99-1.47-.43-2.22-8.73-2.7-7.99,1.47ZM259,548c-.25,2.87.53,18.92,6,15.58,2.22-1.35,1.86-8.98,5.49-10.56,3.52,3.21,1.14,11.65,7.49,10.97.69-10.3-2.92-18.04-13.99-11.99.2-3.75-1.5-4.44-5.01-4.01ZM244.75,548.22c12.59-2.08,16.43,17.19,2.79,16.83-11.38-.3-14.83-14.84-2.79-16.83ZM251.36,556.9c0-2.7-2.18-4.88-4.88-4.88s-4.88,2.18-4.88,4.88,2.18,4.88,4.88,4.88,4.88-2.18,4.88-4.88ZM370,549c-.42,5.18.35,10.48,5.05,13.45,6.75,4.25,7.99-1.5,8.5-1.5,1.72-.01,3.81,2.22,5.41,2.63,5.81,1.47.38-3.62-.52-5.51-1.07-2.26-1.35-7.41-3.03-7.98l-3.48.35c-1.12.8-2.24,12.01-4.91,9.57l-2.01-11h-5.01ZM354.13,545.63l-.57,8.43-5.56,2.42c1.35,2.24,4.57,1,6.05,1.95,1.69,1.08-.22,7.84,4.43,6.55,2.88-.8-.47-5.11.93-7.05l7.59-1.45c-.08-4.24-7.02-1.25-8.58-3.42l.58-7.07c3.5,1.15,2.67,7.1,6.98,6.99,1.21-6.42-6.85-13.19-11.86-7.36ZM325.99,548.53c.76,5.59.13,17.13,8.01,16.47.68-3.82.46-8.2,4.04-10.55l6.96,1.55c-1.72-6.91-7.99-4.79-12.97-3-.34-3.31-2.46-6.49-6.04-4.46ZM394.13,556.37c.32,3.26.64,10.68,4.88,8.12l-1.01-20.5c-5.68-1.19-4.26,8.36-3.86,12.37ZM292.86,556.71c-.78-2.04-3.08-3.35-5.24-2.64-6.21,2.03,3.27,15.78,5.24,2.64ZM307.01,553.51c-1.13,2.36,5.81,2.72,6.99,2.48.78-6.17-3.38-6.12-6.99-2.48ZM192.99,558.52c-.43-2.22-8.73-2.7-7.99,1.47,1.9.93,8.69,2.11,7.99-1.47ZM246.48,552.02c-2.7,0-4.88,2.18-4.88,4.88s2.18,4.88,4.88,4.88,4.88-2.18,4.88-4.88-2.18-4.88-4.88-4.88Z"/>
</svg>