<?xml version="1.0" encoding="UTF-8"?>
<svg id="_レイヤー_1" data-name="レイヤー 1" xmlns="http://www.w3.org/2000/svg" width="204.61mm" height="305.86mm" viewBox="0 0 580 867">
  <path d="M226.01,124.01l11.99-2.02c-23.75-47.77,22.29-100.29,72.99-81.48,32.32,11.99,46.62,51,31.01,81.48l12.04.55c4.9-12.68,13.95-27.54,26.97-33.03,4.52-1.91,10.88-2.19,14.49-4.51,3.95-2.53,14.53-15.94,19.48-20.52,25.25-23.36,69.74-54.25,102.93-27.9,40.85,32.42,23.22,132.04,18.07,177.91-1.6,14.26-2.38,28.65-4.12,42.88-1.19,9.79-6.39,28.78-5.89,37.09.44,7.32,3.85,18.03,4.89,26.16,3.08,24.08,2.09,64.51,19.6,82.4,8.56,8.75,23.35,8.31,25.44,23.56,3.75,27.35-16.5,30.88-37.15,37.68-4.26,1.4-10.11,1.78-13.79,3.21-3.06,1.19-7.79,5.74-11.3,7.7-8.02,4.46-18.18,8.44-27.29,9.71-12.87,1.78-13.53-2.25-24.85,7.15-9.55,7.93-16.97,16.91-29.44,21.56l-10.06,28.85c7.47,14.94,13.02,30.78,15.68,47.35,4.3,26.8-.1,53.64,5.78,80.22,5.94,26.86,21.28,34.06,16.39,67.37-1.14,7.76-7.17,19.66-7.63,24.27-.19,1.92,2.42,7.7,2.74,10.86,2.95,28.78-17.57,41.78-43.51,44.47-2.78.29-12.1-.61-13.33.17-.24.15-1.1,3.13-2.14,4.35-23.29,27.4-71.32,21.95-90.68-7.35-5.49,1.04-15.53-2.89-19.91-.23-1.87,1.13-5.42,7.53-7.43,9.56-18.41,18.62-58.09,22.34-77.04,3.05-1.99-2.03-5.63-8.74-7.64-9.36-31.83,2-73.11-4.08-68.2-45.58.34-2.88,2.83-8.02,2.64-9.96-.25-2.54-5.04-12.25-6.07-16.82-3.98-17.58-3.02-33.71,4.45-50.2,8.83-19.51,12.69-27.43,13.92-50.08,1.93-35.69-1.2-55.65,12.49-90.51,1.01-2.57,3.94-6.64,4.3-8.79.44-2.62-9.01-30.79-10.77-32.81-1.39-1.6-10.41-5.58-13.37-7.63-6-4.14-19.54-19.28-25.27-19.82-1.83-.17-3.53.92-4.92.81-13.24-1.05-24.58-4.18-36.17-10.63-3.52-1.96-8.24-6.5-11.3-7.7-9.97-3.88-23.9-5.92-34.71-10.29-13.35-5.4-18.16-16.58-16.22-30.6,2.06-14.94,17.41-14.95,25.94-24.06,17.03-18.2,17.05-64.14,20.12-88.88.59-4.79,2.66-10.72,2.87-15.19.58-12.56-5.67-39.3-7.01-53.96-1.48-16.21-1.28-32.72-3.12-48.88-4.33-37.91-11.21-70.88-4.57-109.8C52.79.99,117.39,20.15,165.53,64.97c4.79,4.46,15.15,17.52,18.96,20.04,3.46,2.28,10.04,2.63,14.49,4.51,12.95,5.46,23.34,21.34,27.03,34.49ZM222.09,129.92c-4.61-15.15-13.21-31.16-29.14-36.37-3.29-1.08-8.1-1.1-10.51-2.49-4.22-2.43-11.66-13-15.92-17.08C126.36,35.48,62.61.59,45.31,80.81c-9.06,42.05-.81,75.69,3.67,116.7,2.11,19.3,1.97,39.51,4.02,58.98,1.21,11.46,6.38,32.1,6.02,41.95-.22,6.18-3.07,15.4-3.89,22.2-3.44,28.82-2.07,76.47-29.8,93.2-4.03,2.43-8.52,2.58-12.19,6.81-7.35,8.47-4.25,22.06,4.35,28.34,9.86,7.2,30.07,8.83,40.72,13.28,3.08,1.29,7.54,5.83,11.1,7.9,8.25,4.79,21.7,9.41,31.2,9.82,3.47.15,7.85-1.39,10.41-.5,7.15,2.51,17.56,15.15,24.15,19.92,3.66,2.65,13.59,6.53,15.39,8.61,2.28,2.65,12.86,33.86,12.52,37.38-.32,3.3-7.61,16.71-9.27,21.8-11.01,33.77-4.4,62.99-9.99,96.01-5.05,29.84-23.26,42.34-17.47,76.02,1.09,6.37,7.52,19.17,7.72,22.32.18,2.78-2.17,6.29-2.71,9.19-7.31,39.28,37.61,43.11,65.79,39.74,15.1,30.71,57.62,29.43,78.98,6.03,2.99-3.28,3.89-7.95,8.43-8.57,7.96-1.09,16.72,2.05,24.84,1.03,16.97,29.94,69.75,34.57,86.41,2,26.66,2.18,59.21-7.06,53.04-40.23-.54-2.9-2.89-6.41-2.71-9.19.2-3.15,6.62-15.95,7.72-22.32,5.78-33.67-10.42-41.4-16.28-69.21-7.32-34.76.37-67.14-11.18-102.82-1.8-5.56-9.95-20.52-10.28-23.81-.13-1.34.2-2.24.42-3.44.69-3.85,8.9-27.47,10.78-30.25s13.55-7.28,17.71-10.29c5.87-4.25,18.76-18.78,24.85-20.24,1.92-.46,6.53.96,9.71.82,9.56-.41,22.87-5.04,31.2-9.82,3.46-1.99,8.4-6.73,11.09-7.91,10.06-4.43,27.31-5.78,38.29-11.71,7.86-4.24,11.95-12.82,10.5-21.61-2.16-13.08-13.58-12.45-22.08-19.92-21.35-18.77-20.08-62.69-23.61-89.39-1.03-7.79-4.46-18.08-4.89-25.16-.55-9.19,5.6-33.71,6.89-45.09,2.81-24.66,5.22-49.42,7.98-74.02,4.14-36.88,13.39-128.26-34.42-141.3-31.51-8.59-65.66,19.48-86.96,39.92-3.67,3.52-13.02,15.94-16.5,17.5-2.3,1.03-6.73,1.03-9.92,2.08-15.88,5.21-24.6,21.31-29.14,36.37-7.18-1.59-15.25-1.7-22.4-2.92-1.18-.2-1.79-.49-2.48-1.49,20.71-28.67,6.32-70.62-27.51-80.52-41.51-12.16-77.9,25.45-65.53,66.53,1.77,5.87,4.86,9.98,7.01,15.48l-24.9,2.92ZM313.75,95.34c0,13.12-10.64,23.75-23.75,23.75s-23.75-10.64-23.75-23.75,10.64-23.75,23.75-23.75,23.75,10.64,23.75,23.75ZM307.9,95.37c0-9.89-8.01-17.9-17.9-17.9s-17.9,8.01-17.9,17.9,8.01,17.9,17.9,17.9,17.9-8.01,17.9-17.9ZM334,743c9.83-1.08,24.97,2.03,13,12.99,13.76,8.11-1.13,15.99-11.35,13.85l-1.66-1.34v-25.5ZM339,754c4.68.63,9.44-.54,7.58-6.08l-7.58-.93v7.01ZM339,766c12.55,1.21,11.73-9.18,0-9.01v9.01ZM208.01,627.01c-.78,4.92-1.53,11.9,3.6,14.87,4.63,2.68,5.59-.52,7.88-.53,1.26,0,2.76,1.91,4.94,1.67,2.06-.23,3.68-3.3,7-1.12l1.57-1.43c-4.35-5.48,2.72-12.99-6.92-11.38l-2.1,8.9c-3.49-1.38-.88-6.02-2.91-8.59-7.8-4.33-3.43,5.48-6.57,9.58-3.02-1.72-.7-11.22-1.5-12l-4.99.02ZM282.29,641.72c-6.3-7.63,3.65-15.29,11.71-12.73l-.99-6.99c4.44-.77,5.4,1.67,5.9,5.6.23,1.83,1.07,15.73.63,16.43-1.54,2.4-3.84-1.03-5.86-.82-1.43.15-2.41,1.85-4.92,1.63-1.16-.1-5.76-2.26-6.46-3.11ZM291.7,639.68c.33-.27,2.08-3.01,2.08-3.2l-5.16-4.43c-6.12,3.21-2.57,12.29,3.08,7.63ZM343.74,670.27c2.19,2.68,1.02,17.25,2.25,21.73-2.2.99-4.48-1.56-5.52-1.62-1.11-.07-2.94,1.89-5.88,1.62-13.63-1.23-7.67-20.4,5.39-15l-.95-6.41c.52-2.07,3.64-1.61,4.7-.32ZM332.14,687.84c3.74,2.42,5.52-.8,7.78-3.48-3.91-8.38-9.51-5.05-7.78,3.48ZM309,638.01c4.41,8.13,11.76-2.37,13.48-2,5.63,1.2-.82,8.07-7.98,8.08-12.65,0-16.01-14.71-6.79-16.86,15.34-3.59,17.53,13.64,1.29,10.79ZM308.01,633.97l5.36.95c4.42-3.93-.73-6.26-4.78-4l-.58,3.06ZM286,685.01c3.73,6.09,10.1,2.71,13.5-1.99l2.34,3.31c-.41,5.41-10.28,5.34-14.14,4.46-6.43-1.46-11.38-12.01-3.96-15.54,14.67-6.96,21.36,14.4,2.25,9.76ZM291.9,677.09c-1.02-.73-7.47.27-5.89,3.41,3.54,4.55,9.58-.75,5.89-3.41ZM314.75,577.26c7.13,6.72-2.5,12.86-9.74,8.74v1.98c2.64.42,4.27,2.44,7.25,1.87,2.61-.5,9.21-9.13,8.56-1.56-.53,6.19-14.39,6-18.84,1.23-9.3-9.96,6.84-17.85,12.77-12.26ZM305.07,582.92c8.9,4.2,9.72-6.62.52-3.01l-.52,3.01ZM355,592.01c3.51-.49,8.24,1.36,10.99-1.53.29-2.49-2.36-.17-5-.91-14.39-4-1.57-21.53,7.55-12.62,2.42,2.36,3.3,14.34,1.54,16.64-2.83,3.71-12.67,2.68-15.09-1.58ZM364.9,578.1c-4.24-2.11-7.91,5.4-4.96,7.46,5.29,2.04,7.09-3.53,4.96-7.46ZM281,572l4.03-.56.97,6.56c17.82.57,14.74,17.64-2.37,14.86-1.07-.4-2.63-3.72-2.63-4.36v-16.5ZM290.73,588.73c3.03-3.27.76-7.83-3.72-7.73v8.99c.45.48,3.22-.72,3.72-1.26ZM179.27,634.26c1.95-2.18,7.13-2,9.72-2.75-2.16-3.38-14.17.85-10.93-4.42,1.37-2.23,10.92-.68,13.31,1.04,2.91,2.09,5.96,12.06,4.15,14.91l-14.27-.79c-3.37-1.26-4.4-5.29-1.99-7.98ZM189.99,638.99c-.55-5.04-5.25-4.74-7.97-1.49,2.19,2.37,5.13,2.53,7.97,1.49ZM253,770h4c.55-6-2.62-14.94,5.51-16.08,1.92-.37,2.22,2.25,2.39,3.66.5,4.07-.14,8.34.11,12.43h4v-15.5c0-4.7-9.14-4.25-11.99-1.5v-10s-4.01,0-4.01,0v27ZM310.49,677.98l-2.45-4.57-3.92.73c1.03,5.46-1.04,16.7,6.82,15.83,1.28-3.99,1.79-8.95,6.04-10.96,1.72,4.31.88,12.64,7.01,11,.82-9.14-3.28-18.67-13.5-12.03ZM264.5,630.98c-1.87-1.45-1.49-6.09-4.99-4.97-3.12,1-.9,16.55,4,16.96,1.8-.11,4.44-13.23,7.48-10.97.6,2.27,2.05,11.67,5.5,10.99s-.03-12.11-1.74-13.73c-2.67-2.54-8.13-1.14-10.25,1.72ZM228,743v4s7,0,7,0v23h5v-23h8c.27-1.38-.13-3.6-1.5-4h-18.5ZM383.96,642.51c.9-.43,1.6-2.14,2.67-2.36,1.64-.34,3.78,2.02,5.32,2.42,5.85,1.51.05-4.06-.86-6.17-.82-1.88-1.54-8.21-2.68-8.46-6.78-.84-3.84,7.85-7.91,11.04-3.02-3.18-3.76-7.79-3.5-11.99-11.66-.62-1.26,19.46,6.97,15.52ZM332.16,576.66c-1.01,3.15.41,15.67,5.86,14.89,2.6-1.53,1.87-10.8,6.97-10.56l3.03,10.99c7.49,1.34,2.44-12.17-.45-14.06-5.05-3.31-9.51,3.22-10.57,2.07,1.38-4.02-3.56-7.36-4.85-3.34ZM209.95,581.96l-5.95,1.54c1.77,2.61,4.02,2.72,6.98,2.52l1.17,6.83,3.85.15v-8.01c.83-.83,8.24,1.75,7.99-1.48l-8.89-2.62-.1-6.89c4.31-.06,2.88,7.16,7.99,5.99-1.44-13.27-15.6-12.43-13.04,1.96ZM242.72,577.29c1.22.99,4.32,7.65,4.23,9.26-.49,8.8-22.5,8.81-19.94-5.01,1.07-5.77,11.89-7.36,15.71-4.25ZM235.74,579.14c-4.95.68-5.42,9.07-1.24,9.87,10.8,2.06,6.35-10.57,1.24-9.87ZM233.21,670.22l-1.2,10.78-6,.49c1.21,3.21,6.09,2,6.88,2.62.68.53,3.64,18.86,5.12-.11l7.99-1.01-1.67-2.82-6.89-1.1.05-6.08c1.99-3.58,4.41,7.6,7.51,6.01.75-6.98-5.13-12.57-11.78-8.77ZM309,762h-14c.73,1.93,1.86,3.89,3.95,4.58,4.46,1.48,9.09-3.34,8.04,2.39-6.07,1.73-13.1,1.99-15.32-5.13-5.07-16.23,19.17-18.16,17.33-1.84ZM305,758.99c-.57-6.83-8.57-7.2-9.98-.48l9.98.48ZM330,762h-14c1.97,8.72,11.02,1.16,12,6.99-5.53,1.8-13.51,1.62-15.55-4.94-5.02-16.16,18.8-18.62,17.55-2.06ZM325,759c1.29-6.71-6.97-6.93-8.99-1.47-.78,2.94,7.62.91,8.99,1.47ZM241.71,627.21c4.54-1.04,8.55-.65,11.3,3.28,10.3,14.74-15.15,17.79-16.95,5.93-.67-4.38,1.14-8.18,5.66-9.21ZM249.87,638.87c.52-17.37-15.53-4-7.88.64l7.88-.64ZM368.98,629.51c-4.7-11.71-16.69-10.26-12.97,3.49l-7,1.5c1.74,2.72,4.25,2.35,7.05,2.95l1.43,5.57,3.51.98v-8c.65-.65,7.61,1.35,8.98-1.5l-9.92-2.55c-.19-2.73-.91-7.12,2.93-6.95l2.06,5.96,3.93-1.45ZM330.41,626.09c-9.19-2.79,2.23,26.59,5.41,16.23,2.46-8-.34-11.29,11.18-7.32-1.26-6.72-9.4-6.02-13.98-3,0-1.74-.84-5.38-2.6-5.91ZM249.05,577.4c-.05,3.04,2.84,16.58,7.41,15.59l4.51-10.53c2.96-1.86,4.78,1.73,7.52,1.55,1.87-6.26-8.69-6.1-12.48-3.01l-2.14-5.86c-2.04-.57-4.78-.31-4.83,2.26ZM254.07,674.43l-5.08.09c.69,3.89.94,15.9,5.72,16.3,5.36.45,1.93-6.82,5.9-9.74,3.18-2.33,4.73,1.73,8.38.91-1.86-7.2-8.82-4.79-13.99-2.99l-.94-4.58ZM275,770h4c.21-5.3-1.59-12.51,4.27-15.25,1.4-.66,4.59-.54,4.74-1.26,1.17-5.39-7.27-1.32-9,.51l-.1-2.89-3.91-.12v19ZM402,626.5c0-.74-1.66-3.75-2.5-4.48-3.33-.08-5.06,22.04,2.5,21.98v-17.5ZM328.06,580.44c-5.42-3.99-5.61,12.64.94,12.55l-.94-12.55ZM273.91,690.4l3.08.6c2.66-16.51-9.17-15.75-3.08-.6ZM273.51,669.01c-3.21.69-.97,9.64,3.48,7.99.66-2.12-.31-8.67-3.48-7.99ZM324.01,571c-.36,3.22,1.22,7.81,4.99,7.99l-1.14-7.85-3.85-.14ZM343,317v39h8v-17h14v17h9v-39h-9v15h-14v-15h-8ZM167,317v39h8v-17h14v15.5c2.13,2.61,5.98,1.22,9,1.5v-39h-9v15h-14v-15h-8ZM226,317v39c3.02-.28,6.87,1.11,9-1.5v-15.5h14v17h8v-39h-8v15h-14v-15h-9ZM265,317v25.5c0,.36,1.87,6.07,2.22,6.78,4.49,9,20.5,9.08,26.23.68.5-.74,2.55-5.06,2.55-5.45v-27.5h-9v28.5c0,4.16-13,5.52-13-2v-26.5h-9ZM382,317v27.5c0,.34,2.32,5.55,2.77,6.23,4.59,6.92,18.24,7.08,23.78,1.31,1.74-1.81,4.45-8.29,4.45-10.55v-24.5h-9v27.5c0,6.29-13,5.2-13,1v-28.5h-9ZM323.86,317.14l12.14,38.86-8.04-.46-3.59-8.41-11.89.86-2.43,7.57-8.06.44,12.1-38.89,9.76.04ZM323,341c.6-.6-2.37-15.08-4.99-16l-3.01,16h8.01ZM158.58,320c-9.83-6.78-28.68-3.44-31.35,9.73-4.24,20.89,13.08,32.33,31.37,23.31l-1.61-7.04c-28.25,15.18-29.46-34.31,0-20l1.6-6.01ZM207,317v38h10v-38h-10ZM453,355.99l-8.9-.09-1.98-8.32-13.02-.48-2.23,8.77-8.86.12,13.13-38.86,9.38.85,12.48,38.01ZM440,340.99c.52-.49-2.88-12.17-3.52-13.99-.34-.96-.12-2.3-1.46-2l-4.01,15.99h8.99ZM436.48,327.01c-.34-.96-.12-2.3-1.46-2l-4.01,15.99h8.99c.52-.49-2.88-12.17-3.52-13.98ZM318.01,325l-3.01,16h8.01c.6-.61-2.37-15.08-4.99-16ZM339,757v9.01c12.54,1.21,11.72-9.18,0-9.01ZM346.57,747.93l-7.58-.93v7.01c4.68.63,9.44-.54,7.58-6.08ZM293.77,636.48l-5.16-4.43c-6.12,3.21-2.57,12.29,3.08,7.63.33-.27,2.08-3.01,2.08-3.2ZM339.93,684.36c-3.91-8.38-9.51-5.05-7.78,3.48,3.74,2.42,5.52-.8,7.78-3.48ZM313.37,634.92c4.42-3.93-.73-6.26-4.78-4l-.58,3.06,5.36.95ZM286.01,680.49c3.54,4.55,9.58-.75,5.89-3.41-1.02-.73-7.47.27-5.89,3.41ZM305.58,579.91l-.52,3.01c8.9,4.2,9.72-6.62.52-3.01ZM359.94,585.56c5.29,2.04,7.09-3.53,4.96-7.46-4.24-2.11-7.91,5.4-4.96,7.46ZM287.01,581v8.99c.45.48,3.22-.72,3.72-1.26,3.03-3.27.76-7.83-3.72-7.73ZM182.02,637.5c2.19,2.37,5.13,2.53,7.97,1.49-.55-5.04-5.25-4.74-7.97-1.49ZM212.21,254.71c-1.48,4.9-.65,15.18,6.75,13.26l3.55-10.97,3.1,9.1,4.38.9c-.14-3.19-.37-8.75,3.99-8.99l1.45,8.05,4.55.94c.67-5.09-1.04-15.24-8.12-13.5-1.33.33-2.84,2.34-3.39,2.34-.85,0-6.48-6.85-11.48.15.48-4.54-3.59-5.31-4.8-1.29ZM292,270c-5.3-1.65-13.6,2.02-17.44-3.06-5.53-7.31,4.49-15.21,11.43-11.94l.02-8c3.01-.06,5.99,3.92,5.99,6.5v16.5ZM285.81,262.42c0-2.28-1.85-4.12-4.12-4.12s-4.12,1.85-4.12,4.12,1.85,4.12,4.12,4.12,4.12-1.85,4.12-4.12ZM301,263.01c1.27,3.44,6,3.86,8.99,2.47,2.07-.96,3.7-6.15,7.01-1.96-2.17,10.33-21.98,6-22.08-3.01-.09-7.77,11.19-11.09,15.53-6.46,6.97,7.45-2.44,11.83-9.45,8.96ZM300,258.99c5.42,2.41,11.52.28,4.66-3.89l-4.66,3.89ZM251.5,262.96c-4.86-2.25-2.51-7.34-3.97-9.99-.93-1.68-3.72-1.38-4.36.69-2.34,7.47,5.64,14.06,12.83,12.35-1.66,3.82-5.72,3.67-8.99,1.99-2.71,2.57,11.73,8.74,14.52-1.97,1.1-4.25.2-8.73.48-13.03l-4.87.14c-1.12,3.87-2.22,7.35-5.64,9.82ZM331,257.99c-2.86-5.34-8.88-.11-11.99-3.5-.9-4.16,11.84-2.88,14.95.06,1.95,1.84,5.41,12.39,3.08,14.03-1.24.87-14.91.42-16.55-2.55-2.27-7.46,4.48-8.86,10.52-8.03ZM332,262.01c-1.9-.93-8.69-2.11-7.99,1.47.43,2.22,8.73,2.7,7.99-1.47ZM344.36,252.12c-6.66-2.51-3.08,10.55-1.57,13.59,1.41,2.83,2.98,3.69,6.2,3.3-.18-3.25,1.41-10.91,5.5-10.66.81.05,4.96,4.38,5.5,1.14.86-5.08-10.31-4.67-12.97-2.49l-2.67-4.87ZM364.02,262h2.97c4.01-19.15-7.64-20.51-2.97,0ZM393.99,249c-1.5.23-1.87,1.89-2.51,2.98-2.88,4.86-8.16,14.86-10.02,19.99-.34.94-1.32,3.25.53,3.03l12-25.99ZM281.68,258.29c-2.28,0-4.12,1.85-4.12,4.12s1.85,4.12,4.12,4.12,4.12-1.85,4.12-4.12-1.85-4.12-4.12-4.12ZM304.66,255.1l-4.66,3.89c5.42,2.41,11.52.28,4.66-3.89ZM324.01,263.48c.43,2.22,8.73,2.7,7.99-1.47-1.9-.93-8.69-2.11-7.99,1.47ZM234.5,589.01c10.8,2.06,6.35-10.57,1.24-9.87s-5.42,9.07-1.24,9.87ZM295.01,758.51l9.98.48c-.57-6.83-8.57-7.2-9.98-.48ZM316.02,757.52c-.78,2.94,7.62.91,8.99,1.47,1.29-6.71-6.97-6.93-8.99-1.47ZM241.99,639.51l7.88-.64c.52-17.37-15.53-4-7.88.64ZM317.48,524.26c-6.22,4.07.06,13.03,5.54,14.33,2.33.55,5.3-1.9,4.98.89-2.27,4.16-5.56,1.33-8.99,2.01,4.45,5.27,13.75,3.96,14.94-3.04.21-1.26.84-10.9.6-11.42-3.52-7.49-6.67,4.15-8.09,5.92-5.07,6.31-7.3-3.34-6.55-7.84l-2.43-.85ZM286,520c.15,4.58-.15,19.38,3.97,21.53,4.39,2.29,2.63-7.11,3.03-7.53,5.84-.62,4.03,8.65,10.99,6.99.57-3.25-2.78-5.8-3.04-8.59-.13-1.43,3.56-2.06,2.04-5.4l-10.99,2.99c.24-4.94.42-10.97-6-10ZM253.99,531c.71-5.11-12.13-1.44-11.97-4.5,9.18-7.44,20.48,2.5,19.03,12.98-.64,4.63-3.46,1.06-4.52,1-3.46-.18-11.69,2.29-13.36-3.18-1.79-5.86,6.42-8.77,10.82-6.3ZM254.99,536.99c-.44-4.43-5.54-4.77-7.97-1.49,2.34,2.77,4.82,2.68,7.97,1.49ZM264.13,524.13c-1.51.9-.64,18.47,5.86,16.87,7.16-22.62,5.49-5.23,9.52-1,1.19,1.24,1.88,1.14,3.49,1,1-10.01-3.17-19.97-13.98-12l-1.13-4.87h-3.75ZM364.56,525.94l-4.55-.95c-2.71,9.13,7.54,22.6,14.49,12.02.81,1.51,6.76,6.06,7.5,2.47.28-1.36-2.54-3.35-3.2-4.78-.93-2.01-1.82-7.57-2.73-8.27-4.42-3.41-6.34,8.09-7.08,10.56-4.29-2.06-3.58-7.22-4.43-11.06ZM223.01,520c-1.23,1.11-.36,18.63.48,20.01,1.91,3.11,4.61,1.59,5.3-1.72.39-1.89-.63-9.06,2.7-8.28,3.1,1.63,3.03,12.79,7,11.99,3.69-.75-.32-11.09-2.04-12.94-2.48-2.68-6.12-2.05-9.45-2.05.34-3.13-.08-6.93-3.99-7ZM343.73,525.23c3.16-.64,7.41-.69,9.72,1.81,4.65,5.05,5.43,12.37-2.42,14.48-12.21,3.28-20.43-13.63-7.3-16.3ZM345.71,528.16c-5.91,1.65-4.21,11.18,1.63,10.63,7.29-.68,3.94-12.19-1.63-10.63ZM212.48,521.01c-2.3-.24-19.52-.16-19.46,2.49,3.23,3.96,6.83,1.67,10.98,1.5.67.68-1,18.79,6.01,15.49l-1-15.49h10.99c.32-3.33-5.06-3.74-7.51-3.99ZM247.02,535.5c2.34,2.77,4.82,2.68,7.97,1.49-.44-4.43-5.54-4.77-7.97-1.49ZM347.34,538.79c7.29-.68,3.94-12.19-1.63-10.63-5.91,1.65-4.21,11.18,1.63,10.63Z"/>
</svg>