<?xml version="1.0" encoding="UTF-8"?>
<svg id="_レイヤー_1" data-name="レイヤー 1" xmlns="http://www.w3.org/2000/svg" width="202.03mm" height="286.77mm" viewBox="0 0 572.69 812.88">
  <path d="M222.34,97.52l11.99-2.02c-23.75-47.77,22.29-100.29,72.99-81.48,32.32,11.99,46.62,51,31.01,81.48l12.04.55c4.9-12.68,13.95-27.54,26.97-33.03,4.52-1.91,10.88-2.19,14.49-4.51,3.95-2.53,14.53-15.94,19.48-20.52,25.25-23.36,69.74-54.25,102.93-27.9,40.85,32.42,23.22,132.04,18.07,177.91-1.6,14.26-2.38,28.65-4.12,42.88-1.19,9.79-6.39,28.78-5.89,37.09.44,7.32,3.85,18.03,4.89,26.16,3.08,24.08,2.09,64.51,19.6,82.4,8.56,8.75,23.35,8.31,25.44,23.56,3.75,27.35-16.5,30.88-37.15,37.68-4.26,1.4-10.11,1.78-13.79,3.21-3.06,1.19-7.79,5.74-11.3,7.7-8.02,4.46-18.18,8.44-27.29,9.71-12.87,1.78-13.53-2.25-24.85,7.15-9.55,7.93-16.97,16.91-29.44,21.56l-10.06,28.85c7.47,14.94,13.02,30.78,15.68,47.35,4.3,26.8-.1,53.64,5.78,80.22,5.94,26.86,21.28,34.06,16.39,67.37-1.14,7.76-7.17,19.66-7.63,24.27-.19,1.92,2.42,7.7,2.74,10.86,2.95,28.78-17.57,41.78-43.51,44.47-2.78.29-12.1-.61-13.33.17-.24.15-1.1,3.13-2.14,4.35-23.29,27.4-71.32,21.95-90.68-7.35-5.49,1.04-15.53-2.89-19.91-.23-1.87,1.13-5.42,7.53-7.43,9.56-18.41,18.62-58.09,22.34-77.04,3.05-1.99-2.03-5.63-8.74-7.64-9.36-31.83,2-73.11-4.08-68.2-45.58.34-2.88,2.83-8.02,2.64-9.96-.25-2.54-5.04-12.25-6.07-16.82-3.98-17.58-3.02-33.71,4.45-50.2,8.83-19.51,12.69-27.43,13.92-50.08,1.93-35.69-1.2-55.65,12.49-90.51,1.01-2.57,3.94-6.64,4.3-8.79.44-2.62-9.01-30.79-10.77-32.81-1.39-1.6-10.41-5.58-13.37-7.63-6-4.14-19.54-19.28-25.27-19.82-1.83-.17-3.53.92-4.92.81-13.24-1.05-24.58-4.18-36.17-10.63-3.52-1.96-8.24-6.5-11.3-7.7-9.97-3.88-23.9-5.92-34.71-10.29-13.35-5.4-18.16-16.58-16.22-30.6,2.06-14.94,17.41-14.95,25.94-24.06,17.03-18.2,17.05-64.14,20.12-88.88.59-4.79,2.66-10.72,2.87-15.19.58-12.56-5.67-39.3-7.01-53.96-1.48-16.21-1.28-32.72-3.12-48.88-4.33-37.91-11.21-70.88-4.57-109.8C49.12-25.5,113.71-6.34,161.85,38.49c4.79,4.46,15.15,17.52,18.96,20.04,3.46,2.28,10.04,2.63,14.49,4.51,12.95,5.46,23.34,21.34,27.03,34.49ZM218.42,103.43c-4.61-15.15-13.21-31.16-29.14-36.37-3.29-1.08-8.1-1.1-10.51-2.49-4.22-2.43-11.66-13-15.92-17.08C122.68,8.99,58.93-25.9,41.64,54.33c-9.06,42.05-.81,75.69,3.67,116.7,2.11,19.3,1.97,39.51,4.02,58.98,1.21,11.46,6.38,32.1,6.02,41.95-.22,6.18-3.07,15.4-3.89,22.2-3.44,28.82-2.07,76.47-29.8,93.2-4.03,2.43-8.52,2.58-12.19,6.81-7.35,8.47-4.25,22.06,4.35,28.34,9.86,7.2,30.07,8.83,40.72,13.28,3.08,1.29,7.54,5.83,11.1,7.9,8.25,4.79,21.7,9.41,31.2,9.82,3.47.15,7.85-1.39,10.41-.5,7.15,2.51,17.56,15.15,24.15,19.92,3.66,2.65,13.59,6.53,15.39,8.61,2.28,2.65,12.86,33.86,12.52,37.38-.32,3.3-7.61,16.71-9.27,21.8-11.01,33.77-4.4,62.99-9.99,96.01-5.05,29.84-23.26,42.34-17.47,76.02,1.09,6.37,7.52,19.17,7.72,22.32.18,2.78-2.17,6.29-2.71,9.19-7.31,39.28,37.61,43.11,65.79,39.74,15.1,30.71,57.62,29.43,78.98,6.03,2.99-3.28,3.89-7.95,8.43-8.57,7.96-1.09,16.72,2.05,24.84,1.03,16.97,29.94,69.75,34.57,86.41,2,26.66,2.18,59.21-7.06,53.04-40.23-.54-2.9-2.89-6.41-2.71-9.19.2-3.15,6.62-15.95,7.72-22.32,5.78-33.67-10.42-41.4-16.28-69.21-7.32-34.76.37-67.14-11.18-102.82-1.8-5.56-9.95-20.52-10.28-23.81-.13-1.34.2-2.24.42-3.44.69-3.85,8.9-27.47,10.78-30.25s13.55-7.28,17.71-10.29c5.87-4.25,18.76-18.78,24.85-20.24,1.92-.46,6.53.96,9.71.82,9.56-.41,22.87-5.04,31.2-9.82,3.46-1.99,8.4-6.73,11.09-7.91,10.06-4.43,27.31-5.78,38.29-11.71,7.86-4.24,11.95-12.82,10.5-21.61-2.16-13.08-13.58-12.45-22.08-19.92-21.35-18.77-20.08-62.69-23.61-89.39-1.03-7.79-4.46-18.08-4.89-25.16-.55-9.19,5.6-33.71,6.89-45.09,2.81-24.66,5.22-49.42,7.98-74.02,4.14-36.88,13.39-128.26-34.42-141.3-31.51-8.59-65.66,19.48-86.96,39.92-3.67,3.52-13.02,15.94-16.5,17.5-2.3,1.03-6.73,1.03-9.92,2.08-15.88,5.21-24.6,21.31-29.14,36.37-7.18-1.59-15.25-1.7-22.4-2.92-1.18-.2-1.79-.49-2.48-1.49,20.71-28.67,6.32-70.62-27.51-80.52-41.51-12.16-77.9,25.45-65.53,66.53,1.77,5.87,4.86,9.98,7.01,15.48l-24.9,2.92ZM310.08,68.85c0,13.12-10.64,23.75-23.75,23.75s-23.75-10.64-23.75-23.75,10.64-23.75,23.75-23.75,23.75,10.64,23.75,23.75ZM304.22,68.88c0-9.89-8.01-17.9-17.9-17.9s-17.9,8.01-17.9,17.9,8.01,17.9,17.9,17.9,17.9-8.01,17.9-17.9Z"/>
</svg>