<?xml version="1.0" encoding="UTF-8"?>
<svg id="_レイヤー_1" data-name="レイヤー 1" xmlns="http://www.w3.org/2000/svg" width="204.61mm" height="305.86mm" viewBox="0 0 580 867">
  <path d="M559.3,418.71c1.13,1.41,4.32,2.82,6.14,5.35,7.05,9.8,4.51,24.67-5.96,30.91-11.39,6.8-20.75.59-32.48.02.68,13.15-3.21,25.8-4.87,38.63-1.07,8.31,1.83,13.16-4.13,20.87-3.18,4.12-10.43,8.11-15.64,8.44s-11.58-3.19-14.28,4.63c-1.74,5.03-6.27,33.88-5.86,38.7.65,7.57,6.66,22.38,8.31,31.71,1.55,8.76,3.16,19.66,3.52,28.48,1.29,31.56-10.99,80.28,6.14,107.86,2.69,4.34,7.41,7.95,9.64,12.36,7.29,14.42-1.93,30.21-17.58,32.06-3.88.46-7.07-.85-9.52-.54-3.28.42-9.9,3.78-14.48,4.54-3.17.53-7.12-.35-9.54.24-.35.09-3.21,4.15-4.8,5.43-6.69,5.37-12.26,4.82-20.4,4.58-4.03-.12-20.08-3.11-21.9-2.75-.81.16-6.61,6.13-10.25,7.63-3.27,1.34-10.18,1.79-11.16,2.35-.33.19-2.86,4.85-4.18,6.31-19,20.91-58.4,18.9-78.06.02-3.29-3.16-6.6-11.11-10.4-11.59-4.43-.56-8.12,1.03-12.02,1.09-5.41.08-10.52-.32-15.86-.92-14.84,25.87-58.49,33.76-80.23,12.92-1.96-1.88-4.51-6.86-5.75-7.74-1.52-1.08-6.13-1.68-8.6-2.9-3.01-1.49-8.13-7.1-8.68-7.24-1.15-.29-6.69,1.66-8.93,1.82-3.91.28-8.06-.38-11.9.1-9.72,1.22-14.95,6.58-25.52-.65-2.41-1.65-6.7-7.91-7.73-8.27-2.33-.8-7.95-.82-11.34-1.66-8.9-2.23-7.11-2.26-16.49-2.42s-20.59-8-22.27-17.82c-2.63-15.43,8.75-19.72,14.24-31.28,13.53-28.48,2.44-79.84,4.47-112.53,1.82-29.29,13.21-57.55,22.86-84.84-.49-2.44-14.82-10.19-17.55-10.4-2-.16-3.84.96-5.76.86-10.39-.54-19.99-8.15-21.42-18.67-.56-4.16.41-8.8-.1-12.9-1.52-12.13-5.64-23.83-3.98-36.52-11.39-.06-20.8,6.66-32.06.56-12.19-6.61-14.47-22.37-5.8-32.9,6.55-7.96,10.65-15.44,14.61-25.39,10.53-26.48,19.7-51.95,24.92-80.08,10.85-58.44,12.6-144.71,66.41-181.59,2.92-2,11.39-5.59,12.88-7.12,1.96-2.02,2.46-9.67,5.2-13.8,15.32-23.21,49.91-9.26,64.32,8.05l32.53-10.19c2.27-1.67.02-6.31-.06-8.98-.43-13.95,1.58-25.61,10.21-36.87,34.85-45.47,106.82-11.58,93.95,43.76l25.28,8.44c9.42-17.37,27.06-35.86,48.6-26.38,14.12,6.21,12.5,19.26,17.51,31.49,76.64,25.33,78.07,118.71,89.77,185.23,2.46,13.98,5.26,32,9.77,45.23,1.88,5.51,5.45,10.32,7.42,15.58,4.05,10.8,12.67,40.99,18.81,48.7ZM336.07,114.91c5.12-19.97.81-40.62-15.6-53.89-21.46-17.37-53.54-12.91-69.31,9.65-9.98,14.27-10.13,28.84-6.2,45.29l-40.52,11.99c-5.66-3.59-9.33-9.11-15.13-12.78-19.79-12.52-46.79-11.73-47.43,16.72-70.51,30.09-68.54,127.49-81.21,192.29-6.13,31.37-18.83,61.29-31.47,90.53-.84,1.95-.84,4.66-1.76,6.24-1.12,1.93-5.69,3.82-7.47,6.53-4.89,7.42-3.2,17.82,4.08,22.94,9.17,6.45,25.32-.9,35.92-1.43-1.77,14.45,2.31,27.67,3.99,41.52,1.21,9.98-2.51,19.55,9.32,25.68,6.53,3.39,9.92.17,15.49,1.46,7.01,1.62,14.78,8.82,21.29,11.97-9.58,28.6-22.02,57.3-24.07,87.88-2.37,35.29,11.1,91.73-8.78,121.22-2.81,4.17-7.69,7.74-9.29,12.71-4.04,12.58,6.13,22.88,18.57,22.63,2.35-.05,4.79-1.36,6.91-1.08,1.67.22,3.73,2.27,6.12,2.97,4.91,1.43,13.03,1.39,16.23,2.71,2,.82,4.72,9.62,11.95,11.11,8.33,1.72,11.96-2.04,18.77-2.77,7.34-.8,15.34,1.02,22.45-2.99,1.14,4.35,5.03,7.82,9.06,9.49,2.68,1.11,6.79,1.16,8.56,2.44,2.9,2.08,5,8.24,10.91,12.09,22.43,14.63,56.62,5.7,69.2-17.91,7.91.97,15.89,1.12,23.87.93,3.69-.09,8.63-2.6,12.04-.12,1.3.94,3.75,6.47,5.44,8.55,15.76,19.31,53.9,23.83,71.97,6.02,1.73-1.7,6.45-9.69,6.99-10.01,1.85-1.13,8.29-.19,12.72-2.28,3.29-1.56,7.91-7.76,9.01-8.07,2.18-.61,7.9,1.6,10.81,1.86,6.26.56,18.2,1.83,23.92.95,6.7-1.03,9.55-8.26,11.34-8.91,4.69-1.69,14.69-1.82,21.21-3.54,7.63-2.01,8.22-.81,15.26-1.75,6.76-.9,13.21-5.39,14.52-12.47,2.67-14.37-8.67-18.66-13.94-30.59-14.47-32.68-.18-88.29-6.11-126.89-1.79-11.68-8.08-26.73-9.16-36.64-.66-6.06,2.51-22.52,3.77-29.33.57-3.07,2.38-14.7,3.7-16.3,5.26-6.37,16.82-1.96,23.7-5.3,5.22-2.54,8.55-9.27,8.92-14.87.14-2.03-.86-4.01-.54-6.69,1.79-15.13,6.45-29.97,4.92-45.65,3.44,1.96,7.84.72,11.22,1.28,6.99,1.16,10.79,4.01,19.04,2.48,11.74-2.17,15.61-18.29,8.26-26.8-1.95-2.26-4.92-3.16-6.32-5.68-1.21-2.16-1.56-5.77-2.73-8.27-13.48-28.69-25.3-60.6-31.17-91.83-12.57-66.89-11.6-168.96-90.83-192.17-.19-4.35-3.23-8.08-4.26-11.74-2.11-7.45.7-11.24-7.73-17.27-19.11-13.68-40.44,8.7-46.11,26.07l-34.3-10.16ZM311.27,94.62c0,11.57-9.38,20.95-20.95,20.95s-20.95-9.38-20.95-20.95,9.38-20.95,20.95-20.95,20.95,9.38,20.95,20.95ZM306.69,94.62c0-8.86-7.18-16.05-16.05-16.05s-16.05,7.18-16.05,16.05,7.18,16.05,16.05,16.05,16.05-7.18,16.05-16.05ZM325,340h9v-20c2.41-.53,1.62.42,2.23,1.31,3.8,5.5,6.54,12.68,9.93,18.53l9.84.16v-38h-9v20c-2.35.48-1.61-.29-2.24-1.29-1.71-2.68-9.04-17.97-9.96-18.5l-9.8-.21v38ZM264,340h10v-16h12v16h10v-38h-10v15l-11.06-.44-.93-14.57h-10.01v38.01ZM224,323.5c1.53,15.97,20.27,21.74,32.57,13.54l-3.05-6.91c-25.21,12.69-25.45-31.59,0-18.25,8.74-9.05-4.32-11.22-11.71-10.62-12.16.98-18.95,10.32-17.81,22.25ZM305,302v38h11v-38h-11ZM312.48,542.03c-17.14-3.38-14.11,18.54,2.81,14.76,2.01-.45,5.45-2.69,4.66-5.21-.33-1.04-2.3-1.25-2.65-1.86-1.54-2.66-.45-6.83-4.83-7.69ZM288.9,538.11l.1,5.89c4.8-.69,8.35,1.86,10.86,5.71,1.2,6.94-12.34,10-14.67,5.6-1.62-3.07-3.48-21.28,3.71-17.19ZM292.82,553.79c.22-.13,1.9-3.18,1.75-3.84-1.48-3.4-5.76-5.77-5.51-.56.12,2.39.88,6.1,3.76,4.41ZM351,556.01c3.68-.46,7.33,1.99,9.99-1.52-11.36,1.8-14.69-13.08-3.48-13.56,9.39-.4,7.04,9.71,8.06,16.08-4.54,3.58-10.91,3.84-14.58-1ZM357.62,543.06c-2.94,1.6-3.93,5.61-1.11,7.93,2.66.81,4.22-2.47,4.46-4.52l-3.35-3.41ZM330.12,542.67c-.56,1.82,1.24,11.89,2.84,12.87,5.47,3.35,3.78-9.9,9.03-9.54.76,3.63.7,10.72,6,9.99.27-5.49-1.17-14.31-8.44-13-1.87.34-2.57,2.27-4.54,2.01.82-3.7-3.81-5.86-4.89-2.34ZM221.21,538.22c-.58,3.04-1.92,5.88-.2,8.77l-6,1.5,5.78,2.7,1.28,5.74,3.93.06-.56-6.02,7.55-2.46c-1.98-2.49-5.3-1.33-8-1.51v-7s7,5.99,7,5.99c.38-6.36-4.68-11.47-10.78-7.77ZM240.71,542.22c6.4-1.45,11.31.41,12.25,7.37,1.37,10.05-16.11,9.39-17.54.46-.57-3.52,1.8-7.04,5.29-7.83ZM246.87,545.13c-10.37-1.87-8.69,12.56.98,7.72l-.98-7.72ZM262.48,545.91c-8.61-15.39-7.46,9.44-1.83,10.96,4.87,1.32,2.23-7.33,6.37-9.45l6.99,1.57c-1.1-5.68-7.41-5.92-11.52-3.08ZM323.95,546.45c-2.2,1.6-.3,13.14,4.05,10.04l-1.02-10.49-3.03.44ZM225.95,262.96l3.07-9.96c3.5,1.96,1.14,11.14,6.97,8.37.07-1.96.76-6.43,2.53-7.36,2.41-1.26,1.77,6.28,3.43,7.55,1.45,1.11,3.16.47,3.96-1.14-1.49-7.28-2.88-14.01-11.38-8.39-1.95-4.82-6.2-3.76-9.02-.05l-1.63-2.83c-5.65-3.23-5.95,16.13,2.08,13.81ZM306.51,249c-17.23-3.29-14.32,18.64,2.78,14.78,2.06-.46,5.45-2.72,4.66-5.21-.33-1.03-2.29-1.24-2.64-1.87-1.38-2.47-1.25-7.02-4.81-7.7ZM292,265c-1.89.73-3.52-1.58-4.52-1.63-1.52-.08-2.52,2.23-6.49,1.2-11.43-2.97-4.8-17.62,6-13.57-3.71-10.2,5.01-6.59,5.01-1.5v15.5ZM282.5,253.02c-6.93,5.46-.17,13.92,4.25,4.46l-4.25-4.46ZM323.38,248.04c-1.32-.12-5.84.3-6.29,1.05-3.24,5.28,8.04.48,9.91,4.41-5.59.48-12.47.62-9.03,8.03,4.83,3.13,9.8,1.27,15.03,2.46.68-6.75-1.68-15.21-9.62-15.95ZM262.47,264.96c2.56-2.46,3.94-13.79,1.57-15.5-4.38-3.17-5.25,9.54-9.52,8.54-3.03-.71-.95-8.24-3.5-9.51-3.19-1.59-3.29,3.09-3.09,5.04.48,4.7,6.38,8.77,11.07,7.48.03,4.05-4.3,3.43-6.99,2-1.84,2.18,6.29,5.97,10.46,1.96ZM338.49,248.01c-5.07-1.1-1.81,19.08,4.58,15.41.98-3.43.63-6.85,3.96-8.99l5.97,1.57c.2-6.63-8.03-4.28-11.98-2.99l-2.53-5ZM358.48,244.01c-4.29-.9-2.08,11.64-1.48,13.99,3.46,3.31,4.41-13.38,1.48-13.99ZM286.76,257.48l-4.25-4.46c-6.93,5.46-.17,13.92,4.25,4.46ZM294.57,549.94c-1.48-3.4-5.76-5.77-5.51-.56.12,2.39.88,6.1,3.76,4.41.22-.13,1.9-3.18,1.75-3.84ZM356.51,550.99c2.66.81,4.22-2.47,4.46-4.52l-3.35-3.41c-2.94,1.6-3.93,5.61-1.11,7.93ZM247.85,552.85l-.98-7.72c-10.37-1.87-8.69,12.56.98,7.72ZM256.38,495.04c-1.31-.12-5.86.32-6.31,1.04-3.15,5.12,7.84,1.15,9.92,4.42-3.36.58-9.5.1-10.04,5.04-.71,6.56,12.25,4.49,16.04,5.45.68-6.75-1.68-15.21-9.62-15.95ZM315.51,497.01c-2.02,7.41,4.59,11.87,11.49,11.48-2.2,3.04-4.78,3.17-7.99,1.51-1.74,2.01,5.06,4.48,8.02,3.59,6.93-2.08,4.67-12.11,4.96-17.59-5.64-1.26-3.95,2.87-6.14,6.36-4.16,6.62-6.84-1.44-5.94-6.25-2.1-.85-3.08-1.3-4.4.91ZM291.49,491c-4.43-.92-2.32,17.2-.08,19.09,1.13.95,2.18,1.06,3.59.9v-6.49c4.96-2.4,3.81,7.66,10,6.49-.48-5.57-3.87-7.42-1-12.99l-9.99,1.99c.06-3.5.78-6.86-2.52-8.99ZM269.01,495c.07,3.04-.67,12.83,1.96,14.53,5.93,3.85,3.74-7.96,9.03-9.53,1.39,3.56.72,10.82,6,9.99.97-9.76-2.49-16.47-12.98-10.99.05-2.89-.78-4.57-4.01-4ZM358.49,496.01c-6.58-2.1-3.25,15.41,5.96,14.03,2.18-.33,3.42-2.88,4.04-2.88.66,0,4.2,4,6.51,2.84l-5.51-12.99c-5.1-1.41-3.61,8.73-7.48,9.99-1.62-2.08-1.74-10.42-3.52-10.99ZM340.71,496.22c7.98-1.85,11.31,2.71,12.14,10.08-9.27,14.54-27.28-6.58-12.14-10.08ZM345.85,499.17c-2.09-.65-5.33-.25-6.38,1.84-1.1,2.27-.12,4.8,1.52,6.51,7.22,1.99,8.31-2.94,4.86-8.35ZM232,508.5c0,.94,3.55,3.21,4.99,2.49.01-3.86-.79-8.18,2.51-10.97,4.12,2.94,1.51,11.83,7.49,10.98.62-7.7-1.85-14.64-10.9-13.1l-1.12-5.9h-2.98s0,16.5,0,16.5ZM226.5,493c-6.42-1.13-15.16-.5-21.5,1.01.89,3.66,9.26,1.23,10,1.98-.4,3.12.47,13.57,3.51,15,1.66.78,1.96-1.54,1.97-2.49.02-2.09-1.19-11.81-.49-12.5h9c.31-1.91-.79-2.69-2.5-2.99ZM339.47,501c-1.1,2.27-.12,4.8,1.52,6.51,7.22,1.99,8.31-2.94,4.86-8.35-2.09-.65-5.33-.25-6.38,1.84ZM330,686c4.9-.36,17.73-.86,15.58,7.05-.86,3.17-4.3,2.05-3.57,4.93,4.18.06,5.23,6.15,3.51,9.04-1.62,2.72-12.31,3.3-15.51,2.98v-24ZM335.64,689.11c-2.66.89-3.13,7.87,2.63,6.71,6.92-1.39,2.97-8.59-2.63-6.71ZM334,699l.95,7.58,6.99-2.21.6-2.46-1.53-2.43-7.02-.49ZM257,710h3c-.34-4.92.07-9.36,2.15-13.85l4.97.44.89,13.42h3.99c-.08-5.93,1.82-18.64-7.45-17.01-1.93.34-2.55,2.29-4.54,2v-10s-3.01,0-3.01,0v25ZM307,703h-12c1.37,5.1,5.72,4.83,9.98,3l1.02,2.99c-6.96,2.4-15.59.49-14.97-8.36.83-11.83,18.72-10,15.97,2.37ZM304,699.99c-.95-5.39-7.86-6.79-8.98-1.47-.63,2.99,7.45.87,8.98,1.47ZM323.75,694.26c1.2,1.13,3.14,7.83,2.26,8.74l-12.01.51c.1,4.24,7.21,4.28,10,2.49l-.07,2.91c-15.73,7.29-20.05-17.95-3.47-15.81,1.09.14,2.5.41,3.3,1.17ZM322,699.99c-.82-10.94-11.28-.46-7.49.01h7.49ZM234,686v3c2.43.09,5.38-.77,7,1.5v19.5h4v-19.5c1.62-2.27,4.57-1.41,7.01-1.5v-3h-18.01ZM276,708.5c0,1.07,2.88,1.91,3.99,1.49-.59-6.96-.04-13.54,8.01-14.5,1.23-5.36-6.34-1.08-8,.51l-.1-2.89-3.91-.12v15.5ZM334.95,706.58l6.99-2.21.6-2.46-1.53-2.43-7.02-.49.95,7.58ZM338.27,695.83c6.92-1.39,2.97-8.59-2.63-6.71-2.66.89-3.13,7.87,2.63,6.71ZM295.02,698.52c-.63,2.99,7.45.87,8.98,1.47-.95-5.39-7.86-6.79-8.98-1.47ZM314.51,700.01h7.49c-.82-10.95-11.28-.47-7.49,0ZM240.98,599.53c4.02,4.6,11.99,4.34,16.85,1.3l.03-4.75-2.67-.21c-.07-15.75-23.59-7.08-14.21,3.65ZM154.61,587.94c-2.79,4.3-.98,13.78,4.96,14.06,2.26.11,3.92-1.71,4.9-1.64.77.06,1.82,1.55,3.08,1.68,2.16.23,4.91-3.15,8.43-1.05l-1.46-11.03c-6.11-3.21-4.14,5.72-7.53,8.03l-1.01-9c-8.1-1.3-2.58,6.11-6.98,9-2.37-3.45,2.15-12.19-4.4-10.06ZM230.99,590l-.52-6.01,2.99-.95c4.75,5.26,1.03,13.15,3.49,19.4l-2.28,1.41c-4.59-3.35-6.84,2.06-12.18-1.84-8.28-6.05.46-15.64,8.51-12.02ZM224.11,599.89c3.36,2.21,8.24-1.99,5.98-5.41-3.84-5.81-7.4.68-5.98,5.41ZM440.99,590v-7c1.62-.16,2.31-.22,3.51,1,1.66,1.69,3.64,19.57.98,20.01-5.31-3.97-7.22,2.69-13.44-2.54-6.65-5.59,1.63-14.96,8.96-11.46ZM436.62,592.06c-3.19.52-3.8,7.5-.13,8.73,6.77-.9,4.01-9.36.13-8.73ZM127.97,587.47l.58,3.47,8.45.07-.48,1.97c-3.07-2.26-6.48.25-9.06,2.01-1.4,4.09.68,7.09,5.03,7.03h10.02c1.49-2.75-.57-10.6-2.82-12.7s-9.28-3.41-11.72-1.84ZM393,597.01c3.02,5.44,8.55,3.17,11.51-1.01,4.42.96,2.38,4.91-.77,6.24-12.76,5.37-21.64-10.03-11.97-13.97,13.19-5.37,17.41,13.69,1.23,8.74ZM395.73,590.15c-.88.13-3.7,1.76-3.71,2.35,6.61,6.94,9.85-3.25,3.71-2.35ZM202.49,587.01c-6.78-2.06-2.31,18.25,2.49,14.99.46-.31,1.91-8.7,4.53-9.99,1.83-.9,1.5,1.41,1.75,2.2.35,1.11,2.35,11.24,5.26,6.82,1.47-8.48-3.92-15.96-12.52-10.03l-1.52-4ZM409.09,588.63c-.49,1.93,1.67,12.75,4.43,13.36,3.23.71,5.04-15.55,7.94-8,1.25,3.26.65,8.84,5.54,7.99.46-9.93-2.27-16.89-12.98-10.99.92-3.83-4.07-5.7-4.92-2.37ZM344.95,592.96l-5.95,1.54c.96,3.12,6.71,2.24,6.99,2.51.56.55-1.48,7.41,4,5.99v-7s7.01,0,7.01,0v-2.99s-7.07-.44-7.07-.44l-.93-6.56,6.99,5.99c.2-11.77-13.63-12.88-11.04.96ZM302.01,588c-2.37,7.97,6.24,19.45,12.5,10.97,2.46.08,4.96,5.28,7.47,1.53-4.49-1.63-3.24-10.64-5.58-11.42l-3.48.35c-2.03,1.45-.38,8.95-4.92,8.57l-2.04-9.99h-3.97ZM286.95,592.96l-5.95,1.54c.89,2.45,6.68,2.28,6.94,2.55.72.76-1.48,7.28,4.05,5.95v-7s7.01,0,7.01,0v-2.99s-7.07-.44-7.07-.44l-.93-6.56,6.99,5.99c.2-11.77-13.63-12.88-11.04.96ZM186.74,587.21c8.54-.7,15.45,13.87,3.5,15.59s-16.13-14.56-3.5-15.59ZM184.25,598.75c2.44,2.47,8.31,1.14,7.36-3.79-1.85-9.58-12.55-1.46-7.36,3.79ZM261.01,587c.01,3.87.96,15.53,5.65,15.88,3.45.26,1.48-7.4,5.34-9.44l6.99,1.55c-1.26-6.01-7.59-5.68-11.98-2.99-.44-3.73-2.09-5.66-6.01-5ZM363.39,587.11l-3.38-.12c-.92.9.99,16.17,5.49,16.05,4.44.02.58-9.72,6.15-9.8,2.47-.04,4.26,3.41,6.33.26-4.04-5.26-7.8-3.06-12.97-1.49l-1.62-4.89ZM326.51,602.99c4.91,1.03.02-16.25,1.48-18.99-7.29-2.17-3.36,18.6-1.48,18.99ZM384.84,593.66l-.79-1.21-3.05-.44c.22,3.96-1.67,10.46,3.99,10.99l-.15-9.34ZM381.51,583.01c-3.01.57.32,9.05,3.48,6.99.68-2.15-.65-7.52-3.48-6.99ZM230.09,594.48c-3.84-5.81-7.4.68-5.98,5.41,3.36,2.21,8.24-1.99,5.98-5.41ZM436.49,600.78c6.77-.9,4.01-9.36.13-8.73-3.19.52-3.8,7.5-.13,8.73ZM392.02,592.5c6.61,6.94,9.85-3.25,3.71-2.35-.88.13-3.7,1.76-3.71,2.35ZM191.61,594.96c-1.85-9.58-12.55-1.46-7.36,3.79,2.44,2.47,8.31,1.14,7.36-3.79Z"/>
</svg>