<?xml version="1.0" encoding="UTF-8"?>
<svg id="_レイヤー_1" data-name="レイヤー 1" xmlns="http://www.w3.org/2000/svg" width="196.66mm" height="273.74mm" viewBox="0 0 557.47 775.96">
  <path d="M547.36,373.22c1.13,1.41,4.32,2.82,6.14,5.35,7.05,9.8,4.51,24.67-5.96,30.91-11.39,6.8-20.75.59-32.48.02.68,13.15-3.21,25.8-4.87,38.63-1.07,8.31,1.83,13.16-4.13,20.87-3.18,4.12-10.43,8.11-15.64,8.44s-11.58-3.19-14.28,4.63c-1.74,5.03-6.27,33.88-5.86,38.7.65,7.57,6.66,22.38,8.31,31.71,1.55,8.76,3.16,19.66,3.52,28.48,1.29,31.56-10.99,80.28,6.14,107.86,2.69,4.34,7.41,7.95,9.64,12.36,7.29,14.42-1.93,30.21-17.58,32.06-3.88.46-7.07-.85-9.52-.54-3.28.42-9.9,3.78-14.48,4.54-3.17.53-7.12-.35-9.54.24-.35.09-3.21,4.15-4.8,5.43-6.69,5.37-12.26,4.82-20.4,4.58-4.03-.12-20.08-3.11-21.9-2.75-.81.16-6.61,6.13-10.25,7.63-3.27,1.34-10.18,1.79-11.16,2.35-.33.19-2.86,4.85-4.18,6.31-19,20.91-58.4,18.9-78.06.02-3.29-3.16-6.6-11.11-10.4-11.59-4.43-.56-8.12,1.03-12.02,1.09-5.41.08-10.52-.32-15.86-.92-14.84,25.87-58.49,33.76-80.23,12.92-1.96-1.88-4.51-6.86-5.75-7.74-1.52-1.08-6.13-1.68-8.6-2.9-3.01-1.49-8.13-7.1-8.68-7.24-1.15-.29-6.69,1.66-8.93,1.82-3.91.28-8.06-.38-11.9.1-9.72,1.22-14.95,6.58-25.52-.65-2.41-1.65-6.7-7.91-7.73-8.27-2.33-.8-7.95-.82-11.34-1.66-8.9-2.23-7.11-2.26-16.49-2.42s-20.59-8-22.27-17.82c-2.63-15.43,8.75-19.72,14.24-31.28,13.53-28.48,2.44-79.84,4.47-112.53,1.82-29.29,13.21-57.55,22.86-84.84-.49-2.44-14.82-10.19-17.55-10.4-2-.16-3.84.96-5.76.86-10.39-.54-19.99-8.15-21.42-18.67-.56-4.16.41-8.8-.1-12.9-1.52-12.13-5.64-23.83-3.98-36.52-11.39-.06-20.8,6.66-32.06.56-12.19-6.61-14.47-22.37-5.8-32.9,6.55-7.96,10.65-15.44,14.61-25.39,10.53-26.48,19.7-51.95,24.92-80.08,10.85-58.44,12.6-144.71,66.41-181.59,2.92-2,11.39-5.59,12.88-7.12,1.96-2.02,2.46-9.67,5.2-13.8,15.32-23.21,49.91-9.26,64.32,8.05l32.53-10.19c2.27-1.67.02-6.31-.06-8.98-.43-13.95,1.58-25.61,10.21-36.87,34.85-45.47,106.82-11.58,93.95,43.76l25.28,8.44c9.42-17.37,27.06-35.86,48.6-26.38,14.12,6.21,12.5,19.26,17.51,31.49,76.64,25.33,78.07,118.71,89.77,185.23,2.46,13.98,5.26,32,9.77,45.23,1.88,5.51,5.45,10.32,7.42,15.58,4.05,10.8,12.67,40.99,18.81,48.7ZM324.14,69.42c5.12-19.97.81-40.62-15.6-53.89-21.46-17.37-53.54-12.91-69.31,9.65-9.98,14.27-10.13,28.84-6.2,45.29l-40.52,11.99c-5.66-3.59-9.33-9.11-15.13-12.78-19.79-12.52-46.79-11.73-47.43,16.72-70.51,30.09-68.54,127.49-81.21,192.29-6.13,31.37-18.83,61.29-31.47,90.53-.84,1.95-.84,4.66-1.76,6.24-1.12,1.93-5.69,3.82-7.47,6.53-4.89,7.42-3.2,17.82,4.08,22.94,9.17,6.45,25.32-.9,35.92-1.43-1.77,14.45,2.31,27.67,3.99,41.52,1.21,9.98-2.51,19.55,9.32,25.68,6.53,3.39,9.92.17,15.49,1.46,7.01,1.62,14.78,8.82,21.29,11.97-9.58,28.6-22.02,57.3-24.07,87.88-2.37,35.29,11.1,91.73-8.78,121.22-2.81,4.17-7.69,7.74-9.29,12.71-4.04,12.58,6.13,22.88,18.57,22.63,2.35-.05,4.79-1.36,6.91-1.08,1.67.22,3.73,2.27,6.12,2.97,4.91,1.43,13.03,1.39,16.23,2.71,2,.82,4.72,9.62,11.95,11.11,8.33,1.72,11.96-2.04,18.77-2.77,7.34-.8,15.34,1.02,22.45-2.99,1.14,4.35,5.03,7.82,9.06,9.49,2.68,1.11,6.79,1.16,8.56,2.44,2.9,2.08,5,8.24,10.91,12.09,22.43,14.63,56.62,5.7,69.2-17.91,7.91.97,15.89,1.12,23.87.93,3.69-.09,8.63-2.6,12.04-.12,1.3.94,3.75,6.47,5.44,8.55,15.76,19.31,53.9,23.83,71.97,6.02,1.73-1.7,6.45-9.69,6.99-10.01,1.85-1.13,8.29-.19,12.72-2.28,3.29-1.56,7.91-7.76,9.01-8.07,2.18-.61,7.9,1.6,10.81,1.86,6.26.56,18.2,1.83,23.92.95,6.7-1.03,9.55-8.26,11.34-8.91,4.69-1.69,14.69-1.82,21.21-3.54,7.63-2.01,8.22-.81,15.26-1.75,6.76-.9,13.21-5.39,14.52-12.47,2.67-14.37-8.67-18.66-13.94-30.59-14.47-32.68-.18-88.29-6.11-126.89-1.79-11.68-8.08-26.73-9.16-36.64-.66-6.06,2.51-22.52,3.77-29.33.57-3.07,2.38-14.7,3.7-16.3,5.26-6.37,16.82-1.96,23.7-5.3,5.22-2.54,8.55-9.27,8.92-14.87.14-2.03-.86-4.01-.54-6.69,1.79-15.13,6.45-29.97,4.92-45.65,3.44,1.96,7.84.72,11.22,1.28,6.99,1.16,10.79,4.01,19.04,2.48,11.74-2.17,15.61-18.29,8.26-26.8-1.95-2.26-4.92-3.16-6.32-5.68-1.21-2.16-1.56-5.77-2.73-8.27-13.48-28.69-25.3-60.6-31.17-91.83-12.57-66.89-11.6-168.96-90.83-192.17-.19-4.35-3.23-8.08-4.26-11.74-2.11-7.45.7-11.24-7.73-17.27-19.11-13.68-40.44,8.7-46.11,26.07l-34.3-10.16ZM299.34,49.13c0,11.57-9.38,20.95-20.95,20.95s-20.95-9.38-20.95-20.95,9.38-20.95,20.95-20.95,20.95,9.38,20.95,20.95ZM294.75,49.12c0-8.86-7.18-16.05-16.05-16.05s-16.05,7.18-16.05,16.05,7.18,16.05,16.05,16.05,16.05-7.18,16.05-16.05Z"/>
</svg>