<?xml version="1.0" encoding="UTF-8"?>
<svg id="_レイヤー_1" data-name="レイヤー 1" xmlns="http://www.w3.org/2000/svg" width="202.95mm" height="302.43mm" viewBox="0 0 575.28 857.27">
  <path d="M229.62,97.78c-3.93-21.92,6.89-45.11,25.28-57.23,42.72-28.14,98.18,7.1,90.74,57.23l33.96-36.53c24.65-29.54,99.46-89.36,134-45.95,21.33,26.8,5.89,49.68.32,77.27-3.69,18.29-7.28,43.11-9.28,61.72-3.4,31.64,5.14,62.16-3.73,92.85,3.38,8.56,9.62,15.17,13.2,23.65,5.81,13.73,5.59,28.7,13,42,5.32,9.55,9,7.9,16.43,13.57,11.45,8.73,13,21.25,10.98,34.8-1.17,7.84-6.16,15.83-13.8,18.71,1.48,4.42,1.42,9.21,2.61,13.7,3.91,14.71,16.81,31.4,14.06,47.46-.62,3.6-3.6,6.25-3.85,9.23-.4,4.77,2.7,15.2,3.08,21.02.63,9.68-.94,20.51.02,29.98s8.32,25.49,10.69,36.31c6.61,30.05,2.19,55.3,3.25,84.75,1.48,40.9,12.61,72.65-5.77,112.15-1.89,4.06-13.62,23.01-13.79,24.81s2.65,7.03,3.14,9.47c10.26,51.05-50.02,58.9-86.83,59.02-11.68,17.92-39.57,27.53-60.22,29.01-36.96,2.64-78.15-4.23-99.15-37.82-13.83-1.18-27.55-1.63-41.33.34-20.95,35.36-68.92,41.59-106.34,36.33-18.45-2.59-41.99-11.65-52.37-27.85-17.61.06-37.46-2.18-54.31-7.47-23.87-7.5-37.63-26.11-32.52-51.55.49-2.43,3.3-7.72,3.14-9.47s-11.34-19.64-13.15-23.45c-19.24-40.46-7.92-71.57-6.41-113.5,1.09-30.3-3.32-55.32,3.63-86.37,2.02-9.04,8.91-24.72,9.34-32.71.89-16.5-.94-28.88,2.45-46.5,1.06-5.5,5.33-16.15,5.5-20.56.11-2.74-2.93-6.76-3.52-10.35-2.37-14.45,11.87-27.01,11.64-42.57-.08-5.39-3.51-5.01-6.61-8.46-8.97-9.97-9.39-31.79-1.48-42.52,6.86-9.3,16.41-8.52,22.52-19.48,7.41-13.3,7.19-28.27,13-42,2.52-5.96,12.73-19.36,13.19-23.64.5-4.72-4.48-19.66-4.74-26.83-.37-10,1.78-21,2.08-31,.85-28.81-4.59-68.28-10.34-96.75s-21.22-51.26.78-77.81c35.41-42.72,109.66,17.9,134.54,47.49l32.96,35.53ZM235.61,103.75c-2.13-.32-4.56,1.2-6.46,1.03-2.44-.22-14.09-15.88-17-19.02C186.85,58.49,147.25,16,110.27,7.64c-19.51-4.41-40.22-.68-49.51,18.76-11.55,24.17.78,41.09,5.58,64.17,6.66,32.03,10.57,70.1,10.34,102.75-.07,10.64-1.93,21.97-1.08,32.99.48,6.24,4.33,15.8,4.1,20.95s-10.7,18.84-13.53,25.54c-6.6,15.64-5.96,30.24-15.36,45.64-5.3,8.68-12.67,7.96-19.21,14.79-10.49,10.96-8.45,37.69,7.57,43.52,1.4,2.23-2.15,18.23-3.27,21.78-3.25,10.32-10.91,16.46-7.97,28.43.69,2.82,3.59,7.09,3.65,8.28.09,1.95-4.6,14.69-5.44,18.52-4.3,19.49-1.4,34.41-3.6,52.4-1.24,10.12-8.21,25.28-10.42,36.58-5.57,28.47-1.34,54.59-2.42,82.58s-8.48,58.12-2.55,84.47c3.95,17.57,13.96,33.64,23.06,48.9-6.82,14.63-7.6,31.64,3.94,44.1,16.11,17.39,54.38,19.35,76.81,19.97,11.97,19.54,39.32,27.75,61.16,29.06,34.01,2.05,73.74-5.5,91.55-37.54,15.74-2.11,31.53-1.65,47.33-.34,18.97,32.13,57.22,39.98,92.21,37.88,21.84-1.31,49.19-9.52,61.16-29.06,38.94.17,104.63-8.86,80.74-64.07,9.1-15.26,19.11-31.34,23.06-48.9,5.92-26.34-1.51-57.54-2.55-84.47s3.12-54.13-2.42-82.58c-2.33-11.98-10.16-28.18-11.42-38.58-1.14-9.31.46-20.29-.12-29.88-.43-7-4.22-19.65-4.05-25.06.09-2.92,3.76-5.43,4.61-9.39,2.01-9.39-1.73-10.87-4.07-18.04-2.74-8.36-5.94-14.8-8.49-22.51-1.25-3.76-5.11-19.94-3.5-22.53.59-.95,3.99-2.06,5.54-3.46,10.32-9.28,11.63-30.16,2.02-40.07-6.61-6.81-13.95-6.16-19.21-14.79-9.51-15.58-8.71-29.87-15.36-45.64-2.67-6.33-13.01-20.04-13.45-24.62-.47-4.84,3.56-15.67,4.03-21.87.82-11.04-1.01-22.34-1.09-32.99-.23-32.32,3.61-64.96,9.34-96.76,4.41-24.44,18.36-45.54,6.59-70.17-9.29-19.44-30-23.17-49.51-18.76-36.82,8.32-76.65,50.92-101.88,78.12-2.8,3.01-14.61,18.82-16.91,18.93l-6.58-.91c11.68-48.99-41.09-87.11-83.32-57.83-19.03,13.19-24.81,35.6-20.69,57.8ZM311.16,85.27c0,13-10.54,23.53-23.53,23.53s-23.53-10.54-23.53-23.53,10.54-23.53,23.53-23.53,23.53,10.54,23.53,23.53ZM305.94,85.28c0-10.11-8.2-18.31-18.31-18.31s-18.31,8.2-18.31,18.31,8.2,18.31,18.31,18.31,18.31-8.2,18.31-18.31Z"/>
</svg>