<?xml version="1.0" encoding="UTF-8"?>
<svg id="_レイヤー_1" data-name="レイヤー 1" xmlns="http://www.w3.org/2000/svg" width="204.61mm" height="305.86mm" viewBox="0 0 580 867">
  <path d="M231.99,103c-3.93-21.92,6.89-45.11,25.28-57.23,42.72-28.14,98.18,7.1,90.74,57.23l33.96-36.53c24.65-29.54,99.46-89.36,134-45.95,21.33,26.8,5.89,49.68.32,77.27-3.69,18.29-7.28,43.11-9.28,61.72-3.4,31.64,5.14,62.16-3.73,92.85,3.38,8.56,9.62,15.17,13.2,23.65,5.81,13.73,5.59,28.7,13,42,5.32,9.55,9,7.9,16.43,13.57,11.45,8.73,13,21.25,10.98,34.8-1.17,7.84-6.16,15.83-13.8,18.71,1.48,4.42,1.42,9.21,2.61,13.7,3.91,14.71,16.81,31.4,14.06,47.46-.62,3.6-3.6,6.25-3.85,9.23-.4,4.77,2.7,15.2,3.08,21.02.63,9.68-.94,20.51.02,29.98s8.32,25.49,10.69,36.31c6.61,30.05,2.19,55.3,3.25,84.75,1.48,40.9,12.61,72.65-5.77,112.15-1.89,4.06-13.62,23.01-13.79,24.81s2.65,7.03,3.14,9.47c10.26,51.05-50.02,58.9-86.83,59.02-11.68,17.92-39.57,27.53-60.22,29.01-36.96,2.64-78.15-4.23-99.15-37.82-13.83-1.18-27.55-1.63-41.33.34-20.95,35.36-68.92,41.59-106.34,36.33-18.45-2.59-41.99-11.65-52.37-27.85-17.61.06-37.46-2.18-54.31-7.47-23.87-7.5-37.63-26.11-32.52-51.55.49-2.43,3.3-7.72,3.14-9.47s-11.34-19.64-13.15-23.45c-19.24-40.46-7.92-71.57-6.41-113.5,1.09-30.3-3.32-55.32,3.63-86.37,2.02-9.04,8.91-24.72,9.34-32.71.89-16.5-.94-28.88,2.45-46.5,1.06-5.5,5.33-16.15,5.5-20.56.11-2.74-2.93-6.76-3.52-10.35-2.37-14.45,11.87-27.01,11.64-42.57-.08-5.39-3.51-5.01-6.61-8.46-8.97-9.97-9.39-31.79-1.48-42.52,6.86-9.3,16.41-8.52,22.52-19.48,7.41-13.3,7.19-28.27,13-42,2.52-5.96,12.73-19.36,13.19-23.64.5-4.72-4.48-19.66-4.74-26.83-.37-10,1.78-21,2.08-31,.85-28.81-4.59-68.28-10.34-96.75s-21.22-51.26.78-77.81c35.41-42.72,109.66,17.9,134.54,47.49l32.96,35.53ZM237.97,108.97c-2.13-.32-4.56,1.2-6.46,1.03-2.44-.22-14.09-15.88-17-19.02-25.3-27.27-64.9-69.76-101.88-78.12-19.51-4.41-40.22-.68-49.51,18.76-11.55,24.17.78,41.09,5.58,64.17,6.66,32.03,10.57,70.1,10.34,102.75-.07,10.64-1.93,21.97-1.08,32.99.48,6.24,4.33,15.8,4.1,20.95s-10.7,18.84-13.53,25.54c-6.6,15.64-5.96,30.24-15.36,45.64-5.3,8.68-12.67,7.96-19.21,14.79-10.49,10.96-8.45,37.69,7.57,43.52,1.4,2.23-2.15,18.23-3.27,21.78-3.25,10.32-10.91,16.46-7.97,28.43.69,2.82,3.59,7.09,3.65,8.28.09,1.95-4.6,14.69-5.44,18.52-4.3,19.49-1.4,34.41-3.6,52.4-1.24,10.12-8.21,25.28-10.42,36.58-5.57,28.47-1.34,54.59-2.42,82.58s-8.48,58.12-2.55,84.47c3.95,17.57,13.96,33.64,23.06,48.9-6.82,14.63-7.6,31.64,3.94,44.1,16.11,17.39,54.38,19.35,76.81,19.97,11.97,19.54,39.32,27.75,61.16,29.06,34.01,2.05,73.74-5.5,91.55-37.54,15.74-2.11,31.53-1.65,47.33-.34,18.97,32.13,57.22,39.98,92.21,37.88,21.84-1.31,49.19-9.52,61.16-29.06,38.94.17,104.63-8.86,80.74-64.07,9.1-15.26,19.11-31.34,23.06-48.9,5.92-26.34-1.51-57.54-2.55-84.47s3.12-54.13-2.42-82.58c-2.33-11.98-10.16-28.18-11.42-38.58-1.14-9.31.46-20.29-.12-29.88-.43-7-4.22-19.65-4.05-25.06.09-2.92,3.76-5.43,4.61-9.39,2.01-9.39-1.73-10.87-4.07-18.04-2.74-8.36-5.94-14.8-8.49-22.51-1.25-3.76-5.11-19.94-3.5-22.53.59-.95,3.99-2.06,5.54-3.46,10.32-9.28,11.63-30.16,2.02-40.07-6.61-6.81-13.95-6.16-19.21-14.79-9.51-15.58-8.71-29.87-15.36-45.64-2.67-6.33-13.01-20.04-13.45-24.62-.47-4.84,3.56-15.67,4.03-21.87.82-11.04-1.01-22.34-1.09-32.99-.23-32.32,3.61-64.96,9.34-96.76,4.41-24.44,18.36-45.54,6.59-70.17-9.29-19.44-30-23.17-49.51-18.76-36.82,8.32-76.65,50.92-101.88,78.12-2.8,3.01-14.61,18.82-16.91,18.93l-6.58-.91c11.68-48.99-41.09-87.11-83.32-57.83-19.03,13.19-24.81,35.6-20.69,57.8ZM313.52,90.49c0,13-10.54,23.53-23.53,23.53s-23.53-10.54-23.53-23.53,10.54-23.53,23.53-23.53,23.53,10.54,23.53,23.53ZM308.31,90.5c0-10.11-8.2-18.31-18.31-18.31s-18.31,8.2-18.31,18.31,8.2,18.31,18.31,18.31,18.31-8.2,18.31-18.31ZM125.56,332.94l-7.56-.94,7.62,35.06,9.38-.07,4.51-26,4.6,25.9,9.85.06,7.05-34.95c-2.06.19-6.32-.78-7.54.95-1.5,2.14-2.94,26.11-4.96,26.05l-4.39-26.43-9.18-.14-4.92,26.56-4.45-26.05ZM258,367h8v-15h12v15h8v-35l-7.56.94-.43,13.07h-11.43s-1.01-13.07-1.01-13.07l-7.56-.94v35ZM167,332v35h23v-6h-15v-9h14v-6h-14v-7.01c2.89-.49,13.15,1.1,14.57-.92,1-1.43.67-5.54-1.07-6.07h-21.5ZM249.59,333.95c-7-3.33-22.9-3.89-23.65,6.57-.97,13.57,17.81,10.66,17.13,17.96-.6,6.39-12.58,2.2-16.06.52l-.6,6.04c9.18,6.93,30.69,1.51,23.46-12.41-3.15-6.06-15.55-5.89-15.94-10.15.89-7.71,10.17-3.85,15.06-2.47l.6-6.05ZM197,332v35h23v-6h-15v-29h-8ZM354.74,332.24c15.54-2.66,24.29,6.94,22.17,22.17-1.8,12.98-18.03,17.07-28.25,10.43-11.5-7.49-8.43-30.11,6.08-32.6ZM357.77,338.19c-11.43,1.66-10.62,23.67,1.73,23.67,13.82,0,13.39-25.86-1.73-23.67ZM446,346h-16v6.01s8.01-.01,8.01-.01c-.29,6.5,2.31,11.09-6.26,9.77-15.03-2.31-12.61-25.04,2.74-23.79,2.26.18,6.2,2.4,7.52,1.6l2-5.57c-11-4.18-27.96-2.56-29.91,11.58-2.95,21.39,14.96,25.41,31.91,20.41v-20ZM383,332c7.72.09,25.64-1.68,26.07,9.52.16,4.07-2.52,9.28-7.07,9.49,2.29,1.5,8.09,14.95,6.99,15.98l-7.9-.1c-1.51-5.34-1.72-12.62-8.59-12.93-2.11-.09-1.3.02-1.52,1.5-.3,2.03.42,11.13.01,11.54h-8.01v-35.01ZM399.74,339.24l-8.75-1.25v11.01c6.62.61,12.56-2.72,8.75-9.76ZM336.57,334.96c-38.92-16.96-39.62,45.28-.52,30.53l-1.07-6.49c-26.42,13.75-26.33-32.23,0-18l1.59-6.04ZM463,333.5c-2.13-2.61-5.98-1.22-9-1.5v35h9v-33.5ZM359.5,361.86c13.82,0,13.39-25.86-1.73-23.67-11.43,1.66-10.62,23.67,1.73,23.67ZM391,338v11.01c6.62.61,12.56-2.72,8.75-9.76l-8.75-1.25ZM217.95,285.96l3.07-10.96c5.16.31.54,8.81,6.5,9.95l4.99-9.93c1.34-.01,2.75,15.13,7.03,9.01,3.25-4.65-5.04-19.6-12.51-10.03-1.94-7.06-7.33-3.78-11.01,0v-4.01c-9.57-2.9-4.15,20.32,1.94,15.97ZM292,288c-2.06.71-4.14-1.66-5.5-1.65-1.83.02-2.53,2.26-6.51,1.21-12.96-3.4-5.95-19.85,6-14.57v-8c3.32-1.19,6.01,4.14,6.01,6.5v16.5ZM280.61,275.08c-2.39,1.25-3.8,6.96-1.67,8.49,7.45,1.65,9.62-6.8,1.67-8.49ZM262.05,273.45c-.35-3.04-1.71-4.91-4.63-2.53-2.07,1.69-2.33,8.52-6.81,9.04-4.09-1.2-2.53-8.31-3.03-8.97-2.58-3.42-6.25-.15-5.43,4.28s8.07,10.97,12.84,7.74c-.27,4.31-4.19,4.7-7.48,2.98l-.51,2c11.9,6.12,16.27-3.85,15.04-14.54ZM301,281.01c1.93,3.6,6.19,3.56,9.38,1.86,2.49-1.33,3.52-5.57,6.67-2.21,1.56,7.85-18.4,9.49-21.62-.61-3.78-11.87,18.35-14.67,17.46-1.72-1.1,3.51-8.98,2.64-11.89,2.68ZM306.89,273.09c-1.48-.95-5.8.8-6.87,2.41,3.83,5.66,11.08.31,6.87-2.41ZM321.27,277.26c1.74-1.93,7.36-3.05,9.72-1.26v-1.98c-3.26-1.66-7.35-.39-10.36-1.14-4.48-1.12,2.29-3.85,4.86-3.87,9.25-.06,13.71,8.8,12.04,17.03l-14.27-.79c-3.37-1.26-4.4-5.3-1.99-7.98ZM327.66,278.22c-1.31.11-2.76,1.3-3.64,2.28,1.71,2.39,4.18,3.36,7.01,2.03,2.69-1.74-1.13-4.5-3.37-4.31ZM344.41,269.08c-9.19-2.8,2.23,26.6,5.41,16.23,2.46-8-.34-11.29,11.18-7.32-1.75-6.95-9.02-5.23-13.99-2.99.03-1.74-.85-5.38-2.6-5.92ZM363.99,265.51l1.02,14.49c3.55,2.68,6.02-18.36-1.02-14.49ZM392.99,270c-3.35,4.33-7.65,11.79-9.53,16.96-.34.94-1.32,3.25.53,3.03l9-19.99ZM278.93,283.57c7.45,1.65,9.62-6.8,1.67-8.49-2.39,1.25-3.8,6.96-1.67,8.49ZM300.02,275.5c3.83,5.66,11.08.31,6.87-2.41-1.48-.95-5.8.8-6.87,2.41ZM324.02,280.5c1.71,2.39,4.18,3.36,7.01,2.03,2.69-1.74-1.13-4.5-3.37-4.31-1.31.11-2.76,1.3-3.64,2.28ZM335,700c6.27-.33,20.82-1.44,16.33,8.78-1.09,2.47-3.99,1.1-4.33,3.21,3.62.37,6.04,2.79,6.04,6.51,0,8.39-12.1,7.72-18.05,7.5v-26ZM339,710c11.21,2.12,12.39-8.92.94-6.56l-.94,6.56ZM347.76,715.24c-1.78-1.71-6.36-1.18-8.76-1.25v8.01c4.67,1.94,13.41-2.27,8.76-6.76ZM252,726h5.01c-2.5-20.78,10.94-21.91,8,0h4v-14.5c0-4.74-8.79-5.92-11.99-2.5v-10s-5.01,0-5.01,0v27ZM330,718h-13c-.24,6.62,6.36,5.37,10.99,4,.16,7.33-12.27,4.38-14.86-.63-7.85-15.14,18.44-21.9,16.87-3.37ZM326,714.99c-.06-7.18-10.18-6.54-8.49.01h8.49ZM309,718h-13c-.24,6.62,6.36,5.37,10.99,4,.16,7.33-12.27,4.38-14.86-.63-7.85-15.14,18.44-21.9,16.87-3.37ZM305,714.99c-.85-7.2-7.48-6.47-9.99-.49l9.99.49ZM227,700v3s6.35.16,6.35.16l1.65,1.34v21.5h4v-21.5l1.65-1.34,6.35-.16v-3h-20.01ZM275,726h4c-.48-8.88-.99-14.45,9.02-16.5l-.52-2.51-8.48,3.02-.1-2.88-3.91-.13v19ZM339,714v8.01c4.67,1.94,13.41-2.27,8.76-6.76-1.78-1.71-6.36-1.18-8.76-1.25ZM339.93,703.44l-.94,6.56c11.21,2.12,12.39-8.92.94-6.56ZM317.51,715.01h8.49c-.06-7.19-10.18-6.55-8.49,0ZM295.01,714.51l9.99.49c-.85-7.2-7.48-6.47-9.99-.49ZM140.02,622.47c5.02,3.55,6.17.05,8.5-.11,1-.07,2.53,1.59,4.07,1.67,2.45.13,5.33-3.39,9.41-1.04l-1-13c-8.02-1.52-4.82,4.71-8.5,9-2.53-2.61.2-13.22-5.92-8.88-2.87,2.04.41,7.98-3.57,9.88l-1.02-12c-7.54-1.98-6.15,11.52-1.97,14.48ZM462.85,603.15c1.76,1.07,3.3,20.94,2.67,21.86-1.93,2.79-4.22-.99-5.85-.84-3.7.33-4.9,4.01-10.63-.71-8.27-6.82,1.46-15.7,9.96-13.45v-7.01s3.85.16,3.85.16ZM452.1,621.9c3,.83,5.43-1.13,6.79-3.61.69-2.67-4.08-7.16-6.4-4.31-1.96,2.54-1.66,5.12-.4,7.92ZM229.99,626c-2.21.96-4.37-1.49-5.51-1.58-1.48-.12-3.26,1.59-5.75,1.38-13.79-1.19-8.36-19.73,5.26-15.8l-.99-6.99c9.79-.63,4.49,16.22,6.99,22.99ZM216.09,621.9c3.7.81,6.08-.44,7.51-3.85-3.8-8.86-10.09-3.72-7.51,3.85ZM249.76,617.76l-10.75,1.74c2.74,2.98,6.73,3.4,10,.99,1.52-1.12,1.82-4.22,3.48-3.47,1.25.56,1.69,2.13,1.56,3.45-.83,8.23-25.53,6.01-20.6-8.52,2.51-7.38,21.25-4.77,16.31,5.82ZM238,614.99c2.52,1.27,8.28,1.79,6.99-2.48-.94-3.12-7.6-1.22-6.99,2.48ZM414.75,609.26c2.59,2.45,3.68,9.12-1.47,9.51l-8.27.72c5.7,7.28,11.73-2.03,13.46-2.2,4.65-.44,2.93,6.66-4.03,7.64-16.4,2.32-21.27-16.22-6.96-17.01,1.96-.11,5.83-.02,7.27,1.34ZM410.89,611.09c-1.48-.95-5.8.8-6.87,2.41,3.83,5.66,11.08.31,6.87-2.41ZM108.27,615.26c2.53-2.82,7.49-1.88,10.72-1.75-1.05-1.2-1.83-2.16-3.52-2.48-2.67-.51-11.18,1.57-8.41-2.94.4-.65,5.14-1.2,6.4-1.13,9.38.55,12.73,8.78,11.06,17.08l-14.27-.79c-3.37-1.26-4.4-5.3-1.99-7.98ZM120,618.02c-3.67-1.7-5.73-3.21-8.98.48,2.78,3.06,7.1,3.79,8.98-.48ZM424,606.99c.31,5.22-1.81,17.12,6.04,16.59,1.95-1.37,1.75-10.85,6.95-10.58,4.28,26.22,11.65-.45,1.03-3.59-3.57-1.06-6.14.71-9.02,2.59l-1.16-4.85-3.85-.15ZM188.17,608.66c-.99,3.12.76,18.05,5.84,14.92,2.49-1.54,2.14-10.55,6.48-10.59l3.53,11c7.33,1.26,2.84-12.07-.45-14.06-5.28-3.19-9.5,3.21-10.56,2.06,1.38-4.02-3.56-7.36-4.84-3.34ZM311.5,619.98c-4.02-1.71-2.39-15.14-7.54-11.52-5.73,4.02,6.35,23.15,13.67,12.65l7.36,2.89c.59-3.02-2.16-4.06-3.08-6.41-.87-2.22-1.73-12.61-6.68-7.34-1.35,1.44-1.88,9.79-3.74,9.73ZM287.47,603.98c-2.52,2.48-.94,9.39-1.52,9.98l-5.95,1.54c1.77,2.61,4.02,2.72,6.98,2.52-.13,10.77,6.77,10.12,5.01-1.02l8.01-.51c-.08-4.25-7.04-1.24-8.57-3.43l-.43-7.06c1.92-2.21,5.16,8.93,7.99,5.99,2.33-2.41-5.89-13.56-11.52-8.02ZM171.73,608.24c4.59-.94,7.8-.93,10.7,2.83,7.85,10.18-3.33,17.83-12.76,11.76-6.76-4.35-5.98-12.94,2.06-14.6ZM173.71,611.16c-5.91,1.65-4.21,11.18,1.63,10.63,7.29-.68,3.94-12.19-1.63-10.63ZM350.95,613.96l-5.95,1.54c1.77,2.61,4.02,2.72,6.98,2.52l1.17,6.83,3.85.15v-8.01c.83-.83,8.24,1.75,7.99-1.48l-8.55-2.45-.43-7.06c4.31-.06,2.88,7.16,7.99,5.99-1.44-13.27-15.6-12.43-13.04,1.96ZM371.35,607.13c-9.12-2.39,2.35,26.38,5.47,16.19,2.46-8-.34-11.29,11.18-7.32-1.76-7.41-8.73-5.14-13.99-2.99.18-2.49-.19-4.81-2.66-5.87ZM257.46,607.97c-1.88,2.72,3.69,22.54,8.05,16.03,3.17-4.73-1.57-13.79,11.49-8.01.3-6.59-8.98-5.93-12.98-2.99.17-2.88-4.22-8.42-6.56-5.03ZM333,607.5c0-.74-1.66-3.75-2.5-4.48-3.71-.08-2.74,15.96-1.84,18.82.79,2.51,1.36,3.63,4.34,3.16v-17.5ZM395.49,624.99c2.48-.49-.29-9.36.36-11.34l-.79-1.21-3.04-.44c-2,2.5-.39,13.76,3.47,12.99ZM395.56,603.94l-4.56-.93c-.36,3.2,1.18,7.79,4.99,7.99l-.43-7.06ZM458.89,618.29c.69-2.67-4.08-7.16-6.4-4.31-1.96,2.54-1.66,5.12-.4,7.92,3,.83,5.43-1.13,6.79-3.61ZM223.6,618.05c-3.8-8.86-10.09-3.72-7.51,3.85,3.7.81,6.08-.44,7.51-3.85ZM244.99,612.51c-.94-3.12-7.6-1.22-6.99,2.48,2.52,1.27,8.28,1.79,6.99-2.48ZM404.02,613.5c3.83,5.66,11.08.31,6.87-2.41-1.48-.95-5.8.8-6.87,2.41ZM111.02,618.5c2.78,3.06,7.1,3.79,8.98-.48-3.67-1.7-5.73-3.21-8.98.48ZM175.34,621.79c7.29-.68,3.94-12.19-1.63-10.63-5.91,1.65-4.21,11.18,1.63,10.63ZM213.66,551.96c-2.21.52-1.64,9.12-1.66,11.04-2.37-.09-6.25-.62-6,2.99l6.99,1.01c-1.36,9.62,6.75,9.67,4.43-.03l8.55-2.47-9.57-3.45.6-6.05c3.22-.21,3.65,3.49,4.11,5.87l3.88.12c-.73-6.54-4.31-10.48-11.33-9.03ZM244.72,558.29c3.77,3.07,5.85,10.36.78,13.71-9.72,6.42-23.14-5.61-14.02-13.02,3.03-2.46,10.32-3.06,13.24-.68ZM240.87,560.13c-11.66-.52-9.55,14.19,2,8.74l-2-8.74ZM251.05,558.4c-.07,3.2,2.68,15.19,6.62,15.49,4.03-.73,2.55-8.72,5.31-10.43,1.49-1.98,9.05,3.87,9.01.04-.04-3.44-11.54-4.91-13.97-1.5,1.3-5.42-6.85-8.64-6.96-3.6ZM289,559c17.6.81,13.67,17.91-3.02,14.51-3.41-1.73-4.09-17.45-2.06-20.09,3.54-4.61,6.31,1.57,5.08,5.58ZM289,562c.04,1.94-.98,9.7,2.48,8.99,5.11-3.82,3.78-8.59-2.48-8.99ZM308.01,567c1.79,6.62,10.48,4.45,12.6-1.06l3.42,2.55c-4.03,9.92-22.78,5.72-22.12-4.99.63-10.21,19.92-8.93,17.65,2.5-3.16,2.72-7.92,2.66-11.55,1ZM315,563.99l-2.46-4.75-5.52,3.26c2.36,2.77,4.82,2.67,7.98,1.49ZM358,573.01c3.51-.49,8.24,1.36,10.99-1.53.29-2.47-2.36-.19-4.99-.91-10.29-2.82-8.09-17.11,4.28-14.36,6.17,1.37,6.68,11.23,5.69,16.27-1.19,6.12-13.08,5.41-15.98.53ZM364.65,559.12c-4.89,1.57-2.58,12.78,3.85,5.88,1.54-3.36.27-7.21-3.85-5.88ZM335.17,557.66c-1.22,3.9,0,15.04,5.85,14.88,2.12-1.63,1.72-10.72,6.97-10.54,0,2.83,2.92,15.19,6.54,10.02,3.69-5.27-6.09-20.96-14.52-11.03,1.39-4.01-3.58-7.36-4.84-3.34ZM328.51,561.01c-3.11.65-1.93,13.6,3.48,12.99-.54-4.33,2.12-11.55-3.48-12.99ZM330.51,559.97c3.02-1.57.98-8.01-1.99-8.01-3.78,0-1.92,5.15-.27,6.77.57.56,1.69.55,2.26,1.25ZM291.49,571c5.11-3.82,3.78-8.59-2.48-8.99.04,1.94-.98,9.7,2.48,8.99ZM312.54,559.24l-5.52,3.26c2.36,2.77,4.82,2.67,7.98,1.49l-2.46-4.75ZM368.5,565c1.54-3.36.27-7.21-3.85-5.88-4.89,1.57-2.58,12.78,3.85,5.88ZM242.87,568.87l-2-8.74c-11.66-.52-9.55,14.19,2,8.74ZM337.05,509.45c-1.34-11.6-8.33,7.28-11.51,6.55-2.68-.57-2.57-16.55-7.05-10.03-4.13,6.01,5.67,16.54,12.52,13.04-2.33,4.56-4.6,4.07-9,3,10.64,9.87,16.36-1.19,15.05-12.56ZM256,510.99c-2.34-4.38-8.98.16-11.99-3.51-1.47-3,8.81-2.55,10.26-2.25,8.59,1.76,10.57,17.23,7.2,17.77-4.09-3.22-12.07,1.43-15.54-3.43-4.37-6.11,4.88-9.85,10.07-8.59ZM256.99,517.99c.32-1.97-1.79-3.88-3.55-4.04l-4.43,2.55,7.97,1.49ZM305.02,508.49c-2.5-1.69-7.03,1.56-9.53,2.47-3.09-.26,1.3-14.09-7.05-8.99.89,4.84-.47,16.05,2.57,19.53.59.68,2.75,1.96,3.52.54,1.82-17.55,4.94-2.02,7.46-.52,8.45,5.02.64-8.82,1.06-9.42.21-.3,5.33-1.34,1.97-3.61ZM270.07,505.43l-4.06-.43c.44,6.25-1.7,15.08,5.51,16.97l4.6-10.85,2.87-.11c4.38,24.53,10.93,2.34,2.59-3.06-5.4-3.49-10.23,2.53-10.56,2.06l-.94-4.57ZM224.94,501.44c-1.9,1.39-.82,17.26.55,19.56.38.64,1.17.89,1.82,1.19,4.64,2.26,1.88-12.21,6.17-11.19,3.07,1.54,3.05,12.83,7,11.99,3.56-.75.34-13-4.42-14.56-2.3-.75-4.72-.38-7.06-.44l-1.02-6.99-3.04.44ZM377.5,518.02c.55,1.39,6.88,5.61,7.5,2.47-.58-2.22-2.48-3.21-3.52-5.48-1.24-2.7-.28-7.16-3.17-7.9-5.56-1.41-4.53,10.88-6.81,10.87-3.65-2.69-3.16-7.1-3.94-11.04l-4.55-.95c-2.84,6.66,5.85,20.45,12.7,14.68.58-.49,1.14-2.64,1.79-2.66ZM345.71,506.22c2.8-.63,8.29-.87,10.34,1.23,9.48,9.67-.52,19.8-11.4,13.4-6.71-3.94-6.08-13.02,1.06-14.63ZM348.74,509.17c-6.86,1.31-4.4,12.4,3.62,9.7,3.05-1.03,2.53-10.87-3.62-9.7ZM201.51,502.01c-1.17.09-6.92.36-6.5,2.47,2.75,2.88,7.49,1.05,11,1.51.67.67-1.72,17.52,5.99,16l-1-16h10.01s0-2.97,0-2.97c-.98-1.21-16.71-1.23-19.48-1.01ZM253.45,513.95l-4.43,2.55,7.97,1.49c.32-1.97-1.79-3.88-3.55-4.04ZM352.36,518.87c3.05-1.03,2.53-10.87-3.62-9.7-6.86,1.31-4.4,12.4,3.62,9.7Z"/>
</svg>