<?xml version="1.0" encoding="UTF-8"?>
<svg id="_レイヤー_1" data-name="レイヤー 1" xmlns="http://www.w3.org/2000/svg" width="185.2mm" height="300.65mm" viewBox="0 0 524.97 852.25">
  <path d="M316.45,73.35c15.98,3.59,32.28,11.06,46.68,18.83,8.92,4.81,21.38,15.04,29.43,18.57,15.39,6.74,31.9,3.23,50.2,13.8,39.25,22.65,34.01,59.7,52.89,93.11,15.7,27.79,32.81,38.12,28.7,75.09-2.44,21.98-34.65,60.53-52,74-14.87,11.54-36.77,23.68-55.89,18.6.9,3.08.53,7.25,1.43,10.06.61,1.9,2.79,3.36,3.76,5.24,9.92,19.4,11.68,37.34,19.63,56.37,13.41,32.1,34.05,54.95,39.05,91.95,3.72,27.48-3.66,53.35,3.4,80.6,10.52,40.61,17.92,66.11,5.21,108.78-2.06,6.92-12.92,27.44-13.24,30.66-.25,2.51,3.7,13.24,3.78,17.9.65,37.33-40.36,43.94-69.34,43.65-30.52,30.03-97.45,28.97-125.67-3.72-1.52-1.76-3.63-6.67-4.28-7.22-3.54-2.92-21.76-1.7-25.45,1.03-1.01.74-4.96,7.72-6.78,9.72-26.1,28.78-86.38,26.52-116.84,5.82-2.33-1.58-4.14-4.63-6.43-5.57-5.88-2.39-19.12-1.17-26.62-2.38-21.14-3.42-39.46-17.37-39.7-40.39-.04-3.47,2.12-8.97,1.56-11.62-.46-2.17-9.62-15.72-11.64-20.2-14.41-31.87-16.33-70.86-8.34-104.69,1.94-8.21,5.4-15.68,7.44-23.56,6.79-26.29-.87-54.42,3.37-81.63,6.07-39.03,30.2-63.05,41.74-97.26,2.26-6.69,10.81-33.1,11.43-38.38.55-4.64-2.07-11.37.54-16.14-21.53,4.82-40.14-6.58-50.52-24.99-3.72-6.61-5.28-13.8-10.46-19.54-5.79-6.41-12.57-7.35-19.34-11.66-24.76-15.75-28.58-53.89-19.96-79.61,4.58-13.67,14.35-24.14,19.3-37.7,13.34-36.48,5.59-62.7,41.07-89.93,16.47-12.64,26.59-13.57,43.59-21.41,12.6-5.81,26.34-17.43,39.96-24.04,18.46-8.95,38.7-14.85,59.36-15.15-6.18-28.45,8.88-58.5,37.04-67.45,44.62-14.19,84.54,26.1,71.95,70.45ZM409.46,377.35h21.5c32.01,0,84.55-56.32,88.22-86.78,3.87-32.07-13.55-44.69-27.53-68.92-19.43-33.68-15.1-76.56-57.52-95.48-14.59-6.51-29.36-4.87-42.41-9.59-5.49-1.99-18.56-12.36-24.96-16.04-17.67-10.17-36.52-18.55-56.32-23.7l-.84-1.79c12.35-28.1-6.41-62.19-35.92-68.43-40.65-8.59-72.35,30.22-59.23,68.72-26.96-.3-50.71,7.85-74.02,20.48-9.43,5.11-21.35,15.03-30.08,18.92-15.7,7-24.71,7.27-40.22,18.78-32.29,23.98-28.92,45.34-38.77,80.23-6.71,23.78-24.12,39.76-25.96,65.04-1.37,18.86,3.75,41.61,19.71,53.37,7.46,5.5,16.57,6.82,22.84,14.16,6.01,7.04,8.21,17.42,13.66,25.34,11.92,17.29,29.17,21.58,48.81,15.15,1.33-.44,1.19-1.01,1.04,1.04-.3,3.98-2.94,8.76-3.06,13.05-.11,3.83,1.44,6.42.8,10.69-1.81,11.95-12.78,43.43-18.22,54.79-13.59,28.38-30.58,49.83-35.27,82.73-3.77,26.44,3.57,53.56-2.76,79.24-2.2,8.94-6.11,17.41-8.2,26.8-8.84,39.71-3.94,77.19,15.89,112.49,1.08,1.93,4.22,5.11,4.61,6.42.82,2.74-1.28,12.94-.8,17.76,3.03,30.6,39.4,32.87,63.33,32.67,22.11,28.49,85.75,28.24,111.68,6.35,3.95-3.34,10.67-14.07,12.02-14.98,1.66-1.12,13.83-3.51,16.44-3.59,3.11-.09,13.28.94,15.48,2.61,1.58,1.2,2.26,4.5,3.64,6.36,24.27,32.85,94.49,34.16,121.1,3.27,28.74.36,67.83-2.59,65.35-40.73-.27-4.14-4.12-14.29-3.89-15.74.28-1.73,6.63-11.83,8.02-15.05,14-32.45,15.6-70.85,6.54-104.89-1.97-7.4-5.35-14.47-7.04-21.96-5.5-24.32,1.08-48.71-1.8-73.2-4.52-38.31-25.18-60.88-39.04-93.96-7.43-17.72-9.2-36.2-18.31-53.69-1.47-2.83-5.4-6.81-6.07-8.93-1.53-4.8-.17-13.57-2.44-19.06ZM285.34,52.52c0,12.64-10.24,22.88-22.88,22.88s-22.88-10.24-22.88-22.88,10.24-22.88,22.88-22.88,22.88,10.24,22.88,22.88ZM279.84,52.52c0-9.6-7.78-17.38-17.38-17.38s-17.38,7.78-17.38,17.38,7.78,17.38,17.38,17.38,17.38-7.78,17.38-17.38Z"/>
</svg>