<?xml version="1.0" encoding="UTF-8"?>
<svg id="_レイヤー_1" data-name="レイヤー 1" xmlns="http://www.w3.org/2000/svg" width="204.61mm" height="305.86mm" viewBox="0 0 580 867">
  <path d="M343.99,82.99c15.98,3.59,32.28,11.06,46.68,18.83,8.92,4.81,21.38,15.04,29.43,18.57,15.39,6.74,31.9,3.23,50.2,13.8,39.25,22.65,34.01,59.7,52.89,93.11,15.7,27.79,32.81,38.12,28.7,75.09-2.44,21.98-34.65,60.53-52,74-14.87,11.54-36.77,23.68-55.89,18.6.9,3.08.53,7.25,1.43,10.06.61,1.9,2.79,3.36,3.76,5.24,9.92,19.4,11.68,37.34,19.63,56.37,13.41,32.1,34.05,54.95,39.05,91.95,3.72,27.48-3.66,53.35,3.4,80.6,10.52,40.61,17.92,66.11,5.21,108.78-2.06,6.92-12.92,27.44-13.24,30.66-.25,2.51,3.7,13.24,3.78,17.9.65,37.33-40.36,43.94-69.34,43.65-30.52,30.03-97.45,28.97-125.67-3.72-1.52-1.76-3.63-6.67-4.28-7.22-3.54-2.92-21.76-1.7-25.45,1.03-1.01.74-4.96,7.72-6.78,9.72-26.1,28.78-86.38,26.52-116.84,5.82-2.33-1.58-4.14-4.63-6.43-5.57-5.88-2.39-19.12-1.17-26.62-2.38-21.14-3.42-39.46-17.37-39.7-40.39-.04-3.47,2.12-8.97,1.56-11.62-.46-2.17-9.62-15.72-11.64-20.2-14.41-31.87-16.33-70.86-8.34-104.69,1.94-8.21,5.4-15.68,7.44-23.56,6.79-26.29-.87-54.42,3.37-81.63,6.07-39.03,30.2-63.05,41.74-97.26,2.26-6.69,10.81-33.1,11.43-38.38.55-4.64-2.07-11.37.54-16.14-21.53,4.82-40.14-6.58-50.52-24.99-3.72-6.61-5.28-13.8-10.46-19.54-5.79-6.41-12.57-7.35-19.34-11.66-24.76-15.75-28.58-53.89-19.96-79.61,4.58-13.67,14.35-24.14,19.3-37.7,13.34-36.48,5.59-62.7,41.07-89.93,16.47-12.64,26.59-13.57,43.59-21.41,12.6-5.81,26.34-17.43,39.96-24.04,18.46-8.95,38.7-14.85,59.36-15.15-6.18-28.45,8.88-58.5,37.04-67.45,44.62-14.19,84.54,26.1,71.95,70.45ZM437,387h21.5c32.01,0,84.55-56.32,88.22-86.78,3.87-32.07-13.55-44.69-27.53-68.92-19.43-33.68-15.1-76.56-57.52-95.48-14.59-6.51-29.36-4.87-42.41-9.59-5.49-1.99-18.56-12.36-24.96-16.04-17.67-10.17-36.52-18.55-56.32-23.7l-.84-1.79c12.35-28.1-6.41-62.19-35.92-68.43-40.65-8.59-72.35,30.22-59.23,68.72-26.96-.3-50.71,7.85-74.02,20.48-9.43,5.11-21.35,15.03-30.08,18.92-15.7,7-24.71,7.27-40.22,18.78-32.29,23.98-28.92,45.34-38.77,80.23-6.71,23.78-24.12,39.76-25.96,65.04-1.37,18.86,3.75,41.61,19.71,53.37,7.46,5.5,16.57,6.82,22.84,14.16,6.01,7.04,8.21,17.42,13.66,25.34,11.92,17.29,29.17,21.58,48.81,15.15,1.33-.44,1.19-1.01,1.04,1.04-.3,3.98-2.94,8.76-3.06,13.05-.11,3.83,1.44,6.42.8,10.69-1.81,11.95-12.78,43.43-18.22,54.79-13.59,28.38-30.58,49.83-35.27,82.73-3.77,26.44,3.57,53.56-2.76,79.24-2.2,8.94-6.11,17.41-8.2,26.8-8.84,39.71-3.94,77.19,15.89,112.49,1.08,1.93,4.22,5.11,4.61,6.42.82,2.74-1.28,12.94-.8,17.76,3.03,30.6,39.4,32.87,63.33,32.67,22.11,28.49,85.75,28.24,111.68,6.35,3.95-3.34,10.67-14.07,12.02-14.98,1.66-1.12,13.83-3.51,16.44-3.59,3.11-.09,13.28.94,15.48,2.61,1.58,1.2,2.26,4.5,3.64,6.36,24.27,32.85,94.49,34.16,121.1,3.27,28.74.36,67.83-2.59,65.35-40.73-.27-4.14-4.12-14.29-3.89-15.74.28-1.73,6.63-11.83,8.02-15.05,14-32.45,15.6-70.85,6.54-104.89-1.97-7.4-5.35-14.47-7.04-21.96-5.5-24.32,1.08-48.71-1.8-73.2-4.52-38.31-25.18-60.88-39.04-93.96-7.43-17.72-9.2-36.2-18.31-53.69-1.47-2.83-5.4-6.81-6.07-8.93-1.53-4.8-.17-13.57-2.44-19.06ZM312.88,62.17c0,12.64-10.24,22.88-22.88,22.88s-22.88-10.24-22.88-22.88,10.24-22.88,22.88-22.88,22.88,10.24,22.88,22.88ZM307.38,62.17c0-9.6-7.78-17.38-17.38-17.38s-17.38,7.78-17.38,17.38,7.78,17.38,17.38,17.38,17.38-7.78,17.38-17.38ZM308,548.01c4.14,5.15,8.68.53,12.49-2,4.23,3.9-2.06,7.46-6.13,7.63-12.43.54-18.06-14.05-7.64-16.42,13.61-3.09,17.26,12.76,1.29,10.79ZM311.51,539.03l-5.49,3.47c3.82,4.01,10.05,2.43,5.49-3.47ZM368.7,538.29c1.08,1.33,2.43,13.48,1.86,14.69-2.12,4.5-13.57,3.94-15.56-.97,4.16-.05,8.66,3.19,11-2-3.82.36-7.96.25-10.05-3.46-5.47-9.71,8.41-13.61,12.75-8.26ZM361.63,539.06c-2.44,1.11-3.91,7.1-1.1,7.93,2.95.39,4.44-2.41,5.32-4.67l-1.28-2.39-2.94-.87ZM288.91,533.1l.13,5.86c5.63-.36,13.75,4.4,10.02,10.6-1.83,3.05-11.67,5.43-13.82,3.2-1.27-1.33-3-17.56-.55-19.87l4.21.2ZM289.01,550c7.57-.53,7.45-7.51,0-7.99v7.99ZM215.01,543l-5.99,1.5c.95,2.49,6.39,2.15,6.86,2.62.59.59,3.85,17.48,5.11-1.12,2.69-.21,6.02,1.02,7.98-1.5l-8.97-2.51v-6.99c3.22-.22,3.65,3.49,4.11,5.87l3.88.12c-2.43-12.58-15.44-12.72-12.99,2.01ZM333.94,536.44c-2.59,1.9-.29,18.92,5.12,15.12,1.46-1.59,2.35-10.25,5.43-9.56l3.66,9.84,3.85.15c.33-9.42-3.96-19.18-13.98-11l-1.03-5-3.04.44ZM237.73,537.24c14.08-2.88,18.72,19.15,1,15.53-9.37-1.91-10.56-13.57-1-15.53ZM242.87,540.13c-8.87-2.07-9.43,11.02-1.43,9.89,5.46-.77,3.23-6.59,1.43-9.89ZM253.96,536.46c-3.08,2.25,2.83,22.74,7.59,15.59,2.66-4-2.38-12.99,10.45-7.05.31-6.58-8.99-5.93-12.98-3,.83-2.9-2.07-7.72-5.05-5.54ZM326.02,541.01c-1.84,4.07-.18,7.41.89,11.41l3.09.59c-.66-4.04,2.49-12.75-3.98-12ZM325.01,532.01c-1.18,1.24,1.75,8.78,4.99,7.99.4-3.98.2-8.41-4.99-7.99ZM255.56,284.94l-11.45-.83-4.11,34.89,8.57-.94,1.94-21.07,4.6,21.91,8.97-.33,4.43-21.58,2.51,22,8.45.02-3.45-35.02-11.96.06c-1.4,6.78-1.71,14.52-3.34,21.17-.25,1.01-.29,3.01-1.7,2.78l-3.45-23.05ZM410,319h9v-19c3.67,2.11,8.65,17.09,10.99,18.51,2.1,1.28,6.48.14,9.01.49v-35h-9v18l-10.16-17.84-9.84-.16v35ZM211,284v35h24v-8h-14v-27h-10ZM320,284v7.01s10,0,10,0v28h9v-28h10.01s0-7,0-7h-29ZM356,284v35h10v-35h-10ZM194.87,284.13l11.13,34.86-9.89-.1-1.15-6.84-10.85.05-1.15,6.84-9.95.05,11.09-34.89,10.77.03ZM193,304.99l-3.98-12.99-3.01,12.99h6.99ZM189.01,292.01l-3.01,12.99h6.99s-3.98-12.99-3.98-12.99ZM304.86,284.14l11.14,34.86-9.95-.05-1.15-6.84-10.85-.05-1.15,6.84-9.9.1,11.1-34.89,10.76.04ZM303,304.99c.39-.37-1.82-8.73-2.29-10.21-.34-1.05-.26-3.02-1.69-2.78l-3.01,12.99h6.99ZM300.7,294.79c-.34-1.05-.26-3.02-1.69-2.78l-3.01,12.99h6.99c.39-.37-1.82-8.73-2.29-10.21ZM405,318.99l-9.87-.12-2.07-6.43-10.18.14-1.82,5.98-9.06.44,11.14-34.86,10.38.85,11.48,34.01ZM391,305l-2.5-12.99c-1.66,1.34-4.06,12.45-3.51,12.99h6.01ZM388.5,292c-1.66,1.34-4.06,12.45-3.51,12.99h6.01s-2.5-12.99-2.5-12.99ZM141,319v-35h17.5c.44,0,6.79,3.69,7.52,4.48,5.61,6,5.28,19.74-.52,25.52s-17.21,5.07-24.5,5ZM150,312c15.07,1.01,15.45-23.75,0-21v21ZM150,291v21c15.07,1.01,15.45-23.75,0-21ZM306.02,542.5c3.82,4.01,10.05,2.43,5.49-3.47l-5.49,3.47ZM360.53,546.99c2.95.39,4.44-2.41,5.32-4.67l-1.28-2.39-2.94-.87c-2.44,1.11-3.91,7.1-1.1,7.93ZM289.01,542v7.99c7.57-.53,7.45-7.51,0-7.99ZM215,230.99c.5,5.29-2.59,16.27,6.05,14.59,1.69-1.28,1.28-9.52,4.93-10.59.73,3.46.34,7.76,3.53,9.99l5.98-9,1.97,8.05,4.53.96c.43-4.58-1.27-14.07-7.42-13.02-1.51.26-2.85,2.12-3.94,1.93-2.03-.36-5.36-6.88-10.13.07-.74-.04-1.15-2.44-1.7-2.75-1.08-.61-2.58-.12-3.79-.23ZM292,248c-6.27-1.48-17.48,2.48-18.06-7.52-.4-6.93,6.54-8.38,12.06-7.48v-7c3.32-1.19,6.01,4.14,6.01,6.5v15.5ZM280.63,236.06c-3.16.94-2.79,7.19-.07,8.92,8.26-.6,4.89-10.36.07-8.92ZM312,240c-4.49,1.67-7.27,1.96-12,1.5,2.93,3.53,11.14,3.91,12-1.5.14.16,3.45-.13,4,1.53,1.86,7.82-24.01,8.74-20.8-5.81,1.11-5.05,9.06-5.96,13.14-4.56,3.36,1.15,3.34,8.47,3.66,8.84ZM305.98,233c-8.57,1.26-7.54,5.97,1.02,5l-1.02-5ZM258.95,231.45c-1.36.85-3.03,8.4-6.45,9.53-4.44-.92-1.79-13.49-6.53-10.52-5.99,3.75,4.34,17.77,11.02,12.54-.27,4.41-4.76,4.89-7.98,3-1.82,2.3,7.26,6.5,11.67,1.68,3.35-3.66,4.1-19.88-1.72-16.23ZM330,235.99c-1.74-3.81-10.41-.26-11.99-3.51-.86-1.78,1.9-1.78,2.97-2,11.03-2.18,16.6,6.1,14.04,16.09-4.73-.12-17.17,1.46-16.05-6.03.69-4.58,7.32-4.96,11.02-4.56ZM324.64,239.12c-5.43,1.65,3.7,6.86,6.34,2.38-1.57-2.14-3.68-3.19-6.34-2.38ZM339,230c.08,5.79-.11,18.07,7.99,17.01-.2-2.59.52-8.26,2.99-9.54,2.99-1.55,7.47,3.44,8.01.02.62-3.96-10.85-4.86-12.98-1.49-.66-3.96-1.3-6.85-6.01-6ZM363.49,239.99c2.07-.44,3.43-15.7-1.98-13.99-3.08.98-1.33,14.68,1.98,13.99ZM388.99,230c-3.35,4.33-7.65,11.79-9.53,16.96-.34.94-1.32,3.25.53,3.03l9-19.99ZM280.56,244.98c8.26-.6,4.89-10.36.07-8.92-3.16.94-2.79,7.19-.07,8.92ZM307,237.99l-1.02-5c-8.57,1.26-7.54,5.97,1.02,5ZM330.98,241.5c-1.57-2.14-3.68-3.19-6.34-2.38-5.43,1.65,3.7,6.86,6.34,2.38ZM241.44,550.03c5.46-.77,3.23-6.59,1.43-9.89-8.87-2.07-9.43,11.02-1.43,9.89ZM317.16,488.66c-2.23,7.07,4.63,14.38,11.85,11.85-1.01,4.21-3.15,3.1-5.94,2.96-1.23-.06-2.41-1.58-2.06,1.02,5.28,4.57,12.34,2.81,13.76-4.22.58-2.87,1.53-15.17-3.82-11.81-1.89,1.18-2.28,9.36-7.38,8.52-3.08-.91-1.54-9.24-2.59-9.97-.91-.63-3.31.02-3.83,1.65ZM263.99,504c-4.51-1.25-17.11,1.28-17.1-5.49,0-5.84,7.18-5.34,11.1-6-3.12-3.77-11.5,1.43-11.99-4.49,12.78-4.23,19.03,3.7,17.99,15.98ZM252.64,496.12c-5.43,1.65,3.7,6.86,6.34,2.38-1.57-2.14-3.68-3.19-6.34-2.38ZM289.08,483.09c.08,6.14-2.67,20.57,5.91,20.91v-7.49c5.62-2.32,3.49,7.48,9.48,7.5,3.38-2.3-1.24-5.8-1.26-8.69-.02-1.67,2.44-3.14,1.78-5.31l-10.99,2-1.14-8.86-3.78-.06ZM267,486.99c-.82,2.96.34,19.58,6.06,15.57,1.74-1.22,1.87-9.67,5.93-10.56l3.03,10.99,3.02-.45c2.39-9.03-3.7-18.62-13.03-10.55l-1.16-4.85-3.85-.15ZM226.96,494.54c.22,3.63.47,11.61,5.58,8.5l1.37-9.45c3.67-4.97,5.39,9.71,6.23,10.27l3.86.14c.38-8-2.59-15.72-11.91-14.1-3.71-14.63-5.62-3.37-5.13,4.63ZM364.56,488.94l-4.56-.94c-.27,5.14-.65,11.1,4.62,13.87,6.53,3.43,6.82-1.35,9.01-1.77,1.5-.29,4.69,3.97,7.36,2.9-.7-2.83-2.64-4.93-3.81-7.78-.51-1.25-.95-6.01-1.22-6.19-4.49-3.04-7.18,6.95-6.98,9.96-5.11-.52-3.46-6.68-4.43-10.06ZM343.71,488.21c15.74-3.62,18.21,18.89,2.03,15.56-9.33-1.92-10.93-13.51-2.03-15.56ZM345.72,491.15c-5.96,1.65-3.61,10.87,2.53,9.69,6.87-1.32,2.66-11.13-2.53-9.69ZM199.02,486.5c2.46,2.81,6.76,1.06,9.97,1.51,1.06,1.11-.42,16.4,6,15.99l-.99-15.99h10s0-3,0-3c-3.23-1.22-24.97-1.94-24.98,1.49ZM258.98,498.5c-1.57-2.14-3.68-3.19-6.34-2.38-5.43,1.65,3.7,6.86,6.34,2.38ZM348.25,500.84c6.87-1.32,2.66-11.13-2.53-9.69-5.96,1.65-3.61,10.87,2.53,9.69ZM145.54,586.04c-4.28,1.38-2.7,15.5,5.13,15.72,1.8.05,3.05-1.71,4.66-1.56,1.21.11,2.44,1.79,4.01,1.62,2.59-.27,3.76-4.62,7.16-.84,2.84-1.9-.04-4.67-.45-7.55-.24-1.68,2.1-4.53-.63-5.37-5.91-1.82-4.07,6.62-7.42,8.93l-1.1-8.9-4.33-.19c-.83.66-.8,11.98-3.57,9.1-2.2-2.29,2.24-12.8-3.47-10.96ZM232,603c-5.31-1.48-13.66,2.28-17.06-3.43-4.37-7.33,4.02-13.04,11.07-11.56.1-2.36-.84-5.3,1.49-6.98,1.86.67,4.51,3.62,4.51,5.48v16.5ZM221.62,591.06c-6.76,5.75-.03,14.15,4.41,4.44l-4.41-4.44ZM455.75,582.26c2.05,2.15,1.41,16.69,2.25,20.74-6.23-1.38-18.77,2.74-18.51-7.52.17-6.56,7.07-8.73,12.5-6.48l-.94-6.41,2.3-1.45c.76.33,1.85.54,2.4,1.11ZM445.1,599.9c3.09.82,5.27-1.11,6.82-3.55l-4.49-5.31c-3.94.99-3.89,5.8-2.33,8.86ZM114.99,586.01v2.99s11,1.02,11,1.02v1.98c-9.48-4.5-16.93,8.57-4.38,9.95,3.5.38,6.77-1.2,10.38.05,1.31-12.31-4.67-18.62-17-15.99ZM249.75,587.26c2.6,2.44,3.67,9.13-1.47,9.52l-7.27.71c5.89,5.21,8.62.57,13.48-2.48,3.74,2.9-.5,6.36-3.64,7.33-14.99,4.63-22.86-15.36-7.31-16.37,1.78-.12,4.9.07,6.21,1.3ZM242.7,589.16c-1.18.34-1.85,1.56-2.69,2.34,7.54,7.28,9.66-4.37,2.69-2.34ZM410.74,595.76c-1.85,1.52-8.47,1.73-10.73.24-1.83,1.71,4.59,3.92,5.49,3.93,2.03.02,6.57-2.4,6.53-4.92l2.5.96.36,3.39c-7.92,10.52-28.67-3.59-17.83-11.8,8.32-6.3,18.35,4.35,13.69,8.2ZM405.94,589.06l-5.88,1.01c-2.45,3.98,9.4,6.95,5.88-1.01ZM361,589.48c.9-4.6-7.83-12.06-11.99-6.72l-1.07,9.19-5.93,1.55c1.18,3.21,6.1,2,6.88,2.62.89.7.08,8.5,5.11,6.88v-8c2.69-.21,6.02,1.03,7.98-1.5l-8.05-1.93-.93-7.56c3.72-.44,3.15,4.29,4.22,5.75.73.99,3.44,1.45,3.78-.27ZM297.4,585.09c-2.34-4-6.69-5.83-10.41-2.35l-1.05,9.21-5.95,1.54c1.17,3.21,6.1,2,6.88,2.62.65.51,3.93,17.19,5.11-1.12,2.69-.21,6.02,1.03,7.98-1.5l-8.54-2.44-.43-7.06c3.72-.44,3.15,4.29,4.22,5.75,2.06,2.79,5.08.28,2.18-4.66ZM196.03,585.44l-4.11,1.23c.5,2.73,1.11,12.61,3.03,13.87,6.44,4.21,3.91-9.68,10.03-9.53l2.97,10.4c6.03,1.76,2.5-10.35.52-12.39-4.48-4.62-10.69,1.85-11.48.98l-.97-4.56ZM310.5,597.98l-4-10.98c-6.38-4.2-4.46,7.56-1.99,10.99,3,4.15,9.82,5.72,11.99.03,2,2.72,4.13,3.45,7.5,2.98-1.78-4.56-5.82-7.25-5.12-12.86l-4.65.08-3.73,9.77ZM418.94,585.44c-2.68,1.96-.84,16.48,5.04,16.56.66-2.06,2.62-11.64,5.5-10.99l3.48,9.56c4.92,2.95,4.29-1.33,3.38-5.42-1.88-8.4-6.29-9.4-13.33-5.15l-1.03-5-3.04.44ZM177.74,586.23c4.03-.71,7.12-.57,9.49,3.04,5.8,8.87.35,14.53-9.5,12.49-8.95-1.85-9.72-13.83.01-15.53ZM179.73,589.13c-6.71,1.01-6.31,11.26,1.72,9.86,6.1-1.06,2.17-10.45-1.72-9.86ZM368.03,585.44l-3.69,2c1.84,5.87-.06,15.87,8.66,14.57.16-9.4,2.23-11.47,11-8.01-1.24-6.04-8.75-6.14-12.98-2.99l-2.99-5.56ZM262.03,585.45l-3.08,1.21c.79,6.02-.61,16.75,8.05,15.35.16-9.4,2.23-11.47,11-8.01-1.38-6.32-8.45-5.67-12.98-2.99l-2.99-5.55ZM327,600.5l2.5,1.51,2.24-1.47-1.65-17.96-3.09-.59v18.5ZM388.51,590.01c-2.85.63-2.38,13.82,3.48,11.99.4-1.99.05-12.77-3.48-11.99ZM386,582.01l3.51,6.99,2.09-2.06-.74-4.79-4.87-.14ZM226.03,595.5l-4.41-4.44c-6.76,5.75-.03,14.15,4.41,4.44ZM451.92,596.36l-4.49-5.31c-3.94.99-3.89,5.8-2.33,8.86,3.09.82,5.27-1.11,6.82-3.55ZM240.02,591.5c7.54,7.28,9.66-4.37,2.69-2.34-1.18.34-1.85,1.56-2.69,2.34ZM400.06,590.07c-2.45,3.98,9.4,6.95,5.88-1.01l-5.88,1.01ZM181.45,599c6.1-1.06,2.17-10.45-1.72-9.86-6.71,1.01-6.31,11.26,1.72,9.86ZM333,678c10.04-.34,23.05,1.5,12,12.99,3.9.02,5.13,1.77,5.11,5.52-.05,8.57-10.87,7.51-17.11,7.5v-26ZM337,689c10.32.91,11.65-8.85,0-7.01v7.01ZM337,700c12.35,1.72,12.08-9.45,0-8.01v8.01ZM254,704h4c.34-3.39-1.17-12.63,1.99-14.51l5.09-.05.93,14.57h4v-14.5c0-4.45-9.34-4.7-11.99-1.5v-10s-4.01,0-4.01,0v26ZM230,678v4s7,0,7,0v22h5v-22h7s0-4,0-4h-19ZM328,696h-12c-.41,5.94,5.93,5.94,9.98,4l1.01,2.51c-17.13,9.09-23.22-19.51-4.55-16.44,5.41.89,5.92,5.09,5.56,9.94ZM324,694c.66-7.14-6.41-7.54-8.98-1.49,2.15,2.63,6.01,1.2,8.98,1.49ZM305.75,687.26c1.2,1.13,3.14,7.83,2.26,8.74l-13.01.51c.04,1.52,2.41,3.91,3.73,4.3,2.76.83,10.46-2.71,6.84,2.24-2.8,3.82-17.74.46-13.89-11.9,1.79-5.77,10.53-7.24,14.08-3.9ZM304,694c.66-7.14-6.41-7.54-8.98-1.49,2.15,2.63,6.01,1.2,8.98,1.49ZM275,704h4c-.02-4.8-.86-11.8,4.27-14.24,1.41-.67,4.58-.53,4.74-1.26,1.17-5.39-7.27-1.32-9,.51l-.1-2.89-3.91-.12v18ZM337,692v8.01c12.35,1.72,12.08-9.45,0-8.01ZM337,682v7.01c10.32.91,11.66-8.85,0-7.01ZM315.02,692.51c2.15,2.63,6.01,1.2,8.98,1.49.66-7.14-6.41-7.54-8.98-1.49ZM295.02,692.51c2.15,2.63,6.01,1.2,8.98,1.49.66-7.14-6.41-7.54-8.98-1.49Z"/>
</svg>