<?xml version="1.0" encoding="UTF-8"?>
<svg id="_レイヤー_1" data-name="レイヤー 1" xmlns="http://www.w3.org/2000/svg" width="125.84mm" height="296.91mm" viewBox="0 0 356.71 841.63">
  <path d="M138.42,21.4c.79.56,12.27-7.79,14.6-8.87,22.39-10.45,50.04-5.62,67.37,11.88,8.48-22.5,37.97-32.18,57.49-16.97,10.15,7.91,12.83,17.71,11.42,30.37-.41,3.68-4.1,11.94-3.91,14.04.17,1.89,5.32,8.21,6.49,11.59,4.86,14.16-.87,19.76,0,30.51.55,6.79,5.45,16.42,5.56,26.01.08,6.99-3.16,18.76-2.56,25,.27,2.89,6.98,15.54,8.54,19.94,15.5,43.49,17.01,103.09-14.05,139.99-3.33,3.96-10.59,9.23-12.74,13.26-7.11,13.34-7.46,38.04-14.14,52.64,3.77,17.85,3.16,37.86,11.86,54.18,10.02,18.79,17.12,29.08,23.32,50.68,7.34,25.59,6.41,45.67,9.9,71.1,3.72,27.1,11.87,53.5,15.32,80.68,4.59,11.8,12.83,21.64,17.69,33.31,12.53,30.11,9.23,62.44-5.24,91.11,32.55,21.6,27.66,68.03-12.88,76.12-19.08,3.81-34.97-1.36-52.42-8.35-16.43,19.05-38.43,26.05-63.06,19.72-9.39-2.41-21.79-8.33-26.59-16.92l-1.45.02c-21.95,25.85-67.17,25.7-88.23-1.07-18.98,3.7-33.78,10.09-53.66,6.91-42.63-6.82-49.32-53.23-15.57-76.43-14.61-28.96-17.8-61.5-4.92-91.79,4.55-10.69,14.4-22.33,17.38-32.62,2.14-7.42,2.23-15.69,3.77-23.23,4.44-21.72,12.64-47.96,14.58-69.42,2.88-31.89,3.95-53.75,16.96-84.04,5.1-11.88,16.37-25.53,19.87-36.13,2.87-8.67,9.99-58.11,9.04-66.45-.73-6.36-6.24-27.52-9.75-32.24-2.65-3.56-7.88-7.35-11.39-11.61-30.21-36.65-29.06-82.31-17.53-126.32,2.9-11.05,7.55-18.04,6.91-30.07-.76-14.27-4.45-25.84-1.73-40.76.79-4.33,3.5-9.28,3.78-13.28.72-10.44-4.07-16.45-.09-29.03,1.11-3.53,6.92-11.39,6.99-12.91.1-2.26-3.38-10.14-3.81-14.15-4.5-42.62,50.35-50.74,66.9-16.38ZM137.41,31.41c-6.78-17.65-23-30.43-42.57-24.05-13.83,4.51-19.08,16.47-17.19,30.3.57,4.19,4.79,12.51,4.67,15.29-.12,2.63-5.06,6.63-6.49,9.41-3.23,6.3-2.88,14.62-2.4,21.53.22,3.14,2.1,7.29,1.92,9.98-.15,2.16-2.76,6.66-3.46,9.54-3.65,15.08-.31,27.87.5,42.52.75,13.63-2.31,16.65-5.49,28.49-11.99,44.65-15.47,92.73,17.53,129.47,2.71,3.02,6.29,5.03,8.52,7.48,4.05,4.46,10.35,29.12,11.19,35.8.99,7.89-6.41,61.07-9.21,69.28-3.39,9.97-13.8,22.34-18.71,33.29-14.4,32.1-13.92,53.6-17.95,87.05-2.49,20.66-9.17,43-13.4,63.6-1.82,8.87-2.11,18.84-4.53,27.47-2.94,10.47-11.23,19.41-15.82,29.18-14.74,31.37-10.87,65.66,4.8,95.78-33.12,18.75-29.61,65.8,11.6,69.58,19.37,1.78,34.32-4.55,52.78-8.03,18.5,28.61,67.96,27.88,84.72-1.95,4.17,3.33,6.85,8.05,10.97,11.51,18.31,15.41,49.44,15.17,67.48-.54,6.24-5.43,6.44-11.41,15.59-9.53,17.02,3.51,20.83,10.31,42.47,8.59,41.97-3.34,46.1-50.34,12.55-69.64,15.38-30,19.6-63.75,5.1-95.09-4.82-10.42-13.27-19.45-16.34-30.66-2.25-8.23-2.47-17.49-4.16-25.84-6.22-30.81-9.98-52.85-12.69-84.31-3.2-37.06-13.65-58.14-30.39-89.61-9.4-17.67-8.66-38.12-12.69-57.42,6.99-16.34,7.41-39.62,15.04-55.04,2-4.05,10.66-10.72,14.47-15.53,26.77-33.8,25.89-86.87,13.61-126.43-2.02-6.52-10.51-22.94-11-27.08-.93-7.83,2.85-22.49,2.02-32.94-.53-6.66-4.74-14.3-4.97-19.03-.33-6.92,3.06-14.96,1.84-23.84-.98-7.12-6.28-11.21-8.91-17.16,7.61-16.85,8.33-38.71-12.45-45.48-22.12-7.21-36.51,8.84-45.05,27.04-20.42-28.07-60.64-28.39-83.49-2.98ZM202.14,58.77c0,13.11-10.63,23.74-23.74,23.74s-23.74-10.63-23.74-23.74,10.63-23.74,23.74-23.74,23.74,10.63,23.74,23.74ZM196.27,58.8c0-9.88-8.01-17.89-17.89-17.89s-17.89,8.01-17.89,17.89,8.01,17.89,17.89,17.89,17.89-8.01,17.89-17.89Z"/>
</svg>