<?xml version="1.0" encoding="UTF-8"?>
<svg id="_レイヤー_1" data-name="レイヤー 1" xmlns="http://www.w3.org/2000/svg" width="204.61mm" height="305.86mm" viewBox="0 0 580 867">
  <path d="M250.02,36c.79.56,12.27-7.79,14.6-8.87,22.39-10.45,50.04-5.62,67.37,11.88,8.48-22.5,37.97-32.18,57.49-16.97,10.15,7.91,12.83,17.71,11.42,30.37-.41,3.68-4.1,11.94-3.91,14.04.17,1.89,5.32,8.21,6.49,11.59,4.86,14.16-.87,19.76,0,30.51.55,6.79,5.45,16.42,5.56,26.01.08,6.99-3.16,18.76-2.56,25,.27,2.89,6.98,15.54,8.54,19.94,15.5,43.49,17.01,103.09-14.05,139.99-3.33,3.96-10.59,9.23-12.74,13.26-7.11,13.34-7.46,38.04-14.14,52.64,3.77,17.85,3.16,37.86,11.86,54.18,10.02,18.79,17.12,29.08,23.32,50.68,7.34,25.59,6.41,45.67,9.9,71.1,3.72,27.1,11.87,53.5,15.32,80.68,4.59,11.8,12.83,21.64,17.69,33.31,12.53,30.11,9.23,62.44-5.24,91.11,32.55,21.6,27.66,68.03-12.88,76.12-19.08,3.81-34.97-1.36-52.42-8.35-16.43,19.05-38.43,26.05-63.06,19.72-9.39-2.41-21.79-8.33-26.59-16.92l-1.45.02c-21.95,25.85-67.17,25.7-88.23-1.07-18.98,3.7-33.78,10.09-53.66,6.91-42.63-6.82-49.32-53.23-15.57-76.43-14.61-28.96-17.8-61.5-4.92-91.79,4.55-10.69,14.4-22.33,17.38-32.62,2.14-7.42,2.23-15.69,3.77-23.23,4.44-21.72,12.64-47.96,14.58-69.42,2.88-31.89,3.95-53.75,16.96-84.04,5.1-11.88,16.37-25.53,19.87-36.13,2.87-8.67,9.99-58.11,9.04-66.45-.73-6.36-6.24-27.52-9.75-32.24-2.65-3.56-7.88-7.35-11.39-11.61-30.21-36.65-29.06-82.31-17.53-126.32,2.9-11.05,7.55-18.04,6.91-30.07-.76-14.27-4.45-25.84-1.73-40.76.79-4.33,3.5-9.28,3.78-13.28.72-10.44-4.07-16.45-.09-29.03,1.11-3.53,6.92-11.39,6.99-12.91.1-2.26-3.38-10.14-3.81-14.15-4.5-42.62,50.35-50.74,66.9-16.38ZM249.01,46c-6.78-17.65-23-30.43-42.57-24.05-13.83,4.51-19.08,16.47-17.19,30.3.57,4.19,4.79,12.51,4.67,15.29-.12,2.63-5.06,6.63-6.49,9.41-3.23,6.3-2.88,14.62-2.4,21.53.22,3.14,2.1,7.29,1.92,9.98-.15,2.16-2.76,6.66-3.46,9.54-3.65,15.08-.31,27.87.5,42.52.75,13.63-2.31,16.65-5.49,28.49-11.99,44.65-15.47,92.73,17.53,129.47,2.71,3.02,6.29,5.03,8.52,7.48,4.05,4.46,10.35,29.12,11.19,35.8.99,7.89-6.41,61.07-9.21,69.28-3.39,9.97-13.8,22.34-18.71,33.29-14.4,32.1-13.92,53.6-17.95,87.05-2.49,20.66-9.17,43-13.4,63.6-1.82,8.87-2.11,18.84-4.53,27.47-2.94,10.47-11.23,19.41-15.82,29.18-14.74,31.37-10.87,65.66,4.8,95.78-33.12,18.75-29.61,65.8,11.6,69.58,19.37,1.78,34.32-4.55,52.78-8.03,18.5,28.61,67.96,27.88,84.72-1.95,4.17,3.33,6.85,8.05,10.97,11.51,18.31,15.41,49.44,15.17,67.48-.54,6.24-5.43,6.44-11.41,15.59-9.53,17.02,3.51,20.83,10.31,42.47,8.59,41.97-3.34,46.1-50.34,12.55-69.64,15.38-30,19.6-63.75,5.1-95.09-4.82-10.42-13.27-19.45-16.34-30.66-2.25-8.23-2.47-17.49-4.16-25.84-6.22-30.81-9.98-52.85-12.69-84.31-3.2-37.06-13.65-58.14-30.39-89.61-9.4-17.67-8.66-38.12-12.69-57.42,6.99-16.34,7.41-39.62,15.04-55.04,2-4.05,10.66-10.72,14.47-15.53,26.77-33.8,25.89-86.87,13.61-126.43-2.02-6.52-10.51-22.94-11-27.08-.93-7.83,2.85-22.49,2.02-32.94-.53-6.66-4.74-14.3-4.97-19.03-.33-6.92,3.06-14.96,1.84-23.84-.98-7.12-6.28-11.21-8.91-17.16,7.61-16.85,8.33-38.71-12.45-45.48-22.12-7.21-36.51,8.84-45.05,27.04-20.42-28.07-60.64-28.39-83.49-2.98ZM313.74,73.36c0,13.11-10.63,23.74-23.74,23.74s-23.74-10.63-23.74-23.74,10.63-23.74,23.74-23.74,23.74,10.63,23.74,23.74ZM307.88,73.4c0-9.88-8.01-17.89-17.89-17.89s-17.89,8.01-17.89,17.89,8.01,17.89,17.89,17.89,17.89-8.01,17.89-17.89ZM301,230.97l11.99,4.54-9.57,2.42-.34,3.99,8.89,3.58-9.54,3.44c-2.54,7.92,12.48,2.11,13.4-.61,1.37-4.03-1.96-6.53-1.75-7.7.24-1.38,3.52-2.03,2.94-6.08-.37-2.56-3.28-2.96-3.04-5.55l2.88-.09v-3.8c-5.74-1.71-16-1.97-15.88,5.85ZM335,732c5.5,0,18.53-1.7,16.84,7.25-.73,3.89-4.37,2.72-3.84,5.73,13.97,8.49-3.14,15.59-13.01,13.02v-26ZM346.73,736.25l-6.79-.83c-5.55,13.36,12.43,5.51,6.79.83ZM339,746l.94,8.58c5.59,1.33,11-2.11,6.66-7.68l-7.6-.91ZM209.51,639c-5.34,4.15-2.55,15.76,4.35,16.51,1.99.22,3.56-1.34,5.48-1.25,1.37.07,2.91,1.42,4.16,1.37,1.83-.08,4.67-3.71,8.48-1.64-1.94-5.15,1.68-16.37-6.79-11.77l-3.2,8.77-1.45-9.05-4.54-.93c-.84.57.3,9.37-3,9.98-1.68-2.34.35-12.79-3.5-11.99ZM315,298.99l6.99-.99c3.36,7.72-19.82,7.9-22.03,6.53s.6-3.5.65-5.02c.05-1.66-1.74-3.34-1.44-5.79,1.63-13.08,20.02-8.41,15.82,5.27ZM304.65,291.14c-5.53,1.84,3.3,13.57,7.3,2.47-1.54-2.79-4.36-3.11-7.3-2.47ZM299.99,657c-5.29-1.57-16.63,2.55-18.78-4.7-2.64-8.87,5.37-12.65,12.78-10.3-.36-2.82-2.47-5.78.5-7.97,6.45-.32,4.02,18.7,5.5,22.97ZM291.74,646.26c-4.77-4.78-9.29,4.42-4.77,7.3,3.11,1.98,8.18-3.88,4.77-7.3ZM346,703c-5.48-1.76-13.52,2.21-17.49-3.01-5.56-7.31,4.31-15.04,11.48-12v-7s3.87.15,3.87.15c.05,1.44,2.14,4.68,2.14,5.36v16.5ZM333.05,699.97c14.58-1.56,1.35-14.14-.88-6.24-.63,2.23.35,4.19.88,6.24ZM252,758h5.01c.25-5.71-2.35-17.84,6.75-14.77l1.25,14.78h4v-14.5c0-4.7-9.22-5.77-11.99-1.5v-11s-5.01,0-5.01,0v27ZM308.01,599c-2.6,2.19,5.95,3.89,8.98,2.48,2.07-.97,3.7-6.15,7.01-1.96-3.66,12.53-28.01,4.39-20.88-7.91,2.09-3.6,11.2-4.9,14.33-1.56,6.96,7.43-2.46,11.88-9.44,8.95ZM307,594.99c11.73,4.54,7.78-7.09,1.63-2.85-1.18.82-1.98,1.18-1.63,2.85ZM298,695c-4.08,1.42-7.15,3.17-11.49.99-2.59,1.93,4.27,3.88,5.84,3.75,1.47-.12,7.11-3.43,5.65-4.74.24.28,6.67-.22,3.07,4.57-4.37,5.82-18.46,3.37-20.64-3.53-3.2-10.12,10.99-13.83,15.45-8.43,1.96,2.37,1.86,7.09,2.11,7.39ZM293,692.99l-2.6-4.92-5.39,3.44c1.02,1.36,7.39,2.02,7.99,1.49ZM307.05,264.39c.91-6.26,10.03-2.01,10.94-5.93.38-1.61-2.45-3.08-3.73-3.3-5.66-.99-13.35,7.14-10.26,12.83-5.75-.69-3.19-5.17-3.01-8.99-6.62,5.51-4.51,13.79,3.95,15.56,4.45.93,13.91,2.23,11.92-4.44l-9.82-5.73ZM308,650.01c1.25,3.63,7.03,3.84,9.99,2.47,1.8-.83,2.76-4.45,6.01-3.48,1.57,8.79-10.39,9.15-16.36,5.86-5.74-3.17-7.43-11.9-.87-14.59,14.96-6.15,20.8,15.36,1.23,9.74ZM315,647c.77-6.16-3.4-6.13-7-2.48-.68,2.97,5.23,2.69,7,2.48ZM305.99,314c-4.22,2.42-3.27,6.95-.86,10.4.98,1.4,3.61,1.37,2.86,3.08-2.9,6.53-11.99-4.37-6.41-14.4,3.67-6.59,14.05-7.58,15.35.48,2.43,15-13.69,16.81-10.94.44ZM311.5,313.02l-2.45,5.37c.67,2.4,6.02,2.38,5.55-.46l-3.1-4.91ZM289.14,589.86c5.04,1.27,10.67,2.5,11.61,8.46.55,6.52-13.98,9.38-16.23,5.66-.75-1.24-1.44-6.63-1.55-8.44-.17-2.82-.96-15.28,5.11-11.11l1.06,5.43ZM292.78,601.77c3.54-1.96,1.85-9.45-3.77-7.77v8.01c1.21-.11,2.69.36,3.77-.24ZM358,605.98c-.74-3.99,4.34-.96,6.51-.97,1.58,0,2.97-.79,4.48-1.03.54-3.29-4.16-1.45-7.37-3.11-8.14-4.21-3.37-14.03,4.92-13.74,8.76.31,8.09,12.55,6.97,18.88-4.52,3.68-10.57,2-15.51-.03ZM367.75,597.74c2-2.85,1.8-6.89-2.1-7.66-2.14,1.44-4.35,3.35-3.51,6.19l2.51,2.53,3.09-1.07ZM326.5,547.96c-4.86-2.25-2.51-7.35-3.97-9.99-.93-1.68-3.72-1.38-4.36.69-2.34,7.47,5.64,14.06,12.83,12.35-1.66,3.82-5.72,3.67-8.99,1.99-2.71,2.57,11.73,8.74,14.52-1.97,1.1-4.25.2-8.73.48-13.03l-4.89.12c-.51,3.98-2.52,7.35-5.61,9.84ZM262.99,554c-4.55-1.22-18.1,1.89-18.1-5.49,0-5.84,7.19-5.34,11.1-6-4.07-5.16-10.85,1.79-12-4.49,13.33-4.39,19.97,2.86,18.99,15.98ZM257,549.99c1.08-8.04-12.76-2.19-6.32-.17l6.32.17ZM194.99,656c-4.92-1.21-18.96,2.12-18.01-6.46.58-5.24,8.46-4.24,12.01-5.03-2.24-4.24-15.68,1.1-11.55-4.56,1.03-1.41,7.08-1.21,9-.88,7.45,1.27,9.26,10.63,8.55,16.93ZM182,651.99c2.68-.2,6.02,1.01,7.98-1.49-2.34-3.54-8.65-4.09-7.98,1.49ZM288.16,534.7c-.16.66.82,12.08,1.08,13.56.54,3.12,2.1,6.33,5.76,5.73.93-.95-1.77-8.52,1.51-8.01,4.25.66,3.67,9.03,9.49,8.01,1.34-2.31-3.01-9.01-2.96-9.51.1-.92,4.45-1.34,2.96-4.48l-12,2c2.63-5.47-4.14-14.51-5.84-7.3ZM316.92,332.07c.83.51,1.21,5.97,1.11,7.41-.67,9.32-10.31,11.88-18.02,10.52,2.79-4.19.49-6.92,1.04-11.42,1.44-11.66,15.01-3.93,9.95,5.42h1.98s1.02-12,1.02-12l2.91.07ZM307.93,337.04l-2.91-.04c-.54,2.94-1.28,5.09-.02,7.99,4.21-.31,4.39-5.01,2.93-7.95ZM232,692c-.63.62-7.11-1.38-5.99,1.48,1.71,2.66,4.04,2.71,6.97,2.53.43.42-.76,8.8,3.51,6.97,2.34-1,1.54-4.66.75-6.54l.7-.99c12.6-.66,9.17-4.96-.95-4.46v-7.01s2.98.01,2.98.01c-.74,2.33,2.95,8.09,5.02,5.99,4.2-4.26-16.25-20.94-12.99,2.01ZM356,646c-.56.55-7.3-1.28-6,1.48s6.43,2.19,6.87,2.63c.59.59,3.85,17.48,5.11-1.12,2.69-.18,6.02.98,7.99-1.51,1.32-2.7-7.93-2.72-9-2.48-.63-2.1.24-11.05,2.89-6.39,1.44,2.52.76,6.23,5.11,5.38-1.15-13.7-16.11-13.96-12.99,2.01ZM257.96,639.67c-.85,3.41,1.72,19.7,6.99,15.29.5-.42,1.62-11.64,6.04-10.96-1.2,8.03,8.96,18.24,6.76,5.74-2.77-15.76-13.61-5.73-14.74-6.75l-1.02-5-4.03,1.68ZM212,595c-.56.55-7.31-1.28-6,1.48s6.67,2.29,6.93,2.57c.29.31-.33,7.75,3.55,6.94,3.26-.68.19-7.72.52-7.99,11.96.77,12.25-4.75,0-4v-8c4.69.14,2.3,8.2,8,6.99-1.19-13.48-16.23-13.89-12.99,2.01ZM338.02,587.44c-4.84-2.25-2.85,10.34-1.95,12.98,3.7,10.81,7.83-4.4,10.44-7.42l3.97,10.01c7.76,4.76,3.15-10.94.53-12.52-4.23-1.71-7.28,0-11,1.51l-1.99-4.56ZM228.52,533.98c-7.47-5.62-4.05,16.69-2.61,18.61,1.03,1.36,2.5,1.59,4.08,1.42l1.49-10.02,3.5-.98,2.49,10.02,4.52.98c.62-8.07-3.71-17.36-12.99-14l-.48-6.02ZM267.27,550.23c4.37,9.65,7.41-6.26,10.25-8.22l3.97,10.01,1.11.89,2.94-.88c1.53-2.18-1.92-10.2-3.52-12.54-4.24-2.54-10.57,1.92-11.01,1.52-4.69-12.51-6.66,2.79-3.74,9.23ZM307.51,684.02l-3.41,2.65c-.35,1.1,1.81,12.89,2.52,13.42,6.39,4.72,5.58-7.92,9.88-10.07,2.08-.03,2.35,15.94,7.29,10.73,4.06-4.28-5.34-21.68-13.78-10.75l-2.5-5.97ZM363,539.51c-1.14,6.15,2.3,14.1,9.51,13.59,3.12-.22,4.41-2.94,4.98-2.95.52,0,4.92,4.34,7.51,2.84-1.53-4.79-5.91-8.49-5-13.99-8.78-2.65-3.57,8.55-9.98,9.99-2.12-2.38-1.54-9.84-2.16-10.84-.79-1.28-4.26-1.87-4.86,1.35ZM373,640c-.98,6.29,1.6,15.67,9.51,15.1,3.16-.23,4.16-2.81,4.98-2.88,1.19-.1,4.83,4.13,7.51,2.78-.7-2.82-2.64-4.93-3.81-7.78-.53-1.28-.87-5.88-1.28-6.11-7.52-4.26-4.35,9.59-9.89,9.89l-2.01-11h-5.01ZM236.76,588.22c10.3-1.49,16.12,12.55,7.99,16.03-14.51,6.21-23.17-13.83-7.99-16.03ZM236.71,592.19c-6.47,1.92-3.07,11.63,3.57,9.64,4.63-1.38,3.17-11.64-3.57-9.64ZM347.75,537.22c7.82-1.31,12.03,4.89,12.1,12.06-11.54,15.74-30.84-8.92-12.1-12.06ZM354.41,546.02c0-2.74-2.22-4.97-4.97-4.97s-4.97,2.22-4.97,4.97,2.22,4.97,4.97,4.97,4.97-2.22,4.97-4.97ZM251.73,641.27c.67.69,3.14,6.23,3.27,7.32,1.31,11.52-21.11,9.19-19.99-2,.7-6.89,12.12-10.04,16.72-5.32ZM247.86,643.14c-9.62-3.21-10.62,10.52-2.44,9.82,6.66-.57,4.15-5.58,2.44-9.82ZM327.72,741.28c1.23,1.23,3.2,7.77,2.28,8.72-3.47.2-7.05-.27-10.52,0-4.41.35-2.89,2.07-.48,4.49,1.99,1.78,8.71-1.42,8.98,1.99-10.05,6.45-21-4.18-14.01-14,2.96-4.16,10.23-4.71,13.74-1.2ZM324.74,743.26c-3.51-3.34-8.99-.16-7.74,4.74l8.04-.46c1.53-.94.65-3.38-.3-4.28ZM306.72,741.28c1.23,1.23,3.2,7.77,2.28,8.72-3.47.2-7.05-.27-10.52,0-4.41.35-2.89,2.07-.48,4.49,1.99,1.78,8.71-1.42,8.98,1.99-10.05,6.45-21-4.18-14.01-14,2.96-4.16,10.23-4.71,13.74-1.2ZM303.74,743.26c-3.33-3.18-7.45-.29-8.71,3.25.14,2.9,14.48,2.26,8.71-3.25ZM221.51,536c-.83-1.09-1.65-1.73-3.04-1.97-2.8-.5-22.6-.23-23.47.98l1.67,2.82,9.33.17c.68.68-1.27,18.65,6,15.5l-1-16.49c.4-.42,12.26,3.1,10.5-1ZM227,732v4s8,0,8,0v22h4v-22h8s0-4,0-4h-20ZM344.97,647.57l2.03-2.06c-3.76-4.87-7.51-3.52-12.43-1.57-2.49-3.68-2.01-5.9-7.57-4.94,1.16,6.31-.06,18.41,8.99,17.01-.36-6.05,2.16-13.21,8.97-8.44ZM255.36,588.12l-4.24,1.46c1.95,5.32.75,16.5,8.84,15.39.63-3.17.84-7.92,3.69-9.89,1.67-2.68,8.02,4.53,8.32.42.34-4.62-10.81-5.01-13.94-2.51l-2.67-4.87ZM300,360.48l10.09,3.93c2.72,3.45-1.28,5.15-1.09,8.08,6.26,1.87,6.1-8.69,3.01-12.48l5.86-2.14c5.06-8.29-19.12-3.69-17.86,2.6ZM249,685c-.14,3.81.84,16.54,5.54,17.04,5.65.59,1.98-7.48,5.44-9.55s8.46,3.45,9.01,0c.73-4.58-11.44-5.1-13.98-1.49.43-4.38-1.63-6.56-6.01-6ZM275,758h4c.37-4.06-1.45-11.37,2.6-13.9,2.45-1.53,6.99-.22,6.41-4.59-.25-1.92-8.01,1.6-8.51,3.49l-.59-2.89-3.91-.11v18ZM397.98,650.52c.35,3.11,1.26,6.11,5.01,5.48l-1-21c-5.66-1.59-4.46,11.6-4.02,15.52ZM311.62,376.12c-1.04.11-5.5.51-4.61,2.37.94,1.95,13.72,3.22,14.84,1.36l.16-3.84c-3.44.11-6.94-.27-10.39.11ZM331.86,594.64l-4.85-1.65c.08,4.4-1.4,12.44,4.99,12l-.14-10.35ZM273.51,690.01c-2.98.94-1.9,13.72,3.49,11.99-.35-2.57,1.79-13.66-3.49-11.99ZM300.01,386.01l24.96,10.53,3.03-.53c-9.3-3.31-18.15-8.25-27.99-10ZM326.1,585.38c.63,2.9,2.44,6.31,5.89,5.61l-1.1-6.88c-1.52.05-5.34-1.27-4.79,1.27ZM272.01,681c-.37,3.08,1.18,8.59,5,6.49l-1.16-6.35-3.85-.14ZM298.89,396.69l17.81,8.89.73-1.46-17.81-8.89-.73,1.46ZM339.94,754.58c5.59,1.33,11-2.11,6.66-7.68l-7.6-.91.94,8.58ZM339.94,735.42c-5.55,13.36,12.43,5.51,6.79.83l-6.79-.83ZM311.95,293.62c-1.54-2.79-4.36-3.11-7.3-2.47-5.53,1.84,3.3,13.57,7.3,2.47ZM286.97,653.55c3.11,1.98,8.18-3.88,4.77-7.3-4.77-4.78-9.29,4.42-4.77,7.3ZM332.16,693.72c-.63,2.23.35,4.19.88,6.24,14.58-1.56,1.35-14.14-.88-6.24ZM308.63,592.13c-1.18.82-1.98,1.18-1.63,2.85,11.73,4.54,7.78-7.09,1.63-2.85ZM290.4,688.07l-5.39,3.44c1.02,1.36,7.39,2.02,7.99,1.49l-2.6-4.92ZM308,644.51c-.68,2.97,5.23,2.69,7,2.48.77-6.16-3.4-6.13-7-2.48ZM309.05,318.39c.67,2.4,6.02,2.38,5.55-.46l-3.1-4.91-2.45,5.37ZM289,594v8.01c1.21-.11,2.69.36,3.77-.24,3.54-1.96,1.85-9.45-3.77-7.77ZM365.65,590.09c-2.14,1.44-4.35,3.35-3.51,6.19l2.51,2.53,3.09-1.07c2-2.85,1.8-6.89-2.1-7.66ZM250.67,549.83l6.32.17c1.08-8.04-12.76-2.19-6.32-.17ZM189.98,650.5c-2.34-3.54-8.65-4.09-7.98,1.49,2.68-.2,6.02,1.01,7.98-1.49ZM305.02,337c-.54,2.94-1.28,5.09-.02,7.99,4.21-.31,4.39-5.01,2.93-7.95l-2.91-.04ZM240.29,601.83c4.63-1.38,3.17-11.64-3.57-9.64s-3.07,11.63,3.57,9.64ZM349.44,541.05c-2.74,0-4.97,2.22-4.97,4.97s2.22,4.97,4.97,4.97,4.97-2.22,4.97-4.97-2.22-4.97-4.97-4.97ZM245.43,652.97c6.66-.57,4.15-5.58,2.44-9.82-9.62-3.21-10.62,10.52-2.44,9.82ZM317,748l8.04-.46c1.53-.94.65-3.38-.3-4.28-3.51-3.34-8.99-.16-7.74,4.74ZM295.02,746.51c.14,2.9,14.48,2.26,8.71-3.25-3.33-3.18-7.45-.29-8.71,3.25ZM240.01,328l.05,8.95,21.96,2.55-21.07,3.94-.51,9.63,21.58,4.43-22,2.51v8.99s35-4,35-4l-.06-11.95-23.96-4.55,23.88-4.64.14-11.87-35-3.99ZM240,411v9h19l-18.79,11.2-.21,9.8h35v-9h-19c2.18-4.18,17.06-8.6,18.51-10.99,1.35-2.22.07-7.29.49-10.01h-35ZM276.29,210.5c0,10.31-8.36,18.67-18.67,18.67s-18.67-8.36-18.67-18.67,8.36-18.67,18.67-18.67,18.67,8.36,18.67,18.67ZM253.73,202.24c-11,2.25-9.73,19.48,7.72,16.7,10.33-1.65,9.8-20.28-7.72-16.7ZM275,159v17.5c0,1.17-3.55,7.43-4.77,8.52-7.33,6.55-22.14,5.16-27.44-3.31-.48-.77-2.79-5.87-2.79-6.21v-16.5h35ZM268,169h-21c-2.69,14.86,23.87,15.59,21,0ZM275,234v18.5c0,.29-2.51,4.61-2.94,5.06-2.12,2.17-7.08,1.91-9.82.78-2.34-.97-2.04-4.69-4.23-5.33-.38,6.88-9.96,9.81-14.57,5.05-.88-.91-3.44-5.73-3.44-6.56v-17.5h35ZM253.75,250.75c1.19-1.23,1.82-5.41.82-6.82l-7.57-.93c-1.97,4.71,2.73,11.94,6.76,7.76ZM262.65,243.15c-4.5,1.47,1.64,13.2,5.43,5.43,2.34-4.8-.76-6.96-5.43-5.43ZM275,296v19.5c0,8.75-16.49,10.79-19.5,1.52-1.26,2.31-14.93,7.62-15.5,6.98l.09-9.9c5.35-1.24,13.45-1.59,11.91-9.1h-12.01s0-9,0-9h35ZM267.79,312.77c.15-1.94,2.19-6.08.26-7.31l-8.61.47c-2.05,5.62,3.22,10.23,8.35,6.84ZM240.01,406l.12-9.37,6.44-2.56-.15-10.19-5.98-1.82-.44-9.06,34.54,10.96-.53,10.56-34.01,11.48ZM267,389.99c-.7-2.36-12.51-4.48-13-3.99v6s13-2.01,13-2.01ZM240,266v23h7.01s.13-12.36.13-12.36c.47-1.59,1.84-1.64,3.35-1.73.96-.06,1.93.02,2.87.22l1.5,1.5.13,11.37h7.01s-.01-13.01-.01-13.01h6.01v14.01h7v-23h-35ZM261.44,218.94c10.33-1.65,9.8-20.28-7.72-16.7-11,2.25-9.73,19.48,7.72,16.7ZM247,169c-2.69,14.86,23.87,15.59,21,0h-21ZM254.57,243.93l-7.57-.93c-1.97,4.71,2.73,11.94,6.76,7.76,1.19-1.23,1.82-5.41.82-6.82ZM268.08,248.58c2.34-4.8-.76-6.96-5.43-5.43s1.64,13.2,5.43,5.43ZM268.05,305.46l-8.61.47c-2.05,5.62,3.22,10.23,8.35,6.84.15-1.94,2.19-6.08.26-7.31ZM254,386v6s13-2.01,13-2.01c-.7-2.36-12.51-4.48-13-3.99Z"/>
</svg>