<?xml version="1.0" encoding="UTF-8"?>
<svg id="_レイヤー_1" data-name="レイヤー 1" xmlns="http://www.w3.org/2000/svg" width="204.61mm" height="305.86mm" viewBox="0 0 580 867">
  <path d="M347.08,81.91c31.84,3.56,59.72,18.52,84.39,38.12,4.68,3.72,10.88,11.15,15.19,13.81,5.05,3.13,12.83,3.61,18.72,6.28,23.05,10.49,46.97,32.27,55.4,56.6,2.48,7.18,2.25,17.21,5.2,22.8,6.57,12.46,27.04,21.08,28.94,36.06,1.33,10.49-1.47,6.28,3.61,16.4,6.47,12.91,9.3,25.4,2.03,39.07-.93,1.75-4.15,4.8-4.22,5.42-.11,1.02,6,15.69,6.93,18.76,8.96,29.48,11.19,61.57-7.85,87.68-2.64,3.62-8.44,8.58-10.18,11.82-4.23,7.88-1.25,16.52-9.34,24.66-2.19,2.2-7.58,4.34-8.8,6.2-1.4,2.13-2.71,8.54-4.24,11.76-4.15,8.74-14.72,21.78-23.88,25.12-5.3,1.93-11.77,1.97-15.95,7.05-1.38,1.67-1.9,7.78-3.15,10.85-1.61,3.95-3.92,6.25-6.76,9.28,6.8,10.33,11.64,20.82,7.37,33.33-.93,2.71-4.23,6.68-4.48,8.6-.3,2.26,1.14,5.79,1.07,8.93-.17,7.83-4.25,16.08-11.09,20.08l10.97,54.96c10.14,15.07,24.28,29.58,15.55,49.45-1.72,3.91-5.86,6.73-6.96,9.04-1.71,3.59-1.62,7.99-4.35,12.65-3.95,6.71-12.89,9.66-12.92,17.01,0,1.58,7.09,13.14,8.44,17.09,8.64,25.26,4.63,57.37-22.04,69.38-13.78,6.2-30.03,6.8-44.98,7.02-16.75,21.56-41.15,25.59-67.18,23.8-19.39-1.33-38.8-8.48-52.15-22.92-9.82,8.72-19.37,15.97-32.35,19.44-28.73,7.67-68.55,6.37-86.71-20.53-32.74,1.32-68.58-6.64-71.34-45.44-1.26-17.68,2.46-33.05,12.63-47.46,1.45-2.06,4.91-3.81,4.49-6.5-.07-.47-6.25-4.16-7.61-5.54-7.49-7.61-5.85-12.8-8.76-21.24-3.17-9.21-6.83-10-5.69-22.29,1.56-16.7,12.88-20.65,17.49-31.5,2.35-5.53,10.5-47.39,10.54-53.57.04-4.97-8.09-9.48-9.59-17.39-.99-5.2.93-13.01.39-15.34-.61-2.61-5.15-6.85-5.85-13.19-1.54-14.02,4.99-20.42,10.8-31.86l-4.42-9.75c-6.55-.89-11.64-3.33-17.29-6.48-2.32-1.3-5.18-4.63-6.81-5.19-13.41-4.57-15.58-2.78-25.78-15.22-6.28-7.66-8.24-18.04-13.02-23.98-2.84-3.52-7.65-5.48-10.66-10.34-4.18-6.77-2.91-14.79-6.38-20.62-1.79-3-7.27-7.65-9.84-11.16-23.68-32.46-14.73-75.18.26-109.27-13.45-12.41-11.37-28.39-2.65-42.95,1.57-2.62,9.47-11.63,9.64-12.4.41-1.77-.38-6.83.44-10.53,3.32-14.88,17.86-17.98,22.45-29.54,2.42-6.1,2.12-14.85,4.77-22.23,8.64-24,32.71-46.09,55.8-56.2,4.84-2.12,10.12-2.55,14.67-4.33,5.86-2.29,13.05-11.1,18.55-15.45,24.69-19.57,52.54-34.58,84.39-38.12-6.11-29.13,9.26-60.19,38.12-69.37,44.98-14.3,85.46,23.82,76.04,69.37ZM339,87.99c9.78-28.25-2.55-60.14-31.74-69.75-43.97-14.48-81.68,27.22-66.26,69.75-33.9-.31-64.76,17.57-90.47,38.04-4.17,3.32-11.11,11.61-15.16,13.84-6.34,3.49-16.3,4.63-24.67,9.33-20.04,11.23-36.86,25.82-45.18,47.82-5.05,13.37-1.45,21.32-12,33-6.54,7.23-15.76,11.02-16.45,22.63-.17,2.77,1.31,5.72.8,7.63-.37,1.41-10.02,12.28-12.03,16.05-5.22,9.82-7.48,20.81.32,30.02,1.66,1.96,5.69,3.48,5.65,5.96-14.24,32.2-25.36,72.72-4.21,104.6,3.52,5.3,9.9,10.05,12.61,15.39,4.81,9.48.62,15.99,10.29,24.71s7.01,9.02,12.68,19.32c4.65,8.44,12.84,19.01,22.55,21.45,2.11.53,4.54-.15,6.57.43,1.6.46,3.5,3.44,5.37,4.63,6.86,4.36,13.08,7.06,21.39,7.61,1.22.87.88,4.46,1.7,6.3.99,2.22,4.82,6.75,5.03,7.94.51,2.99-9.86,16.32-11.11,21.51-1.09,4.54-1.2,10.12.1,14.54.89,3.03,5,6.93,5.25,8.83.28,2.06-1.04,4.54-1.07,6.9-.11,9.51,1.25,16.76,10.92,20.7l-11.83,61.39c-8.16,13.65-19.91,21.55-16.81,39.71.82,4.78,4.61,7.37,5.51,10.49,1.99,6.94.36,10.34,5.73,17.27,2.54,3.29,8.38,6.12,9.28,7.22.31.39,1.94,6.77,1.87,7.29-.16,1.2-3.53,3.58-4.59,5-10.92,14.54-14.63,28.65-13.07,47.01,3.02,35.33,39.58,39.89,68.33,38.45,13.84,22.57,39.76,26.45,64.2,24.01,20.11-2.01,38.92-9.13,51.04-25.99,2.02-.49,5.25,5.47,6.92,7.05,27.36,25.77,87.45,28.88,110.23-4.86,26.22.39,59.55-1.57,66.66-32.34,3.81-16.5.64-31.83-7.15-46.54-1.74-3.29-4.51-3.95-4.17-8.69.07-.99,2.48-9.22,2.91-9.92,1.15-1.87,8.28-5.14,11.25-10s2.35-9.75,4.38-13.62c1.59-3.03,5.05-4.24,6.91-9.09,6.61-17.3-7.61-29.27-15.78-42.19l-11.5-61.59c6.6-3.2,10.76-9.15,10.87-16.69.05-3.74-1.61-7.64-1.05-10.94.42-2.49,3.42-4.97,4.47-7.57,5.46-13.46-3.07-22.63-9.25-33.51,7.78-5.61,11.81-12.42,10.92-22.33,4.3-.18,8.4-6.55,10.85-7.64,2.27-1.01,5.35-.3,8.05-.95,8.47-2.03,17.93-13.72,21.76-21.24,1.64-3.22,4.81-15.49,5.41-16.09.38-.38,4.42-1.3,6.11-2.39,10.49-6.76,6.86-16.49,11.46-25.54,2.71-5.34,9.09-10.09,12.61-15.39,20.44-30.81,10.81-71.11-3.47-102.34,10.76-6.65,11.82-22.49,7.55-33.55-1.54-4-7.87-11.72-8.29-13.74-.51-2.48,1.51-8.02.58-12.55-2.08-10.04-22.32-21.68-27.99-32.01-3.2-5.84-2.58-12.59-4.09-18.91-6.16-25.9-33.23-50.28-57.44-59.56-4.41-1.69-11.06-2.41-14.63-4.37-4.05-2.23-11-10.52-15.16-13.84-25.7-20.46-56.56-38.34-90.47-38.04ZM313.7,67.69c0,13.09-10.61,23.7-23.7,23.7s-23.7-10.61-23.7-23.7,10.61-23.7,23.7-23.7,23.7,10.61,23.7,23.7ZM307.78,67.64c0-9.82-7.96-17.77-17.77-17.77s-17.77,7.96-17.77,17.77,7.96,17.77,17.77,17.77,17.77-7.96,17.77-17.77ZM211.02,608.47c5.02,3.55,6.17.05,8.5-.11,1-.07,2.53,1.59,4.07,1.67,2.45.13,5.33-3.39,9.41-1.04l-1.95-12.54h-4.11s-3.44,8.54-3.44,8.54l-3.49-9.55c-6.24.14-2.64,6.96-5.51,10.55-3.02-1.72-.7-11.22-1.51-12-7.54-1.98-6.15,11.52-1.97,14.48ZM297.75,590.26c.94,1.11,2.38,19.9,1.78,20.76-1.83,2.64-3.93-.75-5.6-.58-1.55.16-2.75,1.56-5.19,1.35-13.8-1.19-8.37-19.43,5.26-15.81l-.99-6.99c.39-.41,4.07.45,4.75,1.25ZM286.09,607.9c4.05,1.03,8.5-1.36,6.41-5.88-3.16-6.83-9.35.47-6.41,5.88ZM346,656.99c-7.95-1.06-20.32,3.03-18.92-9.43.63-5.58,8.28-6.47,12.92-5.58l-.99-6.99c9.79-.65,4.34,15.38,6.99,21.99ZM334.62,645.05c-3.72,2.11-4.58,7.47-.13,9l5.49-4.56-5.36-4.45ZM295.75,641.26c1.25,1.18,2.95,6.12,1.82,7.78-1.4,2.04-9.25,2.69-11.55.96v1.98c2.24.19,3.85,2.18,6.25,1.85,3.83-.53,5.87-5.74,8.23-4.82,4.8,1.87-1.52,7.12-5.23,7.76-15.78,2.7-21.34-16.04-6.78-16.84,1.96-.11,5.83-.02,7.27,1.34ZM293,646.99l-2.46-4.75-5.52,3.26c2.2,2.38,5.12,2.53,7.98,1.49ZM307,554.01c4.48,5.78,9.94,2.75,14.49-1.03,2.02-.41,1.81,1.07,1.5,2.49-1.88,8.35-20.61,6.37-21.05-4-.47-11.22,18.33-11.2,17.63.52-3.63,3.87-8.01,3-12.56,2.01ZM314,551c.77-6.16-3.4-6.13-7-2.48-.68,2.97,5.23,2.69,7,2.48ZM288.99,546.01c14.88-.72,15.63,15.33-.7,14.67-5.03-.2-5.1-6.85-5.32-11.13-.24-4.54-.91-13.78,5.6-9.61l.43,6.07ZM293.74,550.25c-1.06-1.04-3.26-1.3-4.73-1.25v7.99c3.47.58,7.74-3.79,4.73-6.74ZM357,559.01l11-.03c.78-3.28-3.5-1.58-6.05-2.43-8.59-2.86-5.83-14.65,3.58-14.45,8.07.17,8.56,11.52,7.48,17.39-.99,5.37-13.87,4.51-16-.49ZM364.62,545.06c-3.43,2.37-4.88,6.07-1.01,8.86,5.58-.49,6.25-7.31,1.01-8.86ZM317.75,595.26c2.59,2.44,3.68,9.13-1.47,9.51l-8.27.72c1.87,2.14,4.61,2.9,7.41,2.49,3.6-.53,6.32-6.78,8.56-3.96,3.91,4.91-11.84,11.13-19,3.5-9.11-9.71,6.88-17.8,12.77-12.26ZM308.07,600.92c8.9,4.2,9.72-6.62.52-3.01l-.52,3.01ZM192.66,596.34c3.29,3.3,3.54,10.28,3.34,14.65-6.23-3.18-15.95,2.67-17.97-6.52,1.86-5.42,7.14-5.59,11.97-4.97-3.1-3.53-7.8-2.38-12-2.51v-2.97c4.5-1.33,11.06-1.29,14.66,2.32ZM191,604.02c-3.51-1.38-8.85-3.64-7.93,1.9.71,1.13,9.01,1.94,7.93-1.9ZM277.05,609.55c3-7.93-3.88-19.7-12.55-11.57-8.32-15.96-8.97,12.67.48,12.01.35-1.65,3.28-13.02,6.01-10.99l3.03,10.99,3.03-.44ZM380.5,605.98c-4.02-1.71-2.39-15.14-7.54-11.52-4.17,2.93,2.04,17.94,10.33,15.38,1.43-.44,2.36-2.56,3.35-2.75,1.51-.29,4.67,3.98,7.36,2.9-.58-4.87-5.48-7.2-4.47-12.96l-2.44-1.56-2.85.75-3.73,9.76ZM337.51,542.02c-5.98,0-2.16,15.45-.55,16.51,6.1,3.99,4.45-9.25,10.03-10.54l3.16,10.85,3.85.15c.15-11.2-3.15-17.75-14.99-12l-1.5-4.98ZM306.49,654.01c5.32,6.16,5.91-9.03,10.5-10,.91,2.48,1.85,12.73,5.5,11.99,4.89-.99-1.75-23.91-11.99-12.01l-1.51-4.99c-7.75-3.29-4.2,13.05-2.5,15.01ZM224.49,547.99c3.26-.61-1.67-8.29-3.73-9.27-7.87-3.74-8.16,4.83-8.19,10.34l-5.56.94c-.08,3.55,4.23,4,6.96,4.03-1.91,4.76,3.67,10.47,4.55,4.99.34-2.12-.69-3.92-.51-6.02l9-1.02c-1.08-3.98-8.26-2.12-9.57-3.91l.59-7.07,6.47,6.99ZM237.77,543.2c9.54-1.32,16,13.35,6.29,16.35-14.73,4.55-21.7-14.22-6.29-16.35ZM235.24,555.75c1.99,2,6.44,1.33,8.32-.75,1.29-2.07-1.3-5.72-2.54-7.52-5.75-3.03-9.44,4.59-5.78,8.27ZM367.33,600.17l-6.89-1.1c-.77-2.31-1.15-5.37,1.06-7.05,1.05,0,5.29,10.45,6.5,5.47,1.29-5.35-6.9-11.24-11.79-7.26l-1.32,9.67-5.89,1.12c1.17,3.16,3.95,2.98,6.84,3.14,1.9,10.86,4.85,9.86,6.09-.71l7.06-.44-1.66-2.83ZM242.73,594.24c6.94-1.27,10.48,1.44,12.5,8.06s-5.96,9.47-11.31,8.27c-9.98-2.25-11.14-14.5-1.2-16.33ZM244.74,597.14c-5.73.8-5.61,11.29,1.62,10.59,6.5-.63,3.43-11.29-1.62-10.59ZM232.6,645.05c-1.16,1.5-6.19.27-5.6,3.94,9.77-.53,4.29,7.96,10.99,8.01v-8s8.01,0,8.01,0v-2.99s-8.99-1.02-8.99-1.02c-.06-2.72-.92-7.17,2.98-6.99.03,1.65,2.61,8.37,5.01,5.99,4.55-4.51-15.33-19.01-12.39,1.05ZM326.95,594.65c.47,5.48.4,17.07,8.02,16.32,1.2-3.79.68-8.68,4.73-10.89l7.3,1.91c-1.79-6.95-8.95-5.24-13.99-2.99l-1.24-4.79-4.82.44ZM252.01,543c-.09,3.74,1.23,16.59,5.51,17.05,5.62.61,1.64-6.91,6.14-9.97,3.17-2.15,7.56,4.52,8.34.4s-11.62-5.51-13.98-1.49c.43-4.38-1.63-6.57-6-6ZM249.97,639.47c-2.05,1.46.84,21.08,7.89,16.38.52-9.05,2.41-11.73,11.13-7.86-.05-7.23-9.62-5.43-13.99-3,.8-2.91-2-7.68-5.03-5.53ZM397,592.5c-.52,2.89-.67,17.77,2.51,18.5,1.67.14,2.22-1.08,2.48-2.5,1.07-5.91-1.86-12.45-.99-18.49-2.4-.29-3.55.02-3.99,2.5ZM276.49,655.99c2.55-.71-.25-8.17.36-10.34l-.79-1.21-3.04-.44c-1.61,2.74-1.17,13.28,3.47,11.98ZM330.5,549l-3.49-1c.25,4.81-1.96,12.32,4.99,11.99l-1.5-10.99ZM275.5,642.98c2.21-1.68,1.84-4.74,1.06-7.04l-4.55-.93c-.4,3.31.98,5.93,3.49,7.97ZM330.56,539.94l-4.56-.93c.31,2.98,1.16,8.08,4.99,7l-.43-6.07ZM392.48,337.02c-1.99-.39-4.41.16-6.48-.02v37h8v-23l13.16,22.84,8.84.16v-37h-8v22c-5.1-2.97-10.72-21.05-15.52-21.98ZM347,337v23.5c0,.34,1.46,5.45,1.78,6.22,4.52,11.15,22.92,11.15,27.44,0,.31-.77,1.78-5.88,1.78-6.22v-23.5h-9v26.5c0,5.38-13,6.51-13-1v-25.5h-9ZM237,374h8v-16h14v16h8v-37h-8.01s-.93,14.56-.93,14.56h-12.13l-.93-14.57h-8.01v37.01ZM309,374h8v-16h14v16h8v-37h-8.01s-.93,14.56-.93,14.56h-12.13l-.93-14.57h-8.01v37.01ZM274.98,348.52c1.23,10.98,18.72,8.49,18.07,15.93-.6,6.8-13.22,2.56-17.04.55l-.88,6.87c8.43,4.58,25.94,5.06,26.84-7.49.97-13.67-18.95-11.22-18.99-17.88,1.39-5.47,11.78-4.29,15.53-1.52l2.5-6.97c-9.71-3.19-27.67-4.13-26.03,10.51ZM226.44,344.98l2.15-6.02c-42.7-17.16-41.57,49.83.39,32.98l-1.99-6.94c-27.01,14.76-29.18-32.39-.54-20.02ZM193,373.99l-8.95-.04c.56-10.12-6.62-8.65-14.15-7.36l-1.99,7.3-8.9.1,12.09-36.89,10.42.88,11.48,36.01ZM180,360c.13-5.5-2.59-10.61-3.5-15.99-1.56,1.79-5.12,15.37-4.51,15.99h8.01ZM176.5,344c-1.56,1.79-5.12,15.37-4.51,15.99h8.01c.13-5.5-2.59-10.61-3.5-15.99ZM425,374v-37h17.5c3.06,0,9.18,5.48,10.7,8.3,3.07,5.68,2.76,16.9-1.2,22.21-1.52,2.04-8.35,6.49-10.51,6.49h-16.5ZM433,368c19.17,2.91,19.77-28.44,0-25v25ZM433,343v25c19.17,2.91,19.77-28.44,0-25ZM125,374v-37h17.5c3.06,0,9.18,5.48,10.7,8.3,3.48,6.45,2.72,18.32-2.67,23.74-1.36,1.37-7.61,4.97-9.03,4.97h-16.5ZM133,368c19.17,2.91,19.77-28.44,0-25v25ZM133,343v25c19.17,2.91,19.77-28.44,0-25ZM292.5,602.03c-3.16-6.83-9.35.47-6.41,5.88,4.05,1.03,8.5-1.36,6.41-5.88ZM334.49,654.06l5.49-4.56-5.36-4.45c-3.72,2.11-4.58,7.47-.13,9ZM290.54,642.24l-5.52,3.26c2.2,2.38,5.12,2.53,7.98,1.49l-2.46-4.75ZM307,548.51c-.68,2.97,5.23,2.69,7,2.48.77-6.16-3.4-6.13-7-2.48ZM289.01,549v7.99c3.47.58,7.74-3.79,4.73-6.74-1.06-1.04-3.26-1.3-4.73-1.25ZM363.61,553.91c5.58-.49,6.25-7.31,1.01-8.86-3.43,2.37-4.88,6.07-1.01,8.86ZM308.58,597.91l-.52,3.01c8.9,4.2,9.72-6.62.52-3.01ZM183.06,605.92c.71,1.13,9.01,1.94,7.93-1.9-3.51-1.38-8.85-3.64-7.93,1.9ZM212.95,275.45c-2.66,3.63-1.01,16.55,5.97,14.47l3.09-10.91c2.59-.3,1.58.02,2.01,1.45,1.4,4.61-.82,8.95,5.97,8.55-.82-1.56,1.74-11.07,3.99-9l1.46,8.05,4.55.94c.58-4.89-.83-14.68-7.54-13.62-1.37.22-2.22,2.92-3.83,2.56s-2.14-3.84-7.13-2.99c-3.12.53-1.36,3.71-4.48,3.05.17-3.18-1.76-5.69-4.06-2.55ZM292,292c-6.43-1.91-12.2,2.64-17.01-3.48-5.95-7.58,3.98-14.35,11-11.52v-7s3.87.15,3.87.15c.05,1.44,2.14,4.68,2.14,5.36v16.5ZM280.69,280.1c-5.57,1.39-1.92,13.22,3.75,6.84,3.08-3.46-.87-7.56-3.75-6.84ZM301,285.01c1.27,3.44,6,3.86,8.99,2.47,2.05-.95,3.75-6.19,7-1.93,1.37,5.86-15.05,8.71-20.54.51-6.14-9.16,8.41-15.44,14.02-10.02,7.19,6.94-2.72,12.16-9.47,8.97ZM300,280.99c12.33,4.46,7.25-7.28,1.3-2.69-.33.25-1.38,2.57-1.3,2.69ZM249.03,287.43c2.45.75,4.67.28,6.97,1.07-2.31,3.29-5.1,2.91-8.48,1.49l-.51,2c14.66,6.92,15.96-5.32,15-16.99l-4.89.12c-.28,2.61-2.58,8.91-5.61,8.92-4.85-1.12-3.38-6.26-3.51-10.04-9.26-1.33-4.52,11.74,1.03,13.43ZM333.69,276.31c2.02,1.87,5.55,12.77,3.33,14.23-5.65-.24-11.63,1.28-16.54-2.52-2.43-7.77,4.81-8.28,10.52-8.52-2.5-4.79-13.95,1.57-11.03-5.04,3.89-1,10.68-.97,13.72,1.84ZM332,284.01c-1.9-.93-8.69-2.11-7.99,1.47.43,2.22,8.73,2.7,7.99-1.47ZM354.31,280.14c1.85.29,4.7,5.36,5.69.37-3.76-4.87-7.51-3.52-12.42-1.57-1.89-.43-1.02-6.45-5.97-4.86-2.84.91.19,11.6,1.19,13.63,1.4,2.83,2.99,3.68,6.21,3.3-.82-2.88,1.95-11.4,5.31-10.87ZM364.5,284.02l2.52-.6c-1.05-3.84,2.45-10.27-.26-13.17-5.3-5.68-4.47,13.07-2.26,13.77ZM369.35,300.49l1.64.51,6.43-20.72-1.64-.51-6.43,20.72ZM390.99,250c-3.08,3.67-6.89,10.44-8.53,14.96-.34.94-1.32,3.25.53,3.03l8-17.99ZM284.45,286.94c3.08-3.46-.87-7.56-3.75-6.84-5.57,1.39-1.92,13.22,3.75,6.84ZM301.3,278.29c-.33.25-1.38,2.57-1.3,2.69,12.33,4.46,7.25-7.28,1.3-2.69ZM324.01,285.48c.43,2.22,8.73,2.7,7.99-1.47-1.9-.93-8.69-2.11-7.99,1.47ZM323.21,500.24c-1.59-3.22,1.05-7.4-3.68-8.24-6.82,6.16,3.08,17.31,10.47,14,.73.7-1.09,3.12-2.03,3.54-2.64,1.19-6.61-2.69-5.96,1.44,13.11,6.04,16.24-5.33,14.86-16.34l-1.48-1.53-3.29-.02c-.64,4.08-5.34,14.3-8.88,7.15ZM256,497.99c-1-3.77-10.2-1.15-11.01-1.99v-2.97c11.98-4.3,22.05,5.59,16.51,16.96-2.02-3.15-4.37-.76-7-.9-14.93-.8-10.42-12.04,1.5-11.1ZM250,504.98c3.18.6,5.65,1.51,7.98-1.48-2.3-2.71-4.87-2.78-7.94-1.44l-.04,2.91ZM288.08,489.63c1.86,4.94-.41,15.05,2.93,18.86.58.66,2.73,1.97,3.52.54l.42-6.37,2.56-1.61c3.21,3.35,2.09,9.05,8.48,7.95,1.29-3.09-3.21-7.5-3.06-9.43.07-1,5.25-1.37,2.08-4.08l-11,2.51c.36-5.07.8-13.9-5.93-8.37ZM266.17,493.66c-1.11,3.51.19,15.31,5.85,14.9,2.44-1.42,1.59-10.76,6.97-10.55,3,21.99,11.44,5.73,3.55-2.04-4.93-4.86-11.16,1.54-11.53,1.04,1.38-4.01-3.57-7.36-4.84-3.34ZM225,504.5c0,1.02,2.56,5.87,4.49,5.49,2.38-.5,1.08-8.88,2.5-11.32,6.84-3.11,2.55,12.72,10.01,11.32.93-8.59-1.97-16.55-11.91-15.09l-2.6-6.9-2.49,1.5v15ZM384,507.48c-7.03-10.78-5.97-22.77-13.5-2.5-3.09-.09-3.52-17.52-8.02-11.01-4.76,6.89,9.05,22.1,13.54,11.03.4-.31,6.01,6.16,7.98,2.48ZM345.71,493.22c6.69-1.53,12.34,1.24,13.26,8.38,1.44,11.2-18.13,9.99-19.82.67-.69-3.78,2.94-8.22,6.55-9.05ZM347.71,496.16c-4.25,1.18-5,7.55-1.05,9.68,2.54.57,5.35.47,6.89-1.85,1.19-2.34-1.23-5.55-2.53-7.52-1.05-.72-2.14-.63-3.31-.31ZM203.63,489.13c-5.42.57-12.3,4.46-3.87,4.61,2.23.04,5.48-1.73,6.79.21.93,5.09-.35,10.68,3.08,15.09l3.36-.05-1-16h10c4.69-4.06-16.69-4.04-18.37-3.87ZM257.98,503.5c-2.3-2.71-4.87-2.78-7.94-1.44l-.04,2.91c3.18.6,5.65,1.51,7.98-1.48ZM346.67,505.84c2.54.57,5.35.47,6.89-1.85,1.19-2.34-1.23-5.55-2.53-7.52-1.05-.72-2.14-.63-3.31-.31-4.25,1.18-5,7.55-1.05,9.68ZM243.56,555.01c1.29-2.07-1.3-5.72-2.54-7.52-5.75-3.03-9.44,4.59-5.78,8.27,1.99,2,6.44,1.33,8.32-.75ZM246.36,607.73c6.5-.63,3.43-11.29-1.62-10.59-5.73.8-5.61,11.29,1.62,10.59ZM333,725c4.96.48,15.5-2.24,16.85,4.74.89,4.62-2.8,4.5-4.84,7.24,5.39.42,7.46,5.87,4.8,10.32-2.47,4.13-12.42,3.77-16.8,3.69v-26ZM344.77,729.24l-6.84-.82-.93,6.57,7.02-.49c1.62-1.49,2.15-3.44.76-5.27ZM345.86,740.14l-8.86-1.15v8.01l8.86-1.15v-5.72ZM251,751h5.01c.43-3.39-1.25-13.13,1.67-15.06,8.7-5.75,5.59,14.36,6.33,15.07h3.99c.17-9.31,1.92-24.69-11.99-17v-10s-5.01,0-5.01,0v27ZM328,743h-13c-.24,6.62,6.37,5.37,10.99,4l-.58,3.09c-7.66,2.97-15.7-.37-15.16-9.34.77-12.75,19.91-11.67,17.75,2.25ZM324,739.99c-.06-7.18-10.18-6.54-8.49.01h8.49ZM307,743h-13c.08,5.8,6.15,5.78,10.42,3.99l1.57,2.51c-4.77,2.37-13.61,2.75-15.54-3.45-5.31-17.04,18.17-19.89,16.55-3.05ZM303,739.99c.68-7.04-10.38-6.62-8.49.01h8.49ZM226,725v3s6.35.16,6.35.16l1.65,1.34v21.5h4v-21.5l1.65-1.34,6.35-.16v-3h-20.01ZM273,751h5.01c-.21-8.55-1.74-14.06,8.01-16.5l-.53-2.51-7.98,3.03-.6-2.88-3.91-.13v19ZM337,739v8.01l8.86-1.15v-5.72l-8.86-1.15ZM337.93,728.43l-.93,6.57,7.02-.49c1.62-1.49,2.15-3.44.76-5.27l-6.84-.82ZM315.51,740.01h8.49c-.06-7.19-10.18-6.55-8.49,0ZM294.51,740.01h8.49c.68-7.05-10.38-6.63-8.49,0Z"/>
</svg>