<?xml version="1.0" encoding="UTF-8"?>
<svg id="_レイヤー_1" data-name="レイヤー 1" xmlns="http://www.w3.org/2000/svg" width="197.53mm" height="300.6mm" viewBox="0 0 559.93 852.08">
  <path d="M337.06,72.42c31.84,3.56,59.72,18.52,84.39,38.12,4.68,3.72,10.88,11.15,15.19,13.81,5.05,3.13,12.83,3.61,18.72,6.28,23.05,10.49,46.97,32.27,55.4,56.6,2.48,7.18,2.25,17.21,5.2,22.8,6.57,12.46,27.04,21.08,28.94,36.06,1.33,10.49-1.47,6.28,3.61,16.4,6.47,12.91,9.3,25.4,2.03,39.07-.93,1.75-4.15,4.8-4.22,5.42-.11,1.02,6,15.69,6.93,18.76,8.96,29.48,11.19,61.57-7.85,87.68-2.64,3.62-8.44,8.58-10.18,11.82-4.23,7.88-1.25,16.52-9.34,24.66-2.19,2.2-7.58,4.34-8.8,6.2-1.4,2.13-2.71,8.54-4.24,11.76-4.15,8.74-14.72,21.78-23.88,25.12-5.3,1.93-11.77,1.97-15.95,7.05-1.38,1.67-1.9,7.78-3.15,10.85-1.61,3.95-3.92,6.25-6.76,9.28,6.8,10.33,11.64,20.82,7.37,33.33-.93,2.71-4.23,6.68-4.48,8.6-.3,2.26,1.14,5.79,1.07,8.93-.17,7.83-4.25,16.08-11.09,20.08l10.97,54.96c10.14,15.07,24.28,29.58,15.55,49.45-1.72,3.91-5.86,6.73-6.96,9.04-1.71,3.59-1.62,7.99-4.35,12.65-3.95,6.71-12.89,9.66-12.92,17.01,0,1.58,7.09,13.14,8.44,17.09,8.64,25.26,4.63,57.37-22.04,69.38-13.78,6.2-30.03,6.8-44.98,7.02-16.75,21.56-41.15,25.59-67.18,23.8-19.39-1.33-38.8-8.48-52.15-22.92-9.82,8.72-19.37,15.97-32.35,19.44-28.73,7.67-68.55,6.37-86.71-20.53-32.74,1.32-68.58-6.64-71.34-45.44-1.26-17.68,2.46-33.05,12.63-47.46,1.45-2.06,4.91-3.81,4.49-6.5-.07-.47-6.25-4.16-7.61-5.54-7.49-7.61-5.85-12.8-8.76-21.24-3.17-9.21-6.83-10-5.69-22.29,1.56-16.7,12.88-20.65,17.49-31.5,2.35-5.53,10.5-47.39,10.54-53.57.04-4.97-8.09-9.48-9.59-17.39-.99-5.2.93-13.01.39-15.34-.61-2.61-5.15-6.85-5.85-13.19-1.54-14.02,4.99-20.42,10.8-31.86l-4.42-9.75c-6.55-.89-11.64-3.33-17.29-6.48-2.32-1.3-5.18-4.63-6.81-5.19-13.41-4.57-15.58-2.78-25.78-15.22-6.28-7.66-8.24-18.04-13.02-23.98-2.84-3.52-7.65-5.48-10.66-10.34-4.18-6.77-2.91-14.79-6.38-20.62-1.79-3-7.27-7.65-9.84-11.16-23.68-32.46-14.73-75.18.26-109.27-13.45-12.41-11.37-28.39-2.65-42.95,1.57-2.62,9.47-11.63,9.64-12.4.41-1.77-.38-6.83.44-10.53,3.32-14.88,17.86-17.98,22.45-29.54,2.42-6.1,2.12-14.85,4.77-22.23,8.64-24,32.71-46.09,55.8-56.2,4.84-2.12,10.12-2.55,14.67-4.33,5.86-2.29,13.05-11.1,18.55-15.45,24.69-19.57,52.54-34.58,84.39-38.12-6.11-29.13,9.26-60.19,38.12-69.37,44.98-14.3,85.46,23.82,76.04,69.37ZM328.99,78.51c9.78-28.25-2.55-60.14-31.74-69.75-43.97-14.48-81.68,27.22-66.26,69.75-33.9-.31-64.76,17.57-90.47,38.04-4.17,3.32-11.11,11.61-15.16,13.84-6.34,3.49-16.3,4.63-24.67,9.33-20.04,11.23-36.86,25.82-45.18,47.82-5.05,13.37-1.45,21.32-12,33-6.54,7.23-15.76,11.02-16.45,22.63-.17,2.77,1.31,5.72.8,7.63-.37,1.41-10.02,12.28-12.03,16.05-5.22,9.82-7.48,20.81.32,30.02,1.66,1.96,5.69,3.48,5.65,5.96-14.24,32.2-25.36,72.72-4.21,104.6,3.52,5.3,9.9,10.05,12.61,15.39,4.81,9.48.62,15.99,10.29,24.71s7.01,9.02,12.68,19.32c4.65,8.44,12.84,19.01,22.55,21.45,2.11.53,4.54-.15,6.57.43,1.6.46,3.5,3.44,5.37,4.63,6.86,4.36,13.08,7.06,21.39,7.61,1.22.87.88,4.46,1.7,6.3.99,2.22,4.82,6.75,5.03,7.94.51,2.99-9.86,16.32-11.11,21.51-1.09,4.54-1.2,10.12.1,14.54.89,3.03,5,6.93,5.25,8.83.28,2.06-1.04,4.54-1.07,6.9-.11,9.51,1.25,16.76,10.92,20.7l-11.83,61.39c-8.16,13.65-19.91,21.55-16.81,39.71.82,4.78,4.61,7.37,5.51,10.49,1.99,6.94.36,10.34,5.73,17.27,2.54,3.29,8.38,6.12,9.28,7.22.31.39,1.94,6.77,1.87,7.29-.16,1.2-3.53,3.58-4.59,5-10.92,14.54-14.63,28.65-13.07,47.01,3.02,35.33,39.58,39.89,68.33,38.45,13.84,22.57,39.76,26.45,64.2,24.01,20.11-2.01,38.92-9.13,51.04-25.99,2.02-.49,5.25,5.47,6.92,7.05,27.36,25.77,87.45,28.88,110.23-4.86,26.22.39,59.55-1.57,66.66-32.34,3.81-16.5.64-31.83-7.15-46.54-1.74-3.29-4.51-3.95-4.17-8.69.07-.99,2.48-9.22,2.91-9.92,1.15-1.87,8.28-5.14,11.25-10s2.35-9.75,4.38-13.62c1.59-3.03,5.05-4.24,6.91-9.09,6.61-17.3-7.61-29.27-15.78-42.19l-11.5-61.59c6.6-3.2,10.76-9.15,10.87-16.69.05-3.74-1.61-7.64-1.05-10.94.42-2.49,3.42-4.97,4.47-7.57,5.46-13.46-3.07-22.63-9.25-33.51,7.78-5.61,11.81-12.42,10.92-22.33,4.3-.18,8.4-6.55,10.85-7.64,2.27-1.01,5.35-.3,8.05-.95,8.47-2.03,17.93-13.72,21.76-21.24,1.64-3.22,4.81-15.49,5.41-16.09.38-.38,4.42-1.3,6.11-2.39,10.49-6.76,6.86-16.49,11.46-25.54,2.71-5.34,9.09-10.09,12.61-15.39,20.44-30.81,10.81-71.11-3.47-102.34,10.76-6.65,11.82-22.49,7.55-33.55-1.54-4-7.87-11.72-8.29-13.74-.51-2.48,1.51-8.02.58-12.55-2.08-10.04-22.32-21.68-27.99-32.01-3.2-5.84-2.58-12.59-4.09-18.91-6.16-25.9-33.23-50.28-57.44-59.56-4.41-1.69-11.06-2.41-14.63-4.37-4.05-2.23-11-10.52-15.16-13.84-25.7-20.46-56.56-38.34-90.47-38.04ZM303.69,58.2c0,13.09-10.61,23.7-23.7,23.7s-23.7-10.61-23.7-23.7,10.61-23.7,23.7-23.7,23.7,10.61,23.7,23.7ZM297.76,58.15c0-9.82-7.96-17.77-17.77-17.77s-17.77,7.96-17.77,17.77,7.96,17.77,17.77,17.77,17.77-7.96,17.77-17.77Z"/>
</svg>