<?xml version="1.0" encoding="UTF-8"?>
<svg id="_レイヤー_1" data-name="レイヤー 1" xmlns="http://www.w3.org/2000/svg" width="197.46mm" height="300.53mm" viewBox="0 0 559.73 851.89">
  <path d="M335.82,67.38c28.72,1.76,56.3,15.44,78.92,32.59,5.95,4.51,18.32,17.54,23.18,19.82s12.07,2.93,17.59,5.41c12.41,5.59,33.75,21.32,41.73,32.27,23.43,32.15,18.39,69.9,30.56,104.44,15.1,42.85,44.77,78.09,25.79,127.74-10.05,26.28-21.88,29.05-41.68,44.32-12.93,9.96-10.86,15.1-16.32,28.68-6.52,16.2-17.23,29.89-34.87,34.34-.14,12.02-7.26,25.02-8.63,36.16-1.03,8.36,4.5,39.77,5.87,50.61,3.96,31.38,14,72.29,9.6,102.85-2.02,14-7.81,26.91-11.45,40.47,6.17,10.76,11.76,20.99,12.76,33.77,3.67,46.63-25.69,58.78-67.05,59.02-15.85,33.2-56.8,36.78-88.75,27.78-14.15-3.99-23.05-11.5-33.6-21.19-18.25,21.81-48.75,27.54-76.02,24.81-19.92-2-36.9-14.46-46.28-31.72-14.21-.18-30.55-1.14-43.39-7.61-31.12-15.69-27.53-59.86-10.23-84.85-6.98-21.69-14.56-42.88-12.72-66.19,7.15-37.61,8.65-77.21,15.3-114.7,2.97-16.76,8.29-33.13,14.68-48.81-23.19,4.7-42.83-6.65-53.38-27.13-4.03-7.82-5.16-16.22-8.42-23.58-6.18-13.97-32.15-23.02-43.61-39.39-32.73-46.74-5.94-91.95,12.59-136.23,15.25-36.43,10.24-79.96,33.99-113.01,8.11-11.29,29.42-27.12,42.15-32.85,5.52-2.48,12.76-3.15,17.59-5.41s17.23-15.31,23.18-19.82c22.62-17.14,50.2-30.83,78.92-32.59-5.38-28.94,12.27-58.25,41.01-65.49,41.29-10.4,78.38,23.58,70.98,65.49ZM328.82,72.38c8.75-29.04-9.02-59.72-38.79-65.7-38.4-7.71-70.36,28.4-59.2,65.7-33.2.91-62.5,16.41-87.9,36.61-5.24,4.17-12.05,12.17-16.96,15.04-5.69,3.32-13.69,3.77-20.19,6.81-7.15,3.35-20.84,12.81-26.97,18.03-36.59,31.16-28.13,82.49-44.81,123.19-16.93,41.3-43.4,80.64-17.35,126,10.07,17.52,19.2,19.89,34.06,30.94s12.57,16.89,19.25,32.75c11.14,26.43,31.85,36.74,59.85,27.65-7.36,19.8-15.3,39.76-18.7,60.79-2.51,15.49-3.32,31.9-5.43,47.57-3.84,28.52-11.97,61.55-7.57,89.85,2.22,14.26,8.65,27.42,12.31,41.29-11.75,14.39-16.9,33.22-13.15,51.55,6.53,31.94,37.62,33.05,64.59,33.41,12.41,31.62,45.24,35.64,75.16,30.25,11.72-2.11,22.35-6.87,31.27-14.73,4.68-4.13,7.37-9.13,12.02-12.97,9.86,15.12,24.55,24.5,42.31,27.7,29.92,5.4,62.76,1.38,75.16-30.25,27.47-.36,58.51-1.55,64.77-34.23,3.45-18.04-1.8-36.61-13.33-50.73,8.21-23.69,15.33-44.3,13.59-69.99-2.12-31.28-9.22-67.89-13.12-99.88-.83-6.78-3.96-17.08-3.94-23.13.02-7.05,5.94-21.39,7.61-29.46.9-4.37,1.66-8.88,1.42-13.38,17.94-4.62,27.85-14.54,34.91-31.3,6.68-15.86,3.77-21.24,19.25-32.75,18.62-13.84,30.09-17.59,39.37-41.63,16.46-42.62-7.34-77.94-22.66-115.31-14.75-35.98-9.54-81.28-34.42-112.58-7.61-9.56-26.85-23.89-38.03-28.98-6.06-2.76-13.46-3.19-18.91-6.09-4.88-2.6-12.38-11.3-17.57-15.43-25.4-20.2-54.71-35.69-87.9-36.61ZM302.91,56.48c0,12.75-10.34,23.09-23.09,23.09s-23.09-10.34-23.09-23.09,10.34-23.09,23.09-23.09,23.09,10.34,23.09,23.09ZM297.07,56.41c0-9.53-7.73-17.25-17.25-17.25s-17.25,7.73-17.25,17.25,7.73,17.25,17.25,17.25,17.25-7.73,17.25-17.25Z"/>
</svg>