<?xml version="1.0" encoding="UTF-8"?>
<svg id="_レイヤー_1" data-name="レイヤー 1" xmlns="http://www.w3.org/2000/svg" width="204.61mm" height="305.86mm" viewBox="0 0 580 867">
  <path d="M346,77c28.72,1.76,56.3,15.44,78.92,32.59,5.95,4.51,18.32,17.54,23.18,19.82s12.07,2.93,17.59,5.41c12.41,5.59,33.75,21.32,41.73,32.27,23.43,32.15,18.39,69.9,30.56,104.44,15.1,42.85,44.77,78.09,25.79,127.74-10.05,26.28-21.88,29.05-41.68,44.32-12.93,9.96-10.86,15.1-16.32,28.68-6.52,16.2-17.23,29.89-34.87,34.34-.14,12.02-7.26,25.02-8.63,36.16-1.03,8.36,4.5,39.77,5.87,50.61,3.96,31.38,14,72.29,9.6,102.85-2.02,14-7.81,26.91-11.45,40.47,6.17,10.76,11.76,20.99,12.76,33.77,3.67,46.63-25.69,58.78-67.05,59.02-15.85,33.2-56.8,36.78-88.75,27.78-14.15-3.99-23.05-11.5-33.6-21.19-18.25,21.81-48.75,27.54-76.02,24.81-19.92-2-36.9-14.46-46.28-31.72-14.21-.18-30.55-1.14-43.39-7.61-31.12-15.69-27.53-59.86-10.23-84.85-6.98-21.69-14.56-42.88-12.72-66.19,7.15-37.61,8.65-77.21,15.3-114.7,2.97-16.76,8.29-33.13,14.68-48.81-23.19,4.7-42.83-6.65-53.38-27.13-4.03-7.82-5.16-16.22-8.42-23.58-6.18-13.97-32.15-23.02-43.61-39.39-32.73-46.74-5.94-91.95,12.59-136.23,15.25-36.43,10.24-79.96,33.99-113.01,8.11-11.29,29.42-27.12,42.15-32.85,5.52-2.48,12.76-3.15,17.59-5.41s17.23-15.31,23.18-19.82c22.62-17.14,50.2-30.83,78.92-32.59-5.38-28.94,12.27-58.25,41.01-65.49,41.29-10.4,78.38,23.58,70.98,65.49ZM339,82c8.75-29.04-9.02-59.72-38.79-65.7-38.4-7.71-70.36,28.4-59.2,65.7-33.2.91-62.5,16.41-87.9,36.61-5.24,4.17-12.05,12.17-16.96,15.04-5.69,3.32-13.69,3.77-20.19,6.81-7.15,3.35-20.84,12.81-26.97,18.03-36.59,31.16-28.13,82.49-44.81,123.19-16.93,41.3-43.4,80.64-17.35,126,10.07,17.52,19.2,19.89,34.06,30.94s12.57,16.89,19.25,32.75c11.14,26.43,31.85,36.74,59.85,27.65-7.36,19.8-15.3,39.76-18.7,60.79-2.51,15.49-3.32,31.9-5.43,47.57-3.84,28.52-11.97,61.55-7.57,89.85,2.22,14.26,8.65,27.42,12.31,41.29-11.75,14.39-16.9,33.22-13.15,51.55,6.53,31.94,37.62,33.05,64.59,33.41,12.41,31.62,45.24,35.64,75.16,30.25,11.72-2.11,22.35-6.87,31.27-14.73,4.68-4.13,7.37-9.13,12.02-12.97,9.86,15.12,24.55,24.5,42.31,27.7,29.92,5.4,62.76,1.38,75.16-30.25,27.47-.36,58.51-1.55,64.77-34.23,3.45-18.04-1.8-36.61-13.33-50.73,8.21-23.69,15.33-44.3,13.59-69.99-2.12-31.28-9.22-67.89-13.12-99.88-.83-6.78-3.96-17.08-3.94-23.13.02-7.05,5.94-21.39,7.61-29.46.9-4.37,1.66-8.88,1.42-13.38,17.94-4.62,27.85-14.54,34.91-31.3,6.68-15.86,3.77-21.24,19.25-32.75,18.62-13.84,30.09-17.59,39.37-41.63,16.46-42.62-7.34-77.94-22.66-115.31-14.75-35.98-9.54-81.28-34.42-112.58-7.61-9.56-26.85-23.89-38.03-28.98-6.06-2.76-13.46-3.19-18.91-6.09-4.88-2.6-12.38-11.3-17.57-15.43-25.4-20.2-54.71-35.69-87.9-36.61ZM313.09,66.1c0,12.75-10.34,23.09-23.09,23.09s-23.09-10.34-23.09-23.09,10.34-23.09,23.09-23.09,23.09,10.34,23.09,23.09ZM307.25,66.03c0-9.53-7.73-17.25-17.25-17.25s-17.25,7.73-17.25,17.25,7.73,17.25,17.25,17.25,17.25-7.73,17.25-17.25ZM213.48,586.02c4.61,3.39,5.6-.33,8.8.14,1.07.16,2.23,1.5,3.23,1.51,1.52.02,5.4-4.14,9.49-1.68-2.65-3.68-2.03-7.69-2-11.99l-5.07.44-2.44,7.57-2.42-7.59c-7.75-5.47-3.56,8.57-6.57,8.57-3.01-1.58-.7-10.22-1.5-10.98-7.77-1.59-6.05,10.68-1.52,14.02ZM300,588.99c-5.11-1.29-16.8,1.96-18.79-4.7-2.36-7.9,4.97-11.39,11.79-10.29v-7c10.02.98,3.79,15.52,6.99,21.99ZM288.62,577.06c-6.76,5.75-.03,14.15,4.41,4.44l-4.41-4.44ZM341.85,612.15c2.18,1.32,3.05,18.65,1.68,20.88-1.48,2.42-3.18-.89-4.84-.84-1.42.04-3,1.61-5.03,1.53-12.77-.48-8.71-19.77,4.33-14.72v-7s3.86.16,3.86.16ZM336.75,628.76c5.65-5.55-9.13-13.12-5.7,1.2.63.56,4.81-.33,5.7-1.2ZM308.01,582c-.49,2.6.49,1.78,2.01,2.48,4.94,2.27,7.16.24,10.49-3.47,4.06.75,2.56,4.35.02,6.02-4.51,2.97-12.28,1.74-15.92-2.14-10.74-11.45,14.12-20.35,14.91-4.84-2.96,3.41-7.53,3.88-11.51,1.96ZM314,575.01c-.99-.95-6.27.46-6.98,2.5,3.34,5.47,9.66.1,6.98-2.5ZM286,627.01c2.03,3.68,6.85,3.8,10,1.47,1.52-1.12,1.82-4.22,3.48-3.47,2.96,1.33,1.66,5.29-1.21,6.77-4.94,2.55-12.94,1.35-16.29-3.25-7.12-9.78,8.24-16.05,13.46-10.47,7.39,7.9-2.57,10.12-9.45,8.96ZM291.94,619.06c-.7-.66-7.63.24-5.93,3.43.81,1.95,4.47,1.96,6.04,1.04,1.07-.63.05-4.32-.11-4.47ZM182.25,585.76c-1.47-1.46-1.42-4.99.03-6.5l9.72-3.25-11-1.02v-2.97c5.16-1.49,11.78-1.38,15.01,3.47,1.4,2.09,4.25,10.52,2.02,12.08-1.44,1.01-13.9.06-15.79-1.81ZM192.92,581.09c-3.25-1.39-5.68-1.82-7.9,1.41l7.99,1.5-.08-2.9ZM377.51,583c-3.23-.79-1.09-14.37-6.55-10.54-3.77,2.65.79,17.28,10.33,14.35,1.43-.44,2.84-2.8,3.21-2.8.49,0,2.29,3.9,5.99,2.98,3.22-.8-1.89-4.68-2.57-6.42-1.65-4.22.35-10.07-6.71-6.35-.91,1.26-.42,9.57-3.7,8.77ZM258.98,573.52c-.61,3.42,2.05,17.52,6.97,13.44.51-.42,2.29-13.49,6.04-9.97.47.45.33,11.83,6,10,.72-10.19-3.57-18.34-13.99-11,1.34-4.6-4.13-7.53-5.03-2.48ZM307.02,615.44l-3.07,1.22c.49,4.93-.75,15.47,6.1,14.93l5.45-10.56c1.39-.02,3.6,15.28,7.03,10.01,1.57-2.41-.7-10.5-2.95-12.11-4.55-3.26-9.92,1.68-10.57,1.08l-1.99-4.56ZM245.49,620.99c2.11-1.53,1.38-1.8.74-3.71-1.75-5.2-6.41-7.95-11.31-4.64l-1.34,9.42-5.57.94c1.21,3.13,4.03,3.2,6.98,3.01l1.03,6.98,3.02-.45.91-7.08,8.04-1.97-8.87-1.61-.12-7.88,6.48,6.99ZM354.01,578l-5.99,1.5c1.75,2.59,4.04,2.76,6.98,2.5-.11,3.59-.89,7.71,3.99,7v-8s8.02,0,8.02,0v-2.99s-8.95-1.06-8.95-1.06c-.22-2.83-.86-7.14,2.93-6.95.58,2.89,1.01,6.84,5.01,5.99-.6-12.9-15.12-12.5-11.99,2.01ZM243.73,572.24c4.91-1.01,7.92-.4,10.68,3.86,9.69,14.95-17.44,15.62-17.45,3.41,0-3.88,3.19-6.52,6.78-7.27ZM248.87,575.13c-8.87-2.07-9.43,11.02-1.43,9.89,5.46-.77,3.23-6.59,1.43-9.89ZM325.96,573.53c-.62,3.77,1.77,16.74,8,14.43,1.42-8.85,1.74-12.05,11.03-7.97.3-6.59-8.99-5.92-12.98-3,.82-4.56-5.13-9.11-6.05-3.47ZM250.05,618.4c-.06,3.28,2.74,15.46,7.43,14.6,2.77-2.75.58-8.46,4.53-10.56,2.8-1.49,5.1,3.14,7.99,1.07-3.22-6.68-8.33-4.3-13.98-2.5l-1.1-4.91c-2.03-.44-4.82-.32-4.86,2.31ZM394,570.5c-.66,3.68-1.13,19.69,5.01,16.99l-1.01-19.5c-2.4-.27-3.55.03-4,2.5ZM273,620.99c-1.62,15.25,8.16,16,3.93.07l-3.93-.07ZM276.56,612.94l-4.56-.93c-1.07,1.02,2.21,7.85,4.99,6.99l-.43-6.06ZM383,358h8v-22l13.16,21.84,8.84.16v-36h-8v22l-13.16-21.84-8.84-.16v36ZM308,322v36h9v-16h13v16h8v-36h-8v14h-13v-14h-9ZM238,322v36h8v-16c4.44.62,10.54-1.56,14,1.5v14.5h8v-36h-8v14h-14v-14h-8ZM346,322v26.5c0,5.91,9.3,10.4,14.54,10.53,5.48.14,14.46-4.4,14.46-10.53v-26.5h-8v25.5c0,3.94-7.68,6.2-10.75,3.24-.17-.17-2.25-4-2.25-4.24v-24.5h-8ZM285.58,321.09c-10.82,1.41-15.17,12.73-5.28,19.1,4.73,3.05,16.61,3.63,11.28,10.9-2.86,2.22-11.54,1.01-14.09-2.07l-2.46,6.92c9.78,4.42,27.2,5.35,26.02-9.5-.87-10.96-17.36-8.8-17.92-15.12-.66-7.43,13.95-2.02,15.23-2.4,1.79-.52,2.24-4.65,1.5-5.8-1.03-1.59-11.88-2.34-14.29-2.03ZM200.23,333.73c-3.86,21.21,12.63,29.83,30.77,22.25l-2.01-5.99c-9.23,4.2-20.67,2.55-21.08-9.49s11.38-15.2,21.08-10.51l2.02-5.98c-9.94-5.79-28.36-3.51-30.77,9.71ZM421,358v-36h17.5c.41,0,4.67,2.03,5.46,2.54,9.84,6.39,9.57,24.51-.25,30.67-.77.48-5.87,2.79-6.21,2.79h-16.5ZM429,352c19.53,3.54,19.4-27.77,0-24v24ZM429,328v24c19.53,3.54,19.4-27.77,0-24ZM129,358v-36h17.5c.62,0,4.33,2.14,5.24,2.76,8.58,5.74,9.67,19.98,3.1,27.59-1.42,1.64-7.6,5.66-9.34,5.66h-16.5ZM137,352c18.89,3.25,19.42-27.82,0-24v24ZM137,328v24c18.89,3.25,19.42-27.82,0-24ZM183.86,322.14l12.14,35.85-8.9-.09-2.73-7.77-11.49.45-2.02,7.29-7.87.12,11.1-35.89,9.76.04ZM183,344l-3.5-14.99-4.5,14.99h8ZM179.5,329l-4.5,14.99h8s-3.5-14.99-3.5-14.99ZM293.03,581.5l-4.41-4.44c-6.76,5.75-.03,14.15,4.41,4.44ZM331.05,629.96c.63.56,4.81-.33,5.7-1.2,5.65-5.55-9.13-13.12-5.7,1.2ZM307.02,577.5c3.34,5.47,9.66.1,6.98-2.5-.99-.95-6.27.46-6.98,2.5ZM286.01,622.49c.81,1.95,4.47,1.96,6.04,1.04,1.07-.63.05-4.32-.11-4.47-.7-.66-7.63.24-5.93,3.43ZM220.04,276.57l4.47-10.56,2.98,8c6.03,3.88,3.29-5.44,7.01-7.99,3.16,3.45.12,10.11,6.49,9.98,2.29-4.39-1.48-15.51-7.28-13.87-1.39.39-2.8,2.85-3.21,2.85-.75,0-2.68-4.36-5.95-4.04l-5.54,4.05v-4.01c-8.95-2.92-5,19.09,1.03,15.57ZM292,278c-5.37-1.76-13.64,2.35-17.06-3.43-4.44-7.5,4.17-13.92,11.05-10.57v-7.99c3.26-.51,6.01,3.88,6.01,6.5v15.5ZM281.64,266.08c-6.22,1.05-2.79,13.64,2.92,6.98,2.89-3.37-.8-7.34-2.92-6.98ZM318.02,262.5l10.97,3c-3.98.87-10.85,1.3-10.02,6.94.96,6.59,12.47,3.38,17.02,4.55,1.61-12.37-5.82-20.15-17.97-14.5ZM249.25,273.25c2.75,1.19,5.23.28,7.75,1.24-2.1,3.55-5.8,1.97-8.99,3,12.59,8.43,16.83-4.45,14.85-15.34l-3.86-.73c-4.38,10.02-10.33,14.63-10-.43-8.74-1.38-4.78,10.08.25,12.25ZM309.75,262.26c1.32,1.24,3.38,6.77,1.28,8.26-3.5,2.77-7.24.78-11.02.97,5.82,6.24,9.12,2.38,14.48-1.49,2.42,1.8,1.73,3.15.09,5.07-5.59,6.58-21.34,1.28-19.4-8.34,1.11-5.52,11.14-7.7,14.57-4.48ZM302.7,264.16c-1.18.34-1.85,1.56-2.69,2.34,7.54,7.28,9.66-4.37,2.69-2.34ZM339,261c.21,3.32,1.22,14.04,3.99,15.51,6.9,3.68,2.99-7.99,8.73-9.41.51-.13,11.62,4.59,5.28-1.6-4.19-4.09-11.37,1.05-11.99.5l-1.15-4.87-4.86-.13ZM363.49,256c-4.27-.99-2.16,12.45-1.48,14.99,3.14,2.86,5.46-14.07,1.48-14.99ZM284.56,273.06c2.89-3.37-.8-7.34-2.92-6.98-6.22,1.05-2.79,13.64,2.92,6.98ZM300.02,266.5c7.54,7.28,9.66-4.37,2.69-2.34-1.18.34-1.85,1.56-2.69,2.34ZM185.02,582.5l7.99,1.5-.08-2.9c-3.25-1.39-5.68-1.82-7.9,1.41ZM320.11,484.39c2.72,2.53,5.44,3.59,8.88,1.61-.27,4.31-4.19,4.7-7.48,2.98l-.51,2c11.12,5.46,14.98-2.14,15.08-12.49.04-3.93-1.1-5.53-5.14-4.05-2.1,3.46-2.61,10.14-7.81,8.42-1.25-18.88-11.52-6.37-3.02,1.53ZM293.55,469.95l-3.05-1.02-2.39,1.64c2.47,6.14-2.31,18.83,6.88,19.42v-7.49c5.13-2.81,4.55,8.51,9.48,7.5,3.59-.74-1.22-7.35-1.29-8.68-.08-1.59,2.51-3.15,1.81-5.32l-10.99,2-.46-8.05ZM247.23,481.21c1.48-2.6,8.29-1.91,10.77-2.7-3.32-4.47-11.55,1.29-11.99-4.49,9.35-3.13,17.09.25,17.91,10.62.67,8.41-2.48,3.87-4.39,3.85-3.07-.04-10.88,2.1-12.35-2.15-.4-1.16-.54-4.09.05-5.12ZM259,484.99c-1.29-3.27-5.61-4.37-7.99-1.47.75,4.2,5.25,2.12,7.99,1.47ZM267,472.99c.19,5.37-1.71,15.97,5.97,15.99,1.18-4.02,1.79-8.97,6.01-10.99l3.03,10.99,3.02-.45c2.39-8.97-3.82-19.2-13.03-10.55l-1.14-4.86-3.87-.14ZM227,486.5c0,1.43,2.99,4.46,4.99,3.5,1.33-3.1-.53-12.06,4.5-11.01l3.45,10.57c6.61,2.5,2.8-9.13.08-12.07-3.63-3.93-6.5-.75-8.07-1.9l-1.44-5.6-3.51-.99v17.5ZM365.05,487.45c6.71,4.22,7.6-1.01,9.43-1.18.56-.05,7.64,4.82,7.5,1.23,0-.25-2.55-2.39-3.19-3.8-.99-2.21-1.65-7.94-3.41-8.6l-3.3-.02c-.62.42-2,12.24-5.07,9.91l-2.02-11c-8.73-1.12-4.93,10.32.05,13.45ZM346.63,473.33c14.68-1,14.08,22.3-2.86,15.4-9.62-3.92-6.2-14.78,2.86-15.4ZM345.7,477.18c-4.5,1.34-3.88,10.59,2.56,9.65,6.27-.92,4.14-11.65-2.56-9.65ZM222.28,471.22c-3.29-1.9-24.22-2.08-24.26,1.28,1.6,3.02,10.19.7,10.98,1.5-.54,2.32.64,14.57,2.62,15.05l3.37-.05-1-15h10c.35-1.72-.43-2.04-1.71-2.78ZM251.01,483.52c.75,4.2,5.25,2.12,7.99,1.47-1.29-3.27-5.61-4.37-7.99-1.47ZM348.27,486.83c6.27-.92,4.14-11.65-2.56-9.65-4.5,1.34-3.88,10.59,2.56,9.65ZM334,699c4.89,0,14.97-1.17,16.6,4.97,1.2,4.52-5.45,6.16-4.59,7.01,1.22,1.21,5.31,1.65,5.74,5.65.97,8.89-12.19,7.58-17.75,7.37v-25ZM345.76,703.24l-6.82-.82-.94,6.58,7.02-.49c1.62-1.49,2.14-3.45.75-5.28ZM346.87,714.13l-8.87-1.13.44,7.07c5.06,2.87,9.89-.03,8.43-5.94ZM255,724h4c-2.29-19.53,10.6-20.35,8.01,0h3.99c.46-9.3,1.21-23.16-11.99-16v-10s-4.01,0-4.01,0v26ZM329,717h-13c.66,1.66,1.57,3.45,3.25,4.28,3.21,1.58,7.41-1.7,8.74,1.23.9,1.98-2.03,1.57-3.18,1.8-19.62,3.88-14.07-24.69.56-17.18,4.14,2.12,3.91,5.71,3.63,9.87ZM325,713.99c.38-2.6-1-4.55-3.55-5.04-3.2-.29-3.91,2.43-5.44,4.55l8.99.49ZM309,717h-13c-1.24,1.1,2.69,4.22,3.97,4.59,4.09,1.21,7.97-3.27,7.03,2.4-7.75,2.21-15.56-.18-15.04-9.46.73-13,19.58-10.75,17.04,2.47ZM305,713.99c.63-4.14-3.55-6.22-7-4.5l-1.98,3.03c-.79,2.96,7.9.89,8.98,1.47ZM230,699v4s8,0,8,0v21h4v-21l7.02-.48.98-3.52h-20ZM276,724h4c-.67-9.11-.4-13.06,9.02-15.5,1.85-5.51-7.78-.28-9.01,1.5v-4.01s-4.01,0-4.01,0v18ZM338,713l.44,7.07c5.06,2.87,9.89-.03,8.43-5.94l-8.87-1.13ZM338.94,702.42l-.94,6.58,7.02-.49c1.62-1.49,2.14-3.45.75-5.28l-6.82-.82ZM321.45,708.96c-3.2-.29-3.91,2.43-5.44,4.55l8.99.49c.38-2.6-1-4.55-3.55-5.04ZM297.99,709.49l-1.98,3.03c-.79,2.96,7.9.89,8.98,1.47.63-4.14-3.55-6.22-7-4.5ZM247.44,585.03c5.46-.77,3.23-6.59,1.43-9.89-8.87-2.07-9.43,11.02-1.43,9.89ZM316.77,524.23c.42.42,1.76,4.06,1.84,4.75.63,5.46-7.89,5.02-11.61,4.51,5.85,6.69,9.45-.43,14.99-1.49l-.62,5.1c-6.24,3.45-16.54,2.97-19.65-4.39-3.82-9.06,11.05-12.51,15.04-8.48ZM314,529.99c-.52-5.21-3.3-5.88-6.99-2.48-.72,2.99,5.45,2.68,6.99,2.48ZM370.83,539.83c-5.24,3.02-10.48,3.12-15.34-.83-1.47-1.66,2.29-1.05,2.99-.98,2.72.27,4.64,1.4,7.51-.04.78-3.29-3.51-1.57-6.05-2.43-7.09-2.4-6.49-12.3,1.62-13.51,10.71-1.59,9.85,10.28,9.26,17.79ZM361.6,525.09c-2.61.87-2.03,7.54-.07,7.91,6.31-.29,5.96-9.87.07-7.91ZM289,525c17.77,1.15,12.11,18.2-4.11,13.42-.55-.76-1.99-15.18-1.71-16.67,1.3-6.92,7.81-3.55,5.82,3.25ZM289.01,536c7.57-.53,7.45-7.51,0-7.99v7.99ZM332.96,524.54c-.55,3.45,1.14,15.88,6.99,13.43l3.16-9.85c4.62-1.58,2.79,5.09,4.99,8.29s4.64,2.08,4.38-1.53c-.69-9.52-5.93-14.77-14.47-7.87,1.38-4.66-4.24-7.47-5.05-2.46ZM216.66,517.96c-2.21.54-1.64,9.11-1.66,11.04-10.5-1.24-5.61,4.13.96,4.03-1.02,9.9,5.65,8.42,4.03-1.04,12.62.56,8.97-4.82-1-3.99,0-2.73-.93-7.17,2.99-7,.58,2.89,1.01,6.84,5.01,5.99.49-6.02-4.16-10.53-10.33-9.03ZM236.71,523.21c15.86-3.65,18.27,18.9,2.03,15.56-9.33-1.92-10.93-13.51-2.03-15.56ZM242.88,526.13c-6.51-1.46-10.38,5.09-4.87,9.4,2.29,1.14,4.81.05,6.55-1.53l-1.68-7.87ZM252.97,524.53c-.58,3.5,2.02,16.94,8,14.44l3.02-9.51,8.01,1.54c.31-6.59-8.99-5.92-12.98-3,.82-4.55-5.11-9.11-6.04-3.47ZM329.81,528.69l-.75-1.25-3.06-.44c-2.21,13.05,7.51,17.95,3.81,1.68ZM329.56,518.94l-4.56-.93c.18,3.1.77,7.85,4.99,6.99l-.43-6.06ZM307,527.51c-.72,2.99,5.45,2.68,6.99,2.48-.52-5.21-3.3-5.88-6.99-2.48ZM361.53,533c6.31-.29,5.96-9.87.07-7.91-2.61.87-2.03,7.54-.07,7.91ZM289.01,528v7.99c7.57-.53,7.45-7.51,0-7.99ZM238.01,535.54c2.29,1.14,4.81.05,6.55-1.53l-1.68-7.87c-6.51-1.46-10.38,5.09-4.87,9.4Z"/>
</svg>