<?xml version="1.0" encoding="UTF-8"?>
<svg id="_レイヤー_1" data-name="レイヤー 1" xmlns="http://www.w3.org/2000/svg" width="204.61mm" height="305.86mm" viewBox="0 0 580 867">
  <path d="M105.5,587c-18.53-1.96-38.97-14.22-49.31-29.69-2.41-3.6-4.98-11.26-6.47-13.04-1.17-1.39-10.38-6.43-13.03-8.46-20.1-15.39-35.14-27.55-32.72-55.35.72-8.29,6.59-20.69,6.1-27.95-.28-4.08-3.42-6.72-4.84-10.24-5.68-14.1-4.28-45.52.51-60.05,6.95-21.09,25.08-33.91,34.45-54.55,26.51-58.4,35.74-177.27,108.05-196.95,4.17-1.13,10.23-1.13,13.53-2.47,2.13-.87,11.12-10.15,14.35-12.65,17.49-13.51,37.05-23.87,58.8-28.7-3.89-22.99,3.67-45.96,23.19-59.32,32.02-21.91,77.36-5.24,86.23,32.59,2.22,9.46,1.88,17.16.78,26.73,18.23,3.94,34.79,11.82,49.81,22.68,5.67,4.1,17.13,15.94,21.81,18.19,4.18,2,12.25,1.79,17.5,3.5,70.87,23.01,78.9,137.26,105.6,196.4,9.78,21.66,28.96,34.57,35.43,57.57,3.86,13.7,4.81,43.9-.48,57.04-1.42,3.52-4.56,6.16-4.84,10.24-.49,7.24,5.42,20.32,6.1,28.95,2.12,26.85-12.69,38.98-32.12,53.95-3.01,2.31-11.97,6.91-13.63,8.86-1.35,1.6-3.89,9.11-6.06,12.45-8.9,13.75-33.11,30.27-49.73,30.27h-17.5c3.18,18.56,4.41,36.55,9.74,54.76,4.68,16.03,12.75,31.03,15.14,47.86,2.79,19.62-2.74,48.79-10.71,67.05-1.4,3.22-7.72,13.27-8.01,15.04-.37,2.31,2.98,9.7,3.57,13.05,6.82,38.25-27.54,52.13-59.83,50.67-25.6,30.31-78.62,27.66-103.88-1.95-3.87-4.54-3.15-9.35-10.52-9.56-2.08-.06-16.01,2.56-17.24,3.35-.69.45-3.9,6.59-5.29,8.21-22.09,25.75-70.64,29.52-95.99,7.03-1.84-1.63-5.05-6.56-5.98-7.02-1.95-.96-15.31-1.02-19.37-1.63-29.12-4.34-44.46-24.84-37.34-54.07.7-2.88,3.9-7.52,3.54-10.05-.33-2.3-4.68-8.02-6-11.07-11.58-26.66-16.45-57.35-8.33-85.67,2.49-8.68,6.66-16.93,9.51-25.49,6.64-19.93,10.56-39.46,11.98-60.52-5.31-.4-11.29.55-16.5,0ZM452.01,580c27.34,7.1,56.41-5.89,70.36-30.13,1.57-2.72,2.04-6.6,4.06-8.94,2.29-2.66,10.9-6.77,14.48-9.52,18.94-14.51,32.61-25.67,29.96-51.79-.86-8.44-5.97-17.96-5.96-26.12,0-7.11,4.48-10.43,6.38-16.7,2.6-8.59,2.45-27.96,1.68-37.29-2.5-30.63-26.47-44.67-38.16-70.84-25.42-56.93-34.68-170.05-101.6-192.4-5.61-1.87-15.05-1.82-19.18-3.82-2.65-1.29-13.68-12.39-17.59-15.41-17.39-13.38-35.75-22.29-57.47-26.54l-.93-.99c9.71-25.2-4.95-54.11-29.8-63.28-40.71-15.01-80.53,22.81-66.26,63.74-26.18,5.51-47.97,17.29-68.48,34.04-2.6,2.12-6.15,7.11-8.6,8.4-4.1,2.16-12.94,2.15-18.15,3.85-66.29,21.58-76.48,136.14-101.6,192.4-12,26.87-35.88,40.08-38.21,71.79-.68,9.25-.84,27.82,1.74,36.34,1.27,4.2,4.6,7.87,5.63,11.37,2.84,9.65-4.41,22.23-5.31,32.35-2.27,25.52,11.57,36.72,30.07,50.9,3.55,2.72,12.24,6.9,14.48,9.52,2.07,2.42,2.52,6.67,4.25,9.75,13.06,23.18,44.49,36.62,70.17,29.32-1.99,21.84-4.95,43.81-11.72,64.77-8.72,26.97-17.46,39.09-14.14,69.6,2.13,19.61,8.2,38.61,18.67,55.28-14.18,28.26-4.19,53.77,27.98,59.07,5.51.91,18.44.46,21.99,1.94,1.71.71,3.66,5.26,5.25,6.83,21.95,21.66,70.13,18.64,89.97-5.01,1.86-2.21,5.2-9,7.04-9.96,2.4-1.24,15.21-3.42,18.47-3.6,12.48-.68,9.35,3.61,15.54,11.55,21.38,27.44,76.84,28.91,97.68-.27,30.01,1.7,64.66-9.19,56.85-46.27-.64-3.05-4.5-10.82-4.36-12.29s6.34-10.49,7.65-13.29c10.73-22.83,15.96-53.99,9.86-78.57-2.83-11.39-8.25-22.11-11.74-33.26-6.71-21.49-9.14-44.19-10.97-66.52ZM312.37,68.95c0,12.36-10.02,22.39-22.39,22.39s-22.39-10.02-22.39-22.39,10.02-22.39,22.39-22.39,22.39,10.02,22.39,22.39ZM307.41,68.9c0-9.61-7.79-17.41-17.41-17.41s-17.41,7.79-17.41,17.41,7.79,17.41,17.41,17.41,17.41-7.79,17.41-17.41ZM215.17,239.66c-.66,2.11-.3,11.08,1.49,12.41,6.58,4.91,5.46-8.1,9.34-10.07.87,4.18.23,10.59,6.01,10,.02-3.3.63-7.46,3.99-9l1.45,8.06,4.55.94c.79-4.77-1.39-14.03-7.42-13.03-1.51.25-2.85,2.12-3.94,1.93-1.51-.27-3.72-5.44-8.23-1.99-1.17.9-.79,3.23-2.39,3.08.8-3.66-3.74-5.89-4.85-2.33ZM292,255c-5.32-2.06-13.25,2.13-16.9-3.6-4.77-7.48,3.8-13.01,10.9-11.4v-7c3.31-1.19,5.99,4.14,5.99,6.5v15.5ZM280.58,243.03c-2.79,2.28-2.78,6.66-.02,8.95,7.09-1.55,7.05-7.75.02-8.95ZM341.74,618.27c2.28,2.78.8,16.25,2.25,20.72-6.88-1.66-18.14,3-18.7-7.65-.36-6.87,7.4-7.87,12.7-7.35l-.96-5.41c.5-2.04,3.64-1.62,4.71-.31ZM332.69,627.11c-5.55,1.4-1.96,13.2,3.78,6.82,2.67-2.96-.79-7.58-3.78-6.82ZM307.01,539c1.79,6.43,10.48,3.77,12.5-1,3.44.17,2.83,4.57.8,6.07-4.47,3.3-13.06,2.04-16.73-2.14-9.96-11.34,14.26-20.17,14.94-4.88-2.94,3.39-7.56,3.89-11.51,1.96ZM312.99,532.01c-.84-.83-6.19.85-6.98,2.49,3.3,5.43,9.67.16,6.98-2.49ZM312,247c.14.16,3.38-.35,4,1.54-1.68,9.14-19.13,6.42-20.8-1.26-1.78-8.2,5.16-10.38,12.11-9.03,5.22,1.01,4.02,8.02,4.69,8.76-4.07,1.54-7.69,2.24-12,1.5,2.99,3.53,11.09,3.93,12-1.5ZM306.99,244.99l-1.98-4.55-5.01,1.56c-.14,3.94,4.23,2.99,6.99,2.98ZM286,632.01c2.99,5.37,9.49,3.46,12.51-1.01,4.83,1.15,1.86,5.53-1.46,6.55-15.35,4.7-23-12.9-10.31-15.3,14.19-2.69,14.66,14.91-.74,9.76ZM291.85,625.15c-9.5-1-6.95,6.66,1.15,3.84l-1.15-3.84ZM355,545.98l.51-2c3.76,1.36,7.88,2.19,10.48-1.49-20.15,1.38-9.59-21.12,1-12.98,2.69,2.07,4.33,13.63,3.49,15.54-2,4.54-11.8,3.02-15.47.92ZM361.66,531.14c-3.17.83-3.71,7.09-1.12,7.85,4.93,1.46,6.64-9.3,1.12-7.85ZM251.97,247.56c-2.84-2.42-2.55-5.29-2.39-8.59l-4.57-.98c-1.45,7.43,4.01,15.61,11.99,12l-2.72,3.87-5.26-.86c-2.56,2.5,11.14,8.17,13.5-1.97.56-2.39,1.34-11.29-.47-12.57-4.11-2.92-5.14,6.19-7.33,8.23-.62.57-1.91,1.29-2.74.87ZM289.05,530.95c15.14,1.33,14.84,15.57-1.46,14.72-5.44-.28-3.94-16.33-3.53-20.61l4.5.88.49,5.01ZM289.01,534c.29,2.96-1.15,6.81,1.49,8.97,6.34-3.2,5.31-7.79-1.49-8.97ZM329,242.99c-1.6-4.17-9.3-.02-10.99-3.51-.86-1.78,1.9-1.79,2.97-2,8.93-1.77,14.41,3.26,14.96,12.15.45,7.23-3.03,2.81-4.44,2.71-.95-.07-2.3,1.58-4.72,1.45-12.63-.67-8.85-12.66,2.23-10.81ZM324.64,246.12c-5.43,1.65,3.7,6.86,6.34,2.38-1.57-2.14-3.68-3.19-6.34-2.38ZM304.94,621.44c-2.7,2.53-.25,18.89,5.12,15.12,1.62-1.14,2.12-10.3,5.43-9.56l3.44,9.4,3.12.14c2.17-9.26-3.49-18.26-13.03-10.55l-1.03-5-3.04.44ZM225.54,526.96c-2.76-3.03-5.09-3.3-8.87-2l-1.79,9.92c-.48.59-6.04.3-4.87,2.6,1.26,2.39,4.72.93,5.85,1.65.69.44,4.07,16.92,5.14-1.14,2.69-.21,6.02,1.03,7.98-1.5l-8.04-1.93c-1.59-1.1-1.55-6.31.57-7.55,2.2,1.17,1.8,4.49,2.72,5.73,2.18,2.94,6.13-.5,1.32-5.79ZM235.18,618.18l-.17,9.81-5.98,1.5c1.03,2.63,5.64,2.17,6.54,3.44.84,1.19-.03,5.64,1.96,6.05,3.77.77,2.07-7.59,2.48-8,2.17-.15,6.83.87,7.99-1.51.96-1.96-2.08-1.57-3.17-1.79-1.94-.4-3.79-.88-5.81-.7.03-2.43-.78-5.29,1.49-6.97,6.14,11.89,9.38,3.35,3.22-1.72-2.35-1.93-6.03-1.5-8.54-.11ZM339.06,543.57l4.45-9.56c1.93-.44,1.46.73,1.94,2,.82,2.21,3.13,13.28,6.06,6.96,3.03-6.52-5.87-17.13-13.5-9.97-7.09-16.62-6.59,15.94,1.04,10.57ZM238.75,529.22c4.77-.79,6.81.22,9.44,4.08,8.95,13.15-12.45,15.52-16.46,6.44-2.23-5.04,2.07-9.7,7.01-10.52ZM244.87,540.87c.83-3.53-1.21-10.09-5.57-8.13-7.39,3.31-1.95,12.82,5.57,8.13ZM253,529c.27,3.49,1.98,20.07,8.08,15.57,1.4-1.03.62-8.49,4.61-9.49l6.3,1.91c-.12-7.28-8.39-5.02-12.99-2.99l-1.15-4.87-4.86-.13ZM341.98,237.44l-3.98.57c1.34,3.48,1.51,16,6.5,16.03,3.78.02,1.55-7.61,5.51-9.57s5.16,3.55,7.98.03c-3.12-4.6-8.84-4.83-12.97-1.5l-3.03-5.56ZM253.49,621c-4.93-1.04-2.09,19.95,5.51,17-.2-2.59.52-8.26,2.99-9.54,3.92-2.03,5.2,3.57,7.99.04-3.32-4.87-8.43-4.39-12.96-1.5l-3.53-6ZM361.51,233.01c-3.5,3.74-.54,9.56-.51,14l2.93-.04c1.61-2.86,2.17-14.91-2.43-13.95ZM274.51,626.01c-2.85.62-2.38,13.82,3.48,11.99-.23-3.86,1.45-10.44-3.48-11.99ZM326.01,533c-1.63,1.21-1.49,13.78,3.98,11.99-.38-4.15,1.98-11.36-3.98-11.99ZM276.49,624.99c2.43-.5,1.03-9.07-2.97-7.98-3.2.87.86,8.42,2.97,7.98ZM325.01,525c-.37,3.08,1.18,8.59,5,6.49l-1.16-6.35-3.85-.14ZM366.35,263.49l1.64.51,6.43-20.72-1.64-.51-6.43,20.72ZM221,323h8v-17c3.53,2.32,7.35,14.9,9.98,16.52,1.95,1.2,5.7.2,8.02.48v-31h-8v17l-9.16-16.84-8.84-.16v31ZM281,304h-14v6.01s7,0,7,0l-.44,6.07c-20.5,5.22-15.02-27.46,4.42-16.06.45-3.42,4.03-5.17-.25-7.24-9.22-4.48-23.74.04-25.5,10.98-2.99,18.71,14.22,21.91,28.76,18.26v-18ZM361,323h8.01s-.01-13.01-.01-13.01h9.43s.57,13.01.57,13.01h8.01v-31.01h-8.01s-.93,11.56-.93,11.56l-9.07.44v-12.01s-7.99,0-7.99,0v31ZM330.94,300.5c-.04,11.05,16.88,8.86,15.05,14.97-2.39,4.46-12.89-1.43-13.98-.46l-.98,5.94c7.27,3.11,23.56,4.66,24.04-6.46s-15.08-9.28-15.11-13.96c-.03-4.36,10.75-2.68,13.03-.52l.99-6.96c-7.16-2.95-23.01-3.26-23.04,7.46ZM194,292v31h21v-6.01s-12.56-.93-12.56-.93l-.44-6.07h12.01s0-6,0-6h-12.01c.04-1.89-.67-5.09,1.64-5.86l11.37-.13v-6.01h-21.01ZM288,292v31h21v-7.01s-13,0-13,0v-24h-8ZM315,323h10v-31h-10v31ZM387,339v31h8v-17l9.16,16.84,8.84.16v-31h-8v17c-6.72-6.22-5.96-20-18-17ZM130.34,366.66c-7.63-7.64-5.19-25.07,6.39-27.43,13.97-2.85,22.56,3.97,21.32,18.33-1.15,13.33-19.33,17.49-27.71,9.1ZM140.74,345.16c-8.32,1.5-9.09,20.31,2.67,18.82,9.85-1.25,8.78-20.89-2.67-18.82ZM194,370h9v-14l8.16,13.84,9.84.15-9.84-15.67,9.84-15.31c-2.69.4-7.83-.87-10.01.47-1.46.9-6.65,12.55-7.48,12.53l-.49-13.02h-9.01v31.01ZM269.5,339c9.24,1.65,10.38,13.86,1.5,17.5,4.25,3.37,4.99,8.82,7,13.49l-8.9-.09c-1.16-3.88-1.22-10.7-6.58-10.93-2.12-.09-1.31.03-1.53,1.51-.27,1.79.38,9.17.01,9.54h-8.01v-31.01c5.01.62,11.76-.84,16.5,0ZM261,353c3.44.2,7.24.52,8.05-3.56-.03-4.76-4.22-4.77-8.05-4.45v8.01ZM295.94,347.5c.03,10.21,15.34,10.14,15.8,13.97.56,4.7-10.51,2.31-13.18.55l-2.53,5.91c6.84,3.85,23.27,5.21,24.03-5.45.9-12.51-15.06-10.08-15.1-14.97l1.7-2.35c3.93-.74,7.83.02,11.33,1.84l.97-6.96c-6.92-1.8-23.05-3.21-23.02,7.46ZM371.9,339.1l10.1,30.89-8.9-.1-1.21-5.79-9.85-.06-1.18,5.82-7.86.13,9.48-30.01,9.41-.88ZM367.99,347c-2.64-.24-1.63-.06-1.98,1.5-.71,3.12-1,6.42-2.01,9.5h5.99s-2-11-2-11ZM226,339v31h21v-6.01s-11.36-.14-11.36-.14c-1.56-.46-1.73-1.83-1.73-3.36,0-.9.07-1.78.52-2.57l11.57-.92v-6.01s-12.01,0-12.01,0c.04-1.9-.67-5.1,1.64-5.86l11.37-.13v-6.01h-21.01ZM340.5,339c16.45,2.74,9.99,25.51-6.5,21v10.01s-8,0-8,0v-31c4.47.51,10.25-.71,14.5,0ZM334,354c10.95,1.85,11.06-10.83,0-9.01v9.01ZM437,339v31h20v-6.01s-12.01.01-12.01.01v-6.43s11.01-.57,11.01-.57v-6.01s-11.01.01-11.01.01v-6.01s12.01.01,12.01.01v-6.01h-20.01ZM121.57,368.04l-1.59-6.04c-22.25,10.45-22.4-25.39,0-15l2.01-5.98c-36.66-14.31-35.48,41.85-.42,27.02ZM178.46,371.03c5.65-.13,13.45-3.03,7.06-8.91-17.24,10.45-22.42-18.78-5.14-17.08,1.67.16,4.78,2.05,5.66,1.53,3.5-2.07,2.3-6.75-2.6-7.51-2.77-.43-8.97-.39-11.7.16-15.14,3.08-14.48,32.31,6.73,31.8ZM464,339v31h21v-6.01c-.87-.89-11.36,1.63-13-1.49v-23.5h-8ZM420,370h9v-31h-9v31ZM143.41,363.98c9.85-1.25,8.78-20.89-2.67-18.82-8.32,1.5-9.09,20.31,2.67,18.82ZM269.04,349.45c-.03-4.76-4.22-4.77-8.05-4.45v8.01c3.44.2,7.24.52,8.05-3.56ZM366.01,348.49c-.71,3.12-1,6.42-2.01,9.5h5.99s-2-11-2-11c-2.64-.24-1.63-.06-1.98,1.5ZM334,345v9.01c10.95,1.85,11.06-10.83,0-9.01ZM280.56,251.97c7.09-1.55,7.05-7.75.02-8.95-2.79,2.28-2.78,6.66-.02,8.95ZM336.47,633.93c2.67-2.96-.79-7.58-3.78-6.82-5.55,1.4-1.96,13.2,3.78,6.82ZM306.02,534.5c3.3,5.43,9.67.16,6.98-2.49-.84-.83-6.19.85-6.98,2.49ZM305.02,240.45l-5.01,1.56c-.14,3.94,4.23,2.99,6.99,2.98l-1.98-4.55ZM293,628.99l-1.15-3.84c-9.5-1-6.95,6.66,1.15,3.84ZM360.54,538.99c4.93,1.46,6.64-9.3,1.12-7.85-3.17.83-3.71,7.09-1.12,7.85ZM290.49,542.98c6.34-3.2,5.31-7.79-1.49-8.97.29,2.96-1.15,6.81,1.49,8.97ZM330.98,248.5c-1.57-2.14-3.68-3.19-6.34-2.38-5.43,1.65,3.7,6.86,6.34,2.38ZM317,479.99c-.4,5-.3,9.26,4.27,12.22l7.72,2.27c-2.43,3.6-5.72,1.12-8.99,2.01,12.92,9.25,16.72-4.34,15-15.5l-4.89.12c-2.74,12.15-9.3,11.78-9.2-1.03l-3.91-.09ZM293.55,476.95l-3.05-1.02-2.39,1.64c1.96,4.77-.47,14.07,2.89,17.91.58.66,2.73,1.97,3.52.54,1.55-1.68-1.24-7.28,1.97-7.04,3.77.66,3.54,8.96,9.49,7l-3.03-8.58,2.03-4.41-10.99,1.99-.46-8.04ZM258,485.99c-3.42-6.09-10.94,1.47-12-4.98,7.67-2.47,15.03-1.46,17.31,7.17.76,2.88,1.78,6.7-.81,8.8-2.02-3.12-4.32-.81-7-.9-14.21-.48-8.78-12.92,2.49-10.09ZM259,491.99c1.67-2.28-5.97-5.64-7.99-1.48-1.31,2.7,6.59,2.69,7.99,1.48ZM227.02,486.49c.2,2.85.64,8.79,3.3,9.71l2.22-.17c1.07-3.76-.59-8.21,2.97-11.01,3.78,1.26,2.73,12.83,6.99,11.97,5.27-1.06-2.15-20.02-10.48-13.99l-1.02-7c-5.42-1.05-4.25,6.55-3.97,10.49ZM267,479.99c.34,5.87-1.4,14.96,5.98,16.01-.39-1.69,4.54-12.13,6-11,6.16,25.28,10.13-.38,2.32-2.81-3.93-1.22-5.94.66-9.3,1.8l-1.16-3.85-3.85-.15ZM345.77,480.2c11.8-1.65,16.31,18.33,1,16.62-11.12-1.25-12.52-15.01-1-16.62ZM349.76,484.21c-2.05-1.46-5.23-.64-6.68,1.38-6,8.36,14.32,12.65,6.68-1.38ZM360.16,481.15c-4.36,7.95,8.02,21.17,12.87,10.85.36-.27,6.46,6.28,7.97,2.48.48-1.21-4.23-3.75-4.03-5.94l-.97-6.54c-8.05-1.95-4.46,5.65-8.49,9.97-2.77-2.88-3.64-7.13-3.51-10.98l-3.83.15ZM224.02,480.52c2.66-1.48-2.41-3.27-3.58-3.45-2.33-.35-21.47-.4-21.45,1.45.68,4.82,8.8.85,10.57,3.43l2.35,13.47,3.09.6v-15l9.02-.48ZM251.01,490.51c-1.31,2.7,6.59,2.69,7.99,1.48,1.67-2.28-5.97-5.64-7.99-1.48ZM343.08,485.6c-6,8.36,14.32,12.65,6.68-1.38-2.05-1.46-5.23-.64-6.68,1.38ZM239.3,532.74c-7.39,3.31-1.95,12.82,5.57,8.13.83-3.53-1.21-10.09-5.57-8.13ZM212.51,578.01c-2.94.87-3.18,14.4,4.08,14.96,2.41.19,3.99-.73,5.91-.78,1.52-.04,3.02,1,4.94.81s4.21-2.61,7.56-1l-1.1-10.35-1.49-1.57-3.46.37-3.93,8.55-1.48-9.03c-8.04-3.54-1.67,8.89-7.53,9.04-1.68-3.79,2.42-11.38-3.5-11ZM306.94,578.45c-9.51,2.98-5.31,17.36,9.58,15.57,8.06-.97,7.43-7.8,3.99-7.01-3.31,4.39-10.11,6.09-13.52,1,17.12,5.81,14.76-14.2-.06-9.56ZM299,595c-5.27-1.86-13.25,2.14-16.9-3.6-4.76-7.48,3.79-13.01,10.9-11.4v-7c2.76-1.17,5.99,3.57,5.99,5.5v16.5ZM288.62,583.06c-6.76,5.75-.03,14.15,4.41,4.44l-4.41-4.44ZM183.28,585.26l9.72-3.25-11-1.02v-2.97c11.66-3.4,17.42,3.02,17.93,14.35-1.34,2.87-3.49.76-5.43.84-5.74.23-15.03.68-11.22-7.95ZM193.92,587.09c-3.25-1.39-5.68-1.82-7.9,1.41l7.99,1.5-.08-2.9ZM265.5,581.98c-8.21-15.52-7,8.29-3.54,10.56,6.44,4.21,3.9-9.68,10.03-9.53-.2,2.19,2.25,12.62,5.99,9.99,3.41-2.39-4.13-21.84-12.49-11.02ZM365.98,580.51c-4.91-11.63-14.96-10.06-12.97,3.5l-5.99,1.5c.95,2.49,6.39,2.15,6.86,2.62.38.38.29,7.59,3.6,6.88s.2-7.71.52-7.99c2.95-.33,6.77,1.16,8.98-1.51l-8.93-2.55c.15-.93-1.09-8.28,1.44-6.95l2.53,5.99,3.96-1.49ZM372.49,578.01c-5.64-1.81-3.61,9.58.15,12.85,6.53,5.67,9.77-.69,10.85-.7.99-.02,5.01,5.47,7.49,1.34-4.42-1.19-4.77-12.02-6.51-12.49-5.86-1.58-3.43,10.13-8.46,9.99-1.61-2.09-1.75-10.42-3.52-10.99ZM243.71,578.21c8.51-1.95,11.66,2.69,13.32,10.25-9.17,16.98-29.43-6.56-13.32-10.25ZM243.25,589.75c2.01,2.01,6.43,1.32,8.33-.75l-2.55-7.54c-4.17-2.61-9.57,4.5-5.78,8.29ZM328.98,577.44l-3.99.57c1.85,5.84.46,16.84,9,15.99-.6-3.45.71-10.57,5.27-9.88,1.98.3,3.67,3.54,5.71.37-3.32-4.87-8.43-4.39-12.96-1.5l-3.04-5.56ZM393,576.5c-.66,3.68-1.13,19.69,5.01,16.99l-1.01-19.49c-2.4-.29-3.55.02-4,2.5ZM293.03,587.5l-4.41-4.44c-6.76,5.75-.03,14.15,4.41,4.44ZM186.02,588.5l7.99,1.5-.08-2.9c-3.25-1.39-5.68-1.82-7.9,1.41ZM251.57,589l-2.55-7.54c-4.17-2.61-9.57,4.5-5.78,8.29,2.01,2.01,6.43,1.32,8.33-.75ZM329,686c4.96.48,15.5-2.24,16.85,4.74.9,4.63-2.8,4.5-4.84,7.25,4.89-.16,7.54,5.39,4.89,9.41-2.85,4.33-12.31,3.65-16.9,3.6v-25ZM334,696c2.93.48,9.75-.73,7.54-5.02-1.74-2.59-4.77-2.05-7.54-1.99v7.01ZM334,707c12.13,1.68,11.23-8.78,0-8.01v8.01ZM251,711h4c-2.48-20.3,10.5-20.24,8.01,0h3.99c.34-9.31,1.39-23.47-11.99-16v-10s-4.01,0-4.01,0v26ZM325,703h-13c-.24,6.62,6.37,5.38,10.99,4.01l-.58,3.09c-9.1,3.3-16.52-1.25-14.2-11.38,2.29-10,18.7-6.68,16.79,4.29ZM321,700.99c.68-7.04-10.38-6.62-8.49.01h8.49ZM305,703h-13c-1.12,8.14,10.03,2.95,10.99,5.52,1.09,2.93-7.71,2.62-9.28,2.27-8.95-2.04-8.39-20.75,5.58-17.56,4.52,1.03,5.84,5.62,5.71,9.77ZM301,700.99c.68-7.04-10.38-6.62-8.49.01h8.49ZM227,686v3s7,0,7,0v22h4v-20.5l1.65-1.34,6.35-.16v-3h-19.01ZM272,711h4c-.45-7.6-.7-13.8,8.02-15.5l-.52-2.51-7.48,3.02-.1-2.89-3.91-.12v18ZM334,699v8.01c12.12,1.68,11.22-8.78,0-8.01ZM341.54,690.98c-1.74-2.59-4.77-2.05-7.54-1.99v7.01c2.93.48,9.75-.73,7.54-5.02ZM312.51,701.01h8.49c.68-7.05-10.38-6.63-8.49,0ZM292.51,701.01h8.49c.68-7.05-10.38-6.63-8.49,0Z"/>
</svg>