<?xml version="1.0" encoding="UTF-8"?>
<svg id="_レイヤー_1" data-name="レイヤー 1" xmlns="http://www.w3.org/2000/svg" width="203.53mm" height="296.16mm" viewBox="0 0 576.93 839.49">
  <path d="M103.98,569.18c-18.53-1.96-38.97-14.22-49.31-29.69-2.41-3.6-4.98-11.26-6.47-13.04-1.17-1.39-10.38-6.43-13.03-8.46C15.06,502.61.03,490.45,2.45,462.65c.72-8.29,6.59-20.69,6.1-27.95-.28-4.08-3.42-6.72-4.84-10.24-5.68-14.1-4.28-45.52.51-60.05,6.95-21.09,25.08-33.91,34.45-54.55,26.51-58.4,35.74-177.27,108.05-196.95,4.17-1.13,10.23-1.13,13.53-2.47,2.13-.87,11.12-10.15,14.35-12.65,17.49-13.51,37.05-23.87,58.8-28.7-3.89-22.99,3.67-45.96,23.19-59.32,32.02-21.91,77.36-5.24,86.23,32.59,2.22,9.46,1.88,17.16.78,26.73,18.23,3.94,34.79,11.82,49.81,22.68,5.67,4.1,17.13,15.94,21.81,18.19,4.18,2,12.25,1.79,17.5,3.5,70.87,23.01,78.9,137.26,105.6,196.4,9.78,21.66,28.96,34.57,35.43,57.57,3.86,13.7,4.81,43.9-.48,57.04-1.42,3.52-4.56,6.16-4.84,10.24-.49,7.24,5.42,20.32,6.1,28.95,2.12,26.85-12.69,38.98-32.12,53.95-3.01,2.31-11.97,6.91-13.63,8.86-1.35,1.6-3.89,9.11-6.06,12.45-8.9,13.75-33.11,30.27-49.73,30.27h-17.5c3.18,18.56,4.41,36.55,9.74,54.76,4.68,16.03,12.75,31.03,15.14,47.86,2.79,19.62-2.74,48.79-10.71,67.05-1.4,3.22-7.72,13.27-8.01,15.04-.37,2.31,2.98,9.7,3.57,13.05,6.82,38.25-27.54,52.13-59.83,50.67-25.6,30.31-78.62,27.66-103.88-1.95-3.87-4.54-3.15-9.35-10.52-9.56-2.08-.06-16.01,2.56-17.24,3.35-.69.45-3.9,6.59-5.29,8.21-22.09,25.75-70.64,29.52-95.99,7.03-1.84-1.63-5.05-6.56-5.98-7.02-1.95-.96-15.31-1.02-19.37-1.63-29.12-4.34-44.46-24.84-37.34-54.07.7-2.88,3.9-7.52,3.54-10.05-.33-2.3-4.68-8.02-6-11.07-11.58-26.66-16.45-57.35-8.33-85.67,2.49-8.68,6.66-16.93,9.51-25.49,6.64-19.93,10.56-39.46,11.98-60.52-5.31-.4-11.29.55-16.5,0ZM450.49,562.19c27.34,7.1,56.41-5.89,70.36-30.13,1.57-2.72,2.04-6.6,4.06-8.94,2.29-2.66,10.9-6.77,14.48-9.52,18.94-14.51,32.61-25.67,29.96-51.79-.86-8.44-5.97-17.96-5.96-26.12,0-7.11,4.48-10.43,6.38-16.7,2.6-8.59,2.45-27.96,1.68-37.29-2.5-30.63-26.47-44.67-38.16-70.84-25.42-56.93-34.68-170.05-101.6-192.4-5.61-1.87-15.05-1.82-19.18-3.82-2.65-1.29-13.68-12.39-17.59-15.41-17.39-13.38-35.75-22.29-57.47-26.54l-.93-.99c9.71-25.2-4.95-54.11-29.8-63.28-40.71-15.01-80.53,22.81-66.26,63.74-26.18,5.51-47.97,17.29-68.48,34.04-2.6,2.12-6.15,7.11-8.6,8.4-4.1,2.16-12.94,2.15-18.15,3.85-66.29,21.58-76.48,136.14-101.6,192.4-12,26.87-35.88,40.08-38.21,71.79-.68,9.25-.84,27.82,1.74,36.34,1.27,4.2,4.6,7.87,5.63,11.37,2.84,9.65-4.41,22.23-5.31,32.35-2.27,25.52,11.57,36.72,30.07,50.9,3.55,2.72,12.24,6.9,14.48,9.52,2.07,2.42,2.52,6.67,4.25,9.75,13.06,23.18,44.49,36.62,70.17,29.32-1.99,21.84-4.95,43.81-11.72,64.77-8.72,26.97-17.46,39.09-14.14,69.6,2.13,19.61,8.2,38.61,18.67,55.28-14.18,28.26-4.19,53.77,27.98,59.07,5.51.91,18.44.46,21.99,1.94,1.71.71,3.66,5.26,5.25,6.83,21.95,21.66,70.13,18.64,89.97-5.01,1.86-2.21,5.2-9,7.04-9.96,2.4-1.24,15.21-3.42,18.47-3.6,12.48-.68,9.35,3.61,15.54,11.55,21.38,27.44,76.84,28.91,97.68-.27,30.01,1.7,64.66-9.19,56.85-46.27-.64-3.05-4.5-10.82-4.36-12.29s6.34-10.49,7.65-13.29c10.73-22.83,15.96-53.99,9.86-78.57-2.83-11.39-8.25-22.11-11.74-33.26-6.71-21.49-9.14-44.19-10.97-66.52ZM310.85,51.14c0,12.36-10.02,22.39-22.39,22.39s-22.39-10.02-22.39-22.39,10.02-22.39,22.39-22.39,22.39,10.02,22.39,22.39ZM305.89,51.08c0-9.61-7.79-17.41-17.41-17.41s-17.41,7.79-17.41,17.41,7.79,17.41,17.41,17.41,17.41-7.79,17.41-17.41Z"/>
</svg>