<?xml version="1.0" encoding="UTF-8"?>
<svg id="_レイヤー_1" data-name="レイヤー 1" xmlns="http://www.w3.org/2000/svg" width="175.05mm" height="298.56mm" viewBox="0 0 496.21 846.3">
  <path d="M190.31,99.72c-8.92-31.38,7.59-65.61,39.22-75.28,48.51-14.83,90.62,29.59,75.81,77.23,4.29.25,9.44,4.65,13.04,1.62,2.7-2.27,10.38-12.81,12.75-16.26,7.17-10.48,12.68-22.54,19.77-33.23,22.87-34.48,71.35-80.19,108.39-34.56,19.33,23.81,26.06,88.71,17.31,117.25-1.91,6.24-7.4,14.08-8.19,19.81-2.65,19.2,9.9,36.98,3.69,55.69-1.61,4.85-4.98,8.81-7.39,13.21,11.85,27.05,21.51,56.38,27.15,85.48,7.09,36.6,7.36,70.59-13.12,102.95-15.02,23.73-38.62,38.31-61.48,53.65,15.87,32.52,29.97,67.89,34.92,104.08,3.97,29.03-1.14,56.25,7.43,84.57,9.99,32.97,26.51,60.7,9.26,95.83-2.55,5.19-14.98,19.42-15.34,20.66-.82,2.79-.62,7.8-1.5,11.5-7.96,33.61-46.62,32.17-74.05,33.95-20.93,38.37-81.92,35.97-107.63,4.32-2.98-3.67-4.26-9.85-9.47-10.53-3.54-.46-16.07-.34-18.85,1.25-2.25,1.28-6.26,9.41-8.73,12.27-24.96,28.89-86.49,29.23-105.63-7.31-25.66-1.79-63.79.3-74.82-29.18-3.2-8.56-.94-16.05-2.73-22.27-.6-2.07-8.6-11.98-10.64-16.36-16.2-34.8.39-62.27,10.14-94.57,7.6-25.19,4.12-46.98,5.72-72.28,2.33-36.87,17.69-76.23,33.75-109.02-23.98-17.49-51.71-31.86-68.98-56.76-40.44-58.33-11.13-132.26,12.23-191.31-2.69-6.99-7.96-12.2-8.9-20.02-2-16.66,6.95-31.66,4.89-49.89-.74-6.54-6.76-15.7-8.72-23.28-7.74-29.9-.86-94.72,21.69-117.74,31.23-31.88,66.01-7.66,89.54,18.52,18.5,20.58,28.59,45.76,45.44,67.52l14.05-1.51ZM199.31,104.71c-6.79-.28-17.55,3.22-23.55,3.06-1.34-.04-1.92-.17-3.02-.98-2.72-2.02-14.21-19.98-16.85-24.15-4.81-7.59-8.66-15.87-13.56-23.44C122.83,29.03,79.09-18.14,44.34,21.25c-19.11,21.66-25.67,84.41-18.31,111.25,2.41,8.79,8.58,16.8,9.26,25.73.89,11.72-2.63,21.43-4.68,32.28-2.69,14.21.09,22.78,9.51,33.51-22.13,56.66-52.73,126.72-18.23,184.62,16.65,27.94,48.87,45.24,75.34,62.68-17.69,36.66-33.64,76.61-35.91,117.91-.7,12.79.79,26.3.03,39.03-2.48,41.59-36.3,78.68-15.22,121.13,2.21,4.45,10.13,13.07,10.93,16.07,1,3.73-.69,6.07-.55,8.75,2.07,39.98,47.73,36.05,76.63,37.67,16.23,41.67,87.8,35.24,103.41-3.91,10.54-3.39,21.78-2.57,32.58-1.09,15.56,40.84,86.54,46.43,104.87,4.82,24.75-1.45,65.09,1.82,72.04-29.74.56-2.54.43-10.31.81-11.3,1.32-3.43,12.71-14.48,15.99-20.91,19.96-39.14-6.93-70.69-13.27-106.81-3.46-19.74-1.03-39.95-2.28-59.72-2.53-40.13-20.92-82.15-37.92-117.91,22.15-15.58,47.82-29.95,62.96-53.07,21.52-32.86,20.12-66.48,12.49-103.54-6.01-29.19-15.3-57.51-27.32-84.69,3.49-5.43,8.8-11.16,9.72-17.89,2.22-16.16-6.99-32.57-4.92-50.92.75-6.62,6.49-14.52,8.51-21.49,8.17-28.22,1.37-94.75-21.01-116-37.45-35.55-80.46,18.66-98.92,48.07-5.03,8.02-8.95,16.84-14.35,24.65-4.86,7.03-11.22,12.96-15.75,20.26-2.88,2.44-9.82-1.48-13.47-2.49-2.12-.59-10.88-1.4-10.99-2.98,14.91-28.42-.8-65.29-31.07-74.96-45.59-14.57-85.36,31.34-65.96,74.45ZM272.56,78.73c0,13.47-10.92,24.39-24.39,24.39s-24.39-10.92-24.39-24.39,10.92-24.39,24.39-24.39,24.39,10.92,24.39,24.39ZM266.39,78.74c0-10.06-8.15-18.21-18.21-18.21s-18.21,8.15-18.21,18.21,8.15,18.21,18.21,18.21,18.21-8.15,18.21-18.21Z"/>
</svg>