<?xml version="1.0" encoding="UTF-8"?>
<svg id="_レイヤー_1" data-name="レイヤー 1" xmlns="http://www.w3.org/2000/svg" width="204.61mm" height="305.86mm" viewBox="0 0 580 867">
  <path d="M232,110.99c-8.92-31.38,7.59-65.61,39.22-75.28,48.51-14.83,90.62,29.59,75.81,77.23,4.29.25,9.44,4.65,13.04,1.62,2.7-2.27,10.38-12.81,12.75-16.26,7.17-10.48,12.68-22.54,19.77-33.23,22.87-34.48,71.35-80.19,108.39-34.56,19.33,23.81,26.06,88.71,17.31,117.25-1.91,6.24-7.4,14.08-8.19,19.81-2.65,19.2,9.9,36.98,3.69,55.69-1.61,4.85-4.98,8.81-7.39,13.21,11.85,27.05,21.51,56.38,27.15,85.48,7.09,36.6,7.36,70.59-13.12,102.95-15.02,23.73-38.62,38.31-61.48,53.65,15.87,32.52,29.97,67.89,34.92,104.08,3.97,29.03-1.14,56.25,7.43,84.57,9.99,32.97,26.51,60.7,9.26,95.83-2.55,5.19-14.98,19.42-15.34,20.66-.82,2.79-.62,7.8-1.5,11.5-7.96,33.61-46.62,32.17-74.05,33.95-20.93,38.37-81.92,35.97-107.63,4.32-2.98-3.67-4.26-9.85-9.47-10.53-3.54-.46-16.07-.34-18.85,1.25-2.25,1.28-6.26,9.41-8.73,12.27-24.96,28.89-86.49,29.23-105.63-7.31-25.66-1.79-63.79.3-74.82-29.18-3.2-8.56-.94-16.05-2.73-22.27-.6-2.07-8.6-11.98-10.64-16.36-16.2-34.8.39-62.27,10.14-94.57,7.6-25.19,4.12-46.98,5.72-72.28,2.33-36.87,17.69-76.23,33.75-109.02-23.98-17.49-51.71-31.86-68.98-56.76-40.44-58.33-11.13-132.26,12.23-191.31-2.69-6.99-7.96-12.2-8.9-20.02-2-16.66,6.95-31.66,4.89-49.89-.74-6.54-6.76-15.7-8.72-23.28-7.74-29.9-.86-94.72,21.69-117.74,31.23-31.88,66.01-7.66,89.54,18.52,18.5,20.58,28.59,45.76,45.44,67.52l14.05-1.51ZM241,115.99c-6.79-.28-17.55,3.22-23.55,3.06-1.34-.04-1.92-.17-3.02-.98-2.72-2.02-14.21-19.98-16.85-24.15-4.81-7.59-8.66-15.87-13.56-23.44-19.5-30.17-63.24-77.34-97.99-37.95-19.11,21.66-25.67,84.41-18.31,111.25,2.41,8.79,8.58,16.8,9.26,25.73.89,11.72-2.63,21.43-4.68,32.28-2.69,14.21.09,22.78,9.51,33.51-22.13,56.66-52.73,126.72-18.23,184.62,16.65,27.94,48.87,45.24,75.34,62.68-17.69,36.66-33.64,76.61-35.91,117.91-.7,12.79.79,26.3.03,39.03-2.48,41.59-36.3,78.68-15.22,121.13,2.21,4.45,10.13,13.07,10.93,16.07,1,3.73-.69,6.07-.55,8.75,2.07,39.98,47.73,36.05,76.63,37.67,16.23,41.67,87.8,35.24,103.41-3.91,10.54-3.39,21.78-2.57,32.58-1.09,15.56,40.84,86.54,46.43,104.87,4.82,24.75-1.45,65.09,1.82,72.04-29.74.56-2.54.43-10.31.81-11.3,1.32-3.43,12.71-14.48,15.99-20.91,19.96-39.14-6.93-70.69-13.27-106.81-3.46-19.74-1.03-39.95-2.28-59.72-2.53-40.13-20.92-82.15-37.92-117.91,22.15-15.58,47.82-29.95,62.96-53.07,21.52-32.86,20.12-66.48,12.49-103.54-6.01-29.19-15.3-57.51-27.32-84.69,3.49-5.43,8.8-11.16,9.72-17.89,2.22-16.16-6.99-32.57-4.92-50.92.75-6.62,6.49-14.52,8.51-21.49,8.17-28.22,1.37-94.75-21.01-116-37.45-35.55-80.46,18.66-98.92,48.07-5.03,8.02-8.95,16.84-14.35,24.65-4.86,7.03-11.22,12.96-15.75,20.26-2.88,2.44-9.82-1.48-13.47-2.49-2.12-.59-10.88-1.4-10.99-2.98,14.91-28.42-.8-65.29-31.07-74.96-45.59-14.57-85.36,31.34-65.96,74.45ZM314.25,90.01c0,13.47-10.92,24.39-24.39,24.39s-24.39-10.92-24.39-24.39,10.92-24.39,24.39-24.39,24.39,10.92,24.39,24.39ZM308.08,90.02c0-10.06-8.15-18.21-18.21-18.21s-18.21,8.15-18.21,18.21,8.15,18.21,18.21,18.21,18.21-8.15,18.21-18.21ZM213,265.5c6.68,3.38,4.12-8.4,8.5-11.5,1.57,2.99.36,7.59,3.11,9.88,4.42,3.69,3.95-7.39,6.88-8.87,1.61,0,2.78,15.11,7.02,9.01,1.7-2.45-.88-11.24-3.52-12.53-4.43-2.16-7.1,1.63-8.37,1.4-1.38-.24-2.04-3.53-6.08-2.94-2.57.38-3.38,3.16-5.55,4.03v-4.01c-7.68-2.47-5.99,13.49-2.01,15.51ZM210.54,600.96c-7.87-2.77-5.98,10.52-2.06,14.06,4.64,4.19,6.44.33,9.03.33s5.23,4.22,8.98-1.13l4.52,1.77-1.08-12.91-5.75.08-2.66,8.84-1.95-9.06c-1.17-1.84-3.98-.43-5.4.2l-1.16,9.85c-4.14-2.04-.59-9.09-2.45-12.03ZM297.76,596.25c.88.83,3.05,21.94,2.24,22.75-2.21.95-4.37-1.49-5.51-1.59-1.48-.12-3.26,1.59-5.75,1.38-14.44-1.24-8.7-20.86,5.26-15.8l-.96-6.42c.45-1.88,3.87-1.13,4.73-.32ZM286.1,614.9c3.23.58,6.23-.8,7.5-3.86l-4.29-4.93-2.34.33c-2.38,2.53-2.31,5.41-.87,8.46ZM292,268c-2.06.71-4.14-1.66-5.5-1.65-1.2.01-2.58,1.69-4.9,1.62-13.9-.37-10.28-19.97,4.4-15.98.85-.84-3.77-9.61,4.11-6.41-.18,1.48,1.89,4.18,1.89,4.91v17.5ZM280.64,255.15c-4,.73-4.36,12.24,2.91,7.9,4.87-2.9.1-8.46-2.91-7.9ZM308.01,559c-1.93,1.88,5.16,4.07,6.42,4,2.97-.17,10.49-9.47,9.62-1.5-.76,6.97-22.19,6.26-22.11-4.99.08-11.15,19.8-11.69,17.96.86-.96,2.81-9.54,3.44-11.89,1.64ZM313.95,551.03c-1.69-.48-6.46,1.34-5.95,3.45,1.91,2.17,4.45,2.35,7,1.51l-1.05-4.96ZM309.01,611c2.18,7.15,10.31,3.65,13.5-1,3.59-.81,4.67,7.78-6.99,8.06-15.87.39-17.43-19.35-1.25-17.84,4.54.43,6.85,4.88,6.63,9.1-1.04,3.31-9.29,3.37-11.89,1.68ZM316,607.99l-2.6-4.92-5.38,3.43c2.36,2.77,4.82,2.67,7.98,1.49ZM289.13,549.86c.43.67,8.94,1.4,11.14,6.42,3.47,7.93-11.98,13-15.72,7.67-2.49-3.54-3.64-24.63,3.52-19.52l1.06,5.43ZM293.75,555.25c-1.05-1.04-3.28-1.3-4.74-1.25-2.22,15.9,8.97,5.41,4.74,1.25ZM359,565.01c3.51-.49,8.24,1.36,10.99-1.53l-6.23-1.71c-13.3-7.48,2.75-20.39,9.83-11.87,1.23,1.48,2.93,14.5,1.94,16.11-2.32,3.75-14.29,3.83-16.53-1.01ZM366.62,550.05l-3.59,5.47c2.24,6.27,6.97,3.12,7.63-2.05l-4.04-3.42ZM301.01,260c.42,4.43,5.63,4.45,8.96,3.43,2.4-.74,5.63-7.3,6.98-2.84,2.35,7.78-16.14,9.56-20.81.79-5.69-10.69,11.03-14.9,15.35-9.37,6.27,8.03-3.81,10.95-10.48,7.99ZM301,256.98l5.35.93c5.46-5.41-5.59-8.43-5.35-.93ZM250.5,260.06c-5.75.02-.76-14.62-8.02-10.09-3.01,7.71,4.67,16.29,12.52,13.03-1.45,4.76-4.25,4.73-8.49,2.98l-.51,2c15.33,7.15,15.82-6.26,14.99-17.99-6.45-2.35-6.05,10.05-10.49,10.07ZM176.27,608.26l10.72-3.25-11.99-1.02.97-3.52c5.83-1.54,12.94-.71,15.8,5.25,1.04,2.17,3.99,12.84-.12,12.13-2.5-2.81-4.93-.68-8.16-.76-5.87-.15-10.45-2.57-7.23-8.84ZM187.99,612.99c-.31-4.21-5.01-4.39-7.95-2.93l-.04,2.91c2.94.54,5.09,1.28,7.99.02ZM331.99,256c.58-2.3-.98-2.4-2.72-2.72-3.16-.58-11.86,1.13-9.2-3.2,1.06-1.73,9.24-1.05,11.51-.15,6.58,2.59,9.51,16.49,5.9,17.08-3.27-2.49-6.15-.71-10.01-.95-13.46-.82-5.35-14.99,4.53-10.06ZM332.99,261.99c-.54-4.38-5.89-5.24-7.99-1.48-1.12,2.85,6.56,2.6,7.99,1.48ZM370.97,603.51c-2.1-5.95-6.59-11.67-12.97-6.77l-.99,10.26-5.99,1.5c1.76,2.65,3.98,2.61,6.91,2.57.49,3.28-.06,6.74,3.57,7.91,2.84-1.31.83-8.32,1.49-8.98,2.95-.31,6.78,1.17,8.98-1.5-2.58-2.61-6.58-2.59-9.98-2.5-.26-1.34-.32-9.17,2.01-7.52l3.04,6.48,3.93-1.46ZM336.1,548.12c-1.22,1.98-.6,18.57,5.94,16.47l5.46-11.57c1.97-.04,3.62,17.28,8.03,11.01,1.74-2.48-1.46-11.15-3.52-13.53-4.46-1.47-7.83-.69-11,2.51,1.39-3.17-3.15-7.75-4.91-4.88ZM378.4,601.08l-3.47.35c-3.78,8.9,7.21,21.78,14.57,11.59.82,1.5,6.75,6.06,7.5,2.46.28-1.36-2.54-3.35-3.2-4.78-1-2.15-1.69-8.04-3.39-8.63-6.53-2.26-3.34,9.43-8.39,10.92-2.1-2.59-1.34-11.16-3.61-11.91ZM260.51,599.05l-3.42,2.62c1.24,5.36-.62,14.65,6.89,15.33l5.51-11.98c1.86-.08,2.77,15.14,7.48,11.98,4.04-2.71-3.91-23.69-13.97-12l-2.5-5.95ZM242.77,600.2c12.53-1.73,17.17,17.87,2.73,17.82-12.62-.05-16.19-15.97-2.73-17.82ZM246.85,604.17c-4.49-2.75-11.23,5.12-5.86,9.34l7.88-.63c.89-1.52-1.21-8.21-2.03-8.71ZM246.7,562.72c-5.08,6.05-18.46,2.55-19.2-5.59-.56-6.18,6.51-9.79,11.91-9.11s10.98,10.3,7.29,14.7ZM241.86,560.86l-1.33-7.88-3.02-1.08c-9.69,2.32-4.33,13.68,4.35,8.96ZM222.49,552.99c2.11-1.53,1.38-1.8.74-3.71-1.54-4.57-6.23-8.1-10.83-5.38-2.41,3-2.09,6.57-1.81,10.13l-6.57,2.46,7.53,3.45c.3,3.84,1.32,8.91,5.37,4.42l-.92-6.36c2.32-.25,7.76,1,8.99-1.52,1.36-2.78-8.38-1.8-9.57-3.41l.59-7.07,6.47,6.99ZM251,548c-1.02.98,1.39,19.77,7.48,18,2.4-.72.45-11.71,6.96-11.03.98.1,6.18,4.26,5.58.52-1.01-6.36-10.39-4.34-14.01-1.49l-1.15-5.86-4.86-.14ZM341.99,249.56c-.62,4.5,1.28,20.9,8.55,16.48.86-9.4,2.38-11.52,11.45-8.05.31-6.79-9.91-5.9-13.98-3,.03-3.63-1.96-7.66-6.02-5.44ZM328,600c-.39,3.92,1.35,17.98,6.49,18.04,4.14.05.95-11.77,7.93-11.07l5.56,2.03c-.46-7.44-9.41-6.12-13.99-2.99.43-4.36-1.61-6.57-6.01-6ZM399.98,612.52c.35,3.11,1.26,6.11,5.01,5.48l-1-22c-5.71-1.63-4.46,12.55-4.02,16.52ZM366.02,260h2.97c-.3-3.88,2.2-11.95-.22-14.75-5.11-5.91-4.1,12.09-2.75,14.75ZM328,553c-1.77,16.68,8.31,17.21,3.93.07l-3.93-.07ZM327.01,544.54l2.64,6.49,3.35-.05-1.15-6.83c-2-.91-3.43-1.89-4.84.38ZM384.17,241.37l1.62.77,8.22-17.13-1.62-.77-8.22,17.13ZM286,340h7v-21c4.45,3,9.58,18.44,13.01,20.49,2.04,1.22,5.63.23,7.99.51v-34h-8v21l-12.2-20.79-7.8-.21v34ZM402,364h-15v6.01s8.01-.01,8.01-.01v9.01c-24.79,3.62-19.58-32.12,3.44-21.02l2.08-5.03c-10.56-6.96-28-2.51-29.41,11.66-1.9,19.02,15.73,24.82,30.89,17.89v-18.5ZM207,350v23.5c0,.37,1.74,5.17,2.13,5.87,4.4,7.68,18.29,8.01,23.32.59.5-.74,2.54-5.06,2.54-5.46v-24.5h-8v25.5c0,4.11-12,5.15-12-1v-24.5h-8ZM356,340h7v-15h13v15h8v-34h-8.01s-.93,13.56-.93,13.56h-11.13s-.93-13.57-.93-13.57h-7.01v34.01ZM257,306v34h21v-6h-14l.94-8.56,13.07-.43v-4.43s-13.07-1.01-13.07-1.01l-.94-7.56h14v-6h-21ZM349,337.98l-2.01-5.98c-26.04,13.57-26.67-31.02,0-18l2.02-5.98c-39.86-15.87-39.18,46.16,0,29.97ZM196,306v34h8v-14h12.01s0-6.01,0-6.01h-12.01s0-8,0-8h13.01s0-5.99,0-5.99h-21ZM242,350v35h23v-6.01c-.96-.97-13.17,1.73-15-1.49v-27.5h-8ZM272,350v35h22v-6.01c-.96-.97-13.17,1.73-15-1.49v-27.5h-7ZM344.73,350.23c8.2-1.68,19.02,1,21.6,9.95,4.77,16.54-6.15,29.07-23.15,24.15-14.84-4.29-14.02-30.92,1.55-34.1ZM356.69,358.31c-10.89-10.15-22.69,9.46-13.64,18.14,11.07,10.63,23.2-9.23,13.64-18.14ZM343.05,376.45c11.07,10.63,23.2-9.23,13.64-18.14-10.89-10.15-22.69,9.46-13.64,18.14ZM178,350c12.55-1.79,33.83,3.19,17,16.99,6.32.83,8.62,7.24,6.24,12.76-2.67,6.2-17.52,5.28-23.24,5.25v-35ZM185,364l7.59-.91c4.35-6.08-2.1-7.99-7.59-7.1v8.01ZM193.76,377.76c1.54-1.54,1.8-5.44-.17-6.86l-8.59-.91v9.01c2.35-.06,7.07.45,8.76-1.24ZM193.59,370.91l-8.59-.91v9.01c2.35-.06,7.07.45,8.76-1.24,1.54-1.54,1.8-5.44-.17-6.86ZM192.59,363.09c4.35-6.08-2.1-7.99-7.59-7.1v8.01l7.59-.91ZM301,385v-35c12.79-.64,27.74.25,28.07,16.49.36,17.82-13.55,19.39-28.07,18.51ZM308,379c16.69,3.93,19.25-23.11,3.46-23.06-1.11,0-3.46.54-3.46,1.56v21.5ZM311.46,355.94c-1.11,0-3.46.54-3.46,1.56v21.5c16.69,3.93,19.25-23.11,3.46-23.06ZM241.5,306c10.23,1.69,11.27,14.08,2.44,18.55l6.06,15.45-7.9-.1c-2.12-14.83-12.44-19.57-10.09.11h-7.01v-34.01c5.07.58,11.67-.8,16.5,0ZM232,322c5.79.8,12.6-1.99,9.1-8.6l-9.1-1.41v10.01ZM241.09,313.4l-9.1-1.41v10.01c5.79.8,12.6-1.99,9.1-8.6ZM293.61,611.04l-4.29-4.93-2.34.33c-2.38,2.53-2.31,5.41-.87,8.46,3.23.58,6.23-.8,7.5-3.86ZM283.55,263.05c4.87-2.9.1-8.46-2.91-7.9-4,.73-4.36,12.24,2.91,7.9ZM308,554.49c1.91,2.17,4.45,2.35,7,1.51l-1.05-4.96c-1.69-.48-6.46,1.34-5.95,3.45ZM313.4,603.07l-5.38,3.43c2.36,2.77,4.82,2.67,7.98,1.49l-2.6-4.92ZM347,666c-2.06.71-4.14-1.66-5.5-1.65-1.2.01-2.58,1.69-4.9,1.62-14.29-.38-9.66-20.42,4.39-15.98l-.99-6.99,4.87.12c.09,1.66,2.13,5.38,2.13,6.37v16.5ZM338.69,654.32c-5.05-4.33-7.6,5.19-4.76,7.25,3.02,2.19,9.99-2.77,4.76-7.25ZM286.01,658c2.18,7.15,10.31,3.65,13.5-1,3.59-.81,4.67,7.78-6.99,8.06-15.95.39-17.24-19.31-1.25-17.84,4.54.42,6.86,4.89,6.63,9.1-1.04,3.31-9.29,3.37-11.89,1.68ZM293,654.99l-2.6-4.92-5.38,3.43c2.36,2.77,4.82,2.67,7.98,1.49ZM309.07,647.43l-4.06-.43c-.71,2.91.2,20.18,6.01,16.58,2.49-1.54,1.55-10.72,6.97-10.58.67.51,2.33,16.09,6.53,10.02,1.6-2.31-1.19-11.83-3.19-13.1-3.72-2.36-8.35-.48-11.32,2.07l-.94-4.57ZM231.66,644.21l-.66,9.79-5.99,1.5c1.76,2.61,4.02,2.72,6.97,2.52-.43,2.04.66,8.58,3.5,7.98,2.83-1.32.87-8.36,1.51-9h8.01s0-2.99,0-2.99l-9-1.02v-7c5.49-1.39,1.97,7.14,7.99,6,.73-6.5-6.8-13.22-12.33-7.78ZM248.94,647.43c-2.25,1.57,1,18.78,6.52,17.55,2.78-.78.85-11.7,6.98-11.02.63.07,6.63,4.02,6.55.53-.09-3.72-11.56-5.15-13.97-1.5l-2.14-5.86-3.94.29ZM272.94,652.44c-2.28,1.67-1.45,15.13,4.06,12.05l-1.02-12.49-3.04.44ZM271,643.01c.53,8.96,8.54,11.4,4.88.11l-4.88-.11ZM333.93,661.57c3.02,2.19,9.99-2.77,4.76-7.25s-7.6,5.19-4.76,7.25ZM290.4,650.07l-5.38,3.43c2.36,2.77,4.82,2.67,7.98,1.49l-2.6-4.92ZM289.01,554c-2.22,15.9,8.97,5.41,4.74,1.25-1.05-1.04-3.28-1.3-4.74-1.25ZM363.02,555.52c2.24,6.27,6.97,3.12,7.63-2.05l-4.04-3.42-3.59,5.47ZM306.36,257.92c5.46-5.41-5.59-8.43-5.35-.93l5.35.93ZM180.04,610.07l-.04,2.91c2.94.54,5.09,1.28,7.99.02-.31-4.21-5.01-4.39-7.95-2.93ZM325.01,260.51c-1.12,2.85,6.56,2.6,7.99,1.48-.54-4.38-5.89-5.24-7.99-1.48ZM240.99,613.51l7.88-.63c.89-1.52-1.21-8.21-2.03-8.71-4.49-2.75-11.23,5.12-5.86,9.34ZM240.53,552.98l-3.02-1.08c-9.69,2.32-4.33,13.68,4.35,8.96l-1.33-7.88ZM323.91,503.54c-1.23-3.13.47-4.65-.86-7.08l-3.96-.36c-3.74,7.71,4.06,15.64,11.9,13.9-.61,5.16-5.62,3.27-8.99,3,13.04,11.04,17.92-4.4,16-16.01l-4.84.17c-1.53,4.22-5.87,14.98-9.25,6.38ZM258.69,498.31c2.02,1.87,5.55,12.77,3.33,14.24-.44.29-9.54.59-10.52.51-4.9-.41-10.57-4.67-6.05-9.12,2.95-2.91,7.02-1.33,10.54-2.44-2.61-4.87-14.03,1.37-11.03-5.04,3.89-1,10.68-.97,13.72,1.84ZM249,508.99c2.68-.2,6.02,1.01,7.98-1.49-2.34-3.54-8.65-4.09-7.98,1.49ZM289.01,491c-1.03.74-.07,14.99.42,17.06.61,2.59,2.08,4.25,4.07,5.91l3.01-8.97c4.75,1.6,3.63,9.35,10.48,7.99l-3.98-9.51c1.99-1.59,3.7-1.22,2.98-4.47-4.41-1.85-7.51,2.64-11.99,1.99,1.27-2.78-.99-12.85-4.99-10ZM271.49,499.98l-2.45-4.57-3.9.75c-.28,3,.88,14.88,3.47,15.76,5.88,1.99,4.45-8.65,8.89-10.89,1.94-.03,2.48,12.74,5.99,11.97,4.06-.89,1.07-11.98-.72-13.76-2.11-2.1-9.08-1.68-11.27.74ZM227.56,492.94l-4.56-.94c-.72.7.33,18.06,1.49,20.01.38.64,1.17.89,1.82,1.19l2.21-.17,1.98-10.02c6.14-5.31,3.67,12.06,8.98,10.99s-2.61-21.59-11.48-15l-.45-6.06ZM365.51,496.01c-5.74,8.95,5.97,23.12,13.99,13.02,2.02,2.7,4.12,3.45,7.49,2.97-.11-2.89-2.98-3.65-4.07-6.42-.84-2.13-.68-4.46-1.37-6.62l-5.46-.86-2.09,9.9c-6.73.27-2.89-13.75-8.48-11.99ZM357.69,498.31c8.94,9.86-1.46,19.46-12.06,13.56-13.97-7.78,4.16-22.27,12.06-13.56ZM348.71,500.18c-6.37,1.9-1.62,14.75,6.34,8.32,1.89-1.75-.57-10.04-6.34-8.32ZM208.48,492c-2.28-.05-14.64,1.11-15.48,2.02-1.56,1.69,1.75,2.52,2.73,2.71,2.75.54,5.5.21,8.26.28.13,2.71,1.27,15.45,3.66,16.03l3.34-.04-.99-17,9.99,1c1.66-4.57-8.36-4.93-11.52-5ZM256.98,507.5c-2.34-3.54-8.65-4.09-7.98,1.49,2.68-.2,6.02,1.01,7.98-1.49ZM355.04,508.5c1.89-1.75-.57-10.04-6.34-8.32-6.37,1.9-1.62,14.75,6.34,8.32ZM336,720c6.4-.62,20.63.03,16.33,9.78-1.09,2.47-3.99,1.1-4.33,3.21,5.44.55,7.55,5.82,4.88,10.41-2.96,5.06-11.89,3.34-16.89,3.61v-27ZM340,731c12.04,1.65,12.01-8.67,0-7.01v7.01ZM348.86,736.14l-8.86-1.15.47,8.05,7.58-.51c1.2-.84,1.46-5.34.81-6.4ZM252,747h4c-.03-4.29-1.4-16.68,5.49-16.07.88.08,2.52.97,2.52,1.57v14.5h5.01c-.49-6.12,1.75-13.76-2.99-18.51-4.46-2.21-9.54,2.04-10.01,1.5v-11s-4.01,0-4.01,0v28ZM309,739h-13c-.46,6.21,6.7,5.88,10.99,4v4c-6.89.33-14.82,1.09-15.94-7.58-2.02-15.52,20.16-15.89,17.96-.41ZM305,735.99c.68-7.04-10.38-6.62-8.49.01h8.49ZM226,720v4s8,0,8,0v23h5v-23h7s0-4,0-4h-20ZM331,739h-14c.35,3.87,1.81,5,5.49,5.11,2.71.08,6.16-2.33,6.5,1.38-.53,2.55-13.52,3.12-15.55-3.43-5.35-17.3,18.31-19.98,17.55-3.05ZM326,735.99c.68-7.04-10.38-6.62-8.49.01h8.49ZM274,747h5.01c.29-4.56-1.48-11.57,3.05-14.44,1.57-1,5.64-1.31,5.96-2.06,1.02-2.44-.38-2.69-2.5-2.52-3.64.29-4.42,2.47-7.5,3.03l-.1-2.87-3.91-.13v19ZM340,735l.47,8.05,7.58-.51c1.2-.84,1.46-5.34.81-6.4l-8.86-1.15ZM340,724v7.01c12.04,1.65,12.01-8.67,0-7.01ZM296.51,736.01h8.49c.68-7.05-10.38-6.63-8.49,0ZM317.51,736.01h8.49c.68-7.05-10.38-6.63-8.49,0Z"/>
</svg>