<?xml version="1.0" encoding="UTF-8"?>
<svg id="_レイヤー_1" data-name="レイヤー 1" xmlns="http://www.w3.org/2000/svg" width="177.31mm" height="300.17mm" viewBox="0 0 502.6 850.87">
  <path d="M305.43,65.2l34.46,8.03c16.42-4.07,35.77-3.52,40.54,15.97,16.64,1.56,38.8,4.48,44.43,23.08.57,1.88.02,4.76.64,5.86.29.52,8.03,5.11,9.8,6.69,17.1,15.25,22.43,28.57,34.55,46.45,2.46,3.62,6.27,5.7,8.62,10.38,4.84,9.65,3.45,20.35-3.18,28.66,18.48,11.87,37.09,37.57,21.45,58.99-1,1.37-3.25,1.83-3.47,2.74-3.73,15.79-3.29,22.79-14.01,36.77-1.87,2.44-6.19,5.27-7.41,7.59-1.71,3.27-2.1,9.52-3.53,13.47-3.72,10.31-13.73,21.7-23.8,26.2-4.76,2.13-10.84,1.93-13.52,8.56-.9,2.22,2.51,12.38,2.33,17.22-.45,12.19-9.18,15.54.44,26.49,9.77,11.11,25.04,14.77,18.28,35.26-1.81,5.49-8.21,10.23-8.61,11.39-.68,1.98-.48,18.84-.07,21.75,1.49,10.79,12.95,22.2,17.77,32.23,6.21,12.93,11.44,38.62,6.36,52.08-1.48,3.92-5.6,6.93-6.7,9.3-1.87,4.03,4.53,26.21,6.72,31.24,4.62,10.62,12.62,16.63,10.52,30-.45,2.89-4.63,10.45-4.58,11.06.13,1.51,3.41,6.49,4.29,8.71,4.64,11.71,3.94,18.69,6.77,29.23,1.13,4.2,4.75,8.57,5.52,13.48,1.16,7.34-.21,15.52-5.36,21.16-1.87,2.05-8.43,5.27-8.91,6.09-1.08,1.81-2.45,15.01-3.77,19.23-2.65,8.41-7.21,13.57-13.71,19.29-1.36,1.2-5.67,3.37-5.85,3.67-.83,1.39.94,5.06.87,7.27-.17,5.25-7.62,26.82-10.21,31.88-11.83,23.13-39.58,23.18-62.12,24.88-19.39,21.27-49.77,24.96-77.19,22.78-18.89-1.5-40.53-10.65-52.03-25.98l-1.51.47c-11.89,15.89-33.97,24.26-53.43,25.57-27.39,1.84-55.85-1.87-75.24-22.84-28.35-2.13-53.42-1.8-65.01-31.99-2.26-5.89-7.13-18.93-7.32-24.77-.07-2.21,1.7-5.89.87-7.27-.18-.3-4.49-2.47-5.85-3.67-6.49-5.72-11.06-10.88-13.71-19.29-1.33-4.22-2.69-17.41-3.77-19.23-.49-.82-7.04-4.04-8.91-6.09-4.9-5.37-6.44-13.27-5.51-20.32.71-5.39,4.47-9.81,5.68-14.32,2.07-7.73,1.48-14.74,4.49-23.51.89-2.6,6.45-13.47,6.4-14.25-.04-.66-3.94-7.21-4.41-10.24-2.25-14.43,5.69-19.7,10.52-31,3.78-8.83,5.31-19.43,7.29-28.82l-.55-2.42c-14.73-13.73-8.15-45.16-.36-61.38,4.82-10.03,16.28-21.44,17.77-32.23,1.18-8.57-1.3-17.89,1.09-26.41-20.77-1.78-26.84-27.02-12.03-40.53,6.06-5.52,19.92-6.61,23.5-14.5,1.43-3.14.28-12.26.53-16.47.18-3,2.23-7.6,1.98-10.01-.17-1.6-6.93-9.69-8.45-10.56-2.41-1.37-5.19-1.05-7.79-2.21-12.07-5.4-20.6-16.98-24.79-29.21-1.12-3.26-1.09-7.68-2.54-10.46-1.22-2.34-5.53-5.15-7.4-7.6-10.86-14.16-10.27-20.85-14.01-36.77-.21-.91-2.47-1.37-3.47-2.74-15.55-21.3,2.84-47.16,21.45-58.99-7.23-8.81-8.17-21.66-1.83-31.31,1.95-2.96,5.33-4.95,7.27-7.73,12.42-17.71,17.2-30.98,34.55-46.45,1.77-1.58,9.51-6.17,9.8-6.69.47-.83.68-6.01,1.73-8.78,6.11-16.08,28.48-18.67,43.34-20.16,3.77-14.41,14.62-18.74,28.68-17.9,3.79.23,8.38,2.01,11.86,1.93,9.71-.22,23.95-7.63,34.46-8.03-2.08-16.26,1.09-32.02,11.63-44.87,22.43-27.34,63.38-27.04,85.49.53,10.19,12.71,13.19,28.43,11.17,44.34ZM298.29,70.33c8.14-25.98-6.01-55.46-32.56-62.94-39.41-11.1-72.87,24.15-61.44,62.94-3.91.5-8.42.6-12.23,1.28-8.62,1.54-19.33,6.1-27.29,6.71s-14.99-3.16-23.54-1.53c-8.1,1.54-14.58,9.12-13.96,17.54-15.09,1.16-39.87,2.03-44.56,19.94-.57,2.18-.01,5.75-.64,6.87-.4.7-10.97,7.22-13.27,9.22-15.54,13.52-23.98,33.1-36.53,48.47-8.72,10.68-6.96,21.6,1.61,31.54-5.01,5.09-10.85,9.03-15.64,14.43-9.39,10.58-18.92,25.83-9.41,39.46,1.4,2.01,4.47,3.7,5.2,5.8,1.77,5.15,1.47,11.98,3.75,18.25,1.83,5.02,6.38,13.07,9.66,17.34,2.13,2.78,7.03,6.41,8.26,8.74,1.62,3.08,2.06,9.35,3.55,13.45,4.17,11.43,16.13,24.51,29.01,24.99l12.01,14.01c-.77,4.84-2.69,10.12-2.98,15-.23,3.8,1.29,11.06.48,13.42s-7.88,9.34-10.16,10.9c-7,4.78-13.69,3.2-19.17,11.83-9.3,14.63,2.44,27.91,17.82,28.38-3.96,15.07,1.14,29.07-6.16,43.29-6.97,13.57-16.01,20.55-19.55,37.45-1.67,7.98-3.05,28.69,1.29,35.15,1.5,2.23,6.02,4.92,6.23,5.27,1.6,2.71-5.88,30.71-7.78,35.32-4.54,11.06-14.55,18.98-9.49,32.45.85,2.28,4.4,6.39,4.32,7.34-.17,1.93-5.18,9.76-6.33,12.7-3.68,9.47-3.24,15.73-5.37,24.63-2.42,10.14-10.15,16.5-3.7,28.4,3.69,6.82,10.88,7.19,12.07,8.93,1.38,2.03,1.92,14.79,2.98,19.02,2.98,11.93,10.72,19.06,21.02,24.95-.49,5.27-1.15,10.83-.07,16.1.73,3.57,3.39,5.99,4.29,8.71,1.24,3.73,1.18,7.53,3.09,11.91,10.22,23.43,39.65,23.08,61.49,24.51,22.85,29.25,85.05,29.63,112.6,8.23l14.58-15.42c19.58,35.95,90.56,38.89,118.98,14.98,2.42-2.04,5.28-6.91,7.27-7.73,5.85-2.41,20.23-1.22,27.64-2.36,15.3-2.35,29.76-9.63,34.92-25.08,1.03-3.08,1.12-6.58,2.21-9.79.97-2.87,3.59-4.84,4.26-8.75.85-5,.16-10.33-.27-15.31,10.27-6.16,17.99-12.84,21.02-24.95,1.06-4.23,1.6-16.99,2.98-19.02.66-.97,7.16-2.62,10.04-5.96,10.67-12.37-.44-21.46-2.27-32.79-1.49-9.25-1.12-13.82-4.78-23.22-1.17-3.02-6.09-10.59-6.27-12.68-.17-1.97,2.72-4.77,3.58-7.04,5.81-15.45-3.36-19.87-8.55-32.03-2-4.68-9.72-33.16-8.02-36.06,1.21-2.06,7.31-3.79,8.55-9.93,2.47-12.16-.65-32.45-5.59-43.95s-17.49-23-19.07-35.93c-.98-8.04,1.02-16.9-.78-24.96,6.85-4.86,11.52-10.82,10.42-19.66-1.45-11.63-12.63-14.57-19.26-22.76-10.88-13.45-.77-16.54-.88-30.68-.03-4.19-3.86-14.08-3.46-15.63.18-.72,9.21-10.83,9.86-11.19,1.73-.97,4.62-.36,6.83-1.17,11.12-4.08,19.38-16.04,23.19-26.81,1.15-3.26,1.07-7.64,2.54-10.46,1.22-2.34,6.12-5.97,8.26-8.74,3.28-4.27,7.83-12.32,9.66-17.34,2.28-6.27,1.98-13.1,3.75-18.25.72-2.1,3.8-3.79,5.2-5.8,9.15-13.12.47-27.95-8.46-38.41-4.97-5.83-11.21-10.11-16.58-15.48,8.51-9.9,10.22-20.99,1.61-31.54-12.6-15.44-21.01-34.83-36.53-48.47-2.31-2.03-12.87-8.52-13.27-9.22-.69-1.23.06-4.17-.43-6.07-4.96-19.04-28.75-19.34-44.77-20.73.44-6.05-2.61-11.61-7.66-14.84-10.75-6.86-19.03-.34-29.83-1.17-12.08-.93-26.41-9.07-39.51-8ZM273.41,54.64c0,12.22-9.9,22.12-22.12,22.12s-22.12-9.9-22.12-22.12,9.9-22.12,22.12-22.12,22.12,9.9,22.12,22.12ZM246.02,38.57c-15.69,3.21-15.35,30.74,2.75,32.79,26.08,2.95,26-38.68-2.75-32.79Z"/>
</svg>