<?xml version="1.0" encoding="UTF-8"?>
<svg id="_レイヤー_1" data-name="レイヤー 1" xmlns="http://www.w3.org/2000/svg" width="204.61mm" height="305.86mm" viewBox="0 0 580 867">
  <path d="M344.14,72.86l34.46,8.03c16.42-4.07,35.77-3.52,40.54,15.97,16.64,1.56,38.8,4.48,44.43,23.08.57,1.88.02,4.76.64,5.86.29.52,8.03,5.11,9.8,6.69,17.1,15.25,22.43,28.57,34.55,46.45,2.46,3.62,6.27,5.7,8.62,10.38,4.84,9.65,3.45,20.35-3.18,28.66,18.48,11.87,37.09,37.57,21.45,58.99-1,1.37-3.25,1.83-3.47,2.74-3.73,15.79-3.29,22.79-14.01,36.77-1.87,2.44-6.19,5.27-7.41,7.59-1.71,3.27-2.1,9.52-3.53,13.47-3.72,10.31-13.73,21.7-23.8,26.2-4.76,2.13-10.84,1.93-13.52,8.56-.9,2.22,2.51,12.38,2.33,17.22-.45,12.19-9.18,15.54.44,26.49,9.77,11.11,25.04,14.77,18.28,35.26-1.81,5.49-8.21,10.23-8.61,11.39-.68,1.98-.48,18.84-.07,21.75,1.49,10.79,12.95,22.2,17.77,32.23,6.21,12.93,11.44,38.62,6.36,52.08-1.48,3.92-5.6,6.93-6.7,9.3-1.87,4.03,4.53,26.21,6.72,31.24,4.62,10.62,12.62,16.63,10.52,30-.45,2.89-4.63,10.45-4.58,11.06.13,1.51,3.41,6.49,4.29,8.71,4.64,11.71,3.94,18.69,6.77,29.23,1.13,4.2,4.75,8.57,5.52,13.48,1.16,7.34-.21,15.52-5.36,21.16-1.87,2.05-8.43,5.27-8.91,6.09-1.08,1.81-2.45,15.01-3.77,19.23-2.65,8.41-7.21,13.57-13.71,19.29-1.36,1.2-5.67,3.37-5.85,3.67-.83,1.39.94,5.06.87,7.27-.17,5.25-7.62,26.82-10.21,31.88-11.83,23.13-39.58,23.18-62.12,24.88-19.39,21.27-49.77,24.96-77.19,22.78-18.89-1.5-40.53-10.65-52.03-25.98l-1.51.47c-11.89,15.89-33.97,24.26-53.43,25.57-27.39,1.84-55.85-1.87-75.24-22.84-28.35-2.13-53.42-1.8-65.01-31.99-2.26-5.89-7.13-18.93-7.32-24.77-.07-2.21,1.7-5.89.87-7.27-.18-.3-4.49-2.47-5.85-3.67-6.49-5.72-11.06-10.88-13.71-19.29-1.33-4.22-2.69-17.41-3.77-19.23-.49-.82-7.04-4.04-8.91-6.09-4.9-5.37-6.44-13.27-5.51-20.32.71-5.39,4.47-9.81,5.68-14.32,2.07-7.73,1.48-14.74,4.49-23.51.89-2.6,6.45-13.47,6.4-14.25-.04-.66-3.94-7.21-4.41-10.24-2.25-14.43,5.69-19.7,10.52-31,3.78-8.83,5.31-19.43,7.29-28.82l-.55-2.42c-14.73-13.73-8.15-45.16-.36-61.38,4.82-10.03,16.28-21.44,17.77-32.23,1.18-8.57-1.3-17.89,1.09-26.41-20.77-1.78-26.84-27.02-12.03-40.53,6.06-5.52,19.92-6.61,23.5-14.5,1.43-3.14.28-12.26.53-16.47.18-3,2.23-7.6,1.98-10.01-.17-1.6-6.93-9.69-8.45-10.56-2.41-1.37-5.19-1.05-7.79-2.21-12.07-5.4-20.6-16.98-24.79-29.21-1.12-3.26-1.09-7.68-2.54-10.46-1.22-2.34-5.53-5.15-7.4-7.6-10.86-14.16-10.27-20.85-14.01-36.77-.21-.91-2.47-1.37-3.47-2.74-15.55-21.3,2.84-47.16,21.45-58.99-7.23-8.81-8.17-21.66-1.83-31.31,1.95-2.96,5.33-4.95,7.27-7.73,12.42-17.71,17.2-30.98,34.55-46.45,1.77-1.58,9.51-6.17,9.8-6.69.47-.83.68-6.01,1.73-8.78,6.11-16.08,28.48-18.67,43.34-20.16,3.77-14.41,14.62-18.74,28.68-17.9,3.79.23,8.38,2.01,11.86,1.93,9.71-.22,23.95-7.63,34.46-8.03-2.08-16.26,1.09-32.02,11.63-44.87,22.43-27.34,63.38-27.04,85.49.53,10.19,12.71,13.19,28.43,11.17,44.34ZM337,77.99c8.14-25.98-6.01-55.46-32.56-62.94-39.41-11.1-72.87,24.15-61.44,62.94-3.91.5-8.42.6-12.23,1.28-8.62,1.54-19.33,6.1-27.29,6.71s-14.99-3.16-23.54-1.53c-8.1,1.54-14.58,9.12-13.96,17.54-15.09,1.16-39.87,2.03-44.56,19.94-.57,2.18-.01,5.75-.64,6.87-.4.7-10.97,7.22-13.27,9.22-15.54,13.52-23.98,33.1-36.53,48.47-8.72,10.68-6.96,21.6,1.61,31.54-5.01,5.09-10.85,9.03-15.64,14.43-9.39,10.58-18.92,25.83-9.41,39.46,1.4,2.01,4.47,3.7,5.2,5.8,1.77,5.15,1.47,11.98,3.75,18.25,1.83,5.02,6.38,13.07,9.66,17.34,2.13,2.78,7.03,6.41,8.26,8.74,1.62,3.08,2.06,9.35,3.55,13.45,4.17,11.43,16.13,24.51,29.01,24.99l12.01,14.01c-.77,4.84-2.69,10.12-2.98,15-.23,3.8,1.29,11.06.48,13.42s-7.88,9.34-10.16,10.9c-7,4.78-13.69,3.2-19.17,11.83-9.3,14.63,2.44,27.91,17.82,28.38-3.96,15.07,1.14,29.07-6.16,43.29-6.97,13.57-16.01,20.55-19.55,37.45-1.67,7.98-3.05,28.69,1.29,35.15,1.5,2.23,6.02,4.92,6.23,5.27,1.6,2.71-5.88,30.71-7.78,35.32-4.54,11.06-14.55,18.98-9.49,32.45.85,2.28,4.4,6.39,4.32,7.34-.17,1.93-5.18,9.76-6.33,12.7-3.68,9.47-3.24,15.73-5.37,24.63-2.42,10.14-10.15,16.5-3.7,28.4,3.69,6.82,10.88,7.19,12.07,8.93,1.38,2.03,1.92,14.79,2.98,19.02,2.98,11.93,10.72,19.06,21.02,24.95-.49,5.27-1.15,10.83-.07,16.1.73,3.57,3.39,5.99,4.29,8.71,1.24,3.73,1.18,7.53,3.09,11.91,10.22,23.43,39.65,23.08,61.49,24.51,22.85,29.25,85.05,29.63,112.6,8.23l14.58-15.42c19.58,35.95,90.56,38.89,118.98,14.98,2.42-2.04,5.28-6.91,7.27-7.73,5.85-2.41,20.23-1.22,27.64-2.36,15.3-2.35,29.76-9.63,34.92-25.08,1.03-3.08,1.12-6.58,2.21-9.79.97-2.87,3.59-4.84,4.26-8.75.85-5,.16-10.33-.27-15.31,10.27-6.16,17.99-12.84,21.02-24.95,1.06-4.23,1.6-16.99,2.98-19.02.66-.97,7.16-2.62,10.04-5.96,10.67-12.37-.44-21.46-2.27-32.79-1.49-9.25-1.12-13.82-4.78-23.22-1.17-3.02-6.09-10.59-6.27-12.68-.17-1.97,2.72-4.77,3.58-7.04,5.81-15.45-3.36-19.87-8.55-32.03-2-4.68-9.72-33.16-8.02-36.06,1.21-2.06,7.31-3.79,8.55-9.93,2.47-12.16-.65-32.45-5.59-43.95s-17.49-23-19.07-35.93c-.98-8.04,1.02-16.9-.78-24.96,6.85-4.86,11.52-10.82,10.42-19.66-1.45-11.63-12.63-14.57-19.26-22.76-10.88-13.45-.77-16.54-.88-30.68-.03-4.19-3.86-14.08-3.46-15.63.18-.72,9.21-10.83,9.86-11.19,1.73-.97,4.62-.36,6.83-1.17,11.12-4.08,19.38-16.04,23.19-26.81,1.15-3.26,1.07-7.64,2.54-10.46,1.22-2.34,6.12-5.97,8.26-8.74,3.28-4.27,7.83-12.32,9.66-17.34,2.28-6.27,1.98-13.1,3.75-18.25.72-2.1,3.8-3.79,5.2-5.8,9.15-13.12.47-27.95-8.46-38.41-4.97-5.83-11.21-10.11-16.58-15.48,8.51-9.9,10.22-20.99,1.61-31.54-12.6-15.44-21.01-34.83-36.53-48.47-2.31-2.03-12.87-8.52-13.27-9.22-.69-1.23.06-4.17-.43-6.07-4.96-19.04-28.75-19.34-44.77-20.73.44-6.05-2.61-11.61-7.66-14.84-10.75-6.86-19.03-.34-29.83-1.17-12.08-.93-26.41-9.07-39.51-8ZM312.12,62.3c0,12.22-9.9,22.12-22.12,22.12s-22.12-9.9-22.12-22.12,9.9-22.12,22.12-22.12,22.12,9.9,22.12,22.12ZM284.73,46.23c-15.69,3.21-15.35,30.74,2.75,32.79,26.08,2.95,26-38.68-2.75-32.79ZM305.56,549.06c-14.99,2.41,3.72,24.5,13.43,10.42-1.6-5.4-3.79-.31-6.26.77-2.91,1.28-6.12.82-7.74-2.25,13.17,4.58,13.66-11.05.56-8.95ZM252.49,517.02c2.48,4.16,10.58-.28,13.01,2.96,5.21-9.06-4.89-19.63-14.48-13.48,2.53,3.36,8.17-.55,9.98,3.49-4.48-.96-11.82,1.48-8.51,7.03ZM348.01,563.99l8.98-2.5c.38-2.62-1.66-.29-3.98-.89-12.97-3.32-1.12-18.3,6.54-10.65,1.61,1.61,2.71,12.01,1.54,13.61-3.05,4.14-9.28,2.14-13.09.44ZM352.01,558c3.02,2.18,7.6-5.75,3.48-6.99s-5.08,5.84-3.48,6.99ZM289.01,550.99c13.46-.16,13.59,12.99-.74,12.76-4.88-.08-4.57-12.6-3.98-16.01,1.06-6.17,6.18-1.59,4.73,3.26ZM290.49,553.03c-2.6,1.45-2.04,8.59.99,7.97l2.59-4.47-3.58-3.5ZM314.01,505c-.36,3.98-.18,7.83,3.25,10.35.85,2.09,7.83.72,6.74,3.13-1.47,3.25-5.24-.44-6.99,1.01,11.73,8.08,14.2-3.69,12.99-13.5-6.76-1.55-4,6.63-9.38,7.95-3.49-1.91-2.63-5.53-2.62-8.95h-3.99ZM292.5,502l-3.5-.99c.53,5.71-2.14,17.18,4.99,18.99v-6.49c4.1-2.81,4.95,6.61,8.51,6.47,2.93-.12-.34-7.47-1.49-8.49l2.88-1.62-.99-2.81-8.87,1.92-1.54-6.98ZM234.99,501.49c-2.58,1.89-.18,13.83.14,17.35l3.39.18,1.5-8.33,2.48-.71,3.02,9,3.48,1.01c.79-7.8-2.13-14.41-11-12.99.45-1.62-.08-7.66-3.01-5.51ZM327.97,550.53c-.24,1.51,1.52,10.93,2.16,11.33h3.74c1.16-3.18,1.65-7.27,5.12-8.86,3.88,21.12,9.74,2.6,2.58-2.07-4.35-2.84-8.62,1.96-9.56,1.07.49-3.92-3.35-5.86-4.05-1.47ZM338.75,505.21c11.71-2.25,15.4,16.11,1.85,14.77-9.12-.9-11.87-12.85-1.85-14.77ZM342.88,508.14c-2.2-.7-5.02.26-5.71,2.57-.72,2.57-.04,5.07,2.54,6.15,2.3.66,4.24-.45,5.16-2.57l-2-6.16ZM353.52,505.01c-3.83.81-1.18,13.65,6.07,14.01,3.1.15,4.14-2.86,4.9-2.87.65,0,4.21,4.01,6.51,2.84-1.8-4.16-4.64-6.73-4.12-11.85l-4.65.08-2.23,7.77c-5,.66-2.62-10.81-6.47-9.99ZM269.09,506.66c-.45,1.55,1.39,10.97,2.87,11.88,4.61,2.84,3.9-7.21,7.54-9.52l3.41,9.38,3.08.6c1.03-8.8-2.94-16.14-11.98-10.01.87-3.78-3.93-5.78-4.92-2.34ZM232.55,546.95c-2.43-2.24-6.21-3.44-8.41-.31l-.25,7.26-5.89,1.11c.64,2.8,5.37,2.35,6.5,3.99.88,1.29.13,3.9,2.02,4.99,4.62-.07.72-6.29,1.49-6.99,2.69-.22,6.02,1.01,7.98-1.51-1.96-2.52-5.3-1.28-7.98-1.5.57-2.12-1.7-7.83,1.99-7,.82,9.72,8.55,5.46,2.56-.05ZM251.75,550.25c1.17,1.13,4.12,7.96,2.78,9.74-5.41,5.75-17.22,3.75-16.48-5.41.46-5.69,10.6-7.32,13.7-4.33ZM250.21,556.39c0-2.36-1.91-4.27-4.27-4.27s-4.27,1.91-4.27,4.27,1.91,4.27,4.27,4.27,4.27-1.91,4.27-4.27ZM231.01,503.49c-6.95-2.8-14.81-1.41-22.01-.49-.31,4.14,6.5,2.67,8.96,3.04,1.22,1.14-.37,15.64,6.06,12.44l-1.01-13.49c.84-.83,10.44,3.37,8-1.5ZM263.45,552.8l-3.04-4.73-3.49,1.58c1.43,5.14.65,14.52,8.08,13.35-.66-2.61,1.18-9.18,4.33-8.88l4.66,1.86-.15-2.85c-3.79-2.2-6.39-2.19-10.4-.34ZM326,562.5l-1.02-9.5c-6.09-1.86-4.21,12.25,1.02,9.5ZM352,338h6v-19c7.41,5.55,7.22,21.65,19,19v-31h-7v19c-3.17-1.95-9.63-17.88-11.16-18.84-1.26-.78-5.05.17-6.84-.16v31ZM242.73,307.23c11.3-2.31,21.34,2.99,21.34,15.27,0,12.44-9.92,17.61-21.34,15.27-13.66-2.8-13.66-27.75,0-30.54ZM246.76,312.2c-9.94,1.43-9.29,18.81-1.04,20.6,14.55,3.17,15.2-22.64,1.04-20.6ZM228,319h-14v5.01s7.01-.01,7.01-.01v9.01c-22.46,2.64-16.93-29.33,3.98-19l.95-4.37c-14.87-7.68-28.86.1-25.88,17.81,1.94,11.55,19.69,13.39,27.95,8.05v-16.5ZM272.5,348c8.63,1.72,8.57,13.48.5,16.49l6.99,14.5-7.04-.45c-2.84-4.92-2.16-13.13-9.96-11.55v12.01s-7,0-7,0v-31c4.9.66,11.93-.91,16.5,0ZM270.76,360.76c1.23-1.91,1.91-4.42.34-6.35l-8.1-1.41v9.01s7.76-1.24,7.76-1.24ZM188.5,348c7.38,1.59,8.37,14.04.48,16.52l6.02,14.48-6.9-.1c-1.59-5.12-1.95-13.66-9.1-11.9v12.01s-7,0-7,0v-31c4.81.7,12.07-.95,16.5,0ZM179,362c4.09.59,8.79-.45,8.87-5.26-1.1-4.78-4.83-3.83-8.87-3.75v9.01ZM295,338v-31c10.49-.35,23.75-1.02,25.05,12.45,1.74,18.09-10.09,19.33-25.05,18.55ZM302,333c16.1,1.92,16.57-22.72,0-21v21ZM400.5,348c8.25,1.45,8.81,13.01,1.5,16.54l5.99,14.46-6.83-.16c-2.94-5.17-2.01-13.38-10.16-11.84v12.01s-6,0-6,0v-31c4.72.57,11.03-.79,15.5,0ZM399.86,354.14l-8.86-1.15v9.01c4.58,1.56,12.14-2.54,8.86-7.86ZM301,348v31h18.5l1.5-6h-13.01s0-8.01,0-8.01h12.01s0-5,0-5h-12.01s0-7,0-7h13.01s0-4.99,0-4.99h-20ZM358,348v29.5l1.5,1.5h18.5v-6.01s-13.01.01-13.01.01v-7.43s12.01-.57,12.01-.57v-5.01s-12.01.01-12.01.01v-7.01s13.01.01,13.01.01v-5.01h-20.01ZM201,348v31h19v-6.01s-12.01.01-12.01.01v-7.43s11.01-.57,11.01-.57v-5.01s-11.01.01-11.01.01v-7.01s12.01.01,12.01.01v-5.01h-19.01ZM326,307v31h19v-5.01s-11.36-.13-11.36-.13c-2.5-.82-2.5-7.9,0-8.72l10.37-.13v-5.01s-12.01.01-12.01.01v-6.01s13.01.01,13.01.01v-6.01h-19.01ZM325.01,348.49c2.91,4.33,8.36,29.23,11.64,30.35,1.63.55,3.92.1,5.69.21l10.65-31.04-6.86.12-6.14,22.87c-1.67-.28-1.8-1.95-2.27-3.21-2.17-5.76-3.51-13.61-4.76-19.74l-7.94.44ZM226,348v5.01c.6.62,7.75-1.3,9,1.49v24.5c2.43-.07,5.38.76,7-1.5v-24.5h8.01s0-5,0-5h-24ZM269,307v31h20v-6.01s-13,0-13,0v-25h-7ZM286,348v31h7v-31h-7ZM245.73,332.8c14.55,3.17,15.2-22.64,1.04-20.6-9.94,1.43-9.29,18.81-1.04,20.6ZM271.1,354.41l-8.1-1.41v9.01s7.76-1.24,7.76-1.24c1.23-1.91,1.91-4.42.34-6.35ZM187.86,356.74c-1.1-4.78-4.83-3.83-8.87-3.75v9.01c4.09.59,8.79-.45,8.87-5.26ZM302,312v21c16.1,1.92,16.57-22.72,0-21ZM391,353v9.01c4.58,1.56,12.14-2.54,8.86-7.86l-8.86-1.15ZM217.16,259.66c-1.53,4.91-.38,12.77,5.82,13.34.84-.64,1.83-10.38,5.01-11l1.94,8.57,4.06.44c-.17-2.95.03-7.91,4-8,.04,3.59.04,9.8,4.99,8.99,1.61-2.67-.87-11.22-2.98-12.51-3.31-2.04-6.29,1.36-7.53,1.26-1.71-.14-5.16-6.47-10.46.26.12-3.12-3.88-4.46-4.86-1.34ZM292,274c-5.38-1.64-12.78,2.44-16.43-3.06-4.7-7.08,3.75-13.21,10.43-10.94v-6.99c3.32-1.19,6.01,4.14,6.01,6.5v14.5ZM284.74,269.74c4.42-5.74-5.46-10.36-5.83-3.25-.24,4.71,1.99,5.59,5.83,3.25ZM318.17,269.3c1.66,5.46,11.5,3.01,15.85,3.23,1.34-.83-.02-7.07-.5-8.55-2.44-7.33-9.86-8.22-16.51-5.98.42,6.12,8.7-.3,11,4.98-4.64-.4-11.78-.1-9.83,6.31ZM250.53,257.97l-3.02-.96c-5.31,6.4,3.37,15.88,10.49,13l-1.67,3.03-6.33-.03c-1.83,1.32,11.96,8.04,13.93-4.57.44-2.82,1.05-13.12-3.97-9.98-2.22,1.39-2.68,9.86-7.95,8.53l-1.49-9.02ZM310.87,266.88c-3.43,1.43-7.44,1.83-10.86.13,1.33,5.97,10.22,4.19,11.98-.52l3,.51c-1.55,12.14-22.34,7.01-19.79-4.27,1.8-7.99,18.67-6.47,15.67,4.15ZM303.67,260.11c-1.64.14-5.3,2.74-2.71,4.42l6.01-1.03c-1.01-1.07-1.21-3.58-3.3-3.4ZM339.77,270.73c1.03,1.75,2.08,2.28,3.73,3.25l5.52-10.55,6.97,1.57c-1.84-6.28-8.29-4.55-12.94-3.01-6.17-13.24-7.22,2.06-3.28,8.74ZM359.51,253.01c-2.62.55-2.45,14.32,2.48,13.99-1.1-4.96,4.11-12.1-2.48-13.99ZM386.99,255c-3.62,5-8.42,13.14-10.53,18.96-.34.94-1.32,3.25.53,3.03l10-21.99ZM205.14,263.44l8.98,18,1.46-.73-8.98-18-1.46.73ZM278.91,266.49c-.24,4.71,1.99,5.59,5.83,3.25,4.42-5.74-5.46-10.36-5.83-3.25ZM300.97,264.53l6.01-1.03c-1.01-1.07-1.21-3.58-3.3-3.4-1.64.14-5.3,2.74-2.71,4.42ZM332,682c5.72.1,17.75-2.04,14.82,7.31-.69,2.19-4.07,2.7-3.81,3.19,13.02,9.51.24,15.57-11,13.5v-24ZM336.01,692c2.15.29,8.39-1.73,7.94-4.39-1.7-3.14-4.8-2.77-7.95-2.62v7ZM343.86,696.13l-7.87-1.13v8.01c4.14,1.23,10.57-2.52,7.87-6.88ZM255,706h4c-2.13-18.99,10.71-20.13,8.01,0h3.99c.46-9.36.64-23.61-11.99-15v-10s-4.01,0-4.01,0v25ZM327,699h-12c-.51,5.94,6.09,4.5,9.99,4v2.99c-4.53.29-12.15.84-13.78-4.7-4.68-15.84,17.78-18.41,15.79-2.29ZM323,695.99c.43-7.15-9.34-6.24-7.49.01h7.49ZM295.01,699.01c1.11,5.91,6.48,4.78,10.99,4,.31,3.73-4.72,3.33-7.52,3.02-12.29-1.4-8.78-20.77,3.32-17.39,4.07,1.14,7.11,6.01,5.25,9.9l-12.04.47ZM302.73,692.27c-2.9-2.72-8.16-.54-7.73,3.72h8.99c.46-.43-.67-3.16-1.26-3.72ZM232,682v3s7,0,7,0v21h4v-21h7.01s0-3,0-3h-18ZM276,706h4c-.15-7.62-1.64-14.13,8.02-14.5l-.02-3.49c-.83-.95-6.99,3.08-8.47,3.05-.29,0-.86-3.35-3.52-2.06v17ZM336,695v8.01c4.14,1.23,10.57-2.52,7.87-6.88l-7.87-1.13ZM343.95,687.61c-1.7-3.14-4.8-2.77-7.95-2.62v7c2.16.29,8.4-1.73,7.95-4.39ZM315.51,696.01h7.49c.43-7.16-9.34-6.25-7.49,0ZM295,695.99h8.99c.46-.43-.67-3.16-1.26-3.72-2.9-2.72-8.16-.54-7.73,3.72ZM355.49,551.01c-3.98-1.19-5.08,5.84-3.48,6.99,3.02,2.18,7.6-5.75,3.48-6.99ZM291.49,561l2.59-4.47-3.58-3.5c-2.6,1.45-2.04,8.59.99,7.97ZM337.17,510.71c-.72,2.57-.04,5.07,2.54,6.15,2.3.66,4.24-.45,5.16-2.57l-2-6.16c-2.2-.7-5.02.26-5.71,2.57ZM245.94,552.12c-2.36,0-4.27,1.91-4.27,4.27s1.91,4.27,4.27,4.27,4.27-1.91,4.27-4.27-1.91-4.27-4.27-4.27ZM259.92,602.64c-4.37-3.6-3.52-10.28-10.24-10.29-19.48-.02-.98,25.95,10.24,10.29ZM162.52,592.27c-4.24-.52-3.16,10.62-.1,12.8,1.14.81,10,1.08,12.01.91,1.83-.15,4.26-2.61,7.57-.99-2.43-3.4-2.15-6.98-2-10.99-4.99-.62-5.18,4.37-6.01,7.99-3.46-.97-.36-9.59-5.48-7.99-2.98.93.19,7.89-3.5,8.99-2.04-2.53,1.04-10.3-2.49-10.73ZM438.99,607.99c-1.89.75-3.51-1.58-4.51-1.63-2.4-.13-5.67,4.25-10.06-1.29-5.38-6.79,2.9-13.23,9.56-10.08.63-.75-2.52-6.38.52-6.99,5.32-1.07,4.68,17,4.48,19.99ZM429.62,597.06c-3.95.64-3.88,11.67,2.43,6.5,3.8-3.11-.69-6.78-2.43-6.5ZM383.94,595.43c-6.63,10.4,17.52,17.76,17.05,5.57-5.06.39-7.99,7.48-12.99,1,21.52,1.5,2.69-17.17-4.06-6.58ZM238.99,608c-3.85-1.49-14.07,1.44-15.83-3.65-2.73-7.88,4.14-11.56,10.83-9.35.23-2.56-2.41-5.02.52-6.99,4.53-.95,3.94,16.79,4.48,19.99ZM228.54,597.01c-2.29.68-2.58,8.13.96,8.03l2.58-1.46v-5.16l-3.54-1.41ZM134,593.01c-1.42,1.47.09,1.81,1.49,1.98,2.76.34,5.67-.31,8.5,1.02l-8.82,3.14c-1.78,9.88,8.67,6.48,14.83,7.84.84-10.85-4.77-17.84-15.99-13.98ZM342.01,598l-5,1.48c1.02,1.91,4.66,1.13,5.56,2.44.97,1.41-.69,6.12,2.93,6.05,2.27-.05,1.15-6.51,1.54-6.94l6.95-1.05c2.75-2.61-7.56-2.64-7.95-3.04l-.05-5.95c2.64-1.12,4.13,7.8,6.99,4.99,3.55-3.49-13.75-16.9-10.99,2.01ZM403.09,593.63l2.86,11.92c5.09,3.46,3.77-9.23,9.05-8.55l1.92,8.4,3.07.59c1.07-3.65-.29-7.96-2.39-11.08-2.89-2.21-6.92-.57-9.58,1.09.27-3.66-2.51-5.89-4.92-2.37ZM203.96,592.46c-1.8,1.27.22,11.98,2,13.08,3.76,2.32,3.9-3.41,5.54-6.58.6-1.17,0-2.41,1.98-1.94,2.81,1.43.78,10.38,6.51,8.99.54-8.48-2.97-16.29-11.98-10l-1.03-3.99-3.02.45ZM286.96,589.67l.05,8.34-5,1.48c1.02,1.91,4.66,1.13,5.56,2.44,1.33,1.92-1.22,5.13,2.93,6.05,2.87-1.96.79-4.46.5-6.97l8-1.02c-.45-3.01-7.55-2.62-7.95-3.03l-.04-5.95c2.75-1.01,4.05,7.76,6.99,4.99,1.81-1.71-6.6-12.46-11.03-6.33ZM185.3,603.72c-7.65-9.31,13.16-18.02,15.53-3.96,1.48,8.77-11.34,9.07-15.53,3.96ZM191.69,595.12c-1.91.51-4.51,4.02-3.55,6.17,9.41,9.99,9.92-7.86,3.55-6.17ZM301.01,593c-2.15,7.62,6.97,18.72,12.49,10.01,1.76,2.26,3.47,3.48,6.5,2.99l-4.93-11.55-4.02-.4-2.54,8.96c-3.1-2.45-3.63-6.26-3.53-9.98h-3.97ZM360.64,606.87c4.99,1.05,2.35-6.58,5.33-8.41s6.5,3.12,7.02.02c.6-3.66-8.7-4.64-10.5-1.51-1.47-.11-1.23-6.13-4.98-4.97-3.11.97.33,14.11,3.13,14.86ZM261.97,594.49c-.22,2.09,2.18,12.55,5.52,12.55,3.77,0,1.69-6.87,4.48-8.58,2.95-1.81,6.5,3.12,7.02.02.32-1.96-3.06-3.32-4.59-3.48-3.33-.33-4.52,1.71-7.4,1.99,1.36-5.08-4.53-7.15-5.03-2.51ZM323,603.5c.81,4.7,3.71,4.43,4.03,1.02s-2.32-11.08-1.04-15.51c-6.43-1.1-3.74,10.2-3,14.5ZM377.52,596.01c-2.75.58-2.15,11.57,2.48,10.99-.25-1.9,1.32-11.79-2.48-10.99ZM432.05,603.55c3.8-3.11-.69-6.78-2.43-6.5-3.95.64-3.88,11.67,2.43,6.5ZM229.5,605.04l2.58-1.46v-5.16l-3.54-1.41c-2.29.68-2.58,8.13.96,8.03ZM188.14,601.29c9.41,9.99,9.92-7.86,3.55-6.17-1.91.51-4.51,4.02-3.55,6.17Z"/>
</svg>