<?xml version="1.0" encoding="UTF-8"?>
<svg id="_レイヤー_1" data-name="レイヤー 1" xmlns="http://www.w3.org/2000/svg" width="150.16mm" height="302.33mm" viewBox="0 0 425.66 857.01">
  <path d="M89.68,399.36c-2.93-.66-5.47-3.78-7.52-6.01-34.56-37.51-33.02-72.24-33.53-120.47-.14-13.2.63-27.34,3.91-40.17,1.52-5.96,6.34-14.33,7.07-18.93,1.51-9.5-.41-23.71.02-33.98,1.25-29.6,6.07-52.6,22.63-77.37,5.09-7.62,11.96-13.83,15.59-22.41,4.08-9.64,5.42-21.14,8.8-31.2C115.6,22.16,132.74.92,163.73,5.79c6.84,1.08,11.36,4.82,17.36,7.58,17.6-10.04,38.35-11.35,56.93-3.23,34.34-24,63.03-2.23,75.11,32.25,3.82,10.89,5.47,25.76,10.36,35.64,3.73,7.53,12.65,16.42,17.59,24.41,11.07,17.9,16.56,35.4,18.57,56.43,1.05,10.93-.7,28.32,1.24,37.76.79,3.84,5.03,8.7,6.65,12.35,11.33,25.43,12.67,38.2,12.08,65.84-.86,40.37,3.27,71.95-22.55,106.45-3.3,4.42-17.88,18.47-17.44,22.55,13.76,17.9,24.83,38.11,32.78,59.29,7.27,19.37,12.21,37.75,10.13,58.62-1.3,12.99-9.67,37.16-8.79,48,1,12.28,10.76,47.54,15.44,59.61,3.62,9.35,13.12,19.91,17.66,30.34,14.44,33.25,9.98,68.6-6.18,100.22l.47,1.44c42,28.37,27.49,79.69-23.91,83.05-17.65,1.15-33.17-4.08-50.03-8.05-2.55.26-4.29,4.55-6.49,6.53-16.87,15.19-43.99,14.93-65.57,13.53-17.66-1.15-32.59-9.87-42.95-24.03-7.51,10.11-18.52,17.93-30.74,21.24-14.39,3.89-45.64,4.56-59.77.25-10.35-3.16-17.19-8.87-23.65-17.4-23.83,6.18-47.99,12.73-72.03,3.07-28.98-11.64-34.18-46.53-13.34-68.7,2.16-2.3,11.99-9.36,12.03-10.93-16.17-31.64-20.62-66.98-6.18-100.22,4.53-10.44,14.04-20.99,17.66-30.34,1.83-4.74,2.48-10.94,4.02-15.98,3.59-11.75,10.89-32.82,11.55-44.53.6-10.63-7.74-34.2-9.04-46.98-2.54-24.97,6.06-50.25,16.13-72.85,8.02-18.01,18.03-34.66,30.86-49.62ZM322.85,830.51c2.21-1.31,29.32,6.74,34.6,7.56,20.83,3.22,50.13-.11,59.4-22.04,10.15-24.02-4.77-42-24.16-54.18,18.52-29.46,23.1-67.88,9.16-100.18-4.76-11.02-14.47-21.38-18.21-31.79-4.67-13-15.95-53.64-14.84-65.92,2.52-27.75,13.01-42.09,6.56-72.81-6.3-30.01-22.85-62.88-42.41-86.29,2.6-10.42,11.28-15.87,17.7-24.04,24.59-31.33,23.68-60.93,24.07-98.93.25-24.18.65-40.54-8.87-63.22-2.16-5.16-10.48-18.36-11.13-21.87-1.57-8.42.51-22.62,0-32-1.21-21.98-6.99-41.79-18.63-60.37-4.99-7.96-13.82-16.6-17.6-24.4-5.64-11.64-7.18-27.34-12.07-39.93-11.72-30.17-38.92-47.21-67.28-23.72-19.47-9.27-41.03-8.2-58.98,3.98-22.44-18.89-47.47-10.16-61.29,13.68-10.37,17.89-9.88,40.26-20.96,57.04-14.69,22.24-24.95,31.59-29.92,60.08-3.71,21.28.28,42.07-2.4,61.6-.65,4.77-4.8,11.45-6.42,16.58-9.88,31.25-1.2,67.14-3.47,99.49,3.68,17.49,11.12,36.72,22,51,4.14,5.43,14.49,13.71,17.03,17.97.63,1.05,1.14,1.58,1,3-.11,1.1-11.89,14.42-13.87,17.24-16.95,24.11-36.31,70.25-34.17,99.8,1.09,15.06,7.53,31.49,8.86,46.13,1.11,12.28-10.17,52.92-14.84,65.92-3.74,10.41-13.45,20.77-18.21,31.79-13.95,32.3-9.36,70.72,9.16,100.18-19.72,12.37-34.56,30.62-23.84,54.85s42.38,24.55,64.04,20.33c9.44-1.84,18.57-5.45,28.17-6.76,4.71,9.18,11.95,15.27,21.87,18.35,13.03,4.05,48.3,3.1,61.02-1.54,12.64-4.61,21.5-13.28,28.26-24.72,7.47,12.18,17.4,22.45,31.51,26.47,11.88,3.39,44.04,3.1,55.79-.19,9.27-2.59,19.27-9.22,23.38-18.14ZM237,60.98c0,13.42-10.88,24.3-24.3,24.3s-24.3-10.88-24.3-24.3,10.88-24.3,24.3-24.3,24.3,10.88,24.3,24.3ZM231.66,60.95c0-10.48-8.49-18.97-18.97-18.97s-18.97,8.49-18.97,18.97,8.49,18.97,18.97,18.97,18.97-8.49,18.97-18.97Z"/>
</svg>