<?xml version="1.0" encoding="UTF-8"?>
<svg id="_レイヤー_1" data-name="レイヤー 1" xmlns="http://www.w3.org/2000/svg" width="172.75mm" height="300.13mm" viewBox="0 0 489.67 850.78">
  <path d="M299.84,70.24c7.56.54,16.37,7.23,22.73,8.79,17.5,4.28,39.25-8.43,51.11,10.89,1.86,3.03,1.98,7.11,3.71,9.29,2.58,3.25,14.17,8.25,18.49,12.51,23.73,23.4,42.89,45.86,51.46,79.54,6.44,25.33,13.17,58.52-6.47,79.52-2.22,2.37-7.36,5.23-8.47,7.53-1.52,3.14-1.28,8.7-2.5,12.5-1.43,4.46-6.89,9.82-7.15,12.93-.49,5.85,2.09,16.49,2.14,22.96.07,9.06-2.44,19.4-2.09,28.08.43,10.63,4.5,23.46,5.09,34.94.55,10.69-2.75,26.88,1.22,35.78,1.48,3.31,4.55,6.36,6.25,9.75,12.69,25.27,25.77,58.92,23.52,87.55-.58,7.35-4.36,13.99-5.06,19.93-1.22,10.38,1.56,28.04,1.06,40.07-.64,15.35-3.96,15.3,2.78,31.13,6.62,15.53,17.91,28.95,24.35,44.65,10.48,25.53,11.07,58.65-3.77,82.59-2.05,3.32-6.61,7.8-7.85,10.15-1.57,2.99-1.79,8.36-3.11,11.89-3.94,10.53-8.79,19.16-17.45,26.55-2.11,1.8-6.87,3.79-7.76,4.73s-2.49,6.59-3.73,8.77c-13.01,22.77-39.41,23.2-62.81,24.19-12.6,12.31-30.44,21.32-48.22,22.78-29.14,2.39-61.97-2.85-80-27.99h-1.47c-17.75,26.55-56.72,31.98-86.22,26.71-15.37-2.74-29.28-10.9-40.5-21.5-25.21-1.01-48.84-1.2-63.48-24.52-1.07-1.7-1.41-4.62-2.07-5.43-.62-.75-10.45-5.13-13.22-7.29-8.79-6.86-14.1-16.82-17.98-27.02-1.36-3.58-1.52-8.76-3.11-11.89-1.25-2.46-5.55-6.48-7.46-9.54-15.14-24.37-14.85-57.15-4.15-83.21,6.44-15.7,17.73-29.11,24.35-44.65s3.42-15.78,2.78-31.13c-.5-12.03,2.29-29.69,1.06-40.07-.7-5.94-4.48-12.58-5.06-19.93-2.26-28.63,10.83-62.29,23.52-87.55,1.7-3.39,4.77-6.44,6.25-9.75,3.88-8.65.66-26.14,1.22-36.78s4.96-24.52,5.12-33.97c.22-12.56-2.87-26.12-2.12-40.03.27-4.95,2.95-13.94,2.57-18-.17-1.82-3.25-7.6-4.08-10.41-.88-2.98-.09-6.31-1.66-9.34-1.35-2.6-8.65-8.36-11.59-13.41-11.71-20.05-7.83-30.25-4.28-50.88,5.43-31.56,9.85-46.11,28.27-72.73,6.32-9.14,7.05-9.8,11.94-20.06,4.16-8.75,14.32-14.35,22.9-18.1,1.73-.76,8.51-2.35,8.81-2.69.32-.37.68-4.47,1.38-6.12,3.95-9.26,13.33-14.64,23.3-14.79,4.42-.06,9.63,1.85,14,2.07,11.71.57,22.16-5.02,33.46-7.02C179.83,32.61,209.24-3.16,251.38.22c32.84,2.63,58.19,38.27,48.45,70.02ZM397.19,122.92c-2.14-2.02-3.69-5.74-6.88-8.63-4.46-4.04-16.31-9.05-18.49-11.51-2.09-2.38-.34-8.87-6.05-13.95-9.9-8.82-20.17-2.63-30.44-2.57-10.51.06-18.7-4.61-27.98-8.01-2.67-.98-11.49-2.71-12.53-3.47-2.4-1.75.76-8.01,1.01-11.03,1.9-23.44-7.86-44.44-30.03-53.95-43.3-18.58-84.82,22.82-69,66.41-1.21,1.68-34.42,10.07-38.46,10.05-3.26-.02-7.56-1.72-11.02-1.98-14.03-1.04-23.76,3.88-24.55,18.91-11.25,2.16-28.13,9.48-32.72,20.77s-7.75,13.34-14.62,23.38c-9.23,13.5-18.75,32.83-22.12,48.88-4.85,23.07-11.3,51.75,6.03,71.05,1.88,2.1,7.36,5.57,8,7,1.07,2.39.3,6.05.96,9.04.89,4.09,4.45,10,4.64,12.44.58,7.19-3.12,21.44-3.15,29.97-.03,9.1,3.06,20.69,2.86,29.04-.19,7.84-4.11,19.18-4.78,28.01-.89,11.74,1.12,24.55-.02,35.98-.94,9.45-6.14,13.42-9.87,21.13-12,24.8-26.78,62.55-20.26,90.01.93,3.91,4,9.68,4.21,12.88.62,9.35-2.59,22.07-2.11,33.03.79,18.01,5.64,20.59-2.1,38.82s-20.52,32.77-26.87,51.13c-9.05,26.11-7.3,53.8,8.19,76.84,7.22,10.74,5.68,11.64,10.07,22.93,3.11,8.02,9,15.95,15.85,21.15,3.14,2.38,11.13,5.26,12.41,6.59,1.2,1.25,1.8,4.87,3.07,6.93,13.99,22.91,38.21,19.79,61.76,22.24,24.6,28.05,81.46,30.46,109.69,7.33l15.48-16.51c25.18,40.55,93.39,42.49,125.21,9.2,21.1-2.17,48.46-.03,60.74-21.26,1.61-2.78,2.67-8.03,4.12-9.88,1.16-1.47,6.21-3.62,8.45-5.55,6.57-5.64,11.59-12.12,14.75-20.25,1.96-5.04,2.77-13.3,4.81-17.19,1.23-2.35,6.19-6.52,8.25-9.75,12.14-19,12.84-47.15,6.67-68.32-6-20.6-20.52-36.84-28.68-56.32-7.36-17.57-2.53-20.79-1.78-38.14.48-10.95-2.73-23.67-2.11-33.03.24-3.66,3.85-10.55,4.77-15.31,5.1-26.27-8.98-63.17-20.52-86.88-2.29-4.71-6.7-9.81-8.68-14.32-4.09-9.28-.77-30.89-1.51-42.49-.58-9.16-4.86-21.38-5.03-29.06-.25-11.31,2.61-24.24,2.08-37-.17-4.21-2.82-14.54-1.86-17.74.56-1.88,5.84-5.96,7.31-9.73,2.05-5.28,1.28-10.32,1.72-15.78,17.02-7.23,24.45-29.23,22.67-46.58-.96-9.33-4.69-27.63-7.16-36.84-8.29-30.83-22.19-47.21-44.37-68.13ZM267.87,52.55c0,12.72-10.31,23.03-23.03,23.03s-23.03-10.31-23.03-23.03,10.31-23.03,23.03-23.03,23.03,10.31,23.03,23.03ZM262.39,52.6c0-9.7-7.86-17.56-17.56-17.56s-17.56,7.86-17.56,17.56,7.86,17.56,17.56,17.56,17.56-7.86,17.56-17.56Z"/>
</svg>