<?xml version="1.0" encoding="UTF-8"?>
<svg id="_レイヤー_1" data-name="レイヤー 1" xmlns="http://www.w3.org/2000/svg" width="204.61mm" height="305.86mm" viewBox="0 0 580 867">
  <path d="M344.99,77.99c7.56.54,16.37,7.23,22.73,8.79,17.5,4.28,39.25-8.43,51.11,10.89,1.86,3.03,1.98,7.11,3.71,9.29,2.58,3.25,14.17,8.25,18.49,12.51,23.73,23.4,42.89,45.86,51.46,79.54,6.44,25.33,13.17,58.52-6.47,79.52-2.22,2.37-7.36,5.23-8.47,7.53-1.52,3.14-1.28,8.7-2.5,12.5-1.43,4.46-6.89,9.82-7.15,12.93-.49,5.85,2.09,16.49,2.14,22.96.07,9.06-2.44,19.4-2.09,28.08.43,10.63,4.5,23.46,5.09,34.94.55,10.69-2.75,26.88,1.22,35.78,1.48,3.31,4.55,6.36,6.25,9.75,12.69,25.27,25.77,58.92,23.52,87.55-.58,7.35-4.36,13.99-5.06,19.93-1.22,10.38,1.56,28.04,1.06,40.07-.64,15.35-3.96,15.3,2.78,31.13,6.62,15.53,17.91,28.95,24.35,44.65,10.48,25.53,11.07,58.65-3.77,82.59-2.05,3.32-6.61,7.8-7.85,10.15-1.57,2.99-1.79,8.36-3.11,11.89-3.94,10.53-8.79,19.16-17.45,26.55-2.11,1.8-6.87,3.79-7.76,4.73s-2.49,6.59-3.73,8.77c-13.01,22.77-39.41,23.2-62.81,24.19-12.6,12.31-30.44,21.32-48.22,22.78-29.14,2.39-61.97-2.85-80-27.99h-1.47c-17.75,26.55-56.72,31.98-86.22,26.71-15.37-2.74-29.28-10.9-40.5-21.5-25.21-1.01-48.84-1.2-63.48-24.52-1.07-1.7-1.41-4.62-2.07-5.43-.62-.75-10.45-5.13-13.22-7.29-8.79-6.86-14.1-16.82-17.98-27.02-1.36-3.58-1.52-8.76-3.11-11.89-1.25-2.46-5.55-6.48-7.46-9.54-15.14-24.37-14.85-57.15-4.15-83.21,6.44-15.7,17.73-29.11,24.35-44.65s3.42-15.78,2.78-31.13c-.5-12.03,2.29-29.69,1.06-40.07-.7-5.94-4.48-12.58-5.06-19.93-2.26-28.63,10.83-62.29,23.52-87.55,1.7-3.39,4.77-6.44,6.25-9.75,3.88-8.65.66-26.14,1.22-36.78s4.96-24.52,5.12-33.97c.22-12.56-2.87-26.12-2.12-40.03.27-4.95,2.95-13.94,2.57-18-.17-1.82-3.25-7.6-4.08-10.41-.88-2.98-.09-6.31-1.66-9.34-1.35-2.6-8.65-8.36-11.59-13.41-11.71-20.05-7.83-30.25-4.28-50.88,5.43-31.56,9.85-46.11,28.27-72.73,6.32-9.14,7.05-9.8,11.94-20.06,4.16-8.75,14.32-14.35,22.9-18.1,1.73-.76,8.51-2.35,8.81-2.69.32-.37.68-4.47,1.38-6.12,3.95-9.26,13.33-14.64,23.3-14.79,4.42-.06,9.63,1.85,14,2.07,11.71.57,22.16-5.02,33.46-7.02-9.99-40.61,19.43-76.38,61.56-73,32.84,2.63,58.19,38.27,48.45,70.02ZM442.35,130.66c-2.14-2.02-3.69-5.74-6.88-8.63-4.46-4.04-16.31-9.05-18.49-11.51-2.09-2.38-.34-8.87-6.05-13.95-9.9-8.82-20.17-2.63-30.44-2.57-10.51.06-18.7-4.61-27.98-8.01-2.67-.98-11.49-2.71-12.53-3.47-2.4-1.75.76-8.01,1.01-11.03,1.9-23.44-7.86-44.44-30.03-53.95-43.3-18.58-84.82,22.82-69,66.41-1.21,1.68-34.42,10.07-38.46,10.05-3.26-.02-7.56-1.72-11.02-1.98-14.03-1.04-23.76,3.88-24.55,18.91-11.25,2.16-28.13,9.48-32.72,20.77s-7.75,13.34-14.62,23.38c-9.23,13.5-18.75,32.83-22.12,48.88-4.85,23.07-11.3,51.75,6.03,71.05,1.88,2.1,7.36,5.57,8,7,1.07,2.39.3,6.05.96,9.04.89,4.09,4.45,10,4.64,12.44.58,7.19-3.12,21.44-3.15,29.97-.03,9.1,3.06,20.69,2.86,29.04-.19,7.84-4.11,19.18-4.78,28.01-.89,11.74,1.12,24.55-.02,35.98-.94,9.45-6.14,13.42-9.87,21.13-12,24.8-26.78,62.55-20.26,90.01.93,3.91,4,9.68,4.21,12.88.62,9.35-2.59,22.07-2.11,33.03.79,18.01,5.64,20.59-2.1,38.82s-20.52,32.77-26.87,51.13c-9.05,26.11-7.3,53.8,8.19,76.84,7.22,10.74,5.68,11.64,10.07,22.93,3.11,8.02,9,15.95,15.85,21.15,3.14,2.38,11.13,5.26,12.41,6.59,1.2,1.25,1.8,4.87,3.07,6.93,13.99,22.91,38.21,19.79,61.76,22.24,24.6,28.05,81.46,30.46,109.69,7.33l15.48-16.51c25.18,40.55,93.39,42.49,125.21,9.2,21.1-2.17,48.46-.03,60.74-21.26,1.61-2.78,2.67-8.03,4.12-9.88,1.16-1.47,6.21-3.62,8.45-5.55,6.57-5.64,11.59-12.12,14.75-20.25,1.96-5.04,2.77-13.3,4.81-17.19,1.23-2.35,6.19-6.52,8.25-9.75,12.14-19,12.84-47.15,6.67-68.32-6-20.6-20.52-36.84-28.68-56.32-7.36-17.57-2.53-20.79-1.78-38.14.48-10.95-2.73-23.67-2.11-33.03.24-3.66,3.85-10.55,4.77-15.31,5.1-26.27-8.98-63.17-20.52-86.88-2.29-4.71-6.7-9.81-8.68-14.32-4.09-9.28-.77-30.89-1.51-42.49-.58-9.16-4.86-21.38-5.03-29.06-.25-11.31,2.61-24.24,2.08-37-.17-4.21-2.82-14.54-1.86-17.74.56-1.88,5.84-5.96,7.31-9.73,2.05-5.28,1.28-10.32,1.72-15.78,17.02-7.23,24.45-29.23,22.67-46.58-.96-9.33-4.69-27.63-7.16-36.84-8.29-30.83-22.19-47.21-44.37-68.13ZM294,363h9v-17c7.04,6.94,5.89,20.22,19,17v-33h-9v18l-9.99-17.51-9.01-.49v33ZM313.02,60.29c0,12.72-10.31,23.03-23.03,23.03s-23.03-10.31-23.03-23.03,10.31-23.03,23.03-23.03,23.03,10.31,23.03,23.03ZM307.54,60.34c0-9.7-7.86-17.56-17.56-17.56s-17.56,7.86-17.56,17.56,7.86,17.56,17.56,17.56,17.56-7.86,17.56-17.56ZM241,297h-16v6.01s7-.01,7-.01l-.15,6.86c-9.27,3.89-17.01-7.26-11.88-15.38,5.48-8.68,15.55-1.79,17.06-2.88,6.19-7.95-6.65-9.02-12.27-8.34-11.88,1.44-16.17,10.09-14.79,21.27,1.72,13.95,21.07,15.23,31.02,9.98v-17.5ZM265,330v33h22v-7.01s-13,0-13,0l.44-6.07,11.57-.93v-6.01s-12.01.01-12.01.01v-6.01s13.01.01,13.01.01v-7.01h-22.01ZM329,330v33h22v-7.01s-13.01.01-13.01.01v-6.43s12.01-.57,12.01-.57v-6.01s-12.01.01-12.01.01v-6.01s13.01.01,13.01.01v-7.01h-22.01ZM358,330v33h22v-7.01s-13.01.01-13.01.01v-6.43s12.01-.57,12.01-.57v-6.01s-12.01.01-12.01.01v-6.01s13.01.01,13.01.01v-7.01h-22.01ZM279,284v33h22v-7.01s-13.01.01-13.01.01v-6.43s12.01-.57,12.01-.57v-6.01s-12.01.01-12.01.01v-6.01s13.01.01,13.01.01v-7.01h-22.01ZM385.32,338.63c-.71,11.81,17.47,10.68,16.63,15.75-3.79,5.7-10.02.85-14.94-.39l-2.02,6.99c6.69,2.06,13.13,4.2,20.02,1.53,5.94-2.3,7.76-9.92,3.85-14.88s-15.23-4.12-13.92-10.04c.88-4,13.54.92,14.05.41l1.01-7c-7.78-1.43-23.99-3.8-24.68,7.63ZM199.48,330c-1.15.15-2.01-.39-1.46,1.47,1.51,5.09,8.32,12.97,9.51,17.5s.14,9.5.46,14.04h9.01c-2.72-13.13,7.18-21.58,10.99-33l-9.01.48-5.49,12.53c-2.22.46-1.22-.99-1.76-2.19-1.52-3.42-3.01-7.03-3.84-10.69-.36-.31-7.14-.29-8.41-.12ZM341,284v7.01s9,0,9,0v26h9v-26h9.01s0-7,0-7h-27ZM214.16,236.66c-1.36,4.38-.77,14.6,5.88,13.93l4.46-10.57c2.95,3.32-.2,9.49,6.49,8.98l3.51-8.98c1.6-.06,1.68,13.35,6.49,9.98,3.18-2.23-3.23-21.68-11.97-11-1.6-6.53-7.03-4.23-10.01,0,.81-3.66-3.74-5.9-4.85-2.34ZM292,252c-6.69-1.55-18.43,3.09-18.1-7.52.2-6.31,6.76-8.9,12.09-6.48v-7.99c3.26-.51,6.01,3.88,6.01,6.5v15.5ZM281.64,240.08c-6.22,1.05-2.79,13.64,2.92,6.98,2.89-3.37-.8-7.34-2.92-6.98ZM322.43,250.07c4.4,1.8,9.01.16,13.59.47,2.05-1.27-1.09-11.08-3-13.05-3.35-3.47-11.17-4.47-15-.98-.1,3.08,12.64-.63,11.97,4.5-6.65-4.06-16.72,5.32-7.56,9.07ZM309.75,236.26c2.6,2.44,3.67,9.13-1.47,9.52l-7.27.71c5.89,5.21,8.62.57,13.48-2.48,2.42,1.8,1.73,3.15.09,5.07-5.59,6.58-21.34,1.28-19.4-8.34,1.11-5.52,11.14-7.7,14.57-4.48ZM302.7,238.16c-1.18.34-1.85,1.56-2.69,2.34,7.54,7.28,9.66-4.37,2.69-2.34ZM248.61,246.89l7.38,2.59-7.99,2.01c12.6,8.52,16.62-4.6,14.86-15.34l-3.85-.72c-4.66,9.92-10.16,14.8-10.01-.44-8.64-1-4.85,8.9-.39,11.9ZM307.01,552c-1.8,1.77,4.55,3.87,5.47,3.9,2.62.07,6.49-1.93,6.54-4.89l3.72,2.48c-5.22,12.39-27.58,1.67-19.64-8.89,2.58-3.43,11.07-3.66,13.93-.12,6.2,7.67-3.72,10.56-10.02,7.53ZM312.9,545.09c-3.94-2.84-11.25,6.17.13,4.44,1.56-.68.24-4.17-.13-4.44ZM289.05,543.95c6.31-.78,15.71,7.39,8.93,12.54-2.1,1.6-10.98,3.51-13.08,1.1-.68-.89-1.92-11.09-1.99-13.09-.32-9.35,6.74-9.02,6.14-.55ZM289.01,547c.29,2.96-1.15,6.81,1.49,8.97,6.34-3.2,5.31-7.79-1.49-8.97ZM356,558.01c3.99-.24,8.37,1.32,10.99-2.51-3.87.06-7.11.3-10.02-2.97-7-7.86,6.85-15.91,12.6-8.6,1.52,1.94,2.52,13.26,1.53,14.61-2.62,3.56-12.54,3.55-15.11-.53ZM362.69,544.1c-2.9.71-3.99,6.11-1.16,7.88,3.2.39,4.29-2.39,5.04-4.92l-.99-2.11c-.83-.84-1.73-1.14-2.89-.85ZM337.03,541.44l-4.11,1.23,3.03,13.87,3.95.36,4.6-9.89,4.48,9.51,1.51,1.47c4.16-1.53,1.24-11.08-.95-13.03-4.96-4.43-10.73,1.94-11.55,1.05l-.97-4.56ZM225.5,546.98c5.18-5.06-7.32-14.07-10.5-8.23l-1.05,9.21-5.95,1.06c.63,3.79,6.05,2.45,6.88,3.1.78.61.44,9.4,5.12,6.38v-7.5s7.99,0,7.99,0l-1.66-2.83-6.9-1.1-.43-7.06c3.7,0,3.55,5.32,6.49,6.97ZM248.69,555.71c-6.67,8.16-26.3-3.46-15.22-11.74,10.17-7.59,20.04,5.84,15.22,11.74ZM239.73,545.13c-6.71,1.01-6.31,11.26,1.72,9.86,6.1-1.06,2.17-10.45-1.72-9.86ZM338.92,235.65c1.73,5.8.29,17.11,9.08,15.36-.61-3.45.7-10.57,5.27-9.88,1.98.3,3.67,3.54,5.71.37-4.18-5.23-8.71-3.61-13.97-1.5.5-4.32-2.18-7.81-6.09-4.35ZM252.96,545.47c.08,4.66,1.74,11.7,6.55,13.5l4.47-10.52,8.02,1.54c.08-6.61-8.86-5.55-12.98-2.99-.61-5.44-6.18-8.75-6.06-1.53ZM362.51,230.01c-3.58,1.81-.96,17.46,2.48,14.99,1.44-2.97,2.3-15.99-2.48-14.99ZM327.15,557.85l3.85.15c1.11-15.38-8.33-16.02-3.85-.15ZM326.25,542.25c3.71,7.38,5.14-1.68,3.6-4.09-1.15-1.81-6.67-2.01-3.6,4.09ZM388.99,211c-3.35,4.33-7.65,11.79-9.53,16.96-.34.94-1.32,3.25.53,3.03l9-19.99ZM284.56,247.06c2.89-3.37-.8-7.34-2.92-6.98-6.22,1.05-2.79,13.64,2.92,6.98ZM300.02,240.5c7.54,7.28,9.66-4.37,2.69-2.34-1.18.34-1.85,1.56-2.69,2.34ZM313.03,549.53c1.56-.68.24-4.17-.13-4.44-3.94-2.84-11.25,6.17.13,4.44ZM290.49,555.98c6.34-3.2,5.31-7.79-1.49-8.97.29,2.96-1.15,6.81,1.49,8.97ZM361.54,551.99c3.2.39,4.29-2.39,5.04-4.92l-.99-2.11c-.83-.84-1.73-1.14-2.89-.85-2.9.71-3.99,6.11-1.16,7.88ZM321.53,492.97c-.92-1.69-3.72-1.38-4.36.69-2.17,6.93,4.93,13.79,11.83,12.35,0,4.39-4.88,3.07-7.48,1.98l-.51,2c12.59,6.46,17.01-5.08,14.56-16.04-6.17-4.19-4.94,5-9.04,8.16-.78,1.12-2.67.32-3.28-.35-1.99-2.19-.51-6.58-1.71-8.78ZM247.32,500.3c2.39-2.85,6.56-1.91,9.68-2.79-2.16-3.38-14.17.85-10.93-4.42,1.54-2.51,11.99-.59,14.39,1.96,1.77,1.89,4.18,9.85,3.44,12.31-.4,1.33-7,1.73-8.39,1.63-3.51-.26-7.67-1.19-9.35-4.7-.34-1.38.28-2.93,1.16-3.99ZM252.62,501.07c-5.35,1.48,3.54,7.04,6.36,2.43-1.45-1.68-4.17-3.03-6.36-2.43ZM289.08,488.09c.08,6.14-2.67,20.57,5.91,20.91v-7.49c5.87-2.05,3.78,9.17,11,7.49.78-2.87-2.71-6.72-2.81-8.67-.08-1.59,2.51-3.16,1.81-5.32l-10.99,2-1.14-8.86-3.78-.06ZM266.08,493.64l2.14,13.13,4.73,1.19c1.27-4,1.79-8.95,6.04-10.96.58,2.5,1.21,12.32,5.5,10.99,3.14-.98-.19-11.26-1.74-12.73-2.7-2.54-8.1-1.14-10.25,1.72l-1.51-4.99-4.92,1.65ZM364.49,506.01c6.77,5.3,9.16-1.36,10.89-.96,1.31.31,3.31,4.37,6.62,2.94-.7-2.83-2.64-4.93-3.81-7.78-.51-1.25-.95-6.01-1.22-6.19-4.54-3.08-5.99,5.48-6.71,7.76-.29.91.07,3.09-1.75,2.2-2.32-1.13-3.87-8.42-3.52-10.99-8.08-1.52-4.71,9.72-.5,13.02ZM340.35,505.65c-10.37-10.79,14.88-20.91,17.48-3.92,1.23,8-12.14,9.47-17.48,3.92ZM352.44,501.03c0-2.68-2.18-4.86-4.86-4.86s-4.86,2.18-4.86,4.86,2.18,4.86,4.86,4.86,4.86-2.18,4.86-4.86ZM227.01,488c-1.7,1.18-.43,17.83.91,19.58,1.04,1.36,2.47,1.6,4.08,1.42-.25-1.82.36-11.73,3.49-11,3.36.79,1.21,12.55,7.51,10.99.91-8.71-2.16-15.75-12-13.99.35-3.16-.12-6.96-3.99-7ZM223.98,491.5c-2.89-4-25.94-2.95-25.96,0,2.46,2.89,6.69.89,9.87,1.61,1.96,1.67-.72,15.91,6.1,15.88l-.99-15.98c1.84-.18,10.99.81,10.98-1.51ZM258.98,503.5c-1.45-1.68-4.17-3.03-6.36-2.43-5.35,1.48,3.54,7.04,6.36,2.43ZM347.58,496.17c-2.68,0-4.86,2.18-4.86,4.86s2.18,4.86,4.86,4.86,4.86-2.18,4.86-4.86-2.18-4.86-4.86-4.86ZM250.5,330c10.18,1.68,11.85,13.97,2.52,18.5l6.98,14.49-9.04-.45c-3.55-13.23-10.47-17.38-8.95.46h-9.01v-33.01c5.37.62,12.38-.85,17.5,0ZM242,345c5.44.78,9.6-1.06,7.55-7.05l-6.59-1.54-.95,8.59ZM249.54,337.96l-6.59-1.54-.95,8.59c5.44.78,9.6-1.06,7.55-7.05ZM145.41,591.06c-5.16-1.23-4.92,11.87.21,14.82,4.64,2.68,5.59-.53,7.88-.53,3.86,0,1.97,1.06,8.16-.05,1.8-.32,3.77,1.91,5.32-.79-3.15-1.89-.81-10.98-3.51-11.5-4.24-.83-4.94,6.09-5.48,8.99-2.81,2.78-1.67-7.97-3.08-8.9l-3.98.33-1.94,9.57c-4.18-1.47-.03-11.09-3.58-11.94ZM225.99,594l-.99-6.99c2.9-.32,4.6.06,5.54,2.94-.18,2.82,1.77,16.95.99,18.08-1.8,2.62-3.95-.76-5.61-.59-3.6.37-4.69,3.02-9.45-.43-8.76-6.33,1-16.68,9.52-13.02ZM219.24,597.25c-5.25,5.75,3.35,12.38,6.68,3.39l-3.9-4.16c-.81-.35-2.28.22-2.78.76ZM453.99,594l-.99-6.99c2.9-.32,4.6.06,5.54,2.94-.18,2.82,1.77,16.95.99,18.08-1.8,2.62-3.95-.76-5.61-.59-3.6.37-4.69,3.02-9.45-.43-8.76-6.33,1-16.68,9.52-13.02ZM447.24,597.25c-5.25,5.75,3.35,12.38,6.68,3.39l-3.9-4.16c-.81-.35-2.28.22-2.78.76ZM401,602.01c4.3,5.72,9.94,2.86,13.5-1.99l2.31,3.32c-4.84,9.95-25.59,3.61-20.28-8.32,3.05-4.07,11.7-5.74,14.91-.96,5.25,7.84-4.5,9.82-10.43,7.95ZM406.95,594.03c-1.07-.77-6.35,1.26-5.95,3.46,3.66,4.65,9.5-.9,5.95-3.46ZM240,602.01c3.99,5.71,10.03,2.5,13.5-1.99l2.42,3.35c-8.08,13.97-30.97-4.37-17.87-10.81,14.13-6.95,21.04,14.1,1.95,9.46ZM245.95,594.03c-1.07-.77-6.35,1.26-5.95,3.46,3.66,4.65,9.5-.9,5.95-3.46ZM129.99,607.99c-4.44-3.05-12.56,1.36-16.06-3.42-4.42-6.03,5.48-8.5,10.07-8.07-3.28-3.41-6.99-1.86-10.99-1.51l.44-3.05c11.79-4.44,19.06,4.76,16.55,16.05ZM117,602.99c1.9.93,8.69,2.11,7.99-1.47-.43-2.22-8.73-2.7-7.99,1.47ZM307.57,592.99c-4.83-5.8-7.59,5.33-2.06,11,6.59,6.75,8.52.59,11.13.1,1.51-.29,4.67,3.98,7.36,2.9-.83-4.9-5.05-7.1-4.43-13.06l-5.48-.84-2.09,9.9c-5.16.45-3.77-9.22-4.42-10ZM360.49,595.99c2.11-1.53,1.39-1.79.74-3.71-1.89-5.61-5.07-5.77-10.56-5.32l-2.1,10.1-5.57.94,1.17,2.82,5.83.17,1.64,7.04,3.36-.04-.99-6.99,9-1.01c.81-4.39-8.45-2.45-9.01-2.99v-7c3.48-.8,3.61,6.57,6.49,5.99ZM297.49,595.99c2.11-1.53,1.39-1.79.74-3.71-1.91-5.68-5.1-5.71-10.61-5.34l-1.61,11.06h-6c1.2,3.15,3.97,3.11,6.93,3.06l1.63,6.99,3.43-.05.06-6.96,7.94-1.05-1.67-2.82-7.33-.17v-7.01s2.93.06,2.93.06c.47,1.44,1.09,6.43,3.56,5.94ZM193.99,605.51c5.18,5.6,4.77-9.98,10.01-9.51.16,2.33,2.02,13.68,5.99,10.99,1.43-10.56-2.63-17.8-13.98-12v-4.01c-7.84-2.57-4.56,11.77-2.02,14.52ZM421.99,605.51c5.18,5.6,4.77-9.98,10.01-9.51.16,2.33,2.02,13.68,5.99,10.99,1.43-10.56-2.63-17.8-13.98-12v-4.01c-7.84-2.57-4.56,11.77-2.02,14.52ZM177.77,591.19c9.45-1.08,16.37,14.35,4.49,16.61-12.95,2.46-19.08-14.95-4.49-16.61ZM183.36,599.9c0-2.7-2.18-4.88-4.88-4.88s-4.88,2.18-4.88,4.88,2.18,4.88,4.88,4.88,4.88-2.18,4.88-4.88ZM372.57,595.94c-.79-3.25-6.22-7.94-7.48-3.31-.56,2.05,2.59,14.43,5.56,15.24,4.87,1.33,2.33-7.11,5.97-9.78,3.18-2.33,4.73,1.73,8.38.91-1.3-6.1-8.03-5.16-12.42-3.06ZM261.95,606.54c6.45,6.77,3.56-8.98,9.72-9.36,1.26-.08,6.32,4.34,6.32.33-4.57-4.68-8.48-3.15-13.98-1.51l-1.09-4.91c-8.18-3.09-3.14,13.17-.96,15.45ZM327,604.5c0,.33,2.06,3.38,2.51,3.5,2.21,0,2.48-1.73,2.57-3.49.22-4.18-2.15-10.97-1.25-15.85l-1.36-1.65-2.48,1.49v16ZM388,595.99c-.81.76-.05,15.14,5,11.5l-1.15-11.34-3.85-.15ZM387.03,588.49c1.4,2.88,1.93,6.13,5.96,5.51l-1.01-7-4.96,1.49ZM225.92,600.64l-3.9-4.16c-.81-.35-2.28.22-2.78.76-5.25,5.75,3.35,12.38,6.68,3.39ZM453.92,600.64l-3.9-4.16c-.81-.35-2.28.22-2.78.76-5.25,5.75,3.35,12.38,6.68,3.39ZM401.01,597.49c3.66,4.65,9.5-.9,5.95-3.46-1.07-.77-6.35,1.26-5.95,3.46ZM240.01,597.49c3.66,4.65,9.5-.9,5.95-3.46-1.07-.77-6.35,1.26-5.95,3.46ZM124.99,601.52c-.43-2.22-8.73-2.7-7.99,1.47,1.9.93,8.69,2.11,7.99-1.47ZM178.48,595.02c-2.7,0-4.88,2.18-4.88,4.88s2.18,4.88,4.88,4.88,4.88-2.18,4.88-4.88-2.18-4.88-4.88-4.88ZM333,684c5.73-.21,19.63-1.41,16.59,8.03-1.14,3.53-3.34,1.76-4.58,3.95,5.3.41,7.69,6.04,4.88,10.41-2.83,4.42-12.25,2.02-16.89,2.6v-25ZM338,694c3.6.3,8.13.35,7.97-4.43-.58-1.86-6.08-2.76-7.96-2.58v7.01ZM345.76,704.76c1.6-2.13,1.13-4.47-.75-6.27l-7.01-.49v8.01s7.76-1.25,7.76-1.25ZM254,709h4c-2.29-19.53,10.6-20.35,8.01,0h3.99c-.3-5.73,2.22-18.23-6.53-18.08-2.63.04-3.15,2.14-5.46,2.08v-10s-4.01,0-4.01,0v26ZM308,702h-13c1.85,5.38,6.06,5.78,10.97,3.99l1.03,2.99c-6.17,1.74-14.85,1.16-15.96-6.56-2.14-14.85,19.13-15.71,16.97-.42ZM304,698.99c1-6.05-7.89-6.6-8.97-1.48-.63,3,7.44.87,8.97,1.48ZM326.74,693.25c.95,1.03,2.93,8.08,2.26,8.74-3.47.19-7.05-.25-10.52,0-1.51.11-2.87-.78-2.49,1.51,1.81,6.92,10.75-.42,11.01,5.49-7.52,2.05-15.37.65-15.65-8.65-.26-8.64,10.38-12.51,15.39-7.09ZM323.73,695.27c-3-2.79-8.45-1.01-7.73,3.72h8.99c.48-.45-.72-3.22-1.26-3.72ZM229,684v4s8,0,8,0v21h4v-21l7.02-.48.98-3.52h-20ZM275,709h4c-.59-8.6.08-13.45,9.02-15.5,1.85-5.51-7.78-.28-9.01,1.5v-4.01s-4.01,0-4.01,0v18ZM345.01,698.49l-7.01-.49v8.01s7.76-1.25,7.76-1.25c1.6-2.13,1.13-4.47-.75-6.27ZM345.97,689.58c-.58-1.86-6.08-2.76-7.96-2.58v7.01c3.6.3,8.13.35,7.96-4.43ZM295.02,697.52c-.63,3,7.44.87,8.97,1.48,1-6.05-7.89-6.6-8.97-1.48ZM316,698.99h8.99c.48-.45-.72-3.22-1.26-3.72-3-2.79-8.45-1.01-7.73,3.72ZM265.5,284c9.5,1.68,9.74,14.61,1.52,18.5l6.98,14.49-9.04-.45c-2.68-3.67-1.49-11.32-7.44-11.58-2.12-.09-1.31.03-1.53,1.51-.29,1.91.4,10.15.01,10.54h-9.01v-33.01c5.6.69,13.19-.94,18.5,0ZM256,299l7.51-1.99.53-3.49c-.57-3.48-5.16-3.72-8.05-3.53v9.01ZM263.51,297.02l.53-3.49c-.57-3.48-5.16-3.72-8.05-3.53v9.01l7.51-1.99ZM241.45,555c6.1-1.06,2.17-10.45-1.72-9.86-6.71,1.01-6.31,11.26,1.72,9.86ZM337,316.99l-9.05-.43-1.82-5.98-9.16-.12-2.06,6.44-8.9.09,10.1-32.89,10.42.88,10.48,32.01ZM324,304c.2-1.73-.16-3.36-.45-5.05s-1.01-6.15-2.54-6.94l-3.01,11.99h6ZM323.55,298.95c-.29-1.64-1.01-6.15-2.54-6.94l-3.01,11.99h6c.2-1.72-.16-3.36-.45-5.04ZM184.5,330c8.26,1.17,13.02,8.36,9.27,16.27-2.75,5.79-10.07,6.52-15.76,6.74v10s-9.01,0-9.01,0v-33c4.87.48,10.79-.66,15.5,0ZM178,346c11.5,1.31,11.73-10.66,0-10.01v10.01ZM178,336v10.01c11.49,1.31,11.72-10.66,0-10.01Z"/>
</svg>