<?xml version="1.0" encoding="UTF-8"?>
<svg id="_レイヤー_1" data-name="レイヤー 1" xmlns="http://www.w3.org/2000/svg" width="204.61mm" height="305.86mm" viewBox="0 0 580 867">
  <path d="M167,405.02c-2.93-.66-5.47-3.78-7.52-6.01-34.56-37.51-33.02-72.24-33.53-120.47-.14-13.2.63-27.34,3.91-40.17,1.52-5.96,6.34-14.33,7.07-18.93,1.51-9.5-.41-23.71.02-33.98,1.25-29.6,6.07-52.6,22.63-77.37,5.09-7.62,11.96-13.83,15.59-22.41,4.08-9.64,5.42-21.14,8.8-31.2,8.94-26.66,26.08-47.91,57.07-43.03,6.84,1.08,11.36,4.82,17.36,7.58,17.6-10.04,38.35-11.35,56.93-3.23,34.34-24,63.03-2.23,75.11,32.25,3.82,10.89,5.47,25.76,10.36,35.64,3.73,7.53,12.65,16.42,17.59,24.41,11.07,17.9,16.56,35.4,18.57,56.43,1.05,10.93-.7,28.32,1.24,37.76.79,3.84,5.03,8.7,6.65,12.35,11.33,25.43,12.67,38.2,12.08,65.84-.86,40.37,3.27,71.95-22.55,106.45-3.3,4.42-17.88,18.47-17.44,22.55,13.76,17.9,24.83,38.11,32.78,59.29,7.27,19.37,12.21,37.75,10.13,58.62-1.3,12.99-9.67,37.16-8.79,48,1,12.28,10.76,47.54,15.44,59.61,3.62,9.35,13.12,19.91,17.66,30.34,14.44,33.25,9.98,68.6-6.18,100.22l.47,1.44c42,28.37,27.49,79.69-23.91,83.05-17.65,1.15-33.17-4.08-50.03-8.05-2.55.26-4.29,4.55-6.49,6.53-16.87,15.19-43.99,14.93-65.57,13.53-17.66-1.15-32.59-9.87-42.95-24.03-7.51,10.11-18.52,17.93-30.74,21.24-14.39,3.89-45.64,4.56-59.77.25-10.35-3.16-17.19-8.87-23.65-17.4-23.83,6.18-47.99,12.73-72.03,3.07-28.98-11.64-34.18-46.53-13.34-68.7,2.16-2.3,11.99-9.36,12.03-10.93-16.17-31.64-20.62-66.98-6.18-100.22,4.53-10.44,14.04-20.99,17.66-30.34,1.83-4.74,2.48-10.94,4.02-15.98,3.59-11.75,10.89-32.82,11.55-44.53.6-10.63-7.74-34.2-9.04-46.98-2.54-24.97,6.06-50.25,16.13-72.85,8.02-18.01,18.03-34.66,30.86-49.62ZM400.18,836.16c2.21-1.31,29.32,6.74,34.6,7.56,20.83,3.22,50.13-.11,59.4-22.04,10.15-24.02-4.77-42-24.16-54.18,18.52-29.46,23.1-67.88,9.16-100.18-4.76-11.02-14.47-21.38-18.21-31.79-4.67-13-15.95-53.64-14.84-65.92,2.52-27.75,13.01-42.09,6.56-72.81-6.3-30.01-22.85-62.88-42.41-86.29,2.6-10.42,11.28-15.87,17.7-24.04,24.59-31.33,23.68-60.93,24.07-98.93.25-24.18.65-40.54-8.87-63.22-2.16-5.16-10.48-18.36-11.13-21.87-1.57-8.42.51-22.62,0-32-1.21-21.98-6.99-41.79-18.63-60.37-4.99-7.96-13.82-16.6-17.6-24.4-5.64-11.64-7.18-27.34-12.07-39.93-11.72-30.17-38.92-47.21-67.28-23.72-19.47-9.27-41.03-8.2-58.98,3.98-22.44-18.89-47.47-10.16-61.29,13.68-10.37,17.89-9.88,40.26-20.96,57.04-14.69,22.24-24.95,31.59-29.92,60.08-3.71,21.28.28,42.07-2.4,61.6-.65,4.77-4.8,11.45-6.42,16.58-9.88,31.25-1.2,67.14-3.47,99.49,3.68,17.49,11.12,36.72,22,51,4.14,5.43,14.49,13.71,17.03,17.97.63,1.05,1.14,1.58,1,3-.11,1.1-11.89,14.42-13.87,17.24-16.95,24.11-36.31,70.25-34.17,99.8,1.09,15.06,7.53,31.49,8.86,46.13,1.11,12.28-10.17,52.92-14.84,65.92-3.74,10.41-13.45,20.77-18.21,31.79-13.95,32.3-9.36,70.72,9.16,100.18-19.72,12.37-34.56,30.62-23.84,54.85s42.38,24.55,64.04,20.33c9.44-1.84,18.57-5.45,28.17-6.76,4.71,9.18,11.95,15.27,21.87,18.35,13.03,4.05,48.3,3.1,61.02-1.54,12.64-4.61,21.5-13.28,28.26-24.72,7.47,12.18,17.4,22.45,31.51,26.47,11.88,3.39,44.04,3.1,55.79-.19,9.27-2.59,19.27-9.22,23.38-18.14ZM314.32,66.63c0,13.42-10.88,24.3-24.3,24.3s-24.3-10.88-24.3-24.3,10.88-24.3,24.3-24.3,24.3,10.88,24.3,24.3ZM308.98,66.6c0-10.48-8.49-18.97-18.97-18.97s-18.97,8.49-18.97,18.97,8.49,18.97,18.97,18.97,18.97-8.49,18.97-18.97ZM295,333h8v-16c2.94,1.93,7.44,14.77,9.2,15.79,1.56.91,5.72-.16,7.8.21v-31l-6.35.16-1.65,1.34v15.5l-9.16-16.84-7.84-.16v31ZM246,273h-14v6.01s6.01-.01,6.01-.01v7.01c-14.05,3.62-16.85-17.18-4.24-18.82,3.56-.47,5.8,1.97,9.18,1.78l.98-5.89c-14.67-6.59-31.47,2.88-25.41,19.92,3.75,10.55,18.95,11.42,27.49,6.51v-16.5ZM233,333v-31c15.07-1.96,31.73,4.84,24.19,22.69-4.02,9.52-15.57,8.34-24.19,8.31ZM241,327c13.66,1.53,14.17-21.07,0-18v18ZM268.5,262c5.94,1.05,7.88,6.64,6.06,12.07-.9,2.69-4.96,3.54-4.52,5.37,2.13.87,6.55,12.03,5.96,12.56l-8.04-.45c-2.92-4.01-.93-10.96-7.45-10.56l-.51,11.02h-8.01v-30.01c5.01.61,11.75-.84,16.5,0ZM260,267l.46,8.04c1.13,1.84,4.74-.11,6.08-1l-.03-5.06-6.51-1.99ZM279.86,302.14l10.14,30.85-8.06-.43-2.56-5.44-7.76-.18-1.72,5.95-7.89.1c-1.12-1.06,8.05-27.98,9.08-29.41,1.88-2.59,5.88-1.6,8.77-1.44ZM279,320.99l-3.99-10.98-2.01,10.99h6ZM334,291.99l-8.95-.04-.93-5.37-8.97-.44-1.18,5.82-8.95.04,10.14-29.85,9.37.84,9.48,29.01ZM322,280c.29-2.31-.37-4.43-.88-6.63-.27-1.19-.57-4.38-2.12-4.36l-2.01,10.99h5.01ZM327,302v31h20v-6.01s-12.01.01-12.01.01v-6.43s11.01-.57,11.01-.57v-6.01s-11.01.01-11.01.01v-5.01s12.01.01,12.01.01v-7.01h-20.01ZM281,262v30h20v-6.01s-10.36-.14-10.36-.14c-1.56-.46-1.73-1.83-1.73-3.36,0-.9.07-1.78.52-2.57l10.57-.92v-6.01s-11.01.01-11.01.01v-5.01s12.01.01,12.01.01v-6.01h-20.01ZM338,262v6.01s8,0,8,0v24h8v-24h9.01s0-6,0-6h-25ZM208.99,210.99c.39,3.48-1.26,13.63,1.99,15.51l4.93.4,3.59-10.92,4.45,9.55,3.04.46,3.51-9.98,2.98,9,4.51.98c.89-8.9-3.7-19.6-12.98-11-1.75-6.55-7.91-4.77-11.01,0v-4.01s-5.02,0-5.02,0ZM289.86,206.14c3.44,2.16.97,18.95,3.14,22.85-5.55-1.41-18.43,2.47-19.97-5.52-1.74-8.99,5.35-11.41,12.97-10.48l-1-6.99,4.85.14ZM278.14,224.85c3.74,2.42,5.52-.81,7.78-3.48l-4.57-5.28c-4.13.77-3.69,5.59-3.22,8.76ZM249.49,221.06c-4.94-.92-2.51-7.91-3.96-10.08-.97-1.45-3.05-1.45-4.05,0-3.91,5.69,5.39,17.9,12.51,13.03-.58,5.29-5.3,4.14-8.98,3-2.48,2.4,10.5,8.43,14.76-.73,1.83-3.94,2.9-19.15-3.65-15.13-1.05,2.53-3.49,9.93-6.63,9.92ZM301,222.01c4.12,5.7,10.95,2.79,14.5-1.99l2.34,3.31c-3.36,9.29-22.2,5.17-22.82-3.88-.8-11.7,20.71-12.03,18.54.56-4.02,3.23-7.86,2.86-12.56,2ZM308,214l-6.41.91-.53,3.02,6.94,1.07v-5.01ZM333,216.99c-2.36-5.74-9.3-.77-12.98-4.49,11.15-8.22,22.22,3.53,19.01,15.06-4.81-.53-9.69,1.22-14.26-.84-9.56-4.31,1.08-13.54,8.23-9.73ZM334,221.01c-1.62-1.14-9.91-2.95-7.99,1.48,1.05,2.43,8.55,2.54,7.99-1.48ZM343,210c-1.72,3.25,3.29,24.68,8.53,17.03,3.23-4.72-1.97-13.46,11.46-8.03-.13-7.47-9.36-5.03-13.99-2.99-.13-4.02-1.52-6.77-6.01-6.01ZM367.51,205.01c-3.53,1.81-1.11,18.6,2.48,15.99,1.37-2.89,2.45-17.02-2.48-15.99ZM193.01,209.01c2.77,10.01,8.06,20.6,13.98,28.99l-13.98-28.99ZM397.99,208c-1.5.23-1.87,1.89-2.51,2.98-2.88,4.86-8.16,14.86-10.02,19.99-.34.94-1.32,3.25.53,3.03l12-25.99ZM381.99,214.01l-6.54,15.94.54,4.04,6-19.99ZM241,309v18c13.66,1.53,14.17-21.07,0-18ZM260.46,275.04c1.13,1.84,4.74-.11,6.08-1l-.03-5.06-6.51-1.99.46,8.04ZM275.01,310.01l-2.01,10.99h6s-3.99-10.99-3.99-10.99ZM321.13,273.37c-.27-1.19-.57-4.38-2.12-4.36l-2.01,10.99h5.01c.29-2.3-.37-4.42-.88-6.63ZM285.93,221.36l-4.57-5.28c-4.13.77-3.69,5.59-3.22,8.76,3.74,2.42,5.52-.81,7.78-3.48ZM301.59,214.91l-.53,3.02,6.94,1.07v-5.01l-6.41.91ZM326.01,222.49c1.05,2.43,8.55,2.54,7.99-1.48-1.62-1.14-9.91-2.95-7.99,1.48ZM204.93,533.43c-2.62,5.38-.59,15.53,6.61,15.66,2.72.05,4.32-1.73,4.96-1.72.71,0,2.04,1.75,4,1.76,2.65,0,5.27-3.47,9.5-1.13l-.99-13-5.97.05c-.06,1.55-1,9.56-3.53,8.96l-1.55-9.98c-7.39-.46-4.01,4.66-5.85,9.59-.52,1.38.32,1.7-2.1,1.39-2.58-4.65,3.07-14.09-5.08-11.57ZM348,599c-2.19.99-4.53-1.58-5.52-1.63-1.74-.08-2.88,2.34-7.5,1.17-13.01-3.31-5.32-20.35,7.01-15.55.91-.99-2.65-7.23.56-7.98,2.61-.61,5.44,4.72,5.44,6.49v17.5ZM335.63,586.06c-6.76,6.22,2.39,14.11,6.12,4.43-1.31-1.64-3.79-5.11-6.12-4.43ZM300,551c-6.7-2.22-13.02,2.87-18.01-3.48-6.55-8.33,4.01-14.34,12-12.52l-1-6.99,4.87.13c.32.2,2.13,6.99,2.13,7.37v15.5ZM288.64,538.08c-3.79.63-5,7.89-1.04,9.84,2.95-.41,5.24-2.7,6.15-5.44-.97-1.22-3.59-4.66-5.11-4.4ZM308,491.01c3.76,6.01,11.07,3.01,14.5-1.99l2.53,3.49c-4.06,7.84-16.25,6.64-21.03,0-8.42-11.71,14.2-18.55,16.62-6.53,1.33,6.62-8.15,6.46-12.62,5.04ZM315,487.99c1.72-5.78-5.38-6.63-6.99-2.48-.97,2.5,5.88,2.65,6.99,2.48ZM309,544.01c2.1,3.82,7.78,3.84,11,1.48,2.4-1.76,2.4-7.22,5.81-.14-5.68,13.1-31.46-.45-20.34-10.37s28.07,12.84,3.52,9.03ZM309.07,539.92c8.9,4.2,9.72-6.62.52-3.01l-.52,3.01ZM319,427c-.65,5.61.25,10.12,5.42,13.08l7.57,2.41c-2.44,3.6-5.72,1.12-8.99,2.01,13,10.18,18.5-5.08,15.52-16.52-5.88-3.61-5.89,7.85-11.03,10.01-3.72-2.79-3.82-6.66-3.5-10.99h-5.01ZM286.01,591c2.18,7.15,10.31,3.65,13.5-1l2.43,1.58c2.25,7.46-16.03,9.63-20.99.97-7.46-13.02,18.58-18.61,16.92-3.23-1.09,3.35-9.23,3.35-11.86,1.68ZM293,587.99c.84-1.14-1.01-4.54-2.64-4.84l-5.34,3.35c.98,2.05,7.05,2.75,7.98,1.49ZM360,496.01c4.29.29,7.75,1.9,12-.03.76-3.36-4.3-1.57-7.05-2.43-8.57-2.69-6.03-17.07,6.34-14.34,6.08,1.34,6.32,11.23,5.8,16.31-.7,6.9-14.38,6.29-17.09.48ZM365.11,489.89c3.7,2.01,6.97-1.27,6.76-5.18-3.98-6.22-8.21-.41-6.76,5.18ZM289.04,481.97c5.4-.14,13.69,3.75,11.79,10.31-1.32,4.56-13.8,7.37-16.27,3.66-1.96-2.94-2.5-17.09-.64-19.52,3.54-4.62,6.25,1.53,5.12,5.54ZM289,494c6.95.9,8.05-7.04,1.48-8.99-2.9-.86-.94,7.35-1.48,8.99ZM244.27,441.74c-5.38-5.87,5.54-10.52,10.72-9.24-3.03-3.5-6.47-2.42-10.37-1.57l-1.62-3.92c10.17-2.66,18.44,1.32,19.01,12.52.11,2.09.42,4.1-1.51,5.44-4.15-3.61-11.94,1.45-16.23-3.24ZM255.93,437.09c-10.1-3.73-11,4.54.08,2.91l-.08-2.91ZM191.99,550c-5.44-1.57-12.4,1.6-17.07-2.41-6.38-5.48,4.7-12.02,10.07-8.58v-1.98s-12-1.02-12-1.02l.07-2.91c13.1-4.58,19.75,4.61,18.93,16.92ZM181.66,541.22c-1.25.11-4,1.69-3.65,3.26.57,2.62,9.9,2.14,7.53-1.51-1.09-.86-2.4-1.88-3.88-1.75ZM287.97,424.49c2.34,7.13-1.39,15.51,5.53,20.49,1.67.05,1.43-13.79,5.58-8.38,2.1,2.73,1.67,8.69,7.92,7.39l-2.85-10.84c.46-.78,4.77-.86,1.37-3.22-2.93-2.03-7.93,2.62-11.51,2.06.96-5.46-.56-15.04-6.03-7.5ZM336.1,480.65l2.12,14.12c8.5,5.07,4.51-9.03,11.78-9.76-.92,8.56,9.07,18.52,6.55,4.94-1.7-9.19-6.87-11.16-14.54-5.95l-1.1-4.91-4.81,1.56ZM311.5,584.98l-2.45-5.56c-6.33-2.24-3.98,10.56-2.8,13.84.8,2.23,3.26,4.18,5.74,3.73,1.29-4.17,1.95-9.04,5.52-11.97,1.86-.03,2.6,15.37,7.49,11.98,4.2-2.92-4.61-23.99-13.48-12.02ZM265.17,427.66c-.77,2.47.23,12.8,2.23,14.44,7.31,4.28,4.46-7.31,10.1-10.08l4.01,10.97c1.07,1.97,3.32.51,4.03-1.03.86-1.88-1.88-11.5-3.52-12.48-4.51-1.54-8.02-.29-12.01,1.51,1.39-4.02-3.58-7.36-4.84-3.34ZM232.67,575.15c-3.58,1.23-2.6,8.85-2.67,11.85h-6.01s.07,2.92.07,2.92l6.91,1.1c-.4,2.03.66,8.57,3.51,7.97,2.83-1.32.87-8.36,1.51-9h8.01s-.01-2.97-.01-2.97l-9-1.02v-8c4.89,0,2.5,8.26,8,6.99.71-6.22-3.87-11.36-10.32-9.84ZM261.07,532.43l-4.07-.43c-.06,3.38-.22,13.97,2.39,16.1,7.74,4.59,3.82-8.21,10.09-10.09,1.81.41,2.66,14.42,7.51,10.99,1.91-1.35-1.03-11.75-3.02-13.47-5.35-4.62-11.05,2.49-11.97,1.47l-.94-4.57ZM376,533c-.97,6.97.99,15.82,9.5,16.04,4.59.12,4.33-2.81,4.59-2.96,1.3-.77,6.03,4.42,8.92,2.91-.12-2.54-2.42-3.56-3.51-5.98-1.3-2.91-1.04-5.85-2.41-8.59-7.31-2.63-4.47,7.24-8.58,10.56-3.26-3.31-3.94-7.51-3.49-11.99h-5.01ZM222,438.5c0,2.19,2.17,5.8,4.51,6.48,2.47-.05,1.05-13.9,4.98-12.97,3.59,2.41,2.5,9.82,4.96,12.05,4.81,4.35,4.54-8.43.21-12.71-3.39-3.35-9.24-2.01-9.62-2.38-.27-.27-.06-6.09-2.55-6.96l-2.49,1.5v15ZM366.14,427.14c-2.5,4.58-.13,11.35,3.81,14.4,7.58,5.87,8.9-1.39,10.54-1.39.55,0,4.9,4.34,7.5,2.84-.3-2.67-2.59-4.34-3.53-6.96-.77-2.16.14-4.62-1.46-6.57-4.74-5.78-6.21,5.48-6.92,7.13-4.02,9.38-5.54-9.03-6.23-9.45h-3.73ZM221.49,484.99c3.58-.69-1.55-8.99-4.19-9.78-8.43-2.53-8.69,4.2-8.4,10.69l-5.89,1.11c-.68,4.51,6.46,2.45,7,2.99-.35,3.3.63,9.6,5.01,7.49v-7.48s8.99-1.01,8.99-1.01l-1.66-2.83-7.9-1.1-.43-7.07,2.92.06c.71,2.58,1.26,6.47,4.56,6.94ZM357.95,538.96l-5.95,1.54c1.74,2.66,3.96,2.51,6.84,2.65l1.65,6.85,3.49,1,.43-8.06,8.57-2.42-9.05-1.95c-2.2-1.54-1.03-9.39,2.09-7.09l2.11,5.39,3.86.13c-1.93-13.96-15.95-13.24-14.04,1.96ZM348.73,427.23c15.43-3.14,18.6,18.26,3.86,17.71-11.16-.42-15.48-15.34-3.86-17.71ZM354.76,431.24c-6.78-7.07-14.15,16.28,1.8,7.76.84-1.37-.82-6.74-1.8-7.76ZM239.71,533.22c3.71-.85,8.6-.75,11.15,2.42,11.24,13.97-10.84,20.02-16.73,8.73-2.44-4.68.72-10.04,5.57-11.15ZM245.87,536.13c-10.99-1.8-9.05,12.91-.85,10.46,5.28-1.58,2.44-6.92.85-10.46ZM233.73,480.24c6.87-1.24,11,.87,12.8,7.74,3.01,11.43-15.81,12.28-19.81,2.74-2.04-4.87,2.11-9.59,7-10.47ZM239.76,484.25c-13.89-4.8-8.74,17.46,1.73,6.78l-1.73-6.78ZM217.99,424.51c-8.73-2.73-18.28-1.85-26.98.5,2.17,3.91,6.79,3.3,10.42,2.1l1.11.84c1.69,2.74-1.04,17.9,6.47,15.54l-1.01-16.49c1.53-1.53,13.71,3.57,9.99-2.49ZM328.13,533.58c-.72,3.18,4.56,22.82,9.42,15.47,2.95-4.47-2.17-13.54,11.44-8.05.31-6.79-9.91-5.9-13.98-3,1.33-4.65-5.93-8.65-6.88-4.42ZM247.05,582.4c-.06,3.14,3.61,19.19,8.91,15.57,1.74-9.72,1.17-13.52,12.03-8.98-.4-7.21-9.81-6.7-13.98-3,1.3-5.42-6.85-8.64-6.96-3.6ZM253,495.25c.93,1.72,4.18,1.85,5.96,1.71.66-3.18.69-9.03,4.07-10.51,2.89-1.27,4.55,2.42,7.96,1.54-1.46-6.57-9.3-5.67-13.98-2.99-7.81-16-8.03,2.86-4.02,10.25ZM407,534.5c0-.91-1.58-3.97-1.48-5.52l-2-.98-1.51,1.49v18c0,.96,3.58,3.2,5,2.5v-15.5ZM329.01,484c-1.93,1.33-1.42,16.63,5,12.49l-1.16-11.33-3.84-1.16ZM272.01,585c.42,4.96-2.28,13.3,4.99,12.99-.23-4.58,1.75-13.36-4.99-12.99ZM271.01,576.54l2.64,6.49,3.35-.04-1.18-6.79c-1.94-1.02-3.42-1.9-4.81.34ZM332.56,475.94l-4.56-.93c-.36,3.2,1.18,7.79,4.99,7.99l-.43-7.06ZM341.75,590.49c-1.31-1.64-3.79-5.11-6.12-4.43-6.76,6.22,2.39,14.11,6.12,4.43ZM287.6,547.92c2.95-.41,5.24-2.7,6.15-5.44-.97-1.22-3.59-4.66-5.11-4.4-3.79.63-5,7.89-1.04,9.84ZM308.01,485.51c-.97,2.5,5.88,2.65,6.99,2.48,1.72-5.78-5.38-6.63-6.99-2.48ZM309.58,536.91l-.52,3.01c8.9,4.2,9.72-6.62.52-3.01ZM290.36,583.15l-5.34,3.35c.98,2.05,7.05,2.75,7.98,1.49.84-1.14-1.01-4.54-2.64-4.84ZM371.86,484.71c-3.98-6.22-8.21-.41-6.76,5.18,3.7,2.01,6.97-1.27,6.76-5.18ZM290.48,485.01c-2.9-.86-.94,7.35-1.48,8.99,6.95.9,8.05-7.04,1.48-8.99ZM256.01,440l-.08-2.91c-10.1-3.73-11,4.54.08,2.91ZM178.01,544.49c.57,2.62,9.9,2.14,7.53-1.51-1.09-.86-2.4-1.88-3.88-1.75-1.25.11-4,1.69-3.65,3.26ZM356.56,439c.84-1.37-.82-6.74-1.8-7.76-6.78-7.07-14.15,16.28,1.8,7.76ZM245.02,546.6c5.28-1.58,2.44-6.92.85-10.46-10.99-1.8-9.05,12.91-.85,10.46ZM241.49,491.03l-1.73-6.78c-13.89-4.8-8.74,17.46,1.73,6.78ZM333,684c5.03-.23,19.78-.26,17.58,8.03-.98,3.67-4.91,2.86-4.58,5.96,5.34-.21,7.04,6,4.44,9.95-2.8,4.26-12.73,4.1-17.44,4.06v-28ZM345.92,693.92c.91-5.61-3.1-6.49-7.93-5.93v8s7.93-2.07,7.93-2.07ZM345.76,706.76c3.84-6.67-1.85-8.32-7.76-7.77v9.01s7.76-1.24,7.76-1.24ZM247,710.5l5,1.5c-2.36-20.15,10.05-24.37,8.44-.94l4.56.94v-14.5c0-.44-1.52-3.5-2.02-3.98-4.3-4.17-10.49,1.02-10.97.47v-10s-5.01,0-5.01,0v26.5ZM314.01,704.01c1.36,9.25,11.03.63,11.99,6.99-8.21,2.63-16.99.52-17.01-9.49-.03-12.58,18.45-12.57,18.99-.89.28,5.92-9.87,2.54-13.97,3.39ZM323,701c1.02-8.25-9.62-7.89-9,0h9ZM221,684v4s8,0,8,0v24h5v-24h8s0-4,0-4h-21ZM306,704h-14c-.32,2.3,2.85,4.46,4.74,4.84,4.06.8,8.27-3.43,7.25,2.13-10.14,2.79-17.35.01-16-11.49,1.49-12.7,21.08-8.63,18.02,4.53ZM292,700.99c2-.13,10.77,1.13,9.98-2.47-3.54-5.47-10.29-4.51-9.98,2.47ZM270,712h5.01c-.52-7.94-1.09-16.18,9.01-16.5l-.02-3.49c-4-.68-6.14,1.9-8.99,3.99v-4.01s-5.01,0-5.01,0v20ZM338,699v9.01s7.76-1.24,7.76-1.24c3.84-6.67-1.85-8.32-7.76-7.77ZM338,688v8s7.93-2.07,7.93-2.07c.91-5.61-3.1-6.49-7.93-5.93ZM314,700.99h9c1.02-8.25-9.62-7.88-9,0ZM301.99,698.53c-3.54-5.47-10.29-4.51-9.98,2.47,2-.13,10.77,1.13,9.98-2.47Z"/>
</svg>