<?xml version="1.0" encoding="UTF-8"?>
<svg id="_レイヤー_1" data-name="レイヤー 1" xmlns="http://www.w3.org/2000/svg" width="185.55mm" height="301.4mm" viewBox="0 0 525.96 854.37">
  <path d="M320.07,62.08c38.09-15.75,76.29-11.47,107.01,16.49,18.88,17.18,27.21,34.99,41.58,54.42,13.58,18.36,49.56,32.95,55.6,49.4,4.45,12.14,0,24.78-11.25,31.12-6.34,3.57-35.92,7.95-44.45,8.55-7.68.54-17.47-1.67-23.89-.91-7.94.94-17.74,7.6-26.59,6.93.82,22.78-.29,44.18-6.29,66.21-4.86,17.81-11.84,31.17-23.75,45.25-4.22,4.99-13.39,11.7-16.18,16.82-7.86,14.47-8.29,38.79-14.58,54.44-.5,5.69,5.07,7.41,8.3,11.25,3.92,4.66,9.14,11.76,10.25,17.75.58,3.11-.26,6.33.68,9.32s7.96,10.65,10.1,14.9c10.99,21.81,10.53,47.61,14.72,71.28,3.28,18.48,8.56,37.2,12.25,55.75,1.96,9.82,2.44,22.01,4.7,31.3,2.22,9.12,14.63,24.58,18.96,35.04,13.46,32.57,9.42,69.17-6.16,100.21.02,1.4,11.75,11.22,13.96,13.99,9.48,11.86,12.27,25.03,7.74,39.69-9.08,29.38-44.61,33.22-70.23,25.8-10.35-2.99-19.6-9.07-30.99-8.02-4.52,3.57-7.3,8.92-11.96,13.03-26.29,23.19-67.1,11.8-80.03-20.02-14.04,38.65-68.41,43.69-89.18,7.93-23.78,5.12-44.45,14.11-69.33,8.58-35.08-7.81-45.07-45.92-20.39-71.41,1.92-1.98,10.36-7.78,10.41-9.55-6.23-13.46-11.97-28.35-13.89-43.17-4.79-36.98,6.54-53.21,22.39-83.36,7.92-15.06,8.3-33.46,11.79-50.21,3.58-17.21,8.35-34.29,11.4-51.6,3.86-21.96,4.1-47.97,15.12-67.88,1.85-3.34,9.45-12.19,9.96-14.04.65-2.34-.11-5.05.44-7.56,2.16-9.74,9.22-15.41,14.72-23.19-4.72-13.24-6.57-27.26-10.24-40.76-1.48-5.44-4-15.92-6.51-20.49-1.95-3.55-10.26-9.38-13.71-13.29-29.26-33.16-33.97-67.41-32.54-110.57.05-1.6.33-3.02,1.06-4.43-6.35-.55-13.66-5.23-19.6-5.94-6.85-.81-17.72,1.45-25.9.91-8.54-.56-21.3-2.65-29.91-4.09-24.57-4.12-34.97-29.8-15.61-47.41,15.86-14.43,34.45-19.5,48.24-38.76,13.79-19.24,22.41-36.56,40.75-53.25,30.86-28.08,68.71-32.06,107.01-16.49v-14.5c0-4.04,5.77-17.01,8.18-20.82,21.08-33.3,68.38-35.89,93.33-5.69,4.37,5.28,12.49,19.87,12.49,26.51v14.5ZM315.08,69.08c.38-7.97,1.16-14.11-.45-22.05-7.68-37.84-53.4-55.49-84.03-30.93-16.44,13.18-22.31,32.41-19.53,52.98-8.98-2.12-16.47-6.54-25.96-8.54-50.69-10.69-82.27,14.06-109.85,53.22-6.77,9.61-12,21.3-20.16,29.84-11.27,11.8-46.72,29.09-49.58,42.41-2.41,11.23,3.84,21.92,14.59,25.53,6.47,2.17,27.09,4.98,34.48,5.52,9.31.67,18.66-.36,27.92-.94l23.15,7.94c-2.01,31.45-1.59,66.8,15.61,94.32,8.55,13.69,16.77,20.06,26.81,31.19,7.14,7.92,13.16,42.01,16.08,53.92.82,3.34,5.28,14.86,4,16.85-.64,1-4.06,2.92-5.59,4.72-3.37,3.97-8.68,10.52-9.4,15.59-.4,2.81.47,6.18-.29,8.71-.43,1.44-8.42,10.68-10.22,13.78-11.28,19.47-11.9,48.96-15.9,71.1-3.72,20.62-9.24,41.04-13.39,61.61-1.54,7.61-1.86,16.84-3.74,24.26-3.5,13.8-15.56,27.17-21.03,40.97-13.1,33.09-7.47,67.63,8.56,98.46-4.62,5.27-11.39,9.26-16.1,15-17.34,21.11-8.92,51.02,17.58,58.47,9.33,2.62,21.31,3.26,30.82,1.94,13.65-1.9,28.33-7.95,41.98-10.68,6.37,6.94,11.74,15.85,20.6,20.34,21.51,10.9,49.21,2.85,60.56-18.52,1.51-2.84,4.94-14.46,5.62-14.87.5-.31,2.74-.37,3.3-.2.92.28,5.23,14.26,7.36,17.75,16.01,26.13,53.13,27.23,72.71,4.32,2.11-2.47,4.47-8.53,6.98-9.01,13.15-2.52,26.56,6.59,38.5,9.51,18.92,4.64,47.88,2.48,58.19-16.83s3.75-35.58-11.17-49.19c-2.31-2.11-8.77-5.29-9.05-8.02-.14-1.34,8.76-20.8,10.05-24.95,8.05-25.72,7.71-51.97-3.16-76.88-4.23-9.68-16.77-25.84-18.64-34.36-2.09-9.53-2.58-21.46-4.53-31.47-3.76-19.27-9-38.28-12.39-57.61-3.94-22.42-3.7-46.4-13.91-67.09-2.21-4.47-10.46-14.3-11.13-16.87-1.3-4.99.79-9.03-2.05-14.95-4.55-9.52-16.29-13.92-16.97-24.54,6.08-17.23,7.1-38.71,14.92-55.12,3.95-8.3,9.27-9.89,14.82-16.18,16.92-19.15,26.69-43.76,29.9-69.1,1.91-15.11.51-30.25,1.57-45.43.65-.93,14.81-3.69,17.56-4.44,3.76-1.03,9.39-4,12.57-4.45,6.38-.9,17.95,1.53,25.92.93,11.76-.87,25.06-4.79,37.07-5.93,15.45-6.17,19.7-23.65,7.46-35.58s-30.67-18.79-43.05-31.95c-8.23-8.75-13.31-20.11-20.16-29.84-28.44-40.38-62.72-66.11-114.82-52.19-7.35,1.96-13.72,6.52-20.99,7.51ZM285.92,55.58c0,12.61-10.22,22.83-22.83,22.83s-22.83-10.22-22.83-22.83,10.22-22.83,22.83-22.83,22.83,10.22,22.83,22.83ZM281,55.58c0-9.9-8.02-17.92-17.92-17.92s-17.92,8.02-17.92,17.92,8.02,17.92,17.92,17.92,17.92-8.02,17.92-17.92Z"/>
</svg>