<?xml version="1.0" encoding="UTF-8"?>
<svg id="_レイヤー_1" data-name="レイヤー 1" xmlns="http://www.w3.org/2000/svg" width="187.31mm" height="300.34mm" viewBox="0 0 530.94 851.36">
  <path d="M323.29,57.9c12.01-10.19,30.51-11.24,39.56,3.06,18.11-7.49,38-14.89,57.13-6.25,12.17,5.49,25.77,21.14,34.82,31.18,7.15,7.93,8.5,14.19,19.22,18.78,8.43,3.61,18.21,5.28,26.64,9.36,41.24,19.94,34.46,69.8,14.43,103.18-3.22,5.37-12.54,15.39-14.04,19.96-1.27,3.85-.96,8.65-2.06,12.94-4.86,18.92-12.95,35.81-28.35,48.26,1.3,5.63,2.85,11.41,3.52,17.17.97,8.33-1.29,21.83-.33,27.49.52,3.04,4.58,9.9,5.74,14.1,4.87,17.68,2.52,38.46-5.73,54.82-2.32,4.6-6.82,9.1-8.74,13.26-2.41,5.25-3.42,11.98-6.26,17.74-9.67,19.59-30.59,39.17-52.55,42.96,2.83,9.57,7.27,18.7,10.29,28.21,7.26,22.85,14.39,53.43,15.7,77.3.75,13.6-.75,27.44-.03,41.03,2.4,45.58,34.76,87.37,8.46,132.38-1.75,3-8.69,11-9.21,12.79-1.33,4.67,0,10.38-2.18,16.82-8.79,26-33.49,25.24-55.54,27.46-7.88.79-7.76,6.51-12.09,11.91-24.19,30.23-80.64,19.21-94.4-16.43l-12.85-.33c-15.25,40.75-82.39,48.02-100.35,6.03-23.33-2.35-51.42-.61-62.3-26.2-4.45-10.48-1.33-18.37-3.11-25.03-.49-1.85-5.88-8.67-7.29-11.58-21.42-44.45,8.61-82.98,10.92-126.84,1.09-20.69-.78-39.86,2.1-60.9,4.09-29.85,14-58.4,23.86-86.64-21.21-3.2-39.62-21.95-49.17-40.34-4.63-8.92-8.39-18.02-13-27-7.86-15.33-12.15-28.54-10.87-46.21.56-7.76,4.75-16.7,5.09-23,.22-4.19-1.78-8.81-2.04-12.98-.99-15.87,2.19-30.51,5.82-45.78-11.3-12.47-17.23-25.33-21.55-41.49-1.27-4.74-1.42-12.16-3.04-15.96-1.34-3.16-9.03-11.24-11.66-15.34-21.46-33.44-30.15-84.89,12.04-105.79,9.7-4.81,25.33-7.18,33.31-12.69,7.46-5.15,21.64-25.98,30.02-33.98,16.61-15.86,31.44-20.29,54.04-13.95,6.55,1.84,12.63,5.21,19.35,6.57,5.69-9.16,15.05-13.58,25.91-11.84,5.53.89,10.22,5.12,15.73,5.76,8.12-72.86,114.23-67.31,115.01,6ZM316.29,72.9c9.86-38.91-22.6-75.65-62.85-66.34-25.31,5.85-42.08,29.53-40.17,55.33-9.65-4.61-20.66-13.45-31.99-9.48-6.82,2.39-7.83,7.71-12.53,11.54-22.6-5.02-37.7-17.31-60.39-3.47-18.44,11.25-31.64,39.28-49.1,46.9-10.49,4.57-22.23,6.32-32.3,12.7-33.72,21.32-21.66,68.16-3.49,96.13,2.97,4.58,10.31,11.68,11.86,16.14,1.99,5.73,2.39,14.61,4.45,21.55,4.23,14.23,11.1,24.36,20.52,35.56-4.77,16.46-6.94,31.7-6.01,48.93.19,3.5,2.2,7.49,1.95,10.91-.34,4.63-3.83,12.73-4.69,18.39-2.89,19.02,1.64,34.16,10.9,50.55,3.73,6.59,4.37,9.11,7.34,15.66,9.46,20.82,25.4,42.09,49.09,46.91,1.82.37,6.77-.69,7.34,1.68.43,1.8-11.66,29.82-13.23,34.64-5.08,15.61-9.98,36.34-12.42,52.58-4.74,31.54.27,62.21-7.37,93.63-8.36,34.39-23.66,61.21-5.44,96.6,1.28,2.48,6.73,9.56,7.01,10.84,1.03,4.71-1.38,12.33.57,19.58,7.23,26.93,38.9,25.8,61.28,26.72,1.91.66,4.69,8.47,6.22,10.78,16.61,24.94,59.36,22.39,77.95,1.08,3.1-3.55,8.42-15.01,9.91-16.08,4.41-3.19,15.43-1.62,20.58-.43,13.81,39.81,78.03,47.42,93.15,4.67,28.01-1.41,56.05-.04,61.72-33.78.47-2.82-.43-6.11.32-8.68.22-.75,7.73-9.92,9.32-12.68,21.46-37.35,1.91-67.71-5.84-104.2-3.84-18.08-1.94-33.35-2.64-51.36-1.12-28.87-6.3-57.73-14.54-85.46-3.93-13.22-10-25.64-13.5-38.99,25.51-2.78,48.99-25.45,57.78-48.74,3.7-9.8,3.26-9.42,8.64-18.36,9.63-15.99,13.37-36.49,8.86-54.7-1.24-5-5.68-12.03-6.23-15.79-.79-5.33,1.36-15.11.94-21.92-.53-8.51-2.88-17.58-4.76-25.89,13.76-11.18,22.48-24.5,27.27-41.63,1.79-6.4,2.24-14.53,3.96-20.04,1.2-3.85,10.05-13.44,12.96-18.04,17.65-27.83,28.73-74.47-5.11-94.72-10.43-6.24-21.65-7.84-32.27-12.73-12.62-5.81-16.62-15.68-25.52-25.48-15.58-17.16-27.85-29.67-52.91-26.88-5.89.66-31.6,10.95-33.47,9.75-11.43-21.61-31.7-7.13-43.13,6.15ZM289.08,51.64c0,12.96-10.51,23.46-23.46,23.46s-23.46-10.51-23.46-23.46,10.51-23.46,23.46-23.46,23.46,10.51,23.46,23.46ZM283.49,51.67c0-9.88-8.01-17.89-17.89-17.89s-17.89,8.01-17.89,17.89,8.01,17.89,17.89,17.89,17.89-8.01,17.89-17.89Z"/>
</svg>