<?xml version="1.0" encoding="UTF-8"?>
<svg id="_レイヤー_1" data-name="レイヤー 1" xmlns="http://www.w3.org/2000/svg" width="204.61mm" height="305.86mm" viewBox="0 0 580 867">
  <path d="M350.01,68c12.01-10.19,30.51-11.24,39.56,3.06,18.11-7.49,38-14.89,57.13-6.25,12.17,5.49,25.77,21.14,34.82,31.18,7.15,7.93,8.5,14.19,19.22,18.78,8.43,3.61,18.21,5.28,26.64,9.36,41.24,19.94,34.46,69.8,14.43,103.18-3.22,5.37-12.54,15.39-14.04,19.96-1.27,3.85-.96,8.65-2.06,12.94-4.86,18.92-12.95,35.81-28.35,48.26,1.3,5.63,2.85,11.41,3.52,17.17.97,8.33-1.29,21.83-.33,27.49.52,3.04,4.58,9.9,5.74,14.1,4.87,17.68,2.52,38.46-5.73,54.82-2.32,4.6-6.82,9.1-8.74,13.26-2.41,5.25-3.42,11.98-6.26,17.74-9.67,19.59-30.59,39.17-52.55,42.96,2.83,9.57,7.27,18.7,10.29,28.21,7.26,22.85,14.39,53.43,15.7,77.3.75,13.6-.75,27.44-.03,41.03,2.4,45.58,34.76,87.37,8.46,132.38-1.75,3-8.69,11-9.21,12.79-1.33,4.67,0,10.38-2.18,16.82-8.79,26-33.49,25.24-55.54,27.46-7.88.79-7.76,6.51-12.09,11.91-24.19,30.23-80.64,19.21-94.4-16.43l-12.85-.33c-15.25,40.75-82.39,48.02-100.35,6.03-23.33-2.35-51.42-.61-62.3-26.2-4.45-10.48-1.33-18.37-3.11-25.03-.49-1.85-5.88-8.67-7.29-11.58-21.42-44.45,8.61-82.98,10.92-126.84,1.09-20.69-.78-39.86,2.1-60.9,4.09-29.85,14-58.4,23.86-86.64-21.21-3.2-39.62-21.95-49.17-40.34-4.63-8.92-8.39-18.02-13-27-7.86-15.33-12.15-28.54-10.87-46.21.56-7.76,4.75-16.7,5.09-23,.22-4.19-1.78-8.81-2.04-12.98-.99-15.87,2.19-30.51,5.82-45.78-11.3-12.47-17.23-25.33-21.55-41.49-1.27-4.74-1.42-12.16-3.04-15.96-1.34-3.16-9.03-11.24-11.66-15.34-21.46-33.44-30.15-84.89,12.04-105.79,9.7-4.81,25.33-7.18,33.31-12.69,7.46-5.15,21.64-25.98,30.02-33.98,16.61-15.86,31.44-20.29,54.04-13.95,6.55,1.84,12.63,5.21,19.35,6.57,5.69-9.16,15.05-13.58,25.91-11.84,5.53.89,10.22,5.12,15.73,5.76,8.12-72.86,114.23-67.31,115.01,6ZM343.01,83c9.86-38.91-22.6-75.65-62.85-66.34-25.31,5.85-42.08,29.53-40.17,55.33-9.65-4.61-20.66-13.45-31.99-9.48-6.82,2.39-7.83,7.71-12.53,11.54-22.6-5.02-37.7-17.31-60.39-3.47-18.44,11.25-31.64,39.28-49.1,46.9-10.49,4.57-22.23,6.32-32.3,12.7-33.72,21.32-21.66,68.16-3.49,96.13,2.97,4.58,10.31,11.68,11.86,16.14,1.99,5.73,2.39,14.61,4.45,21.55,4.23,14.23,11.1,24.36,20.52,35.56-4.77,16.46-6.94,31.7-6.01,48.93.19,3.5,2.2,7.49,1.95,10.91-.34,4.63-3.83,12.73-4.69,18.39-2.89,19.02,1.64,34.16,10.9,50.55,3.73,6.59,4.37,9.11,7.34,15.66,9.46,20.82,25.4,42.09,49.09,46.91,1.82.37,6.77-.69,7.34,1.68.43,1.8-11.66,29.82-13.23,34.64-5.08,15.61-9.98,36.34-12.42,52.58-4.74,31.54.27,62.21-7.37,93.63-8.36,34.39-23.66,61.21-5.44,96.6,1.28,2.48,6.73,9.56,7.01,10.84,1.03,4.71-1.38,12.33.57,19.58,7.23,26.93,38.9,25.8,61.28,26.72,1.91.66,4.69,8.47,6.22,10.78,16.61,24.94,59.36,22.39,77.95,1.08,3.1-3.55,8.42-15.01,9.91-16.08,4.41-3.19,15.43-1.62,20.58-.43,13.81,39.81,78.03,47.42,93.15,4.67,28.01-1.41,56.05-.04,61.72-33.78.47-2.82-.43-6.11.32-8.68.22-.75,7.73-9.92,9.32-12.68,21.46-37.35,1.91-67.71-5.84-104.2-3.84-18.08-1.94-33.35-2.64-51.36-1.12-28.87-6.3-57.73-14.54-85.46-3.93-13.22-10-25.64-13.5-38.99,25.51-2.78,48.99-25.45,57.78-48.74,3.7-9.8,3.26-9.42,8.64-18.36,9.63-15.99,13.37-36.49,8.86-54.7-1.24-5-5.68-12.03-6.23-15.79-.79-5.33,1.36-15.11.94-21.92-.53-8.51-2.88-17.58-4.76-25.89,13.76-11.18,22.48-24.5,27.27-41.63,1.79-6.4,2.24-14.53,3.96-20.04,1.2-3.85,10.05-13.44,12.96-18.04,17.65-27.83,28.73-74.47-5.11-94.72-10.43-6.24-21.65-7.84-32.27-12.73-12.62-5.81-16.62-15.68-25.52-25.48-15.58-17.16-27.85-29.67-52.91-26.88-5.89.66-31.6,10.95-33.47,9.75-11.43-21.61-31.7-7.13-43.13,6.15ZM315.79,61.74c0,12.96-10.51,23.46-23.46,23.46s-23.46-10.51-23.46-23.46,10.51-23.46,23.46-23.46,23.46,10.51,23.46,23.46ZM310.21,61.77c0-9.88-8.01-17.89-17.89-17.89s-17.89,8.01-17.89,17.89,8.01,17.89,17.89,17.89,17.89-8.01,17.89-17.89ZM212,266v34h9v-15l9.16,14.84,10.84.15-10.68-17.48,10.68-16.5-10.8.2-9.2,13.79v-14h-9ZM294,266v25.5c0,5.86,9.14,9.8,14.51,9.57s13.49-4.51,13.49-10.57v-24.5h-9v23.5c0,5.78-10,4.89-10,1v-24.5h-9ZM391,266v34h23l-.94-6.56-13.07-.43v-7.01s13.01.01,13.01.01v-6.01s-11.36-.14-11.36-.14c-1.56-.46-1.73-1.83-1.73-3.36,0-.9.07-1.78.52-2.57l13.57-.92v-7.01h-23.01ZM226,314v34h22v-7.01s-13.01.01-13.01.01v-6.43s13.01-.57,13.01-.57v-7.01s-13.02-.57-13.02-.57v-5.43s13.02.01,13.02.01v-7.01h-22.01ZM383.92,268.63c-1.02-3.48-23.43-6.15-24.89,5.97-1.52,12.59,17.76,11.74,16.92,16.79-.76,4.57-11.81,2.36-14.46-.35-7.35,8.33,4.3,10.4,11.04,10.02,8.29-.47,15.93-6.58,11.34-15.42-2.87-5.53-16.55-6.7-15.86-10.1.85-4.13,12.21-2.66,14.98-.53l.93-6.37ZM352.88,268.57c-.72-2.86-27.65-7.52-24.65,9.7,1.65,9.44,16.38,7.02,15.83,13.22-1.1,6.66-14.48-1.09-15.06-.49l-.59,7.04c9.65,7.81,33.68.21,23.44-13.39-4-5.31-12.4-3.69-14.9-9.15-.01-4.85,12.29-1.96,15.04-.51l.89-6.43ZM339,314v34h22v-7.01s-13.01.01-13.01.01v-6.43s12.01-.57,12.01-.57v-7.01s-12.01.01-12.01.01v-6.01s13.01.01,13.01.01v-7.01h-22.01ZM175.99,285.49c1.18,14.11,17.44,19.58,28.59,12.52l-.59-6c-1.18-1.06-11.9,6.59-17.4-3.09-5.95-10.46,5.31-20.81,15.81-13.99,1.67-.37,3.39-5.59,2.51-6.83-14.48-6.01-30.41-.37-28.92,17.4ZM192,314v7.01s9,0,9,0v27h9v-25.5c1.36-2.91,9.3-.79,10-1.49v-7.01h-28ZM420,266v34h24v-7h-14v-27h-10ZM450,266v34h23v-7h-14v-27h-9ZM127,266v23.5c0,.24-1.97,3.23-2.43,3.57-3.38,2.49-8.25-.5-11.56-2.07l-.41,8.11c5.51,2.42,15.21,3.2,19.94-1.08.66-.6,3.46-5.2,3.46-5.54v-26.5h-9ZM321,314v34h10v-34h-10ZM215.01,206.5c-.94,5.15-.38,14.65,6.95,13.47l3.55-10.97,3.15,9.06,3.38.51c1.78-1.37.21-8.91,4.95-8.56l1.47,8.03,4.53.96c.56-4.78-.76-9.87-4.25-13.36-3.19-1.37-4.86.26-7.26,2.18l-5.83-3.62-5.64,3.79c.53-4.41-4.2-5.89-5-1.5ZM294.99,221.99c-2.18,1-4.52-1.58-5.52-1.62-1.44-.06-2.95,2.13-6.73,1.43-12.72-2.36-6.1-20.07,6.24-14.81-1.71-4.16-.87-11.24,3.47-5.96,3.22,3.91.51,15.47,2.53,20.96ZM281.11,217.88c8.75,2.99,9.4-10.87.34-6.93l-.34,6.93ZM320,449c-1.2,4.96,1.96,12.09,6.98,13.61,2.78.84,3.9-.94,6.02-.11-1.02.75-2.01,2.59-3.04,3.05-2.66,1.18-6.6-2.68-5.95,1.44,6.22,3.44,13.38,1.96,14.76-5.72.52-2.88,1.58-15.18-3.8-11.8-2.45,1.53-9.17,21.91-9.96-.47h-5.01ZM303,215.01c3.74,5.39,10.81,3.2,13.5-1.99l2.35,3.31c-.57,7.43-20.96,6.81-21.55-3.98-.43-7.92,12.69-11.5,16.58-4.73,4.32,7.5-5.19,9.42-10.88,7.4ZM308.95,207.03c-1.07-.77-6.35,1.26-5.95,3.46,3.66,4.65,9.5-.9,5.95-3.46ZM250.56,204.94l-4.56-.94c-1.62,7.45,3.87,16.63,11.99,13-.31,4.37-4.14,4.63-7.48,2.98-.97,4.23,6.71,4.71,9.87,2.9,6.37-3.65,6.64-22.33-.44-17.44-1.45,2.6-3.53,11.09-7.81,8.42l-1.56-8.93ZM295.56,444.94l-4.56-.94c-.63.61.47,15.25,1.05,17.45.66,2.55,3.82,6.52,5.91,2.96l-.95-6.4c7.29-1.73,3.87,9.99,11.99,6.99,1-1.34-6.25-9.76-.96-10.49l-1.01-3.04-10.02,2.55-1.45-9.07ZM249.24,456.24c1.25-1.25,7.58-3.12,9.28-1.25l.48-1.97c-3.26-1.66-7.36-.39-10.37-1.14-1.21-.3-2.09-1.34-.64-2.38,4.66-3.33,13.89-.41,16.24,4.78.79,1.74,2.16,8.41,1.66,10.08-1.01,3.38-3.49.14-4.37.13-3.58-.05-6.23,1.47-10.27-.24-3.09-1.31-4.65-5.38-2.02-8ZM255.66,457.22c-1.3.11-2.77,1.3-3.64,2.28,7.51,7.23,10.83-2.9,3.64-2.28ZM323.24,218.77c-2.03-1.96-1.47-5.51.68-7.35,2.86-2.45,5.81-1.43,9.08-1.91-4-5.67-10.69,2.1-12-4.49,12.65-4.31,19.5,2.36,18.52,15-1.52,2.38-3.01-.61-4.02-.66-.94-.05-2.27,1.46-3.94,1.53-1.18.05-7.6-1.41-8.32-2.11ZM326,215.99c1.9.93,8.69,2.11,7.99-1.47-.43-2.22-8.73-2.7-7.99,1.47ZM274.5,452.98c-1.62-.88-1.56-5.52-3.98-4.98-4.1.93-2.1,18.05,4.47,16.99.59-2.41,1.27-4.96,2.31-7.22,5.36-11.76,4.18,8.19,9.19,7.22,3.54-.69-.03-12.32-1.75-13.72-2.55-2.09-8.15-.91-10.24,1.71ZM372.5,460.98c-4.35-1.39-2.17-15.29-7.54-11.52-5.96,4.18,7.29,24.16,13.54,11.54,1.96,2.16,4.31,4.35,7.5,3.99-.82-4.93-5.52-8-5.17-13.8l-4.59.02-3.73,9.77ZM228,462.5c0,1.77,4.07,4.87,5.54,2.54l1.97-11.05c5.28.11,3.81,14.94,8.5,11.52,4.38-3.19-3.3-19.47-11-13.5l-1.04-7h-3.97s0,17.49,0,17.49ZM348.74,449.23c14.66-2.55,17.18,18.66,2.03,16.57-11.04-1.52-12.99-14.66-2.03-16.57ZM350.73,452.13c-9.9,1.45-1.04,18.35,5.25,6.4-.9-2.53-1.83-6.9-5.25-6.4ZM224.99,448.49c.01-2.55-1.92-2.09-3.48-2.5-3.73-.96-20.79-1.87-22.5,1.53,1.04,4.3,7.22,1.64,9.95,1.51,1.9,1.33-.61,21.24,6.93,14.4l-.9-14.43,10-.51ZM346.36,204.12l-4.24,1.46c1.96,5.39.73,16.44,8.87,15.43-.35-3.2.93-9.09,4.03-10.58,2.14-1.03,6.36,4.64,6.97,1.05.86-5.07-10.32-4.68-12.97-2.49l-2.67-4.87ZM366.51,199.01c-2.97.65-1.14,12.42-.49,14.99h2.97c-1.21-4.98,3.9-12.55-2.48-14.99ZM393.99,204c-3.35,4.33-7.65,11.79-9.53,16.96-.34.94-1.32,3.25.53,3.03l9-19.99ZM273.5,314c10.28,1.83,10.24,15.44,1.51,19.98,3.13-.65,7.58,13.45,6.99,14.01l-8.86-.13c-1.88-3.94-1.91-11.64-7.62-11.9-2.12-.1-1.31.04-1.53,1.51-.28,1.91.4,10.15.01,10.54h-9.01v-34.01c5.6.69,13.2-.94,18.5,0ZM265.62,320.07c-2.2.64-3.51,10.26,1.61,9.75,9.16-.91,4.78-11.6-1.61-9.75ZM267.24,329.83c9.16-.91,4.78-11.6-1.61-9.75-2.2.64-3.51,10.26,1.61,9.75ZM386.5,314c2.04.36,6.68,3.64,7.29,5.7,1.98,6.71-1.27,10.26-5.78,14.28,2.91-.38,7.59,13.47,6.99,14.01l-8.86-.13c-1.88-3.94-1.91-11.64-7.62-11.9-2.12-.1-1.31.04-1.53,1.51-.28,1.91.4,10.15.01,10.54h-9.01v-34.01c5.6.69,13.21-.94,18.5,0ZM378.62,320.07c-2.55.74-2.33,9.31-.05,9.86,4.63-.61,8.65-3.73,5.43-8.44-1.45-.5-3.97-1.83-5.38-1.42ZM378.58,329.94c4.63-.61,8.65-3.73,5.43-8.44-1.45-.5-3.97-1.83-5.38-1.42-2.55.74-2.33,9.31-.05,9.86ZM305.5,314c9.99,1.65,12.15,14.58,2.51,18.02l6.99,15.97-9.04-.45c-2.68-3.67-1.49-11.32-7.44-11.58-2.12-.09-1.31.03-1.53,1.51-.29,1.91.4,10.15.01,10.54h-9.01v-34.01c5.37.62,12.38-.85,17.5,0ZM297.01,330c4.99-.12,9.79-2.45,7.54-8.04l-7.54-1.96v10ZM304.54,321.96l-7.54-1.96v10c4.99-.12,9.79-2.45,7.54-8.04ZM276.5,266c4.33.53,9.46,2.54,10.85,7.18,2.42,8.09-5.7,10.94-5.28,13.18,2.16,1.19,6.91,12.7,5.92,13.63l-8.86-.13c-2.94-13.39-10.79-18.21-9.13.14h-8.01v-34.01c4.63.4,9.99-.55,14.5,0ZM270,273c-2.91,17.08,14.09,5.94,7.59.91-2.03-1.57-5.21-.78-7.59-.91ZM277.59,273.91c-2.03-1.57-5.21-.78-7.59-.91-2.91,17.08,14.09,5.94,7.59.91ZM161.86,266.14l11.14,33.85-9.95-.04-.93-5.37-10.18-.14-.93,5.57h-10s11.14-33.87,11.14-33.87h9.72ZM158,275c-2.59-.28-1.59,0-2.02,1.47-.45,1.53-2.44,10.07-1.98,10.53h6s-2-12-2-12ZM155.97,276.46c-.45,1.53-2.44,10.07-1.98,10.53h6s-2-12-2-12c-2.59-.28-1.59,0-2.02,1.47ZM281.45,210.95l-.34,6.93c8.75,2.99,9.4-10.87.34-6.93ZM303.01,210.49c3.66,4.65,9.5-.9,5.95-3.46-1.07-.77-6.35,1.26-5.95,3.46ZM252.02,459.5c7.51,7.23,10.83-2.9,3.64-2.28-1.3.11-2.77,1.3-3.64,2.28ZM333.99,214.52c-.43-2.22-8.73-2.7-7.99,1.47,1.9.93,8.69,2.11,7.99-1.47ZM355.98,458.53c-.9-2.53-1.83-6.9-5.25-6.4-9.9,1.45-1.04,18.35,5.25,6.4ZM333,695c10.4-1.36,25.11,2.36,12,12.99,5.38.26,7.61,4.73,4.88,9.4-2.96,5.06-11.88,3.34-16.88,3.61v-26ZM344.86,699.13l-6.87-.13v7.01s6.75-1.24,6.75-1.24c1.37-1.74,1.07-3.75.12-5.63ZM338,718c11.53.33,11.63-10.09,0-9.01v9.01ZM212.51,550.01c-3.84,1.16-2.75,15.6,5.07,15.99,2.27.11,3.73-1.65,4.93-1.65,1.12,0,2.56,1.61,4.09,1.68,2.16.11,3.08-1.72,4.86-1.93,1.01-.12,2.39.95,3.04.88,2.67-.3-.26-3.99-.43-5.54-.28-2.47.05-4.99-.05-7.45l-4.87.14-2.64,8.88-2.6-8.9-4.9-.12-1.01,10c-4.3-1.42.7-13.86-5.48-11.99ZM301.99,568c-2.08.67-3.99-1.56-5.48-1.61-3.7-.11-5.69,3.67-11.03-1.37-7.47-7.05,2.62-16.11,10.51-12.02-2.91-6.78,2.44-12.22,4.75-4.24,1.72,5.94,1.14,13.1,1.25,19.24ZM290.62,555.05c-3.06,1.69-3.6,5.76-1.69,8.52,2.48,1.8,6.54-1.18,6.99-3.93l-5.31-4.59ZM348,613c-5.71-1.91-11.52,2.1-16.51-1.99-8.19-6.72,2.69-16.03,10.51-13.02l-.99-6.99c9.32-1.06,5.39,15.6,6.99,22ZM339.69,602.32c-7.22-6.13-8.9,16.05,1.87,3.68.32-.74-1.31-3.2-1.87-3.68ZM310,510.01c1.41,3.74,6.62,3.76,9.79,2.26.67-.32,5.17-6.78,6.21-1.75,1.36,6.59-14.06,8.28-19.64,2.12-8.61-9.52,7.09-17.43,13.11-11.6,7.18,6.95-2.72,12.15-9.47,8.97ZM309,505.99c5.42,2.41,11.52.28,4.66-3.89l-4.66,3.89ZM288,606.01c3.71,5.95,9.86,3.86,13.51-1.01,4.57-1.03,2.72,8.36-6.98,8.04-10.84-.36-17.03-13.75-6.78-16.79,15.53-4.61,17.34,15.46.25,9.76ZM293.98,598c-9.11,1.11-6.62,6.75,1.02,5l-1.02-5ZM321.78,559.76l-10.78,1.74c2.74,2.98,6.73,3.4,10,.99,1.52-1.12,1.82-4.22,3.48-3.47,1.25.56,1.68,2.12,1.56,3.44-.75,7.74-23.65,6-20.83-6.73,2.05-9.25,20.83-7.19,16.58,4.03ZM317,557.99c1.72-5.78-5.38-6.63-6.99-2.48-.97,2.5,5.88,2.65,6.99,2.48ZM359,515.01c3.66-.32,7.99,2.9,10.99-.53.02-2.55-4.27-1.26-6.73-2.24-7.57-3.03-5.05-14,4.26-13.76,8.29.21,8.62,10.82,7.49,17.02-.99,5.37-13.87,4.51-16-.49ZM366.62,501.06c-2.47,1.78-4.54,4.52-2.53,7.31l2.4,1.68c4.35.03,5.09-8.41.13-8.99ZM252,721h4c.34-3.39-1.17-12.63,1.99-14.51l5.09-.05.93,14.57h4v-15.5c0-3.6-9.84-4.15-11.99-.5v-11s-4.01,0-4.01,0v27ZM287.51,495.01c4.87-.95,2.55,5.19,4.43,6.55,2.18,1.56,7.76-.3,10.32,5.73,3.45,8.11-12.01,12.13-15.16,7.11-1.61-2.56-2.05-18.61.41-19.38ZM292.01,513c7.44-.02,6.37-9.05-1-8l1,8ZM195.69,552.31c2.08,2.27,5.43,14.12,1.78,14.7-5.4-3.45-14.57,2.71-16.45-6.54,1.86-5.42,7.14-5.59,11.97-4.97-3.1-3.53-7.8-2.38-12-2.51v-2.97c4.15-1.35,11.51-1.19,14.69,2.28ZM194,560.01c-3.51-1.37-8.85-3.64-7.93,1.91,3.28,1.41,6.32,1.88,7.93-1.91ZM261.94,549.44c-2.21,1.62-1.23,18.36,5.09,16.14,1.95-1.36,1.75-10.86,6.96-10.58-.45,2.3,2.08,13.72,5.99,10.99,1.79-1.25-.95-11.38-2.5-12.98-4.48-4.62-10.57,1.8-11.48.98l-1.02-5-3.04.44ZM336.07,500.62l2.14,13.14c8.06,4.76,4.9-7.43,10.77-9.76l3.16,10.85,3.85.15c.61-9.71-4.05-19.6-13.98-11.01l-1.08-4.93-4.86,1.56ZM235.01,602l-5.99,1.5c1.09,2.55,6.02,1.99,6.81,2.67.62.53,4.14,17.16,5.17-1.17,12.62.56,8.97-4.83-1-3.99v-7.01c5.51-1.39,1.98,7.14,8,6-.55-13.12-16.03-12.49-12.99,2.01ZM382.5,561.98c-4.35-1.39-2.17-15.29-7.54-11.52-3.98,2.79,1.7,17.85,10.07,15.13,1.44-.47,2.86-2.67,4.29-2.44s3.95,3.88,6.67,2.85c-.82-4.93-5.52-8-5.17-13.8l-4.59.02-3.73,9.77ZM215.56,505.03l-5.57.97c-1.34,4.9,3.9,2.8,6.04,4.47,2.03,1.58-.55,7.75,4.96,6.52v-8c.67-.66,8.64,1.77,8-2.98l-9-1.01c.19-2.81-.95-6.13,1.51-7.99,1.59,0,3.51,9.93,6.49,6.98,4.41-4.37-15.12-19.75-12.43,1.04ZM307,594.99l1.17,14.81c7.89,4.48,5.18-6.66,10.32-9.79,2.54-.04,1.36,14.85,7.4,10.87,1.05-9.83-3.9-19.02-13.89-10.89l-1.16-4.85-3.85-.15ZM369.33,556.17l-6.89-1.1c-.77-2.31-1.15-5.37,1.06-7.05,1.05,0,5.29,10.45,6.5,5.47,1.33-5.48-6.86-11.47-11.79-7.27-.61,3.4-2.11,6.54-.21,9.77l-7,1.02c1.17,3.16,3.95,2.98,6.84,3.14,1.9,10.86,4.85,9.86,6.09-.71l7.06-.44-1.66-2.83ZM240.77,499.19c9.05-1.03,15.82,13.41,6.29,16.36-15.06,4.67-21.4-14.64-6.29-16.36ZM246.41,508.02c0-2.74-2.22-4.97-4.97-4.97s-4.97,2.22-4.97,4.97,2.22,4.97,4.97,4.97,4.97-2.22,4.97-4.97ZM245.74,550.23c14.5-2.53,17.13,18.65,2.03,16.57-11.04-1.52-12.99-14.66-2.03-16.57ZM247.73,553.13c-6.64.99-5.93,10.03.62,10.65l4.63-4.25c-.9-2.52-1.83-6.91-5.25-6.4ZM308,712.99l-13.03.47c-1.47.86-.11,3.11.7,3.62,3.7,2.37,7.51-1,10.33,1.43.67,3.71-10.68,3.38-13.44.43-11.75-12.51,14.34-27.45,15.44-5.95ZM298.66,705.22c-2.3.21-3.57,2.51-4.63,4.29.09,1.98,7.53,1.93,9.01,1.02,2.16-1.21-1.7-5.56-4.37-5.31ZM328,713l-12.04.47-.17,2.22c.89,2.73,3.21,2.44,5.73,2.4,3.73-.06,4.02-2.49,5.45,1.42,0,2.13-12.63,3.32-15.22-2.75-6.64-15.52,18.04-21.06,16.25-3.75ZM324,711c.8-6.96-6.95-8.04-9.02-1.51-.55,3.03,7.11.92,9.02,1.51ZM227,695v4s8,0,8,0v22h4v-22h8s0-4,0-4h-20ZM254.12,500.58c2.04,5.66.36,16.31,8.87,15.42.48-8.72,2.2-12.36,11-8.01,0-7.11-8.72-6.61-12.98-3,.18-4.45-3.34-8.62-6.89-4.42ZM333,549.42c-1.99-.49-3.97.1-4.1,2.07-.21,3.22,2.21,15.5,6.59,15.55,4.05.05,1.12-8.28,5.5-10.6,2.64-1.39,4.82,2.55,7.99,1.55-1.75-6.95-9.02-5.23-13.99-2.99l-2.01-5.58ZM252,595c-.14,3.81.84,16.54,5.54,17.04,5.65.59,1.97-7.46,5.45-9.57s6.28,3.59,8.99.04c-3.85-5.32-8.76-4.6-13.97-1.5-.14-4.02-1.51-6.76-6.01-6ZM274,721h4c-.57-8.11-.43-14.48,9.01-15.51l-1.49-3.46-7.02,3.96-.59-2.88-3.91-.11v18ZM399,564.5c0,.21,2.44,2.87,3.48,2.5,3.17-.66-.83-17.56.51-21h-4v18.5ZM275,599.99c.08,4.39-1.41,12.44,4.99,12l-1.14-11.85-3.85-.15ZM329,503.99c.08,4.39-1.41,12.44,4.99,12l-1.11-11.87-3.88-.13ZM328.01,495.01l2.16,6.82,3.83.17c-.85-4.13-.64-8.01-5.99-6.99ZM276.17,597.82l3.83.17c-.21-9.52-9.1-9.47-3.83-.17ZM338,709v9.01c11.54.33,11.64-10.09,0-9.01ZM337.99,699v7.01s6.75-1.24,6.75-1.24c1.37-1.74,1.07-3.75.12-5.63l-6.87-.13ZM288.93,563.57c2.48,1.8,6.54-1.18,6.99-3.93l-5.31-4.59c-3.06,1.69-3.6,5.76-1.69,8.52ZM341.56,606c.32-.74-1.31-3.2-1.87-3.68-7.22-6.13-8.9,16.05,1.87,3.68ZM313.66,502.1l-4.66,3.89c5.42,2.41,11.52.28,4.66-3.89ZM295,603l-1.02-5c-9.11,1.11-6.62,6.75,1.02,5ZM310.01,555.51c-.97,2.5,5.88,2.65,6.99,2.48,1.72-5.78-5.38-6.63-6.99-2.48ZM364.09,508.37l2.4,1.68c4.35.03,5.09-8.41.13-8.99-2.47,1.78-4.54,4.52-2.53,7.31ZM291.01,505.01l1,8c7.44-.02,6.37-9.05-1-8ZM186.07,561.92c3.28,1.41,6.32,1.88,7.93-1.91-3.51-1.37-8.85-3.64-7.93,1.91ZM241.44,503.05c-2.74,0-4.97,2.22-4.97,4.97s2.22,4.97,4.97,4.97,4.97-2.22,4.97-4.97-2.22-4.97-4.97-4.97ZM248.35,563.79l4.63-4.25c-.9-2.52-1.83-6.91-5.25-6.4-6.64.99-5.93,10.03.62,10.65ZM294.02,709.51c.09,1.98,7.53,1.93,9.01,1.02,2.16-1.21-1.7-5.56-4.37-5.31-2.3.21-3.57,2.51-4.63,4.29ZM314.98,709.49c-.55,3.03,7.11.92,9.02,1.51.8-6.96-6.95-8.04-9.02-1.51Z"/>
</svg>