<?xml version="1.0" encoding="UTF-8"?>
<svg id="_レイヤー_1" data-name="レイヤー 1" xmlns="http://www.w3.org/2000/svg" width="139.9mm" height="300.69mm" viewBox="0 0 396.56 852.34">
  <path d="M145.3,45.62l6.47-9.01c21.71-25.65,57.46-29.83,84.04-9.01l15.46,18.02c6.1-12.29,12.62-22.36,23.7-30.81,63.71-48.55,89.04,33.52,85.35,84.35-1.14,15.73-9.54,25.83-7.92,41.84.77,7.59,4.97,16.57,4.95,24.12-.01,5.32-3.34,10.85-3.11,15.96.29,6.17,3.18,16.06,4.03,23.05,2.48,20.46,5.62,34.47,9.69,54.31,5.12,24.94,4.52,35.88,3.33,60.7-.91,18.99,18.84,23.72,11.44,47.45-1.3,4.17-8.1,12.74-8.16,13.53-.04.53,2.33,5.83,2.59,8.12.34,3.01-.73,7.77-.29,9.44s4.47,6.24,5.59,9.27c3.55,9.6,1.24,18.94-5.92,26.17,5.28,11.45,13.16,24.37,9.05,37.34-.9,2.84-4.26,6.7-4.25,8.67.02,5.9,6.42,11.14,4.85,22.92-.95,7.15-8.33,13.83-8.52,15.04-.39,2.6,3.06,15.86,3.47,20.17,2.44,25.16.98,50.7,3.14,75.86,4.07,47.56,22.86,85.2,4.01,134.03-3.36,8.7-13.84,22.64-15.57,28.43-2.04,6.83.36,15.36-2.73,24.27-9.23,26.61-38.08,28.37-62.01,30.99-28.11,29.95-75.92,28.22-102.69-2.74-2.37-2.75-4.83-10.61-8.83-8.27-.48.28-4.58,7.48-6.17,9.31-26.03,30.05-74.83,31.04-101.74,1.69-23.72-2.66-52.01-4.17-61.77-30.23-3.55-9.46-.96-16.38-2.73-24.27-.89-3.98-12.46-20.71-15.27-27.73-19.73-49.31-.75-86.54,3.47-134.49,2.25-25.48.66-51.37,3.14-76.86.42-4.37,3.86-17.47,3.46-20.17-.37-2.53-7.92-9.66-8.37-18.27s5.5-15.54,5.56-19.88c.02-1.36-3.45-6.02-4.25-8.34-2.34-6.79-1.62-11.81.42-18.52,1.11-3.66,8.72-18.29,8.7-19.95-.01-1.18-3.55-5.75-4.37-8.27-1.59-4.92-1.85-10.01-.6-15.03.78-3.13,4.06-6.71,4.32-8.76.64-4.95-3.23-13.01.98-18.99l-.44-1.42c-11.12-7.02-13.32-21.17-7.73-32.69,3.55-7.3,10.51-10.96,11.94-20.06,1.09-6.99-1.41-13.83-1.8-20.72-1.63-28.76,7.95-51.36,12.75-78.34,1.51-8.51,1.41-17.06,2.42-25.58.74-6.27,3.77-15.79,3.91-21.17.13-4.84-3.24-10.79-3.1-16.96.17-7.91,4.2-16.21,4.94-24.12,1.26-13.45-3.03-16.43-5.8-27.95-6.26-26.1.69-82.07,21.91-100.94,31.17-27.72,71.62,4.07,85.02,34.5ZM147.28,57.62c-6.56-7.79-10.8-17.53-16.76-25.73C112.39,6.97,76.52-7.05,56.47,24.3c-11.99,18.75-17.72,65.91-12.46,87.11,1.45,5.86,5.67,12.15,6.28,17.71,1.57,14.27-6.71,27.43-4.74,40.74.47,3.16,3.28,7.7,3.34,9.25.11,2.74-3.86,16.25-4.48,21.13-1.12,8.82-.98,17.77-2.41,26.59-4.71,29-14.38,50.05-12.75,81.33.31,5.9,2.69,11.84,1.95,17.87-1.7,13.95-15.27,20.08-15.54,33.24-.19,9.3,5.93,15.02,13.55,18.94-3.12,6.21-4.56,9.61-3.84,16.82.19,1.96,1.99,4.58,1.72,5.94-.2.99-4.23,5.21-5.02,7.92-2.64,8.97-.1,15.84,6.11,22.37-4.94,10.47-14.68,25.23-11.22,37.18.94,3.26,5.12,6.64,5.33,8.69.44,4.18-3.79,9.95-4.94,14.04-2.25,8,.05,18.5,7.77,22.63l.25,1.27c-8.52,34.58-4.41,70.8-8.09,106.03-5.17,49.65-24.13,86.48,1.84,136.18,2,3.83,10.32,14.72,10.92,17.07,1.2,4.67-.62,12.1.34,17.68,5.08,29.46,35.96,30.41,59.75,33.24,24.6,27.25,71.45,29.41,95.67.35,1.86-2.23,6.26-10.35,6.75-10.75,1.87-1.54,9.72-1.31,11.51-.03.49.35,4.5,8.08,6.26,10.24,20.86,25.62,60.71,28.15,86.44,8.5,2.93-2.24,5.57-6.72,8.96-8.04,8.65-3.38,25.88-2.5,36.8-6.2,11.67-3.95,21.15-14.21,23.54-26.46,1.15-5.92-.77-13.66.48-18.53.6-2.35,8.92-13.25,10.92-17.07,25.95-49.64,7.06-86.52,1.84-136.18-3.67-34.91.46-70.79-7.94-105.06,4.52-6.3,8.94-8.74,9.47-17.39.49-7.99-6.59-18.03-6.21-21.57.06-.55,3.61-4.06,4.56-6.08,6.12-13.07-4.6-27.11-9.61-38.9,7.47-6.78,11.47-15.29,6.92-25.18-1.11-2.43-5.96-6.51-6.1-6.95-.52-1.68,1.47-8.86.83-12.79-.41-2.55-3.75-6.96-3.66-8.07.08-1.02,9.58-9.47,10.64-17.07,2.64-19.08-11.12-22.29-12.82-36-.75-6.04,1.63-12.85,1.95-18.87,1.61-30.29-8.02-51.25-12.77-79.31-1.49-8.79-1.29-17.79-2.39-26.61-.66-5.24-4.65-18.81-4.44-22.15.11-1.8,2.83-5.96,3.3-9.24,1.93-13.21-6.33-26.41-4.74-40.74.56-5.01,4.03-10.33,5.5-15.5,9.66-33.98-4.43-129.42-58.87-103.87-20.32,9.54-31.92,27.63-41.64,46.87-2.33.51-1.6-.32-2.23-1.28-2.88-4.44-4.17-9.55-7.78-14.19-14.83-19-39.96-26-62.5-17.55-14.14,5.3-27.95,19.27-31.49,34.02ZM222.27,71.53c0,13.24-10.73,23.97-23.97,23.97s-23.97-10.73-23.97-23.97,10.73-23.97,23.97-23.97,23.97,10.73,23.97,23.97ZM216.55,71.62c0-10.08-8.17-18.26-18.26-18.26s-18.26,8.17-18.26,18.26,8.17,18.26,18.26,18.26,18.26-8.17,18.26-18.26Z"/>
</svg>