<?xml version="1.0" encoding="UTF-8"?>
<svg id="_レイヤー_1" data-name="レイヤー 1" xmlns="http://www.w3.org/2000/svg" width="204.61mm" height="305.86mm" viewBox="0 0 580 867">
  <path d="M237.01,54.99l6.47-9.01c21.71-25.65,57.46-29.83,84.04-9.01l15.46,18.02c6.1-12.29,12.62-22.36,23.7-30.81,63.71-48.55,89.04,33.52,85.35,84.35-1.14,15.73-9.54,25.83-7.92,41.84.77,7.59,4.97,16.57,4.95,24.12-.01,5.32-3.34,10.85-3.11,15.96.29,6.17,3.18,16.06,4.03,23.05,2.48,20.46,5.62,34.47,9.69,54.31,5.12,24.94,4.52,35.88,3.33,60.7-.91,18.99,18.84,23.72,11.44,47.45-1.3,4.17-8.1,12.74-8.16,13.53-.04.53,2.33,5.83,2.59,8.12.34,3.01-.73,7.77-.29,9.44s4.47,6.24,5.59,9.27c3.55,9.6,1.24,18.94-5.92,26.17,5.28,11.45,13.16,24.37,9.05,37.34-.9,2.84-4.26,6.7-4.25,8.67.02,5.9,6.42,11.14,4.85,22.92-.95,7.15-8.33,13.83-8.52,15.04-.39,2.6,3.06,15.86,3.47,20.17,2.44,25.16.98,50.7,3.14,75.86,4.07,47.56,22.86,85.2,4.01,134.03-3.36,8.7-13.84,22.64-15.57,28.43-2.04,6.83.36,15.36-2.73,24.27-9.23,26.61-38.08,28.37-62.01,30.99-28.11,29.95-75.92,28.22-102.69-2.74-2.37-2.75-4.83-10.61-8.83-8.27-.48.28-4.58,7.48-6.17,9.31-26.03,30.05-74.83,31.04-101.74,1.69-23.72-2.66-52.01-4.17-61.77-30.23-3.55-9.46-.96-16.38-2.73-24.27-.89-3.98-12.46-20.71-15.27-27.73-19.73-49.31-.75-86.54,3.47-134.49,2.25-25.48.66-51.37,3.14-76.86.42-4.37,3.86-17.47,3.46-20.17-.37-2.53-7.92-9.66-8.37-18.27s5.5-15.54,5.56-19.88c.02-1.36-3.45-6.02-4.25-8.34-2.34-6.79-1.62-11.81.42-18.52,1.11-3.66,8.72-18.29,8.7-19.95-.01-1.18-3.55-5.75-4.37-8.27-1.59-4.92-1.85-10.01-.6-15.03.78-3.13,4.06-6.71,4.32-8.76.64-4.95-3.23-13.01.98-18.99l-.44-1.42c-11.12-7.02-13.32-21.17-7.73-32.69,3.55-7.3,10.51-10.96,11.94-20.06,1.09-6.99-1.41-13.83-1.8-20.72-1.63-28.76,7.95-51.36,12.75-78.34,1.51-8.51,1.41-17.06,2.42-25.58.74-6.27,3.77-15.79,3.91-21.17.13-4.84-3.24-10.79-3.1-16.96.17-7.91,4.2-16.21,4.94-24.12,1.26-13.45-3.03-16.43-5.8-27.95-6.26-26.1.69-82.07,21.91-100.94,31.17-27.72,71.62,4.07,85.02,34.5ZM238.99,67c-6.56-7.79-10.8-17.53-16.76-25.73-18.13-24.93-54-38.95-74.05-7.59-11.99,18.75-17.72,65.91-12.46,87.11,1.45,5.86,5.67,12.15,6.28,17.71,1.57,14.27-6.71,27.43-4.74,40.74.47,3.16,3.28,7.7,3.34,9.25.11,2.74-3.86,16.25-4.48,21.13-1.12,8.82-.98,17.77-2.41,26.59-4.71,29-14.38,50.05-12.75,81.33.31,5.9,2.69,11.84,1.95,17.87-1.7,13.95-15.27,20.08-15.54,33.24-.19,9.3,5.93,15.02,13.55,18.94-3.12,6.21-4.56,9.61-3.84,16.82.19,1.96,1.99,4.58,1.72,5.94-.2.99-4.23,5.21-5.02,7.92-2.64,8.97-.1,15.84,6.11,22.37-4.94,10.47-14.68,25.23-11.22,37.18.94,3.26,5.12,6.64,5.33,8.69.44,4.18-3.79,9.95-4.94,14.04-2.25,8,.05,18.5,7.77,22.63l.25,1.27c-8.52,34.58-4.41,70.8-8.09,106.03-5.17,49.65-24.13,86.48,1.84,136.18,2,3.83,10.32,14.72,10.92,17.07,1.2,4.67-.62,12.1.34,17.68,5.08,29.46,35.96,30.41,59.75,33.24,24.6,27.25,71.45,29.41,95.67.35,1.86-2.23,6.26-10.35,6.75-10.75,1.87-1.54,9.72-1.31,11.51-.03.49.35,4.5,8.08,6.26,10.24,20.86,25.62,60.71,28.15,86.44,8.5,2.93-2.24,5.57-6.72,8.96-8.04,8.65-3.38,25.88-2.5,36.8-6.2,11.67-3.95,21.15-14.21,23.54-26.46,1.15-5.92-.77-13.66.48-18.53.6-2.35,8.92-13.25,10.92-17.07,25.95-49.64,7.06-86.52,1.84-136.18-3.67-34.91.46-70.79-7.94-105.06,4.52-6.3,8.94-8.74,9.47-17.39.49-7.99-6.59-18.03-6.21-21.57.06-.55,3.61-4.06,4.56-6.08,6.12-13.07-4.6-27.11-9.61-38.9,7.47-6.78,11.47-15.29,6.92-25.18-1.11-2.43-5.96-6.51-6.1-6.95-.52-1.68,1.47-8.86.83-12.79-.41-2.55-3.75-6.96-3.66-8.07.08-1.02,9.58-9.47,10.64-17.07,2.64-19.08-11.12-22.29-12.82-36-.75-6.04,1.63-12.85,1.95-18.87,1.61-30.29-8.02-51.25-12.77-79.31-1.49-8.79-1.29-17.79-2.39-26.61-.66-5.24-4.65-18.81-4.44-22.15.11-1.8,2.83-5.96,3.3-9.24,1.93-13.21-6.33-26.41-4.74-40.74.56-5.01,4.03-10.33,5.5-15.5,9.66-33.98-4.43-129.42-58.87-103.87-20.32,9.54-31.92,27.63-41.64,46.87-2.33.51-1.6-.32-2.23-1.28-2.88-4.44-4.17-9.55-7.78-14.19-14.83-19-39.96-26-62.5-17.55-14.14,5.3-27.95,19.27-31.49,34.02ZM288.11,281.11l-4.11,33.89,7.9-.11,2.61-20.9,4.43,20.58,9.02.38c.81-5.55,1.83-11.11,2.91-16.62.27-1.38-.65-3.96,1.63-3.33l1.5,20.01h9s-3.99-34.01-3.99-34.01l-11.56.95-3.94,22.07-4.55-22.96-10.84.06ZM313.97,80.9c0,13.24-10.73,23.97-23.97,23.97s-23.97-10.73-23.97-23.97,10.73-23.97,23.97-23.97,23.97,10.73,23.97,23.97ZM308.26,80.99c0-10.08-8.17-18.26-18.26-18.26s-18.26,8.17-18.26,18.26,8.17,18.26,18.26,18.26,18.26-8.17,18.26-18.26ZM363,315h9v-18l10.16,17.84,8.84.16v-34h-8v18c-2.36.49-1.61-.3-2.24-1.29-1.69-2.62-7.18-15.27-8.74-16.22-2.1-1.28-6.48-.14-9.01-.49v34ZM195,370h9v-14h11v14h9v-34h-9.01s.01,13.01.01,13.01h-10.43s-.57-13.01-.57-13.01h-9.01v34.01ZM291,370h9v-14h11v14h9v-34h-9.01s.01,13.01.01,13.01h-10.43s-.57-13.01-.57-13.01h-9.01v34.01ZM340,400h-15v7.01s7.01-.01,7.01-.01v7.01c-23.35,2.14-15.88-30.31,4.98-18.01l2.01-6.99c-9.98-5.02-27.51-3.48-29.76,9.73-3.53,20.76,13.93,26.08,30.76,20.26v-19ZM217,294h-15v7.01s7.01-.01,7.01-.01v7.01c-23.08,2.86-16.69-29.34,4.99-18l.88-6.87c-9.61-4.71-26.5-2.95-28.64,9.61-3.57,20.96,13.99,26.82,30.76,19.76v-18.5ZM224,281v34h22v-7.01s-13.01.01-13.01.01v-6.43s12.01-.57,12.01-.57v-7.01s-12.01.01-12.01.01v-6.01s13.01.01,13.01.01v-7.01h-22.01ZM231,336v34h22v-7.01s-13.01.01-13.01.01v-6.43s12.01-.57,12.01-.57v-7.01s-12.01.01-12.01.01v-6.01s13.01.01,13.01.01v-7.01h-22.01ZM327,336v34h22v-7.01s-13.01.01-13.01.01v-6.43s12.01-.57,12.01-.57v-7.01s-12.01.01-12.01.01v-6.01s13.01.01,13.01.01v-7.01h-22.01ZM164.52,349.98c2.44,5.83,17.04,6.24,15.47,11.49-1.05,3.52-12.58,1-14.98-1.47l-1.59,7.04c8.42,4.59,26.07,5.84,25.67-7.54-.34-11.56-16.13-9.12-16.14-13.98-.01-7.1,12.69-.64,13.99-1.55l.97-6.89c-9.32-3.21-29.54-1.78-23.39,12.9ZM217.51,237l3.99-9.98c2.18-.04.69,8.86,4.09,9.9,5.1,1.56,2.12-8.83,6.9-8.93,4.85,21.87,10.46,1.18,2.9-3.89-3.23-2.17-5.35-.4-7.89,1.74-4.28-5.18-7.5-5.07-11.48.15l-1.03-3.99c-6.33-4.13-6.98,21.46,2.53,15ZM211.76,633.45c-7.85-6.26-7.13,9.3-2.72,13.01s6.24.13,8.66-.28c1.19-.2,2.62,1.94,4.8,1.95,2.66,0,5.26-3.47,9.5-1.13l-2-13c-8.42-1.54-4.28,5.01-8.5,9l-1.96-9.03c-7.46-3.25-2.49,7.62-7.52,10.04l-.25-10.54ZM292,240c-5.42-1.6-14.25,2.12-17.9-3.6-5.02-7.87,4.66-14.84,11.89-11.4-3.53-11.52,6.01-9.12,6.01-1.5v16.5ZM279.24,228.25c-1.9,3.01-2.15,7.83,2.08,8.6,2.36-.68,4.42-2.61,4.52-5.2l-3.82-4.16-2.78.76ZM344.76,674.25c.95.89,3.03,20.99,2.24,21.75-7.01-1.24-18.9,3.58-19.08-7.5-.12-7.8,6.78-8.96,13.07-7.51l-.96-6.42c.45-1.88,3.87-1.13,4.73-.32ZM334.63,684.06c-3.34.98-3.3,8.52.86,8.99l5.49-4.55c-1.7-1.42-3.83-5.18-6.35-4.44ZM300,650c-2.22.94-4.35-1.48-5.51-1.58-1.7-.15-3.65,1.91-6.73,1.41-12.51-2.02-7.28-20.1,6.24-15.83l-.99-6.99c9.53-.97,5.21,16.4,6.99,23ZM286.14,645.86c15.58.29,1.56-14.87-.99-5.14-.46,1.76.32,3.55.99,5.14ZM298,688c-4.18,1.29-7.54,3.47-11.99,1-1.59,1.93,4.64,3.9,6.34,3.74,1.27-.12,7.23-3.28,5.65-4.74.14.16,3.47-.19,3.99,1.54-1.68,9.1-16.2,7.98-20.45,1.42-7.42-11.44,10.5-16.82,14.9-9.91,1.38,2.17,1.32,6.68,1.56,6.95ZM293,685.99l-2.6-4.92-5.38,3.43c1.92,2.49,5.27,1.3,7.97,1.49ZM319.87,589.88c-4.24,1.74-7.37,2.82-11.87,1.13,2.76,5.29,10.92,3.66,13-1.56l2.97.58c0,11.07-16.77,8.92-21.02,1.53-7.07-12.3,19.31-17.86,16.92-1.68ZM313.9,583.09c-1.02-.73-7.47.27-5.89,3.41,3.54,4.55,9.58-.75,5.89-3.41ZM318.9,528.59c-2.26,4.97-.37,8.42,3.35,11.76l8.74,3.14c-2.44,3.6-5.71,1.12-8.99,2.01,11.78,9.6,18.07-3.66,15.84-14.84l-1.45-1.57-3.45.36c-1.23,2-3.3,10.04-6.33,9.5-3.92-2.56-3.87-6.72-3.61-10.96l-4.1.59ZM312.87,231.88c-4.24,1.74-7.37,2.82-11.87,1.13,1.63,4.15,7.89,3.81,11,1.48,1.57-1.18,2.43-5.48,4.88-2.37,3.75,4.76-9.15,10.79-17.39,4.89-15.68-11.23,14.13-24.88,13.38-5.13ZM306.9,225.1c-8.31-.11-7.53,6.37,1.09,4.89l-1.09-4.89ZM248.03,235.43c2.45.75,4.67.28,6.97,1.07-1.04,1.16-1.88,2.24-3.55,2.52-2.23.38-5.75-2.08-5.44.47,2.35,2.78,7.83,3.42,10.98,1.99,5.8-2.62,7.09-24.43.07-17.93-2.53,2.34-2.51,7.7-6.57,8.5-3.78-.02-3.76-7.47-3.49-10.06-9.26-1.33-4.52,11.74,1.03,13.43ZM289.12,581.88c.57.72,9.74.97,11.48,7.1,2.22,7.79-13.52,10.81-16.06,6.97-2.2-3.33-3.31-23.48,2.47-20.51,2.89,1.48,1.46,5.63,2.1,6.44ZM289.01,594c7.32-.36,8.35-8.62,0-8v8ZM358,596.01c4.31-.15,7.79,1.98,12-.03.7-3.6-4.12-1.21-6.98-2.5-8.04-3.65-5.82-14.25,3.52-14.57,9.95-.34,9.1,13.08,7.49,19.61-2.93,2.97-13.81,1.86-16.02-2.52ZM365.63,582.06c-3.39,2.45-3.9,7.82.75,8.88,4.12-2.72,5.43-8.56-.75-8.88ZM309,643.01c1.93,3.6,6.19,3.56,9.38,1.86,2.03-1.08,4.93-6.53,6.66-1.37-4.18,10.26-23.12,5.81-22.11-5.01.95-10.14,18.99-8.86,17.97,1.83-1.11,3.51-8.98,2.64-11.89,2.68ZM313.53,634.11l-5.51,3.39c1.61,1.85,3.95,2.8,6.4,2.46,2.53-.64.49-4.83-.89-5.86ZM258.69,530.31c2.29,2.11,6.43,15.09,2.78,15.7-4.25-3.44-12.02,1.26-16.2-3.27-5.16-5.59,5.99-9.96,10.72-9.23-2.47-3.59-14.15,1.29-11.03-5.04,3.89-1,10.68-.97,13.72,1.84ZM256.99,540.99c-.41-4.65-4.56-4.54-7.92-2.9l-.08,2.9h8ZM288.16,525.7c-.15.62.75,11.06.96,12.68.35,2.79,1.39,8.7,5.41,6.65,1.01-1.84-.56-8.74,2.95-8.03,2.93.59,2.58,10.77,9.51,7.99l-3.99-9.5c2.05-1.33,3.6-1.35,2.99-4.48l-11.99,2c2.62-5.47-4.14-14.51-5.84-7.3ZM332,227.99c-1.25-4.9-11.47-.69-11.99-3.5-.82-4.39,11.77-3.18,14.92.09,1.98,2.05,5.27,12.54,3.1,13.98-4.7.04-15.19,1.54-17.53-3.57-2.92-6.39,6.96-7.81,11.5-6.99ZM333,232.01c-1.9-.93-8.69-2.11-7.99,1.47.43,2.22,8.73,2.7,7.99-1.47ZM193.99,648.99c-4.69-2.7-16.96,1.62-18.02-5.54-.89-5.96,6.91-6.24,11.02-6.95l-11.97-3.01c11.67-7.83,21.02,3.26,18.97,15.5ZM189,642.02c-3.67-1.7-5.73-3.21-8.98.48,2.78,3.06,7.1,3.79,8.98-.48ZM258.13,631.12c-1.75,1.07.11,20.53,5.93,16.44,1.91-1.34,1.75-10.85,6.93-10.56.46,2.6,1.58,13.63,6.03,10.52,2.27-1.59-.76-10.72-2.45-12.59-4.75-5.24-11.13,1.53-11.56,1.07l-1.14-4.86h-3.74ZM352.02,582.49c-2.41-1.44-8.39-.62-10.53,1.49l-2.45-4.57-3.9.75c-.89,1.39,1.38,14.45,2.81,15.38,5.71,3.73,5.03-8.31,9.54-10.52,1.62-.03,2.64,14.41,7.49,10.98,1.8-1.27-1.08-12.38-2.97-13.51ZM382.5,643.98c-3.65-2.69-3.16-7.1-3.94-11.04l-4.55-.95c-2.35,9.06,6.26,21.51,14.63,13.1l6.84,2.91c2.92-1.97-1.46-3.71-2.56-6.43-.7-1.72-1.36-8.05-2.01-8.49-5.73-3.89-6.45,10.9-8.42,10.89ZM268.51,527.05l-3.42,2.62c1.24,5.69-.64,14.2,6.89,15.33,1.26-4.18,1.96-9.05,5.52-11.98,1.35-.02,4.23,18.42,8.03,9.94,1.08-2.41-1.77-11.19-4.55-12.45-5.39-2.44-9.6,2.87-9.97,2.48l-2.5-5.95ZM244.97,681.51c-2.11-5.95-6.59-11.67-12.97-6.77l-.99,10.26-5.99,1.5c1.09,2.56,6.02,1.99,6.81,2.67,1.12.96.08,8.33,5.17,6.83v-8c.67-.66,8.64,1.77,8-2.98l-9-1.01.14-6.37,1.36-1.61,3.51,6.98,3.96-1.49ZM305.1,678.12c-.78,1.26.36,14.09,1.52,14.99.44.34,3.93,1.81,4.4,1.44l5.48-11.53,6,11.96c2.72-1.98,2.54-2.99,2.09-6.01-1.4-9.43-6.78-11.9-14.58-5.97,1.39-3.17-3.15-7.75-4.91-4.88ZM348.76,528.19c12.52-1.87,17.1,18.1,2.85,17.73-12.41-.32-16.16-15.74-2.85-17.73ZM352.85,532.17c-4.28-2.62-11.06,4.74-6.18,8.91,2.71,1.4,5.52,1.08,8.2-.2.9-1.52-1.21-8.2-2.02-8.7ZM210.57,586.07l-5.56,2.42,6.99,1.51c-.48,2.04.66,8.59,3.48,7.99,2.52-1.93,1.29-5.28,1.52-7.99l7.99-1.01-1.67-2.82-7.33-.17v-8c4.92.24,2.23,7.61,8,6.99-.64-13.53-15.09-14.34-13.43,1.07ZM224,542.5c0,.61,1.35,2.61,2.26,2.85l3.64-.45,1-10.31c7.36-2.78,1.97,12.65,10.08,11.41,1.18-7.91-2.68-17.84-11.97-15-.93-3.03-.42-7.89-5.02-6.99v18.5ZM374.09,537.59c-3.12,7.26-5.95-4.08-5.53-7.65l-4.49-.87c-3.22,8.69,7.16,22.04,14.43,11.95l6.01,3.95c3.27-2.35-1.09-4.51-2.3-7.68-.92-2.4-1.42-4.71-1.21-7.3-7.84-1.18-5.01,3.18-6.9,7.59ZM358.66,626.96c-2.21.53-1.64,9.12-1.66,11.04-9.16-.58-7.1,5.29,1,3.99-.3,2.14-.2,7.45,2.47,7.75,5.12.56.41-7,2.48-8.27l8.04-.47c.24-4.48-6.6-2.53-8.78-4.22l-.21-6.77c4.31-.06,2.89,7.16,7.99,5.99-.62-6.92-4.12-10.33-11.33-9.03ZM240.71,632.21c3.16-.72,8.41-.7,10.75,1.83,9.11,9.9-1.53,18.69-12.15,13.15-6.85-3.58-5.77-13.34,1.4-14.98ZM246.87,635.13c-12.24-.84-8.36,15.18,1.65,8.88,1.72-2.8-.74-6.23-1.65-8.88ZM229.29,583.28c2.98-3.61,12.2-4.82,15.57-.64,8.19,10.16-1.5,18.02-11.92,12.92-4.37-2.14-7.1-8.1-3.65-12.28ZM240.76,584.24c-6.24-6.54-14.37,14.1,1,8.51,1.76-1.72.32-7.12-1-8.51ZM220.98,527.5c0-3.78-23.46-2.87-26.98-1.49l1.67,2.82,9.33.17c.68.68-1.27,18.66,6,15.5l-1.01-15.49c.8-.81,9.6,1.49,10.98-1.5ZM248.05,680.4c-.06,3.13,2.86,16.47,7.42,15.6,2.94-2.93,1.54-11.39,6.94-11.03,1.4.09,6.07,3.69,6.55.53.63-4.12-11.27-5.98-13.96-1.51,1.3-5.42-6.86-8.64-6.96-3.6ZM329.51,630.93l-2.26,1.52c2.1,5.96.01,16.89,8.71,16.53,1.77-9.15,1.98-13.01,12.03-8.99-1.26-6.72-9.4-6.02-13.98-3-.15-2.99-.98-6.36-4.5-6.07ZM251.11,580.13c.89,6.14-.06,18.33,8.88,16.88l2.69-10.09c3.83-2.61,7.08,4.15,8.3.57.78-2.27-.03-1.97-1.25-2.75-4.96-3.16-7.75-1.07-12.73.27.33-4.31-1.58-7.23-5.89-4.88ZM345.36,222.12c-6.65-2.51-3.08,10.55-1.57,13.59,1.38,2.76,2.99,3.77,6.17,3.26.8-3.83.45-8.15,4.07-10.52l7.97,1.54c-2.62-6.84-8.35-5.02-13.97-2.99l-2.67-4.87ZM401.5,627.02c-5.16,4.9-1.71,14.61-1.02,21,.51,1.12,2.93,1.35,3.51.98.95-.61.52-21.94-2.49-21.98ZM367.49,231.99c2.02-.43,3.51-16.72-1.98-14.99-3.06.97-1.48,15.71,1.98,14.99ZM275.5,695.98c2.22.04,1.56-9.5,1.36-11.34l-4.85-1.65c-.08,4.87-.91,9.72,3.5,12.98ZM329.01,597l3.91-1.65-.92-10.36c-7.84-1.27-4.13,7.25-2.98,12ZM271.1,675.38c.62,2.9,2.44,6.31,5.89,5.61l-1.14-6.86c-1.5-.01-5.3-1.3-4.75,1.24ZM197.14,227.44l10.98,22,1.46-.73-10.98-22-1.46.73ZM327.01,575c-.31,2.89.99,5.66,2.49,8.02l2.52-.6-.16-6.27-4.85-1.15ZM387.99,207.01l-7.51,14.98.51,3.01,7-17.99ZM346.86,281.14l11.14,33.86-9.95-.05-1.15-6.84-10.01.47-1.82,5.98-9.05.43,11.14-33.86h9.72ZM345,302c.49-.48-1.63-12.29-3.99-13l-2.01,13h6ZM341.01,289l-2.01,13h6c.49-.48-1.63-12.29-3.99-13ZM275.5,336c18.21,2.57,11.56,27.27-6.51,23v11.01s-8.99,0-8.99,0v-34c4.87.48,10.79-.66,15.5,0ZM269,353c11.24.79,12.72-12.01.47-10.06l-.47,10.06ZM269.47,342.94l-.47,10.06c11.24.79,12.72-12.01.47-10.06ZM281.32,236.85c2.36-.68,4.42-2.61,4.52-5.2l-3.82-4.16-2.78.76c-1.9,3.01-2.15,7.83,2.08,8.6ZM335.49,693.05l5.49-4.55c-1.7-1.42-3.83-5.18-6.35-4.44-3.34.98-3.3,8.52.86,8.99ZM285.14,640.72c-.46,1.76.32,3.55.99,5.14,15.58.29,1.56-14.87-.99-5.14ZM290.4,681.07l-5.38,3.43c1.92,2.49,5.27,1.3,7.97,1.49l-2.6-4.92ZM308.01,586.49c3.54,4.55,9.58-.75,5.89-3.41-1.02-.73-7.47.27-5.89,3.41ZM307.99,229.99l-1.09-4.89c-8.31-.11-7.53,6.37,1.09,4.89ZM289,586v8c7.32-.36,8.35-8.62,0-8ZM366.38,590.94c4.12-2.72,5.43-8.56-.75-8.88-3.39,2.45-3.9,7.82.75,8.88ZM308.02,637.5c1.61,1.85,3.95,2.8,6.4,2.46,2.53-.64.49-4.83-.89-5.86l-5.51,3.39ZM249.08,538.09l-.08,2.9h8c-.41-4.65-4.56-4.54-7.92-2.9ZM325.01,233.48c.43,2.22,8.73,2.7,7.99-1.47-1.9-.93-8.69-2.11-7.99,1.47ZM180.02,642.5c2.78,3.06,7.1,3.79,8.98-.48-3.67-1.7-5.73-3.21-8.98.48ZM346.67,541.07c2.71,1.4,5.52,1.08,8.2-.2.9-1.52-1.21-8.2-2.02-8.7-4.28-2.62-11.06,4.74-6.18,8.91ZM286.81,386.23c25.18-1.4,26.08,38.54-2.22,34.68-19.6-2.67-18.55-33.53,2.22-34.68ZM293.71,395.3c-1.8-1.45-5.95-1.7-8.18-1.28-8.26,1.57-8.63,22.7,4.74,19.78,7.09-1.55,7.64-15.12,3.44-18.5ZM285.53,394.02c-8.26,1.57-8.63,22.7,4.74,19.78,7.09-1.55,7.64-15.12,3.44-18.5-1.8-1.45-5.95-1.7-8.18-1.28ZM248.52,644.01c1.72-2.8-.74-6.23-1.65-8.88-12.24-.84-8.36,15.18,1.65,8.88ZM241.76,592.75c1.76-1.72.32-7.12-1-8.51-6.24-6.54-14.37,14.1,1,8.51ZM269.5,281c11.92,1.67,12.43,13.15,3.53,19.5,4.54,3.54,4.61,9.66,6.97,14.49l-9.04-.45c-2.68-3.67-1.49-11.32-7.44-11.58-2.12-.09-1.31.03-1.53,1.51-.29,1.91.4,10.15.01,10.54h-9.01v-34.01c5.18.51,11.49-.7,16.5,0ZM262,297c5.17.53,10.38-3.32,7.05-8.56l-7.06-.44v9.01ZM269.06,288.44l-7.06-.44v9.01c5.18.53,10.39-3.32,7.06-8.56ZM373.5,336c9.71,1.6,12.14,14.74,2.51,18.02l6.99,15.97-9.04-.45c-2.68-3.67-1.49-11.32-7.44-11.58-2.12-.09-1.31.03-1.53,1.51-.29,1.91.4,10.15.01,10.54h-9.01v-34.01c5.37.62,12.38-.85,17.5,0ZM371.77,343.21l-6.76-1.21v9s7.09-1.41,7.09-1.41c1.56-1.92.85-4.47-.33-6.38ZM365.01,342v9s7.09-1.41,7.09-1.41c1.56-1.92.85-4.47-.33-6.38l-6.76-1.21ZM332,738c6.14-.18,19.92-1.68,16.82,8.31-.9,2.89-4.58,1.65-3.82,4.68,4.12.26,5.15,2.53,5.04,6.49-.24,8.66-11.95,6.23-18.04,6.52v-26ZM337.64,741.08c-1.25.4-1.45,1.29-1.66,2.44-2.36,12.73,19.99-1.05,1.66-2.44ZM337.64,752.11c-4.24,1.4-1.64,14.05,6.31,7.36,5.09-4.28-2.13-8.74-6.31-7.36ZM248,764h5.01c.32-3.39-1.18-12.64,1.98-14.51l5.09-.05.93,14.57h4v-15.5c0-3.41-9.87-4.62-11.99-.5v-11s-5.01,0-5.01,0v27ZM327,756l-13.03.47c-2.13,1.19,1.41,4.62,3,5.13,4.02,1.3,9.09-3.53,8.04,2.39-5.24,1.18-12.79,1.83-15.24-4.25-6.3-15.62,17.4-21.62,17.24-3.75ZM316.7,748.13c-1.39.4-4.64,4.33-2.73,5.4,1.48.9,8.91.96,9.01-1.02-1.53-2.51-2.75-5.39-6.27-4.37ZM306,755.99l-13.03.47-.5,2.56c3.37,5.18,7.88.48,11.52,3.49.69,1.93-4.92,2.4-5.64,2.41-15.85.27-13.21-23.82,1.49-19.27,5,1.55,5.77,5.67,6.16,10.33ZM301,754c.7-7.46-6.7-8.05-9.02-1.51-.55,3.03,7.11.92,9.02,1.51ZM223,738v4s8,0,8,0v22h4v-22h8s0-4,0-4h-20ZM271,764h4c-.57-8.17-.43-14.45,9.04-15.52l-.04-3.48-8.5,3.99-.59-2.88-3.91-.12v18ZM343.96,759.46c5.09-4.28-2.13-8.74-6.31-7.36s-1.64,14.05,6.31,7.36ZM335.98,743.52c-2.36,12.73,19.99-1.05,1.66-2.44-1.25.4-1.45,1.29-1.66,2.44ZM313.97,753.53c1.48.9,8.91.96,9.01-1.02-1.53-2.51-2.75-5.39-6.27-4.37-1.39.4-4.64,4.33-2.73,5.4ZM291.98,752.49c-.55,3.03,7.11.92,9.02,1.51.7-7.46-6.7-8.05-9.02-1.51ZM388,370v-34h15.5c7.6,0,13.49,9.45,13.49,16.5,0,17.12-15.44,18.4-28.99,17.5ZM397,363c15.26,2.82,15.28-23.07,0-20v20ZM397,343v20c15.26,2.82,15.28-23.07,0-20ZM239,421v-34h15.5c7.92,0,12.92,9.38,12.93,16.5.03,16.92-14.87,18.42-28.43,17.5ZM248,394v20c14.85,2.12,15.46-22.89,0-20ZM248,414c14.85,2.12,15.46-22.89,0-20v20Z"/>
</svg>