<?xml version="1.0" encoding="UTF-8"?>
<svg id="_レイヤー_1" data-name="レイヤー 1" xmlns="http://www.w3.org/2000/svg" width="179.87mm" height="300.62mm" viewBox="0 0 509.87 852.16">
  <path d="M311.77,73.42c20.82.44,40.5,7.23,58.67,16.83,9.83,5.19,23.89,16.82,32.62,20.38,13.01,5.31,23.17,5.93,37.02,13.98,44.49,25.89,33.69,49.23,48.93,89.07,3.39,8.85,9.75,16.07,13.64,24.36,11.6,24.72,10.45,61.32-12.55,79.21-5.31,4.13-11.73,5.91-16.66,9.34-6.43,4.47-9.33,15.57-13.64,22.36-9.52,14.98-22.77,21.92-40.57,21.52-1.86-.04-4.61-1.28-5.8-.94-1.06.3-3.47,4-3.44,5.21.05,2.22,3,10.8,3.67,14.3.47,2.46-.23,5.14.32,7.68.79,3.61,10.14,17.9,12.54,24.46,3.64,9.96,5.1,20.67,8.5,30.5,8.44,24.45,26.14,46.63,35.03,71.97,11.66,33.21,6.44,49.56,6.64,82.28.12,19.9,9.03,35.61,12.62,54.46,5.49,28.87,3.61,60.63-6.79,88.28-1.65,4.38-9.46,18.18-9.75,20.33-.42,3.09,2.47,8.39,2.9,12.03,3.74,31.46-18.47,45.26-46.4,48.38-5.48.61-17.26-.13-21.78,1.22-1.82.54-4.74,4.72-6.79,6.21-31.34,22.79-94.9,20.71-120.89-9.94-1.36-1.6-3.92-7-4.26-7.25-3.09-2.24-20.28-1.05-23.5,1.04-.58.38-5.99,8.97-7.74,10.76-26.72,27.32-97.1,28.09-123.22-1.05-23.98.28-61.26-4.68-65.85-33.93-.78-4.99.71-18.11.05-20-2.05-5.93-11.04-17.96-14.36-25.69-12.24-28.46-12.86-67.44-5.65-97.37,2.05-8.52,6.01-16.71,8.02-24.98,6.53-26.83-1.67-55.7,3.79-84.21,6.72-35.11,27.83-58.03,39.73-89.27,2.53-6.64,12.04-35.61,12.78-41.25.38-2.9-1.09-8.26-.67-12.66.73-7.66,5.31-14.69,5.87-22.61-19.27,6.13-39.83-.75-51.43-17.08-4.94-6.96-7.85-18.65-13.03-23.97-3.78-3.88-10.63-5.61-15.45-8.55-23.41-14.26-28.74-45.13-22.36-70.2,3.88-15.26,13.61-25.16,19.05-38.95,10.08-25.56,6.45-50.81,26.72-73.28,16.71-18.52,35.8-22.99,56.55-33.45,8.38-4.22,17.27-11.51,25.65-16.35,22.09-12.75,45.22-22.92,71.3-23.2-9.83-29.66,9.14-64.67,39.8-71.7,44.94-10.29,82.02,27.1,70.2,71.7ZM301.78,78.42c11.57-26.72-.14-59.1-28.02-69.48-42.98-16.01-80.73,29.3-61.99,69.48-20.79.11-39.89,4.09-58.67,12.83-15.7,7.31-29.21,19.14-43.64,26.36-19.48,9.74-38.1,13.61-54.19,30.81-20.84,22.27-16.96,48.79-27.46,74.54-4.01,9.83-11.21,18-15.2,27.8-9.3,22.81-8.02,54.49,12.7,70.66,6.94,5.41,16.54,7.13,22,14s7.89,17.49,13.97,25.03c12.04,14.95,30.92,18.84,47.94,9.93.33.02,3.25,5,3.34,5.7.07.58-1.86,10-2.21,11.42-1.13,4.61-3.95,9.39-4.45,14.54-.46,4.68,1.21,8.93.7,12.63-.94,6.88-9.95,33.4-12.8,41.29-11.28,31.22-33.12,54.37-39.72,89.28-5.39,28.5,2.8,57.16-3.79,84.21-1.75,7.19-5.34,14.51-7.22,21.78-8.65,33.45-7.66,73.32,7.85,104.57,2.1,4.22,11.13,17.2,11.67,19.41.69,2.82-1.24,12.11-.84,16.77,2.19,25.5,27.63,30.65,48.55,32.46,4.05.35,10.34-.81,13.79.21,1.9.56,6.46,6.44,8.79,8.21,27.48,20.94,85.85,18.14,108.89-8.94,1.48-1.74,3.9-7.05,4.69-7.55,1.36-.87,13.63-3.73,15.84-3.91,2.79-.23,16.56.98,18.26,2.21.51.37,1.75,4.23,2.82,5.69,22.43,30.53,83.57,34.57,112.34,12.52,2.34-1.79,5.9-7,7.46-7.62,5.3-2.07,21.67-.89,28.99-1.94,22.5-3.22,39-15.72,36.61-40.37-.39-3.99-3.95-11.48-3.73-13.86.17-1.86,8.88-17.12,10.51-21.38,10.82-28.29,12.14-61.64,5.55-91.08-4.57-20.4-11.59-32.22-11.36-54.72.31-30.66,4.04-47.52-6.94-77.98-8.59-23.81-25.03-44.42-33.5-67.5-6.26-17.04-7.67-33.45-17.1-49.9-1.21-2.12-4.84-5.52-5.22-6.78-.82-2.75.16-6.57-.32-9.68-.62-4.02-4.02-13.43-3.85-16.06.11-1.77,4.64-10.33,6.23-10.9,17.66,4.04,32.64.39,43.15-14.75,6.07-8.75,7.52-19.87,16.65-26.35,3.8-2.69,9.27-4.19,13.26-6.74,20.83-13.34,24.39-43.2,17.62-65.26-4.09-13.33-13.32-23.07-17.95-36.05-13.08-36.59-4.94-59.27-43.68-83.32-14.74-9.16-24.11-9.13-38.23-14.77-14.09-5.62-31.27-20.99-48.09-27.91-15.93-6.56-32.74-9.17-49.98-9.52ZM280.05,56.14c0,12.96-10.5,23.46-23.46,23.46s-23.46-10.5-23.46-23.46,10.5-23.46,23.46-23.46,23.46,10.5,23.46,23.46ZM252.5,39.66c-4.74.99-10.9,7.53-11.66,12.33-3.06,19.47,18.97,29.4,29.39,13.39,8.01-12.3-3.12-28.75-17.73-25.72Z"/>
</svg>