<?xml version="1.0" encoding="UTF-8"?>
<svg id="_レイヤー_1" data-name="レイヤー 1" xmlns="http://www.w3.org/2000/svg" width="204.61mm" height="305.86mm" viewBox="0 0 580 867">
  <path d="M346,83c20.82.44,40.5,7.23,58.67,16.83,9.83,5.19,23.89,16.82,32.62,20.38,13.01,5.31,23.17,5.93,37.02,13.98,44.49,25.89,33.69,49.23,48.93,89.07,3.39,8.85,9.75,16.07,13.64,24.36,11.6,24.72,10.45,61.32-12.55,79.21-5.31,4.13-11.73,5.91-16.66,9.34-6.43,4.47-9.33,15.57-13.64,22.36-9.52,14.98-22.77,21.92-40.57,21.52-1.86-.04-4.61-1.28-5.8-.94-1.06.3-3.47,4-3.44,5.21.05,2.22,3,10.8,3.67,14.3.47,2.46-.23,5.14.32,7.68.79,3.61,10.14,17.9,12.54,24.46,3.64,9.96,5.1,20.67,8.5,30.5,8.44,24.45,26.14,46.63,35.03,71.97,11.66,33.21,6.44,49.56,6.64,82.28.12,19.9,9.03,35.61,12.62,54.46,5.49,28.87,3.61,60.63-6.79,88.28-1.65,4.38-9.46,18.18-9.75,20.33-.42,3.09,2.47,8.39,2.9,12.03,3.74,31.46-18.47,45.26-46.4,48.38-5.48.61-17.26-.13-21.78,1.22-1.82.54-4.74,4.72-6.79,6.21-31.34,22.79-94.9,20.71-120.89-9.94-1.36-1.6-3.92-7-4.26-7.25-3.09-2.24-20.28-1.05-23.5,1.04-.58.38-5.99,8.97-7.74,10.76-26.72,27.32-97.1,28.09-123.22-1.05-23.98.28-61.26-4.68-65.85-33.93-.78-4.99.71-18.11.05-20-2.05-5.93-11.04-17.96-14.36-25.69-12.24-28.46-12.86-67.44-5.65-97.37,2.05-8.52,6.01-16.71,8.02-24.98,6.53-26.83-1.67-55.7,3.79-84.21,6.72-35.11,27.83-58.03,39.73-89.27,2.53-6.64,12.04-35.61,12.78-41.25.38-2.9-1.09-8.26-.67-12.66.73-7.66,5.31-14.69,5.87-22.61-19.27,6.13-39.83-.75-51.43-17.08-4.94-6.96-7.85-18.65-13.03-23.97-3.78-3.88-10.63-5.61-15.45-8.55-23.41-14.26-28.74-45.13-22.36-70.2,3.88-15.26,13.61-25.16,19.05-38.95,10.08-25.56,6.45-50.81,26.72-73.28,16.71-18.52,35.8-22.99,56.55-33.45,8.38-4.22,17.27-11.51,25.65-16.35,22.09-12.75,45.22-22.92,71.3-23.2-9.83-29.66,9.14-64.67,39.8-71.7,44.94-10.29,82.02,27.1,70.2,71.7ZM336,87.99c11.57-26.72-.14-59.1-28.02-69.48-42.98-16.01-80.73,29.3-61.99,69.48-20.79.11-39.89,4.09-58.67,12.83-15.7,7.31-29.21,19.14-43.64,26.36-19.48,9.74-38.1,13.61-54.19,30.81-20.84,22.27-16.96,48.79-27.46,74.54-4.01,9.83-11.21,18-15.2,27.8-9.3,22.81-8.02,54.49,12.7,70.66,6.94,5.41,16.54,7.13,22,14s7.89,17.49,13.97,25.03c12.04,14.95,30.92,18.84,47.94,9.93.33.02,3.25,5,3.34,5.7.07.58-1.86,10-2.21,11.42-1.13,4.61-3.95,9.39-4.45,14.54-.46,4.68,1.21,8.93.7,12.63-.94,6.88-9.95,33.4-12.8,41.29-11.28,31.22-33.12,54.37-39.72,89.28-5.39,28.5,2.8,57.16-3.79,84.21-1.75,7.19-5.34,14.51-7.22,21.78-8.65,33.45-7.66,73.32,7.85,104.57,2.1,4.22,11.13,17.2,11.67,19.41.69,2.82-1.24,12.11-.84,16.77,2.19,25.5,27.63,30.65,48.55,32.46,4.05.35,10.34-.81,13.79.21,1.9.56,6.46,6.44,8.79,8.21,27.48,20.94,85.85,18.14,108.89-8.94,1.48-1.74,3.9-7.05,4.69-7.55,1.36-.87,13.63-3.73,15.84-3.91,2.79-.23,16.56.98,18.26,2.21.51.37,1.75,4.23,2.82,5.69,22.43,30.53,83.57,34.57,112.34,12.52,2.34-1.79,5.9-7,7.46-7.62,5.3-2.07,21.67-.89,28.99-1.94,22.5-3.22,39-15.72,36.61-40.37-.39-3.99-3.95-11.48-3.73-13.86.17-1.86,8.88-17.12,10.51-21.38,10.82-28.29,12.14-61.64,5.55-91.08-4.57-20.4-11.59-32.22-11.36-54.72.31-30.66,4.04-47.52-6.94-77.98-8.59-23.81-25.03-44.42-33.5-67.5-6.26-17.04-7.67-33.45-17.1-49.9-1.21-2.12-4.84-5.52-5.22-6.78-.82-2.75.16-6.57-.32-9.68-.62-4.02-4.02-13.43-3.85-16.06.11-1.77,4.64-10.33,6.23-10.9,17.66,4.04,32.64.39,43.15-14.75,6.07-8.75,7.52-19.87,16.65-26.35,3.8-2.69,9.27-4.19,13.26-6.74,20.83-13.34,24.39-43.2,17.62-65.26-4.09-13.33-13.32-23.07-17.95-36.05-13.08-36.59-4.94-59.27-43.68-83.32-14.74-9.16-24.11-9.13-38.23-14.77-14.09-5.62-31.27-20.99-48.09-27.91-15.93-6.56-32.74-9.17-49.98-9.52ZM314.28,65.72c0,12.96-10.5,23.46-23.46,23.46s-23.46-10.5-23.46-23.46,10.5-23.46,23.46-23.46,23.46,10.5,23.46,23.46ZM286.73,49.23c-4.74.99-10.9,7.53-11.66,12.33-3.06,19.47,18.97,29.4,29.39,13.39,8.01-12.3-3.12-28.75-17.73-25.72ZM305.05,564.55c-8.98,4.38-1.88,16.44,9.45,15.45,5.3-.46,11.83-4.94,4.62-7.94-1.4,5.53-9.13,6.87-12.11,1.94,19.06,4.38,11.49-16.02-1.95-9.46ZM355,579.01c3.52-.45,8.19,1.3,10.99-1.51-17.01-.04-14.15-19.67,1.99-12.98,2.67,2.57,2.14,11.6,2.59,15.49-4.79,3.72-11.68,4-15.57-1ZM364.78,566.22c-5.14-3.58-7.96,5.43-3.8,7.33,2.9.25,4.54-2.64,4.57-5.08l-.77-2.25ZM289,566c4.8-.43,11.12,1.89,11.07,7.53s-12.27,8.74-15.17,5.07c-.73-.93-1.98-15.03-1.49-16.62,1.97-6.45,7.43-1.76,5.59,4.02ZM293.77,570.25l-4.76-1.25v7.99c3.6.89,7.22-4.41,4.76-6.75ZM333,562.99c.2,5.15-1.4,16.17,5.98,16-.36-1.67,4.53-12.13,6.01-10.99l2.94,10.4,3.12.15c2.75-8.94-4.13-19.19-13.04-10.55l-1.16-4.85-3.85-.15ZM226.49,567.99c3.49-.7-1.21-8.19-3.18-8.8-8.27-2.54-8.63,4.38-8.3,10.81h-5c-.64,4.23,5.24,2.43,5.93,3.06l1.63,6.99,3.43-.05v-7s8.01-1.02,8.01-1.02c.81-4.38-8.45-2.45-9.01-2.98v-7c3.86-.38,2.93,5.63,6.49,5.99ZM239.73,563.22c10.06-.9,15.53,14.16,4.55,16.58-12.54,2.77-19.06-15.29-4.55-16.58ZM245.35,571.85c0-2.68-2.17-4.85-4.85-4.85s-4.85,2.17-4.85,4.85,2.17,4.85,4.85,4.85,4.85-2.17,4.85-4.85ZM253.46,563.97c-1.32,1.91,1.43,16.02,6.04,16.07,4.13.05,1-10.75,7.01-10.7,1.28-.07,4.88,4.31,5.49,1.15.97-5.05-10.15-4.42-12.98-2.48.65-3.03-3.46-7.06-5.56-4.03ZM326.51,568.01c-3.33,1.06-1.07,12.64,3.49,11.99-.35-2.56,1.79-13.66-3.49-11.99ZM325.01,559c-.37,3.08,1.18,8.59,5,6.49l-1.16-6.35-3.85-.14ZM215.16,243.66c-.81,2.62-.7,11.48,2.08,12.67.99.42,2.02.77,3.12.6l5.14-10.92c1.94,3.72.33,10.67,6.49,10-.34-3.6.49-7.29,3.99-9l1.47,8.04,4.53.96c.53-3.41-1.15-11.78-4.7-12.84s-5.39,1.97-6.66,1.75c-1.51-.27-3.72-5.44-8.23-1.99-1.17.9-.79,3.23-2.39,3.08.8-3.66-3.74-5.89-4.85-2.33ZM292,259c-5.27-1.86-13.25,2.14-16.9-3.6-4.76-7.48,3.79-13.01,10.9-11.4v-7c3.31-1.19,5.99,4.14,5.99,6.5v15.5ZM280.58,247.03c-2.79,2.28-2.78,6.66-.02,8.95,7.09-1.55,7.05-7.75.02-8.95ZM312,251c.14.16,3.38-.35,4,1.54-1.82,9.06-19.06,6.72-20.8-1.26s5.16-10.37,12.11-9.03c5.22,1.01,4.02,8.02,4.69,8.76-4.45,2.06-7.23,2.14-11.99,1.5,2.57,3.96,11.22,3.69,11.99-1.5ZM307,248.99c.58-.89-.09-3.5-1.64-3.91l-5.35.93c-.96,3.34,6.19,4.19,6.99,2.98ZM260.45,258.94c2.61-2.77,4.03-14.75,1.59-16.48-4.18-2.97-5.54,8.26-9.54,9.52-3.23-2.42-3.18-5.41-2.92-9l-4.57-.98c-1.28,8.18,3.54,14.13,12,13.01-1.53,3.53-4.82,3.73-7.99,1.99-1.82,2.14,7.13,6.52,11.44,1.94ZM329,246.99c-1.6-4.17-9.3-.02-10.99-3.51-1.01-2.08,5.64-2.57,6.46-2.53,8.77.34,12.96,8.87,10.56,16.63-4.73-.12-17.17,1.46-16.05-6.03.63-4.2,6.51-5,10.03-4.56ZM324.62,250.07c-5.35,1.48,3.54,7.04,6.36,2.43-1.45-1.68-4.17-3.03-6.36-2.43ZM341.49,241c-4.84-1.02-2.36,20.06,5.51,17-.2-2.59.52-8.26,2.99-9.54,3.92-2.03,5.2,3.57,7.99.04-3.32-4.87-8.43-4.39-12.96-1.5l-3.53-6ZM361.51,237.01c-3.5,3.74-.54,9.56-.51,14l2.93-.04c1.61-2.86,2.17-14.91-2.43-13.95ZM389.99,239c-1.5.23-1.87,1.89-2.51,2.98-2.6,4.39-7.34,13.36-9.02,17.99-.34.94-1.32,3.25.53,3.03l11-23.99ZM280.56,255.97c7.09-1.55,7.05-7.75.02-8.95-2.79,2.28-2.78,6.66-.02,8.95ZM305.36,245.08l-5.35.93c-.96,3.34,6.19,4.19,6.99,2.98.58-.89-.09-3.5-1.64-3.91ZM330.98,252.5c-1.45-1.68-4.17-3.03-6.36-2.43-5.35,1.48,3.54,7.04,6.36,2.43ZM357.73,297.24c14.11-2.59,22.32,8.29,18.8,21.79-2.79,10.7-20.59,12.46-27.05,3.99-6.64-8.7-3.25-23.67,8.25-25.79ZM358.71,303.22c-8.8,2.11-7.58,22.45,5.56,19.58,8.76-1.91,9.27-23.13-5.56-19.58ZM231,298.5l1.66-1.34c10.11-1.26,29.13,3.24,14.35,14.33,4.55,3.14,7.21,4.54,5.78,10.79-.61,2.68-5,5.71-7.28,5.71h-14.5v-29.5ZM238,310c4.29.38,9.66-.83,7.57-6.08l-6.6-1.5-.97,7.58ZM238,323.01c4.77.51,11.47-.71,8.1-6.61l-7.13-1.97-.97,8.58ZM258,298.5l1.66-1.34c2.56-.81,13.3.61,16.19,1.5,7.66,2.36,6.6,13.47-.84,15.36l6,13.98-6.9-.1c-1.36-5.55-1.69-12.31-9.1-10.9v11.01s-7,0-7,0v-29.5ZM265,312c10.99,1.03,12.66-10.22.95-9.58l-.95,9.58ZM382,298.5l1.66-1.34c12.88-1.85,31.78,4.55,15.35,17.33l7,13.49-7.02-.47c-3.45-4.74-1.78-11.99-9.98-10.52v11.01s-7,0-7,0v-29.5ZM389,312c10.68,1.11,13.48-10.83.95-9.59l-.95,9.59ZM318,328v-31c12.68-.2,25.69.65,25.05,16.54-.58,14.44-13.49,15.4-25.05,14.46ZM325,323c15.73,2.4,16.28-23.12,0-20v20ZM400.5,338c7.27,1.57,7.66,13.72.49,16.52l6,13.47-6.86-.13c-2.24-4.98-1.57-12.41-9.14-10.87v11.01s-7,0-7,0v-30c4.81.7,12.08-.96,16.5,0ZM391,352c11.13,1,12.24-11.05,0-9.01v9.01ZM272.5,338c8.7,1.53,8.55,13.48.5,16.5l7,13.49-7.02-.47c-3.45-4.74-1.78-11.99-9.98-10.52v11.01s-6,0-6,0v-30c4.72.57,11.03-.79,15.5,0ZM263,352c11.24.86,13.51-11.48,0-9.01v9.01ZM189.5,338c4.32.92,6.52,7.24,5.3,11.29-.64,2.13-4.99,4.01-4.67,6.02l5.87,12.67-7.04-.45-3.85-9.92-6.11-.62v11.01s-6,0-6,0v-30c4.82.69,12.05-.95,16.5,0ZM179,343l.93,8.57c5.99,1.86,10.48-2.3,7.13-8.13l-8.07-.44ZM215.86,297.14l10.14,30.85-6.87-.12-2.76-6.75-8.76-.19-1.66,7.01-7.95.04,10.48-30.01,7.38-.84ZM216,315.99l-3.49-11.99-3.5,11.99h6.99ZM302.9,297.1l10.09,30.89-7.05-.43-2.07-6.43-9.98.47-2.03,6.27-6.86.13,10.09-30.89h7.8ZM299.99,304c-2.65-.29-1.58.06-2.01,1.48-1.05,3.46-1.51,7.18-2.98,10.52h7s-2.01-11.99-2.01-11.99ZM201,338v30h20v-5.01s-13.01.01-13.01.01v-7.43s12.01-.57,12.01-.57v-5.01s-12.01.01-12.01.01v-7.01s13.01.01,13.01.01v-5.01h-20.01ZM358,338v30h19v-5.01s-12.02-.57-12.02-.57v-7.43s12.03-.57,12.03-.57v-4.43s-12.02.01-12.02.01v-7.01s12.01.01,12.01.01v-5.01h-19.01ZM301,338v30h19v-5.01s-12.01.01-12.01.01v-7.43s11.01-.57,11.01-.57v-5.01s-11.01.01-11.01.01v-7.01s12.01.01,12.01.01v-5.01h-19.01ZM332.53,338.97l-7.52-.97,9.88,29.4h8.23s9.89-29.4,9.89-29.4c-2.06.23-6.17-.86-7.53.96-1.66,2.24-3.72,15.52-5.43,19.57-.43,1.03-.64,2.33-2.04,2.45l-5.48-22.03ZM226,338v5.01s9,0,9,0v25h7v-25h9.01s0-5,0-5h-25ZM174,297v31h20v-5.01c-.86-.89-11.36,1.62-13-1.49v-24.5h-7ZM286,338v30h7v-30h-7ZM364.27,322.8c8.76-1.91,9.27-23.13-5.56-19.58-8.8,2.11-7.58,22.45,5.56,19.58ZM246.1,316.4l-7.13-1.97-.97,8.58c4.77.51,11.47-.71,8.1-6.61ZM245.57,303.93l-6.6-1.5-.97,7.58c4.29.38,9.66-.83,7.57-6.08ZM265.95,302.42l-.95,9.58c10.99,1.03,12.66-10.22.95-9.58ZM389.95,302.42l-.95,9.59c10.68,1.11,13.48-10.83.95-9.59ZM325,303v20c15.73,2.4,16.28-23.12,0-20ZM391,343v9.01c11.14,1,12.25-11.05,0-9.01ZM263,343v9.01c11.25.86,13.52-11.48,0-9.01ZM179.93,351.57c5.99,1.86,10.48-2.3,7.13-8.13l-8.07-.44.93,8.57ZM212.51,304l-3.5,11.99h6.99s-3.49-11.99-3.49-11.99ZM297.98,305.47c-1.05,3.46-1.51,7.18-2.98,10.52h7s-2.01-11.99-2.01-11.99c-2.65-.29-1.58.06-2.01,1.48ZM360.99,573.55c2.9.25,4.54-2.64,4.57-5.08l-.77-2.25c-5.14-3.58-7.96,5.43-3.8,7.33ZM289.01,569v7.99c3.6.89,7.22-4.41,4.76-6.75l-4.76-1.25ZM148.54,612.96c-7.19-3.44-5.47,10.66-1.51,13.51,5.03,3.61,6.28-.49,8.31-.3,1.22.11,2.56,1.89,4.17,1.82,1.87-.08,4.56-3.27,8.49-.99-1.94-5.15,1.67-16.38-6.78-11.77-.74,2.53-.31,6.5-3.2,7.77l-1.01-9.01-4.06.44-1.94,9.57c-4.01-1.84-.7-8.25-2.45-11.04ZM233,628.99c-6.48-1.96-11.17,3.08-16.52-1.98-7.59-7.18,2.55-15.6,10.52-12.02l-.99-6.99c9.98-.62,3.95,14.61,6.99,20.99ZM222.52,617.26c-5.47-.46-4.81,12.87,2.05,7.81,3.87-2.85.24-7.62-2.05-7.81ZM458,628.99c-6.48-1.96-11.17,3.08-16.52-1.98-7.59-7.17,2.56-15.61,10.51-12.02l-.99-6.99c9.98-.62,3.95,14.61,6.99,20.99ZM447.52,617.26c-5.47-.46-4.81,12.87,2.05,7.81,3.87-2.85.24-7.62-2.05-7.81ZM116.53,625.98c3.93,4.02,10.93-.05,14.95,3.03,3.44-.54-.31-12.9-2.94-15.04s-14.44-3.57-13.53.52c.5,2.23,6.02.46,8.81,1.21,1.79.48,2.62-.25,2.18,2.3-4.88-1.94-14.72,2.6-9.47,7.98ZM410.87,621.87l-10.87,1.14c3.14,5.02,9.73,3.31,12-1.53,3.88-.37,4.22,3.13,1.39,5.41-5.16,4.17-15.96,2.09-18.64-4.16-5.06-11.79,18.49-15.8,16.12-.86ZM406,619.99c2.69-2.59-3.64-7.96-6.98-2.5.71,2.03,5.99,3.45,6.98,2.5ZM251.87,621.87l-10.87,1.14c2.16,4.13,7.09,3.22,10.26,1.01,1.99-1.38.6-3.84,4.74-2.03-.07,11.9-21.55,7.3-20.99-2.42.61-10.49,19.35-10,16.86,2.3ZM247,619.99c2.69-2.59-3.64-7.96-6.98-2.5.71,2.03,5.99,3.45,6.98,2.5ZM208.01,614.5c-2.43-1.47-7.42-.5-9.52,1.48l-2.99-4.96-3.07,1.98c.44,5.39-.53,14.51,6.55,15,.16-1.46,3.51-13.28,6.01-11,.18,2.31,2.1,13.42,5.94,10.95,2.23-1.44-.77-12.16-2.92-13.46ZM433.01,614.5c-2.43-1.47-7.42-.5-9.52,1.48-4.87-10.05-6.48-1.94-5.4,5.43.54,3.68,1.78,6.38,5.89,6.59.16-1.46,3.51-13.28,6.01-11,.18,2.31,2.1,13.42,5.94,10.95,2.23-1.44-.77-12.16-2.92-13.46ZM359.49,616.99c2.11-1.53,1.39-1.79.74-3.71-1.91-5.68-5.09-5.71-10.61-5.34l-2.05,10.12-5.57.94c1.2,3.14,3.97,3.11,6.93,3.06l1.63,6.99,3.43-.05.94-7.57,7.06-.44-1.67-2.82-7.33-.17v-7.01s2.98.01,2.98.01c-.1,1.69,1.15,6.45,3.51,5.99ZM297.49,616.99c2.11-1.53,1.39-1.79.74-3.71-1.91-5.68-5.09-5.71-10.61-5.34l-2.05,10.12-5.57.94c1.2,3.14,3.97,3.11,6.93,3.06l1.63,6.99,3.43-.05.94-7.57,7.06-.44-1.67-2.82-7.33-.17v-7.01s2.98.01,2.98.01c-.1,1.69,1.15,6.45,3.51,5.99ZM303.22,621.29c2.18,5.54,10.48,10.07,12.8,2.71.4-.31,5.99,6.14,7.96,2.5-3.3-3.45-5.41-7.59-4.99-12.49-8.05-1.95-4.46,5.65-8.49,9.97-2.76-2.87-3.66-7.14-3.5-10.99-6.45-.81-5.61,3.65-3.78,8.29ZM178.77,612.2c7.86-1.1,14.73,9.9,9.21,14.28-12.45,9.89-26.21-11.91-9.21-14.28ZM182.76,616.23c-1.49-1.63-5.84-.04-6.84,1.46-5.6,8.41,14.46,12.4,6.84-1.46ZM368.4,612.08c-7.86-2.71-2.66,16.38,2.25,16.8,3.61.31,1.62-8.46,5.34-10.45l8.01,1.56c-2.65-6.89-8.35-4.99-13.99-2.98.01-1.61.3-4.27-1.6-4.93ZM259,612c-.09,3.96.51,16.51,5.65,16.89,3.37.25,2.4-8.13,5.03-9.96,2.93-2.04,4.93,1.91,8.31,1.07-1.72-6.91-7.99-4.79-12.97-3-.52-3.73-2.04-5.65-6.02-5ZM331,611.5c0-5.37-4.72-4.32-5.09,1.97-.09,1.6,1.54,19.72,5.09,15.53v-17.5ZM387.01,617c.26,4.14-1.54,10.18,3.5,11.98,3.49-3.1-.48-8.01.49-11.98h-3.99ZM390.56,608.94l-4.56-.93c.31,2.98,1.16,8.08,4.99,7l-.43-6.07ZM224.57,625.07c3.87-2.85.24-7.62-2.05-7.81-5.47-.46-4.81,12.87,2.05,7.81ZM449.57,625.07c3.87-2.85.24-7.62-2.05-7.81-5.47-.46-4.81,12.87,2.05,7.81ZM399.02,617.5c.71,2.03,5.99,3.45,6.98,2.5,2.69-2.59-3.64-7.96-6.98-2.5ZM240.02,617.5c.71,2.03,5.99,3.45,6.98,2.5,2.69-2.59-3.64-7.96-6.98-2.5ZM175.93,617.69c-5.6,8.41,14.46,12.4,6.84-1.46-1.49-1.63-5.84-.04-6.84,1.46ZM240.49,567c-2.68,0-4.85,2.17-4.85,4.85s2.17,4.85,4.85,4.85,4.85-2.17,4.85-4.85-2.17-4.85-4.85-4.85ZM330.95,515.45c-1.36.85-3.03,8.4-6.45,9.53-5.14-2.91-.43-9.75-5.99-10.98-5.18,6.75,2.85,17.04,10.48,13,.71.84-1.07,3.08-2.02,3.53-2.87,1.35-6.15-2.22-5.97.96,3.17,2.97,8.61,3.54,11.67.2,3.35-3.66,4.1-19.88-1.72-16.23ZM263.99,531c-4.51-1.25-17.11,1.28-17.1-5.49,0-2.49,1.76-4.35,4.05-5.05s6.11.44,7.04-1.44l-11.97-2.51c10.68-7.74,20.07,3.13,17.97,14.5ZM252.64,523.12c-5.43,1.65,3.7,6.86,6.34,2.38-1.57-2.14-3.68-3.19-6.34-2.38ZM289.01,510c-1,.68-1.44,23.36,5.99,20.99v-7.99c5.79-.88,3.43,6.91,8.66,7.87,5.28-.99-.74-5.49-.62-8.38.07-1.69,2.63-3.23,1.96-5.48l-10.99,2c1.33-2.73-1.27-11.55-5-9ZM267,513.99c-.82,2.96.34,19.58,6.06,15.57,1.74-1.22,1.87-9.67,5.93-10.56l2.94,10.4,3.12.15c2.67-8.89-4.06-18.67-13.04-10.55l-1.16-4.85-3.85-.15ZM227.16,511.66c-.91,2.91-.06,15.38,1.79,17.89,1.07,1.45,2.27,2.17,3.58.48l1.46-9.36,2.51-.7,3.64,10.88,3.85.15c.99-3.92-1.61-12.64-5.7-13.8-1.8-.51-5.63.19-6.21-.3-.38-.32-2.67-12.52-4.93-5.25ZM360.16,515.15c-2.93,5.74,2.37,15.9,9.29,14.88,2.3-.34,3.41-3.33,4.92-2.97,1.31.31,3.31,4.37,6.62,2.94-.11-2.54-2.43-3.56-3.51-5.98-.85-1.9-1.41-6.8-2.43-7.57-4.01-3.05-5.2,5.46-5.79,7.34-.29.91.07,3.09-1.75,2.2-2.32-1.13-3.87-8.42-3.53-10.99l-3.83.15ZM343.71,515.21c3.25-.75,7.49-.95,9.76,1.82,6.58,7.99,2.45,15.84-7.74,13.74-9.33-1.92-10.93-13.51-2.03-15.56ZM350.78,526.75c1.89-1.77-.28-6.54-1.75-8.29-10.82-1.65-7.93,13.35,1.75,8.29ZM215,515h9.01s0-2.99,0-2.99c-3.05-1.33-24.98-1.68-24.98,1.49,2,3.13,7.95.47,9.84,1.64,2.3,4.95-.41,11.39,4.14,15.37l2-1.01v-14.5ZM258.98,525.5c-1.57-2.14-3.68-3.19-6.34-2.38-5.43,1.65,3.7,6.86,6.34,2.38ZM349.03,518.46c-10.82-1.65-7.93,13.35,1.75,8.29,1.89-1.77-.28-6.54-1.75-8.29ZM333,700c5.58-.26,18.8-1.19,15.82,8.31-.69,2.19-4.07,2.71-3.82,3.19,13.37,9.92-1.06,15.6-12,13.5v-25ZM344.9,708.91c3.18-4.8-10.53-10.92-7.91,1.09l7.91-1.09ZM344.75,720.76c1.21-1.2,1.67-4.04.36-5.34l-7.14-1.98-.97,8.57c2.13-.02,6.18.31,7.75-1.25ZM254,725h4c-2.08-19.2,10.75-20.74,8.01,0h3.99c.14-10.01,2.08-22.76-11.99-16.01v-10s-4.01,0-4.01,0v26ZM230,700v4s7,0,7,0v21h5v-21h7s0-4,0-4h-19ZM308,718h-13c2.07,6.01,5.81,4.81,10.99,4v2.99c-4.62-.18-11.11,1.45-13.78-3.71-7.78-15.03,17.74-21.43,15.79-3.28ZM304,714.99c.63-4.14-3.55-6.22-7-4.5l-1.98,3.03c-.79,2.96,7.9.89,8.98,1.47ZM328,718h-13c2.07,6.01,5.81,4.81,10.99,4v2.99c-4.62-.18-11.11,1.45-13.78-3.71-7.75-14.98,17.78-21.4,15.79-3.28ZM324,714.99c.63-4.14-3.55-6.22-7-4.5l-1.98,3.03c-.79,2.96,7.9.89,8.98,1.47ZM275,725h4c-.59-8.6.08-13.45,9.02-15.5l-.53-2.52-7.98,3.03-.6-2.88-3.91-.13v18ZM345.11,715.41l-7.14-1.98-.97,8.57c2.13-.02,6.18.31,7.75-1.25,1.21-1.2,1.67-4.04.36-5.34ZM337,710l7.91-1.09c3.18-4.8-10.53-10.92-7.91,1.09ZM296.99,710.49l-1.98,3.03c-.79,2.96,7.9.89,8.98,1.47.63-4.14-3.55-6.22-7-4.5ZM316.99,710.49l-1.98,3.03c-.79,2.96,7.9.89,8.98,1.47.63-4.14-3.55-6.22-7-4.5Z"/>
</svg>