<?xml version="1.0" encoding="UTF-8"?>
<svg id="_レイヤー_1" data-name="レイヤー 1" xmlns="http://www.w3.org/2000/svg" width="204.61mm" height="305.86mm" viewBox="0 0 580 867">
  <path d="M341,73.99c9.17-1.55,22.71,6.16,30.51,6.1,6.53-.05,18.77-6.56,25.71-8.37,19.3-5.04,29.43.73,42.29,14.27,5.47,5.76,12.94,18.45,17.56,22.44,3.76,3.26,17.52,6.71,23.6,10.4,7.64,4.63,12.69,10.4,16.51,18.49,4.34,9.22,10.33,23.06,9.87,33.2-.49,10.84-6.2,14.94-12.51,22.54-2.89,3.48-11.47,14.02-12.98,17.99-1.95,5.13-2.34,13.61-4.29,19.71-1.6,4.99-4.69,9.14-5.99,13.01-1.81,5.41-.95,12.37-5.85,17.17,5.13,7.52,7.93,16.16,4.09,25.07-1.19,2.77-4.64,5.24-5.17,6.32-1.89,3.83-1.98,27.03-1.37,32.2.54,4.53,4.62,7.72,5.58,12.42,2.13,10.42-.95,16.97-7.57,24.54,4.81,8.03,10.62,16.25,11.03,26.06.13,3.13-1.27,6.41-.86,8.72.47,2.66,9.07,16.47,11.02,21.07,4.99,11.77,10.43,25.11,4.01,37.35-.96,1.84-4.79,6.14-4.94,6.94-.27,1.42.51,22.26.84,24.79,1.48,11.25,12.65,22.07,17.63,32.37,6.41,13.27,12.56,40.75,5.69,54.11-1.5,2.91-5.13,5.48-5.89,7.12-1.75,3.77,3.68,23.61,5.47,28.5,4.57,12.5,14.1,18.81,11.78,33.74-.45,2.9-4.63,10.44-4.58,11.06.2,2.27,7.02,14.01,8.33,18.67,1.87,6.7,1.38,13.23,2.72,19.28.85,3.87,4.77,8.58,5.54,13.46,1.87,11.87-2.33,23.42-14.65,26.36-.29,17.44-6.2,35.3-22.94,43.07-.84,1.41.96,5.16.92,7.32-.11,5.41-8.06,28.09-10.92,33.17-12.79,22.72-40.62,21.94-63.47,23.31-10.64,12.94-30.53,21.64-47.22,23.01-30.74,2.52-62.14-3.72-80.98-29.96-17.63,26.12-49.14,32.22-79.04,30.02-17.69-1.3-35.76-10.36-48.16-22.84-26.25-1.82-56.02-1.22-66.58-30.42-2.33-6.43-7.68-20.2-7.8-26.28-.04-2.16,1.76-5.92.92-7.32-16.74-7.77-22.65-25.64-22.94-43.08-12.27-3.26-16.57-14.25-14.66-26.36.77-4.88,4.69-9.59,5.54-13.46,1.11-5.05.72-11.36,2.07-16.93,1.05-4.36,8.82-19.72,8.81-20.85-.01-1.02-3.9-7.04-4.41-10.23-2.35-14.7,5.63-19.56,10.52-31,2.4-5.62,7.24-23.12,7.28-28.83.03-4.78-4.26-6.29-6.44-10.53-6.82-13.25-.68-40.93,5.69-54.11,4.98-10.31,16.15-21.12,17.63-32.37,1.05-7.97-1.36-17.02,1.11-24.82-12.33-8.75-8.65-24.24-2.84-35.91,2.41-4.84,15.25-20.56,15.62-22.41.33-1.66-.86-3.76-.85-5.73.09-15.25,3.81-27.36,10.06-41.09l-.47-1.45c-8.66-4.97-12.06-15.51-10.1-25.06.95-4.61,5.15-7.88,5.61-11.39.74-5.59.76-26.58-.11-32-.74-4.63-5.59-7.89-6-15.02-.45-7.85,3.57-10.82,4.12-16.01.69-6.5-5.01-39.11-7.86-45.23-4.86-10.44-14.29-17.59-20.21-25.79-4.81-6.66-5.03-15.86-3.73-23.72,1.17-7.07,10.48-28.4,15.21-33.79,10.9-12.39,23.55-10.95,33.04-17.96,4.28-3.16,14.48-19.45,19.96-25.04,10.41-10.63,20.13-15.94,35.57-13.54,8.06,1.26,19.36,8.17,26.53,8.5,2.56.12,11.49-2.96,15.21-3.66s7.55-.98,11.21-1.3c-5.86-25.46,7.94-51.99,32.48-61.01,39.7-14.6,78.66,20.15,69.52,61.01ZM335,79c9.89-33.5-12.9-66.05-48.54-64.04-31.79,1.79-50.81,34.45-41.45,64.04-5.14-.25-10.29.33-15.34,1.16s-12.64,3.98-17.12,3.87c-15.65-.38-26.62-15.48-46.22-6.21-15.22,7.2-21.94,26.68-32.82,35.18-4.84,3.77-13.42,4.97-19.17,7.83-8.45,4.19-14.56,9.86-18.5,18.5-2.45,5.38-8.09,17.98-8.72,23.28-.94,7.97-.71,14.13,4.36,20.45,1.95,2.43,8.75,7.24,10.22,9.25.6.82,9.68,16.51,10.05,17.45,3.14,7.97,8.21,38.55,7.28,46.77-.55,4.91-4.25,7.87-4.1,13.97.18,7.55,5.39,9.52,6.06,13.02.79,4.11.44,36.07-.76,39.2-.9,2.37-3.99,5.33-4.75,8.25-2.61,10.09,3.45,18.96,12.6,22.62-4.87,12.16-11.5,24.43-12.11,37.86-.18,4,1.61,11.25.84,13.82-.86,2.88-11.06,14.11-13.61,18.43-4.3,7.26-8.98,17.77-6.73,26.33,1.2,4.55,7.07,7.5,7.55,10.53.41,2.58-1,5.23-1.06,7.9-.13,5.99.71,13.23-.04,18.96-1.63,12.35-13.93,24.32-19.09,35.91-6.1,13.71-13.32,44.88,2.28,54.14l.66,1.81c-2.46,10.56-3.79,21.27-7.5,31.5-5.13,14.15-16.27,21.75-8.49,37.94.65,1.35,2.87,3.04,2.94,3.78.11,1.32-9.14,19.28-10.27,24.46s-.63,11.59-1.67,16.33c-.77,3.54-4.5,7.59-5.34,11.66-2.33,11.28,2.8,20.85,14.51,22.1-.24,16.26,2.39,27.91,14.52,38.98,1.86,1.7,7.38,4.63,8.03,5.97,1.65,3.39-.21,12.52,1.18,17.82.9,3.43,3.35,4.84,4.08,6.92,1.43,4.13,1.05,8.64,3.36,13.64,10.49,22.63,42.16,21.31,63.17,22.6,10.63,13.8,29.96,21.89,47.16,23.06,30.09,2.06,62.88-5.6,76.55-35.04,3.65,3.93,5.92,8.95,9.48,13.01,26.41,30.16,91.08,30.25,117.22-.81,22.76-1.91,55.38-.3,63.8-27.2,1.87-5.98,2.08-7.56,4.71-13.29,3.29-7.19.17-16.36,2.29-20.71.71-1.47,5.73-3.88,7.52-5.48,12.58-11.26,14.59-22.01,15.45-38.55,11.24-3.93,16.58-10.76,14.1-23.02-.82-4.06-4.69-8.66-5.36-11.64-1.05-4.66-.55-11.32-1.65-16.35s-10.22-23.1-10.21-24.45,4.51-7.06,5.2-10.43c2.51-12.2-6.48-19.28-10.58-29.54-4.11-10.3-5.33-21.48-7.93-32.17,0-3.97,4.51-4.54,6.79-8.01,7.19-10.96,1.29-38.16-3.98-49.69-4.8-10.51-17.16-23.42-18.79-34.21-.87-5.77.16-13.82-.02-19.98-.09-3.04-1.81-6.83-1.06-9.76.23-.89,2.48-1.37,3.47-2.73,8.76-12.06,3.07-25.28-2.27-37.64-2.29-5.31-9.93-16.3-10.93-20.08s.82-5.88.75-8.75c-.27-11.69-7.92-20.15-12.87-30.03,7.8-5.04,11.67-12.08,9.45-21.55-.97-4.12-4.79-6.61-5.48-11.52-.56-3.98-.57-33.17.43-35.39s5.38-4.23,6.71-8.29,1.19-8.4-.18-12.28c-.99-2.79-6.16-8.05-5.6-10.54.37-1.67,3.74-4.53,4.77-7.19,1.31-3.36,1.15-7.38,2.28-10.72,1.22-3.58,4.08-7.31,5.53-11.47,5.22-15.03,4.38-23.93,14.94-38.06,3.44-4.61,10.6-8.45,13.23-14.77,4.98-11.96-1.03-20.78-5.39-31.01-4.81-11.29-5.29-16.83-17.12-23.88-6.67-3.98-18.15-5.78-23.22-9.78-5.1-4.02-13.99-18.87-19.96-25.04-11.35-11.74-19.72-15.6-36.29-11.27-6.18,1.62-20.73,8.99-25.68,9.16-3.97.13-15.8-4.63-21.33-5.58s-10.78-1.53-16.21-1.3ZM311.24,62.21c0,11.73-9.51,21.24-21.24,21.24s-21.24-9.51-21.24-21.24,9.51-21.24,21.24-21.24,21.24,9.51,21.24,21.24ZM306.12,62.05c0-8.9-7.22-16.12-16.12-16.12s-16.12,7.22-16.12,16.12,7.22,16.12,16.12,16.12,16.12-7.22,16.12-16.12ZM304.56,529.07c-9.09,1.48-6.37,13.86,2.92,14.95,5.15.61,14.13-.49,9.02-7-2.52,3.74-8.32,6.38-11.5,1.99,13.9,2.49,12.78-12.1-.44-9.94ZM336.75,612.25c.88.81,2.31,17.98,1.78,18.76-1.85,2.67-3.9-.57-5.04-.64-1.02-.07-2.64,1.76-4.91,1.64-12.38-.67-6.57-18.57,4.42-14l.02-7c1.02.75,3.16.71,3.74,1.25ZM327.53,621.01c-2.28.67-2.58,8.14.97,8.04l4.42-4.4-5.39-3.64ZM295.01,625c4.28-2.13,5.55,1.76,1.97,4.48-4.52,3.43-12.72,1.81-15.98-2.97-7.78-11.42,17.23-16.22,14.02-1.51ZM289.99,618c-.66-.49-7.49,1.9-5.98,3.99,1.94.24,4.01,1.83,6.02.54,1.48-.95.16-4.38-.04-4.53ZM362.83,544.83c-1.76,2.88-11.96,2.7-13.82-1.34,3.66-1.53,7.49,2.5,9.99-2-21.13-.67-4.89-21.18,2.45-11.44,1.55,2.06,2.4,13.12,1.38,14.78ZM353,538c3.89,1.73,7.94-4.62,5.04-6.55-4.45-2.96-5.95,3.05-5.04,6.55ZM287,524.99v6c16.56.38,13.07,15.41-2.33,13.04-1.52-.35-6.39-22.33,2.33-19.04ZM288,541.01c7.19-.38,5.77-8.13-1-7l1,7ZM328.12,529.67c-.56,1.82,1.24,11.89,2.84,12.87,5.47,3.35,3.78-9.9,9.03-9.54.76,3.63.7,10.72,6,9.99.48-8.98-3.74-17.83-12.98-10,1.42-4.09-3.67-7.31-4.89-3.33ZM301.12,616.67c-.56,1.82,1.24,11.89,2.84,12.87,5.47,3.35,3.78-9.9,9.03-9.54.76,3.63.7,10.72,6,9.99.48-8.98-3.74-17.83-12.98-10,1.42-4.09-3.67-7.31-4.89-3.33ZM236.57,621.07l-5.56,1.43c1.79,2.57,4.03,2.79,7,2.5-1.15,9.89,5.63,8.52,3.99-1l7.01-.5c-.07-3.66-5.96-2.33-8.02-2.49v-7s7,5.99,7,5.99c-.62-12.05-12.83-12.8-11.43,1.07ZM229.49,532.99c2.23-.41.8-2.31.36-3.33-2.15-4.97-5.53-7.83-10.36-3.68l-.92,8.08-5.57.94c.45,3.7,6.7,2.71,6.99,3s-.6,6.02,2.51,6.97c2.51-1.93,1.29-5.27,1.5-7.98l7.01-.5c-.07-3.66-5.96-2.33-8.02-2.49v-7c3.5-.78,3.57,6.52,6.49,5.99ZM239.71,529.22c8.28-1.91,10.12,2.41,12.27,9.31-8.23,16.07-27.91-5.7-12.27-9.31ZM244.88,532.13c-2.28-.56-5.05-.3-6.39,1.86-2.85,5.66,4.16,9.88,8.07,5l-1.68-6.86ZM257.4,528.09c-6.19-1.9-2.42,18.83,4.59,15.92-.13-3.4.32-7.18,3-9.59l7,1.57c-1.32-6.23-7.55-4.7-11.96-3l-2.63-4.91ZM256.65,630.87c5.12,1.39,1.56-7.1,6.38-9.44l6.97,1.56c-2.2-6.29-7.87-4.6-12.98-2.99-5.7-15.1-6.86,9.1-.37,10.87ZM321.95,533.45c-2.2,1.6-.3,13.14,4.05,10.04l-1.02-10.49-3.03.44ZM276.84,621.66l-.79-1.21-3.05-.44c.22,3.96-1.67,10.46,3.99,10.99l-.15-9.34ZM215.74,277.23c20.24-3.24,22.18,24.11,9.09,28.11-24.03,7.33-28.26-25.04-9.09-28.11ZM216.74,283.16c-7.71,1.38-7.66,20.23,4.55,16.62,6.01-1.78,6.09-18.52-4.55-16.62ZM238,278v28h7v-15c3.72,2.34,5.57,12.02,8.42,14.08,2.22,1.6,5.08.8,7.58.92v-28h-7v15c-6.11-5.4-5.15-17.56-16-15ZM399,278c12.19-4.4,31.56,2.98,17.02,15.5l5.98,12.49-7.86-.13c-1.5-2.98-1.51-9.23-5.63-9.87-2.3-.36-1.39.97-1.51,2.49-.19,2.48.14,5.05,0,7.53h-8.01v-28.01ZM407.01,291c4.49.29,8.91-3.68,5-7.51l-5.01-.49v8ZM267,278c6.42-2.75,25.15-.73,19.79,9.27-1.56,2.91-4.26,1.85-3.79,4.72,7.98,0,5.92,14.01-.5,14.01h-15.5v-28ZM275,289c2.96.93,7.66-2.12,5.54-5.05l-5.55-.96v6.01ZM280.86,299.87l-.3-4.93-5.56-.94v7.01s5.86-1.13,5.86-1.13ZM369,289h-13.01s0,5.01,0,5.01h6.01s-.94,6.57-.94,6.57c-18.24.64-12.07-24.92,4.92-15.58l1.91-4.52c-6.51-6.45-22.08-3.53-24.42,5.49-4.79,18.37,10.67,22.98,25.53,19.03v-16ZM317,278c6.74-1.82,22.05-2.48,22.05,7.5,0,4.69-4.72,6.59-4.99,8.13-.12.66,6.24,9.36,4.94,12.36l-7.06-.44c-2.35-11.82-9.37-14.07-7.94.45h-7.01v-28ZM324,283c-2.62,13.6,10.61,6.66,6.57.93l-6.57-.93ZM181,278v28h19v-6.01s-11.01.01-11.01.01v-5.43s10.01-.57,10.01-.57v-5.01h-10.01s0-6,0-6h11.01s0-4.99,0-4.99h-19ZM375,278v28h18v-6.01s-11,0-11,0l.44-5.06,10.57-.93v-5.01c-.84-.86-16.45,2.69-9.35-5.84l9.35-.15v-5.01h-18ZM293,278v28h18v-6.01s-11.01.01-11.01.01v-5.43s11.01-.57,11.01-.57v-5.01c-.84-.86-16.45,2.69-9.35-5.84l9.35-.15v-5.01h-18ZM157,278v28h19v-6.01s-12,0-12,0v-22h-7ZM221.29,299.79c6.01-1.78,6.09-18.52-4.55-16.62-7.71,1.38-7.66,20.23,4.55,16.62ZM412.01,283.49l-5.01-.49v8c4.49.29,8.91-3.68,5.01-7.51ZM280.56,294.93l-5.56-.94v7.01s5.86-1.13,5.86-1.13l-.3-4.93ZM280.55,283.95l-5.55-.96v6.01c2.96.93,7.66-2.12,5.55-5.05ZM330.57,283.93l-6.57-.93c-2.62,13.6,10.61,6.66,6.57.93ZM328.5,629.04l4.42-4.4-5.39-3.64c-2.28.67-2.58,8.14.97,8.04ZM224.06,245.57l4.45-9.56c1.11,1.64.92,8.39,3,8.99,4.86,1.41,2.2-7.11,6.48-7.99.93.69.56,11.78,5.54,8.03,1.54-2.37-1.12-10.38-3.53-11.56-3.5-1.72-5.28,1.58-7.46,1.59-.32,0-.99-3.53-5.01-3.08-3.25.37-2.32,3.19-4.52,4.01v-4c-8.56-2.78-4.58,17.54,1.05,13.58ZM295.96,244.54c4.79,4.37,20.41,3.8,14.54-4.52-4.13,4.92-6.63,5.98-12.5,2.96v-1.98c6.29,3.71,15.34-1.51,8.74-7.74-5.58-5.27-20.4,2.51-10.79,11.28ZM290,248c-3.9-1.51-7.29.46-11.01-.45-10.87-2.66-4.59-16.79,6.01-13.56l-1-5.99c2.97-1.07,6,1.8,6,4.49v15.5ZM279.53,237.01c-2.28.67-2.58,8.14.97,8.04l4.42-4.4-5.39-3.64ZM315.01,232.03v2.96c.62.67,8.5-1.33,9.99,1.51-3.36.58-9.5.1-10.04,5.04-.69,6.39,12.03,4.77,16.04,5.45,1.2-10.85-4.99-17.95-15.99-14.96ZM250.45,243.05c2.54,1.44,4.73.97,7.55.96-1.53,3.53-4.83,3.73-7.99,1.99-2.3,2.91,11.18,7.92,12.93-2.56.36-2.18,1.15-13.22-2.97-10.97-2.79,1.53-2.36,9.73-7.96,8.53-1.85-18.97-11.43-3.55-1.57,2.06ZM336.52,231.25l-2.57,1.41c-.18,3.85.73,13.62,5.54,14.37,3.3.52,1.27-6.92,4.51-8.58l8,.54c-2.65-5.45-8.44-4.92-12.99-1.99.15-2.35-.12-4.68-2.49-5.75ZM355.5,227.02c-2.78-.05-1.16,11.9-.49,13.98,3.3,3,4.91-12.74.49-13.98ZM280.5,245.04l4.42-4.4-5.39-3.64c-2.28.67-2.58,8.14.97,8.04ZM284,621.99c1.94.24,4.01,1.83,6.02.54,1.48-.95.16-4.38-.04-4.53-.66-.49-7.49,1.9-5.98,3.99ZM358.05,531.45c-4.45-2.96-5.95,3.05-5.04,6.55,3.89,1.73,7.94-4.62,5.04-6.55ZM287,534.01l1,7c7.19-.38,5.77-8.13-1-7ZM328,697c4.42-.55,16.37-.28,15.79,6.34-.32,3.63-4.51,2.73-3.78,5.64,4.17.06,5.23,6.17,3.51,9.04-1.86,3.08-12.1,3.26-15.51,2.98v-24ZM332,707l7.01-1.49c4.58-4.44-9.7-10.42-7.01,1.49ZM339.77,711.24l-7.78-1.25c-1.68,8.63,3.92,11.17,8.54,4.1l-.76-2.86ZM255,721h4c.56-5.24-2.6-14.7,5.39-13.93l1.47,1.58.16,12.35h3.99c.56-8.48.99-22.37-10.99-15v-9s-4.01,0-4.01,0v24ZM324,714h-12c.42,5.17,6.66,4.68,9.99,3l-.97,3.52c-7.02,2.12-13.54-.89-12.98-8.9.81-11.62,17.95-9.71,15.96,2.38ZM320,710.99c.85-3.67-3.52-5.91-6.29-4.07-4.96,6.1,2.16,3.7,6.29,4.07ZM305,714h-12c1.53,6.63,7.07,2.06,10.99,5.5-6.92,3.75-15.14.8-14.68-7.87.61-11.51,18.52-10.11,15.69,2.36ZM302,710.99c-2.04-5.34-5.37-6.06-8.99-1.48-1.17,2.81,7.87,1,8.99,1.48ZM232,697l.97,3.52,6.03.48v20h4v-20h7s0-4,0-4h-18ZM275,721h4s.5-11,.5-11l6.52-3.5-.52-2.51-6.98,3.02-.51-3.01h-3v17ZM332,710c-1.68,8.63,3.92,11.17,8.54,4.1l-.76-2.86-7.78-1.25ZM339.01,705.51c4.58-4.44-9.7-10.42-7.01,1.49l7.01-1.49ZM313.7,706.92c-4.96,6.1,2.16,3.7,6.29,4.07.85-3.67-3.52-5.91-6.29-4.07ZM293.01,709.51c-1.17,2.81,7.87,1,8.99,1.48-2.04-5.34-5.37-6.06-8.99-1.48ZM238.49,533.99c-2.85,5.66,4.16,9.88,8.07,5l-1.68-6.86c-2.28-.56-5.05-.3-6.39,1.86ZM220.5,584.98c-3.19-2.51-.29-7.07-1.97-10.02-.7-1.34-2.77-.31-3.3.28-2.31,2.58-.79,9.35,1.3,11.72,3.01,3.42,5.58,1.21,8.86,1.13,1.2-.03,2.62,1.05,4.07.91,2.01-.19,3.9-2.96,7.53-1-1.19-2.87.35-14.85-5.04-11.54l-3.46,7.52c-2.51-1.93-1.28-5.27-1.5-7.98-7.8-1.13-3.03,5.19-6.5,8.98ZM315.58,582c.63-10.39-15.69-9.91-15.69-.5,0,11,19.19,10.08,19.15,4.01l-2.52-2.51c-2.96,4.18-8.49,6.45-11.51,1.01,3.94,1.3,7.51,1.21,10.58-2.01ZM297,590c-5.52-1.86-10,2.83-14.96-1.53-6.74-5.92,2.74-15.05,9.96-11.47l-.99-6.99c8.53.34,5.37,13.98,5.99,20ZM285.09,586.91c3.19.85,5.03-1.19,6.87-3.41-4.54-6.78-9.6-4.26-6.87,3.41ZM188.97,574.47l.58,3.47,8.45.07-.48,1.97c-3.07-2.26-6.48.25-9.06,2.01-1.4,4.09.68,7.09,5.03,7.03h10.02c1.49-2.75-.57-10.6-2.82-12.7s-9.28-3.41-11.72-1.84ZM260,573.99c-.69.66-.13,17.45,5.98,15,.86-3.69,1.27-7.56,4.51-9.98l3.52,9.97,3.01-.46c1.89-7.55-2.88-17.08-11.54-10.55l-1.64-3.81-3.84-.18ZM363.51,575.01c-3.27,2.64-.55,9.72,2.13,11.85,6.44,5.15,8.87-.7,9.85-.71.65,0,4.19,4.02,6.51,2.84-.44-4.57-4.86-6.62-4.45-12.04l-4.46-.87-2.09,8.91c-5.89.31-1.96-11.74-7.48-9.99ZM357.5,578.98c3.24-1.85-1.35-8.22-3.19-8.79-7.18-2.22-7.65,4.21-7.42,9.7l-4.88,1.12c.35,3.2,5.34,2.62,5.87,3.12,1.02.98-.4,9.95,5.03,4.29l-.9-5.42c2.69-.23,6.02,1.02,7.98-1.5l-8.56-2.43.53-5.49,2.04-.58,3.52,5.98ZM247.74,574.21c8.85-.84,15.07,14.55,2.67,15.77-11.1,1.1-15.64-14.54-2.67-15.77ZM250.76,578.23c-10.51-2.86-8.14,13.85,1.81,6.78l-1.81-6.78ZM323.51,573.96c-3.75-.07-1,9.68,0,12.03,1.1,2.6,2.43,4.46,5.48,4.01l2.99-9.56,7.01,1.56c-.12-7.1-7.48-4.98-11.98-2.99.1-2.38-1.01-4.72-3.5-5.04ZM385,587.5c0,.31,2.03,1.87,2.51,2.49h1.49s0-15.49,0-15.49c0-.54-1.38-2.24-1.08-3.44l-2.92-.06v16.5ZM291.97,583.5c-4.54-6.78-9.6-4.26-6.87,3.41,3.19.85,5.03-1.19,6.87-3.41ZM252.58,585l-1.81-6.78c-10.51-2.86-8.14,13.85,1.81,6.78ZM247.99,483v2.99c.64.67,8.51-1.33,10,1.51-4.77-.26-13.72,3.1-8.47,8.47,3.55,3.64,10.04.59,14.47,2.02,1.35-11.97-4.33-16.64-16-14.99ZM316.95,493.54c2.92,2.29,4.57,2.1,8.05,1.47-1.31,3.8-5.05,2.58-7.99,3.49,11.19,8.03,14.29-4.03,13.53-13.46-5.64-6.59-4.83,8.38-11.53,6.96-1.03-17.22-11.68-5.97-2.06,1.55ZM291.56,479.94l-4.56-.94c.68,5.42-1.69,19.31,5.99,19v-6.49c5.65-2.17,3.07,8.32,10,6.49l-2.98-8.51,2.88-1.62-.99-2.81-9.91,1.95-.44-7.06ZM282,497.52c5.89,2.66.47-21.86-9.5-10.54-6.34-12.74-6.93,3.95-3.56,9.58l3.97.34,5.08-9.9,4.01,10.51ZM230,494.5c0,1.42,2.99,4.47,5,3.5l1.01-9.42c5.55-3.13,3.99,7.49,5.95,8.96,5.08,3.81,3.97-6.78,1.07-10.07-2.37-2.7-5.7-2.65-9.03-2.47.26-3.27.35-6.76-4-6v15.5ZM360.5,493.98c-3.22-1.64-1.26-14.23-6.54-10.52-3.43,2.41.94,15.95,9.33,13.35,1.43-.44,2.84-2.79,3.21-2.79s3.69,4.59,6.5,2.98c-1.8-4.16-4.64-6.73-4.12-11.85-1.26-.73-3.61-1.08-4.64.07-1.61,1.8-.89,7.05-3.73,8.77ZM339.75,483.22c4.09-.68,6.03-.26,8.46,3.07,10.06,13.76-14.89,15.93-15.29,4.18-.14-4.24,2.86-6.59,6.83-7.25ZM343.87,486.13c-8.27-2.07-9.43,10.05-1.43,8.9,5.29-.76,3.11-5.7,1.43-8.9ZM208.49,480c-9.94.85-1.37,6.15,4.5,3.01-.5,2.39,2.15,18.85,6,15l-1-15,9,1-.07-2.91c-.89-1.45-15.7-1.33-18.43-1.1ZM342.44,495.03c5.29-.76,3.11-5.7,1.43-8.9-8.27-2.07-9.43,10.05-1.43,8.9Z"/>
</svg>