<?xml version="1.0" encoding="UTF-8"?>
<svg id="_レイヤー_1" data-name="レイヤー 1" xmlns="http://www.w3.org/2000/svg" width="168.76mm" height="300.54mm" viewBox="0 0 478.38 851.92">
  <path d="M290.2,64.41c9.17-1.55,22.71,6.16,30.51,6.1,6.53-.05,18.77-6.56,25.71-8.37,19.3-5.04,29.43.73,42.29,14.27,5.47,5.76,12.94,18.45,17.56,22.44,3.76,3.26,17.52,6.71,23.6,10.4,7.64,4.63,12.69,10.4,16.51,18.49,4.34,9.22,10.33,23.06,9.87,33.2-.49,10.84-6.2,14.94-12.51,22.54-2.89,3.48-11.47,14.02-12.98,17.99-1.95,5.13-2.34,13.61-4.29,19.71-1.6,4.99-4.69,9.14-5.99,13.01-1.81,5.41-.95,12.37-5.85,17.17,5.13,7.52,7.93,16.16,4.09,25.07-1.19,2.77-4.64,5.24-5.17,6.32-1.89,3.83-1.98,27.03-1.37,32.2.54,4.53,4.62,7.72,5.58,12.42,2.13,10.42-.95,16.97-7.57,24.54,4.81,8.03,10.62,16.25,11.03,26.06.13,3.13-1.27,6.41-.86,8.72.47,2.66,9.07,16.47,11.02,21.07,4.99,11.77,10.43,25.11,4.01,37.35-.96,1.84-4.79,6.14-4.94,6.94-.27,1.42.51,22.26.84,24.79,1.48,11.25,12.65,22.07,17.63,32.37,6.41,13.27,12.56,40.75,5.69,54.11-1.5,2.91-5.13,5.48-5.89,7.12-1.75,3.77,3.68,23.61,5.47,28.5,4.57,12.5,14.1,18.81,11.78,33.74-.45,2.9-4.63,10.44-4.58,11.06.2,2.27,7.02,14.01,8.33,18.67,1.87,6.7,1.38,13.23,2.72,19.28.85,3.87,4.77,8.58,5.54,13.46,1.87,11.87-2.33,23.42-14.65,26.36-.29,17.44-6.2,35.3-22.94,43.07-.84,1.41.96,5.16.92,7.32-.11,5.41-8.06,28.09-10.92,33.17-12.79,22.72-40.62,21.94-63.47,23.31-10.64,12.94-30.53,21.64-47.22,23.01-30.74,2.52-62.14-3.72-80.98-29.96-17.63,26.12-49.14,32.22-79.04,30.02-17.69-1.3-35.76-10.36-48.16-22.84-26.25-1.82-56.02-1.22-66.58-30.42-2.33-6.43-7.68-20.2-7.8-26.28-.04-2.16,1.76-5.92.92-7.32-16.74-7.77-22.65-25.64-22.94-43.08-12.27-3.26-16.57-14.25-14.66-26.36.77-4.88,4.69-9.59,5.54-13.46,1.11-5.05.72-11.36,2.07-16.93,1.05-4.36,8.82-19.72,8.81-20.85-.01-1.02-3.9-7.04-4.41-10.23-2.35-14.7,5.63-19.56,10.52-31,2.4-5.62,7.24-23.12,7.28-28.83.03-4.78-4.26-6.29-6.44-10.53-6.82-13.25-.68-40.93,5.69-54.11,4.98-10.31,16.15-21.12,17.63-32.37,1.05-7.97-1.36-17.02,1.11-24.82-12.33-8.75-8.65-24.24-2.84-35.91,2.41-4.84,15.25-20.56,15.62-22.41.33-1.66-.86-3.76-.85-5.73.09-15.25,3.81-27.36,10.06-41.09l-.47-1.45c-8.66-4.97-12.06-15.51-10.1-25.06.95-4.61,5.15-7.88,5.61-11.39.74-5.59.76-26.58-.11-32-.74-4.63-5.59-7.89-6-15.02-.45-7.85,3.57-10.82,4.12-16.01.69-6.5-5.01-39.11-7.86-45.23-4.86-10.44-14.29-17.59-20.21-25.79-4.81-6.66-5.03-15.86-3.73-23.72,1.17-7.07,10.48-28.4,15.21-33.79,10.9-12.39,23.55-10.95,33.04-17.96,4.28-3.16,14.48-19.45,19.96-25.04,10.41-10.63,20.13-15.94,35.57-13.54,8.06,1.26,19.36,8.17,26.53,8.5,2.56.12,11.49-2.96,15.21-3.66s7.55-.98,11.21-1.3c-5.86-25.46,7.94-51.99,32.48-61.01,39.7-14.6,78.66,20.15,69.52,61.01ZM284.19,69.41c9.89-33.5-12.9-66.05-48.54-64.04-31.79,1.79-50.81,34.45-41.45,64.04-5.14-.25-10.29.33-15.34,1.16s-12.64,3.98-17.12,3.87c-15.65-.38-26.62-15.48-46.22-6.21-15.22,7.2-21.94,26.68-32.82,35.18-4.84,3.77-13.42,4.97-19.17,7.83-8.45,4.19-14.56,9.86-18.5,18.5-2.45,5.38-8.09,17.98-8.72,23.28-.94,7.97-.71,14.13,4.36,20.45,1.95,2.43,8.75,7.24,10.22,9.25.6.82,9.68,16.51,10.05,17.45,3.14,7.97,8.21,38.55,7.28,46.77-.55,4.91-4.25,7.87-4.1,13.97.18,7.55,5.39,9.52,6.06,13.02.79,4.11.44,36.07-.76,39.2-.9,2.37-3.99,5.33-4.75,8.25-2.61,10.09,3.45,18.96,12.6,22.62-4.87,12.16-11.5,24.43-12.11,37.86-.18,4,1.61,11.25.84,13.82-.86,2.88-11.06,14.11-13.61,18.43-4.3,7.26-8.98,17.77-6.73,26.33,1.2,4.55,7.07,7.5,7.55,10.53.41,2.58-1,5.23-1.06,7.9-.13,5.99.71,13.23-.04,18.96-1.63,12.35-13.93,24.32-19.09,35.91-6.1,13.71-13.32,44.88,2.28,54.14l.66,1.81c-2.46,10.56-3.79,21.27-7.5,31.5-5.13,14.15-16.27,21.75-8.49,37.94.65,1.35,2.87,3.04,2.94,3.78.11,1.32-9.14,19.28-10.27,24.46s-.63,11.59-1.67,16.33c-.77,3.54-4.5,7.59-5.34,11.66-2.33,11.28,2.8,20.85,14.51,22.1-.24,16.26,2.39,27.91,14.52,38.98,1.86,1.7,7.38,4.63,8.03,5.97,1.65,3.39-.21,12.52,1.18,17.82.9,3.43,3.35,4.84,4.08,6.92,1.43,4.13,1.05,8.64,3.36,13.64,10.49,22.63,42.16,21.31,63.17,22.6,10.63,13.8,29.96,21.89,47.16,23.06,30.09,2.06,62.88-5.6,76.55-35.04,3.65,3.93,5.92,8.95,9.48,13.01,26.41,30.16,91.08,30.25,117.22-.81,22.76-1.91,55.38-.3,63.8-27.2,1.87-5.98,2.08-7.56,4.71-13.29,3.29-7.19.17-16.36,2.29-20.71.71-1.47,5.73-3.88,7.52-5.48,12.58-11.26,14.59-22.01,15.45-38.55,11.24-3.93,16.58-10.76,14.1-23.02-.82-4.06-4.69-8.66-5.36-11.64-1.05-4.66-.55-11.32-1.65-16.35s-10.22-23.1-10.21-24.45,4.51-7.06,5.2-10.43c2.51-12.2-6.48-19.28-10.58-29.54-4.11-10.3-5.33-21.48-7.93-32.17,0-3.97,4.51-4.54,6.79-8.01,7.19-10.96,1.29-38.16-3.98-49.69-4.8-10.51-17.16-23.42-18.79-34.21-.87-5.77.16-13.82-.02-19.98-.09-3.04-1.81-6.83-1.06-9.76.23-.89,2.48-1.37,3.47-2.73,8.76-12.06,3.07-25.28-2.27-37.64-2.29-5.31-9.93-16.3-10.93-20.08s.82-5.88.75-8.75c-.27-11.69-7.92-20.15-12.87-30.03,7.8-5.04,11.67-12.08,9.45-21.55-.97-4.12-4.79-6.61-5.48-11.52-.56-3.98-.57-33.17.43-35.39s5.38-4.23,6.71-8.29,1.19-8.4-.18-12.28c-.99-2.79-6.16-8.05-5.6-10.54.37-1.67,3.74-4.53,4.77-7.19,1.31-3.36,1.15-7.38,2.28-10.72,1.22-3.58,4.08-7.31,5.53-11.47,5.22-15.03,4.38-23.93,14.94-38.06,3.44-4.61,10.6-8.45,13.23-14.77,4.98-11.96-1.03-20.78-5.39-31.01-4.81-11.29-5.29-16.83-17.12-23.88-6.67-3.98-18.15-5.78-23.22-9.78-5.1-4.02-13.99-18.87-19.96-25.04-11.35-11.74-19.72-15.6-36.29-11.27-6.18,1.62-20.73,8.99-25.68,9.16-3.97.13-15.8-4.63-21.33-5.58s-10.78-1.53-16.21-1.3ZM260.44,52.63c0,11.73-9.51,21.24-21.24,21.24s-21.24-9.51-21.24-21.24,9.51-21.24,21.24-21.24,21.24,9.51,21.24,21.24ZM255.32,52.47c0-8.9-7.22-16.12-16.12-16.12s-16.12,7.22-16.12,16.12,7.22,16.12,16.12,16.12,16.12-7.22,16.12-16.12Z"/>
</svg>