<?xml version="1.0" encoding="UTF-8"?>
<svg id="_レイヤー_1" data-name="レイヤー 1" xmlns="http://www.w3.org/2000/svg" width="199.04mm" height="259.7mm" viewBox="0 0 564.21 736.15">
  <path d="M331.24,43.45c13.91-17.24,35.74-17.48,42.95,5.59,18.03-3.67,34.25,5.62,30.8,25.67-.63,3.64-3.24,5.69-3.7,9.1,7.12,4.22,11.22,12.29,19.55,13.53,19.87,2.95,38,3.75,55.7,15.3,15.84,10.35,49.37,55.4,59.21,72.79,14.89,26.31,39.78,74.98,22.67,103.72-3.24,5.44-8.68,8.45-11.07,11.93-4.89,7.1-5.27,17.59-13.15,26.85-6.12,7.2-11.41,7.5-16.9,12.1-4.2,3.53-8.59,11.45-14.06,15.94-10.05,8.24-26.38,14.27-39.42,12.4-2.57-.37-7.27-3.35-8.61-2.49-5.91,11.37-14.06,20.23-24.83,27.06l3.84,11.04c26.16,10.94,36.87,32.03,35,59.98-.73,10.95-5.85,24.9-5.98,35.02-.07,5.17,1.71,10.81.91,16.91-.5,3.78-3.99,8.98-3.88,11.98.29,8.19,10.66,25.37,11.85,37.22.68,6.79-1.93,15-1.62,18.72.22,2.68,3.21,8.4,3.63,12.27.84,7.62-.38,15.53-3.14,22.65s-13.89,23.36-12.6,30.99c.58,3.44,4.12,8.16,4.73,13.36,4.7,40.15-27.61,50.41-61.23,48.56-25.46,33.84-88.95,32.8-111.47-3.86-2.85-4.64-3.93-13.39-10.63-12.37-11.17,32.65-40.88,42.52-73.1,40.11-16.76-1.26-34.08-10.42-44.12-23.88-33.15,1.76-65.38-7.96-61.33-47.65.51-5.04,5.17-12.98,4.98-15.93-.05-.8-4.17-13.76-4.79-15.28-3.88-9.5-9.84-13.49-11.08-25.92-1.07-10.72,2.82-15.01,3.59-23.02.2-2.13-1.56-5.24-1.7-7.87-.45-8.26.58-14.39,2.73-22.25,1.77-6.48,9.04-20.79,9.23-25.84.12-3.04-3.47-7.53-3.97-11.9-2.58-22.68,9.29-32.19,14.28-50.72,4.19-15.53,4.99-24.53,11.86-40.14,1.03-2.35,4.46-6.78,4.71-8.37.27-1.73-2.64-8.11-2.89-11.73-.38-5.68.93-9.5,2.1-14.85-10.05-6.23-16.02-15.49-21.56-25.67-12.94,9.41-35.62,1.07-46.98-8.04-5.78-4.63-10.19-12.71-14.6-16.4-2.45-2.06-7.11-3.44-10.25-5.75-5.12-3.76-11.05-11.44-13.85-17.15-2.13-4.35-3.49-12.72-5.37-15.63-1.07-1.66-5.37-4.24-7.42-6.58-5.34-6.06-9.27-14.94-10.02-22.98-4.05-43.69,41.97-110.92,70.01-142.95,16.59-18.94,33-26.08,57.76-30.24,6.07-1.02,16.6-.62,21.44-2.37.92-.33,5.75-5.79,7.29-6.91,20.86-15.08,51.77-25.64,77.48-27.03-11.96-43.2,36.93-78.99,74.92-54.41,11.72,7.59,21.42,21.2,22.09,35.42ZM313.88,17.8c-34.57-33.59-90.88,3.83-73.65,48.64-20.72,1.01-39.94,6.25-58.67,14.83-10.78,4.94-22.61,10.87-30.02,20.2-31.76,1.71-57.07,6.66-78.27,31.51C46.32,164.56.99,229.25,5.24,271.94c.63,6.27,4.04,14.11,8.01,18.99,2.36,2.9,7.53,5.9,8.86,8.14,4.9,8.25,3.47,16.08,12.09,25.91,6.17,7.04,11,6.68,16.09,10.91,4.68,3.89,9.2,12.65,15.46,17.54,11.33,8.85,34.16,15.59,45.46,4.03,3.45,13.67,14.45,23.12,24.9,31.69-1.82,5.8-3.42,9.48-2.92,15.85.29,3.79,3.75,10.78,3.69,11.95-.04.64-5.46,8.88-6.51,11.15-7.08,15.31-7.03,24.82-11.43,39.57-5.03,16.87-15.66,25.95-13.76,46.33.44,4.73,3.79,10.31,3.73,13.78-.16,9.45-10.61,26.15-11.67,38.19-.62,7.04,1.84,12.27,1.86,16.98.03,6.66-5.06,12.88-3.77,23.9,1.33,11.31,7.21,15.18,10.59,23.41.75,1.83,5.93,17.73,5.89,18.71-.08,2.25-4.92,9.63-5.51,14.08-5.11,39.03,28.06,45.52,59.21,43.4,8.2,13.74,23.51,22.31,39.33,23.9,31.28,3.14,61.64-6.22,71.09-38.89l12.32.49c10.81,31.42,37.22,40.76,68.52,38.57,16.67-1.17,33.53-9.54,42.16-24.06,31.36,2.28,65.18-4.84,59.06-44.24-.6-3.86-5.49-11.71-5.29-13.85.09-.94,5.31-16.38,6.01-17.91,5.97-13.04,12.4-17.4,10.41-34.37-.47-3.98-3.41-9.18-3.58-12.25-.27-4.88,2.32-11.51,1.57-18.73-1.22-11.64-11.7-28.72-11.93-37.17-.12-4.3,3.37-7.67,3.97-12.05.83-6.08-.97-11.74-.91-16.91.13-9.92,5.22-23.36,5.98-34.02,2-28-8.16-47.6-34.76-57.71l-5.19-16.19c12.76-7.4,22.73-17.51,28.09-31.46,4.31-.98,7.45,3.18,11.44,3.81,17.74,2.81,32.48-6.93,43.95-18.92,2.13-2.22,4.94-7.45,6.95-9.05,5.86-4.66,10.38-3.77,16.95-12.05,7.08-8.93,6.74-17.28,11.12-24.88.84-1.46,6-4.73,7.97-7.03,16.91-19.77,5.64-51.43-3.65-72.37-12.58-28.34-49.63-88.71-75.94-104.06-9.68-5.65-23.65-9.31-34.71-11.29-6.12-1.1-18.85-1.02-23.58-3.42-2.43-1.23-5.65-5.83-8.15-7.85-1.69-1.36-11.46-7.81-11.45-8.53,11.43-8.77,9.05-28.74-6.51-30.5-6.39-.72-11.38,1.33-17.5,2,.82-21-21.5-26.3-32.97-9.47l-9.02,12.47c1.05-14.83-2.44-30.03-13.36-40.64ZM302.47,47.06c0,11.18-9.06,20.23-20.23,20.23s-20.23-9.06-20.23-20.23,9.06-20.23,20.23-20.23,20.23,9.06,20.23,20.23ZM297.55,46.98c0-8.46-6.86-15.32-15.32-15.32s-15.32,6.86-15.32,15.32,6.86,15.32,15.32,15.32,15.32-6.86,15.32-15.32Z"/>
</svg>