<?xml version="1.0" encoding="UTF-8"?>
<svg id="_レイヤー_1" data-name="レイヤー 1" xmlns="http://www.w3.org/2000/svg" width="204.61mm" height="305.86mm" viewBox="0 0 580 867">
  <path d="M339.01,103c13.91-17.24,35.74-17.48,42.95,5.59,18.03-3.67,34.25,5.62,30.8,25.67-.63,3.64-3.24,5.69-3.7,9.1,7.12,4.22,11.22,12.29,19.55,13.53,19.87,2.95,38,3.75,55.7,15.3,15.84,10.35,49.37,55.4,59.21,72.79,14.89,26.31,39.78,74.98,22.67,103.72-3.24,5.44-8.68,8.45-11.07,11.93-4.89,7.1-5.27,17.59-13.15,26.85-6.12,7.2-11.41,7.5-16.9,12.1-4.2,3.53-8.59,11.45-14.06,15.94-10.05,8.24-26.38,14.27-39.42,12.4-2.57-.37-7.27-3.35-8.61-2.49-5.91,11.37-14.06,20.23-24.83,27.06l3.84,11.04c26.16,10.94,36.87,32.03,35,59.98-.73,10.95-5.85,24.9-5.98,35.02-.07,5.17,1.71,10.81.91,16.91-.5,3.78-3.99,8.98-3.88,11.98.29,8.19,10.66,25.37,11.85,37.22.68,6.79-1.93,15-1.62,18.72.22,2.68,3.21,8.4,3.63,12.27.84,7.62-.38,15.53-3.14,22.65s-13.89,23.36-12.6,30.99c.58,3.44,4.12,8.16,4.73,13.36,4.7,40.15-27.61,50.41-61.23,48.56-25.46,33.84-88.95,32.8-111.47-3.86-2.85-4.64-3.93-13.39-10.63-12.37-11.17,32.65-40.88,42.52-73.1,40.11-16.76-1.26-34.08-10.42-44.12-23.88-33.15,1.76-65.38-7.96-61.33-47.65.51-5.04,5.17-12.98,4.98-15.93-.05-.8-4.17-13.76-4.79-15.28-3.88-9.5-9.84-13.49-11.08-25.92-1.07-10.72,2.82-15.01,3.59-23.02.2-2.13-1.56-5.24-1.7-7.87-.45-8.26.58-14.39,2.73-22.25,1.77-6.48,9.04-20.79,9.23-25.84.12-3.04-3.47-7.53-3.97-11.9-2.58-22.68,9.29-32.19,14.28-50.72,4.19-15.53,4.99-24.53,11.86-40.14,1.03-2.35,4.46-6.78,4.71-8.37.27-1.73-2.64-8.11-2.89-11.73-.38-5.68.93-9.5,2.1-14.85-10.05-6.23-16.02-15.49-21.56-25.67-12.94,9.41-35.62,1.07-46.98-8.04-5.78-4.63-10.19-12.71-14.6-16.4-2.45-2.06-7.11-3.44-10.25-5.75-5.12-3.76-11.05-11.44-13.85-17.15-2.13-4.35-3.49-12.72-5.37-15.63-1.07-1.66-5.37-4.24-7.42-6.58-5.34-6.06-9.27-14.94-10.02-22.98-4.05-43.69,41.97-110.92,70.01-142.95,16.59-18.94,33-26.08,57.76-30.24,6.07-1.02,16.6-.62,21.44-2.37.92-.33,5.75-5.79,7.29-6.91,20.86-15.08,51.77-25.64,77.48-27.03-11.96-43.2,36.93-78.99,74.92-54.41,11.72,7.59,21.42,21.2,22.09,35.42ZM321.65,77.35c-34.57-33.59-90.88,3.83-73.65,48.64-20.72,1.01-39.94,6.25-58.67,14.83-10.78,4.94-22.61,10.87-30.02,20.2-31.76,1.71-57.07,6.66-78.27,31.51-26.94,31.58-72.28,96.28-68.02,138.96.63,6.27,4.04,14.11,8.01,18.99,2.36,2.9,7.53,5.9,8.86,8.14,4.9,8.25,3.47,16.08,12.09,25.91,6.17,7.04,11,6.68,16.09,10.91,4.68,3.89,9.2,12.65,15.46,17.54,11.33,8.85,34.16,15.59,45.46,4.03,3.45,13.67,14.45,23.12,24.9,31.69-1.82,5.8-3.42,9.48-2.92,15.85.29,3.79,3.75,10.78,3.69,11.95-.04.64-5.46,8.88-6.51,11.15-7.08,15.31-7.03,24.82-11.43,39.57-5.03,16.87-15.66,25.95-13.76,46.33.44,4.73,3.79,10.31,3.73,13.78-.16,9.45-10.61,26.15-11.67,38.19-.62,7.04,1.84,12.27,1.86,16.98.03,6.66-5.06,12.88-3.77,23.9,1.33,11.31,7.21,15.18,10.59,23.41.75,1.83,5.93,17.73,5.89,18.71-.08,2.25-4.92,9.63-5.51,14.08-5.11,39.03,28.06,45.52,59.21,43.4,8.2,13.74,23.51,22.31,39.33,23.9,31.28,3.14,61.64-6.22,71.09-38.89l12.32.49c10.81,31.42,37.22,40.76,68.52,38.57,16.67-1.17,33.53-9.54,42.16-24.06,31.36,2.28,65.18-4.84,59.06-44.24-.6-3.86-5.49-11.71-5.29-13.85.09-.94,5.31-16.38,6.01-17.91,5.97-13.04,12.4-17.4,10.41-34.37-.47-3.98-3.41-9.18-3.58-12.25-.27-4.88,2.32-11.51,1.57-18.73-1.22-11.64-11.7-28.72-11.93-37.17-.12-4.3,3.37-7.67,3.97-12.05.83-6.08-.97-11.74-.91-16.91.13-9.92,5.22-23.36,5.98-34.02,2-28-8.16-47.6-34.76-57.71l-5.19-16.19c12.76-7.4,22.73-17.51,28.09-31.46,4.31-.98,7.45,3.18,11.44,3.81,17.74,2.81,32.48-6.93,43.95-18.92,2.13-2.22,4.94-7.45,6.95-9.05,5.86-4.66,10.38-3.77,16.95-12.05,7.08-8.93,6.74-17.28,11.12-24.88.84-1.46,6-4.73,7.97-7.03,16.91-19.77,5.64-51.43-3.65-72.37-12.58-28.34-49.63-88.71-75.94-104.06-9.68-5.65-23.65-9.31-34.71-11.29-6.12-1.1-18.85-1.02-23.58-3.42-2.43-1.23-5.65-5.83-8.15-7.85-1.69-1.36-11.46-7.81-11.45-8.53,11.43-8.77,9.05-28.74-6.51-30.5-6.39-.72-11.38,1.33-17.5,2,.82-21-21.5-26.3-32.97-9.47l-9.02,12.47c1.05-14.83-2.44-30.03-13.36-40.64ZM310.23,106.61c0,11.18-9.06,20.23-20.23,20.23s-20.23-9.06-20.23-20.23,9.06-20.23,20.23-20.23,20.23,9.06,20.23,20.23ZM305.32,106.53c0-8.46-6.86-15.32-15.32-15.32s-15.32,6.86-15.32,15.32,6.86,15.32,15.32,15.32,15.32-6.86,15.32-15.32ZM309.5,537.01c-16.33-3.07-11.09,16.72,2.55,12.54.94-.29,3.04-1.73,3.47-2.52,1.45-2.68-1.55-2.14-2.25-3.28-1.22-1.99.28-5.98-3.77-6.74ZM173.51,576c-3.31,2.8-2.99,7.2-.52,10.51,3.04,4.08,4.24,1.68,7.51,1.68,1.29,0,2.59.88,3.97.77,1.76-.14,3.56-2.59,6.52-.97l-1-10c-6.54-1.57-3.06,4.51-6.99,7l-1.08-6.93-3.93-.07c-.57.55,1.37,7.35-1.99,8-1.53-2.05,1.34-10.89-2.5-10ZM375.93,578.43c-6.79,7.44,8.93,16.05,15.1,8.92l-.04-3.34c-.43-.5-9.51,6.91-11.99,1.01,18.65,2.22,4.86-15.27-3.07-6.58ZM248.76,577.27c-8.53,4.03,2.06,17.38,11.58,11.57,1.61-.99,2.47-3.9,1.66-4.83-.44-.5-9.51,6.91-11.99,1.01,15.76,2.93,9.32-12.73-1.24-7.74ZM426,590c-4.11-.93-13.15,1.7-14.81-3.7-2.05-6.67,4.2-9.08,9.82-8.3v-5s3.05.44,3.05.44l1.94,16.56ZM417.5,580.02c-2.72,1.89-3.86,5.55-.98,7.98l4.41-3.63-3.43-4.34ZM241.88,573.12l1.11,16.87c-5.38-1.57-14.11,3.03-14.1-5.5.01-6.09,4.98-6.86,10.1-6.5l-.99-4.99,3.88.12ZM233.1,581.11c-1.78,1.14-.99,7.32,2.27,6.83,4.59-.69,2.55-9.91-2.27-6.83ZM153.47,575.97c-2.31-.14-6.58-.08-4.97,3.03l8.49,1.5c-2.69.67-9.8.24-8.79,4.84,1.13,5.15,9.94,2.97,13.79,4.66,1.06-6.78-.68-13.56-8.52-14.03ZM342.01,549.99l8.99-1c.4-3.57-4.11-1.11-6.96-3.52-5.88-4.98,2.75-12.65,8.54-8.54,2.89,2.06,3.45,11.23,1.52,13.66-3.68,3.2-8.13.74-12.09-.61ZM348.51,538c-2.43.53-3.7,6.41-1,6.99,3.61.77,5-7.86,1-6.99ZM289.18,537.82c.49.58,6.93,1.33,8.33,4.17,3.75,7.59-9.74,10.67-12.02,6.01-1.05-2.16-1.58-15.76,1.99-15,2.01.95,1.03,4.03,1.69,4.81ZM289.01,541.01l1.5,6.97c4.42-3.07,4.71-6.62-1.5-6.97ZM325,535.99c.12,4.42-1.25,13.55,4.98,13-.11-1.47,2.92-9.93,5.01-7.99l1.92,7.4,3.08.6c.8-7.82-2.97-14.9-10.98-9.01l-1.1-3.92-2.91-.08ZM393.08,577.63l2.44,10.36,2.51.55,4.47-8.51c1.92-.02,1.61,9.7,4.99,8.97,3.02-.65.39-8.66-.96-10.02-2.68-2.72-9.19.4-9.52.03v-3.01s-3.93,1.63-3.93,1.63ZM292.72,572.73c-6.32-1.05-5.96,3.1-5.83,8.16l-4.88,1.61c1.06,1.85,3.86,1.09,5.02,1.98,1.44,1.1.61,6.12,3.46,5.52,2.65-1.67.35-3.66.52-5.99l6.98-1.51-6.99-1.49v-6s6,4.99,6,4.99c.24-3.17-1.6-5.83-4.28-7.27ZM338.77,572.99c-2.7,1.51-1.05,6.46-1.91,7.87-.66,1.08-4.93.05-3.86,3.14h5c-.22,3.44-.4,6.68,3.99,6v-6s5.98-1.5,5.98-1.5l-6.99-1.49v-6s6,4.99,6,4.99c1-4.46-4.38-9.16-8.22-7.01ZM230.06,533.06l-.5,7.98c-1.38,1.9-5.46-.54-4.56,2.94,4.22.56,5.49.97,5.9,5.42l3.09.6v-6.01s5.99-1.48,5.99-1.48l-7-1.51v-6c2.74-1.02,4.1,7.78,7,4.99,1.83-1.76-6.14-9.82-9.94-6.93ZM207.73,587.74c-7.58,8.24-22.94-7.52-8.73-11.3,6.7-1.79,12.47,7.24,8.73,11.3ZM202.88,579.14c-3.81-1.06-7.29,2.1-5.4,5.86,1.28,1.95,3.38,2.66,5.51,1.52l1.86-2.16-1.97-5.22ZM211.01,576c-.45,2.68.56,12.38,3.51,12.99s2.59-8.58,6.47-8.99c2.37,14.24,8.86,9.77,3.05-1.54-3.36-1.24-6.37-.7-9.03,1.53.02-2.93-.76-4.56-4.01-3.99ZM300.01,577c-1,4.48,2.01,12.51,7.45,12.06,2.12-.18,3.3-2.88,4.03-2.89.87-.01,3.48,3.57,5.51,2.83-2.3-4.2-1.98-12.45-7.99-11l-2.51,7.98-2.52-8.97h-3.97ZM246.71,537.22c1.47-.33,3.32-.45,4.81-.29,5.51.58,9.67,10.37,2.52,12.62-10.24,3.22-16.22-10.3-7.33-12.33ZM251.91,539.08c-10.48-.08-5.37,12.23,2.05,6.31l-2.05-6.31ZM353.49,576.01l-3.03.98-.42,1.43c1.66,4.18.66,9.73,5.47,11.56l4.5-8.54,5.99,1.56c-.69-5.78-7.03-4.09-10.98-2.99l-1.52-4ZM260.97,536.47c-2.06,1.4,1.06,14.33,4.52,13.53l4.51-8.58c1.48-1.3,5.87,4.23,5.99.1-3.3-3.55-7.29-3.02-10.98-.52l-1.02-5-3.02.47ZM270.58,579.84c-1.69-.4-1.99-5.15-5.58-3.84.15,4.82-.36,13.96,5.99,14l3.01-8.58,6,1.57c-.6-6.74-7.36-2.66-9.41-3.15ZM320,589c2.57.4,3.4,2.25,3.47-1.5.03-1.32-.19-18.27-3.47-14.5v16ZM319,539.99c-1.01,12.52,6.03,13.37,2.99,0h-2.99ZM369.01,580.01c-1.13,3.55-1.45,9.05,2.98,9.99-.42-3.3,1.83-9.88-2.98-9.99ZM416.52,588l4.41-3.63-3.43-4.34c-2.72,1.89-3.86,5.55-.98,7.98ZM235.38,587.94c4.59-.69,2.55-9.91-2.27-6.83-1.78,1.14-.99,7.32,2.27,6.83ZM347.51,544.99c3.61.77,5-7.86,1-6.99-2.43.53-3.7,6.41-1,6.99ZM328,658c5.6-.19,16.89-1.43,13.87,7.39-.66,1.92-3.9.85-2.86,3.59,2.73.41,3.92,1.75,4.09,4.52.47,7.74-9.67,6.51-15.1,6.5v-22ZM332,667c8.91.29,9.99-7.36,0-6.01v6.01ZM338.86,675.87l-.8-5.44-6.07-.44v7.01s6.87-1.13,6.87-1.13ZM258,680h4c.46-3.28-1.24-9.97,1.41-12.09,8.6-5.32,4.46,11.02,5.6,12.1h2.99c.1-8.41,2.22-21.28-9.99-14.01v-9s-4.01,0-4.01,0v23ZM306,673h-11c-.36,5.7,4.99,5.03,8.99,4.01v2.99c-4.81.11-10.06,1.11-12.23-4.25-5.21-12.85,15.2-17.63,14.24-2.75ZM302,670.99c-1.27-11.03-9.8-.4-6.49.01h6.49ZM324,672.99h-10.99c-.32,6.13,5.03,4.33,9.01,4.52-.07,4.01-10.87,3.73-12.56-1.45-4.68-14.26,14.24-17.32,14.55-3.07ZM320,670.99c.46-6.28-6.12-6.02-7.99-1.48-1.14,2.77,6.9,1.04,7.99,1.48ZM237,658v3s6,0,6,0v19h4v-19h7.01s0-3,0-3h-17ZM277,680h4c-.22-6.81-1.3-12.57,7.01-13.51,1.48-6.45-7.68.9-8,.51v-3.01s-3.01,0-3.01,0v16ZM338.06,670.43l-6.07-.44v7.01s6.87-1.13,6.87-1.13l-.8-5.44ZM332,660.99v6.01c8.92.29,10-7.36,0-6.01ZM295.51,671.01h6.49c-1.27-11.04-9.8-.41-6.49,0ZM312.01,669.51c-1.14,2.77,6.9,1.04,7.99,1.48.46-6.28-6.12-6.02-7.99-1.48ZM290.5,547.98c4.42-3.07,4.71-6.62-1.5-6.97l1.5,6.97ZM197.48,585c1.28,1.95,3.38,2.66,5.51,1.52l1.86-2.16-1.97-5.22c-3.81-1.06-7.29,2.1-5.4,5.86ZM253.96,545.4l-2.05-6.31c-10.48-.08-5.37,12.23,2.05,6.31ZM198.11,323.11l-4.1,29.88,6.56-.93,1.94-19.07,4.54,19.96,6.82-.08,4.63-19.88,2.51,20h6s-3-30-3-30l-8.55.96-4.96,21.05-4.6-21.91h-7.8ZM247.89,323.12l10.11,29.87-7.06-.43-2.07-6.43-9.99.45-1.82,5.98-6.05.43,9.09-29.89,7.79.02ZM244.99,330c-2.45-.31-1.58.02-2.09,1.4s-2.45,9.06-1.9,9.6h6l-2.01-11ZM367,323v30h19v-5.01s-12.01.01-12.01.01v-7.43s11.01-.57,11.01-.57v-5.01s-11.01.01-11.01.01v-7.01s12.01.01,12.01.01v-5.01h-19.01ZM316,323v30h19v-5.01s-11.36-.13-11.36-.13c-2.66-.87-1.43-5.66-1.64-7.86h12.01s0-5,0-5l-10.36-.14c-1.56-.46-1.73-1.83-1.73-3.36,0-.9.07-1.78.52-2.57l12.57-.92v-5.01h-19.01ZM339.93,330.52c-.45,10.83,14.69,8.31,14.71,13.98-1.73,6.55-9.57,2.97-13.63.5l-.98,5.94c20.49,9.28,31.73-12.09,7.96-17.43l-1.06-3c.52-5.34,12.56-.95,13.06-1.51l-.13-4.85c-6.41-2.03-19.53-3.27-19.93,6.38ZM287,323v5.01s8,0,8,0v25h7v-25h8.01s0-5,0-5h-23ZM262,323v28.5l1.5,1.5h18.5v-6.01s-13,0-13,0v-24h-7ZM242.9,331.4c-.52,1.42-2.45,9.06-1.9,9.6h6l-2.01-11c-2.45-.31-1.58.02-2.09,1.4ZM255,497.01l1.45,2.66,7.53.34-7.07,2.41-1.81,2.29c.69,7.41,9.18,3.77,13.87,5.29.78-9.4-4.14-16.28-13.99-12.99ZM325.49,497.01c-3.54-1.13-3.59,3.99-5.03,5.96-3.71,5.08-5.42-1.11-4.97-4.98l-3.49-.97c-1.17,5.99,2.73,12,8.99,10l-1.65,2.92-4.33-.92v1.98c10.37,7.39,14.85-12.58,10.48-13.98ZM294.49,500.97l-1.96-7-3.52-.97c.6,5.26-2.22,16.76,4.99,16.99v-5.41s2.51-.6,2.51-.6c1.58,2.77,2.24,6.64,6.49,6.01.91-.85-2.74-6.23-2.64-7.51.09-1.1,2.24-1.69,1.64-3.48l-7.51,1.97ZM240.54,508.96c4.34,5.43,2.2-8.83,5.95-7.96,2.46.57,1.68,9.69,5,8.99,3.91-5.17-2.51-13.99-8.48-10.98l-1.01-6.01c-3.51-3.39-4.13,12.62-1.46,15.96ZM349.03,507.47c4.53,3.92,7.75-.53,9.27-.29,1.2.19,3.28,2.82,5.7,1.81l-5.51-10.98-2.97,1.01c-.74.66-1.06,9.25-3.51,6.97l-2.02-9c-6.32-1.35-3.69,8.12-.97,10.47ZM273.49,496c-4.4-1.07-1.84,12.37,1.03,12.99,2.41.52,3.91-6.39,4.5-7.99,4.27-.05,2.33,6.02,5.5,7.99,3.72.8,1.59-5.92.7-7.71-3.52-7.05-9.79-.84-10.2-1.28l-1.53-4ZM333.71,497.22c10.32-2.33,13.96,10.76,5.56,12.59-10.16,2.21-14.58-10.55-5.56-12.59ZM338.74,500.27c-3.67-4.45-10.98,5.56-2.84,7.28,4.13.87,4.95-4.71,2.84-7.28ZM216,495.49c1.38,2.74,8.42.91,9,1.5,0,2.43-.19,4.85.23,7.27.19,1.1,1.46,6.48,3.25,5.72,2.53-1.07-.57-10.61.51-13,.39-.39,11.01,1.13,8-1.98-1.44-1.49-18.24-1.86-20.99.48ZM335.91,507.55c4.13.87,4.95-4.71,2.84-7.28-3.67-4.45-10.98,5.56-2.84,7.28ZM295.99,284.51c4.09,4.76,14.4,5.6,16.83-1.03-.91-1.62-2.12-2.47-3.81-1.48,2.01-15.65-21.7-7.59-13.02,2.51ZM226.5,273.02c-3.53-.13-3.04,8.75-2.3,11.27.64,2.17,3.66,3.96,5.29,1.7l3.02-7.98c2.67-.4,1.11,3.35,1.69,5.28.36,1.2,1.45,1.91,2.31,2.7,3.04.65,2.38-6.86,4.99-7.97,2.25-.04.28,12.64,6.42,6.35-1.22-7.15-3.19-13.08-10.9-7.37-1.03-5.1-6.82-3.79-9.01,0l-1.51-3.98ZM291.99,288.99c-1.89.71-3.41-1.49-4.5-1.58-1.77-.15-3.04,1.84-6.28.96-10.55-2.86-4.17-17.04,5.78-12.37.64-.76-2.53-6.34.52-6.99,5.07-1.08,4.71,16.89,4.48,19.99ZM282.62,278.05c-5.49.87-1.7,15.2,4.13,3.43-.75-1.16-2.73-3.66-4.13-3.43ZM330.01,287.54c1.81-1.16-.19-8.14-1.13-9.91-4.15-7.81-16.82-4.25-13.87-1.63l10.01,1.51c-4.4-.58-13.75,3.51-8.77,8.26,1.24,1.18,12.85,2.36,13.77,1.77ZM254.23,284.27c2.35,1.09,4.66.28,6.76,1.23-2.42,3.86-4.6,1.69-7.99,2,12.28,8.17,14.19-3.28,12.99-13.5-5.33-1.26-4.08,2.78-6.55,5.95-4.34,5.55-6.38-2.67-5.45-6.94-7.01-.77-3.93,9.34.24,11.26ZM337.07,273.43l-4.06-.43c-.14,3.71.94,14.43,5.48,15.03,2.89.38,1.56-7.54,4.51-8.58,1.53-1.84,6.48,3.18,6.99.04.7-4.31-9.81-3.89-11.99-1.48l-.94-4.57ZM354.48,269.01c-4.25-.89-2.04,10.77-1.48,12.99,3.34,3.2,4.46-12.36,1.48-12.99ZM286.75,281.49c-.75-1.16-2.73-3.66-4.13-3.43-5.49.87-1.7,15.2,4.13,3.43Z"/>
</svg>