<?xml version="1.0" encoding="UTF-8"?>
<svg id="_レイヤー_1" data-name="レイヤー 1" xmlns="http://www.w3.org/2000/svg" width="204.61mm" height="305.86mm" viewBox="0 0 580 867">
  <path d="M347.01,85c11.22-9.56,19.59-22.08,30.46-32.03,29.18-26.69,83.78-58.1,108.71-8.65,13.49,26.77,7.46,89.11-5.32,116.04-4.03,8.5-12.91,16.85-15.58,24.42-7.24,20.51,3.14,44.67-12.31,61.69-2.53,2.79-5.67,4.12-7.73,7.15,4.85,34.91-1.77,72.63-13.49,105.63-7.6,21.4-18.52,39.08-34.47,55.24,5.04,4.92,3.34,15.31,5.24,19.5,1.12,2.47,7.72,8.84,9.89,12.11,15.64,23.52,15.01,53.99,19.91,81.09,3.48,19.28,8.71,38.32,12.41,57.59,1.82,9.49,2.01,22.78,5.74,31.26,3.55,8.08,10.45,16.23,14.4,24.6,15.9,33.74,12.74,72.03-3.84,104.89.02,1.4,11.75,11.22,13.96,13.99,9.12,11.4,11.89,23.77,7.97,37.92-8.37,30.19-44.56,34.21-70.46,26.57-9.95-2.93-19.08-8.88-29.98-8.03-4.72,4.21-8.27,10.25-13.49,14.53-24.78,20.31-65.89,10.41-76.03-20.51-2.33-.5-1.6.31-2.23,1.29-5.81,9.03-7.04,14.49-16.85,21.12-24.96,16.86-55.07,8.64-71.6-15.28-23.12,5.34-44.09,14.07-68.32,8.38-41.41-9.72-42.46-58.58-9.07-79.11-4.91-12.14-10.27-24.2-12.6-37.22-7.02-39.22,3.26-55.73,20.2-88.16,8.22-15.73,7.41-26.61,10.77-43.23,3.77-18.62,8.9-37.07,12.23-55.77,4.67-26.22,4.42-55.31,20.26-77.74,4.6-6.52,10.42-11.33,15.15-17.64-19.34-18.23-34.87-36.29-44.68-61.39-14.16-36.25-20.96-78.01-15.23-116.69-16.17-15.11-11.62-29.94-13.03-49.04-1.73-23.42-10.37-24.29-18.84-42.16-12.53-26.41-18.83-89.14-5.69-115.4,14.47-28.92,41.86-32.63,69.42-19.33,28.23,13.62,49.12,36.45,69.62,59.36,1.08.01,2.91-10.92,3.73-13.25,5.5-15.86,20.01-30,35.99-35.01,36.51-11.44,72.04,13.68,74.79,51.28ZM342,96v-16.5c0-18.36-24.42-40.32-41.95-43.05-36.87-5.74-59.63,18.24-62.05,53.07-.1,1.49.77,2.89-1.49,2.47-15.2-12.52-26.56-29.74-41.5-42.5C168.7,27.01,123.24.49,99.48,40.98c-15.7,26.76-8.25,94.18,7.35,120.69,3.61,6.13,9.41,11.38,11.94,18.06,6.93,18.33-.52,40.44,7.79,55.21,2.63,4.67,7.07,7.02,9.47,11.62-7.22,50.75,3.88,115.38,37.46,155.46,6.97,8.32,15.71,15.3,22.46,23.43.23,4.04-14.04,17.74-17.35,22.64-13.83,20.49-13.7,47.48-17.91,71.09-3.14,17.67-7.73,35.06-11.38,52.62-2.57,12.37-3.57,26.28-6.8,38.2s-12.44,22.25-17.68,33.32c-16.19,34.22-11.05,71.34,6.04,104.04-7.93,6.94-16.63,12.78-21.4,22.59-10.04,20.61.86,44.27,22.76,50.32,26.45,7.3,48.47-3.17,73.76-9.29,19.47,42.94,82.13,27.95,85.03-17.99,3.16,3.46,3.41,9.59,5.23,14.26,14.44,37.16,65.04,39.29,82.43,3.7,22.96.06,38.01,13.73,61.7,11.92,16.29-1.25,31.73-8.42,37.4-24.6,7.63-21.75-4.94-39.01-22.86-49.91,15.62-32.29,22.25-65.65,8.26-100.05-4.47-10.99-16.31-25.13-18.94-35.06-2.38-8.96-2.69-21.08-4.53-30.47-3.7-18.87-9.1-37.71-12.44-56.56-5.62-31.7-2.81-56.47-23.3-83.7-1.64-2.18-5.26-4.43-6.21-6.79-1.47-3.63-.39-7.78-1.2-11.8s-3.6-6.87-5.49-10.31c15.84-14.92,27.31-31.73,34.95-52.12,12.92-34.5,19.91-74.33,13.96-110.93,5.68-3.32,11.75-8.5,14.52-14.59,7.62-16.75-1.69-38.09,8.7-57.3,3.26-6.03,8.7-11.25,12.18-17.82,13.81-26.04,20.27-92.05,4.79-117.55-29.47-48.53-86.92.21-112.68,26.66-8.45,8.68-15.24,19.13-25.49,26.01ZM312.71,83.8c0,12.54-10.17,22.71-22.71,22.71s-22.71-10.17-22.71-22.71,10.17-22.71,22.71-22.71,22.71,10.17,22.71,22.71ZM308.1,83.89c0-9.99-8.1-18.1-18.1-18.1s-18.1,8.1-18.1,18.1,8.1,18.1,18.1,18.1,18.1-8.1,18.1-18.1ZM174.89,242.58l-3.89,29.41,7.57-.93,1.94-17.07,3.6,17.91h7.8s3.6-17.91,3.6-17.91l1.49,18.02h8.01s-3.44-29.07-3.44-29.07l-9.46-.83c-1.43,6.04-2.02,12.29-3.14,18.39-.3,1.65.64,1.72-1.96,1.51l-3.14-19.87-8.97.45ZM229,317h8v-16c3.23,1.52,7.48,14.78,9.16,15.84,1.32.83,5.89-.22,7.84.16v-30h-8v16l-8.98-15.52-8.02-.48v30ZM226,272h7v-16c7.05,5.21,5.42,18.65,17,16v-30h-7v16c-3.32-1.22-8.23-15.25-9.16-15.84-1.34-.83-5.88.22-7.84-.16v30ZM387.5,287c9.58,1.4,11.35,12.48,2.5,16.5,2.41.94,6.88,12.66,5.99,13.5l-7.9-.1c-.91-3.32-1.53-10.24-5.59-10.91-3.31-.55-.31,7.74-1.95,10.08l-7.56.94v-30c4.54.46,10.12-.64,14.5,0ZM386.85,293.15l-5.85-.15v8c2.58.25,4.93-1.1,6.56-3.01l-.71-4.84ZM317,317h7.01s.93-12.56.93-12.56l8.07-.44.93,12.57,7.06.44v-30h-8.01s0,12,0,12l-8.07-.44-.93-11.57h-7.01v30.01ZM331,242v20.5c0,.62,2.3,5.17,2.98,6.02,3.26,4.12,10.42,4.45,15.08,3.03,1.66-.51,5.95-4.67,5.95-6.05v-23.5h-7v20.5c0,4.63-9,4.63-9,0v-20.5h-8ZM288.86,242.14l9.14,29.86-7.89-.1-1.72-5.95-8.28.17-1.21,5.79-7.89.1,9.09-29.89,8.76.04ZM287,260l-2.99-10.99-2.01,10.99h5ZM200.5,287c14.99,2.48,9.02,24.36-6.51,20v10.01s-6.34-.16-6.34-.16l-1.65-1.34v-28.5c4.47.51,10.24-.7,14.5,0ZM194,302c10.15.38,11.35-10.49,0-9.01v9.01ZM259.92,295.51c.27,10.39,14.09,8.21,14.12,12.98-1.87,5.37-9.5,1.62-13.02-.48l-.89,6.88c8.27,5.5,27.72.94,20.76-11.27-3.2-5.61-14.09-3.51-12.91-10.08.37-2.03,10.39-.11,12.01.47l.94-5.92c-7.5-1.78-21.29-3.71-21,7.42ZM390,242v30h19v-6.01s-10.36-.13-10.36-.13c-2.32-.76-1.61-3.96-1.64-5.86h11.01s0-6.01,0-6.01c-.85-.87-16.45,2.69-9.35-5.84l10.35-.15v-6.01h-19.01ZM348,287v30h19v-6.01s-10.36-.14-10.36-.14c-1.56-.46-1.73-1.83-1.73-3.36,0-.9.07-1.78.52-2.57l10.57-.92v-5.01c-.84-.86-16.46,2.68-9.35-5.84l10.35-.15v-6.01h-19.01ZM310.87,289.47c-.31-3.02-22.63-6.63-24.77,8.12-2.53,17.42,10.17,22.7,24.91,17.4l-2.01-5.99c-20.49,9.96-21.04-24.76,0-14l1.88-5.53ZM302,242v7.01s8,0,8,0v23h8v-23h8.01s0-7,0-7h-24ZM215.98,205.53c6.57,3.39,4.61-7.82,8.53-10.52,2.03,4.44-.6,10.74,6.49,10-.34-3.6.49-7.29,3.99-9,3.49,22.68,10.4.67,2.02-3.51-3.96-1.98-6,1.66-7.37,1.42s-2.03-3.53-6.08-2.94c-2.56.37-2.96,3.28-5.55,3.04l-.09-2.88c-7.02-2.94-5.39,12.63-1.94,14.41ZM210,242v30h9v-30h-9ZM257,272h9v-30h-9v30ZM214,287v30h8v-30h-8ZM292,208c-6.69-1.42-17.78,2.86-18.1-7.48-.23-7.42,6.19-7.78,12.1-7.51v-7.01s3.86.14,3.86.14c.1,1.66,2.14,5.37,2.14,6.36v15.5ZM280.63,196.06c-4.89,1.43-1.67,13.52,3.93,7,3.19-3.71-1.34-7.76-3.93-7ZM300,201.01c3.56,5.64,10.08,3.84,13.51-1.01,4.51,1.05,2.17,4.75-.6,6.41-6.06,3.63-18.03-.14-17.98-7.91.07-10.89,17.88-10.65,17.59.55-3.57,3.6-8.08,3.33-12.53,1.96ZM306.97,197.97l-1.49-4.98-5.46,3.5c1.76,2.13,4.58,2.37,6.95,1.47ZM252.38,200.94c-5.37-.8-2.24-7.57-3.86-9.97-1.15-1.71-3.73-1.35-4.36.69-2.27,7.28,4.6,13.84,11.83,12.34l-1.67,2.82-6.33.18c11.21,9.73,16.32-4.26,14.85-14.37-.64-1.93-2.96-1.98-4.74-1.5l-5.73,9.81ZM320.25,204.76c-3.87-7.4,3.9-9.02,9.75-9.26-2.15-3.38-14.17.84-10.93-4.42,1.4-2.28,9.9-.76,12.44.91,3.34,2.2,7.47,12.53,4.53,14.58-1.17.81-13.93.3-15.78-1.81ZM330.92,200.09c-3.25-1.39-5.68-1.82-7.9,1.41l7.99,1.5-.08-2.9ZM339.12,191.58c1.69,5.7.5,16.29,8.87,15.43.1-9.07,2.37-11.93,11-8.01.3-6.59-8.98-5.93-12.98-2.99l-2.14-5.86c-1.42-.51-4.35-.34-4.76,1.44ZM364.5,200.98c2.07.03,2.24-13.3.56-14.54l-3.05-.45c-.43,4.74-1.56,11.67,2.49,14.99ZM189.15,198.58l12.16,17.87,1.36-.93-12.16-17.87-1.36.93ZM381,293v8c2.58.25,4.93-1.1,6.56-3.01l-.71-4.84-5.85-.15ZM362,242c6.27-.15,21.31-1.08,22.09,7.48.39,4.33-1.26,7.28-5.11,9.03l6.02,13.47-8.04-.45c-2-1.33-1.45-9.75-6.45-10.56-2.29-.37-1.39.98-1.51,2.5-.22,2.81.16,5.72,0,8.53h-7.01v-30.01ZM369,256c5.33.96,9.04-2.52,6.06-7.57l-6.06-.44v8.01ZM375.06,248.44l-6.06-.44v8.01c5.33.96,9.05-2.52,6.06-7.57ZM284.01,249.01l-2.01,10.99h5l-2.99-10.99ZM194,293v9.01c10.16.38,11.36-10.49,0-9.01ZM284.56,203.06c3.19-3.71-1.34-7.76-3.93-7-4.89,1.43-1.67,13.52,3.93,7ZM305.48,193l-5.46,3.5c1.76,2.13,4.58,2.37,6.95,1.47l-1.49-4.98ZM323.02,201.5l7.99,1.5-.08-2.9c-3.25-1.39-5.68-1.82-7.9,1.41ZM334,691c5.85-.12,18.71-1.03,15.82,8.31-.9,2.89-4.58,1.65-3.82,4.68,5.51.54,5.92,4.34,4.55,9.11s-12.57,3.93-16.56,3.91v-26ZM338,702c10.32.91,11.65-8.85,0-7.01v7.01ZM338,704.99l.95,8.58c11.36.51,10.64-10.18-.95-8.58ZM216.53,604.09c2.02-.07,3.2-1.67,3.99-1.72.99-.07,2.53,1.59,4.07,1.67,2.45.13,5.33-3.39,9.41-1.04-1.14-4.24-2.73-6.86-1.07-11.37-.52-2.01-4.17-2.36-5.44-.63l-2.5,8c-3.43-1.07-1.08-6.09-2.42-8.06-8.1-4.44-2.65,6.15-7.55,9.06-1.82-2.1,0-11.32-1.02-11.99-6.17-4.08-7.9,16.43,2.54,16.08ZM292.99,591c.23-2.7-1-6.06,1.5-7.97,7.76,3.87,2.72,14.03,5.31,20.72l-1.33,2.26c-5.67-3.36-9.85,2.68-15.43-2.56-6.75-6.34,2.22-16.31,9.94-12.45ZM286.24,601.76c2.01,2.54,8.61-1.19,6.29-5.76-3.34-6.58-9.91,1.2-6.29,5.76ZM344.99,650.99c-5.8-1.91-12.16,1.94-16.94-2.55-6.88-6.45,3.56-15.94,10.94-12.45l-.99-6.99c9.91-.77,4.48,15.28,6.99,21.99ZM333.69,639.1c-3.63.9-3.7,7.34-.07,8.85l5.3-4.59c-.36-2.1-3.08-4.8-5.23-4.26ZM253,717h5.01c-2.77-20.47,10.55-20.18,8,0h3.99c.67-8.93.53-24.69-11.99-16-1.01-1.41,2.64-15.44-5.01-9.5v25.5ZM286,644.01c1.27,3.44,6,3.86,8.99,2.47.68-.31,6.03-6.73,7.01-1.96,1.5,7.28-19.86,8.54-21.85-2.26-.51-2.74,1.46-6.52,3.89-7.71,14.47-7.08,20.71,14.6,1.95,9.46ZM289.67,636.11c-1.64.14-5.3,2.74-2.71,4.42l6.01-1.03c-1.01-1.07-1.21-3.58-3.3-3.4ZM308,599.01c3.98,5.7,10.03,2.5,13.5-1.99l2.23,2.47c-2.72,7.57-13.86,7.31-18.77,2.05-11.01-11.79,13.65-21.06,14.95-5.19-3.18,3.64-7.65,3.81-11.92,2.67ZM313.94,591.06c-.7-.66-7.63.24-5.93,3.43.81,1.95,4.47,1.96,6.04,1.04,1.07-.63.05-4.32-.11-4.47ZM325.57,502c1.53.05,3.43-1.74,4.43-.5-2.96,4.39-4.6,2.91-8.99,3,5.18,5.95,13.4,3.32,14.76-4.23.52-2.88,1.58-15.19-3.8-11.8-2.41,1.52-8.17,22.46-9.97-.47-10.62-1.05-2.54,13.81,3.57,14ZM307,549.01c3.99,5.71,10.03,2.5,13.5-1.99l2.31,3.32c-2.5,6.68-14.45,5.85-18.83,1.18-10.71-11.4,14.54-21.14,14.91-5.2-1.1,3.51-8.99,2.64-11.89,2.68ZM312.9,541.1c-1.9-1.18-6.42,1.1-5.89,3.89,4.3,1.58,8.6,1.84,5.89-3.89ZM289.11,539.89c5.52.78,12.75,3.47,10.69,10.39-1.39,4.67-13.36,6.82-15.31,2.72-1.31-2.75-3.89-23.68,3.58-18.58l1.04,5.46ZM290.49,543.02c-2.13.1-2.57,9.72.99,8.97l3.38-5.36-4.37-3.61ZM356,554.01c3.51-.49,8.24,1.36,10.99-1.53.29-2.48-2.36-.19-4.99-.91-9.73-2.67-7.01-15.18,2.44-14.54,1.24.08,5.51,2.01,6.07,2.95.33.54,1.64,11.33,1.58,12.52-.36,7.14-12.77,6.69-16.09,1.5ZM362.63,540.06c-2.6.75-4.67,8.59.85,7.99,4.94-.53,4-9.4-.85-7.99ZM256.99,494c.53-4.84-10.31-2.28-11-3l.02-2.96c10.11-2.72,17.23,2.02,17.93,12.6.47,7.05-2.86,2.93-4.42,2.85-2.77-.14-5.34,1.07-8.82.3-10.34-2.29-1.34-13.95,6.28-9.78ZM257.99,499.99c-.44-4.43-5.54-4.77-7.97-1.49,2.34,2.77,4.82,2.68,7.97,1.49ZM289.01,483c-1.12.81-.07,18.13,2,20.49.58.66,2.73,1.97,3.52.54l.43-6.36,2.55-1.68c2.51,3.46,2.72,9.15,8.48,7.99l-3.05-9.41c.1-1.14,5.07-1.23,1.58-3.65-2.84-1.97-7.25,2.12-10.51,2.06,1.3-2.64-1-12.89-5-9.99ZM190.99,594c.35-4.16-6.02-2.27-7.78-2.25-4.46.04-4.45-3.24.24-3.79,9.02-1.06,13.92,3.74,14.49,12.68.45,7.05-2.84,2.92-4.41,2.84-4.96-.26-13.68,2.83-13.38-5.76,2.16-4.26,6.62-4.62,10.84-3.73ZM185.63,597.13c-.58.16-2.08,1.21-1.13,1.87,1.8,2.46,5.42,3.09,7.5.49.59-2.79-4.55-2.87-6.37-2.36ZM285.05,503.55c2.9-7.83-4.03-19.47-12.55-11.57l-2.44-4.54-3.09.02c-2.57,1.84,1.13,18.84,5.05,16.08,1.38-1.03,4.18-12.63,6.97-10.54l3.03,10.99,3.03-.44ZM226,498.5c0,1.42,2.31,6.95,4.49,6.49,2.7-.56.2-10.28,4.01-11.97,3.99,2.15,2.4,8.7,4.95,11.03,4.7,4.31,4.29-7.51.58-11.58-2.53-2.78-5.47-2.41-8.89-2.6l-1.21-5.8-3.93-.06v14.5ZM308.07,633.43l-4.06-.43c-1.08,3.2,1.55,20.47,6.95,15.97.46-.38,1.74-9.81,4.55-10.94,1.96-.05,2.79,14.16,7.49,10.98,3.87-2.62-4.37-22.38-13.98-11l-.94-4.57ZM360.5,586.02l4.01,6.98c7.16-2.89-4.64-14.07-9.27-8.74l-1.67,9.81-5.57.94c.65,3.78,6.05,2.46,6.88,3.11,1.11.87-.27,7.51,3.62,7.86,2.58-1.91,1.17-5.24,1.54-7.93l7.95-1.05-1.67-2.82-7.33-.17c.2-2.71-.99-6.06,1.51-7.99ZM229,691v4s7,0,7,0v22h5v-22h7s0-4,0-4h-19ZM259.13,595.38c.26,2.41,1.62,11.21,5.93,8.19l5.44-10.55c2.06-.02,1.83,12.97,7.49,10.97.58-10.01-3.07-18.15-13.98-11.99-2.76-9.15-5.71-4.22-4.88,3.38ZM237.74,538.24c11.43-2.02,17.18,14.32,5.52,16.55s-19.14-14.14-5.52-16.55ZM239.68,541.14c-8.53.78-4.04,15.34,3.85,8.86,1.74-2.42-.89-9.14-3.85-8.86ZM372.51,588.01c-4.98,5.5,1.58,18.07,8.77,15.83,1.43-.44,2.36-2.56,3.35-2.75,1.82-.34,5.68,5.61,8.34,1.41-6.04-3.05-2.77-14.81-10.04-12.05l-2.96,9.55c-6.22-.81-1.39-10.93-7.47-11.99ZM364.49,488.01c-5.5-1.72-4.74,10.43,1.56,14.44,4.74,3.02,6.1,1.3,9.45-2.42.76,0,5.07,6.64,7.48,2.48-3.81-3.09-4.98-7.62-5.1-12.37h-5.76c.31,1.41-1.61,12.13-4.1,9.87-1.94-2.27-1.55-11.37-3.53-11.99ZM233.56,639.03c-13.22,2.48,0,4.48.99,5.91.84,1.2-.17,6.71,2.93,6.05,2.18-.46,1.47-6.2,1.51-8,2.69-.18,6.02.98,7.99-1.51,1.32-2.7-7.93-2.72-9-2.48-.63-2.1.24-11.05,2.89-6.39,1.44,2.52.76,6.23,5.11,5.38-.16-12.37-15.6-12.97-12.43,1.04ZM349.58,540.93c-2.76-1.97-7.61-1.14-10.08,1.05-1.08-.09-2.55-7.9-5.03-4.01-1.66,2.61-.76,17.71,5.51,16.02.66-2.68,1.43-5.39,2.68-7.87.78-1.56,1.06-3.72,3.33-3.11,5.17,23.24,10.58,2.91,3.59-2.08ZM345.74,488.23c8.58-1.5,12.22,4.19,12.11,12.06-3.73,5.04-9.01,5.81-14.54,2.9-7.22-3.79-5.87-13.51,2.44-14.96ZM347.73,491.13c-2.09.31-5.18,2.86-4.73,5.27.31,5.97,8.47,7.07,9.99,1.13-.9-2.52-1.83-6.91-5.25-6.4ZM225.49,542.99c3.42-1.84-1.86-8.75-3.5-9.49-7.48-3.41-8.8,4.85-8.08,10.4l-5.9,1.11,1.17,2.82,5.83.17,1.02,6.99,3.02-.45.92-7.08,8.03-1.96c-2.21-2.79-5.93-.92-8.83-1.64-1.87-1.17-.57-10.16,1.84-7.86.3,1.69,2.24,7.43,4.5,6.99ZM243.73,588.23c14.06-2.85,17.51,19.94,1,16.55-10.02-2.06-10.78-14.56-1-16.55ZM248.74,592.24c-12.92-3.25-7.09,16.09,2.16,7.08l-2.16-7.08ZM308,709l-12.04.46c-2.03,3.75,2.89,4.6,5.55,4.63,3.71.04,4.02-2.59,5.46,1.41,0,1.92-13.94,4.47-15.77-5.25-2.8-14.84,19.1-16.54,16.8-1.25ZM304,707c.66-7.14-6.41-7.54-8.98-1.49,2.15,2.63,6.01,1.2,8.98,1.49ZM222.99,487.49c.01-2.55-1.92-2.09-3.48-2.5-7.48-1.92-15.12-.58-22.51,1.02,1.97,3.67,6.03,3.31,9.42,2.09l1.11.85c1.79,2.96-.61,16.95,6.47,14.54l-1.01-15.49,10-.52ZM329,709h-13c-.33,6.67,6.49,4.88,10.99,5.01,3.33,2.93-12.49,6.1-14.79-1.71-4.81-16.39,16.95-19.68,16.79-3.3ZM325,706.99c-.25-7.56-9.36-8.11-8.99,0h8.99ZM250,633c-.21,3.66.97,15.49,4.7,16.82,6.71,2.38,1.85-10.27,8.71-9.84,2.12.13,3.41,2.27,5.58,2.02-.27-7.48-8.38-6.65-12.98-3-.13-4.02-1.52-6.76-6.01-6ZM326,588c-.18,3.38,1.94,18.54,7.48,16.99,2.46-.69.67-10.47,6.2-10.81.46-.03,7.83,4.06,6.32.33-4.15-5.41-8.64-3.18-13.98-1.51l-1.15-4.87-4.86-.13ZM254.51,537.93l-2.26,1.52c1.23,3.78,1.26,15.05,6.4,15.43,3.37.25,2.41-8.18,5.03-9.97,2.95-2.01,5.16,1.5,8.31,1.08-1.38-6.32-8.45-5.67-12.98-2.99-.39-2.72-1.38-5.33-4.5-5.07ZM275,717h4c-.57-8.11-.43-14.48,9.01-15.51l-1.49-3.46-7.02,3.96-.59-2.88-3.91-.11v18ZM395,586.5c-.67,3.72-1.25,20.72,5.01,17.99l-1.01-20.5c-2.4-.27-3.55.03-3.99,2.5ZM326,542.99c-.81.76-.05,15.14,5,11.5l-1.15-11.34-3.85-.15ZM276.5,639l-3.49-1c.25,4.81-1.96,12.32,4.99,11.99l-1.5-10.99ZM324.97,534.55c1.19,2.87,2.05,7.24,6.03,6.45l-1.23-6.76c-.97-1.25-4.85-.71-4.8.31ZM276.56,629.94l-4.56-.93c.31,2.98,1.16,8.08,4.99,7l-.43-6.07ZM338.95,713.58c11.36.51,10.64-10.18-.95-8.58l.95,8.58ZM338,695v7.01c10.32.91,11.66-8.85,0-7.01ZM292.53,595.99c-3.34-6.58-9.91,1.2-6.29,5.76,2.01,2.54,8.61-1.19,6.29-5.76ZM333.62,647.95l5.3-4.59c-.36-2.1-3.08-4.8-5.23-4.26-3.63.9-3.7,7.34-.07,8.85ZM286.97,640.53l6.01-1.03c-1.01-1.07-1.21-3.58-3.3-3.4-1.64.14-5.3,2.74-2.71,4.42ZM308.01,594.49c.81,1.95,4.47,1.96,6.04,1.04,1.07-.63.05-4.32-.11-4.47-.7-.66-7.63.24-5.93,3.43ZM307,544.99c4.3,1.58,8.6,1.84,5.89-3.89-1.9-1.18-6.42,1.1-5.89,3.89ZM291.49,552l3.38-5.36-4.37-3.61c-2.13.1-2.57,9.72.99,8.97ZM363.49,548.06c4.94-.53,4-9.4-.85-7.99-2.6.75-4.67,8.59.85,7.99ZM250.02,498.5c2.34,2.77,4.82,2.68,7.97,1.49-.44-4.43-5.54-4.77-7.97-1.49ZM184.49,599c1.8,2.46,5.42,3.09,7.5.49.59-2.79-4.55-2.87-6.37-2.36-.58.16-2.08,1.21-1.13,1.87ZM243.52,550.01c1.74-2.42-.89-9.14-3.85-8.86-8.53.78-4.04,15.34,3.85,8.86ZM342.99,496.4c.31,5.97,8.47,7.07,9.99,1.13-.9-2.52-1.83-6.91-5.25-6.4-2.09.31-5.18,2.86-4.73,5.27ZM250.9,599.33l-2.16-7.08c-12.92-3.25-7.09,16.09,2.16,7.08ZM295.02,705.51c2.15,2.63,6.01,1.2,8.98,1.49.66-7.14-6.41-7.54-8.98-1.49ZM316,706.99h8.99c-.25-7.56-9.36-8.11-8.99,0Z"/>
</svg>