<?xml version="1.0" encoding="UTF-8"?>
<svg id="_レイヤー_1" data-name="レイヤー 1" xmlns="http://www.w3.org/2000/svg" width="143.81mm" height="291.41mm" viewBox="0 0 407.65 826.05">
  <path d="M260.84,69.74c11.22-9.56,19.59-22.08,30.46-32.03,29.18-26.69,83.78-58.1,108.71-8.65,13.49,26.77,7.46,89.11-5.32,116.04-4.03,8.5-12.91,16.85-15.58,24.42-7.24,20.51,3.14,44.67-12.31,61.69-2.53,2.79-5.67,4.12-7.73,7.15,4.85,34.91-1.77,72.63-13.49,105.63-7.6,21.4-18.52,39.08-34.47,55.24,5.04,4.92,3.34,15.31,5.24,19.5,1.12,2.47,7.72,8.84,9.89,12.11,15.64,23.52,15.01,53.99,19.91,81.09,3.48,19.28,8.71,38.32,12.41,57.59,1.82,9.49,2.01,22.78,5.74,31.26,3.55,8.08,10.45,16.23,14.4,24.6,15.9,33.74,12.74,72.03-3.84,104.89.02,1.4,11.75,11.22,13.96,13.99,9.12,11.4,11.89,23.77,7.97,37.92-8.37,30.19-44.56,34.21-70.46,26.57-9.95-2.93-19.08-8.88-29.98-8.03-4.72,4.21-8.27,10.25-13.49,14.53-24.78,20.31-65.89,10.41-76.03-20.51-2.33-.5-1.6.31-2.23,1.29-5.81,9.03-7.04,14.49-16.85,21.12-24.96,16.86-55.07,8.64-71.6-15.28-23.12,5.34-44.09,14.07-68.32,8.38-41.41-9.72-42.46-58.58-9.07-79.11-4.91-12.14-10.27-24.2-12.6-37.22-7.02-39.22,3.26-55.73,20.2-88.16,8.22-15.73,7.41-26.61,10.77-43.23,3.77-18.62,8.9-37.07,12.23-55.77,4.67-26.22,4.42-55.31,20.26-77.74,4.6-6.52,10.42-11.33,15.15-17.64-19.34-18.23-34.87-36.29-44.68-61.39-14.16-36.25-20.96-78.01-15.23-116.69-16.17-15.11-11.62-29.94-13.03-49.04-1.73-23.42-10.37-24.29-18.84-42.16C.45,115.7-5.85,52.96,7.29,26.7,21.76-2.22,49.15-5.93,76.71,7.37c28.23,13.62,49.12,36.45,69.62,59.36,1.08.01,2.91-10.92,3.73-13.25,5.5-15.86,20.01-30,35.99-35.01,36.51-11.44,72.04,13.68,74.79,51.28ZM255.83,80.74v-16.5c0-18.36-24.42-40.32-41.95-43.05-36.87-5.74-59.63,18.24-62.05,53.07-.1,1.49.77,2.89-1.49,2.47-15.2-12.52-26.56-29.74-41.5-42.5C82.54,11.75,37.07-14.76,13.32,25.73c-15.7,26.76-8.25,94.18,7.35,120.69,3.61,6.13,9.41,11.38,11.94,18.06,6.93,18.33-.52,40.44,7.79,55.21,2.63,4.67,7.07,7.02,9.47,11.62-7.22,50.75,3.88,115.38,37.46,155.46,6.97,8.32,15.71,15.3,22.46,23.43.23,4.04-14.04,17.74-17.35,22.64-13.83,20.49-13.7,47.48-17.91,71.09-3.14,17.67-7.73,35.06-11.38,52.62-2.57,12.37-3.57,26.28-6.8,38.2s-12.44,22.25-17.68,33.32c-16.19,34.22-11.05,71.34,6.04,104.04-7.93,6.94-16.63,12.78-21.4,22.59-10.04,20.61.86,44.27,22.76,50.32,26.45,7.3,48.47-3.17,73.76-9.29,19.47,42.94,82.13,27.95,85.03-17.99,3.16,3.46,3.41,9.59,5.23,14.26,14.44,37.16,65.04,39.29,82.43,3.7,22.96.06,38.01,13.73,61.7,11.92,16.29-1.25,31.73-8.42,37.4-24.6,7.63-21.75-4.94-39.01-22.86-49.91,15.62-32.29,22.25-65.65,8.26-100.05-4.47-10.99-16.31-25.13-18.94-35.06-2.38-8.96-2.69-21.08-4.53-30.47-3.7-18.87-9.1-37.71-12.44-56.56-5.62-31.7-2.81-56.47-23.3-83.7-1.64-2.18-5.26-4.43-6.21-6.79-1.47-3.63-.39-7.78-1.2-11.8s-3.6-6.87-5.49-10.31c15.84-14.92,27.31-31.73,34.95-52.12,12.92-34.5,19.91-74.33,13.96-110.93,5.68-3.32,11.75-8.5,14.52-14.59,7.62-16.75-1.69-38.09,8.7-57.3,3.26-6.03,8.7-11.25,12.18-17.82,13.81-26.04,20.27-92.05,4.79-117.55-29.47-48.53-86.92.21-112.68,26.66-8.45,8.68-15.24,19.13-25.49,26.01ZM226.54,68.54c0,12.54-10.17,22.71-22.71,22.71s-22.71-10.17-22.71-22.71,10.17-22.71,22.71-22.71,22.71,10.17,22.71,22.71ZM221.93,68.64c0-9.99-8.1-18.1-18.1-18.1s-18.1,8.1-18.1,18.1,8.1,18.1,18.1,18.1,18.1-8.1,18.1-18.1Z"/>
</svg>