<?xml version="1.0" encoding="UTF-8"?>
<svg id="_レイヤー_1" data-name="レイヤー 1" xmlns="http://www.w3.org/2000/svg" width="204.61mm" height="305.86mm" viewBox="0 0 580 867">
  <path d="M345.1,78.9c12.14,2.45,21.45,10.11,34.39,9.89,11.71-.2,23.33-6.06,34,4.22,4.64,4.47,4.79,11.2,7.47,14.53,2.1,2.61,14.27,8.18,18.53,12.47,27.7,27.87,47.23,59.05,54.24,98.76,5.27,29.85,11.57,61.96-9.2,87.25-1.37,1.67-4.28,2.81-4.86,4.21-2.24,5.37-.2,13.69-4.13,21.8-3.42,7.07-9.95,10.62-14.35,16.26,5.7,15.94,9.22,34.2,9.86,51.15.42,11.15-3.12,23.77,1.41,33.59,14.46,31.31,35.91,67.25,27.89,103.81-.84,3.83-4.08,10.02-4.34,12.75-.79,8.46,2.43,22.59,2.03,32.95-.62,16.19-5.21,20.25,1.47,36.44,6.11,14.81,16.81,27.94,23.34,42.66,10.79,24.29,13.21,55.67,1.32,80.03-2.83,5.79-9.65,12.18-11.63,16.37-4.49,9.51-3.46,17.98-11.32,28.68-4.67,6.36-14.88,11.74-16.94,14.56-.94,1.28-1.98,6.34-3.49,9.02-7.6,13.55-23.8,19.62-38.43,21.57-5.36.71-20.34.13-23.71,1.29-1.54.53-2.2,3.18-3.62,4.38-12.33,10.44-29.28,17.44-45.5,18.5-28.19,1.85-59.91-3.15-76.57-28.04h-1.96c-10.18,16.04-32.74,26.44-51.53,27.98-27.54,2.26-53.56-2.33-73.41-22.55-25.29-1.33-48.79-.81-63.26-24.74-.94-1.56-1.63-5.03-2.05-5.45-.51-.51-3.4-.83-4.81-1.68-12.35-7.41-20.09-16.32-24.97-30.04-1.42-4.01-2.14-10.51-3.53-13.47-2.03-4.31-8.73-10.37-11.64-16.36-11.86-24.43-9.48-55.7,1.33-80.04,6.53-14.71,17.23-27.84,23.34-42.66,6.67-16.16,2.12-20.27,1.47-36.44-.41-10.36,2.81-24.63,2.03-32.95-.26-2.73-3.5-8.92-4.34-12.75-8.03-36.55,13.42-72.49,27.89-103.81,4.57-9.89.91-23.26,1.42-34.58.55-12.23,3-27.87,6.33-39.67.98-3.47,5.63-13.59,5.73-15.38.11-2.02-7.42-9.82-9.07-14.86-1.82-5.56-1.06-13.41-2.7-17.3-1.06-2.49-4.6-4.53-6.22-6.78-18.02-24.95-13.74-50.29-8.9-78.85,3.74-22.08,10.95-43.68,21.7-63.3,3.39-6.18,11.19-15.52,13.4-20.6,1.35-3.09,1.45-7.68,2.73-11.27,2.34-6.53,8.85-12.65,14.73-16.27,3.56-2.19,16.1-6.41,17.32-7.68,1.15-1.19,2.51-7.59,4.55-10.45,6.21-8.71,16.05-9.63,25.92-9.05,3.45.2,7.16,1.75,10.74,1.7,9.89-.14,21.11-5.69,30.79-7.73-12.13-85.99,116.26-88.85,109.09-2.09ZM339.13,82.87c3.64-20.46-3.44-42.68-21.22-54.29-40.08-26.17-88.5,11.52-75.91,56.41-13.42,3.05-26.35,9.9-40.49,8.99-3.79-.25-8.31-2.06-12.01-2.06-11.04.01-20.31,7.41-19.64,18.93-10.66,3.3-30.03,10.24-33.18,22.33-.9,3.45-.12,6.98-1.22,9.78-1.19,3.03-9.96,13.75-12.63,18.37-15.84,27.3-19.57,46.41-23.95,77.05-3.14,22.01-7.88,36.18,4.95,57.29,2.58,4.25,9.72,10.42,10.71,13.29,2.35,6.82.48,14.43,4.25,21.75,1.63,3.18,9.03,8.93,9.01,10.6-7.21,16.37-11.81,34.21-12.84,52.15-.69,11.93,2.89,31.42-1.78,41.22-15.72,33.05-36.62,66.62-26.9,105.53.63,2.53,3.22,6.36,3.41,8.42.34,3.63-1.64,9.92-1.74,13.83-.21,8.17-.51,18.03,0,26.08.29,4.63,3.27,15.52,2.83,18.74-1.73,12.73-16.09,32.98-22.31,44.7-17.45,32.82-22.79,66.37-.46,98.5,6.35,9.13,4.51,9.23,7.94,19.06,2.83,8.1,8.77,17.13,15.56,22.44,3.52,2.74,11.64,5.69,13.45,7.55,1.3,1.34,3.07,6.91,4.61,9.39,11.92,19.26,40.01,17.55,59.76,19.24,29.75,33.56,99.83,31.37,121.68-10.15l2.05.61c22.48,40.71,93.14,43.07,122.59,9.54,20.13-1.72,46.33.1,59.18-18.82,2.21-3.26,3.84-10.16,5.69-12.31,1.36-1.57,5.76-3.17,7.95-5.05,6.8-5.84,12.22-13.22,15.3-21.7,3.59-9.89,1.74-10.5,8.2-19.8,22.65-32.58,16.55-66.85-.8-100.16-5.99-11.5-20.29-30.61-21.97-43.04-.44-3.22,2.54-14.11,2.83-18.74.51-8.05.21-17.91,0-26.08-.1-3.9-2.08-10.2-1.74-13.83.19-2.05,2.78-5.89,3.41-8.42,9.71-38.86-11.19-72.51-26.9-105.53-4.66-9.81-1.09-29.3-1.78-41.22-.58-10.12-2.73-21.85-5.33-31.67-.86-3.26-5.75-14.8-5.72-16.33.04-2.38,5.74-4.1,8.03-5.93,4.77-3.82,9.71-10.12,10.74-16.26.8-4.81-.16-11.95,2.26-16.49.47-.89,5-3.98,6.49-5.76,8.86-10.51,13.65-30.88,12.37-44.39-3.1-32.87-11.27-66.52-27.71-95.29-8.59-15.04-27.84-36.46-42.25-45.75-2-1.29-6.86-2.96-7.91-4.09-3.74-4-.32-12.96-11.47-17.53-9.41-3.86-14.23-.21-23,.08-13.54.44-18.12-3.26-29.58-7.5-4.07-1.51-8.73-2.18-12.83-3.67ZM312.55,63.22c0,12.45-10.09,22.54-22.54,22.54s-22.54-10.09-22.54-22.54,10.09-22.54,22.54-22.54,22.54,10.09,22.54,22.54ZM307.03,63.21c0-9.4-7.62-17.01-17.01-17.01s-17.01,7.62-17.01,17.01,7.62,17.01,17.01,17.01,17.01-7.62,17.01-17.01ZM318.21,649.8c.51.57,3.4.24,3.77,1.77.68,2.84-4.22,5.06-6.55,5.37-17.1,2.29-19.45-18.42-3.01-15.87,6.89,1.07,4.21,6.96,5.78,8.73ZM311.99,643c-1.13.2-6.84,1.67-5.98,3.48,1.7,2.28,4.62,1.45,6.99,1.51l-1.01-4.99ZM368.86,657.86c-5.27,2.62-10.24,2.81-14.86-1.37l9.99-.5c.55-3.17-3.62-1.66-6.37-3.12-7.42-3.94-4.45-13.03,3.89-12.98,8.92.06,7.72,11.61,7.35,17.96ZM359.1,643.1c-4.47,16.19,10.55,2.62,3.28.02l-3.28-.02ZM288.91,637.1l.09,5.9c9.89-1.21,16.63,11.17,4.28,13.77-13.21,2.77-8.8-10.29-9.29-19.01l1.91-1.24,3.01.58ZM289,654c7.11-.32,7.36-7.82,0-7.99v7.99ZM331.96,642.54c-.33,2.03,1.38,12.02,3,13.01,4.98,3.05,4.51-8.9,8.55-10.54,1.52,1.92,3.04,15.71,7.03,10.02,3.68-5.26-5.77-19.65-13.52-10.03,1.38-4.66-4.24-7.47-5.05-2.46ZM216.56,646.03l-5.56.97c-.12,3.44,3.61,3.92,5.91,3.02.8,9.77,6.06,10.99,5.08-.03l8-1.01c-1.65-3.39-5.85-3.1-9-2.98v-7c4.33-.06,2.9,7.16,8,5.99.9-.88-2.32-6.92-3.28-7.7-6.64-5.41-11.23,2.3-9.16,8.74ZM234.34,653.65c-10.31-10.41,13.42-20.44,16.46-4.9,1.75,8.94-10.98,10.44-16.46,4.9ZM243.85,644.17c-5.83-2.34-9.65,5.54-5.26,8.76,2.44,1.62,4.92,1.04,6.95-.92,1.52-2.45-.9-5.47-1.69-7.84ZM260.46,656.99c2.11-.46,1.5-7.97,4.53-9.53,3.92-2.03,5.2,3.57,7.99.04-3.12-4.6-8.84-4.83-12.97-1.5-6.07-17.84-9.43,9.37.45,10.99ZM328.49,656.99c3.54-.78.02-15.64-3.48-11.99-.34,1.95-.44,12.85,3.48,11.99ZM325.51,636.01c-3.3.88.66,8.14,3.48,7.99.08-2.38,1.02-9.2-3.48-7.99ZM243.44,214.94l-.43,10.05,23,3.51-22.96,3.55.08,9.82,32.86,7.13-.93-8.56c-5.86-.75-11.71-1.56-17.54-2.47-1.33-.21-4.24.98-3.53-1.45l22.01-2.51v-11.01c-6.18-.32-12.34-1.23-18.47-2.04-1.3-.17-4.26.99-3.54-1.44l21.07-2.94.93-8.57-32.55,6.94ZM243,352v9h18l-17.51,9.99-.49,9.01h33v-9h-18l17.51-9.99.49-9.01h-33ZM243,147v8h18l-17.84,10.16-.16,8.84h33v-8h-18c6.36-7.55,21.07-6.21,18-19h-33ZM243,482v8h18l-17.84,10.16-.16,8.84h33v-8h-18c6.01-7.61,21.05-6.26,18-19h-33ZM276,516v14.5c0,.36-1.73,5.18-2.13,5.87-5.62,9.88-22.16,9.79-28.08.34-.48-.77-2.79-5.87-2.79-6.21v-14.5h33ZM269,525h-19c-3.16,14.13,22.17,14.1,19,0ZM250.5,319c-1.44,0-6.52,5.19-7.05,6.95-1.79,5.84-.81,14.92,5.18,17.93,1.05.53,7.07,2.12,7.88,2.12h19.5v-9h-22.5c-4.95,0-5.9-10,1-10h21.5v-8h-25.5ZM243,181v22h7.01s-.01-13.01-.01-13.01h6.43s.57,12.01.57,12.01h6.01s-.01-12.01-.01-12.01h6.01s-.01,13.01-.01,13.01h7.01v-22.01h-33ZM243,255v8.01s13.01-.01,13.01-.01v12.01s6,0,6,0v-12.01s7,0,7,0v13.01s6.99,0,6.99,0v-21h-33ZM243,419v23h7.01c.94-.93-1.68-12.25,1.49-14h24.5v-9h-33ZM255.73,280.24c14.41-2.42,22.18,7.33,20.18,21.17-2.41,16.69-29.76,16.68-32.68.85-1.86-10.09,1.38-20.16,12.5-22.03ZM255.71,289.21c-7.93,1.81-7.97,13.74,0,15.57,18.1,4.15,18.12-19.71,0-15.57ZM255.71,304.79c18.1,4.15,18.12-19.71,0-15.57-7.93,1.81-7.97,13.74,0,15.57ZM250,525c-3.16,14.13,22.17,14.1,19,0h-19ZM275.9,456.1l-.04,9.76-32.86,10.14.04-8.95,5.37-.93.44-9.97-5.82-1.19-.04-8.95,32.89,10.1ZM268,461.99c-.58-2.1-11.55-4.45-11.99-3.99v5.99s11.99-2.01,11.99-2.01ZM256.01,458v5.99s11.99-2.01,11.99-2.01c-.58-2.1-11.55-4.45-11.99-3.99ZM276,387v14.5c0,3.55-5.53,10.51-9.27,11.73-19.18,6.24-26.16-9.96-23.73-26.23h33ZM269,395h-19c-3.06,15.15,22.06,15.15,19,0ZM250,395c-3.06,15.15,22.06,15.15,19,0h-19ZM306.01,646.48c1.7,2.28,4.62,1.45,6.99,1.51l-1.01-4.99c-1.13.2-6.84,1.67-5.98,3.48ZM333.34,269.16c-4.07-1.27-15.41-.94-12.93,5.89l10.58,4.45c-3.34,1.33-7.7.64-9.99,4.01-.55,2.63,7.21,3.47,8.99,4.5,2.39,2.56-7.39,2.4-8.55,3.93-4.72,6.21,11.02,3.54,12.42-.61s-3.27-6.75-2.87-7.32c3.04-.35,4.47-2.48,4.03-5.46l-4.03-4.54c3.66.8,5.89-3.74,2.33-4.85ZM318,345c1.97-5.38-2.11-12.13,3.04-16.46,6.77-5.7,13.78,3.32,11.96,10.47,2.36.1,5.3-.84,6.98,1.49.08,2-4.74,4.51-6.48,4.51h-15.5ZM322.66,332.15c-5.08,1.64,3.28,11.81,7.25,3.2-.42-3.34-4.57-4.07-7.25-3.2ZM323.72,371.16c-6.35,3.43-3.24,11.09-4.71,16.84,12.13,1.35,18.94-4.8,15.99-17h-2.99s-1.02,11-1.02,11l-3.25-9.72-4.02-1.12ZM324.99,353c-6.22,3.85-2.31,9.16,1.03,13.49.42,2.01-1.09,1.82-2.5,1.5-7.54-1.71-6.13-19.7,4.02-20.07s10.88,17.72-.53,16.64c-3.47-3.31-3.34-7.37-2.01-11.56ZM330.99,353c-3.92.19-4.17,4.24-2.98,7l3.89-1.11-.91-5.88ZM322.26,304.74c-.72,2.37,1.05,6.03-2.25,5.25v-7.48s-2-.51-2-.51c-1.81,4.42-3.73,9.08,1.01,12.47,2.71,1.94,18.58,4.25,15.54-1.5-1.21-2.29-8.18-2.78-9.27-6.47.82-4.51,6.16-3.41,9.71-3.51,1.11-9.52-11.07-3.77-12.74,1.75ZM319,398.99c2.56.14,8.3.64,9.54,2.99,2.05,3.88-3.58,5.22-.04,7.99,4.87-3.32,4.38-8.43,1.5-12.97l4.78-1.25.15-4.7c-5.59.67-16.65.27-15.94,7.93ZM326.59,413.01c-3.66,7.02,16.44,4.3,13.41,0-4.69-2.03-8.66-.28-13.41,0ZM310.57,266.12l.73,1.46,20-9.98-.73-1.46-20,9.98ZM329.91,335.35c-.42-3.34-4.57-4.07-7.25-3.2-5.08,1.64,3.28,11.81,7.25,3.2ZM328.01,360l3.89-1.11-.91-5.88c-3.92.19-4.17,4.24-2.98,7ZM362.37,643.12l-3.28-.02c-4.47,16.19,10.55,2.62,3.28.02ZM289.01,646v7.99c7.11-.32,7.36-7.82,0-7.99ZM238.59,652.92c2.44,1.62,4.92,1.04,6.95-.92,1.52-2.45-.9-5.47-1.69-7.84-5.83-2.34-9.65,5.54-5.26,8.76ZM149.48,703.02c4.61,3.39,5.6-.33,8.8.14,1.07.16,2.23,1.5,3.22,1.51,1.52.02,2.95-2.29,4.01-2.37.96-.07,1.79,1.11,2.41,1.26,3.6.92.72-4.79.51-6.51-.29-2.37,1.96-5.71-1.94-6.11-5.35-.56-2.47,7.28-6.48,9.06l-1.01-9h-5.01c-.64.63,1.34,7.62-1.49,8.98-2.33,0-1.33-9.14-1.5-10.98-7.77-1.59-6.05,10.68-1.52,14.02ZM452.85,685.14c1.43.86,2.98,20.02,2.14,20.86-5.21-1.65-10.81,1.56-15.51-1.99-7.68-5.79,1.62-16.37,9.51-12.01v-7s3.86.15,3.86.15ZM444.62,694.05c-7.69,5.52.19,14.1,4.42,4.45l-4.42-4.45ZM233,706c-5.91-1.42-17.85,2.38-17.85-7.5,0-6.69,7.53-8.1,12.84-7.51l-.99-5.99c2.96-1.08,5.99,1.81,5.99,4.5v16.5ZM222.62,694.05c-4.84.78-3.47,16.2,5.36,4.45l-5.36-4.45ZM117.99,689v2.99c.64.67,8.51-1.33,10,1.51-3.03.7-9.4,1.25-10.04,5.02-1.38,8.13,12.43,5.41,17.04,6.47.39-3.82-.71-10.79-3.31-13.68-3.16-3.52-9.42-2.07-13.69-2.31ZM399,700.01c1.61,3.44,6.73,2.72,9.3,1.03.53-.35,4.77-6.42,4.74-.54-.06,9.52-27.36,4.51-18.96-8.94,3-2.68,10.44-3.92,13.4-.54,6,6.85-1.95,10.1-8.47,8.98ZM403.93,692.07l-5.34.84c-2.63,4.42,3.68,4.32,6.42,3.08l-1.08-3.92ZM241,699.01c2.45,4.8,11.08,4.85,12.02-1l3.72,2.48c-3.18,8.45-19.84,5.64-20.74-3.07-1.15-11.28,19.2-11.33,16.56.64-3.75,2.57-7.47,2.16-11.56.97ZM243.7,692.16c-1.18.34-1.85,1.56-2.69,2.34,7.54,7.28,9.66-4.37,2.69-2.34ZM299,692.48c.51-4.02-6.78-10.88-11.33-7.52l-1.72,9.99c-2.29.03-5.24-.11-4.95,3.04,7.37.87,4.85,1.05,6.9,5.59,2.93,6.49,5.13-1.66,4.09-5.58,2.69-.21,6.02,1.03,7.98-1.5l-8.54-2.44-.43-7.06c3.58-.41,2.86,4.17,4.21,5.76.82.97,3.57,1.43,3.79-.29ZM360,692.48c.5-4.03-6.77-10.87-11.33-7.52l-1.72,9.99c-2.29.03-5.24-.11-4.95,3.04,7.37.87,4.85,1.05,6.9,5.59,2.93,6.49,5.13-1.66,4.09-5.58,2.69-.21,6.02,1.03,7.98-1.5l-8.54-2.44-.43-7.06c3.72-.44,3.15,4.29,4.22,5.75.73,1,3.57,1.42,3.78-.27ZM307.66,696.84c-.27-.89-1.25-12.55-5.18-6.87-2.55,3.68,1.66,13.29,7.11,14,5.04.66,6.46-2.96,6.91-2.96.38,0,3.69,4.59,6.5,2.98l-4.45-12.04-5.51-.91c.45,4.2-2.94,13.89-5.38,5.8ZM194.95,688.44c-2.34,1.73-.32,18.97,5.11,15.12,1.18-.84,2.94-10.75,5.43-9.56l3.44,9.4,3.12.14c2.56-9.19-3.91-16.62-13.03-10.55l-1.03-5-3.04.44ZM431.02,691.49c-2.19-1.31-7.91-.93-9.52,1.5-6.54-12.73-6.38,3.8-4.29,9.79l4.74,1.2c0-1.54,3.82-12.01,6.04-9.97-.16,2.23,2.19,12.56,6,9.99,1.55-1.04-1.17-11.43-2.97-12.51ZM174.29,701.72c-6.91-8.48,8.33-19.18,14.91-8.43,7.88,12.88-9.81,14.69-14.91,8.43ZM184.76,693.26c-2.67-2.03-5.33-.58-7.29,1.75-1.67,6.27,3.03,8.71,8.41,5.87l-1.12-7.62ZM363,689c.78,4.02,1.04,16.55,6.49,16.07,4.32-.5,1.24-7.18,4.19-9.14,3.52-2.34,4.86,1.22,8.32,1.06-.09-6.94-8.68-5.11-12.99-2.99l-1.15-4.87-4.86-.13ZM259,689c-.19,3.27,2.27,19.71,7.92,15.91,1.16-2.47.87-8.91,3.75-9.82l7.33,1.9c-1.74-7.2-7.83-5.13-12.99-2.99l-1.15-4.87-4.87-.13ZM326,702.5c0,1.12,4.58,4.57,5.03.02-2.01-3.07.35-16.88-2.55-17.51l-2.48,1.49v16ZM386.01,693c-1.52,3.98-1.94,12.51,3.98,11.99-.38-4.15,1.98-11.36-3.98-11.99ZM385.01,685c-.37,3.2,1.24,8.6,5.01,6.48l-1.13-6.37-3.88-.12ZM449.03,698.5l-4.42-4.45c-7.69,5.52.19,14.1,4.42,4.45ZM227.98,698.5l-5.36-4.45c-4.84.78-3.47,16.2,5.36,4.45ZM398.59,692.91c-2.63,4.42,3.68,4.32,6.42,3.08l-1.08-3.92-5.34.84ZM241.02,694.5c7.54,7.28,9.66-4.37,2.69-2.34-1.18.34-1.85,1.56-2.69,2.34ZM177.46,695.01c-1.67,6.27,3.03,8.71,8.41,5.87l-1.12-7.62c-2.67-2.03-5.33-.58-7.29,1.75ZM251.95,607.55c1.25.39,11.54.36,12.07,0,2.23-1.47-1.1-11.25-2.98-13.09-2.57-2.51-13.4-3.97-14.03-.95.58,4.02,4.21,1.56,7.2,1.71,1.31.07,4.63.41,3.78,2.77-7.66-3.44-15.08,6.75-6.04,9.55ZM327.46,598.96c-4.88,7.23-6.99-.63-6.93-5.98-3.44-3.18-4.85,1.09-4.53,4.43.46,4.7,7.23,10.02,11.99,7.59-.34,4.71-4.88,3.27-7.99,3.01,12.13,9.8,15.7-4.49,14-15.01-5.62-1.04-4.4,2.8-6.54,5.96ZM288.11,589.58l2.37,17.44,4.51.99v-6.5c5.21-2.43,4.07,7.72,10,6.49.74-3.21-2.04-5.67-2.1-8.54-.04-1.9,3.27-1.34,2.1-4.45l-10.99,1.99-1.09-8.9-4.8,1.48ZM267,592c-.83.8.57,17.04,6.02,15.54l5.48-10.52c1.41-.02,3.56,15.25,7.03,10.01,1.17-2.7-.73-10.52-2.95-12.1-4.57-3.26-9.95,1.69-10.57,1.08.2-3.75-1.5-4.44-5.01-4.01ZM228.16,589.66c-.74,2.38-.02,15.48,1.3,17.38l4.53.96c.24-4-1.32-8.43,2.5-10.98,3.5,1.32,2.76,12.89,6.99,11.97,3.14-.68.24-9.05-1.02-10.96-4.01-6.09-9.06-2.66-9.46-3.03-.37-.33-2.51-12.85-4.85-5.35ZM359.16,593.15c-3.76,8.27,6.64,20.61,13.34,10.87,2.01,2.74,4.12,3.44,7.5,2.97-3.55-1.72-4.75-12.27-6.6-12.91-6.14-2.12-3.46,7.39-6.9,9.9-2.77-2.88-3.64-7.13-3.51-10.98l-3.83.15ZM354.69,605.71c-8.61,10.1-27.97-7.91-11.53-13.05,8.75-2.74,15.55,8.33,11.53,13.05ZM348.76,596.23c-5.48-2.46-10.39,3.56-5.77,8.28,2.01,1.21,6.46.77,7.57-1.52l-1.79-6.76ZM224.32,590.18c-5.42-2.67-17.24-1.02-23.31-.18l1.67,2.82,8.33.17,2.01,15,3.88-1.58-.9-13.43c1.86.66,13.79-.12,8.32-2.81ZM342.99,604.51c2.01,1.21,6.46.77,7.57-1.52l-1.79-6.76c-5.48-2.46-10.39,3.56-5.77,8.28ZM332,753c8.27-.58,24.2,2.3,12,11.5,13.48,10.34-.65,15.64-12,13.5v-25ZM336,757c-2.2,13.49,12.55,4.21,7.05.45l-7.05-.45ZM336,767l.94,7.56c5.22,2.05,10.77-1.59,6.65-6.65l-7.59-.91ZM255,778h4c.89-.84-2.85-19.79,6.85-12.35l.16,12.35h4v-14.5c0-3.41-8.91-4-10.99-.5v-10s-4.01,0-4.01,0v25ZM308,771h-13c-1.01.91,2.48,4.49,3.72,4.84,3.83,1.1,8.29-3.7,7.28,2.15-5,1.01-11.08,1.76-13.87-3.62-7.31-14.1,16.38-21,15.87-3.38ZM302.73,764.27c-2.9-2.72-8.16-.54-7.73,3.72h8.99c.46-.43-.67-3.16-1.26-3.72ZM328,770.99h-12.99c-.53.5.78,3.51,1.67,4.07,3.33,2.13,8.15-1.26,9.31,1.45,1.02,2.37-6.87,2.33-8.03,2.1-9.52-1.93-9.81-17.74.67-18.29,6.66-.35,9.22,4.77,9.36,10.67ZM322.73,764.27c-2.9-2.72-8.16-.54-7.73,3.72h8.99c.46-.43-.67-3.16-1.26-3.72ZM231,753v4s7,0,7,0v21h4v-19.5l1.65-1.34,6.35-.16v-4h-19ZM275,778h5.01c-.22-8.04-1.65-13.44,8.03-14.52l-.05-3.48-8.5,4-.59-2.88-3.91-.11v17ZM336.93,774.56c5.22,2.05,10.77-1.59,6.65-6.65l-7.59-.91.94,7.56ZM343.05,757.45l-7.05-.45c-2.2,13.49,12.55,4.21,7.05.45ZM295,767.99h8.99c.46-.43-.67-3.16-1.26-3.72-2.9-2.72-8.16-.54-7.73,3.72ZM315,767.99h8.99c.46-.43-.67-3.16-1.26-3.72-2.9-2.72-8.16-.54-7.73,3.72Z"/>
</svg>