<?xml version="1.0" encoding="UTF-8"?>
<svg id="_レイヤー_1" data-name="レイヤー 1" xmlns="http://www.w3.org/2000/svg" width="170.8mm" height="296.81mm" viewBox="0 0 484.16 841.36">
  <path d="M297.18,63.75c12.14,2.45,21.45,10.11,34.39,9.89,11.71-.2,23.33-6.06,34,4.22,4.64,4.47,4.79,11.2,7.47,14.53,2.1,2.61,14.27,8.18,18.53,12.47,27.7,27.87,47.23,59.05,54.24,98.76,5.27,29.85,11.57,61.96-9.2,87.25-1.37,1.67-4.28,2.81-4.86,4.21-2.24,5.37-.2,13.69-4.13,21.8-3.42,7.07-9.95,10.62-14.35,16.26,5.7,15.94,9.22,34.2,9.86,51.15.42,11.15-3.12,23.77,1.41,33.59,14.46,31.31,35.91,67.25,27.89,103.81-.84,3.83-4.08,10.02-4.34,12.75-.79,8.46,2.43,22.59,2.03,32.95-.62,16.19-5.21,20.25,1.47,36.44,6.11,14.81,16.81,27.94,23.34,42.66,10.79,24.29,13.21,55.67,1.32,80.03-2.83,5.79-9.65,12.18-11.63,16.37-4.49,9.51-3.46,17.98-11.32,28.68-4.67,6.36-14.88,11.74-16.94,14.56-.94,1.28-1.98,6.34-3.49,9.02-7.6,13.55-23.8,19.62-38.43,21.57-5.36.71-20.34.13-23.71,1.29-1.54.53-2.2,3.18-3.62,4.38-12.33,10.44-29.28,17.44-45.5,18.5-28.19,1.85-59.91-3.15-76.57-28.04h-1.96c-10.18,16.04-32.74,26.44-51.53,27.98-27.54,2.26-53.56-2.33-73.41-22.55-25.29-1.33-48.79-.81-63.26-24.74-.94-1.56-1.63-5.03-2.05-5.45-.51-.51-3.4-.83-4.81-1.68-12.35-7.41-20.09-16.32-24.97-30.04-1.42-4.01-2.14-10.51-3.53-13.47-2.03-4.31-8.73-10.37-11.64-16.36-11.86-24.43-9.48-55.7,1.33-80.04,6.53-14.71,17.23-27.84,23.34-42.66,6.67-16.16,2.12-20.27,1.47-36.44-.41-10.36,2.81-24.63,2.03-32.95-.26-2.73-3.5-8.92-4.34-12.75-8.03-36.55,13.42-72.49,27.89-103.81,4.57-9.89.91-23.26,1.42-34.58.55-12.23,3-27.87,6.33-39.67.98-3.47,5.63-13.59,5.73-15.38.11-2.02-7.42-9.82-9.07-14.86-1.82-5.56-1.06-13.41-2.7-17.3-1.06-2.49-4.6-4.53-6.22-6.78-18.02-24.95-13.74-50.29-8.9-78.85,3.74-22.08,10.95-43.68,21.7-63.3,3.39-6.18,11.19-15.52,13.4-20.6,1.35-3.09,1.45-7.68,2.73-11.27,2.34-6.53,8.85-12.65,14.73-16.27,3.56-2.19,16.1-6.41,17.32-7.68,1.15-1.19,2.51-7.59,4.55-10.45,6.21-8.71,16.05-9.63,25.92-9.05,3.45.2,7.16,1.75,10.74,1.7,9.89-.14,21.11-5.69,30.79-7.73-12.13-85.99,116.26-88.85,109.09-2.09ZM291.21,67.73c3.64-20.46-3.44-42.68-21.22-54.29-40.08-26.17-88.5,11.52-75.91,56.41-13.42,3.05-26.35,9.9-40.49,8.99-3.79-.25-8.31-2.06-12.01-2.06-11.04.01-20.31,7.41-19.64,18.93-10.66,3.3-30.03,10.24-33.18,22.33-.9,3.45-.12,6.98-1.22,9.78-1.19,3.03-9.96,13.75-12.63,18.37-15.84,27.3-19.57,46.41-23.95,77.05-3.14,22.01-7.88,36.18,4.95,57.29,2.58,4.25,9.72,10.42,10.71,13.29,2.35,6.82.48,14.43,4.25,21.75,1.63,3.18,9.03,8.93,9.01,10.6-7.21,16.37-11.81,34.21-12.84,52.15-.69,11.93,2.89,31.42-1.78,41.22-15.72,33.05-36.62,66.62-26.9,105.53.63,2.53,3.22,6.36,3.41,8.42.34,3.63-1.64,9.92-1.74,13.83-.21,8.17-.51,18.03,0,26.08.29,4.63,3.27,15.52,2.83,18.74-1.73,12.73-16.09,32.98-22.31,44.7-17.45,32.82-22.79,66.37-.46,98.5,6.35,9.13,4.51,9.23,7.94,19.06,2.83,8.1,8.77,17.13,15.56,22.44,3.52,2.74,11.64,5.69,13.45,7.55,1.3,1.34,3.07,6.91,4.61,9.39,11.92,19.26,40.01,17.55,59.76,19.24,29.75,33.56,99.83,31.37,121.68-10.15l2.05.61c22.48,40.71,93.14,43.07,122.59,9.54,20.13-1.72,46.33.1,59.18-18.82,2.21-3.26,3.84-10.16,5.69-12.31,1.36-1.57,5.76-3.17,7.95-5.05,6.8-5.84,12.22-13.22,15.3-21.7,3.59-9.89,1.74-10.5,8.2-19.8,22.65-32.58,16.55-66.85-.8-100.16-5.99-11.5-20.29-30.61-21.97-43.04-.44-3.22,2.54-14.11,2.83-18.74.51-8.05.21-17.91,0-26.08-.1-3.9-2.08-10.2-1.74-13.83.19-2.05,2.78-5.89,3.41-8.42,9.71-38.86-11.19-72.51-26.9-105.53-4.66-9.81-1.09-29.3-1.78-41.22-.58-10.12-2.73-21.85-5.33-31.67-.86-3.26-5.75-14.8-5.72-16.33.04-2.38,5.74-4.1,8.03-5.93,4.77-3.82,9.71-10.12,10.74-16.26.8-4.81-.16-11.95,2.26-16.49.47-.89,5-3.98,6.49-5.76,8.86-10.51,13.65-30.88,12.37-44.39-3.1-32.87-11.27-66.52-27.71-95.29-8.59-15.04-27.84-36.46-42.25-45.75-2-1.29-6.86-2.96-7.91-4.09-3.74-4-.32-12.96-11.47-17.53-9.41-3.86-14.23-.21-23,.08-13.54.44-18.12-3.26-29.58-7.5-4.07-1.51-8.73-2.18-12.83-3.67ZM264.63,48.07c0,12.45-10.09,22.54-22.54,22.54s-22.54-10.09-22.54-22.54,10.09-22.54,22.54-22.54,22.54,10.09,22.54,22.54ZM259.11,48.06c0-9.4-7.62-17.01-17.01-17.01s-17.01,7.62-17.01,17.01,7.62,17.01,17.01,17.01,17.01-7.62,17.01-17.01Z"/>
</svg>