<?xml version="1.0" encoding="UTF-8"?>
<svg id="_レイヤー_1" data-name="レイヤー 1" xmlns="http://www.w3.org/2000/svg" width="201.45mm" height="296.95mm" viewBox="0 0 571.05 841.74">
  <path d="M343.52,65.41c3.64-2.8,6.75-6.34,10.68-8.82,9.63-6.1,52.01-18.39,63.78-19.22,32.06-2.26,46.86,17.58,67.51,37.56,3.57,3.45,8.88,9.89,12.69,12.31,9.64,6.12,28.61,8.41,40.3,13.7,49.84,22.53,34.44,78.46,7,112.94-2.42,3.04-8.22,7.15-9.43,10.57s-1.08,8.65-2.26,12.74c-1.57,5.45-10.1,23.29-10.26,25.78-.27,4.25,5.27,19.3,5.85,26.06s.3,14.35-1.82,20.92c-1.02,3.16-4.48,7.7-4.89,10.2-.18,1.08-.36,20.17-.2,21.76.41,4.07,4.81,10.82,6.29,15.73,5.73,18.99,2.42,39.85-7.84,56.68-2.32,3.81-7.5,8.59-8.85,11.15-2.5,4.75-3.61,11.51-6.77,17.23-11.35,20.57-33.61,38.8-56.81,43.71,1.54,5.43,3.29,10.96,3.87,16.62,2.3,22.42,7.83,46.78,15.86,68.14,7.79,20.74,26.55,33.74,26.17,57.62-.06,3.79-2.5,9.9-2.43,13.13.02.85,2.5,15.97,2.73,16.79.29,1,7.72,10.24,9.22,12.78,15.15,25.53,22.21,64.22,5.77,90.61-2,3.21-9.07,9.88-9.68,11.32-1.18,2.77-1.07,8.96-2.22,12.78-5.37,17.95-20.79,28.22-37.87,33.13-3.94,1.13-9.45,1.2-12.68,2.32-2.25.78-7.62,5.61-10.73,7.27-26.5,14.17-70.89,18.8-96.94,1.9-3.38-2.2-6.22-6.03-8.56-7.44-8.6-5.19-53.48-6.54-65.07-6.02-8.96.4-31.16,2.19-38.94,5.06-3.15,1.16-8.24,7-12.5,9.5-28.64,16.81-75.49,10.55-102.35-7.69-2.08-1.41-4.09-4.49-5.72-5.28-3.6-1.74-12.32-2.6-17.47-4.53-13.17-4.93-26.98-14.86-30.98-29.02-1.04-3.68-1.02-9.75-2.01-11.99-.64-1.44-4.16-3.8-5.46-5.54-22.3-29.73-14.18-69.58,3.56-99.39,5.03-8.46,5.39-5.98,7.69-16.31,2.91-13.07-.19-17.17.68-29.32,1.46-20.3,15.67-28.74,22.9-45.1,6.48-14.65,9.44-30.36,13.22-45.78,2.92-11.92,3.58-15.59,5.05-27.95.72-6.1,2.72-11.98,3.79-18-4.22-2.71-9.08-3.98-13.59-6.46-14.49-7.95-28.12-22.57-35.85-37.15-4.93-9.3-7.12-14.1-12.89-23.11-8.13-12.7-13.54-29.22-12.63-44.45.52-8.6,6.15-20.45,6.07-26.91-.2-15.2-4.44-27.39-7.78-41.3-2.8-11.64.59-28.85,4.24-40.26,1.33-4.16,7.57-15.79,7.47-18.39-.1-2.76-3.69-9.74-4.68-13.39-1.19-4.37-1.7-11.68-3.04-14.96-.97-2.38-10.17-11.07-12.67-14.33-26.95-35.18-36.1-88.71,12.45-109.39,21.03-8.95,31.22-5.09,48.99-23.01,14.63-14.75,34.4-37.64,56.44-39.56,18.13-1.58,28.3,4.08,44.69,8.38,7.56,1.98,15.44,2.05,23.12,4.88,7.82,2.89,13.15,8.02,19.72,12.77-1.43-50.21,58.38-78.19,96.53-45.02,7.77,6.75,19.48,25.21,19.48,35.52v15.5ZM442.71,481.6c28.33-3.76,49.26-24.51,61.29-49.2,1.29-2.64,1.31-5.69,2.66-8.34,2.61-5.17,8.9-10.58,12.03-16.97,8.75-17.86,9.67-35.44,2.59-53.94-1.35-3.53-4.6-6.72-4.83-10.26-.19-2.78,1.06-5.24,1.11-7.94.22-12.48-.76-12.75,3.74-24.26,2.84-7.28,2.81-15.9,2.09-23.65-.6-6.5-6.28-21.07-5.87-25.04.16-1.56,6.01-12.43,7.27-15.81,2.7-7.27,3.98-19.67,6.26-24.74,1.65-3.68,11.57-12.65,14.89-17.11,19.91-26.79,32.21-72.98-1.72-94.11-12.82-7.98-27.66-9.41-41.22-14.78s-17.78-14.36-27.95-24.05c-19.11-18.2-33.44-32.07-61.75-27.7-12.43,1.92-49.91,12.83-59.11,19.89-3.81,2.93-12.02,13.31-17.03,11.74-3.14-.98.21-8.28.4-11.38,4.54-74.71-98.52-74.83-104.02-13.02-.43,4.8,2.69,20.59-5.01,16.98-5.22-4.49-11.26-10.49-17.33-13.68-9.36-4.93-19.6-4.95-29.51-7.49-20.2-5.19-33.78-13.66-55.05-3.7-23.15,10.85-38.49,40.86-60.17,48.83-10.88,4-22.56,5.51-33.32,10.68-39.24,18.87-30.99,63.88-10.45,94.17,3.69,5.44,15.63,16.8,17.26,20.74,3.28,7.95,3.1,22.15,8.54,30.53-6.91,16.12-14.99,35.87-12.88,53.82.62,5.33,3.49,9,4.63,13.37,1.29,4.91,4.16,27.53,4.29,32.79.15,5.69-5.35,16.5-6.02,23.97-1.28,14.24,2.21,30.01,9.79,42.18,2.23,3.57,6.29,6.95,8.05,9.95,2.84,4.84,4.75,12.36,7.97,18.03,9.42,16.57,23.02,28.92,40.49,36.51,2.84,1.23,9.46,1.34,9.64,5.27.12,2.64-4.35,13.32-4.83,18.17-1.51,15.22-2.4,18.56-6.05,32.95-4.05,15.98-7.01,33.44-14.55,48.45-7.39,14.72-20.87,23.35-21.58,42.45-.22,5.95,2.67,11.61,2.58,16.03-.05,2.26-1.98,6.25-2.43,9.1-.49,3.1.51,6.89-.31,9.69-.21.72-7.63,9.22-9.21,11.79-15.78,25.48-23.31,65.42-4,90.84,1.98,2.61,6.56,5.74,7.66,8.34,1.37,3.23.32,6.07.86,9.14,2.35,13.26,14.91,23.29,26.91,28.09,5.94,2.37,13.46,2.62,18.25,4.75,4.05,1.8,9.64,7.85,14.43,10.57,23.77,13.49,65.51,16.9,89.6,3,4.89-2.82,7.45-6.83,10.77-9.23,2.21-1.6,20.41-4.14,24.44-4.56,15.96-1.63,74.99-2.73,86.99,4.98,2.27,1.46,4.5,4.88,7.17,6.83,23.07,16.8,68.8,12.41,92.63-1.02,3.37-1.9,6.93-5.49,10-7,5.32-2.63,14.45-2.66,20.97-5.03,12.9-4.69,25.75-16.62,28.49-30.51.62-3.14-.28-6.04.78-9.22s5.88-6.39,7.87-9.13c17.89-24.56,13.02-58.94-.23-84.6-2.23-4.31-12.52-17-12.97-19.03-.69-3.09.12-6.53-.29-9.71-1.31-10.21-.7-9.36.06-19.09,1.78-22.7-12.75-30.3-21.15-46.81-7.93-15.57-11.83-36.98-16.11-53.89-3.24-12.79-3.53-14.86-4.73-28.27-.34-3.86-5.57-19.1-3.79-20.33ZM308.88,56.36c0,12.9-10.46,23.36-23.36,23.36s-23.36-10.46-23.36-23.36,10.46-23.36,23.36-23.36,23.36,10.46,23.36,23.36ZM303.43,56.35c0-9.89-8.02-17.91-17.91-17.91s-17.91,8.02-17.91,17.91,8.02,17.91,17.91,17.91,17.91-8.02,17.91-17.91Z"/>
</svg>