<?xml version="1.0" encoding="UTF-8"?>
<svg id="_レイヤー_1" data-name="レイヤー 1" xmlns="http://www.w3.org/2000/svg" width="204.61mm" height="305.86mm" viewBox="0 0 580 867">
  <path d="M348,80c3.64-2.8,6.75-6.34,10.68-8.82,9.63-6.1,52.01-18.39,63.78-19.22,32.06-2.26,46.86,17.58,67.51,37.56,3.57,3.45,8.88,9.89,12.69,12.31,9.64,6.12,28.61,8.41,40.3,13.7,49.84,22.53,34.44,78.46,7,112.94-2.42,3.04-8.22,7.15-9.43,10.57s-1.08,8.65-2.26,12.74c-1.57,5.45-10.1,23.29-10.26,25.78-.27,4.25,5.27,19.3,5.85,26.06s.3,14.35-1.82,20.92c-1.02,3.16-4.48,7.7-4.89,10.2-.18,1.08-.36,20.17-.2,21.76.41,4.07,4.81,10.82,6.29,15.73,5.73,18.99,2.42,39.85-7.84,56.68-2.32,3.81-7.5,8.59-8.85,11.15-2.5,4.75-3.61,11.51-6.77,17.23-11.35,20.57-33.61,38.8-56.81,43.71,1.54,5.43,3.29,10.96,3.87,16.62,2.3,22.42,7.83,46.78,15.86,68.14,7.79,20.74,26.55,33.74,26.17,57.62-.06,3.79-2.5,9.9-2.43,13.13.02.85,2.5,15.97,2.73,16.79.29,1,7.72,10.24,9.22,12.78,15.15,25.53,22.21,64.22,5.77,90.61-2,3.21-9.07,9.88-9.68,11.32-1.18,2.77-1.07,8.96-2.22,12.78-5.37,17.95-20.79,28.22-37.87,33.13-3.94,1.13-9.45,1.2-12.68,2.32-2.25.78-7.62,5.61-10.73,7.27-26.5,14.17-70.89,18.8-96.94,1.9-3.38-2.2-6.22-6.03-8.56-7.44-8.6-5.19-53.48-6.54-65.07-6.02-8.96.4-31.16,2.19-38.94,5.06-3.15,1.16-8.24,7-12.5,9.5-28.64,16.81-75.49,10.55-102.35-7.69-2.08-1.41-4.09-4.49-5.72-5.28-3.6-1.74-12.32-2.6-17.47-4.53-13.17-4.93-26.98-14.86-30.98-29.02-1.04-3.68-1.02-9.75-2.01-11.99-.64-1.44-4.16-3.8-5.46-5.54-22.3-29.73-14.18-69.58,3.56-99.39,5.03-8.46,5.39-5.98,7.69-16.31,2.91-13.07-.19-17.17.68-29.32,1.46-20.3,15.67-28.74,22.9-45.1,6.48-14.65,9.44-30.36,13.22-45.78,2.92-11.92,3.58-15.59,5.05-27.95.72-6.1,2.72-11.98,3.79-18-4.22-2.71-9.08-3.98-13.59-6.46-14.49-7.95-28.12-22.57-35.85-37.15-4.93-9.3-7.12-14.1-12.89-23.11-8.13-12.7-13.54-29.22-12.63-44.45.52-8.6,6.15-20.45,6.07-26.91-.2-15.2-4.44-27.39-7.78-41.3-2.8-11.64.59-28.85,4.24-40.26,1.33-4.16,7.57-15.79,7.47-18.39-.1-2.76-3.69-9.74-4.68-13.39-1.19-4.37-1.7-11.68-3.04-14.96-.97-2.38-10.17-11.07-12.67-14.33C-.37,184.74-9.52,131.21,39.03,110.53c21.03-8.95,31.22-5.09,48.99-23.01,14.63-14.75,34.4-37.64,56.44-39.56,18.13-1.58,28.3,4.08,44.69,8.38,7.56,1.98,15.44,2.05,23.12,4.88,7.82,2.89,13.15,8.02,19.72,12.77-1.43-50.21,58.38-78.19,96.53-45.02,7.77,6.75,19.48,25.21,19.48,35.52v15.5ZM447.19,496.19c28.33-3.76,49.26-24.51,61.29-49.2,1.29-2.64,1.31-5.69,2.66-8.34,2.61-5.17,8.9-10.58,12.03-16.97,8.75-17.86,9.67-35.44,2.59-53.94-1.35-3.53-4.6-6.72-4.83-10.26-.19-2.78,1.06-5.24,1.11-7.94.22-12.48-.76-12.75,3.74-24.26,2.84-7.28,2.81-15.9,2.09-23.65-.6-6.5-6.28-21.07-5.87-25.04.16-1.56,6.01-12.43,7.27-15.81,2.7-7.27,3.98-19.67,6.26-24.74,1.65-3.68,11.57-12.65,14.89-17.11,19.91-26.79,32.21-72.98-1.72-94.11-12.82-7.98-27.66-9.41-41.22-14.78s-17.78-14.36-27.95-24.05c-19.11-18.2-33.44-32.07-61.75-27.7-12.43,1.92-49.91,12.83-59.11,19.89-3.81,2.93-12.02,13.31-17.03,11.74-3.14-.98.21-8.28.4-11.38,4.54-74.71-98.52-74.83-104.02-13.02-.43,4.8,2.69,20.59-5.01,16.98-5.22-4.49-11.26-10.49-17.33-13.68-9.36-4.93-19.6-4.95-29.51-7.49-20.2-5.19-33.78-13.66-55.05-3.7-23.15,10.85-38.49,40.86-60.17,48.83-10.88,4-22.56,5.51-33.32,10.68-39.24,18.87-30.99,63.88-10.45,94.17,3.69,5.44,15.63,16.8,17.26,20.74,3.28,7.95,3.1,22.15,8.54,30.53-6.91,16.12-14.99,35.87-12.88,53.82.62,5.33,3.49,9,4.63,13.37,1.29,4.91,4.16,27.53,4.29,32.79.15,5.69-5.35,16.5-6.02,23.97-1.28,14.24,2.21,30.01,9.79,42.18,2.23,3.57,6.29,6.95,8.05,9.95,2.84,4.84,4.75,12.36,7.97,18.03,9.42,16.57,23.02,28.92,40.49,36.51,2.84,1.23,9.46,1.34,9.64,5.27.12,2.64-4.35,13.32-4.83,18.17-1.51,15.22-2.4,18.56-6.05,32.95-4.05,15.98-7.01,33.44-14.55,48.45-7.39,14.72-20.87,23.35-21.58,42.45-.22,5.95,2.67,11.61,2.58,16.03-.05,2.26-1.98,6.25-2.43,9.1-.49,3.1.51,6.89-.31,9.69-.21.72-7.63,9.22-9.21,11.79-15.78,25.48-23.31,65.42-4,90.84,1.98,2.61,6.56,5.74,7.66,8.34,1.37,3.23.32,6.07.86,9.14,2.35,13.26,14.91,23.29,26.91,28.09,5.94,2.37,13.46,2.62,18.25,4.75,4.05,1.8,9.64,7.85,14.43,10.57,23.77,13.49,65.51,16.9,89.6,3,4.89-2.82,7.45-6.83,10.77-9.23,2.21-1.6,20.41-4.14,24.44-4.56,15.96-1.63,74.99-2.73,86.99,4.98,2.27,1.46,4.5,4.88,7.17,6.83,23.07,16.8,68.8,12.41,92.63-1.02,3.37-1.9,6.93-5.49,10-7,5.32-2.63,14.45-2.66,20.97-5.03,12.9-4.69,25.75-16.62,28.49-30.51.62-3.14-.28-6.04.78-9.22s5.88-6.39,7.87-9.13c17.89-24.56,13.02-58.94-.23-84.6-2.23-4.31-12.52-17-12.97-19.03-.69-3.09.12-6.53-.29-9.71-1.31-10.21-.7-9.36.06-19.09,1.78-22.7-12.75-30.3-21.15-46.81-7.93-15.57-11.83-36.98-16.11-53.89-3.24-12.79-3.53-14.86-4.73-28.27-.34-3.86-5.57-19.1-3.79-20.33ZM313.36,70.95c0,12.9-10.46,23.36-23.36,23.36s-23.36-10.46-23.36-23.36,10.46-23.36,23.36-23.36,23.36,10.46,23.36,23.36ZM307.91,70.93c0-9.89-8.02-17.91-17.91-17.91s-17.91,8.02-17.91,17.91,8.02,17.91,17.91,17.91,17.91-8.02,17.91-17.91ZM212.07,223.63c-.1,2.64.75,9.37,3.62,10.21,6.12,1.79,3.83-8.15,7.81-10.84,1.82,3.43.68,11.79,6.48,9.36.1-3.15.89-6.36,3.51-8.35,2.25-.04.51,10.39,5.01,9.72,4.73-.71.48-12.68-2.17-13.58-4.03-1.37-6.53,1.96-7.7,1.75-1.38-.24-2.03-3.53-6.08-2.94-2.56.37-2.96,3.28-5.55,3.04-.24-6.56-4.75-3.55-4.94,1.63ZM292,236c-5.1-1.7-12.64,1.82-16.72-2.28-6.75-6.79,3.07-16,10.71-12.72v-7s3.87.15,3.87.15c.05,1.44,2.14,4.68,2.14,5.36v16.5ZM285.81,228.42c0-2.28-1.85-4.12-4.12-4.12s-4.12,1.85-4.12,4.12,1.85,4.12,4.12,4.12,4.12-1.85,4.12-4.12ZM310.74,220.25c4.22,4.58,1.63,9.14-4.37,9.72-.83.08-8.21-1.97-5.37,1.01.68.71,6.07,1.27,7.46,1.01,3.15-.58,3.84-4.81,7.53-3.99,1.82,9.88-13.67,8.93-18.38,3.88-9.37-10.03,7.51-17.74,13.13-11.64ZM304.67,221.1l-4.65,3.4,7.01,1.03c1.76-.99-.74-4.74-2.37-4.43ZM251.5,228.98c-3.65-2.58-3.26-6.08-3.98-10-3.27-4.91-7.44,4.69-1.17,10.67,2.79,2.66,6.01,2.58,9.65,2.36-1.69,3.85-5.68,3.65-8.99,1.99-1.74,2.1,5.24,4.15,7.47,4.07,9.87-.36,7.33-12.42,7.52-19.08-6.55-1.2-5.65,7.17-10.5,9.99ZM318.87,497.88c-4.24,2.19-7.37,1.85-11.87,1.62,2.78,3.09,7.71,3.45,11,.99,2.58-1.92,1.05-5.21,5.07-1.85,1.82,7.71-15.71,9.15-19.96,1.75-7.54-13.11,18.14-18.14,15.76-2.52ZM314,496c.77-6.16-3.4-6.13-7-2.48-.68,2.97,5.23,2.69,7,2.48ZM289.13,489.86c.32.51,8.72,1.78,10.37,5.13,4.01,8.16-8.69,12.68-14.6,9.38-1.77-6.52-3.11-13.69-.81-20.27l3.98.33,1.06,5.43ZM289.01,502c7.3-.14,7.88-8.67,0-8v8ZM372.82,505.83c-5.15,2.96-11.59,3.38-15.82-1.34,3.97-1.56,8.23,2.78,10.99-2-14.17,1.66-14.55-17.25-1.7-15.31,7.24,1.09,6.34,12.98,6.52,18.65ZM364.65,490.09c-3.92,2.38-5.39,6.16-1.02,8.85,4.73-1.36,6.49-7.3,1.02-8.85ZM336.99,235c-4.57-1.39-17.15,2.1-17.09-5.5.05-6.24,6.98-5.35,11.09-5.99-3.12-3.77-11.5,1.43-11.99-4.49,12.54-4.24,19.4,3.77,17.99,15.98ZM325.64,227.12c-5.43,1.65,3.7,6.86,6.34,2.38-1.57-2.14-3.68-3.19-6.34-2.38ZM338.03,487.43c-6.33-1.4-3.91,8.92-2.77,12.81.94,3.2,2.1,4.36,5.66,3.67.81-2.57,2.16-9.7,4.59-10.91,1.83-.91,1.5,1.41,1.75,2.21.6,1.86,2.5,13.1,6.28,7.81,1.18-1.65-1.31-10.86-2.95-12.12-4.23-3.23-10.99,1.74-11.59,1.09l-.98-4.57ZM224.49,492.99c2.11-1.53,1.38-1.8.74-3.71-1.7-5.06-6.5-8.03-11.31-4.64l-.91,10.36h-6c-.6,4.51,5.74,2.61,6.52,3.93.85,1.45.23,6.49,2.99,7.06,3.69.77,2.22-6.32,1.49-7.99l9-1.02c.81-4.38-8.45-2.45-9.01-2.98l.02-8,6.48,6.99ZM245.73,490.27c.4.41,2.63,5,2.82,5.7,2.9,11.08-14.92,11.98-18.81,2.73-3.57-8.47,10.65-13.91,16-8.44ZM241.88,492.12c-13.61-1.93-7.21,16.09,2.02,7.22l-2.02-7.22ZM252,488c.09,3.89,1.19,18.84,7.39,16.94,2.7-.83.82-10.59,6.12-10.57.87,0,7.56,4.69,6.49.15-.93-3.96-11.06-3.29-13.99-1.51l-1.15-4.87-4.87-.14ZM341.68,228.83c1.38,4.85,1.09,6.41,7.32,6.18-.87-5.92,2.48-13.49,8.66-8.13l2.34-2.37c-4.36-4.54-9-3.38-13.99-.51l-1.1-5.91c-7.33-1.57-4.45,6.47-3.24,10.73ZM363.21,226.29c.74,2.07,1.93,1.84,3.78,1.71,3.25-19.35-9.23-17.06-3.78-1.71ZM330.84,494.66l-.78-1.22-3.04-.44c-3.08,11.35,7.48,19.09,3.82,1.66ZM392.99,216c-1.5.23-1.87,1.89-2.51,2.98-2.88,4.86-8.16,14.86-10.02,19.99-.34.94-1.32,3.25.53,3.03l12-25.99ZM330.56,484.94l-4.56-.93c-.22,3.42.78,7.7,4.99,6.99l-.43-6.06ZM222,314v34h22v-7.01s-13.01.01-13.01.01v-6.43s12.01-.57,12.01-.57v-6.01s-12.01.01-12.01.01v-6.01s13.01.01,13.01.01v-8.01h-22.01ZM335,314v34h22v-7.01s-13.01.01-13.01.01v-6.43s12.01-.57,12.01-.57v-6.01s-12.01.01-12.01.01v-6.01s13.01.01,13.01.01v-8.01h-22.01ZM187,314v8.01s10,0,10,0v26h9v-26h9.01s0-8,0-8h-28ZM317,314v34h10v-34h-10ZM173,301h9v-18c7.94,6.67,6.18,21.34,20,18v-34h-9v18l-10.16-17.84-9.84-.16v34ZM377,267v34h9v-15c7.73,6.94,5.91,18.23,20,14.99l-10.67-17.49,10.67-16.49-10.8.2-9.2,13.79v-14h-9ZM280,267v34h10.01s-.01-13.01-.01-13.01h11.01s0-7,0-7h-11.01s0-7,0-7h12.01s0-6.99,0-6.99h-22ZM347,267v34h24v-7h-14v-27h-10ZM218.73,267.23c16.76-3.42,27.18,7,22.8,23.8-2.85,10.94-19.25,13.33-27.57,7.51-10.82-7.57-8.04-28.7,4.77-31.31ZM219.29,292.7c1.8,1.45,5.95,1.7,8.18,1.28,8.26-1.57,8.63-22.7-4.74-19.78-7.09,1.55-7.64,15.12-3.44,18.5ZM227.47,293.98c8.26-1.57,8.63-22.7-4.74-19.78-7.09,1.55-7.64,15.12-3.44,18.5,1.8,1.45,5.95,1.7,8.18,1.28ZM311.34,271.34c8.28-8.31,27.77-5.65,30.44,7.39,3.33,16.26-9.39,27.5-24.78,21.78-10.93-4.06-13.44-21.35-5.65-29.17ZM321.72,274.21c-8.1,1.83-8.64,22.74,5.56,19.58,8.82-1.96,8.39-22.73-5.56-19.58ZM327.28,293.79c8.82-1.96,8.39-22.73-5.56-19.58-8.1,1.83-8.64,22.74,5.56,19.58ZM264.5,267c11.2,1.65,12.5,13.28,3.67,19.49l6.83,14.5-9.9-.09c-1.27-3.85-1.51-11.75-6.58-11.93-2.12-.07-1.3,0-1.52,1.5-.29,1.91.4,10.15.01,10.54h-9.01v-34.01c5.15.53,11.54-.73,16.5,0ZM257,283c10.15.38,11.35-10.49,0-9.01v9.01ZM257,274v9.01c10.16.38,11.36-10.49,0-9.01ZM364,314c7.16.15,25.01-1.35,26.07,8.47.62,5.75-1.49,8.18-6.05,11.03l6.98,14.49-9.9-.09c-1.44-4.36-1.32-12.33-7.59-11.91l-.51,12.02h-9.01v-34.01ZM373,330c10.93,1.32,11.09-10.65,0-9.01v9.01ZM373,321v9.01c10.93,1.32,11.09-10.65,0-9.01ZM251,314c6.57.32,20.49-1.17,24.46,5.04,3.76,5.88.95,11.16-4.44,14.46l6.98,14.49-9.9-.09c-1.44-4.36-1.32-12.33-7.59-11.91l-.51,12.02h-9.01v-34.01ZM266.76,328.76c3.42-6.08-.71-8.66-6.76-7.77v9.01s6.76-1.24,6.76-1.24ZM260,321v9.01s6.76-1.24,6.76-1.24c3.42-6.08-.71-8.66-6.76-7.77ZM284,314c14.1-2.11,38.24,4.29,19,19.5,4.38,3.32,5.5,8.97,7.01,13.99l-8.87.37c-2.9-13.16-10.93-18-9.13.14h-8.01v-34.01ZM299.75,322.24c-1.58-1.56-5.62-1.23-7.75-1.25v9.01c4.77,1.75,12.02-3.55,7.75-7.76ZM292,321v9.01c4.77,1.75,12.02-3.55,7.75-7.76-1.58-1.56-5.62-1.23-7.75-1.25ZM281.68,224.29c-2.28,0-4.12,1.85-4.12,4.12s1.85,4.12,4.12,4.12,4.12-1.85,4.12-4.12-1.85-4.12-4.12-4.12ZM300.02,224.5l7.01,1.03c1.76-.99-.74-4.74-2.37-4.43l-4.65,3.4ZM338.99,587v-8c2.58-.36,3.7.6,4.78,2.72.98,1.93,2.3,18.48,1.75,19.28-1.94,2.8-4.24-1-5.85-.84-1.16.11-2.38,1.69-4.15,1.75-13.99.45-9.62-20.94,3.46-14.91ZM337.75,596.76c.81-.79,1.38-2.91,1.1-4.04-3.71-7.26-9.77-1.22-6.95,4.71.94,1.34,4.87.29,5.85-.67ZM286,595.01c3.99,5.71,10.03,2.5,13.5-1.99l2.42,3.35c-5.97,10.73-27.89,1.7-20.37-9.32,2.57-3.77,11.45-4.32,14.48-.57,6.44,7.97-3.7,9.51-10.03,8.54ZM291.89,587.09c-1.48-.95-5.8.8-6.87,2.41,3.83,5.66,11.08.31,6.87-2.41ZM308.03,583.44l-4.09,1.24c.79,5.29-.2,15.48,7.04,15.32.25-2.68,4.01-15.52,6.47-8.98.85,2.26,2.4,13.25,6.08,8.01,1.43-2.03-.89-10.63-2.96-12.1-4.67-3.32-11.15,1.54-11.57,1.07l-.97-4.56ZM244.49,588.99c3.59-.7-1.57-9-4.2-9.8-10.39-3.13-6.28,9.7-7.34,10.75l-5.95,1.06c-.69,4.49,6.48,2.46,7,2.98,0,1.8-.59,6.34,1.5,7,5.57,1.74,1.49-6.29,3.44-7.54l8.03-1.95-9.55-2.43c-1.5-2.11.5-9,2.56-7.07.67,2.33,1.6,6.5,4.5,6.99ZM253.05,583.51l-4.12,1.07c.91,4.02,1.43,15.88,6.72,16.3,3.37.27,2.41-8.19,5.03-9.97,2.95-2.01,5.16,1.5,8.31,1.08-1.39-6.74-8.14-5.61-12.98-2.99l-2.96-5.49ZM273.14,589.13c-1.57.92-.49,10.97,2.37,11.86,4.36.9.41-9.76,1.48-12l-3.85.14ZM273.51,579.01c-3.47.69.13,8.74,3.48,7.99.63-2.15-.27-8.63-3.48-7.99ZM338.85,592.71c-3.71-7.26-9.77-1.22-6.95,4.71.94,1.34,4.87.29,5.85-.67.81-.79,1.38-2.91,1.1-4.04ZM285.02,589.5c3.83,5.66,11.08.31,6.87-2.41-1.48-.95-5.8.8-6.87,2.41ZM307,493.51c-.68,2.97,5.23,2.69,7,2.48.77-6.16-3.4-6.13-7-2.48ZM289,494v8c7.3-.14,7.88-8.67,0-8ZM363.63,498.94c4.73-1.36,6.49-7.3,1.02-8.85-3.92,2.38-5.39,6.16-1.02,8.85ZM331.98,229.5c-1.57-2.14-3.68-3.19-6.34-2.38-5.43,1.65,3.7,6.86,6.34,2.38ZM243.9,499.34l-2.02-7.22c-13.61-1.93-7.21,16.09,2.02,7.22ZM317.9,438.58c-3.84,5.28,5.84,16.51,12.09,12.42l-2.72,3.86-5.78.15c10.43,9.63,19.1-6.2,14.99-14.99-3.84-8.23-7.6,11.24-12.42,7.93-3.21-3.95,1.26-12.26-6.16-9.36ZM289.01,433c-.69.5-.21,12.55,0,14.5.4,3.86,1.48,7.34,5.99,7.5v-7.49c4.71-2.71,5.45,7.66,9.51,7.47s-1.63-9.49-1.57-10.41l3.05-2.07-3.3-2.33-8.68,2.83c1.3-2.64-.99-12.89-5-9.99ZM263,455c-2.67,1.29-3.14-2.02-3.56-2.04-4.61-.18-12.83,4.42-14.03-4.48,1.35-5.06,7.27-5.39,11.59-4.98-1.84-4.74-12.94.3-11.99-3.99,12.21-6.61,19.98,3.2,17.99,15.49ZM258,448.02c-3.2-1.26-7.21-3.24-7.99,1.97,2.41.9,8.33,2.08,7.99-1.97ZM269.49,437.01c-6.15-1.8-3.08,15.06.49,16.52,3.98,1.99,4.39-8.98,7.53-10.53,1.83-.9,1.5,1.4,1.76,2.2.73,2.33,2.66,12.87,6.28,7.81,1.18-1.65-1.32-10.87-2.95-12.12-4.18-2.39-7.76-.49-11.59,1.09.1-1.42.06-4.53-1.51-4.99ZM225.94,434.44c-2.06,1.51-.65,15.81.58,18.53.7,1.54,2.72,2.95,4.01,1.06,1.46-2.37-.9-10.73,4.45-11.03,1.53,2.53,2.12,9.25,3.53,10.98,2.28,2.77,3.97.97,3.92-2.09-.12-7.98-4.12-12.73-12.39-11.94l-1.06-5.94-3.04.44ZM362.17,439.66c-1.43,5.93,1.63,13.76,8.4,14.31,4.14.34,4.6-2.99,5.01-3.03,3.29-.31,5.7,5.32,8.41,1.56-3.81-3.09-4.97-7.61-5.11-12.35-6.81-2.89-5.52,4.74-7.63,8.58-.63,1.14.04,1.69-2.22,1.27-2.78-2.53-.39-16.78-6.85-10.34ZM346.74,438.23c11.95-2.08,17.34,14.26,5.52,16.56-12.18,2.37-19.15-14.19-5.52-16.56ZM351.76,442.24c-6.94-4.03-11.52,7.27-3.78,9.36,1.79.78,5.54-1.62,5.84-3.22l-2.05-6.13ZM221.03,435.47c-3.7-1.63-23.17-1.48-25.02.54-2.47,2.69,7.9,3.97,9.54,2.23l.99.7c1.04,4.33-.09,16.44,6.47,14.55l-1.01-15.49,10,.99-.97-3.52ZM250.01,449.99c2.41.9,8.33,2.08,7.99-1.97-3.2-1.26-7.21-3.24-7.99,1.97ZM347.98,451.6c1.79.78,5.54-1.62,5.84-3.22l-2.05-6.13c-6.94-4.03-11.52,7.27-3.78,9.36ZM331,683c10.15-1.61,24.35,2.88,12,12.99,5.45-.03,7.36,5.73,4.45,9.97s-11.75,2.76-16.45,3.04v-26ZM335,694c10.32.91,11.65-8.85,0-7.01v7.01ZM335,696.99l.94,8.59c11.91,1.6,10.58-10.38-.94-8.59ZM249,709h5.01c.43-6.04-2.8-17.62,7.11-14.41l.89,14.42h3.99c.37-9.52,1.56-24.79-11.99-16v-11s-5.01,1.5-5.01,1.5v25.5ZM224,683v4s8,0,8,0v22h5v-22h7s0-4,0-4h-20ZM326,701h-13c-.46,6.21,6.7,5.89,10.99,4l-.97,3.52c-6.89,2.43-15.29-.81-14.96-8.94.54-13.47,19.71-11.59,17.94,1.42ZM320.73,694.26c-3.13-3.01-9.17.05-7.74,4.73l8.04-.46c1.53-.95.65-3.36-.3-4.27ZM305,701h-13c-.46,6.21,6.7,5.88,10.99,4l-1.65,3.84c-4.6.75-11.24.51-12.89-4.78-5.25-16.83,18.29-18.95,16.55-3.05ZM301,699c.95-7.79-9.7-7.98-9,0h9ZM271,709h5.01c-.1-7.75-1.71-14.64,8.03-15.52l-.05-3.48-8.5,3.99-.59-2.87-3.91-.13v18ZM335.94,705.58c11.91,1.6,10.58-10.38-.94-8.59l.94,8.59ZM335,687v7.01c10.32.91,11.66-8.85,0-7.01ZM313,699l8.04-.46c1.53-.95.65-3.36-.3-4.27-3.13-3.01-9.17.05-7.74,4.73ZM292,698.99h9c.95-7.79-9.7-7.98-9,0ZM213.76,540.45c-7.75-5.87-7.58,8.71-2.28,12.56s6.21-.06,8.86.18c1.21.11,2.44,1.79,4.01,1.62,2.59-.27,3.76-4.62,7.16-.84l1.49-1.5-1.09-11.38-5.75.08-3.15,8.82c-1.64-2.9.5-11.16-4.36-9.86-3.1.83-1.74,5.52-2.62,8.39-.44,1.44.57,1.77-2.02,1.47l-.26-9.54ZM300,555.99c-7.95-1.06-20.32,3.03-18.92-9.43.63-5.59,8.28-6.46,12.92-5.58l-.99-6.99c9.8-.63,4.34,15.41,6.99,22ZM287.57,544.02c-5.91,6.47,1.46,13.72,5.46,4.48-.4-2.09-3.3-5.1-5.46-4.48ZM308,549.01c3.71,5.95,9.86,3.86,13.51-1.01,4.4.91,2.26,4.86-.59,6.41-16.85,9.18-29.75-21.1-3.33-14.51,6.43,9.18-1.34,11.59-9.59,9.1ZM315,545.99c2.64-3.62-6.02-6.51-6.99-2.48-.68,2.82,5.88,4,6.99,2.48ZM190,543.99c-1.77-4.33-10.21.12-11.99-3.51-.52-1.81,1.51-1.97,2.74-2.21,6.23-1.21,12.23.59,14.58,6.9.65,1.74,2.33,8.3.7,9.38-.43.29-9.38.5-10.41.39-12.2-1.33-6.13-13.71,4.39-10.95ZM190.99,550.99c-.47-4.8-4.52-4.35-7.99-2.98l1.67,2.82,6.32.17ZM355.01,545l-5.99,1.5c1.03,3.14,6.47,2.14,6.92,2.56.3.28.16,7.65,3.54,6.93,2.17-.46,1.47-6.2,1.51-8,2.17-.15,6.83.87,7.99-1.51.96-1.96-2.08-1.57-3.17-1.79-1.95-.4-3.79-.89-5.81-.7v-6.99c4.31-.06,2.88,7.16,7.99,5.99-1.43-13.3-15.71-12.39-12.99,2.01ZM259.62,538.12c-2.54.85-.9,8.7-.36,11.12.79,3.52,1.57,6.01,5.82,4.33,1.61-3.66,1.85-8.51,5.91-10.57.25,2.04,3.23,15.65,6.92,10.9,3.35-4.31-5.43-21.43-13.41-10.92l-1.51-4.99-3.37.12ZM376.56,539.94l-4.55-.95c-2.21,9.27,6.46,21.25,14.5,12.03,2.02,2.71,4.12,3.45,7.49,2.97-2.02-4.59-5.46-7.44-5.47-13.02-1.15-1.78-3.85-.64-5.31.26-1.57,13.48-5.97,9.74-6.66-1.29ZM241.71,539.22c7.02-1.6,12.88,1.19,14.13,8.54,1.71,10.07-21.42,10.2-19.82-2.17.38-2.95,2.77-5.71,5.69-6.37ZM249.87,550.87c.64-6.42-1.86-12.11-8.38-6.89-2.29,6.85,2.21,9.9,8.38,6.89ZM327,538c.07,5.73-.09,18.12,7.96,16.97l3.02-9.51,8.01,1.54c.34-7.03-8.72-5.83-12.98-3-.14-4.02-1.51-6.76-6.01-6ZM397,553.5c0,.8,2.44,2,3.49,1.49l1.46-2.39c-2.37-4.03,1.05-16.39-2.95-18.11l-2,1.01v18ZM293.03,548.5c-.4-2.09-3.3-5.1-5.46-4.48-5.91,6.47,1.46,13.72,5.46,4.48ZM308,543.51c-.68,2.82,5.88,4,6.99,2.48,2.64-3.62-6.02-6.51-6.99-2.48ZM183,548.01l1.67,2.82,6.32.17c-.47-4.8-4.52-4.35-7.99-2.98ZM241.49,543.99c-2.29,6.85,2.21,9.9,8.38,6.89.64-6.42-1.86-12.11-8.38-6.89Z"/>
</svg>