<?xml version="1.0" encoding="UTF-8"?>
<svg id="_レイヤー_1" data-name="レイヤー 1" xmlns="http://www.w3.org/2000/svg" width="190.75mm" height="296.84mm" viewBox="0 0 540.71 841.42">
  <path d="M328.35,51.94c8.31-2.31,13.36-.89,20.69,2.8,2.05,1.03,3.17,3.65,5.59,3.09,24.15-18.67,51.23-37.46,81.87-43.22,24.01-4.51,44,2.66,56.64,24.03,20.51,34.69,7.92,79.95-.61,116.67,9.25,8.73,12,19.67,7.3,31.63-1.22,3.09-6.85,9.54-6.39,11.31,8.69,15.65,43.56,18.07,46.66,36.44,3.59,21.25-9.14,28.77-26.76,35.27,4.13,12.92,6.98,27.98,2.73,41.21-1.02,3.19-4.23,6.92-4.68,9.32-.42,2.24-1.03,20.64-.77,22.84.2,1.7,2.42,3.71,3.21,5.63,10.68,25.81,7.62,48.27-7.66,71.31-4.64,6.99-4.96,7.72-8.65,15.35-12.1,25.01-32.33,45.15-60.18,51.33,4.97,9.47,2.75,20.68,4.24,30.25,2.09,13.46,11.46,44.23,16.74,57.26,9.68,23.87,25.24,26.78,24.07,58.02-.13,3.48-1.88,7.36-1.74,9.82.07,1.27,2.53,14.68,2.89,15.94.41,1.43,9.99,14.01,12,18,12.29,24.49,17.98,59.4,3.61,84-2.24,3.84-9.36,10.68-10.28,12.72-1.13,2.53-1.07,7.72-2.02,10.98-5.38,18.55-20.05,29.75-38.08,34.92-3.94,1.13-9.46,1.2-12.68,2.32-2.15.74-6.66,5.07-9.44,6.56-27.54,14.77-73.33,20.33-100.04,1.42-3.08-2.18-5.53-6-8.79-7.21-8.32-3.08-31.37-4.7-40.93-5.07-10.96-.42-52.15,1.04-60.76,5.08-.57.27-6.3,6.05-8.66,7.6-30.87,20.22-77.79,12.43-107.05-7.21-7.52-5.05-5.89-3.33-14.09-5.91-16.79-5.28-33.27-14.52-38.51-32.49-.95-3.25-.86-8.45-2.01-10.99-.88-1.96-6.02-6.71-7.7-9.3-17.82-27.26-11.64-64.69,3.71-91.75,1.9-3.35,10.14-13.55,10.5-15.5.44-2.4-.26-5.29.1-7.9,1.24-9.12.48-8.37-.11-17.04-1.8-26.13,12.42-32.01,21.89-51.18,6.55-13.25,9.21-28.13,12.81-42.19,1.55-6.07,5.27-14.56,6.1-19.9,1.52-9.82-.26-20.93,4.21-30.85l-.95-1.92c-19.48-6.04-37.43-23.19-47.19-40.83-4.95-8.95-8.23-15.5-13.64-24.36-11.4-18.69-15-34.68-10.7-56.32.81-4.09,4.04-11.61,4.2-14.63.18-3.3-2.38-21.77-2.97-26.58-.85-6.82-5.01-12.29-5.71-19.29-1.11-11.14,1.17-22.22,4.06-32.88-9.25-2.96-22.6-14.23-23.98-24.2-4.74-34.24,30.96-26.97,44.83-49.06-9.31-10.74-12.67-23.73-4.36-36.29,1.35-2.04,5.28-4.23,5.39-6.52-2.12-7.03-4.26-14.12-5.66-21.34-6.31-32.56-8.73-83.95,18.18-108.23,28.06-25.32,64.03-8.69,92.2,6.85,6.17,3.4,19.59,13.68,24.63,15.41,2.27.78,10.36-.55,14.76.2,7.17,1.23,14.14,6.23,20.94,8.55,5.05-71.91,108.14-75.8,117.01-4ZM217.34,50.44c-.61,5.14.44,11.24,0,16.5-4.32-1.79-7.81-5.25-11.98-7.52-5.47-2.98-16.4-7.76-22.49-7.53-2.67.1-5.29,2.26-7.56,1.63-3.67-1.02-18.25-11.9-23.3-14.75-29.85-16.86-73.47-37.71-97.49-.15-20.15,31.5-12.35,84.87-1.3,118.72-10.8,6.38-14.56,19.29-8.08,30.31,1.76,2.99,7.73,6.79,7.06,9.54-.85,3.5-11.49,14.05-14.94,16.16-9.98,6.1-29.3,9.42-31.67,23.33-2.49,14.64,12.02,27.67,25.73,29.3-3.31,12.35-6.17,24.53-5.02,37.5.6,6.69,4.9,12.74,5.76,20.24.5,4.35-.11,8.55.29,12.71.38,3.93,2.67,10.11,2.71,13.2.03,1.94-3.16,8.58-3.86,11.68-4.52,20.21-3.21,35.61,7.71,53.55,2.29,3.76,6.71,7.84,8.29,10.71,1.95,3.53,3.21,9.54,5.31,13.69,9.92,19.63,30.75,38.66,52.82,42.69-2.3,6.41-5.2,13.8-5.88,20.61-1.32,13.23-1.72,16.41-4.84,29.16-3.62,14.79-6.71,29.47-12.27,43.73-8.6,22.09-26.09,29.63-24.05,57.02.25,3.39,2.1,7.15,1.97,9.89s-2.45,6.85-2.84,10.18c-.28,2.38.72,6.48.36,7.44-.27.74-7.33,8.55-8.88,11.03-15.33,24.59-23.47,64.58-6.01,89.85,1.74,2.51,8.23,8.55,8.92,10.08,1.07,2.4.32,6.04.96,9.04,3.19,14.89,15.28,24,29.03,28.97,5.18,1.87,12.91,2.34,16.8,4.2,2.88,1.38,8.29,7.14,12.42,9.58,23.59,13.98,64.88,18,89.32,4.71,4.65-2.53,11.35-9.82,14.15-10.85,4.74-1.74,16.85-3.1,22.35-3.65,16.09-1.62,73.82-2.86,86,4.98,2.6,1.67,5.1,5.13,8.58,7.42,23.29,15.32,64.55,12.02,88.6-.23,4.26-2.17,10.52-8.01,13.73-9.27,3.67-1.43,9.3-1.27,13.59-2.41,15.33-4.06,31.34-16.11,34.54-32.46.64-3.29-.16-7.53.97-10.03.85-1.88,8.07-8.17,10.3-11.7,16.9-26.71,7.44-65.96-8.8-90.85-1.52-2.32-6.45-6.91-6.82-8.18-.77-2.61.18-5.89-.31-8.69s-2.47-7.06-2.59-9.25c-.2-3.73,2.78-9.99,2.78-14.86,0-20.6-13.8-28.91-21.62-44.47-7.53-15-10.46-32.48-14.55-48.45-1.36-5.33-5.02-12.51-5.72-17.33-.63-4.34.31-10.62-.32-15.63-.84-6.74-3.66-12.99-4.88-19.61,25.37-1.33,51.59-24.47,61.48-47.02,4.61-10.51,3.63-9.34,10.35-18.65,12.35-17.14,15.82-41.91,7.93-61.59-1.07-2.68-5.31-8.92-5.48-10.35-.34-2.8,1.62-8.48,1.76-11.85.17-4.13-1.1-8.38-.83-11.75.36-4.46,3.97-7.81,5.29-11.8,4.29-13-.42-30.31-4.49-42.98,9.04-1.31,24.78-8.73,27.77-17.74,7.97-24.06-22.36-26.74-35.68-36.86-5.16-3.91-9.32-9.62-12.92-14.92,8.76-7.74,14.31-18.36,8.71-29.87-2.23-4.59-5.36-5.33-7.91-9.12,8.19-36.07,23.84-90.95-2.45-122.52-18.1-21.74-42.27-17.72-66.03-9.01-24.07,8.83-44.47,25-64.84,39.95-8.19-10.33-17.95-11.05-29.63-5.93,1.53-45.27-51.48-71.79-87.02-42.51-9,7.42-17.6,21.31-18.99,33.01ZM294.16,50.86c0,13.15-10.66,23.81-23.81,23.81s-23.81-10.66-23.81-23.81,10.66-23.81,23.81-23.81,23.81,10.66,23.81,23.81ZM288.49,50.8c0-10.02-8.13-18.15-18.15-18.15s-18.15,8.13-18.15,18.15,8.13,18.15,18.15,18.15,18.15-8.13,18.15-18.15Z"/>
</svg>