<?xml version="1.0" encoding="UTF-8"?>
<svg id="_レイヤー_1" data-name="レイヤー 1" xmlns="http://www.w3.org/2000/svg" width="204.61mm" height="305.86mm" viewBox="0 0 580 867">
  <path d="M348,67c8.31-2.31,13.36-.89,20.69,2.8,2.05,1.03,3.17,3.65,5.59,3.09,24.15-18.67,51.23-37.46,81.87-43.22,24.01-4.51,44,2.66,56.64,24.03,20.51,34.69,7.92,79.95-.61,116.67,9.25,8.73,12,19.67,7.3,31.63-1.22,3.09-6.85,9.54-6.39,11.31,8.69,15.65,43.56,18.07,46.66,36.44,3.59,21.25-9.14,28.77-26.76,35.27,4.13,12.92,6.98,27.98,2.73,41.21-1.02,3.19-4.23,6.92-4.68,9.32-.42,2.24-1.03,20.64-.77,22.84.2,1.7,2.42,3.71,3.21,5.63,10.68,25.81,7.62,48.27-7.66,71.31-4.64,6.99-4.96,7.72-8.65,15.35-12.1,25.01-32.33,45.15-60.18,51.33,4.97,9.47,2.75,20.68,4.24,30.25,2.09,13.46,11.46,44.23,16.74,57.26,9.68,23.87,25.24,26.78,24.07,58.02-.13,3.48-1.88,7.36-1.74,9.82.07,1.27,2.53,14.68,2.89,15.94.41,1.43,9.99,14.01,12,18,12.29,24.49,17.98,59.4,3.61,84-2.24,3.84-9.36,10.68-10.28,12.72-1.13,2.53-1.07,7.72-2.02,10.98-5.38,18.55-20.05,29.75-38.08,34.92-3.94,1.13-9.46,1.2-12.68,2.32-2.15.74-6.66,5.07-9.44,6.56-27.54,14.77-73.33,20.33-100.04,1.42-3.08-2.18-5.53-6-8.79-7.21-8.32-3.08-31.37-4.7-40.93-5.07-10.96-.42-52.15,1.04-60.76,5.08-.57.27-6.3,6.05-8.66,7.6-30.87,20.22-77.79,12.43-107.05-7.21-7.52-5.05-5.89-3.33-14.09-5.91-16.79-5.28-33.27-14.52-38.51-32.49-.95-3.25-.86-8.45-2.01-10.99-.88-1.96-6.02-6.71-7.7-9.3-17.82-27.26-11.64-64.69,3.71-91.75,1.9-3.35,10.14-13.55,10.5-15.5.44-2.4-.26-5.29.1-7.9,1.24-9.12.48-8.37-.11-17.04-1.8-26.13,12.42-32.01,21.89-51.18,6.55-13.25,9.21-28.13,12.81-42.19,1.55-6.07,5.27-14.56,6.1-19.9,1.52-9.82-.26-20.93,4.21-30.85l-.95-1.92c-19.48-6.04-37.43-23.19-47.19-40.83-4.95-8.95-8.23-15.5-13.64-24.36-11.4-18.69-15-34.68-10.7-56.32.81-4.09,4.04-11.61,4.2-14.63.18-3.3-2.38-21.77-2.97-26.58-.85-6.82-5.01-12.29-5.71-19.29-1.11-11.14,1.17-22.22,4.06-32.88-9.25-2.96-22.6-14.23-23.98-24.2-4.74-34.24,30.96-26.97,44.83-49.06-9.31-10.74-12.67-23.73-4.36-36.29,1.35-2.04,5.28-4.23,5.39-6.52-2.12-7.03-4.26-14.12-5.66-21.34-6.31-32.56-8.73-83.95,18.18-108.23,28.06-25.32,64.03-8.69,92.2,6.85,6.17,3.4,19.59,13.68,24.63,15.41,2.27.78,10.36-.55,14.76.2,7.17,1.23,14.14,6.23,20.94,8.55,5.05-71.91,108.14-75.8,117.01-4ZM237,65.5c-.61,5.14.44,11.24,0,16.5-4.32-1.79-7.81-5.25-11.98-7.52-5.47-2.98-16.4-7.76-22.49-7.53-2.67.1-5.29,2.26-7.56,1.63-3.67-1.02-18.25-11.9-23.3-14.75-29.85-16.86-73.47-37.71-97.49-.15-20.15,31.5-12.35,84.87-1.3,118.72-10.8,6.38-14.56,19.29-8.08,30.31,1.76,2.99,7.73,6.79,7.06,9.54-.85,3.5-11.49,14.05-14.94,16.16-9.98,6.1-29.3,9.42-31.67,23.33-2.49,14.64,12.02,27.67,25.73,29.3-3.31,12.35-6.17,24.53-5.02,37.5.6,6.69,4.9,12.74,5.76,20.24.5,4.35-.11,8.55.29,12.71.38,3.93,2.67,10.11,2.71,13.2.03,1.94-3.16,8.58-3.86,11.68-4.52,20.21-3.21,35.61,7.71,53.55,2.29,3.76,6.71,7.84,8.29,10.71,1.95,3.53,3.21,9.54,5.31,13.69,9.92,19.63,30.75,38.66,52.82,42.69-2.3,6.41-5.2,13.8-5.88,20.61-1.32,13.23-1.72,16.41-4.84,29.16-3.62,14.79-6.71,29.47-12.27,43.73-8.6,22.09-26.09,29.63-24.05,57.02.25,3.39,2.1,7.15,1.97,9.89s-2.45,6.85-2.84,10.18c-.28,2.38.72,6.48.36,7.44-.27.74-7.33,8.55-8.88,11.03-15.33,24.59-23.47,64.58-6.01,89.85,1.74,2.51,8.23,8.55,8.92,10.08,1.07,2.4.32,6.04.96,9.04,3.19,14.89,15.28,24,29.03,28.97,5.18,1.87,12.91,2.34,16.8,4.2,2.88,1.38,8.29,7.14,12.42,9.58,23.59,13.98,64.88,18,89.32,4.71,4.65-2.53,11.35-9.82,14.15-10.85,4.74-1.74,16.85-3.1,22.35-3.65,16.09-1.62,73.82-2.86,86,4.98,2.6,1.67,5.1,5.13,8.58,7.42,23.29,15.32,64.55,12.02,88.6-.23,4.26-2.17,10.52-8.01,13.73-9.27,3.67-1.43,9.3-1.27,13.59-2.41,15.33-4.06,31.34-16.11,34.54-32.46.64-3.29-.16-7.53.97-10.03.85-1.88,8.07-8.17,10.3-11.7,16.9-26.71,7.44-65.96-8.8-90.85-1.52-2.32-6.45-6.91-6.82-8.18-.77-2.61.18-5.89-.31-8.69s-2.47-7.06-2.59-9.25c-.2-3.73,2.78-9.99,2.78-14.86,0-20.6-13.8-28.91-21.62-44.47-7.53-15-10.46-32.48-14.55-48.45-1.36-5.33-5.02-12.51-5.72-17.33-.63-4.34.31-10.62-.32-15.63-.84-6.74-3.66-12.99-4.88-19.61,25.37-1.33,51.59-24.47,61.48-47.02,4.61-10.51,3.63-9.34,10.35-18.65,12.35-17.14,15.82-41.91,7.93-61.59-1.07-2.68-5.31-8.92-5.48-10.35-.34-2.8,1.62-8.48,1.76-11.85.17-4.13-1.1-8.38-.83-11.75.36-4.46,3.97-7.81,5.29-11.8,4.29-13-.42-30.31-4.49-42.98,9.04-1.31,24.78-8.73,27.77-17.74,7.97-24.06-22.36-26.74-35.68-36.86-5.16-3.91-9.32-9.62-12.92-14.92,8.76-7.74,14.31-18.36,8.71-29.87-2.23-4.59-5.36-5.33-7.91-9.12,8.19-36.07,23.84-90.95-2.45-122.52-18.1-21.74-42.27-17.72-66.03-9.01-24.07,8.83-44.47,25-64.84,39.95-8.19-10.33-17.95-11.05-29.63-5.93,1.53-45.27-51.48-71.79-87.02-42.51-9,7.42-17.6,21.31-18.99,33.01ZM313.81,65.93c0,13.15-10.66,23.81-23.81,23.81s-23.81-10.66-23.81-23.81,10.66-23.81,23.81-23.81,23.81,10.66,23.81,23.81ZM308.15,65.87c0-10.02-8.13-18.15-18.15-18.15s-18.15,8.13-18.15,18.15,8.13,18.15,18.15,18.15,18.15-8.13,18.15-18.15ZM334,318v33h22v-7.01s-13,0-13,0l.44-6.07,11.57-.93v-6.01s-12.01.01-12.01.01v-6.01s13.01.01,13.01.01v-7.01h-22.01ZM225,318v33h22l-.94-6.56-12.08-1.01v-6.43s12.03-.57,12.03-.57v-5.43s-12.02.01-12.02.01v-6.01s13.01.01,13.01.01v-7.01h-22.01ZM192,318v7.01s9,0,9,0v26h9v-26h9.01s0-7,0-7h-27ZM317,318v33h10v-33h-10ZM214.51,216.02c-5.57,1.15-4.13,14.54.18,15.83,6.11,1.83,3.94-8.46,7.82-10.85,1.94,3.72.33,10.67,6.49,10,.51-3.21.58-8.27,4.5-9.01.97-.02-.26,10.24,4.17,9.88,4.73.15,1.22-12.57-2.36-13.68-3.34-1.03-5.03.47-7.78,1.84-1.06-3.31-4.67-3.89-7.82-3.05-1.4.38-1.07,3.72-3.69,3.02l-1.5-3.98ZM292,234c-5.61-1.67-13.17,2.06-17.46-3.04-5.81-6.91,4.44-15.21,11.45-11.97v-7s3.87.15,3.87.15c.05,1.44,2.14,4.68,2.14,5.36v16.5ZM285.81,226.42c0-2.28-1.85-4.12-4.12-4.12s-4.12,1.85-4.12,4.12,1.85,4.12,4.12,4.12,4.12-1.85,4.12-4.12ZM313,226c-4.45,2.06-7.23,2.14-11.99,1.5,2.57,3.96,11.22,3.69,11.99-1.5.14.15,2.88-.3,3.55.95,2.87,4.11-6.58,7.16-9.9,6.99-5.05-.26-12.14-4.7-11.65-10.33.64-7.48,11.98-9.81,16.06-5.16,1.97,2.24,1.68,7.27,1.95,7.55ZM307.99,223.99l-2.64-4.84-5.35,3.35c1.01,1.36,7.41,2.01,7.99,1.49ZM308,502.01c2.03,3.68,6.85,3.8,10,1.47,2.47-1.82,2.27-7.16,5.92-.12-5.13,9.02-23.26,4.58-21.9-5.77.95-7.21,12.15-9.16,15.99-4.1,6.28,8.26-3.54,9.32-10.01,8.53ZM313.89,494.11c-2.84-.66-5.2,0-6.87,2.39,3.57,3.6,9.5,4.09,6.87-2.39ZM289.04,492.96c16.23.27,14.05,18.07-1.51,15.01-5.47-1.08-5.79-17.7-3.6-20.55,3.54-4.62,6.25,1.53,5.12,5.54ZM289.01,505c6.58-.14,8.23-6.98,1.48-8.98-2.91-.86-.93,7.35-1.48,8.98ZM373.83,508.83c-5.3,3.25-11.15,2.7-15.82-1.34,3.38-1.6,8.11,1.19,10.99-2.01.29-2.49-2.36-.17-5-.91-9.1-2.53-8.4-14.2,1.53-14.65,10.24-.46,8.73,11.86,8.31,18.9ZM367.9,493.1c-4.29-2.1-7.88,5.41-4.96,7.46,5.43,1.78,7.39-2.89,4.96-7.46ZM247.58,216.96c-4.2-3.51-6.28,1.5-5.41,5.28,1.07,4.59,7.96,9.21,12.82,7.77l-1.67,2.82-6.33.18c1.77,3.56,7.49,3.69,10.76,2.32,4.31-1.8,7.89-20.92-.65-18.19-3.25,11.32-10.13,14.05-9.54-.18ZM337.99,233c-4.55-1.22-18.1,1.89-18.1-5.49,0-5.84,7.19-5.34,11.1-6-3.88-4.97-10.75,1.92-12-4.49,13.12-4.19,20.1,2.86,19,15.98ZM326.73,225.15c-1.19.33-1.86,1.57-2.71,2.35,0,1.79,7.62,2.58,8.96,0-1.51-1.71-3.96-2.99-6.25-2.35ZM335.17,491.66c-1.05,3.35.69,18.06,5.84,14.92,2.44-1.49,1.6-10.12,6.48-10.59.76-.01,2.8,16.09,7.04,10.04,1.63-2.33-1.34-10.81-3.54-12.51-4.11-3.18-7.17-.43-10.98,1.48,1.39-4.02-3.58-7.36-4.84-3.34ZM213.14,486.14l-1.19,10.81-5.95,1.06c-.7,4.49,6.49,2.47,7,2.98-.2,3.23-.47,6.03,2.49,7.99,3.08-2.11,2.74-4.16,1.61-7.41l.84-1.11,8.04-.47-1.66-2.82-7.44-.76.11-7.4c3.8-.48,3.06,4.69,4.63,6.04,4.24,3.65,3.72-4.79.08-7.76-2.05-1.67-6.03-1.51-8.58-1.15ZM234.71,491.22c9.01-2.06,12.67,2.9,14.16,11.07-10.33,16.99-30.98-7.23-14.16-11.07ZM237.73,494.13c-6.43.94-5.66,10.78.76,10.78,7.52,0,4.53-11.56-.76-10.78ZM250.93,491.63c1.79,4.84.96,15.71,7.59,16.37,2.35.24,1.18-.77,1.6-2.33.84-3.09.85-9.02,5.39-8.6.73.07,6.51,3.84,6.47.43s-11.53-4.9-13.97-1.5c-.64-4.86-2.37-8.06-7.08-4.37ZM341.01,216c-.78.77,1.28,22.41,8.53,16.03l2.42-8.57c3.19-2.12,8.48,3.57,9.04.03.73-4.59-11.44-5.1-13.98-1.49.43-4.38-1.63-6.57-6-6ZM364.97,211.45c-2.95,4.67-1.24,9.64.1,14.5l2.93.05c-.95-3.35,1.77-11.63-.22-13.75-.31-.33-2.25-1.37-2.8-.8ZM328.51,495.01c-2.82.59-2.27,14.81,3.48,12.99.04-2.52,1.11-13.95-3.48-12.99ZM327.51,486.01c-3.3.85.99,9.63,4.48,7.99.48-2.62-.55-9.01-4.48-7.99ZM185.15,222.58l12.16,17.87,1.36-.93-12.16-17.87-1.36.93ZM370.35,242.49l1.64.51,6.43-20.72-1.64-.51-6.43,20.72ZM391.99,192c-3.08,3.67-6.89,10.44-8.53,14.96-.34.94-1.32,3.25.53,3.03l8-17.99ZM278,268.01l7.1,32.89,10.91.11,3.49-23.02,3.64,22.87h9.72s7.13-32.86,7.13-32.86h-9s-3.49,24-3.49,24l-2.93-23.08-9.99-.99c-1.22.21-2.47,16.71-2.87,19.27-.19,1.19-.25,4.85-1.7,4.79l-3.06-23.94-8.95-.05ZM176,301h9v-17c7.04,6.94,5.89,20.22,19,17v-33h-9v18l-9.99-17.51-9.01-.49v33ZM376,301h9.01s-.01-13.01-.01-13.01h9.43s.57,13.01.57,13.01h9.01v-33.01h-9.01s.01,13.01.01,13.01h-9.43s-.57-13.01-.57-13.01h-9.01v33.01ZM369.88,271.48c-11.23-8.05-28.05-2.82-28.89,12.05-.92,16.26,15.69,22.84,28.59,15.49l-1.59-6.03c-24.02,10.36-24.01-26.74,0-15.99l1.89-5.52ZM326,268v33h10v-33h-10ZM221.74,268.24c27.53-4.7,28.26,33.4,4.76,33.83-22.34.42-22.86-30.74-4.76-33.83ZM223.73,275.2c-8.51,1.84-8.22,21.02,3.51,19.62,10.59-1.27,9.48-22.42-3.51-19.62ZM227.23,294.82c10.59-1.27,9.48-22.42-3.51-19.62-8.51,1.84-8.22,21.02,3.51,19.62ZM262.5,268c11.75,1.42,15.87,12.04,5.48,18.52l6.02,14.48-8.9-.1c-1.16-3.88-1.22-10.7-6.58-10.93-2.12-.09-1.31.03-1.53,1.51-.27,1.79.38,9.17.01,9.54h-9.01v-33.01c4.63.4,9.99-.55,14.5,0ZM257.01,284c10.37-.12,11.22-10.33,0-9v9ZM257,275v9c10.38-.12,11.23-10.33,0-9ZM268.5,318c7.79,1.1,13.52,8.21,8.38,15.38-.98,1.37-3.67,2.35-3.87,3.18-.18.76,6.98,11.5,5.99,14.43l-8.9-.1c-1.44-4.36-1.32-12.33-7.59-11.91l-.51,12.02h-9.01v-33.01c4.87.48,10.79-.66,15.5,0ZM268.85,325.14l-6.86-.15v8.01c6.24.84,9.96-1.59,6.86-7.86ZM261.99,325v8.01c6.24.84,9.96-1.59,6.86-7.86l-6.86-.15ZM378.5,318c11.17,1.57,13.3,13.43,3.5,18.49l6.99,14.5-9.04-.45c-3.55-13.23-10.47-17.38-8.95.46h-8.01v-33.01c4.87.48,10.79-.66,15.5,0ZM371,333c5.49.77,9.55-1.05,7.57-7.08l-7.57-.93v8.01ZM378.57,325.93l-7.57-.93v8.01c5.49.77,9.55-1.05,7.57-7.08ZM300.5,318c11.17,1.57,13.3,13.43,3.5,18.5,4.3,3.58,5.01,9.54,6.99,14.5l-8.86-.13c-2.9-13.16-10.93-18-9.13.14h-8.01v-33.01c4.87.48,10.79-.66,15.5,0ZM300.76,331.75c.99-2.23,1.23-4.54-.75-6.26l-7.02-.49v8.01s7.77-1.25,7.77-1.25ZM300.02,325.49l-7.02-.49v8.01s7.77-1.25,7.77-1.25c.99-2.23,1.23-4.54-.75-6.26ZM281.68,222.29c-2.28,0-4.12,1.85-4.12,4.12s1.85,4.12,4.12,4.12,4.12-1.85,4.12-4.12-1.85-4.12-4.12-4.12ZM305.36,219.15l-5.35,3.35c1.01,1.36,7.41,2.01,7.99,1.49l-2.64-4.84ZM346,606c-5.42-1.6-14.25,2.12-17.9-3.6-5.02-7.87,4.66-14.84,11.89-11.4v-8c3.32-1.19,6.01,4.14,6.01,6.5v16.5ZM335.5,593.04c-8.13,5.7-.36,15.35,4.35,5.28l-4.35-5.28ZM286,599.01c3.18,5.75,10.95,3.05,13.5-1.99l2.35,3.31c-3.66,9.72-22.28,4.58-21.92-4.79.29-7.72,12.15-9.95,16.11-5.06,6.04,7.46-3.53,11.28-10.03,8.54ZM291.9,591.09c-1.02-.73-7.47.27-5.89,3.41,3.54,4.55,9.58-.75,5.89-3.41ZM243.49,592.99c4-.82-1.07-11.29-7.96-10.02-5.36.98-2.39,8.83-3.96,11.1l-5.56.94c-.59,4.51,5.74,2.61,6.52,3.93.85,1.45.23,6.49,2.99,7.06,3.69.77,2.22-6.32,1.49-7.99l8.99-1.01-1.67-2.82-7.33-.17v-8c3.81-.77,3.16,7.68,6.49,6.99ZM304.16,589.7c-.42,1.81,1.55,12.01,3.25,13.38,5.51,4.42,4.93-8.33,9.08-10.06,1.51-.02,2.28,8.19,3.99,9.99,3.24,3.41,4.4-.35,3.89-3.79-1.3-8.82-6.24-11.98-14.36-7.22.15-4.4-4.75-7.04-5.85-2.3ZM249,588c0,4.07.63,17.55,6.49,17.07,4.05-.33,1.24-6.47,4.57-9.52,4.54-4.17,7.22,4.73,8.95-1.03-4.16-5.41-8.65-3.18-13.99-1.51l-1.15-4.87-4.86-.14ZM273.51,593.01c-2.98.94-1.9,13.72,3.49,11.99-.35-2.57,1.79-13.66-3.49-11.99ZM273.51,583.01c-3.21.69-.97,9.64,3.48,7.99.66-2.12-.31-8.67-3.48-7.99ZM339.85,598.32l-4.35-5.28c-8.13,5.7-.36,15.35,4.35,5.28ZM286.01,594.49c3.54,4.55,9.58-.75,5.89-3.41-1.02-.73-7.47.27-5.89,3.41ZM307.02,496.5c3.57,3.6,9.5,4.09,6.87-2.39-2.84-.66-5.2,0-6.87,2.39ZM290.48,496.01c-2.91-.86-.93,7.35-1.48,8.98,6.58-.14,8.23-6.98,1.48-8.98ZM362.94,500.56c5.43,1.78,7.39-2.89,4.96-7.46-4.29-2.1-7.88,5.41-4.96,7.46ZM324.02,227.5c0,1.79,7.62,2.58,8.96,0-1.51-1.71-3.96-2.99-6.25-2.35-1.19.33-1.86,1.57-2.71,2.35ZM210.02,556.47c5.02,3.55,6.17.05,8.5-.11,1-.07,2.53,1.59,4.07,1.67,2.45.13,5.33-3.39,9.41-1.04-1.82-4.75,1.44-16.43-6.51-12.01l-2.99,8.01-1.59-8.89c-8.83-2.95-3.23,6.62-7.9,9.9l-1.02-12c-7.54-1.98-6.15,11.52-1.97,14.48ZM299.99,560c-2.18,1.01-4.52-1.58-5.52-1.62-1.44-.06-2.96,2.14-6.73,1.44-12.91-2.42-6.61-19.36,6.25-15.82l-.99-6.99c9.79-.63,4.49,16.22,6.99,22.99ZM286.25,555.77c2.34,2.48,8.37-1.16,6.25-5.74-3.34-7.2-10.05,1.7-6.25,5.74ZM309,553.01c1.69,4.06,6.87,3.77,10,1.48,1.52-1.12,1.81-4.23,3.48-3.48,4.62,2.07-.1,7.45-4.96,8.01-18.11,2.08-19.69-18.15-4.04-17.08,5.57.38,9.83,7.89,5.25,10.28-3.1,1.62-6.43,1.48-9.73.79ZM315,549.99c1.72-5.78-5.38-6.63-6.99-2.48-.97,2.5,5.88,2.65,6.99,2.48ZM194.99,559c-1.88.75-3.53-1.59-4.51-1.63s-2.29,1.56-4.71,1.44c-3.41-.18-10.01-2.6-8.63-7.08,2.73-4.97,7.01-4.44,11.85-4.22-3.86-5.73-12.6,2-12-5.49,12.36-3.83,19.4,5.06,18,16.99ZM190,553.99c-1.94-3.87-5.87-4.76-8.98-1.49,2.47,3.6,5.4,2.59,8.98,1.49ZM258,543.51c-.46,2.5.96,12.8,2.96,14.03,4.98,3.08,5.3-8.94,8.55-10.54,1.83-.9,1.5,1.4,1.76,2.2.72,2.29,2.7,12.9,6.26,7.81,1.45-2.07-1.16-10.45-2.97-12.08-4.94-4.43-10.73,1.94-11.55,1.05,1.32-4.56-4.07-7.55-5.01-2.49ZM381.5,553.98c-4.58-1.75-1.81-13.61-6.99-11.97-5.74,7.95,5.58,21.86,13.13,13.08l6.84,2.91c2.94-1.99-1.49-3.7-2.56-6.42-1.48-3.78-.17-10.25-6.69-7.36l-3.73,9.76ZM368.81,543.72c-1.52-10.4-16.42-8.88-12.91,4.18l-5.9,1.11,1.17,2.82,5.83.17c-.18,3,.07,5.97,2.51,8,4.4-.34,1.14-6.96,3.42-8.56l7.06-.44-1.67-2.82-7.33-.17v-8c1.31-1.49,9.15,12.89,7.81,3.71ZM241.71,542.21c16.23-3.71,18.43,21.8.45,16.12-9.24-2.92-9.15-14.13-.45-16.12ZM247.76,546.24c-2.11-2.21-6.8-.15-7.6,2.46-2.96,9.67,15.06,9.76,7.6-2.46ZM334.47,546.9l-3.48-5.47-4.08,1.22c1.6,5.79.67,17.25,9.08,16.36.41-9.07,1.61-12.8,11-9.01-.05-.92.26-1.93-.23-2.8-1.64-2.91-9.66-2.59-12.29-.3ZM398,554.5c0,1.84,2.53,5.64,5,4.5v-17.5c0-.55-1.49-2.24-1.01-3.5-1.37-.26-3.59.14-3.99,1.5-.7,2.37,0,11.61,0,15ZM292.5,550.03c-3.34-7.2-10.05,1.7-6.25,5.74,2.34,2.48,8.37-1.16,6.25-5.74ZM308.01,547.51c-.97,2.5,5.88,2.65,6.99,2.48,1.72-5.78-5.38-6.63-6.99-2.48ZM181.02,552.5c2.47,3.6,5.4,2.59,8.98,1.49-1.94-3.87-5.87-4.76-8.98-1.49ZM240.16,548.7c-2.96,9.67,15.06,9.76,7.6-2.46-2.11-2.21-6.8-.15-7.6,2.46ZM337.05,450.55c.19-1.97.58-9.89-1.56-10.54-4.25-1.31-4.86,9.76-9.96,10-2.68-.58-2.57-16.55-7.05-10.03-4.05,5.89,5.47,16.81,12.52,13.03-.75,2.39-1.74,3.81-4.45,3.83-1.96.01-5.22-2.56-4.55,1.15,7.58,3.43,14.18,1.64,15.04-7.44ZM256,444.99c-2.33-4.39-8.99.17-11.98-3.49,10.87-8.36,22.95,4.68,17.45,15.51-4.08-3.22-12.07,1.43-15.54-3.43-4.45-6.21,5.01-9.45,10.07-8.59ZM257,451.99c1.77-2.42-6-6.54-7.98-1.49,1.04,2.36,6.91,2.94,7.98,1.49ZM306,444.49l-1.58-2.46-8.93,2.92c-3.09-.26,1.3-14.09-7.05-8.99.89,4.84-.47,16.05,2.57,19.53.58.66,2.73,1.97,3.52.54l.42-6.37,2.56-1.6c2.17,1.31,2.78,6.44,4.48,7.45,8.35,4.96.68-8.81,1.09-9.4l2.92-1.62ZM270.07,439.43l-4.06-.43c.41,5.47-1.69,16.72,6.04,16.59,2.06-1.59,1.68-10.75,6.95-10.59.6,16.16,11.53,12.82,4.78-.27-3-5.81-8.5-4.28-12.76-.73l-.94-4.57ZM224.94,435.44c-2.08,1.53-.67,16.75.58,19.53.69,1.52,2.74,2.99,3.99,1.04,1.21-1.87.57-11.8,3.97-11.01,3.26,1.85,2.48,9.03,3.73,10.76,1.49,2.06,4.83,1.6,4.84-2.22.03-7.1-5.48-13.54-13.05-11.54l-1.02-6.99-3.04.44ZM379.02,441.47c-6.78-1.9-3.88,7.41-7.52,10.51-3.65-2.69-3.16-7.1-3.94-11.04l-4.55-.95c-2.39,9.09,7.43,22.68,14.49,12.01l7.5,3.99-5.98-14.53ZM345.71,440.22c2.8-.63,8.29-.87,10.34,1.23,9.52,9.71-.77,19.98-11.38,13.38-6.65-4.14-6.2-12.98,1.04-14.61ZM348.74,443.17c-.95.18-2.77,1.02-3.25,1.82-2.8,7.05,4.04,10.98,9.06,6l-2.54-7.53c-1.05-.72-2.13-.51-3.28-.29ZM201.51,436.01c-1.17.09-6.91.36-6.5,2.47,2.88,4.09,7.19-.15,10.56,2.45l2.33,14.48,4.1.58-1-16h10.01s0-2.99,0-2.99c-6.38-.93-13-1.51-19.49-1ZM249.02,450.5c1.04,2.36,6.91,2.94,7.98,1.49,1.77-2.42-6-6.54-7.98-1.49ZM345.49,444.99c-2.8,7.05,4.04,10.98,9.06,6l-2.54-7.53c-1.05-.72-2.13-.51-3.28-.29-.95.18-2.77,1.02-3.25,1.82ZM238.5,504.92c7.52,0,4.53-11.56-.76-10.78-6.43.94-5.66,10.78.76,10.78ZM331,689c10.48-1.2,24.71,1.34,13,12.99,5.92-.15,5.73,5.55,4.51,10.03-2.05,4.15-13.48,2.79-17.51,2.98v-26ZM336,700c9.88,1.18,11.48-8.46.95-7.58l-.95,7.58ZM336,712c12.36,1.51,12.38-10.51,0-9.01v9.01ZM249,715h4c.94-.89-2.95-21.48,7.86-13.36l.14,13.36h5.01c.68-9.63.09-25-13-16.01v-11s-4.01,0-4.01,0v27ZM223,689v4s8,0,8,0v22h5v-22h8s0-4,0-4h-21ZM305,707l-12.04.47-.5,2.56c2.68,4.95,11.68.45,11.51,3.47-4.09,4.2-14.19,2.2-15.77-3.21-4.9-16.75,18.35-20.1,16.79-3.29ZM301,705c.8-6.96-6.95-8.04-9.02-1.51-.55,3.03,7.11.92,9.02,1.51ZM326,707l-12.04.47-.5,2.56c2.68,4.95,11.68.45,11.51,3.47-4.09,4.2-14.19,2.2-15.77-3.21-4.89-16.73,18.53-19.9,16.79-3.29ZM322,705c.8-6.96-6.95-8.04-9.02-1.51-.55,3.03,7.11.92,9.02,1.51ZM271,715h4c-.45-7.88-.22-14.64,9.04-15.52l-.04-3.48-8.5,3.99-.59-2.88-3.91-.11v18ZM336,703v9.01c12.36,1.51,12.38-10.51,0-9.01ZM336.95,692.42l-.95,7.58c9.88,1.18,11.48-8.46.95-7.58ZM291.98,703.49c-.55,3.03,7.11.92,9.02,1.51.8-6.96-6.95-8.04-9.02-1.51ZM312.98,703.49c-.55,3.03,7.11.92,9.02,1.51.8-6.96-6.95-8.04-9.02-1.51Z"/>
</svg>