<?xml version="1.0" encoding="UTF-8"?>
<svg id="_レイヤー_1" data-name="レイヤー 1" xmlns="http://www.w3.org/2000/svg" width="189.18mm" height="302.16mm" viewBox="0 0 536.26 856.51">
  <path d="M308.78,16.45c13.76,13.45,19.13,33.9,16.35,52.65,4.02-.69,8.43,1.98,12.3.8,1.6-.49,10.39-7.78,14.35-9.66,15.62-7.4,49.46-12.65,63.3-.58,2.4,2.09,6.25,9.48,7.05,9.95,1.28.76,10.99,2.03,14.02,2.98,16.29,5.06,43.13,22.56,42.01,41.98-.26,4.53-2.79,8.3-3.59,12.51,22.06,20.29,44.75,53.01,47.44,83.65.49,5.57-.7,12.53.35,17.65.87,4.25,5.45,11.96,7.06,16.94,6.66,20.53,7.12,36.9,6.75,58.32-.29,16.64-1.01,34.31-5.54,50.46s-12.32,32.57-24.26,44.62c4.5,17.88-4.25,33.53-23.23,34.88,8.7,11.76,15.56,25.28,16.86,40.14.7,8.01-.83,17.26.1,24.9.59,4.85,3.83,10.33,3.81,15.97-.01,3.01-1.81,6.8-1.56,9.77.52,6.21,5.29,16.92,6.49,24.52,1.62,10.29,3.38,27.51,2.18,37.6-.47,3.98-3.93,9.28-3.7,11.86.76,8.6,12.47,27.52,15.83,37.24,7.73,22.36,9.06,76.01,1.01,98.04-5.55,15.2-19.02,28.46-28.61,41.39-1.44,1.94-5.22,4.62-5.89,6.11-1.44,3.16-.56,12.18-2.75,18.25-11.31,31.49-50.65,29.98-78.07,32.93-20.38,20.9-49.03,25.55-77.25,23.85-23.15-1.4-49.92-10.89-62.37-31.42l-2.06-.62c-11.34,20.7-38.91,30.6-61.48,32.03-28.61,1.82-57.51-2.74-78.24-23.84-27.19-2.97-65.08-1.36-77.48-31.52-2.85-6.94-1.71-16.08-3.34-19.66-.69-1.51-4.14-3.76-5.46-5.54-8.79-11.87-21.28-24.52-27.19-37.81-9.71-21.82-8.87-76.19-1.86-99.2,3.48-11.43,15.93-30.01,16.85-40.22.23-2.57-3.23-7.89-3.7-11.86-1.17-9.84.63-26.54,2.18-36.6,1.18-7.64,6.36-20.5,6.64-26.36.14-2.81-1.58-6.58-1.55-9.77.05-5.32,2.92-9.69,3.53-14.25.95-7.1-.46-15.65.04-22.96,1.14-16.57,7.85-30.05,17.04-43.45-18.94-.22-27.56-17.06-23.16-34.31-16.16-17.02-27.4-44.7-28.88-68.16-.53-8.43-.84-19.56-1-28-.39-21.05.22-37.18,6.75-57.32,1.61-4.98,6.19-12.69,7.06-16.94,1.02-4.96-.19-11.5.24-16.76,2-24.35,18.85-53.23,34.47-71.53,2.68-3.14,12.71-10.96,12.36-14.22-.31-2.89-2.73-6.7-2.88-10.31-.82-19.96,26.37-37.48,43.02-42.96,3.92-1.29,10.7-1.74,13.77-3.23,2.15-1.04,6.19-7.48,9.31-9.69,16.88-12,51.19-5.17,68.26,4.62,6.42,3.68,8.38,8.77,18.09,4.93.62-7.71-.66-14.33.84-22.35,8.41-45,64.48-62.58,97.39-30.41ZM318.12,73.09c8.2-25.93-5.08-54.22-30.31-64.17-42.05-16.58-82.78,22.6-69.68,65.17l-19.27,1.87c-13.61-15.93-56.83-23.84-72.63-11.27-3.81,3.03-5.5,8.49-6.31,9.18-.66.57-13.97,2.57-16.99,3.51-18.13,5.64-51.21,27.69-34.97,49.45l.05,2.14c-21.48,17.45-42.73,48.18-47.6,75.9-1.51,8.61.38,17.15-.47,23.51-.31,2.32-4.41,8.37-5.57,11.45-8.13,21.61-9.96,38.72-9.28,61.8.11,3.85,2.03,8.47,2.07,12.01.06,4.95-1.39,10.14-1.02,15.93,1.03,15.96,8.02,37.06,16.18,50.82,2.04,3.44,12.33,15.42,12.62,16.41.9,3.04-1.42,10.76-.73,15.69,1.26,9.03,8.76,14.52,17.44,15.63l14.48-3.54c-13.11,16.63-23.66,32.02-25.05,53.95-.43,6.75.77,14.47.05,21.05-.42,3.85-2.6,7.14-3.01,10.99-.58,5.43,1.67,9.86,1.59,13.01-.13,4.88-6.21,20.04-7.31,27.28-1.29,8.41-3.31,27.51-2.04,35.49.59,3.74,4.84,8.6,4.61,10.97-.19,1.95-4.29,12.08-5.36,14.74-4.56,11.32-11.33,21.59-14.18,33.82-4.92,21.06-5.42,68.89,2.84,88.56,4.92,11.72,19.83,29.64,28.34,39.66,1.38,1.63,4.48,3.1,5.02,3.98,1.27,2.09.22,8.3.61,11.39,4.65,36.73,50.43,35.06,78.21,37.79,27.48,32.72,101.28,31.82,128.66.28,2.78-3.2,4.68-7.24,7.63-10.3,4.27-1.01,7.82,7.34,10.43,10.3,27.82,31.46,100.97,32.6,128.66-.28,27.22-2.56,73.11-1.05,78.05-36.95.45-3.24-.42-10.28.76-12.24.51-.84,4.88-3.53,6.49-5.51,7.48-9.17,20.54-24.39,25.49-34.51,10.44-21.34,9.69-75.83,2.54-98.52-2.73-8.65-7.75-16.5-11.21-24.79-1.3-3.11-6.41-15.09-6.61-17.35-.13-1.47,4.01-7.72,4.54-11.07,1.38-8.77-.62-27.26-2.03-36.48-1.24-8.09-6.04-18.49-6.69-25.4-.38-4.08,1.5-8.86.97-13.89-.41-3.85-2.58-7.13-3.01-10.98-.76-6.9.53-14.99.05-22.05-1.49-21.67-12.19-36.49-25.05-52.95l14.47,3.52c8.63-.64,16.23-6.88,17.46-15.62.66-4.68-1.47-13.19-.75-15.68.24-.82,8.03-9.1,9.65-11.41,9.88-14.05,18.24-38.63,19.23-55.77.32-5.48-1.07-11.26-.94-15.93.68-23.25,3.81-35.59-2.61-59.61-1.82-6.83-9.45-21.47-9.96-25.85s.83-10.67.45-15.64c-1.53-19.83-13.27-42.33-24.76-58.24-6.92-9.58-15.54-19.75-25.22-26.3l.02-1.44c19.58-22.35-16.36-44.52-35.25-49.82-3.29-.93-12.34-1.64-14.09-2.69-.63-.38-3.68-8.78-8.2-12.03-15.44-11.07-57.54-1.07-71.01,12.97l-20.49-1.99ZM291.3,51.56c0,12.8-10.38,23.17-23.17,23.17s-23.17-10.38-23.17-23.17,10.38-23.17,23.17-23.17,23.17,10.38,23.17,23.17ZM286.15,51.5c0-9.95-8.07-18.02-18.02-18.02s-18.02,8.07-18.02,18.02,8.07,18.02,18.02,18.02,18.02-8.07,18.02-18.02Z"/>
</svg>