<?xml version="1.0" encoding="UTF-8"?>
<svg id="_レイヤー_1" data-name="レイヤー 1" xmlns="http://www.w3.org/2000/svg" width="204.61mm" height="305.86mm" viewBox="0 0 580 867">
  <path d="M330.65,22.35c13.76,13.45,19.13,33.9,16.35,52.65,4.02-.69,8.43,1.98,12.3.8,1.6-.49,10.39-7.78,14.35-9.66,15.62-7.4,49.46-12.65,63.3-.58,2.4,2.09,6.25,9.48,7.05,9.95,1.28.76,10.99,2.03,14.02,2.98,16.29,5.06,43.13,22.56,42.01,41.98-.26,4.53-2.79,8.3-3.59,12.51,22.06,20.29,44.75,53.01,47.44,83.65.49,5.57-.7,12.53.35,17.65.87,4.25,5.45,11.96,7.06,16.94,6.66,20.53,7.12,36.9,6.75,58.32-.29,16.64-1.01,34.31-5.54,50.46s-12.32,32.57-24.26,44.62c4.5,17.88-4.25,33.53-23.23,34.88,8.7,11.76,15.56,25.28,16.86,40.14.7,8.01-.83,17.26.1,24.9.59,4.85,3.83,10.33,3.81,15.97-.01,3.01-1.81,6.8-1.56,9.77.52,6.21,5.29,16.92,6.49,24.52,1.62,10.29,3.38,27.51,2.18,37.6-.47,3.98-3.93,9.28-3.7,11.86.76,8.6,12.47,27.52,15.83,37.24,7.73,22.36,9.06,76.01,1.01,98.04-5.55,15.2-19.02,28.46-28.61,41.39-1.44,1.94-5.22,4.62-5.89,6.11-1.44,3.16-.56,12.18-2.75,18.25-11.31,31.49-50.65,29.98-78.07,32.93-20.38,20.9-49.03,25.55-77.25,23.85-23.15-1.4-49.92-10.89-62.37-31.42l-2.06-.62c-11.34,20.7-38.91,30.6-61.48,32.03-28.61,1.82-57.51-2.74-78.24-23.84-27.19-2.97-65.08-1.36-77.48-31.52-2.85-6.94-1.71-16.08-3.34-19.66-.69-1.51-4.14-3.76-5.46-5.54-8.79-11.87-21.28-24.52-27.19-37.81-9.71-21.82-8.87-76.19-1.86-99.2,3.48-11.43,15.93-30.01,16.85-40.22.23-2.57-3.23-7.89-3.7-11.86-1.17-9.84.63-26.54,2.18-36.6,1.18-7.64,6.36-20.5,6.64-26.36.14-2.81-1.58-6.58-1.55-9.77.05-5.32,2.92-9.69,3.53-14.25.95-7.1-.46-15.65.04-22.96,1.14-16.57,7.85-30.05,17.04-43.45-18.94-.22-27.56-17.06-23.16-34.31-16.16-17.02-27.4-44.7-28.88-68.16-.53-8.43-.84-19.56-1-28-.39-21.05.22-37.18,6.75-57.32,1.61-4.98,6.19-12.69,7.06-16.94,1.02-4.96-.19-11.5.24-16.76,2-24.35,18.85-53.23,34.47-71.53,2.68-3.14,12.71-10.96,12.36-14.22-.31-2.89-2.73-6.7-2.88-10.31-.82-19.96,26.37-37.48,43.02-42.96,3.92-1.29,10.7-1.74,13.77-3.23,2.15-1.04,6.19-7.48,9.31-9.69,16.88-12,51.19-5.17,68.26,4.62,6.42,3.68,8.38,8.77,18.09,4.93.62-7.71-.66-14.33.84-22.35,8.41-45,64.48-62.58,97.39-30.41ZM339.99,78.99c8.2-25.93-5.08-54.22-30.31-64.17-42.05-16.58-82.78,22.6-69.68,65.17l-19.27,1.87c-13.61-15.93-56.83-23.84-72.63-11.27-3.81,3.03-5.5,8.49-6.31,9.18-.66.57-13.97,2.57-16.99,3.51-18.13,5.64-51.21,27.69-34.97,49.45l.05,2.14c-21.48,17.45-42.73,48.18-47.6,75.9-1.51,8.61.38,17.15-.47,23.51-.31,2.32-4.41,8.37-5.57,11.45-8.13,21.61-9.96,38.72-9.28,61.8.11,3.85,2.03,8.47,2.07,12.01.06,4.95-1.39,10.14-1.02,15.93,1.03,15.96,8.02,37.06,16.18,50.82,2.04,3.44,12.33,15.42,12.62,16.41.9,3.04-1.42,10.76-.73,15.69,1.26,9.03,8.76,14.52,17.44,15.63l14.48-3.54c-13.11,16.63-23.66,32.02-25.05,53.95-.43,6.75.77,14.47.05,21.05-.42,3.85-2.6,7.14-3.01,10.99-.58,5.43,1.67,9.86,1.59,13.01-.13,4.88-6.21,20.04-7.31,27.28-1.29,8.41-3.31,27.51-2.04,35.49.59,3.74,4.84,8.6,4.61,10.97-.19,1.95-4.29,12.08-5.36,14.74-4.56,11.32-11.33,21.59-14.18,33.82-4.92,21.06-5.42,68.89,2.84,88.56,4.92,11.72,19.83,29.64,28.34,39.66,1.38,1.63,4.48,3.1,5.02,3.98,1.27,2.09.22,8.3.61,11.39,4.65,36.73,50.43,35.06,78.21,37.79,27.48,32.72,101.28,31.82,128.66.28,2.78-3.2,4.68-7.24,7.63-10.3,4.27-1.01,7.82,7.34,10.43,10.3,27.82,31.46,100.97,32.6,128.66-.28,27.22-2.56,73.11-1.05,78.05-36.95.45-3.24-.42-10.28.76-12.24.51-.84,4.88-3.53,6.49-5.51,7.48-9.17,20.54-24.39,25.49-34.51,10.44-21.34,9.69-75.83,2.54-98.52-2.73-8.65-7.75-16.5-11.21-24.79-1.3-3.11-6.41-15.09-6.61-17.35-.13-1.47,4.01-7.72,4.54-11.07,1.38-8.77-.62-27.26-2.03-36.48-1.24-8.09-6.04-18.49-6.69-25.4-.38-4.08,1.5-8.86.97-13.89-.41-3.85-2.58-7.13-3.01-10.98-.76-6.9.53-14.99.05-22.05-1.49-21.67-12.19-36.49-25.05-52.95l14.47,3.52c8.63-.64,16.23-6.88,17.46-15.62.66-4.68-1.47-13.19-.75-15.68.24-.82,8.03-9.1,9.65-11.41,9.88-14.05,18.24-38.63,19.23-55.77.32-5.48-1.07-11.26-.94-15.93.68-23.25,3.81-35.59-2.61-59.61-1.82-6.83-9.45-21.47-9.96-25.85s.83-10.67.45-15.64c-1.53-19.83-13.27-42.33-24.76-58.24-6.92-9.58-15.54-19.75-25.22-26.3l.02-1.44c19.58-22.35-16.36-44.52-35.25-49.82-3.29-.93-12.34-1.64-14.09-2.69-.63-.38-3.68-8.78-8.2-12.03-15.44-11.07-57.54-1.07-71.01,12.97l-20.49-1.99ZM313.17,57.45c0,12.8-10.38,23.17-23.17,23.17s-23.17-10.38-23.17-23.17,10.38-23.17,23.17-23.17,23.17,10.38,23.17,23.17ZM308.02,57.4c0-9.95-8.07-18.02-18.02-18.02s-18.02,8.07-18.02,18.02,8.07,18.02,18.02,18.02,18.02-8.07,18.02-18.02ZM356,527.01c4.47-.56,8.62,2.69,11.99-1.51-4.89-.06-12.53-2.69-11.82-8.72.81-6.86,11.52-9.06,14.89-3.34.58.98,2.05,11.81,1.94,13.05-.57,6.3-14.25,5.52-17.01.53ZM361.08,520.92c9.58,3.42,6.59-12.29,1.41-6.93l-1.41,6.93ZM318.87,520.88c-4.24,2.19-7.37,1.85-11.87,1.62,2.51,2.85,7.24,3.45,10.39,1.4,2.36-1.54,1.94-5.72,5.66-2.25,1.92,7.89-16.77,9.24-20.31,1.1-5.94-13.64,18.3-16.74,16.12-1.88ZM314,519c.77-6.16-3.4-6.13-7-2.48-.68,2.97,5.23,2.69,7,2.48ZM289.11,512.89c17.94,2.82,12.12,18.93-4.22,14.53-1.1-6.64-3.27-13.74-.79-20.32l3.98.33,1.03,5.46ZM289.01,525c7.3-.14,7.88-8.67,0-8v8ZM214,507.74l-.99,10.26-6,.49c1.32,3.87,3.61,2.29,6.96,2.54.22,9.9,6.13,11.15,5.04-.03l7.99-1.01-1.67-2.82-7.33-.17c-.64-2.1.24-11.05,2.89-6.39,1.44,2.52.76,6.23,5.11,5.38.55-6.23-6.23-13.41-12-8.25ZM333.96,511.67c-.32,2.99.64,18.29,6.08,14.88,2.89-3.1,1.73-10.12,6.95-10.54-1.92,6.34,7.52,17.06,6.58,6.97-1.61-17.19-13.76-7.26-14.56-7.98l-1.02-5-4.03,1.68ZM247.74,525.75c-8.12,8.68-26.25-5.99-14.46-12.96s19.57,7.5,14.46,12.96ZM241.74,515.26c-12.49-2.48-7.33,15.83,2.16,7.07l-2.16-7.07ZM252,511c.03,3.81,1.6,18.56,7.47,16.99,2.67-2.39,1-6.9,3.56-9.47,4.23-4.24,7.37,4.76,8.97-1.02-4.16-5.41-8.65-3.18-13.99-1.51l-1.15-4.87-4.86-.13ZM327.91,527.4l3.08.6c2.66-16.51-9.17-15.75-3.08-.6ZM330.56,507.94l-4.56-.93c-.22,3.42.78,7.7,4.99,6.99l-.43-6.06ZM416,343h-15v6.01c6.38-1.04,8.95,1.55,6.07,7.56-16.3,3.24-18.57-21.36-.54-19.59,4.92.48,6.97,4.91,7.37-4.88-10.14-3.97-23.05-3.7-27.38,7.93-7.26,19.52,13.61,28,29.47,21.97v-19ZM197,363h8.01s.93-13.56.93-13.56l9.06-.44v14h9v-33h-9.01s.01,13.01.01,13.01h-9.43s-.57-13.01-.57-13.01h-8.01v33.01ZM259,330v33h22v-7.01s-13,0-13,0l.44-6.07,11.57-.93v-6.01s-12.01.01-12.01.01v-6.01s13.01.01,13.01.01v-7.01h-22.01ZM231,330v33h22v-7.01s-13,0-13,0l.44-6.07,11.57-.93v-6.01s-12.01.01-12.01.01v-6.01s13.01.01,13.01.01v-7.01h-22.01ZM189.57,331.94c-8.94-4.98-28.98-2.1-23.05,12.04,2.29,5.46,16.06,6.6,15.42,10.41-.9,5.41-11.84,1.15-14.94-.39l-.56,7.05c7.95,4.29,23.25,4.82,24-6.9s-15.61-10.37-16.21-14.63c-.88-6.27,14.21-.91,14.76-1.52l.58-6.06ZM360.74,330.24c7.77-1.33,16.97.33,20.05,8.47,6.08,16.1-6.46,29.79-22.76,23.76-14.47-5.35-12.36-29.65,2.71-32.23ZM362.71,337.22c-7.08,1.62-7.72,15.99-.26,18.86,13.69,5.26,15.5-22.34.26-18.86ZM362.46,356.08c13.69,5.26,15.5-22.34.26-18.86-7.08,1.62-7.72,15.99-.26,18.86ZM275,282v33h8v-18l10.16,17.84,8.84.16v-33h-8v18c-7.82-6.13-5.91-21.1-19-18ZM338,295h-15v6.01c8.61-2.54,10.54,9.01,1.75,7.78-13.08-1.84-10.87-21.34,1.67-20.74,2.63.13,5.49,2.69,8.52,1.9l.98-5.84c-40.71-14.04-36.79,45.39,2.08,28.4v-17.5ZM421,315h9v-14l9.06.44.93,13.57h8.01v-33.01h-8.01s-.57,13.02-.57,13.02h-9.43s.01-13.02.01-13.02h-9.01v33.01ZM246,282v33h22v-7.01s-13.01.01-13.01.01v-6.43s12.01-.57,12.01-.57v-6.01s-12.01.01-12.01.01v-6.01s13.01.01,13.01.01v-7.01h-22.01ZM389.94,290.51c-.88,12.14,16.87,10.66,16.01,15.87-3.8,5.72-10.01.83-14.94-.39l-.92,6.91c9.36,6.28,32.37,1.1,23.36-12.85-3.01-4.65-14.49-5.17-14.5-8.54-.02-7.05,13.08-.66,14.04-1.51l1.02-7c-7.77-1.23-23.25-3.77-24.06,7.51ZM171,282v33h22v-7.01s-13,0-13,0v-26h-9ZM345,282v33h22v-7.01s-13,0-13,0v-26h-9ZM374,282v33h9v-33h-9ZM142.73,282.23c12.32-2.51,22.68,2.97,22.71,16.27.06,25.51-40.39,21.96-32.96-6.53,1.02-3.9,6.3-8.94,10.26-9.74ZM145.72,289.21c-7.11,1.61-6,17.09-1.03,18.59,15.83,4.78,16.53-22.1,1.03-18.59ZM144.69,307.8c15.83,4.78,16.53-22.1,1.03-18.59-7.11,1.61-6,17.09-1.03,18.59ZM199,315v-33h14.5c7.54,0,13.52,9.42,13.49,16.5-.03,5.95-6.02,16.5-12.49,16.5h-15.5ZM208,308c14.13,3.16,14.1-22.17,0-19v19ZM208,289v19c14.13,3.16,14.1-22.17,0-19ZM318,363v-33c15.17-.82,29.02.67,27,19.51-.58,5.37-5.75,13.49-11.5,13.49h-15.5ZM326,337v18.5c0,2.59,9.49,1.68,10.76-5.23,1.58-8.6-1.43-14.28-10.76-13.27ZM326,355.5c0,2.59,9.49,1.68,10.76-5.23,1.58-8.6-1.43-14.28-10.76-13.27v18.5ZM288,330c11.09-.55,29.59-.59,24.23,15.73-2.27,6.9-9.97,7.41-16.23,7.26v10.01s-7.99,0-7.99,0v-33ZM296,337l.47,9.05c11.01,2.45,12.09-11.57-.47-9.05ZM296.46,346.05c11.01,2.45,12.09-11.57-.47-9.05l.47,9.05ZM362.49,513.99l-1.41,6.93c9.58,3.42,6.59-12.29,1.41-6.93ZM307,516.51c-.68,2.97,5.23,2.69,7,2.48.77-6.16-3.4-6.13-7-2.48ZM289,517v8c7.3-.14,7.88-8.67,0-8ZM213.01,223.5c-.82,4.53-.25,15.41,6.48,12.49l3.52-10.99c3.26,1.55.59,7.8,3.96,9.52,5.39,2.75,3.08-6.64,6.52-8.51.75-.01,4.66,17.15,7.38,8.32.76-2.47-2.16-11.4-4.55-12.21-2.53-1.46-6.15,2.04-7.69,1.73-3.09-.63-5.03-7.17-10.63,1.14.53-4.41-4.2-5.89-5-1.5ZM292,238c-3.67-1.86-7.89.92-10.34.74-12.83-.94-9.3-19.42,4.35-15.73v-7c9,.64,5.15,15.54,5.99,22ZM279.1,234.9c3,.83,5.43-1.13,6.79-3.61.69-2.67-4.08-7.16-6.4-4.31-1.96,2.54-1.66,5.12-.4,7.92ZM301.01,231c1.08,5.24,7.2,4.12,10.4,1.86,1.4-.98,1.37-3.61,3.08-2.85,6.28,2.76-4.45,12.45-14.82,5.82-15.54-9.94,10.9-24.88,12.9-6.84-2.94,3.43-7.58,3.96-11.56,2.01ZM307,224.01c-.99-.95-6.27.46-6.98,2.5,3.34,5.47,9.66.1,6.98-2.5ZM320.28,234.74c-4.83-5.24,5.03-9.76,9.72-9.23-1.6-2.94-10.3-.77-11-1.51v-2.97c9.2-2.71,16.96.38,17.9,10.59.22,2.4.77,4.83-1.39,6.36-3.4-3.56-10.99,1.36-15.23-3.24ZM323.99,233l7.99-1.5c-2.07-2.4-4.57-2.95-7.38-1.58l-.6,3.07ZM261.94,233.44c.35-2.12.54-10.93-.91-11.98-4.64-3.36-4.68,9.35-9.43,9.49-3.4-2.31-3.94-5.2-3.09-9.01l-3.54-1.5c-5.6,6.86,3.51,16.06,11.01,13.57-.61,5.16-5.62,3.28-8.99,3.01,4.44,6.09,13.7,3.97,14.94-3.57ZM339.92,223.49c-.21,3.14,2.48,14.62,6.6,14.3,3.35-.26,1.67-11.58,7.76-10.66,1.97.3,3.67,3.55,5.71.37-3.64-4.59-9.4-4.53-13.97-1.5.59-5.31-5.65-9.25-6.09-2.51ZM363.51,216.01c-3.57,1.8-.94,17.47,2.48,14.99.95-2.56,3.11-16.76-2.48-14.99ZM285.89,231.29c.69-2.67-4.08-7.16-6.4-4.31-1.96,2.54-1.66,5.12-.4,7.92,3,.83,5.43-1.13,6.79-3.61ZM300.02,226.5c3.34,5.47,9.66.1,6.98-2.5-.99-.95-6.27.46-6.98,2.5ZM331.98,231.5c-2.07-2.4-4.57-2.95-7.38-1.58l-.6,3.07,7.99-1.5ZM321.64,472.85l8.35,2.64c-2.43,3.6-5.72,1.12-8.99,2.01,4.47,5.35,13.29,3.51,14.78-3.21.58-2.6,1.51-16.59-3.85-12.85-1.72,1.2-2.31,10.49-7.4,9.6-2.13-2.93-2.94-6.45-2.54-10.05-8.15-1.19-4.77,8.48-.35,11.86ZM289.13,456.13c-1.22.75-.12,17.49,1.42,19.83.63.95,3.15,2.64,3.99,1.08l.42-6.37,2.56-1.61c3.21,3.36,2.09,9.05,8.48,7.95l-3.06-9.43,3.05-2.06-.99-2.51-11,3-1.14-9.85-3.74-.02ZM256.99,467c.71-5.11-12.14-1.44-11.97-4.5,3.26-4.06,11.07-2.6,14.51.47,2.57,2.29,6.19,13.01,2.47,14.6-1.03.44-1.94-1.34-3.27-1.31-1.25.02-2.72.89-4.23.83-14.65-.53-8.61-14.17,2.48-10.08ZM257.99,472.99c-.54-4.38-5.89-5.24-7.98-1.48-1.03,2.65,6.74,2.44,7.98,1.48ZM265.96,462.54c-.43,2.68,2.12,16.8,6.06,14.01,2.93-3.09,1.75-10.12,6.97-10.54,3,21.99,11.44,5.73,3.55-2.04-5.3-5.23-10.49,2.18-11.54,1.04,1.38-4.67-4.24-7.47-5.04-2.46ZM364.48,474.02c1.06,1.02,4.71,2.92,6.12,2.99,3.18.17,3.79-3.04,5.71-2.86,1.47.13,5.77,3.79,6.68,2.84l-5.43-14.11c-6.83-2.85-4.03,7.1-8.06,10.1-1.88,0-3.99-9.99-3.51-11.98-7.58-1.96-4.89,9.77-1.51,13.02ZM225.23,459.81c-.13,2.58.91,15.72,2,16.94.49.55,2.58,1.73,3.24.24,2.09-1.96.37-11.83,4.01-10.99,3.27,1.86,2.48,9.01,3.73,10.76,1.74,2.42,5.07,1.48,4.57-2.98-.86-7.69-4.63-12.2-12.79-10.77,1.32-4.93-4.36-11.08-4.77-3.2ZM354.72,462.29c1.22.99,4.32,7.65,4.23,9.26-.52,9.34-22.49,7.59-19.74-4.83,1.29-5.83,11.6-7.61,15.51-4.43ZM350.87,464.13c-10.64-1.33-8.54,14,1.7,8.94,1.47-3.18-.66-6.07-1.7-8.94ZM214.48,457.02c-6.28-.56-12.47.34-18.48,1.99,2.56,4.68,6.95,2.14,10.99,1.98-.32,2.67,1.54,15.4,3.5,16.03l2.52-.6-1.01-15.41h10.99c.35-3.45-6.09-3.77-8.51-3.99ZM250.01,471.51c-1.03,2.65,6.74,2.44,7.98,1.48-.54-4.38-5.89-5.24-7.98-1.48ZM352.57,473.07c1.47-3.18-.66-6.07-1.7-8.94-10.64-1.33-8.54,14,1.7,8.94ZM243.9,522.33l-2.16-7.07c-12.49-2.48-7.33,15.83,2.16,7.07ZM334,670c5.31-.03,18.46-1.29,16.84,7.26-.74,3.89-4.37,2.72-3.84,5.72,4.74,1.02,6.41,6.19,3.48,10.01-3.35,4.37-11.63,2.71-16.48,3.01v-26ZM345.76,674.22l-6.81-.8c-5.55,14.04,12.66,5.04,6.81.8ZM339.64,684.13c-2.46.82-2.21,6.52-.69,8.45l7.61-1.52-.47-5.66c-1.28-1.61-4.61-1.89-6.45-1.27ZM253,696h4c-.36-5.84-.62-20.05,7.87-13.36l.13,13.37h5.01c.11-10.12.98-23.37-13-17.01v-10s-4.01,0-4.01,0v27ZM309,687.99h-12.99c-.26,1.79.3,3.68,2,4.49,3.67,1.76,6.47-1.47,8.99,1.03.66,3.72-10.68,3.37-13.44.43-11.75-12.51,14.34-27.45,15.44-5.95ZM298.7,680.13c-1.39.4-4.64,4.33-2.73,5.4,1.48.9,8.91.96,9.01-1.02-1.53-2.51-2.75-5.39-6.27-4.37ZM329,688h-13c.31,6.32,6.46,5.89,10.99,4l-1.65,3.84c-4.6.75-11.24.51-12.89-4.78-5.21-16.71,18.28-19.62,16.55-3.05ZM325,686c.88-4.82-3.19-7.11-7.31-5.07-1.51,1.36-2.6,4.13-.04,4.92l7.35.15ZM228,670v4s8,0,8,0v22h4v-22h8s0-4,0-4h-20ZM275,696h4c-.6-7.59-.3-15.23,9.02-15.5l-.02-3.49-8.5,3.99-.59-2.88-3.91-.12v18ZM338.95,692.58l7.61-1.52-.47-5.66c-1.28-1.61-4.61-1.89-6.45-1.27-2.46.82-2.21,6.52-.69,8.45ZM338.95,673.42c-5.55,14.04,12.66,5.04,6.81.8l-6.81-.8ZM295.97,685.53c1.48.9,8.91.96,9.01-1.02-1.53-2.51-2.75-5.39-6.27-4.37-1.39.4-4.64,4.33-2.73,5.4ZM317.69,680.93c-1.51,1.36-2.6,4.13-.04,4.92l7.35.15c.88-4.82-3.19-7.11-7.31-5.07ZM143.08,576.41c4.75,3.44,6.08-.3,8.41-.39,2.16-.08,6.44,4.53,7.57-.95l3.57,1.82c4.54.81-1.49-9.78.36-12.89-6.36-.82-4.75.7-6.34,5.22-.47,1.35-.08,3.26-2.16,2.79l-1.55-8.98c-8.45-.49-2.64,5.67-6.46,9.96-2.35-.05-1.32-9.12-1.5-10.98-7.65-1.95-6.01,11.45-1.91,14.41ZM231,579c-5.94-1.71-17.01,3.09-18.82-5.74-1.55-7.6,6.53-10.87,12.82-9.27l-.99-6.99c9.11-1.11,5.88,15.76,6.99,22ZM219.64,567.15c-3.29.6-4.1,8.8-.19,8.86,7.38-.37,5.41-9.82.19-8.86ZM462,579c-6.3-1.42-18.85,2.88-18.85-7.5,0-7.13,7.11-8.25,12.86-7.5v-7c3.31-1.19,6,4.14,6,6.5v15.5ZM449.09,575.9c11.12,1.05,5.61-12.41.33-8-2.41,2.22-1.35,5.28-.33,8ZM403.01,572c1.24,6.06,10.92,4.15,12.05-.96l3.69,2.44c-3.59,9.6-21.79,5.59-21.8-3.98,0-10.03,18.68-10.92,17.61.49-2.91,3.45-7.59,3.95-11.54,2.01ZM407.51,564.03l-5.49,3.47c3.82,4.01,10.05,2.43,5.49-3.47ZM239,572.01c4.08,6.08,9.63,4.13,13.51-1.01,4.48-1.01,2.92,8.15-7.02,8.08-11.83-.08-16.22-15.36-5.93-17.02,16.24-2.62,15.06,15.69-.56,9.94ZM244.99,564c-1.15.22-6.82,1.66-5.98,3.49,1.74,2.36,6.93,3.98,6.97.08l-.98-3.57ZM127.99,578c-3.93-1.32-7.58.52-11.43-.04-6.7-.97-7.83-8.61-1.61-10.5,2.31-.7,6.11.44,7.04-1.44l-10.32-1.18-1.66-2.82c12.25-4.16,19.55,3.92,17.99,15.98ZM114.99,574l7.99-1.5c-2.07-2.4-4.57-2.95-7.38-1.58l-.6,3.07ZM190.17,562.66c-1.11,3.5.19,15.33,5.85,14.88l4.09-10.43c4.39-1.54,2.8,4.95,4.67,8.61,2.18,4.27,4.85,1.49,4.72-1.83-.35-9.02-6.55-14.97-14.5-7.89,1.38-4.01-3.57-7.36-4.84-3.34ZM286.01,568l-5.99,1.5c1.76,2.65,3.98,2.6,6.91,2.57l1.07,6.29c5.72,3.38,3.44-6.8,4-7.36,2.17-.15,6.83.87,7.99-1.51.96-1.96-2.08-1.57-3.17-1.79-1.95-.4-3.79-.89-5.81-.7v-6.99c4.31-.06,2.88,7.16,7.99,5.99-1.43-13.3-15.71-12.39-12.99,2.01ZM420.98,563.52c-.6,3.41,1.67,17,6.92,13.37l4.61-9.89,4.47,9.5,1.51,1.47c3.69-2.02,2.01-7.26.56-10.54-4.15-9.42-12.58-.81-13.05-1.44,1.34-4.6-4.13-7.53-5.03-2.48ZM307.56,562.94l-4.56-.94c-2.3,9.35,6.32,21.61,14.5,12.03,2.02,2.7,4.12,3.45,7.49,2.97.13-2.67-2.71-3.47-3.77-5.72-1.24-2.61-.71-5.46-2.17-7.86l-4.84.81c-1.4,13.32-6.37,9.94-6.65-1.29ZM351.14,557.14l-1.13,10.86-5.99,1.5c1.76,2.62,4.01,2.7,6.96,2.52-.16,3.97.62,10.24,4.94,5.33l-.92-6.35c2.95-.33,6.77,1.16,8.97-1.51-1.62-2.9-9.17-1.58-9.92-4.12-.19-.63.54-6.36,2.42-5.37l2.65,5.85,3.86.13c.58-.49-2.34-6.93-3.28-7.7-2.02-1.67-6.05-1.51-8.58-1.15ZM173.71,562.22c6.69-1.53,12.34,1.23,13.26,8.38,1.41,10.97-17.61,9.6-19.52.42-.76-3.67,2.74-7.99,6.26-8.8ZM175.72,565.15c-5.8,1.59-4.75,12.19,3.57,9.65,5.07-1.54,1.77-11.12-3.57-9.65ZM366.05,563.4c-.06,3.17,2.84,16.43,7.43,15.6l3.93-10.09c3.45-2.72,5.15,1.28,8.08,1.09,1.87-6.26-8.69-6.1-12.48-3.01l-2.14-5.86c-2.04-.57-4.78-.31-4.83,2.26ZM257.92,564.49c-.2,3.17,2.37,14.78,6.6,14.46,3.77-2.56,1.1-11.34,6.91-10.97,2.4.15,4.47,3.71,6.56.52-3.38-5.02-9.34-4.38-13.97-1.5.59-5.32-5.67-9.25-6.09-2.51ZM328.02,575.49c.66,3.61,4.72,3.82,4.56-.48-.1-2.86-.25-17.93-3.08-17.99-3.77-.08-2,15.65-1.48,18.47ZM393.49,577.99c2.12-.5-.14-8.38.36-10.34l-.79-1.21-3.04-.44c-1.35,2.75-1.21,13.08,3.47,11.98ZM393.56,557.94l-4.56-.93c-.36,3.2,1.18,7.79,4.99,7.99l-.43-7.06ZM219.45,576.01c7.38-.37,5.41-9.82.19-8.86-3.29.6-4.1,8.8-.19,8.86ZM449.42,567.91c-2.41,2.22-1.35,5.28-.33,8,11.12,1.05,5.61-12.41.33-8ZM402.02,567.5c3.82,4.01,10.05,2.43,5.49-3.47l-5.49,3.47ZM239.01,567.49c1.74,2.36,6.93,3.98,6.97.08l-.98-3.57c-1.15.22-6.82,1.66-5.98,3.49ZM122.98,572.5c-2.07-2.4-4.57-2.95-7.38-1.58l-.6,3.07,7.99-1.5ZM179.29,574.8c5.07-1.54,1.77-11.12-3.57-9.65-5.8,1.59-4.75,12.19,3.57,9.65Z"/>
</svg>