<?xml version="1.0" encoding="UTF-8"?>
<svg id="_レイヤー_1" data-name="レイヤー 1" xmlns="http://www.w3.org/2000/svg" width="204.61mm" height="305.86mm" viewBox="0 0 580 867">
  <path d="M115.5,537c-3.03-.32-9.62-2.2-12.5-3.5-4.27-1.93-7.31-6.43-10.27-7.73-10.6-4.67-20.37-2.68-27.93-15.07-3.25-5.33-1.88-7.09-3.01-11.99-.43-1.88-2.33-3.68-3.09-5.91-5.07-14.83,6.41-22.9,11.29-35.77-7.48-2.41-12.49-10.2-12.1-17.92-35.34-8.38-34.56-57.25-25.9-85.09-18.8.71-31.72-18.5-20-34.51,7.57-10.35,22.45-14.86,27.99-28.01-10.82-4.08-15.77-13.48-13.93-24.93.94-5.85,8.46-12.78,11.46-18.54,10.63-20.43,11.17-51.04,16.16-73.84,18.85-86.04,93.2-100.03,157.79-47.16,6.04,4.94,16.01,16.94,21,20,1.84,1.13,3.97,1.31,5.96,1.99,13.48-55.38,89.36-55.81,102.09,0,7.04-.21,6.77-2.85,10.46-6.54,37.14-37.11,94.95-67.82,142.5-28.44,37.74,31.26,30.67,78.19,43.03,119.97,4.11,13.89,10.21,17.54,15.05,27.95,5.76,12.41.28,24.9-12.48,29.12.96,12.59,11.72,14.13,19.85,20.51,21.35,16.75,15.51,41.41-11.92,42.43,9.08,27.73,9.61,75.64-24.8,85.2-.55,8.93-5.09,14.49-12.12,19.39,4.66,13.02,16.52,15.58,13.68,31.66-.42,2.39-2.09,4.41-2.53,6.47-1.87,8.81.07,12.11-7.71,19.29s-14.97,6.09-23.26,9.74c-2.43,1.07-4.12,4.15-6.33,5.67-12.89,8.89-35.95,6.29-50.94,5.57,7.49,10.07,12.93,20.93,16.49,33,1.12,3.79.97,7.99,1.95,11.05.79,2.45,4.84,5.73,6.42,9.58,1.08,2.63,2.2,6.03,2.2,8.87,0,2.3-2.72,13.83-3.51,16.56-3.02,10.46-9.9,14.99-19.62,18.6-.73,3.03,2.56,13.64,3.79,17.11,2.61,7.36,6.99,12.53,9.75,19.25,5.56,13.52,5.99,28.94,3.22,43.18-.93,4.8-7.32,18.74-7.33,20.29s3.16,8.57,3.5,12.13c3.17,32.57-29.84,41.84-56.21,40.34-18.82,33.5-71.8,26.9-91.35-2.77-5.73.78-19.56-3.37-23.88-.26-1.38.99-2.96,4.86-4.45,6.55-13.6,15.43-30.05,20.34-50.51,18.56-14.96-1.3-27-10.08-34.14-22.92-28.65,4.17-72.75-1.98-68.22-40.51.39-3.3,3.52-9.57,3.52-11.11,0-.91-5.82-13.08-6.75-16.87-4.21-17.03-3.64-33.31,3.95-49.3,1.68-3.54,4.71-6.94,6.37-10.63,4.75-10.57,5.9-22.39,7.81-33.68-22.64.45-45.5-26.02-22.94-43.44,1.54-1.19,5.06-2.05,5.68-2.82.96-1.18,1.27-6.38,1.97-8.53,3.82-11.72,8.81-22.37,16.28-32.22-6.9-.53-14.72.72-21.5,0ZM24.5,348c4.02.81,10.18-.59,14.5,0-4.64,17.75-8.89,33.63-5.72,52.22,2.46,14.45,11.47,36.78,29.72,31.78-1.4,10.58,2.85,20.15,14,22.01-2.73,11.84-16.64,23.59-13.57,36.06.7,2.82,2.94,4.14,3.36,5.63,1.1,3.91-.34,5.85,2.03,10.97,5.73,12.37,19,10.12,28.11,14.89,2.08,1.09,4.17,4.42,6.93,6.07,11.78,7.07,29.09,3.63,42.14,3.36-3.78,9.49-10.9,17.06-15.17,26.32-3.54,7.68-6.11,16.07-6.99,24.5-8,1.9-13.74,6.4-14.25,15.02-.94,15.79,18.42,22.52,31.42,22.14-.38,13.29-2.51,29.2-8.13,41.38-1.97,4.27-5.44,8.17-7.37,12.63-6.61,15.36-5.94,33.9-.53,49.51,1.14,3.28,4.75,8.35,5.02,11.08.34,3.47-3.61,10.11-3.99,14.91-1.26,16.25,10.36,27.09,25.15,30.83,14.38,3.63,27.59,2.38,42.17,1.62,10.57,28.28,52.29,29.51,72.2,11.07,3.2-2.96,7.96-11.62,10.08-12.92,7.18-4.4,22.9,1.34,31.24.05,14.94,30.37,67.97,35.06,83.86,2.82,26.2,1.51,61.52-6.96,52.6-40.78-.54-2.06-2.93-5.45-2.93-6.7,0-1.15,7.17-16.58,8.17-21.47,6.6-32.38-5.47-36.05-13.55-61.52-2.09-6.6-3.41-14-4.05-20.91,10.01-2.61,17.54-5.9,20.63-16.54.63-2.19,3.15-13.7,3.08-15.42-.35-8.3-7.46-10.92-8.44-14.35-.61-2.13.14-4.58-.3-6.7-1.81-8.64-4.53-16.5-8.73-24.27-2.85-5.27-16.8-20.21-4.68-21.33,13.77-1.27,40.26,3.94,50.45-6.56,1.34-1.38,1.86-4,2.24-4.26.54-.36,10.29-1.89,12.78-2.72,7.63-2.53,15.76-6.77,17.6-15.4.57-2.69.02-5.33.5-7.5,1.55-7.05,5.77-10.45.39-18.51-1.59-2.38-4.27-3.2-5.48-4.79-1.08-1.42-8.14-15.8-7.94-16.7,12.61-4.76,15.27-13.75,13.98-26.56,8.49,9.93,19.42-3,23.53-10.96,5.95-11.51,7.37-27.61,6.33-40.41-.81-9.94-4.6-18.91-5.88-28.63,19.7,3.34,35.21-14.25,18.53-30.02-5.43-5.13-16.73-9.4-20.22-13.27-1.57-1.75-8.48-17.54-7.31-18.7,12.9.48,20.42-12.45,14.22-23.71-5.81-10.55-10.7-13.88-14.71-27.29-12.6-42.2-5.05-94.5-47.6-122.4-40.94-26.85-86.12-5.9-118.92,22.89-9.33,8.19-14.14,18.82-28.41,18.55-5.28-41.27-56.25-58.46-83.09-25.05-6.4,7.97-7.61,13.83-9.51,23.51-.28,1.41.77,1.63-1.47,1.51-2.07-.11-10.84-1.79-12.46-2.56-3.39-1.63-13.93-14.36-18.04-17.96-61.83-54.16-135.24-43.61-153.55,42.48-4.81,22.64-5.37,52.62-15.92,73.08-5.23,10.14-17.68,17.55-8.55,30.46,3.61,5.1,7.05,5.26,12.5,6.52.92.21,2.12-.58,1.49,1.46-.84,2.72-8.23,12.94-10.47,15.53-5.97,6.89-14.54,10.79-20.06,16.94-7.84,8.72-4.05,24.82,7.05,27.05ZM310.71,159.3c0,11.59-9.4,20.99-20.99,20.99s-20.99-9.4-20.99-20.99,9.4-20.99,20.99-20.99,20.99,9.4,20.99,20.99ZM305.4,159.36c0-8.66-7.02-15.68-15.68-15.68s-15.68,7.02-15.68,15.68,7.02,15.68,15.68,15.68,15.68-7.02,15.68-15.68ZM221.04,282.38c1.2,11.73,8.22,6.62,8.97-2.38,3.18-.76,1.64,2.75,2.44,5.04.69,1.99,3.5,4.65,4.53,2.31l2.03-7.35c2.56-2.39,2.61,7,3.16,7.79,4.22,6.01,5.88-9.98-.89-11.66-1.95-.69-3.56,1.57-4.96,1.7-2.34.22-6.82-5.36-10.32,1.17-1.04-8.08-5.55-2.29-4.97,3.38ZM308.44,289.93c5.26-.82,6.97-6.9,1.63-5.98l-2.34-7.67c-17.51-5.71-18.27,16.62.71,13.66ZM302.96,524.54c4.82,4.35,20.39,3.81,14.54-4.52-3.39,3.98-6.86,6.78-11.49,2.48,6.57.95,14.14-3.19,7.74-9.23-5.47-5.16-19.68,3.26-10.79,11.28ZM338.99,613c-5.09-1.73-10.79,1.84-15.03-2.45-6.04-6.11,3.08-13.54,10.03-11.55l-.99-5.99c8.53.34,5.37,13.97,5.99,19.99ZM328.53,602.01c-2.28.67-2.58,8.14.97,8.04l4.42-4.4-5.39-3.64ZM291.99,291c-5.13-1.97-10.83,1.83-15.03-2.45-6.32-6.44,3.06-13.31,10.04-11.55l-.99-5.99c8.24.16,5.41,14.14,5.99,19.99ZM286.31,283.98c0-2.03-1.64-3.67-3.67-3.67s-3.67,1.64-3.67,3.67,1.64,3.67,3.67,3.67,3.67-1.64,3.67-3.67ZM295.01,599.48c-5.73-6.31-18.52.83-12.02,9.03,4.22,5.32,17.81,6.29,17-2.51-5.2.38-8.3,7.88-12.99,1,5.72,1.13,13.84-1.12,8.01-7.53ZM316.01,277.99l10.01,1.51c-.02.76-9.53-.36-10.06,5.05.97,7.58,10.71,4.17,16.04,5.45.99-1.02-1.84-11.27-3.27-12.72-2.27-2.3-12.87-4.47-12.72.72ZM349,526.01l10-.03c.79-3.28-3.53-1.59-6.06-2.42-6.98-2.31-4.49-13.74,4.35-12.39,7.02,1.08,6.27,11.3,5.83,16.38-4.18,3.62-10.87,2.76-14.12-1.54ZM357.98,514.01c-7.83-.35-5.7,11.34.57,4.97l-.57-4.97ZM289.05,513.95c.34.35,6.59.15,8.84,3.65,5.8,9.04-9.54,11.76-12.4,8.41-2.22-2.59-2.97-18.97,2-18.01,2.2.43,1.17,5.53,1.57,5.94ZM289,517c.19,2.71-1,6.05,1.5,7.98,4.52-3.02,5.01-7.73-1.5-7.98ZM249.01,275c-.96,8.49,2.4,12.74,10.99,12.5-2.2,3.04-4.78,3.17-7.99,1.51-1.74,2.01,5.06,4.48,8.02,3.59,6.54-1.97,4.23-10.03,5.86-15.01-7.03-6.45-4.15,7.26-11.88,6.42l-1.02-9h-3.99ZM238.95,602.96l-4.93,1.54c1.11,2.41,5.38,1.02,5.93,1.55.35.34-.12,7.17,3.53,6.95l.51-6.99,8.01-1.01-8.59-3.93c-.67-2.63.44-7.29,2.83-3.76,1.3,1.92.93,4.47,4.76,3.7-2.53-11.87-13.47-10.9-12.04,1.96ZM303.01,597c0,2.87-.52,11.93,1.96,13.54,6.26,4.06,3.23-8.41,9.03-8.53l2.12,8.88,3.89.11c.03-9.49-2.84-15.89-12.98-10v-4.01s-4,0-4,0ZM343.59,514.91c-2.39-1.82-7.28-1.42-9.09,1.07-2.87-6.73-6.18-6.35-5.36,1.38.39,3.67.88,9.36,5.85,8.63l5-9.99,2.53,8.98,3.47,1.01c1.07-3.65-.29-7.96-2.4-11.09ZM252.69,524.71c-7.25,8.83-25.11-6.34-11.44-11.95,8.52-3.49,15.76,6.68,11.44,11.95ZM243.7,515.15c-3.69,1.04-3.78,7.55,0,8.67,8.31,2.47,6.14-10.4,0-8.67ZM223.14,508.14l-1.13,9.87h-5c-.25,3.61,3.63,3.09,6,2.99-.71,9.84,4.16,8.54,4.93-.56l6.06-.44-1.23-2.26-6.77-.74,1.51-6.98c2.79,2.05.74,7.15,5.49,5.97.88-.88-1.15-5.79-2.28-6.7-1.89-1.51-5.25-1.58-7.57-1.16ZM256.19,514.26c-.11,3.41,2.47,15.06,7.81,12.74l2.1-8.91c1.84-1.3,8.91,3.97,7.9-.59-.7-3.14-9.77-3.15-11.99-.51l-1.1-4.91c-2.04-.39-4.64-.45-4.73,2.17ZM254.01,597c.68,5.57.24,16.11,7.99,15-.12-2.32-.17-7.22,1.98-8.54,3.62-2.22,5.3,3.63,8,.03-3.37-4.18-7.63-4.53-11.96-1.5-.44-3.72-2.1-5.67-6.01-5ZM337.4,275.09l-3.31,1.54c1.03,4.36,1.21,15.8,7.91,12.73-.49-1.47,1.39-7.76,2.14-8.23,2.72-1.68,5.78,3.33,7.85.36-3.26-4.7-7.52-4.38-11.96-1.5l-2.62-4.91ZM355.02,284h2.97c2.02-17.89-6.99-16.54-2.97,0ZM323.51,516.01c-2.98.62-1.67,12.84,3.48,10.99.42-1.93-.14-11.69-3.48-10.99ZM275.01,601c-.62,3.54-1.73,11.81,3.99,10.99-.22-3.96,1.67-10.46-3.99-10.99ZM274.01,593c-.22,3.42.78,7.7,4.99,6.99-.18-3.1-.77-7.85-4.99-6.99ZM385,360h9v-19l11.01,18.49,8.99.51v-35h-9v19l-11.01-18.49-8.99-.51v35ZM360.77,324.28c14.71-.3,20.92,11.3,17.8,24.79-3.43,14.83-27.89,15.78-33.77,1.63-5.24-12.63,1.72-26.13,15.97-26.42ZM367.74,334.25c-4.09-4.42-13.57-2.61-14.68,4.3-1.27,7.93.7,15.8,10.36,14.4,7.39-1.07,8.26-14.45,4.32-18.7ZM228,359.99l-9.06-.44-1.82-5.98-9.99-.45-2.76,6.75-8.37.12,11.14-34.86,10.38.85,10.48,34.01ZM212.99,334c-2.59-.28-1.59,0-2.02,1.47s-2.44,10.07-1.97,10.53h6l-2.01-12ZM250.5,325c18.5,3.07,9.96,28.67-7.51,24v11.01s-8.99,0-8.99,0v-35c5.07.58,11.67-.8,16.5,0ZM250.76,340.76c3.64-7.23-.7-9.77-7.76-8.77v10.01s7.76-1.24,7.76-1.24ZM315,325v35h24v-7h-14v-28h-10ZM285,325v35h24v-7.01c-.97-.98-13.16,1.73-15-1.49v-26.5h-9ZM266,325v35h11v-35h-11ZM353.06,338.56c-1.27,7.93.7,15.8,10.36,14.4,7.39-1.07,8.26-14.45,4.32-18.7s-13.57-2.61-14.68,4.3ZM210.97,335.46c-.45,1.53-2.44,10.07-1.97,10.53h6l-2.01-12c-2.59-.28-1.59,0-2.02,1.47ZM182.5,325c18.5,3.07,9.96,28.67-7.51,24v11.01s-8.99,0-8.99,0v-35c5.07.58,11.67-.8,16.5,0ZM182.76,340.76c3.64-7.23-.7-9.77-7.76-8.77v10.01s7.76-1.24,7.76-1.24ZM175,332v10.01s7.76-1.24,7.76-1.24c3.64-7.23-.7-9.77-7.76-8.77ZM243,332v10.01s7.76-1.24,7.76-1.24c3.64-7.23-.7-9.77-7.76-8.77ZM329.5,610.04l4.42-4.4-5.39-3.64c-2.28.67-2.58,8.14.97,8.04ZM282.64,280.3c-2.03,0-3.67,1.64-3.67,3.67s1.64,3.67,3.67,3.67,3.67-1.64,3.67-3.67-1.64-3.67-3.67-3.67ZM358.55,518.97l-.57-4.97c-7.83-.35-5.7,11.34.57,4.97ZM290.5,524.98c4.52-3.02,5.01-7.73-1.5-7.98.19,2.71-1,6.05,1.5,7.98ZM301,564.41c1.13,10.97,20.96,8.8,18.95,2.17-4.17-1.3-3.49-6.64-5.19-8.35-3.22-3.25-14.56-1.59-13.76,6.17ZM218.08,557.07c-.69,3.9-1.49,7,.71,10.65,3.03,5.01,5.51,2.47,9.61,2.36,1.2-.03,2.62,1.05,4.07.91,2.01-.19,3.9-2.96,7.53-1l-1.96-10.52-4.11-.04-2.42,7.57-1.97-8.04c-7.21-2.84-2.68,4.9-6.04,8.02-2.93-1.47-.78-9.3-1.5-9.98l-3.92.08ZM293.01,559.01v-6c8.47.22,3.19,12.28,5.8,17.75-.75,4.49-3.62.57-5.3.58-1.25,0-2.42,1.82-4.77,1.5-11.24-1.54-8.09-17.17,4.27-13.83ZM287.1,562.1c-3.05,2.08.48,12.23,4.96,5.44,2.76-4.18-2.96-6.81-4.96-5.44ZM191,557.01c.33,5.72,8.08.89,10.99,4.5-3.51,1-10.11-.54-10.1,4.99,0,6.75,8.53,3.55,11.65,3.95,1.2.15,1.72,2.13,3.44,1.55,1.46-11.27-4.72-17.97-15.99-14.99ZM363.51,557.01c-4.04,1.28.24,16.44,8.77,13.83,1.4-.43,2.58-2.68,3.21-2.69s4.21,4.01,6.51,2.84c.11-2.63-2.77-3.52-3.55-5.94-.83-2.57.52-8.07-3.8-6.93-2.77.73-3.33,6.32-3.65,8.87-5.89.31-1.96-11.74-7.48-9.99ZM267.98,570.99l4.52-9.97,3.41,9.38c3.14,2.08,3.8-.28,3.44-3.21-1.05-8.42-4.79-12.34-12.34-6.19-5.42-15.06-8.23,10.85.97,9.99ZM247.71,557.22c7.99-1.84,11.3,2.7,12.14,10.08-9,14.31-26.93-6.67-12.14-10.08ZM252.87,560.13l-5.95,1.55c-1.13,1.74-1.07,5.21.75,6.39,2.53,1.28,5.16,1.51,6.88-1.09l-1.68-6.85ZM348.14,554.63l-.57,7.43-5.56,1.43c3.47,3.9,8.39,1.16,7.01,8.51h3.98s-.56-6.03-.56-6.03l7.55-2.46c-1.97-2.49-5.3-1.33-8-1.51v-7c2.23-2.78,3.59,9.15,7,5.99,2.44-2.26-6.35-13.2-10.86-6.36ZM326,556.42l-4.07,1.21c1.33,3.31,1.21,14.13,5.72,14.24,3.91-.74,1.73-7,4.97-8.81l7.37.93c-1.09-6.03-8.28-5.14-11.98-2l-2.01-5.58ZM384.66,568.84c1.51,4.83,4.36,4.17,4.09-1.03-.17-3.31-.28-9.59-.76-12.3-.24-1.33-.94-2.82-2.48-2.5-2.55.54-1.64,13.3-.85,15.83ZM292.06,567.54c2.76-4.18-2.96-6.81-4.96-5.44-3.05,2.08.48,12.23,4.96,5.44ZM246.92,561.68c-1.13,1.74-1.07,5.21.75,6.39,2.53,1.28,5.16,1.51,6.88-1.09l-1.68-6.85-5.95,1.55ZM243.7,523.82c8.31,2.47,6.14-10.4,0-8.67-3.69,1.04-3.78,7.55,0,8.67ZM329,680c7.57-1.04,22.65,2.73,11,10.5,12.48,9.47-.5,14.48-11,12.5v-23ZM339.94,684.06l-5.99-.64-.95,6.58c4.61.61,7.73-1.01,6.94-5.95ZM340.91,694.09l-7.91-1.09v7.01c3.69,1.53,10.41-2.17,7.91-5.92ZM257,703h4c.4-5.11-2.29-13.7,5.39-12.93l1.47,1.58.16,11.35h3.99c.74-8.46.39-21.14-10.99-14v-9s-4.01,0-4.01,0v23ZM235,680v4s7,0,7,0v19h4v-19h7s0-4,0-4h-18ZM325,697h-12c1.63,5.59,5.45,4.22,9.99,3l-.66,3.01c-15.45,5.85-18.16-18.86-2.88-16.01,3.97.74,6.22,6.19,5.54,9.99ZM321,693.99c.85-3.67-3.52-5.91-6.29-4.07-4.96,6.1,2.16,3.7,6.29,4.07ZM306,697h-11c-.13,6.63,9.06,2.01,9.99,4.51.79,2.14-6.16,2.48-7.23,2.31-10.15-1.59-8.99-19.43,3.53-16.61,5.2,1.17,5.07,5.3,4.72,9.79ZM301.73,690.27c-2.54-2.43-7.65-.19-6.72,3.72h7.99c.47-.44-.67-3.15-1.27-3.72ZM277,703h3c-.69-6.7.51-12.62,8.01-13.51,1.23-5.36-6.34-1.08-8,.51v-3.01s-3.01,0-3.01,0v16ZM333,693v7.01c3.69,1.53,10.41-2.17,7.91-5.92l-7.91-1.09ZM333.95,683.42l-.95,6.58c4.61.61,7.73-1.01,6.94-5.95l-5.99-.64ZM314.7,689.92c-4.96,6.1,2.16,3.7,6.29,4.07.85-3.67-3.52-5.91-6.29-4.07ZM295,693.99h7.99c.47-.44-.67-3.15-1.27-3.72-2.54-2.43-7.65-.19-6.72,3.72ZM266.02,481.54c2.39-1.56-.97-13.48-7.58-14.49-3.45-.53-12.46,1.33-7.19,3.21l8.75.75-8.06,3.41-.76,5.42c1.21,1.96,13.21,2.76,14.85,1.7ZM324.05,474.55c-5.85,6.19-4.57-5.15-5.52-6.57l-3.51-.97c-3.06,7.06,3.6,14.97,10.98,12-1.39,3.52-4.77,3.18-8,3,10.68,9.25,14.83-4.53,13-14.01-5.98-1.28-4.37,3.82-6.95,6.55ZM289.01,463c.71,5.77-2.72,20.06,5.99,18.99.76-.7-3.13-6.92,1.49-6.99,2.59,2.52,2.75,7.73,7.51,6.99-.08-5.34-3.51-6.81,0-11.99-3.87-1.7-6.36,1.49-9.99,1.99.21-3.73.22-9.62-5-8.99ZM269.01,467l1.48,13.02,4.43.88c.51-.36,2.68-11.23,5.08-8.9.87,3.69,1.26,7.56,4.51,9.98,3.08-1.9.76-10.25-.97-12-3.47-3.52-10.05,1.56-10.52,1.02v-4s-4,0-4,0ZM356.93,479.56c6.25,5.4,8.12-.58,8.64-.62,2.29-.2,4.54,3,7.42,2.05l-5.61-11.89-3.3-.02c-.77,2.17-1.11,4.51-1.82,6.7-.24.75.05,3.15-1.75,2.2-2.32-1.22-2.73-7.55-2.52-10-8-1.62-4.68,8.44-1.06,11.57ZM340.75,467.17c11-1.82,15.93,18.47-1.05,14.61-8.42-1.92-8.07-13.1,1.05-14.61ZM344.75,471.26c-.55-.66-2.21-1.1-3.09-1l-3.17,1.73c-2.53,5.81,2.29,9.88,7.06,6.02.83-1.37.06-5.72-.8-6.75ZM233,479.5c0,.94,3.55,3.21,4.99,2.49-.24-1.53,0-10.04,1.51-10,4.1.1,3.66,8.45,4.66,9.81,1.55,2.09,3.75.89,3.92-2.3.3-5.64-5.04-12.66-11.09-9.5l-.92-5.42-3.09-.59v15.5ZM207.02,466.5l9.54,2.44c1.55,2.24-1.36,14.16,5.43,13.06l-1-13.99h9.01s0-3,0-3c-7.37-.86-16.3-2.77-22.98,1.49ZM341.66,470.26l-3.17,1.73c-2.53,5.81,2.29,9.88,7.06,6.02.83-1.37.06-5.72-.8-6.75-.55-.66-2.21-1.1-3.09-1Z"/>
</svg>