<?xml version="1.0" encoding="UTF-8"?>
<svg id="_レイヤー_1" data-name="レイヤー 1" xmlns="http://www.w3.org/2000/svg" width="199.08mm" height="251.79mm" viewBox="0 0 564.32 713.73">
  <path d="M107.97,441.35c-3.03-.32-9.62-2.2-12.5-3.5-4.27-1.93-7.31-6.43-10.27-7.73-10.6-4.67-20.37-2.68-27.93-15.07-3.25-5.33-1.88-7.09-3.01-11.99-.43-1.88-2.33-3.68-3.09-5.91-5.07-14.83,6.41-22.9,11.29-35.77-7.48-2.41-12.49-10.2-12.1-17.92-35.34-8.38-34.56-57.25-25.9-85.09-18.8.71-31.72-18.5-20-34.51,7.57-10.35,22.45-14.86,27.99-28.01-10.82-4.08-15.77-13.48-13.93-24.93.94-5.85,8.46-12.78,11.46-18.54,10.63-20.43,11.17-51.04,16.16-73.84C65.01-7.51,139.36-21.5,203.95,31.37c6.04,4.94,16.01,16.94,21,20,1.84,1.13,3.97,1.31,5.96,1.99,13.48-55.38,89.36-55.81,102.09,0,7.04-.21,6.77-2.85,10.46-6.54,37.14-37.11,94.95-67.82,142.5-28.44,37.74,31.26,30.67,78.19,43.03,119.97,4.11,13.89,10.21,17.54,15.05,27.95,5.76,12.41.28,24.9-12.48,29.12.96,12.59,11.72,14.13,19.85,20.51,21.35,16.75,15.51,41.41-11.92,42.43,9.08,27.73,9.61,75.64-24.8,85.2-.55,8.93-5.09,14.49-12.12,19.39,4.66,13.02,16.52,15.58,13.68,31.66-.42,2.39-2.09,4.41-2.53,6.47-1.87,8.81.07,12.11-7.71,19.29s-14.97,6.09-23.26,9.74c-2.43,1.07-4.12,4.15-6.33,5.67-12.89,8.89-35.95,6.29-50.94,5.57,7.49,10.07,12.93,20.93,16.49,33,1.12,3.79.97,7.99,1.95,11.05.79,2.45,4.84,5.73,6.42,9.58,1.08,2.63,2.2,6.03,2.2,8.87,0,2.3-2.72,13.83-3.51,16.56-3.02,10.46-9.9,14.99-19.62,18.6-.73,3.03,2.56,13.64,3.79,17.11,2.61,7.36,6.99,12.53,9.75,19.25,5.56,13.52,5.99,28.94,3.22,43.18-.93,4.8-7.32,18.74-7.33,20.29s3.16,8.57,3.5,12.13c3.17,32.57-29.84,41.84-56.21,40.34-18.82,33.5-71.8,26.9-91.35-2.77-5.73.78-19.56-3.37-23.88-.26-1.38.99-2.96,4.86-4.45,6.55-13.6,15.43-30.05,20.34-50.51,18.56-14.96-1.3-27-10.08-34.14-22.92-28.65,4.17-72.75-1.98-68.22-40.51.39-3.3,3.52-9.57,3.52-11.11,0-.91-5.82-13.08-6.75-16.87-4.21-17.03-3.64-33.31,3.95-49.3,1.68-3.54,4.71-6.94,6.37-10.63,4.75-10.57,5.9-22.39,7.81-33.68-22.64.45-45.5-26.02-22.94-43.44,1.54-1.19,5.06-2.05,5.68-2.82.96-1.18,1.27-6.38,1.97-8.53,3.82-11.72,8.81-22.37,16.28-32.22-6.9-.53-14.72.72-21.5,0ZM16.97,252.35c4.02.81,10.18-.59,14.5,0-4.64,17.75-8.89,33.63-5.72,52.22,2.46,14.45,11.47,36.78,29.72,31.78-1.4,10.58,2.85,20.15,14,22.01-2.73,11.84-16.64,23.59-13.57,36.06.7,2.82,2.94,4.14,3.36,5.63,1.1,3.91-.34,5.85,2.03,10.97,5.73,12.37,19,10.12,28.11,14.89,2.08,1.09,4.17,4.42,6.93,6.07,11.78,7.07,29.09,3.63,42.14,3.36-3.78,9.49-10.9,17.06-15.17,26.32-3.54,7.68-6.11,16.07-6.99,24.5-8,1.9-13.74,6.4-14.25,15.02-.94,15.79,18.42,22.52,31.42,22.14-.38,13.29-2.51,29.2-8.13,41.38-1.97,4.27-5.44,8.17-7.37,12.63-6.61,15.36-5.94,33.9-.53,49.51,1.14,3.28,4.75,8.35,5.02,11.08.34,3.47-3.61,10.11-3.99,14.91-1.26,16.25,10.36,27.09,25.15,30.83,14.38,3.63,27.59,2.38,42.17,1.62,10.57,28.28,52.29,29.51,72.2,11.07,3.2-2.96,7.96-11.62,10.08-12.92,7.18-4.4,22.9,1.34,31.24.05,14.94,30.37,67.97,35.06,83.86,2.82,26.2,1.51,61.52-6.96,52.6-40.78-.54-2.06-2.93-5.45-2.93-6.7,0-1.15,7.17-16.58,8.17-21.47,6.6-32.38-5.47-36.05-13.55-61.52-2.09-6.6-3.41-14-4.05-20.91,10.01-2.61,17.54-5.9,20.63-16.54.63-2.19,3.15-13.7,3.08-15.42-.35-8.3-7.46-10.92-8.44-14.35-.61-2.13.14-4.58-.3-6.7-1.81-8.64-4.53-16.5-8.73-24.27-2.85-5.27-16.8-20.21-4.68-21.33,13.77-1.27,40.26,3.94,50.45-6.56,1.34-1.38,1.86-4,2.24-4.26.54-.36,10.29-1.89,12.78-2.72,7.63-2.53,15.76-6.77,17.6-15.4.57-2.69.02-5.33.5-7.5,1.55-7.05,5.77-10.45.39-18.51-1.59-2.38-4.27-3.2-5.48-4.79-1.08-1.42-8.14-15.8-7.94-16.7,12.61-4.76,15.27-13.75,13.98-26.56,8.49,9.93,19.42-3,23.53-10.96,5.95-11.51,7.37-27.61,6.33-40.41-.81-9.94-4.6-18.91-5.88-28.63,19.7,3.34,35.21-14.25,18.53-30.02-5.43-5.13-16.73-9.4-20.22-13.27-1.57-1.75-8.48-17.54-7.31-18.7,12.9.48,20.42-12.45,14.22-23.71-5.81-10.55-10.7-13.88-14.71-27.29-12.6-42.2-5.05-94.5-47.6-122.4-40.94-26.85-86.12-5.9-118.92,22.89-9.33,8.19-14.14,18.82-28.41,18.55-5.28-41.27-56.25-58.46-83.09-25.05-6.4,7.97-7.61,13.83-9.51,23.51-.28,1.41.77,1.63-1.47,1.51-2.07-.11-10.84-1.79-12.46-2.56-3.39-1.63-13.93-14.36-18.04-17.96C142.66-15.33,69.24-4.78,50.94,81.31c-4.81,22.64-5.37,52.62-15.92,73.08-5.23,10.14-17.68,17.55-8.55,30.46,3.61,5.1,7.05,5.26,12.5,6.52.92.21,2.12-.58,1.49,1.46-.84,2.72-8.23,12.94-10.47,15.53-5.97,6.89-14.54,10.79-20.06,16.94-7.84,8.72-4.05,24.82,7.05,27.05ZM303.19,63.65c0,11.59-9.4,20.99-20.99,20.99s-20.99-9.4-20.99-20.99,9.4-20.99,20.99-20.99,20.99,9.4,20.99,20.99ZM297.87,63.7c0-8.66-7.02-15.68-15.68-15.68s-15.68,7.02-15.68,15.68,7.02,15.68,15.68,15.68,15.68-7.02,15.68-15.68Z"/>
</svg>