<?xml version="1.0" encoding="UTF-8"?>
<svg id="_レイヤー_1" data-name="レイヤー 1" xmlns="http://www.w3.org/2000/svg" width="197.83mm" height="272.62mm" viewBox="0 0 560.78 772.79">
  <path d="M331.44,62.3c7.1,1.06,14.15,3.28,20.91,5.59,8.34,2.85,23.73,10.91,30.77,12.23,8.95,1.67,20.35-.2,30.61,1.39,81.9,12.76,107.35,124.25,110.65,193.35,1.8,37.73-4.08,76.38,7.99,113.01,5.02,15.24,13.29,30.07,18.76,45.24,12.23,33.91,16.2,71.54-8.56,100.95,9.81,38.49.06,76.63-39.91,91.07-5.54,2-19.29,2.86-21.07,8.93-.89,3.04-.47,15.88-.2,19.78.65,9.31,3.2,22.03,7.82,30.18,6.79,11.97,21.19,20.39,9.16,36.83-8.1,11.07-14.89,6.95-25.43,8.57-2.87.44-6.96,2.65-10.55,3.45-3.95.88-10.87.84-13.35,1.65-.8.26-4.19,5.21-7.13,6.87-8,4.53-19.73,2.6-28.84,1.86-2.87-.23-8.68-2.35-10.96-1.75-1.5.39-4.93,4.93-7.67,6.41-3.3,1.78-10.09,2.5-11.76,3.74-3.73,2.75-6.57,10.1-13.99,14.51-19.16,11.37-55.16,7.72-71.52-7.8-2.53-2.4-6.94-10.16-8.2-11.08-3.52-2.57-20.54.02-25.88-.94-13.55,27.32-64.42,33.98-84.75,12.56-2.19-2.31-3.74-6.39-5.97-8.03-1.93-1.42-4.72-1.65-6.92-3.08-1.95-1.27-6.96-6.07-7.78-6.29-2.45-.65-7.8,1.67-10.83,1.89-2.44.18-4.44-.91-6.68-.78-4.94.28-10.51,3.58-15.31,3.78-7.86.33-17.11-4.61-20.15-12.05-7.04,1.07-14.9-4-20.87-4.92-6.55-1-11.18,1.25-18.11-1.89-8.9-4.02-12.33-13.35-11.33-22.68.94-8.75,7.62-12.39,11.8-19.19,8.79-14.31,8.95-33.24,9.21-49.59-3.7-1.08-7.87-7.63-9.71-8.77s-5.79-1.34-8.29-2.45c-40.43-17.99-48.21-49.13-39.2-90.79-24.85-29.56-20.69-66.91-8.56-100.95,14.5-40.67,26.1-55.4,26.79-102.21.91-62.5-.2-118.73,26.78-177.22,22.79-49.4,54.4-73.33,109.72-73.37,11.16,0,16.37-4.29,26.94-7.97,10-3.48,20.11-6.9,30.53-8.99-6.52-24.01,7.6-50.91,30.73-59.75,30.3-11.58,63.36,5.92,69.81,37.71,1.54,7.58.95,13.41.5,21ZM398.58,735.54c11.86-.03,31.71,7.5,41.74.24,2.11-1.53,4.62-5.91,5.72-6.28,2.72-.89,10.3-.73,14.38-1.62,3.58-.79,9.7-4.05,11.59-4.24,3.41-.35,7.98,1.44,12.65.48,11.56-2.37,15.78-16.02,9.16-25.71-10.99-16.08-16.04-21.06-17.48-42.52-.29-4.29-.71-21.8.23-24.85.16-.51,7.33-6.94,7.84-7.16,3.62-1.63,11.63-2.01,16.96-4.04,38.93-14.85,44.92-50.69,35.18-87.79,24.3-25.08,22.1-60.22,11.88-91.23-7.09-21.53-19.46-41.22-24.55-63.45-7.37-32.26-3.06-64.91-4.45-97.55-3.01-71.05-28.51-190.06-117.5-194.5-5.43-.27-14.85,1.6-18.8.84-6.74-1.3-22.95-9.99-31.23-12.82-8.71-2.98-17.6-5.32-26.55-7.48l-.79-.96c11.98-40.69-31.13-74.69-68.1-52.96-19.52,11.47-26.24,34.07-20.08,55.42-9.46,1.84-18.84,4.49-27.96,7.54-7.74,2.59-21.35,9.88-27.76,11.23-5.01,1.06-16.24-1.18-22.82-.81-79.98,4.48-107.18,101.08-114.34,166.66-4.1,37.56.61,75.68-4.26,112.74-4.18,31.82-23.36,58.44-30.78,89.22-6.59,27.33-4.78,57.13,15.77,78.12-8.74,33.76-5.33,68.45,28.95,85.02,4.51,2.18,10.99,3.45,14.58,5.42,3.91,2.14,7.62,8.75,12.65,10.57.18,17.9.08,37.96-8.85,53.96-4.8,8.6-13.39,12.75-12.09,23.74.86,7.22,7.3,12.9,14.41,13.59,4.07.4,8.37-1.23,10.97-.99,1.43.13,4.87,2.74,7.53,3.49,4.58,1.28,11.94,1.41,15.31,2.69,1.56.59,3.66,6.08,6.76,8.24,9.58,6.68,15.05.69,24.55-.31,4.25-.45,8.55.19,12.8-.2,2.75-.26,5.89-2.67,8.88-1.97.49.12,4.58,6.11,6.75,7.5,2.9,1.86,7.66,2.01,8.73,2.77.34.24,2.88,5.64,4.25,7.25,14.56,17.19,44.56,16.5,62.99,6.04,7.88-4.47,11.69-10.09,16.64-17.36h32.18c10.77,29.09,63.59,34.76,82.67,12.85,1.64-1.88,4.26-7.61,4.65-7.85.97-.58,3.5.09,5.1-.39,5.55-1.66,11.93-4.88,13.94-10.58ZM301.38,46.54c0,11.59-9.4,20.99-20.99,20.99s-20.99-9.4-20.99-20.99,9.4-20.99,20.99-20.99,20.99,9.4,20.99,20.99ZM296.09,46.69c0-8.67-7.03-15.7-15.7-15.7s-15.7,7.03-15.7,15.7,7.03,15.7,15.7,15.7,15.7-7.03,15.7-15.7Z"/>
</svg>