<?xml version="1.0" encoding="UTF-8"?>
<svg id="_レイヤー_1" data-name="レイヤー 1" xmlns="http://www.w3.org/2000/svg" width="204.61mm" height="305.86mm" viewBox="0 0 580 867">
  <path d="M341.05,111.95c7.1,1.06,14.15,3.28,20.91,5.59,8.34,2.85,23.73,10.91,30.77,12.23,8.95,1.67,20.35-.2,30.61,1.39,81.9,12.76,107.35,124.25,110.65,193.35,1.8,37.73-4.08,76.38,7.99,113.01,5.02,15.24,13.29,30.07,18.76,45.24,12.23,33.91,16.2,71.54-8.56,100.95,9.81,38.49.06,76.63-39.91,91.07-5.54,2-19.29,2.86-21.07,8.93-.89,3.04-.47,15.88-.2,19.78.65,9.31,3.2,22.03,7.82,30.18,6.79,11.97,21.19,20.39,9.16,36.83-8.1,11.07-14.89,6.95-25.43,8.57-2.87.44-6.96,2.65-10.55,3.45-3.95.88-10.87.84-13.35,1.65-.8.26-4.19,5.21-7.13,6.87-8,4.53-19.73,2.6-28.84,1.86-2.87-.23-8.68-2.35-10.96-1.75-1.5.39-4.93,4.93-7.67,6.41-3.3,1.78-10.09,2.5-11.76,3.74-3.73,2.75-6.57,10.1-13.99,14.51-19.16,11.37-55.16,7.72-71.52-7.8-2.53-2.4-6.94-10.16-8.2-11.08-3.52-2.57-20.54.02-25.88-.94-13.55,27.32-64.42,33.98-84.75,12.56-2.19-2.31-3.74-6.39-5.97-8.03-1.93-1.42-4.72-1.65-6.92-3.08-1.95-1.27-6.96-6.07-7.78-6.29-2.45-.65-7.8,1.67-10.83,1.89-2.44.18-4.44-.91-6.68-.78-4.94.28-10.51,3.58-15.31,3.78-7.86.33-17.11-4.61-20.15-12.05-7.04,1.07-14.9-4-20.87-4.92-6.55-1-11.18,1.25-18.11-1.89-8.9-4.02-12.33-13.35-11.33-22.68.94-8.75,7.62-12.39,11.8-19.19,8.79-14.31,8.95-33.24,9.21-49.59-3.7-1.08-7.87-7.63-9.71-8.77s-5.79-1.34-8.29-2.45c-40.43-17.99-48.21-49.13-39.2-90.79-24.85-29.56-20.69-66.91-8.56-100.95,14.5-40.67,26.1-55.4,26.79-102.21.91-62.5-.2-118.73,26.78-177.22,22.79-49.4,54.4-73.33,109.72-73.37,11.16,0,16.37-4.29,26.94-7.97,10-3.48,20.11-6.9,30.53-8.99-6.52-24.01,7.6-50.91,30.73-59.75,30.3-11.58,63.36,5.92,69.81,37.71,1.54,7.58.95,13.41.5,21ZM408.19,785.19c11.86-.03,31.71,7.5,41.74.24,2.11-1.53,4.62-5.91,5.72-6.28,2.72-.89,10.3-.73,14.38-1.62,3.58-.79,9.7-4.05,11.59-4.24,3.41-.35,7.98,1.44,12.65.48,11.56-2.37,15.78-16.02,9.16-25.71-10.99-16.08-16.04-21.06-17.48-42.52-.29-4.29-.71-21.8.23-24.85.16-.51,7.33-6.94,7.84-7.16,3.62-1.63,11.63-2.01,16.96-4.04,38.93-14.85,44.92-50.69,35.18-87.79,24.3-25.08,22.1-60.22,11.88-91.23-7.09-21.53-19.46-41.22-24.55-63.45-7.37-32.26-3.06-64.91-4.45-97.55-3.01-71.05-28.51-190.06-117.5-194.5-5.43-.27-14.85,1.6-18.8.84-6.74-1.3-22.95-9.99-31.23-12.82-8.71-2.98-17.6-5.32-26.55-7.48l-.79-.96c11.98-40.69-31.13-74.69-68.1-52.96-19.52,11.47-26.24,34.07-20.08,55.42-9.46,1.84-18.84,4.49-27.96,7.54-7.74,2.59-21.35,9.88-27.76,11.23-5.01,1.06-16.24-1.18-22.82-.81-79.98,4.48-107.18,101.08-114.34,166.66-4.1,37.56.61,75.68-4.26,112.74-4.18,31.82-23.36,58.44-30.78,89.22-6.59,27.33-4.78,57.13,15.77,78.12-8.74,33.76-5.33,68.45,28.95,85.02,4.51,2.18,10.99,3.45,14.58,5.42,3.91,2.14,7.62,8.75,12.65,10.57.18,17.9.08,37.96-8.85,53.96-4.8,8.6-13.39,12.75-12.09,23.74.86,7.22,7.3,12.9,14.41,13.59,4.07.4,8.37-1.23,10.97-.99,1.43.13,4.87,2.74,7.53,3.49,4.58,1.28,11.94,1.41,15.31,2.69,1.56.59,3.66,6.08,6.76,8.24,9.58,6.68,15.05.69,24.55-.31,4.25-.45,8.55.19,12.8-.2,2.75-.26,5.89-2.67,8.88-1.97.49.12,4.58,6.11,6.75,7.5,2.9,1.86,7.66,2.01,8.73,2.77.34.24,2.88,5.64,4.25,7.25,14.56,17.19,44.56,16.5,62.99,6.04,7.88-4.47,11.69-10.09,16.64-17.36h32.18c10.77,29.09,63.59,34.76,82.67,12.85,1.64-1.88,4.26-7.61,4.65-7.85.97-.58,3.5.09,5.1-.39,5.55-1.66,11.93-4.88,13.94-10.58ZM310.99,96.19c0,11.59-9.4,20.99-20.99,20.99s-20.99-9.4-20.99-20.99,9.4-20.99,20.99-20.99,20.99,9.4,20.99,20.99ZM305.7,96.35c0-8.67-7.03-15.7-15.7-15.7s-15.7,7.03-15.7,15.7,7.03,15.7,15.7,15.7,15.7-7.03,15.7-15.7ZM221.08,273.6c-.49,4.62.46,10.13,5.91,10.4l3.52-10.01,3.18,8.04,2.34.52c1.74-1.38.68-7.96,4.97-7.54.18,3.41.36,8.82,5,7.99.36-4.22-.06-8.98-3.66-11.87l-6.82,1.9c-2.3-5.28-6.09-3.2-9.5-.03-1.15-4.73-4.43-4.25-4.94.6ZM303.48,541.02c5.08,4.05,16.19,4.71,15.47-3.98l-2.77-.16c-.6-16.94-24.69-5.43-12.7,4.14ZM294.25,276.68c-.39,8.3,19.79,13.11,18.69,1.36l-2.77-.16c.95-10.95-15.49-10.59-15.92-1.21ZM292,285c-5.23-1.57-10.91,2.03-15.01-2.48-5.99-6.59,3.17-13.23,10.01-10.53.5-.53-2.34-6.9.5-6.97,5.4-.14,4.57,16.32,4.5,19.98ZM280.08,281.93c2.01,1.42,5.74-1.65,6.89-3.43l-4.47-4.48c-2.24,1.07-4.52,6.43-2.42,7.91ZM323.5,284.09c3.12.18,3.09-.56,6.51.36,3.76,1,1.08-8.35.19-10.16-2.26-4.61-12.16-7.4-14.12-4.2-3.21,5.22,7.94.26,9.91,4.41-2.62.16-6.62-.34-8.75,1.74-4.27,4.17,1.88,7.59,6.25,7.85ZM253.51,276.99c-1.2-2.66.62-5.94-2.03-7.98-8.07,3.83.79,14.7,7.52,13,.39,4.16-4.82,2.11-7,2.01,11.95,9.49,14.5-3.96,13-14.01l-3.86.15c-.51,3.15-4.94,12.8-7.63,6.85ZM350,543.01l7.33-.18,1.66-2.83c-15.56,3.61-10.72-18.4,1.57-11.06,2.45,1.47,3.82,12.28,2.99,14.04-1.84,3.91-11.29,4.12-13.56.03ZM355.53,530.01c-5.52,5.11-.96,12.16,3.54,4.47l-3.54-4.47ZM288.91,525.1l.18,4.81c13.89,2.31,13.21,13.92-1.49,13.86-4.35-.8-5.18-17.78-1.62-19.32l2.93.65ZM289.01,533c.13,1.77-.3,3.78,0,5.49,1.25,7.05,10.59-4.21,0-5.49ZM231.5,532.98c5.52-5.3-7.53-12.91-9.36-7.34l-.13,8.36-5.99,1.5,6.51,2.41c.61,9.13,5.46,7.35,4.47-.92l7-1.51-7.55-2.42-.43-6.06c3.1-.88,4,5.89,5.49,5.98ZM329,528c-.59,2.86.81,17.27,6.05,13.57,1.95-2.85,1.33-8.41,5.94-8.56-1.76,5.11,5.68,14.31,5.78,6.71s-5.55-13.01-12.76-7.72l-1.16-3.85-3.84-.15ZM243.76,528.18c9.04-1.1,15.81,14.5,2.74,14.9-12.31.38-13.49-13.59-2.74-14.9ZM244.68,531.15c-5.48.47-5.05,10.11.66,9.61,6.5-.56,2.83-9.91-.66-9.61ZM256.09,529.63c1.42,5.14.31,14.51,7.91,13.37-.21-2.94,1.3-9.92,5.25-8.85.4.11,4.83,3.59,4.73.35-.12-3.86-9.33-4.21-11.96-1.5-.27-3.44-3.12-7.39-5.93-3.37ZM338.04,269.46c-6.99-4.38-1.84,14.82,1.47,15.54s2.3-7.87,5.48-9.56l7,1.56c-1.6-6.64-7.18-4.73-11.96-3-.27-1.32-.89-3.85-1.99-4.54ZM356.5,278.98c1.74.04,3.82-14.96-.99-13.97-2.89.59-1.43,12.16.99,13.97ZM323.01,532c-1.53,3.83-1.65,11.57,3.98,10.99.62-.64.15-11.87-3.98-10.99ZM271,316v31h8v-17c6.21,5.23,7.17,22.67,18,15.5v-29.5h-8v16c-7.4-5.94-5.38-18.97-18-16ZM330,328h-14v6.01s6.01,0,6.01,0l-.94,6.58c-19.39.17-12.22-26.7,5.93-16.58,4.02-9.25-6.85-8.84-13.51-8.02-15.82,1.94-17.08,28.15,1.28,30.76,5.61.8,9.95-.16,15.24-1.73v-17ZM224,347h8v-14c7.1,6.28,5.63,16.96,17.99,13.99l-9.67-16.49,8.67-14.5-8.79.2-7.7,12.8-.49-13.02h-8.01v31.01ZM390,316v31h20v-7.01s-12.01.01-12.01.01v-5.43s11.01-.57,11.01-.57v-6.01h-11.01s0-6,0-6h12.01s0-5.99,0-5.99h-20ZM198,316v31h20v-7.01s-12.01.01-12.01.01v-5.43s11.01-.57,11.01-.57v-6.01h-11.01s0-6,0-6h12.01s0-5.99,0-5.99h-20ZM336,316v31h20v-7.01s-12.01.01-12.01.01v-5.43s11.01-.57,11.01-.57v-6.01h-11.01s0-6,0-6h12.01s0-5.99,0-5.99h-20ZM375.83,336.16c1.89,7.45-8.6,4.82-12.33,1.87-4.63,6.18-.96,7.87,5.26,8.71,7.75,1.04,16.17-.72,15.28-10.24-.94-10.01-14.06-7.28-14.07-11.98.62-5.53,12.07-.55,13.03-1.51l1.01-6c-22.82-6.81-33.61,12.04-8.18,19.15ZM255,347h9v-31h-9v31ZM184.5,316c15.25,2.53,9.6,24.64-6.51,21v10.01s-7.99,0-7.99,0v-31c4.47.51,10.24-.71,14.5,0ZM184.76,329.76c3.42-6.08-.71-8.66-6.76-7.77v9.01s6.76-1.24,6.76-1.24ZM178,322v9.01s6.76-1.24,6.76-1.24c3.42-6.08-.71-8.66-6.76-7.77ZM286.97,278.5l-4.47-4.48c-2.24,1.07-4.52,6.43-2.42,7.91s5.74-1.65,6.89-3.43ZM359.07,534.48l-3.54-4.47c-5.52,5.11-.96,12.16,3.54,4.47ZM289.01,538.49c1.25,7.05,10.59-4.21,0-5.49.13,1.77-.3,3.78,0,5.49ZM245.34,540.77c6.5-.56,2.83-9.91-.66-9.61-5.48.47-5.05,10.11.66,9.61ZM250,484.01c.4,5.68,7.77-.74,10.99,4.49-5.7-1.1-11.73.57-9.54,7.54,4.46,3.3,9.59.98,14.54,1.95,1.46-11.02-4.9-17.85-15.99-13.99ZM321.5,492.98c-3.56-2.2-1.95-5.61-2.97-9.01l-3.51-.97c-3.06,7.06,3.6,14.97,10.98,12-2.1,4.06-3.93,4.08-8,3,10.98,9.55,14.66-4.6,13-14.01-1.18.15-2.89-.38-3.83.18-.46.27-2.98,8.13-5.66,8.81ZM289.01,479c.71,5.77-2.72,20.06,5.99,18.99.76-.7-3.13-6.92,1.49-6.99,2.59,2.52,2.75,7.73,7.51,6.99.99-2.74-2.03-5.58-1.98-7.51.04-1.82,2.43-2.47,1.98-4.48l-9.99,1.99c-.04-3.59-.05-9.8-5-8.99ZM269.01,483c-.7.66-.37,16.05,5.01,14.55,1.44-.53,3.6-11.85,5.97-9.55.49,2.25,1.01,4.52,1.86,6.68.41,1.05,1.01,4.07,2.64,3.3,3.09-1.45.8-10.23-.96-12.02-3.47-3.52-10.05,1.56-10.52,1.02v-4s-4,0-4,0ZM354.1,484.1c-1.88,5.14,1.51,13.4,7.58,13.65,2.48.1,3.67-2.39,5-2.6,1.23-.19,3.97,2.91,6.32,1.84l-5.6-11.89-3.35-.07c-.4.33-1.25,11.5-4.03,8.96l-2.02-10-3.89.11ZM341.64,483.32c8.91-.55,12.71,12.4,5.66,14.46-14.38,4.2-18.79-13.66-5.66-14.46ZM344.76,487.23c-2.82-3.05-9.67,2.88-5.77,7.29s10.2-2.49,5.77-7.29ZM233,496.5l5,1.5c-.23-1.53-.01-10.05,1.51-10.01,4.53.11,2.86,11.26,6.99,10.99,4.48-.3-1.35-18.76-9.5-12.97l-1.03-6h-2.98s0,16.5,0,16.5ZM222.49,480.02c-2.1-.19-15.46.18-15.47,2.48,2.21,2.69,6.02,1.15,8.97,1.51,1.04,1.09-.59,16.73,6.02,13.48l-1.02-13.49h9c.34-3.29-5.08-3.76-7.51-3.98ZM338.99,494.52c3.8,4.29,10.2-2.49,5.77-7.29-2.82-3.05-9.67,2.88-5.77,7.29ZM329,670c4.92-.42,17.42-.92,14.84,7.3-.69,2.21-4.76,2.76-3.84,3.68,1.44,1.44,4.84.7,5.06,5.49.35,7.76-10.77,6.63-16.06,6.53v-23ZM333,679.01c4.22.33,8.56.46,6.58-5.08l-6.58-.93v6.01ZM333,690c10.95,1.41,10.76-9.11,0-8.01v8.01ZM257,693h4c.78-.74-2.22-15.13,4.35-13.81,4.27.86,2.21,10.48,2.65,13.82h3.99c.22-8.93,1.42-21.13-10.99-15.01v-9s-4.01,0-4.01,0v24ZM304.74,678.25c1.6,1.7,1.24,5.53,1.27,7.75-2.81.15-5.71-.22-8.53,0-1.51.11-2.87-.78-2.49,1.51-.1,1.62,1.7,2.69,2.99,3.08,2.89.88,6.79-2.18,7.01.89-7.56,4.66-15.2-.03-13.95-8.91.91-6.43,9.74-8.52,13.7-4.32ZM303,683.99c.43-7.15-9.34-6.24-7.49.01h7.49ZM325,686h-12c.87,5.24,5.81,5.24,9.99,4.01,2.9,2.5-8.49,5.35-12.04.55-8.85-11.96,14.31-22.8,14.05-4.56ZM320.85,680.16c-3.82-2.15-8.14-1.35-7.84,3.84h8s-.16-3.84-.16-3.84ZM235,670v3s7,0,7,0v20h4v-20h7.01s0-3,0-3h-18ZM277,693h3c-.6-7.71-.21-12.39,8.02-14.5l-.02-2.5-7.49,3.03c-.94-2.01-.89-2.4-3.51-2.04v16ZM333,682v8.01c10.95,1.41,10.76-9.11,0-8.01ZM339.57,673.93l-6.58-.93v6.01c4.22.33,8.56.46,6.58-5.08ZM295.51,684.01h7.49c.43-7.16-9.34-6.25-7.49,0ZM313,683.99h8s-.16-3.84-.16-3.84c-3.82-2.15-8.14-1.35-7.84,3.84ZM385.19,579.75c-.8,9.19,19.45,13.28,18.75,2.29l-2.77-.16c.93-10.87-15.16-11.58-15.98-2.13ZM158.51,573c-5.28,3.49-2.01,14.61,4.17,14.75,1.74.04,2.82-1.45,3.98-1.56,2-.18,2.95.47,7.03,0,1.61-.19,3.13.88,3.78.8,2.58-.32-.26-4.36-.43-5.54-.3-2.12.06-4.33-.05-6.45l-4.51.98-1.99,7.02-1.93-7.07-4.56-.95-1.01,9.01c-3.96-.94,0-11.94-4.47-10.99ZM255.58,581c.25-13.19-20.6-7.87-14.62,2.55,3.53,6.16,13.95,7.33,18.04.93-1.6-5.4-3.79-.31-6.26.77-2.91,1.28-6.12.82-7.74-2.25,3.69.74,7.71,1.12,10.58-2.01ZM443,589c-6.59-1.61-16.48,3-16.09-7.52.21-5.7,6.25-7.71,11.08-5.48.51-2.04-2.22-5.93.52-6.99,2.55-.99,4.49,4.27,4.49,5.49v14.5ZM433.62,578.06c-3.95.64-3.88,11.67,2.43,6.5,3.8-3.11-.69-6.78-2.43-6.5ZM237,589c-4.9-1.36-15.37,2.02-16.1-5.48s5.05-9.59,11.09-7.52c-3.41-9,5.01-8.59,5.01-2.5v15.5ZM227.62,578.06c-3.95.64-3.88,11.67,2.43,6.5,3.8-3.11-.69-6.78-2.43-6.5ZM130.01,574.52l9.98,2.5c-.46,1.8-4.06.81-6.04,1.44-3.42,1.08-5.68,4.81-2.5,7.61,3.95,3.48,9.91.54,14.54,1.94,1.21-10.13-5.5-18.95-15.98-13.48ZM287.01,579l-5.99,1.5c5.7,3.28,4.38-.81,6.81,5.14,2.98,7.27,5.64.81,3.17-3.63l8-1.02c2.56-2.7-7.52-2.6-7.94-3.03l-.05-5.95c1.79-2.11,4.23,7.78,6.99,4.99,3.6-3.64-14.39-17.57-10.99,2ZM342.95,578.96l-4.93,1.54c1.11,2.41,5.38,1.02,5.93,1.55.38.36-.09,7.77,4.04,6.95v-6.99s8.01-1.02,8.01-1.02l-8.58-3.95c-.68-2.63.44-7.27,2.82-3.74,1.3,1.92.93,4.47,4.76,3.7-2.53-11.87-13.47-10.9-12.04,1.96ZM305.45,586.04c5.1,2.92,6.87-1.03,8.88-.86,1.59.14,4.12,2.79,6.67,1.81l-5.61-11.89-3.3-.02-3.58,8.89c-3.04-2.56-2.59-6.39-2.5-9.98-8.13-1.83-4.69,9.68-.55,12.05ZM201.01,573l1.48,13.02,4.42.88c5.54-20.26,6.16,1.03,9.6,1.09,3.08-1.9.76-10.25-.97-12-3.47-3.52-10.05,1.56-10.52,1.02v-4s-4,0-4,0ZM407.01,573l1.93,13.56,4.01.4c.45-.38.92-9.17,4.54-8.97,1.36-.03,1.3,11.01,6.5,9.01.98-1.01-1.09-9.63-2.47-11.02-3.47-3.52-10.05,1.56-10.52,1.02v-4s-4,0-4,0ZM187.75,573.19c11.19-2.15,16.46,17.98-.03,14.57-9.09-1.88-8.94-12.85.03-14.57ZM188.69,576.12c-11.2,7.94,5.75,12.18,5.14,5.56-1.1-2.06-1.98-6.41-5.14-5.56ZM264.4,573.09l-3.31,1.54c1.22,4.9.79,14.53,7.91,13.37-.07-2.43.76-7.37,3.01-8.56,3.2-1.7,4.79,3.12,6.98.06-3.26-4.7-7.52-4.38-11.96-1.5l-2.62-4.91ZM358.01,573c.68,5.57.24,16.11,7.99,15-.12-2.32-.17-7.22,1.98-8.54,3.62-2.22,5.3,3.63,8,.03-3.37-4.18-7.63-4.53-11.96-1.5-.44-3.72-2.1-5.67-6.01-5ZM325.51,587.99c4.74.99.05-15.21,1.48-17.99-7.24-2.2-3.33,17.6-1.48,17.99ZM379.01,577.01l.15,9.34.79,1.21,3.05.44c-.22-3.96,1.67-10.46-3.99-10.99ZM378.01,569c-.22,3.42.78,7.7,4.99,6.99-.18-3.1-.77-7.85-4.99-6.99ZM436.05,584.55c3.8-3.11-.69-6.78-2.43-6.5-3.95.64-3.88,11.67,2.43,6.5ZM230.05,584.55c3.8-3.11-.69-6.78-2.43-6.5-3.95.64-3.88,11.67,2.43,6.5ZM193.83,581.69c-1.1-2.06-1.98-6.41-5.14-5.56-11.2,7.94,5.75,12.18,5.14,5.56Z"/>
</svg>