<?xml version="1.0" encoding="UTF-8"?>
<svg id="_レイヤー_1" data-name="レイヤー 1" xmlns="http://www.w3.org/2000/svg" width="204.61mm" height="305.86mm" viewBox="0 0 580 867">
  <path d="M338,126.99c4.27-2.49,18.64,3.3,20.28,2.87,2.4-.63,17.77-15.35,21.8-18.28,26.2-19.01,51.51-21.24,72.74,6.08,20.46,26.33,20.04,71.85,20.33,103.75,10.13,4.83,9.84,24.34,17.28,28.63,3.33,1.92,11.16-.43,16.09-.08,23.99,1.71,30.74,30.72,9.47,41.52,9.26,15.77,15.5,34.5,14.03,53.05-.31,3.87-2.87,10.31-2.75,12.8.16,3.35,3.79,12.4,4.6,17.28.52,3.15-.36,6.55.33,9.67s8.51,13.77,10.65,18.35c5.61,12.07,10.22,29.54,10.24,42.86,0,5.83-3.59,19.76-2.92,23.75.46,2.76,4.92,9.37,6.3,12.78,12.96,32.11,20.88,85.63,9.81,118.75-1.29,3.86-4.88,8.43-5.33,11.67-1.46,10.63,1.84,26.97,1.1,39.09-2.03,33.03-18.09,51.42-49.26,60.74-10.33,3.09-17.46,1.18-26.06,2.94-7.65,1.57-26.48,12.35-36.21,15.79-10.63,3.76-21.33,6.9-32.56,8.44-1.51,5.02-1.09,10.14-2.66,15.34-4.7,15.61-19.8,26.75-35.82,28.18-32.5,2.91-61.27-9.88-66.42-44.55l-25.5-1.47c-3.48,35.67-36.07,50.21-68.81,45.78-20.52-2.78-34.86-20.39-35.84-40.66-24.4-1.21-45.55-7.47-67.89-16.62-5.53-2.26-17.36-9.34-21.76-10.24-5.25-1.07-11.84.29-17.52-.48-8.17-1.11-25.54-8.83-32.68-13.32-26.2-16.52-25.83-47.21-25.12-74.96.13-5.25,2.25-13.76,1.82-18.73-.25-2.88-4.35-10.46-5.5-14.52-10.01-35.3-5.29-76.15,8.54-109.89,1.51-3.69,6.49-11.02,7-14.08s-2.74-15.63-2.87-20.7c-.38-14.17,3.24-30.23,8.87-43.22,2.38-5.5,9.81-15.38,10.92-19.08s.74-9.55,1.53-13.47c.86-4.28,4.2-12.73,4.47-15.43.18-1.89-2.54-10.21-2.78-13.8-1.25-18.32,4.9-36.48,14.03-52.05-20.35-10.03-14.96-38.64,7.62-41.38,5.63-.68,13.32,1.65,17.48.47,5.01-1.42,6.76-12.49,8.43-16.56,2.84-6.95,6.02-6.79,5.46-15.5-.42-6.6-2.59-14.19-2.97-21.02-1.44-26.07,4.92-67.29,25.98-85,26.35-22.17,60.14-3.1,81.51,16.49,6.33-12.83,18.72-18.6,32.49-12.99,1.57-76.97,113.92-64.5,98.01,11ZM329.01,135.99c10.11-20.39,6.46-44.36-12.09-58.41-25.71-19.46-64.2-5.19-70.66,26.17-.78,3.8-.85,16.09-2.17,17.83-2.69,3.55-5.91-.74-8.53-1.64-12.95-4.41-23.22,5.62-24.56,18.05-19.26-15.98-46.76-39.09-73.34-26.85s-34,59.12-32.64,85.35c.46,8.9,4.56,21.62,2.97,29.99-.42,2.23-4.22,5.67-5.48,8.52-3.91,8.82-3.7,21.51-17.02,21.06-9.32-.31-18.9-3.42-25.92,5.99-9.1,12.2.03,23.16,11.43,28.44-10.11,15.29-17.02,33.4-16.02,52.04.24,4.52,3.13,11.72,2.99,14.87-.18,3.99-4.12,11.68-4.83,17.21-.49,3.79.48,8.11-.33,11.67-.57,2.5-8.71,13.29-10.67,17.33-8.43,17.33-11.7,37.52-8.86,56.62.41,2.77,2.9,7.09,2.6,9.03-.25,1.61-5.76,10.1-7.03,13.05-13.46,31.43-20.59,76.62-10.11,109.46,1.4,4.37,6.01,12.08,6.25,15.84.36,5.56-1.84,14.92-2.01,20.84-.75,27.42-.35,55.74,26.37,70.71,6.31,3.54,21.33,9.91,28.28,10.72,4.82.57,13.34-1.22,16.39-.48,6.01,1.46,19.68,10.08,27.02,13.07,21.96,8.95,42.83,12.97,66.41,15.4-.26,19.72,13.04,37.65,33.19,40,30.77,3.59,60.69-10.38,61.53-44.25l.8-1.2,35.05.57c1.42,33.84,29.39,47.98,60.5,44.98,22.38-2.16,35.94-20.98,33.52-42.98,19.78-1.92,38.6-8.97,56.67-16.83,4.04-1.76,15.03-8.58,18.04-8.98,8.38-1.12,13.26,1.57,24.24-1.74,41.02-12.35,46.86-36.16,46.08-76-.11-5.7-2.13-14.23-1.72-19.83.22-3.06,3.67-6.64,4.97-9.84,13.58-33.56,3.32-90.26-10.8-122.78-1.29-2.97-4.75-6.62-5.03-9.91-.15-1.75,2.33-9.19,2.58-12.56,1.73-23.89-1.83-40.19-13.23-60.85-1.33-2.4-6.15-7.89-6.59-9.41-.88-3.04.17-7.25-.34-10.66-.74-5.01-4.9-15.07-4.92-18.11-.03-3.43,2.8-10.25,3.09-14.98,1.19-19.77-6.78-35.89-15.09-52.95,20.21-8.69,17.63-33.5-5.41-34.65-6.01-.3-11.53,2.65-17.04-.94-8.08-5.26-7.23-15.38-11.66-22.34-1.68-2.65-6.44-5.75-7.34-7.69-.82-1.78.68-12.91.54-16.52-1.13-30.04-4.72-76.22-29.56-96.44-29.54-24.04-59.25,6.84-80.97,25.82-9.03-7.41-19.69-5.21-29.5-.84ZM310.19,107.9c0,11.15-9.04,20.2-20.2,20.2s-20.2-9.04-20.2-20.2,9.04-20.2,20.2-20.2,20.2,9.04,20.2,20.2ZM305.13,107.82c0-8.36-6.77-15.13-15.13-15.13s-15.13,6.77-15.13,15.13,6.77,15.13,15.13,15.13,15.13-6.77,15.13-15.13ZM303.77,491.28c-10.22,4.62,1.79,18.12,11.61,12.6,1.16-.66,2.66-1.92,2.66-3.36,0-5.36-3.79.39-5.06.97-2.8,1.29-10.3-.29-7.97-2.48,14.91,5.33,11.88-13.64-1.24-7.72ZM288.91,487.1l.13,4.87c4.38-.33,8.38,2.53,10.02,6.58.42,4.9-8.73,7.68-12.06,5.98s-5.87-21.45,1.92-17.43ZM289.01,502c11.03-1.27.4-9.8-.01-6.49v6.49ZM347.01,504.99l9.99-2.49c-4.74-.6-9.99-1.01-10.01-6.99-.03-6.49,8.95-7.56,12.03-4.01,1.07,1.23,2.31,12.19,1.51,13.52-2.19,3.65-10.4,1.58-13.52-.02ZM351.01,499c6.48,1.17,7.95-7.41,1.01-6.99l-1.01,6.99ZM328,490c-.05,4.91-.78,10.54,3.51,13.99,3.31.7,2.7-9.21,6.98-9.01,1.01-.02.96,10.02,5.5,9,2.23-8.36-3.65-16.21-11.98-9.99.02-2.93-.76-4.56-4.01-4ZM253.76,502.77c-5.49,5.42-19.88-1.16-14.65-9.16,6.65-10.17,20.86,3.02,14.65,9.16ZM243.26,500.75c2.33,2.33,8.42,1.27,7.1-3.53-2.49-9.07-11.38-.74-7.1,3.53ZM224.01,496.01l-5,.49,5.86,2.63,1.04,5.29,3.08.59v-7.01c.34-.34,9.89,1.04,7-1.98l-8-1.01v-6.01c4.3-.78,2.49,1.21,3.73,3.74.79,1.6,2.56,1.96,3.27,1.26,3.46-3.41-13.04-17.15-10.99,2.01ZM257.23,491.46c.74,2.34,2.24,14.45,6.26,13.54l3.47-8.56c.89-1.62,8.31,2.39,7.03-.92-2.88-4.08-7.38-2.79-10.98-.52l-1.09-4.91-4.69,1.37ZM322.52,494.01c-2.96,2.83-1.77,10.24,2.47,10.99-.24-1.9,1.32-11.79-2.47-10.99ZM223.05,277.03c-1.43,2.62-1.49,10.94.91,12.51,5.74,3.76,4.15-6.18,7.55-8.53,1.84,1.62.78,7,3,7.99,4.15,1.85,2.43-7.33,6.48-7.99.44,3,0,10.37,4.54,8.04,1.54-2.35-.54-9.33-2.52-10.55-3.36-2.08-5.69,1.28-6.54,1.29s-1.7-2.82-4.88-2.77c-3.91.07-2.58,3.25-5.59,2.99v-3s-2.96.03-2.96.03ZM293.74,286.77c2.74,5.83,18.87,6.84,17.19-1.72l-2.7-.21c.22-12.77-19.74-9.27-14.49,1.93ZM290,292c-4.89-1.66-10.8,1.79-14.48-3.01-5.04-6.56,3.09-12,9.48-9.99v-6c2.53-1.15,5.01,2.73,5.01,4.5v14.5ZM279.04,288.97c12.7-.78,1-12.33-.65-5.03l.65,5.03ZM313.02,278.5l9.98,1.51c.61,3.56-1.84.93-4.06,1.41-7.82,1.69-6.04,8.75,1.68,9.54,2.46.25,5.5-1.2,8.36.04,1-9.66-6.73-19.54-15.97-12.5ZM249.16,277.15c-2.38,3.82.18,6.92,2.58,9.87l7.25,2.46-6.98.52c-1.68,2.22,6.04,5.55,10.29,2.06,3.64-3,4.33-18.61-1.35-14.61-1.09.76-2.35,7.54-5.44,8.54-3.3-2.17-2.55-5.48-2.5-8.99l-3.84.16ZM330.96,277.64c1.1,3.02,1.26,11.44,4.01,12.89,5.6,2.94,2.92-7.37,6.69-8.45l6.34,1.91c1.04-7.46-10.54-2.96-11.05-3.41-.87-.78-.63-2.57-1.2-3.32-.9-1.18-4.58-.97-4.79.38ZM350.15,274.66l.85,10.35h2.99s0-12,0-12l-3.84,1.65ZM278.39,283.95l.65,5.03c12.7-.78,1-12.33-.65-5.03ZM288.99,495.51v6.49c11.04-1.27.41-9.8,0-6.49ZM352.01,492l-1.01,6.99c6.48,1.17,7.95-7.41,1.01-6.99ZM250.35,497.21c-2.49-9.07-11.38-.74-7.1,3.53,2.33,2.33,8.42,1.27,7.1-3.53ZM255.03,535.47c-5.13-5.91-17.65-.27-11.59,8.6,4.71,6.9,18.19,3.85,16.52-1.49-.33-1.04-2.28-1.24-2.64-1.87-.94-1.64-.72-3.44-2.28-5.24ZM164.49,533.01c-4.95-1.05-5.34,13.56,2.97,13.85,1.47.05,7.13.22,8.01.14,1.97-.19,3.37-3,6.53-1l-1-11-4.54.96-1.47,7.04c-3.36-.66-1.42-7.44-1.99-8-6.39-.66-4.48,2.31-5,6.51-.17,1.39-.5,2.92-1.98,1.49-2.29-2.22,1.43-9.36-1.53-9.99ZM382.95,543.55c2.97,5.18,15.42,6.35,16.9.79,1.79-6.71-4.56.17-5.57.47-2.57.76-4.88-.25-7.28-.83v-1.98c6.31,3.68,13.84-1.97,7.74-7.74-3.95-3.74-16.91.36-11.79,9.29ZM239,548c-4.55-1.24-11.95,2-14.89-2.6-4.14-6.48,3.86-12.73,9.88-9.4v-6.99c2.49-.49,5.01,2.35,5.01,4.5v14.5ZM232.74,539.26c-2.74-2.75-6.6.18-5.59,4.01,1.4,5.34,9.38-.22,5.59-4.01ZM438,547.99c-4.33-1.33-14.04,2.05-15.8-3.69-2.27-7.4,3.45-9.65,9.8-9.31v-5.99c8.42.28,3.38,13.18,6,18.99ZM427.53,538.01c-2.49.68-2.25,8.68.94,7.98,4.8-1.82,3.91-9.3-.94-7.98ZM149.5,547.98c2.81.06,2.5-12.99-5.21-14.76-2.82-.65-8.59-1.14-8.29,2.78l10.01,1.51c-4.63-.89-13.64,3.44-8.76,8.26,3.24,3.19,9.6-1.07,12.25,2.22ZM204,533c-.5,2.31.69,16.33,5.03,13.54,2.05-1.32,2.16-8.62,5.96-9.53.14,1.9,1.48,10.63,4.5,9.99,4.29-.91-1.22-19.36-9.99-10.01l-1.65-3.81-3.84-.17ZM402.09,534.63c-.47,1.82,1.33,14.07,5.9,12.37l4.51-9.98,3.41,9.38,3.08.6c1.03-8.8-2.94-16.14-11.98-10.01.92-3.84-4.07-5.69-4.92-2.36ZM287.14,530.14l-.57,7.93-4.56,2.41c1.06,1.85,3.91,1.16,5.02,1.99,1.43,1.06.59,6.09,3.46,5.52s-.02-5.68,1.46-6.53l6.05-.47c.68-4.51-6.44-2.45-7-2.99v-6c2.76-1.01,4.06,7.76,7,4.99,1.57-1.48-5.68-12.27-10.86-6.85ZM341,539.01h-5c.95,2.69,3.34,2.97,5.87,3.12l1.2,5.82,2.92.06v-7.01s7,0,7,0c.77-4.23-6.87-1.63-7.92-4.59-.7-1.97.21-4.74,2.92-4.4l.99,4.33,3.01.66c.89-.88-1.15-5.77-2.28-6.69-6.49-5.26-9.77,2.8-8.71,8.7ZM301.01,534c-.4,4.54-.06,8.77,4.03,11.46,6.15,4.04,7.18-1.28,8.45-1.29,1.14,0,4.26,5.12,6.49,1.34-4.05-1.51-3.39-9.58-5.6-10.39l-3.3-.02c-1.91,11.95-5.77,9.17-6.11-1.08h-3.97ZM191.76,533.2c8.19-1.22,13.93,9.89,6.5,13.56-10.98,5.44-20.08-11.54-6.5-13.56ZM196.87,543.87c2.52-3.95-3.89-11.62-7.38-5.88s5.39,9.01,7.38,5.88ZM266.04,533.46c-6.54-4.08-2.72,14.29,1.62,14.41,3.61.1,1.52-6.7,4.34-8.41l7,.54c-.73-5.76-7.3-4.54-10.98-1.99-.15-1.31-.93-3.89-1.98-4.54ZM357.51,532.96c-3.74-.19-.96,8.75,0,11.03,4.66,11.24,5.93-3.52,7.46-4.57l7.04.56c-.72-5.75-7.31-4.55-10.98-1.99.09-2.36-.99-4.72-3.51-5.04ZM322,544.5c0,1.64,4.44,6.34,4.48,1,.03-4.32-.85-9.34-.64-13.84l-.79-1.21-3.06-.44v14.5ZM377.99,547.51c3.83.64.82-10.21-.5-10.5-3.66-.8-2.56,7.96-1.26,9.74.33.46,1.26.45,1.77.76ZM227.14,543.28c1.4,5.34,9.38-.22,5.59-4.01-2.74-2.75-6.6.18-5.59,4.01ZM428.48,545.99c4.8-1.82,3.91-9.3-.94-7.98-2.49.68-2.25,8.68.94,7.98ZM189.49,537.99c-3.56,5.87,5.39,9.01,7.38,5.88,2.52-3.95-3.89-11.62-7.38-5.88ZM265.5,461.98c2.81.06,2.5-12.99-5.21-14.76-2.82-.65-8.59-1.14-8.29,2.78l10.01,1.51c-4.63-.89-13.64,3.44-8.76,8.26,3.24,3.19,9.6-1.07,12.25,2.22ZM317.52,447.98c-2.81-4.23-7.43,2.91-1.51,8.51,2.47,2.34,4.58,2.8,7.99,2.52-1.47,4.12-3.99,1.85-7,2.49,10.99,8.14,14.28-4.29,12.99-13.5-7.19-1.69-4.6,8.65-10.98,8l-1.5-8.01ZM292.52,443.98l-3.52-.98c.32,6.27-1.52,14.29,3.5,18.98l1.5-6.98c5.71-.76,3.5,7.64,9.99,5.99.12-3.69-4.47-6.7-1.16-9.65l-1.36-2.34-7.46,3-1.49-8.02ZM354.49,448.01l-3.03.96c-1.49,4.41,2.69,12.67,8.01,12.06,2.14-.24,3.05-2.68,4.01-2.77,1.31-.12,5.49,3.73,6.51,2.73l-4.04-11.95h-4.91c-.51.48.14,8.73-4.04,7.95l-2.52-8.99ZM235,459.5c0,.35,3.65,3.41,4.53,1.53,1.13-1.85-.55-8.49,1.98-9.03,3.75-.79,2.81,9.12,6,9.98,2.38.6,1.63-3.3,1.53-4.53-.54-6.46-3.46-8.56-9.89-8.61l-1.19-4.85h-2.97s0,15.5,0,15.5ZM338.77,447.2c12.76-1.83,13.73,19.23-1.04,13.59-8.61-3.29-7.01-12.43,1.04-13.59ZM343.87,457.87c2.52-3.95-3.89-11.62-7.38-5.88s5.39,9.01,7.38,5.88ZM270,447c.34,4.92-1.81,13.8,4.98,14l4.51-9.98,3.41,9.38,3.08.6c1.03-8.8-2.94-16.14-11.98-10.01.02-2.93-.76-4.56-4.01-4ZM217.51,444.01l-7.5,2.47c1.35,2.81,8.41.9,8.99,1.51l1.9,12.42,3.09.59-.85-12.54,2.09-1.26,6.77.79v-2.99s-14.49-.99-14.49-.99ZM336.49,451.99c-3.56,5.87,5.39,9.01,7.38,5.88,2.52-3.95-3.89-11.62-7.38-5.88ZM328,611c4.91-.01,16.32-1.58,13.84,6.31-.69,2.21-4.76,2.75-3.83,3.68,1.44,1.44,4.84.71,5.06,5.49.32,7.18-10.03,6.42-15.06,6.53v-22ZM337.76,614.24l-5.76-1.23v6.99l5.76-1.23.81-2.26-.81-2.26ZM332,630c4.4.68,8.38-1.24,6.56-6.05l-6.55-1.95v8ZM258,633h4c.76-.72-2.56-18.68,6.85-11.35l.16,11.35h2.99c.1-8.41,2.22-21.28-9.99-14.01v-9s-4.01,0-4.01,0v23ZM306,626h-11c-.59,5.7,5.42,4.38,8.99,4.01-1.32,6.08-11.03,2.8-12.54-1.95-4.38-13.77,15.75-15.73,14.55-2.06ZM301.84,620.16c-3.66-2.2-7.15-.76-6.84,3.83h7s-.16-3.83-.16-3.83ZM324,625.99h-11.99c.41,5.36,6.42,3.93,9.99,4.01.38,2.22-.18,1.99-1.95,2.5-12.41,3.52-14.37-12.66-7.11-15.05s10.8,1.84,11.06,8.55ZM320,623.99c.77-6.01-6.94-6.37-7.97-1.48-.62,2.96,6.53.9,7.97,1.48ZM237,611v3s7,0,7,0v19h3v-19h7.01s0-3,0-3h-17ZM277,633h4c-.22-6.81-1.3-12.57,7.01-13.51,1.23-5.36-6.34-1.08-8,.51v-3.01s-3.01,0-3.01,0v16ZM338.56,623.95l-6.55-1.95v8c4.39.68,8.37-1.24,6.55-6.05ZM332.01,613v6.99l5.76-1.23.81-2.26-.81-2.26-5.76-1.23ZM295,623.99h7s-.16-3.83-.16-3.83c-3.66-2.2-7.15-.76-6.84,3.83ZM312.02,622.52c-.62,2.96,6.53.9,7.97,1.48.77-6.01-6.94-6.37-7.97-1.48ZM205.11,343.11l-4.11,31.89h7.01c.52-5.58.37-12.07.95-17.54.16-1.49.23-3.09,2.03-3.46l4.11,20.9,7.9.09,4.51-21,2.61,20.9,6.89.1-4.01-31.98-8.89.09c-1.63,6.35-2.16,13.16-4.06,19.44-.4,1.34-.08,3.11-2.03,3.46l-4.06-22.95-8.85.06ZM339.02,343.48c-1.81-1.1-4.92-.28-7.02-.48v32h7v-19c3.15,1.51,10.03,18.14,11.16,18.84,1.33.83,5.88-.22,7.84.16v-32h-7v19c-4.35-2.03-9.14-16.78-11.98-18.52ZM414,343v32h7v-19c7.15,5.76,7.48,21.62,19,19v-32h-7v19c-7.28-5.64-7.56-21.56-19-19ZM175.73,343.23c10.78-2.2,20.35,1.42,21.3,13.23.82,10.15-2.63,17.69-13.49,18.58-24.32,1.98-22.91-28.73-7.81-31.81ZM179.77,348.18c-10.88,1.3-10.03,22.14,1.63,21.77,12.36-.39,11.85-23.38-1.63-21.77ZM284.5,343c9.87,1.63,11.89,13.22,2.5,17.49l6.99,14.5-7.9-.09c-1.2-5.59-2.85-13.37-10.1-11.9v12.01s-7,0-7,0v-32c4.77.55,10.95-.75,15.5,0ZM277.64,348.11c-2.25.75-4.34,11.42,3.64,9.7,8.64-1.86,4.12-11.42-3.64-9.7ZM242,343v32h21v-6h-14v-8.01s13.01.01,13.01.01v-4.43s-12.07-1.01-12.07-1.01l-.94-6.57,13.07-.43.94-5.56h-21ZM397.86,343.14l11.14,31.85-7.9-.09-1.59-5.92-10.55-.52-2.06,6.44-7.9.09,11.14-31.85h7.72ZM394.99,350c-2.65-.29-1.58.06-2.01,1.48-1.99,6.53-5.85,15.57,4.98,10.04l-2.97-11.52ZM315.86,343.14l10.14,31.86-6.87-.12-2.76-6.74-9.79-.19-1.68,6.95-7.9.1,10.9-31.37,7.97-.48ZM315,363c.65-.65-1.31-12.41-3.99-13l-3.01,12.99h7ZM152.5,343c17.06,2.52,9.12,25.79-7.5,21v11.01s-7,0-7,0v-32c4.54.47,10.13-.64,14.5,0ZM145,359c13.49,1.89,13.52-12.58,0-11.01v11.01ZM366,375h8v-32h-8v32ZM181.4,369.96c12.36-.39,11.85-23.38-1.63-21.77-10.88,1.3-10.03,22.14,1.63,21.77ZM281.28,357.81c8.64-1.86,4.12-11.42-3.64-9.7-2.25.75-4.34,11.42,3.64,9.7ZM392.98,351.47c-1.99,6.53-5.85,15.57,4.98,10.04l-2.97-11.52c-2.65-.29-1.58.06-2.01,1.48ZM311.01,350l-3.01,12.99h7c.65-.65-1.31-12.4-3.99-12.99ZM145,348v11.01c13.49,1.89,13.52-12.58,0-11.01Z"/>
</svg>