<?xml version="1.0" encoding="UTF-8"?>
<svg id="_レイヤー_1" data-name="レイヤー 1" xmlns="http://www.w3.org/2000/svg" width="198.47mm" height="253.84mm" viewBox="0 0 562.6 719.53">
  <path d="M329.07,63.01c4.27-2.49,18.64,3.3,20.28,2.87,2.4-.63,17.77-15.35,21.8-18.28,26.2-19.01,51.51-21.24,72.74,6.08,20.46,26.33,20.04,71.85,20.33,103.75,10.13,4.83,9.84,24.34,17.28,28.63,3.33,1.92,11.16-.43,16.09-.08,23.99,1.71,30.74,30.72,9.47,41.52,9.26,15.77,15.5,34.5,14.03,53.05-.31,3.87-2.87,10.31-2.75,12.8.16,3.35,3.79,12.4,4.6,17.28.52,3.15-.36,6.55.33,9.67s8.51,13.77,10.65,18.35c5.61,12.07,10.22,29.54,10.24,42.86,0,5.83-3.59,19.76-2.92,23.75.46,2.76,4.92,9.37,6.3,12.78,12.96,32.11,20.88,85.63,9.81,118.75-1.29,3.86-4.88,8.43-5.33,11.67-1.46,10.63,1.84,26.97,1.1,39.09-2.03,33.03-18.09,51.42-49.26,60.74-10.33,3.09-17.46,1.18-26.06,2.94-7.65,1.57-26.48,12.35-36.21,15.79-10.63,3.76-21.33,6.9-32.56,8.44-1.51,5.02-1.09,10.14-2.66,15.34-4.7,15.61-19.8,26.75-35.82,28.18-32.5,2.91-61.27-9.88-66.42-44.55l-25.5-1.47c-3.48,35.67-36.07,50.21-68.81,45.78-20.52-2.78-34.86-20.39-35.84-40.66-24.4-1.21-45.55-7.47-67.89-16.62-5.53-2.26-17.36-9.34-21.76-10.24-5.25-1.07-11.84.29-17.52-.48-8.17-1.11-25.54-8.83-32.68-13.32-26.2-16.52-25.83-47.21-25.12-74.96.13-5.25,2.25-13.76,1.82-18.73-.25-2.88-4.35-10.46-5.5-14.52C-4.66,493.93.05,453.08,13.89,419.34c1.51-3.69,6.49-11.02,7-14.08s-2.74-15.63-2.87-20.7c-.38-14.17,3.24-30.23,8.87-43.22,2.38-5.5,9.81-15.38,10.92-19.08s.74-9.55,1.53-13.47c.86-4.28,4.2-12.73,4.47-15.43.18-1.89-2.54-10.21-2.78-13.8-1.25-18.32,4.9-36.48,14.03-52.05-20.35-10.03-14.96-38.64,7.62-41.38,5.63-.68,13.32,1.65,17.48.47,5.01-1.42,6.76-12.49,8.43-16.56,2.84-6.95,6.02-6.79,5.46-15.5-.42-6.6-2.59-14.19-2.97-21.02-1.44-26.07,4.92-67.29,25.98-85,26.35-22.17,60.14-3.1,81.51,16.49,6.33-12.83,18.72-18.6,32.49-12.99,1.57-76.97,113.92-64.5,98.01,11ZM320.07,72.01c10.11-20.39,6.46-44.36-12.09-58.41-25.71-19.46-64.2-5.19-70.66,26.17-.78,3.8-.85,16.09-2.17,17.83-2.69,3.55-5.91-.74-8.53-1.64-12.95-4.41-23.22,5.62-24.56,18.05-19.26-15.98-46.76-39.09-73.34-26.85s-34,59.12-32.64,85.35c.46,8.9,4.56,21.62,2.97,29.99-.42,2.23-4.22,5.67-5.48,8.52-3.91,8.82-3.7,21.51-17.02,21.06-9.32-.31-18.9-3.42-25.92,5.99-9.1,12.2.03,23.16,11.43,28.44-10.11,15.29-17.02,33.4-16.02,52.04.24,4.52,3.13,11.72,2.99,14.87-.18,3.99-4.12,11.68-4.83,17.21-.49,3.79.48,8.11-.33,11.67-.57,2.5-8.71,13.29-10.67,17.33-8.43,17.33-11.7,37.52-8.86,56.62.41,2.77,2.9,7.09,2.6,9.03-.25,1.61-5.76,10.1-7.03,13.05-13.46,31.43-20.59,76.62-10.11,109.46,1.4,4.37,6.01,12.08,6.25,15.84.36,5.56-1.84,14.92-2.01,20.84-.75,27.42-.35,55.74,26.37,70.71,6.31,3.54,21.33,9.91,28.28,10.72,4.82.57,13.34-1.22,16.39-.48,6.01,1.46,19.68,10.08,27.02,13.07,21.96,8.95,42.83,12.97,66.41,15.4-.26,19.72,13.04,37.65,33.19,40,30.77,3.59,60.69-10.38,61.53-44.25l.8-1.2,35.05.57c1.42,33.84,29.39,47.98,60.5,44.98,22.38-2.16,35.94-20.98,33.52-42.98,19.78-1.92,38.6-8.97,56.67-16.83,4.04-1.76,15.03-8.58,18.04-8.98,8.38-1.12,13.26,1.57,24.24-1.74,41.02-12.35,46.86-36.16,46.08-76-.11-5.7-2.13-14.23-1.72-19.83.22-3.06,3.67-6.64,4.97-9.84,13.58-33.56,3.32-90.26-10.8-122.78-1.29-2.97-4.75-6.62-5.03-9.91-.15-1.75,2.33-9.19,2.58-12.56,1.73-23.89-1.83-40.19-13.23-60.85-1.33-2.4-6.15-7.89-6.59-9.41-.88-3.04.17-7.25-.34-10.66-.74-5.01-4.9-15.07-4.92-18.11-.03-3.43,2.8-10.25,3.09-14.98,1.19-19.77-6.78-35.89-15.09-52.95,20.21-8.69,17.63-33.5-5.41-34.65-6.01-.3-11.53,2.65-17.04-.94-8.08-5.26-7.23-15.38-11.66-22.34-1.68-2.65-6.44-5.75-7.34-7.69-.82-1.78.68-12.91.54-16.52-1.13-30.04-4.72-76.22-29.56-96.44-29.54-24.04-59.25,6.84-80.97,25.82-9.03-7.41-19.69-5.21-29.5-.84ZM301.26,43.92c0,11.15-9.04,20.2-20.2,20.2s-20.2-9.04-20.2-20.2,9.04-20.2,20.2-20.2,20.2,9.04,20.2,20.2ZM296.19,43.83c0-8.36-6.77-15.13-15.13-15.13s-15.13,6.77-15.13,15.13,6.77,15.13,15.13,15.13,15.13-6.77,15.13-15.13Z"/>
</svg>