<?xml version="1.0" encoding="UTF-8"?>
<svg id="_レイヤー_1" data-name="レイヤー 1" xmlns="http://www.w3.org/2000/svg" width="202mm" height="269.66mm" viewBox="0 0 572.6 764.4">
  <path d="M307.12,48.63c0,11.42-9.26,20.68-20.68,20.68s-20.68-9.26-20.68-20.68,9.26-20.68,20.68-20.68,20.68,9.26,20.68,20.68ZM301.73,48.6c0-8.44-6.84-15.28-15.28-15.28s-15.28,6.84-15.28,15.28,6.84,15.28,15.28,15.28,15.28-6.84,15.28-15.28ZM335.49,65.56c6.31-.07,12.11,6.96,16.73,8.78,3.41,1.34,8,.81,11.45,1.55,12.59,2.72,24.22,6.27,31.46,17.79,12.08-2.31,28.37,2.99,37.84,10.9,2.99,2.5,6.8,8.33,9.09,9.91,5.34,3.67,12.07,4.14,17.92,10.08s10.31,19.35,13.73,22.77c1.82,1.83,14.65,7.2,18.65,9.85,15.76,10.45,27.39,28.71,31.31,47.19,27.75,8.24,40.42,32.34,42.64,59.85.85,10.55-1.64,15.1,1.91,25.09,7.87,22.14,6.43,52.46-15.47,66.11-2.7,1.68-6.71,2.57-8.85,4.15-2.32,1.72-5.01,6.51-7.95,9.05-13.48,11.68-34.65,14.43-51.52,9.97-2.22,12.88-10,29.96-20.67,37.83-4.69,3.46-11.23,4.75-14.65,7.1-.72.49-1.1,1.17-1.26,2.01-.45,2.4,4.34,16.27,4.61,21.52s-3.25,19.27-2.87,20.84c.27,1.11,2.29,2.53,3.04,4,4.48,8.73,6.35,10.84,11.63,18.37,8.62,12.3,14.33,29.82,15.26,44.83.15,2.37-1.31,5.21-.94,6.8.16.7,6.7,7.81,8.04,10,4.09,6.69,7.04,16.32,6.88,24.2-.07,3.51-2.84,11.16-2.68,12.99.06.75,6.55,10.21,7.78,12.83,6.5,13.82,10.5,33.57,3.37,47.71-1.63,3.24-6.64,8.22-7.3,10.7-1.58,6.01.47,10.57-2.76,18.24-4.35,10.35-15.51,16.07-18.36,21.64-1.59,3.11-1.39,7.63-2.65,11.35-6.67,19.65-31.68,26.48-50.32,26.19-24.27,37.3-91.46,33.95-116.97-.84-1.27-1.73-4.04-7.82-4.42-8.09-2.54-1.83-15.91-1.61-18.73.31-.95.64-6.1,9.66-8.07,11.93-25.34,29.29-92.94,33.45-114.17-3.26-21.74-.32-45.05-6.83-51.35-30.16-.94-3.49-.24-7.62-2.03-10.97-3.24-6.07-9.15-9.35-11.88-18.12-1.74-5.61-.73-9.59-1.76-14.24-.63-2.86-5.58-9.2-6.98-13.02-6.05-16.43-1.76-39,6.02-54.37,1.69-3.33,8.48-11.3,8.96-13.04,1.12-4.01.42-12.11,1.29-16.71,1.75-9.19,7.55-15.79,13.78-22.31-3.71-17.35-1.74-28.45,7.92-43,1.44-2.17,7.73-8.98,8.02-9.98s3.2-18.63,3.25-19.82c.17-4.76-2.3-9.89-2.03-15.96.29-6.52,2.89-13.38,3.83-19.82-3.58-2.92-7.22-9-10.32-11.71-3.44-3.01-10.47-4.95-14.85-8.15-10.77-7.91-19.63-25.7-20.68-38.83-15.87,6.31-38.13,2.61-51.47-8.02-3.48-2.78-6.35-8.05-9-10-2.05-1.52-5.73-2.22-8.22-3.78-17.98-11.25-22.76-33.43-20.05-53.43,1.29-9.52,5.81-12.81,5.74-23.27-.2-33.12,7.87-63.82,42.77-74.71,3.59-17.08,14.32-34.8,28.32-45.19,4.33-3.21,16.02-8.1,18.36-10.64,3.19-3.46,6.64-13.98,10.72-19.28,8.14-10.57,13.59-9.14,21.77-15.23,8.41-6.27,8.59-11.38,21.38-16.62,9.81-4.02,17.14-2.74,24.98-5.02,1.78-.52,5.66-5.59,7.79-7.21,12.22-9.33,22.34-7.35,35.18-10.82,4.42-1.19,13.07-9.29,19.33-9.73-4.98-22.68,3.86-46.99,24.74-58.2,40.7-21.85,85.36,15.44,73.71,59.12ZM328.44,68.59c11.39-27.01-7.12-60.15-36.5-62.98-35.23-3.4-60.02,30.09-47.49,62.98-4.72,1.39-10.59,2.42-15,4.51-2.86,1.36-7.38,5.92-8.7,6.3-12.49,3.61-25.01.72-36.8,11.2-1.62,1.44-5.72,7.93-6.21,8.05-1.99.46-5.67-1.07-8.62-.97-8.82.3-24.2,6.29-30.56,12.53-2.25,2.21-3.8,6.01-6.15,7.85-4.16,3.27-11.33,4.16-16.44,8.56-3.48,2.99-7.97,9.63-10.33,13.67-1.93,3.33-3.8,10.14-5.75,12.25-2.3,2.5-13.25,6.8-17.36,9.64-14.66,10.15-25.33,27.97-28.57,45.43-28.33,8.92-41.76,32.57-42.56,61.44-.14,5.06,1.53,12.03,1,15.96-.37,2.78-3.02,6.05-3.98,9.07-5.93,18.6-4.17,43.73,13.08,55.96,3.25,2.3,8.98,3.56,11.47,5.53,1.8,1.43,3.09,5.12,4.93,7.07,7.8,8.24,24.95,13.46,36.09,13,4.14-.17,16.26-4.15,17.44-3.59,3.37,1.6,3.08,9.27,4.29,12.78,4.41,12.78,10.76,23.43,22.4,30.6,2.46,1.52,5.54,1.89,8.26,3.74,5.47,3.71,8.22,11.45,15.11,14.14-1.09,8.17-4.84,16.4-4.84,24.8,0,4.36,2.66,10.91,2.67,14s-3.35,9.8-3.79,14.15c-.26,2.62.91,5.52.68,6.74-.25,1.34-13.01,15.84-15.53,22.35-4.76,12.32-1.67,15.22-1.24,26.78.31,8.2-8.09,12.03-11.5,19.48-3.84,8.37-1.6,16.74-3.71,24.29-.5,1.79-7.88,10.67-9.67,14.33-6.78,13.84-10.87,33.61-5.61,48.37,1.46,4.09,6.6,10.7,7.28,13.72,2.24,10.06-.92,14.02,6.8,24.2,1.78,2.36,7.08,6.32,7.89,8.11,1.33,2.93.16,8.58,1.2,12.8,4.96,20.02,30.93,25.49,48.66,25.34,20.61,36.7,85.5,32.81,109.63,2.32,5.77-7.28,3.42-11.44,14.54-12.46,5.86-.53,11.55.55,17.32,1.15,12.25,28.64,43.52,37.37,72.53,34.71,15.55-1.43,36.2-10.97,42.78-25.71,17.64.15,43.45-4.88,48.9-24.61,1-3.63.39-8.16,1.46-10.54.53-1.19,11.62-10.05,14-13,3.65-4.53,7.02-10.64,7.48-16.52.23-3.04-.97-7.15-.7-8.84s5.99-7.7,7.51-10.35c7.6-13.18,4.24-29.79-1.63-42.97-1.75-3.94-8.49-13.03-8.99-15.08-.58-2.38,2.43-11.83,2.43-15.91,0-5.81-1.95-13.52-4.81-18.64-2.02-3.62-9.09-9.67-9.6-11.4-1.21-4.09.2-12.61-.33-17.67-2.12-20.24-10.63-26.8-20.33-41.67-2.1-3.22-3.58-8.5-5.7-12.3-.91-1.62-3.34-2.99-3.69-4.36-.5-1.96,2.09-6.57,2.58-9.08,1.43-7.32,1.52-13.12.03-20.47-.62-3.02-4.87-12.59-4.58-14,1.33-6.35,12.79-8.96,17.76-12.31,9.22-6.22,17.89-23.23,19.97-34.04.55-2.85-1.03-6.43,1.63-8.4,15.02,9.28,42.15,4.58,54.01-7.96,1.85-1.95,3.14-5.64,4.93-7.07,2.49-1.98,8.22-3.23,11.47-5.53,17.24-12.22,19.01-37.35,13.08-55.96-.96-3.02-3.61-6.29-3.98-9.07-.59-4.4,1.27-12.16.96-17.9-1.58-28.49-14.69-50.59-42.51-59.49-3.3-17.76-14.16-35.65-29.17-45.83-4.47-3.03-17.79-8.23-20.04-10.46s-7.42-15.83-12.25-21.25c-7.1-7.97-12.46-6.89-19.31-11.43-1.41-.94-3.9-5.73-5.68-7.57-9.94-10.29-26.48-13.72-40.32-12.45-5.02-9.4-14.55-14.3-24.69-16.53-5.22-1.15-11.54-.86-15.85-2.15-5.97-1.79-14.92-11.48-23.16-11.35Z"/>
</svg>