<?xml version="1.0" encoding="UTF-8"?>
<svg id="_レイヤー_1" data-name="レイヤー 1" xmlns="http://www.w3.org/2000/svg" width="204.61mm" height="305.86mm" viewBox="0 0 580 867">
  <path d="M150.5,449c-4.93-.66-10.77-5.35-14.04-5.96-11.41-2.12-17.15.56-30.14-4.86-11.08-4.63-12.06-9.32-19.39-14.61-3.09-2.23-10.36-2.96-14.87-6.13-11.2-7.87-12.2-17.21-12.06-29.92.13-11.77-3.45-11.7-4.75-21.27-.7-5.17.14-10.4-.42-15.58-14.27-10.93-22.27-26.7-17.54-44.87,1.14-4.38,6.45-11.29,6.71-13.37.88-6.99-2.81-14.72-.56-24.48,3.07-13.31,10.31-14.75,14.98-23.02,3.28-5.8,3.28-11.88,8.6-18.4,2.44-3,6-4.75,7.99-7.01,4.47-5.05,5.41-10.68,11.97-16.03,5.55-4.53,15.07-6.46,17.98-9.02,1.97-1.73,5.29-8.28,7.99-11.01,3.17-3.22,10.72-7.18,13.06-9.94s2.97-8.86,5.17-12.83c4.47-8.06,15.08-14.28,19.84-22.16,3.77-6.24,3.59-13.12,9.94-20.06,8.18-8.94,15.59-8.12,23.95-13.05,2.57-1.51,5.03-5.43,7.6-7.4,12.15-9.34,16.29-7.51,29.76-10.24,3.57-.72,7.42-4.83,11.6-4.89-1.39-13.07-1.23-23.33,3.94-35.57,16.07-38.02,68.69-45.22,95.2-13.84,12.42,14.7,14.93,31.69,12.12,50.38,6.19,4.48,10.65,3.29,17.1,4.4,8.59,1.48,16.52,6.44,23.22,11.78,1.85,1.47,4.27,5.35,4.8,5.69,1.61,1.02,9.22,2.5,12.41,4.1,6.29,3.15,13.66,9.79,16.86,16.14,1.46,2.9,3.08,10.98,3.68,11.82,2.11,2.96,12.56,7.93,17.61,15.9,2.28,3.59,6.22,15.79,7.18,16.82,1.81,1.94,10.51,6.04,14.01,8.99,4.3,3.62,11.06,14,13.44,15.56s7.94,2.45,11.58,4.42c11.03,5.98,10.5,11.32,16.54,19.46,1.94,2.61,7.85,6.09,10.42,9.58,4.09,5.54,4.34,13.02,6.56,16.44.75,1.15,3.95,2.74,5.47,4.53,8.48,10.01,11.7,19.74,10.95,33.01-.15,2.72-2.05,7.74-1.69,9.88.21,1.27,3.9,5.65,4.9,7.95,6.77,15.44,2.27,32.61-8.65,44.73-1.83,2.03-6.54,3.96-7.33,6.67-1.21,4.16.34,11.52-.45,16.55-.69,4.4-5.17,10.59-5.46,13.36-.25,2.34,1.53,6.16,1.7,8.9.68,11.37-5.09,23.34-15.31,28.65-3.88,2.01-8.44,2.36-11.64,4.36-9.59,5.98-10.05,11.91-24.52,16.48-10.1,3.19-17.25,1.46-25.79,3.21-2.68.55-5.9,3.31-8.75,4.25-9.38,3.07-19.55,1.46-28.97-.47,2.15,5.5-2.58,13.18-2.57,17.5,0,1.04,2.69,19.56,3.01,20.55.72,2.24,5.05,7.08,6.57,10.43,2.59,5.72,2.57,11.91,4.56,16.44,1.55,3.51,6.5,7.67,8.62,12.38,3.03,6.74,2.46,12.58,4.27,18.73,1.1,3.75,4.92,7.84,6.24,12.76s.68,8.41,1.51,12.49c.73,3.57,4.37,8.64,5.48,13.52,1.28,5.6.57,10.7,1.52,15.48.81,4.03,4.72,7.99,5.51,13.49.62,4.29-.7,9.39-.2,12.36.71,4.17,4.39,18.57,5.68,23.16,1.03,3.67,4.65,7.8,6.06,12.94,1.08,3.94,1,8.8,1.97,12.03.74,2.46,4.53,6.67,5.93,10.07,4.4,10.72,2.18,16.22,3.04,25.95.28,3.2,3.31,7.65,3.77,12.24.71,6.99-2.14,16.75-1.71,20.86s4.7,10.67,4.8,17.14c.11,6.76-3.95,13.37-4.15,18-.15,3.45,2.23,7.64,2.82,11.24,5.3,32.39-16.63,49.85-46.37,54.12-6.8.98-16.02.08-21.83,1.17-2.67.5-10.16,5.31-14.33,6.67-36.95,12.07-71.45,1.12-79.32-39.61-20.9-2.35-41.76-4.64-62.86-2.06-8,45.67-45.84,54.18-85.56,39.99-3.13-1.12-7.82-4.59-10.02-4.98-4.42-.8-10.86-.4-15.82-1.18-29.76-4.71-49.98-18.58-47.63-51.35.21-2.97,2.14-6.41,1.96-8.96-.27-3.81-6.7-12.51-7.02-21.02s3.89-13.47,4.53-19.38c.35-3.31-2.41-10.38-2.37-14.53.06-6.62,4.15-13.65,4.59-18.24.96-9.85-1.38-15.09,3.12-26.05,1.33-3.23,5.37-7.92,5.94-10.06.92-3.44.79-7.72,1.98-12.02,1.35-4.88,5.17-9.81,6.02-12.98,3.45-12.98,3.6-31.19,7.75-43.25.73-2.13,2.85-4.19,3.25-5.75,1.14-4.47.17-10.69,1.54-16.46,1.07-4.51,4.69-9.4,5.47-12.53,1.16-4.63.22-9.11,2.2-14.8,1.33-3.82,4.75-7.4,5.57-10.43,1.72-6.33,1.11-11.81,4.27-18.73,2.06-4.52,7.37-9.25,8.64-12.36,1.73-4.22,1.78-10.67,4.06-15.94,1.65-3.81,6.69-9.11,7.28-11.72.72-3.22-.06-6.97.49-10.51,1.4-9.08,6.56-15.28,3.72-24.78-5.21-.49-11.45.68-16.5,0ZM398.01,438c12.04,4.27,22.43,8.84,35.26,3.77,2.8-1.11,6.7-4.54,8.28-4.79,2.69-.44,6.42,1.15,9.9,1.03,7.95-.26,21.95-4.95,28.48-9.58,3.23-2.29,7.2-8.65,9.12-9.88s8.14-2.24,11.3-3.7c9.55-4.43,14.28-13.84,13.64-24.33-.18-3.03-2.22-7.49-1.97-10,.19-1.96,4.78-8.27,5.72-12.28,1.56-6.63-1.02-14.81.44-19.56.58-1.9,6.87-5.46,8.71-7.29,10.19-10.19,13.56-25.22,7.88-38.67-1.24-2.93-5.56-7.53-5.8-9.27-.38-2.77,1.74-7.7,2.01-10.97.96-11.82-2.11-21.27-9.99-29.98-1.59-1.76-5.5-3.32-6.47-5.53-2.2-5.03-1.08-9.4-5.53-15.47-2.67-3.63-7.56-6.17-10.02-8.98-6.35-7.28-4.99-13.82-16.77-19.23-3.57-1.64-8.6-1.92-10.78-3.22-1.31-.78-8.54-12.19-12.42-15.58-3.35-2.94-15.59-9.36-16.47-10.53-1.81-2.43-3.69-12.37-6.72-17.28-4.86-7.85-13.92-11.59-17.29-16.71-4.49-6.81-2.68-12.58-11.01-19.99-7.65-6.81-14.06-5.79-20.48-9.52-1.63-.94-3.04-4.28-5.02-5.98-12.07-10.4-17.44-8.67-31.3-11.7-3.54-.77-8.36-4.77-12.29-5.74.61-7.81,2.33-15.31,1.61-23.58-1.75-19.88-18.76-38.61-38-43-39.39-8.98-72.09,27.38-60.44,65.58-5.32.14-12.53,5.9-16.3,6.75-11.61,2.62-18,.73-28.77,9.23-2.38,1.87-6.8,8.07-7.8,8.7-1.32.84-5.48.88-7.7,1.8-8.89,3.69-18.09,10.12-21.5,19.5-1.11,3.06-.99,6.92-2.48,9.52-3.64,6.33-15.59,13.65-19.69,20.31-2.7,4.39-3.48,12.29-5.3,14.7-1.95,2.58-12.78,8.82-17.08,13.92-1.87,2.21-5.34,8.85-6.39,9.61-1.61,1.15-6.65,1.34-9.57,2.43-12.59,4.68-12.13,12.71-18.59,20.41-3.06,3.65-7.42,4.6-10.84,10.16-3.04,4.95-3.27,11.97-5.15,14.85-.72,1.11-4.81,3.62-6.47,5.53-8.51,9.85-9.71,17.11-9.01,30.06.16,2.93,2.31,8.96,1.88,10.77-.31,1.31-2.76,2.77-3.68,4.35-11.34,19.5-2.74,38.47,14.73,49.99-1.66,8.27-1.45,16.43,1.61,24.34.9,2.32,3.64,5.38,3.97,6.88.47,2.15-1.33,6.07-1.46,8.65-.51,9.92,1.27,19.01,10.24,24.73,4.63,2.95,11.75,3.33,14.47,5.03.77.49,3.55,5.48,5.35,7.15,7.14,6.63,22.81,12.26,32.47,12.59,3.44.11,6.92-1.42,9.72-.85,2.04.41,5.15,3.3,7.75,4.33,10.07,4,17.93,2.44,27.98-.49.48,2.92-1.07,5.65-1.07,8.49,0,3.16,2.06,7.28,1.78,9.88-.22,2.06-3.54,7.01-4.41,10.42-1.51,5.95-.4,11.61-1.5,16.5-.66,2.93-6.79,9.56-8.57,14.43-1.67,4.59-1.51,11.49-2.74,14.26-.67,1.52-4.52,4.12-5.92,6.08-6.39,8.94-4.42,15.37-7.01,23.99-.92,3.06-5.01,7.52-6.27,11.73-1.43,4.77-.66,8.36-1.5,12.5-.53,2.62-3.29,5.92-4.26,8.74-2.7,7.85-1.37,13.43-2.75,20.25-.82,4.04-4.72,7.98-5.51,13.49-.64,4.48.76,8.53.44,11.62-.22,2.16-4.36,10.15-5.26,14.57-.66,3.25.02,6.46-.69,9.31s-4.71,8.22-6.02,12.98-1.01,9.19-1.98,13.02c-.65,2.54-5.24,6.85-6.8,11.2-3.7,10.36-1.15,15.37-1.97,23.94-.31,3.26-3.56,7.64-4.03,13.06-.6,7.02,2.3,14.56,2,18.99s-5.23,11.11-4.99,18.99c.26,8.75,7.39,16.45,7.79,20.2.19,1.76-2.51,8.38-2.8,11.83-2.57,30.41,20.52,41.06,46.55,44.52,4.1.54,7.85-.4,12.35.65,7.26,1.69,14.3,7.05,23.93,9.07,36.38,7.64,59.54-6.36,65.3-43.61l20.41-2.1c5.61,2.09,10.34-.14,16.04-.06,11.43.15,23.92,4.87,35.85,3,7.01,40.03,35.72,53.22,73.4,40.34,3.94-1.35,10.01-5.71,12.76-6.24,6.44-1.25,14.43-.4,20.83-1.17,27.46-3.31,50.69-17.98,44.17-48.91-.65-3.09-3.48-9.34-3.44-11.49.07-3.38,4.97-10.27,4.99-16.98.02-7.41-4.79-13.92-5.06-18.06-.27-4.11,2.63-11.96,2.01-18.97-.45-5.18-3.82-10.19-4-13.02-.64-10.11,1.96-15.83-3.16-26.82-3.74-8.04-3.83-5.13-5.98-15.02-1.7-7.83-6.5-13.84-7.66-18.34-1.07-4.15-.61-10.22-1.88-15.12-.83-3.17-3.88-7.97-4.06-9.77-.31-3.09,1.09-7.14.44-11.62-.79-5.5-4.7-9.45-5.51-13.49-1.04-5.18-.01-10.48-1.52-16.48-1.15-4.57-4.78-9.05-5.48-12.52-.84-4.14-.07-7.73-1.5-12.5-1.23-4.09-5.73-9.56-6.48-12.52-2.33-9.19-.39-13.87-6.81-23.19-5.24-7.6-4.47-2.75-6.53-12.47-2.17-10.22-9.32-17.12-10.66-22.35-.89-3.47.11-7.89-.35-11.65-.39-3.2-2.76-7.64-2.76-10.11-.01-3.47,3.67-9.89,3.66-15,0-2.1-2.43-10.79-1.78-11.5ZM312.72,64.34c0,12.62-10.23,22.86-22.86,22.86s-22.86-10.23-22.86-22.86,10.23-22.86,22.86-22.86,22.86,10.23,22.86,22.86ZM306.85,64.25c0-9.44-7.65-17.09-17.09-17.09s-17.09,7.65-17.09,17.09,7.65,17.09,17.09,17.09,17.09-7.65,17.09-17.09ZM215,228c0,3.69-1.06,13.61,3.65,14.89s3.44-8.87,6.85-10.88c1.99,3.38.08,9.56,5.51,9.52,1.02-.81,2.48-10.81,4.97-8.52l1.46,8.05,4.55.95c.79-4.59-1.33-14.06-7.42-13.03-1.51.26-2.85,2.12-3.94,1.93-2.34-.41-4.91-6.7-10.61.09-.18-3.1-2.25-3.3-5.02-3ZM292,245c-2.06.72-3.48-1.57-4.7-1.79-2.15-.38-4.18,3.51-10.02,0-8.7-5.22-.14-16.89,8.71-13.22v-6.99c3.32-1.19,6.01,4.14,6.01,6.5v15.5ZM279.09,240.9c2.73.54,5.58.16,6.81-2.6-1.91-8.71-9.88-5.71-6.81,2.6ZM300,238.01c1.1,2.62,4.92,3.43,7.45,3,4.08-.68,5.8-8.84,8.47-1.65-4.41,8.2-20.46,5.17-21.01-3.86-.53-8.66,11.96-9.7,14.98-5.89,6.23,7.85-3.38,10.42-9.89,8.4ZM305.98,230c-8.57,1.26-7.54,5.97,1.02,5l-1.02-5ZM245.16,228.66c-2.26,7.15,4.85,14.12,11.85,11.85l-2.74,3.35-4.76-.88-.51,2c4.53,2.08,8.47,2.92,12.02-1.46,3.12-3.84,3.51-18.56-2.07-15.07-1.89,1.18-2.28,9.36-7.38,8.52-3.08-.96-1.85-9.48-2.59-9.97-.94-.63-3.32.02-3.83,1.65ZM319.23,235.21c.13-.23,3.03-1.83,3.53-1.94,2.27-.5,6.31.64,7.24-1.26l-10.32-1.18-1.66-2.82c9.58-3.2,16.61.57,17.76,10.76.94,8.29-2.37,3.73-4.24,3.71-3.07-.04-10.88,2.1-12.35-2.15-.4-1.16-.54-4.09.05-5.12ZM331,238.99c-1.29-3.27-5.61-4.37-7.99-1.47.75,4.2,5.25,2.12,7.99,1.47ZM345.57,231.9l-3.16-4.82-4.16,1.37c1.24,3.79,1.25,15.03,6.4,15.42,3.15.24,2.22-7.3,4.61-9.62,2.7-2.63,5.96,1.69,7.24,1.72,1.54.03,1.32-2.65.22-3.72-3.23-3.13-7.46-1.42-11.16-.35ZM361.51,223.01c-3.29,1.04-.58,11.21-.5,14l2.93-.04c1.12-2.53,3.03-15.68-2.43-13.95ZM202.14,232.44l9.98,20,1.46-.73-9.98-20-1.46.73ZM251.63,296.64c0,11.79-9.55,21.34-21.34,21.34s-21.34-9.55-21.34-21.34,9.55-21.34,21.34-21.34,21.34,9.55,21.34,21.34ZM226.71,285.22c-8.08,1.85-8.27,18.24-1.63,22.2,17.11,10.22,22.65-27.01,1.63-22.2ZM297.28,296.74c0,11.79-9.56,21.35-21.35,21.35s-21.35-9.56-21.35-21.35,9.56-21.35,21.35-21.35,21.35,9.56,21.35,21.35ZM282.69,306.69c4.98-4.65,4.52-19.66-3.4-21.47-17.7-4.05-17.17,23.34-3.77,23.86,2.04.08,5.71-1.03,7.17-2.39ZM303,317v-41h14.5c.44,0,6.4,1.38,7.32,1.68,15.73,5.06,16.97,29.73,2.23,36.87-1.08.52-5.9,2.45-6.55,2.45h-17.5ZM314,309c17.64,2.24,17.98-27.06,0-24v24ZM379,276v41h26v-9h-16l.94-7.56,14.07-.43v-8.01h-15.01v-7h16v-9h-26ZM355,277.5c-1.54-2.04-5.07-1.77-7.55-1.55-.92.08-1.88-.08-2.79.21l-1.66,1.34v39.5h28v-9h-16v-30.5ZM225.08,307.42c17.11,10.22,22.65-27.01,1.63-22.2-8.08,1.85-8.27,18.24-1.63,22.2ZM279.29,285.22c-17.7-4.05-17.17,23.34-3.77,23.86,2.04.08,5.71-1.03,7.17-2.39,4.98-4.65,4.52-19.66-3.4-21.47ZM314,285v24c17.64,2.24,17.98-27.06,0-24ZM189.5,276c10.81,1.14,19.37,6.64,15.82,18.83-2.53,8.71-12.53,9.77-20.33,9.17v13.01s-10,0-10,0v-41c4.67.35,9.91-.48,14.5,0ZM185,296c14.62,3.07,14.54-15.26.44-11.06l-.44,11.06ZM185.44,284.94l-.44,11.06c14.62,3.07,14.54-15.26.44-11.06ZM285.9,238.31c-1.91-8.71-9.88-5.71-6.81,2.6,2.73.54,5.58.16,6.81-2.6ZM307,234.99l-1.02-5c-8.57,1.26-7.54,5.97,1.02,5ZM323.01,237.52c.75,4.2,5.25,2.12,7.99,1.47-1.29-3.27-5.61-4.37-7.99-1.47ZM333,716c5.64.45,18.49-.73,15.85,8.3-.83,2.85-4.64,1.68-3.85,4.69,4.84-.32,6.03,4.97,4.26,8.77-1.99,4.26-11.94,4-16.26,4.24v-26ZM337,727c10.32.91,11.65-8.85,0-7.01v7.01ZM337,738c12.35,1.72,12.08-9.45,0-8.01v8.01ZM212.51,600.01c-4.02,4.13-1.9,14.49,4.08,14.95,2.41.19,3.99-.73,5.91-.78,1.52-.04,3.02,1,4.94.81s4.21-2.61,7.56-1c-3.29-4.84,1.56-14.2-6.05-11.55l-3.93,8.55-1.48-9.03c-.82-1.4-3.1-.71-3.94-.04-1.65,1.32.56,9.67-3.59,9.08-1.72-2.11,2.25-12.71-3.49-10.99ZM299,617c-5.27-1.86-13.25,2.14-16.9-3.6-4.76-7.48,3.79-13.01,10.9-11.4v-7c2.76-1.17,5.99,3.57,5.99,5.5v16.5ZM288.62,605.06c-6.76,5.75-.03,14.15,4.41,4.44l-4.41-4.44ZM306.94,600.45c-9.51,2.98-5.05,17.33,9.58,15.57,8.06-.97,7.43-7.8,3.99-7.01-3.31,4.39-10.11,6.09-13.52,1,17.12,5.81,14.76-14.2-.06-9.56ZM341.74,640.27c2.28,2.78.8,16.25,2.25,20.72-2.18,1.01-4.52-1.58-5.52-1.62-3.02-.14-6.79,4.61-11.49-1.85-5.73-7.87,3.53-13.08,11.01-11.53l-.96-5.41c.5-2.04,3.64-1.62,4.71-.31ZM332.69,649.1c-5.57,1.39-1.92,13.22,3.75,6.84,3.08-3.46-.87-7.56-3.75-6.84ZM307.01,561c1.79,6.43,10.48,3.77,12.5-1,3.44.17,2.83,4.57.8,6.07-4.47,3.3-13.06,2.04-16.73-2.14-9.96-11.34,14.26-20.17,14.94-4.88-2.94,3.39-7.56,3.89-11.51,1.96ZM312.99,554.01c-.84-.83-6.19.85-6.98,2.49,3.3,5.43,9.67.16,6.98-2.49ZM254,742h4c.34-3.39-1.17-12.63,1.99-14.51l5.09-.05.93,14.57h4v-14.5c0-4.45-9.34-4.7-11.99-1.5v-10s-4.01,0-4.01,0v26ZM286,654.01c2.99,5.37,9.49,3.46,12.51-1.01,3.55-.79,4.46,6.81-6,7.06-13.03.31-15.82-13.7-6.81-15.84,14.59-3.48,16.63,14.88.29,9.79ZM286,650.99c4.86,1.75,9.34-.4,4.55-4.74-2.74.78-5.23,1.22-4.55,4.74ZM317,501.99c-.4,5-.3,9.26,4.27,12.22l7.72,2.27c-2.43,3.6-5.72,1.12-8.99,2.01,12.92,9.25,16.72-4.34,15-15.5l-4.89.12c-2.74,12.15-9.3,11.78-9.2-1.03l-3.91-.09ZM355,567.98l.51-2c3.76,1.36,7.88,2.19,10.48-1.49-3.43-.22-7.49.09-10.03-2.96-7.44-8.94,11.12-17.96,13.8-4.81,2.77,13.62-2.06,15.88-14.76,11.25ZM361.66,553.14c-3.17.83-3.71,7.09-1.12,7.85,4.93,1.46,6.64-9.3,1.12-7.85ZM289.05,552.95c17.94,2.23,12.05,18.1-3.81,13.81-1.43-1.49-2.51-18.8-1.14-19.66l3.97.33.98,5.52ZM289.01,556c.29,2.96-1.15,6.81,1.49,8.97,6.34-3.2,5.31-7.79-1.49-8.97ZM183.28,607.26l9.72-3.25-11-1.02v-2.97c11.66-3.4,17.42,3.02,17.93,14.35-1.34,2.87-3.49.76-5.43.84-5.74.23-15.03.68-11.22-7.95ZM194,609.01c-3.37-1.12-5.67-1.87-7.98,1.49-.06,1.93,8.76,2.9,7.98-1.49ZM288.11,499.58c2.34,6.29-1.65,15.96,5.39,19.4,2.51-1.81,1.21-4.95,1.49-7.47,5.43-2.11,4.33,8.59,11,6.49l-3.03-8.58,2.03-4.41-10.99,1.99-1.09-8.9-4.8,1.48ZM230,716v4s7,0,7,0v22h5v-22h7s0-4,0-4h-19ZM365.98,602.51c-4.91-11.63-14.96-10.06-12.97,3.5l-5.99,1.5c.95,2.49,6.39,2.15,6.86,2.62.38.38.29,7.59,3.6,6.88s.2-7.71.52-7.99c2.95-.33,6.77,1.16,8.98-1.51l-8.97-2.51c.27-.93-1.08-8.33,1.48-6.98l2.53,5.99,3.96-1.49ZM258,507.99c-3.42-6.09-10.94,1.48-12-4.98,7.67-2.47,15.03-1.46,17.31,7.17.76,2.88,1.78,6.7-.81,8.8-2.02-3.12-4.32-.81-7-.9-13.91-.47-9.28-12.56,2.49-10.09ZM259,512.01c-1.09-1.18-8.91-2.17-7.99,1.97,1.57,1.67,10.4.62,7.99-1.97ZM265.5,603.98c-8.21-15.52-7,8.29-3.54,10.56,6.44,4.21,3.9-9.68,10.03-9.53-.2,2.19,2.25,12.62,5.99,9.99,3.41-2.39-4.13-21.84-12.49-11.02ZM304.94,643.44c-2.7,2.53-.25,18.89,5.12,15.12,1.62-1.14,2.12-10.3,5.43-9.56l3.44,9.4,3.12.14c2.3-9.06-3.82-18.63-13.03-10.55l-1.03-5-3.04.44ZM267,501.99c.32,5.38-1.33,15.56,5.98,16.01-.38-1.68,4.53-12.13,6-11,6.16,25.28,10.13-.38,2.32-2.81-3.93-1.22-5.94.66-9.3,1.8l-1.16-3.85-3.85-.15ZM225.54,548.96c-2.76-3.03-5.09-3.3-8.87-2l-1.78,9.93-5.88,1.61c1.18,3.2,6.1,2.01,6.88,2.62.65.51,3.93,17.19,5.11-1.12,2.69-.21,6.02,1.03,7.98-1.5l-8.04-1.93c-1.59-1.1-1.55-6.31.57-7.55,2.2,1.17,1.8,4.49,2.72,5.73,2.18,2.94,6.13-.5,1.32-5.79ZM372.49,600.01c-5.64-1.81-3.61,9.58.15,12.85,6.53,5.67,9.77-.69,10.85-.7.99-.02,5.01,5.47,7.49,1.34-4.42-1.19-4.77-12.02-6.51-12.49-5.86-1.58-3.43,10.13-8.46,9.99-1.61-2.09-1.75-10.42-3.52-10.99ZM335.97,565.54c5.61,2.98,3.88-9.44,8.52-9.55l4.48,10.56c5.8,1.27,1.87-11.01-.39-12.63-3.07-2.19-7.68-.8-10.57,1.08-4.89-14.72-7.47,7.64-2.04,10.53ZM227.02,508.49c.12,1.69,2.18,14.87,5.52,9.55,1.07-3.79-.59-8.18,2.97-11.01,3.85,1.44,2.71,12.8,6.99,11.97,5.21-1.01-1.94-19.8-10.48-13.99-2.89-13.62-5.61-5.37-4.99,3.48ZM235.18,640.18l-.58,8.85-5.58,2.46c1.03,2.62,5.65,2.18,6.54,3.44s-.17,6.71,2.93,6.05c2.18-.46,1.47-6.2,1.51-8,2.17-.15,6.83.87,7.99-1.51.96-1.96-2.08-1.57-3.17-1.79-1.95-.4-3.79-.89-5.81-.7v-6.99c3.21-1.31,5.02,8.92,7.99,5.99,2.45-2.43-6.62-13.37-11.82-7.81ZM360.16,503.15c-2.97,5.42,2.09,14.79,8.35,14.78,2.44,0,3.86-2.57,5.17-2.77,1.64-.25,5.98,4.68,7.32,1.32.48-1.21-4.23-3.75-4.03-5.94l-.97-6.54c-8.41-1.96-3.97,5.93-8.49,9.97-2.77-2.88-3.64-7.13-3.51-10.98l-3.83.15ZM345.77,502.19c11.96-1.36,16.2,18.33,1,16.63-11.35-1.27-12.25-15.35-1-16.63ZM349.86,506.14c-7.76-2.12-10.83,5.84-3.89,9.46,1.79.76,5.54-1.61,5.85-3.23l-1.95-6.23ZM238.75,551.22c4.77-.79,6.81.22,9.44,4.08,8.95,13.15-12.45,15.52-16.46,6.44-2.23-5.04,2.07-9.7,7.01-10.52ZM244.87,562.87c.83-3.53-1.21-10.09-5.57-8.13-7.39,3.31-1.95,12.82,5.57,8.13ZM328,734h-13c1.08,5.78,6.28,5.71,10.95,4l1.04,2.99c-7.71,2.79-16.85.03-15.95-9.37,1.16-12.03,19.66-10.09,16.95,2.38ZM324,730.99c-.26-6.55-6.89-6.3-8.99-.49l8.99.49ZM243.71,600.21c8.51-1.95,11.66,2.69,13.32,10.25-9.17,16.98-29.43-6.56-13.32-10.25ZM250.78,611.75c1.89-1.77-.28-6.54-1.75-8.29-12.58-1.63-5.57,15.16,1.75,8.29ZM305.75,725.26c1.2,1.13,3.14,7.83,2.26,8.74l-13.01.51c1.81,5.48,6.39,5.03,11,3.49l-.07,2.91c-16.43,7.21-22.02-19.54-3.47-16.81,1.11.16,2.47.39,3.3,1.16ZM304,730.99c.55-5.9-7.03-6.27-8.99-1.48-1.15,2.82,7.85.99,8.99,1.48ZM224.98,501.5c-.03-3.53-25.84-3.57-25.96,0l10.54,2.44,2.35,13.47,3.09.6v-15c3.21-.4,7.53,1.28,9.98-1.5ZM328.98,599.44l-3.99.57c1.85,5.84.46,16.84,9,15.99-.6-3.45.71-10.57,5.27-9.88,1.98.3,3.67,3.54,5.71.37-3.32-4.87-8.43-4.39-12.96-1.5l-3.04-5.56ZM253,551c.27,3.49,1.98,20.07,8.08,15.57,1.4-1.03.62-8.49,4.61-9.49l6.3,1.91c-.12-7.28-8.39-5.02-12.99-2.99l-1.15-4.87-4.86-.13ZM253.49,643c-4.93-1.04-2.09,19.95,5.51,17-.2-2.59.52-8.26,2.99-9.54,3.92-2.03,5.2,3.57,7.99.04-3.32-4.87-8.43-4.39-12.96-1.5l-3.53-6ZM275,742h4c-.02-4.8-.86-11.8,4.27-14.24,1.41-.67,4.58-.53,4.74-1.26,1.17-5.39-7.27-1.32-9,.51l-.1-2.89-3.91-.12v18ZM393,598.5c-.66,3.68-1.13,19.69,5.01,16.99l-1.01-19.49c-2.4-.28-3.55.03-4,2.5ZM274.51,648.01c-2.85.62-2.38,13.82,3.48,11.99-.23-3.86,1.45-10.44-3.48-11.99ZM326.01,555c-1.63,1.21-1.49,13.78,3.98,11.99-.38-4.15,1.98-11.36-3.98-11.99ZM276.49,646.99c2.43-.5,1.03-9.07-2.97-7.98-3.2.87.86,8.42,2.97,7.98ZM325.01,547c-.37,3.08,1.18,8.59,5,6.49l-1.16-6.35-3.85-.14ZM337,730v8.01c12.35,1.72,12.08-9.45,0-8.01ZM337,720v7.01c10.32.91,11.66-8.85,0-7.01ZM293.03,609.5l-4.41-4.44c-6.76,5.75-.03,14.15,4.41,4.44ZM336.45,655.94c3.08-3.46-.87-7.56-3.75-6.84-5.57,1.39-1.92,13.22,3.75,6.84ZM306.02,556.5c3.3,5.43,9.67.16,6.98-2.49-.84-.83-6.19.85-6.98,2.49ZM290.54,646.25c-2.74.78-5.23,1.22-4.55,4.74,4.86,1.75,9.34-.4,4.55-4.74ZM360.54,560.99c4.93,1.46,6.64-9.3,1.12-7.85-3.17.83-3.71,7.09-1.12,7.85ZM290.49,564.98c6.34-3.2,5.31-7.79-1.49-8.97.29,2.96-1.15,6.81,1.49,8.97ZM186.02,610.5c-.06,1.93,8.76,2.9,7.98-1.49-3.37-1.12-5.67-1.87-7.98,1.49ZM251,513.99c1.57,1.67,10.4.62,7.99-1.97-1.09-1.18-8.91-2.17-7.99,1.97ZM345.97,515.6c1.79.76,5.54-1.61,5.85-3.23l-1.95-6.23c-7.76-2.12-10.83,5.84-3.89,9.46ZM239.3,554.74c-7.39,3.31-1.95,12.82,5.57,8.13.83-3.53-1.21-10.09-5.57-8.13ZM315.01,730.51l8.99.49c-.26-6.55-6.89-6.3-8.99-.49ZM249.03,603.46c-12.58-1.63-5.57,15.16,1.75,8.29,1.89-1.77-.28-6.54-1.75-8.29ZM295.01,729.51c-1.15,2.82,7.85.99,8.99,1.48.55-5.9-7.03-6.27-8.99-1.48Z"/>
</svg>