<?xml version="1.0" encoding="UTF-8"?>
<svg id="_レイヤー_1" data-name="レイヤー 1" xmlns="http://www.w3.org/2000/svg" width="199.35mm" height="275.68mm" viewBox="0 0 565.07 781.44">
  <path d="M413.56,470.23c9.68,34.75,8.63,71.99,22.75,105.58,5.06,12.04,13.27,21.64,17.93,34.07,9.07,24.19,9.52,51.35,1.29,75.79,11.17,12.9,16.94,33.54,6.79,48.79-14.41,21.64-46.36,20.65-69.18,19.82-4.46,6.43-8.29,12.62-14.74,17.26-21.56,15.52-59.85,10.98-78.94-6.9-2.63-2.46-8.83-12.38-10-13-4.31-2.24-18.79-2.92-22.9.05-1.84,1.33-4.17,6.69-6.09,8.91-24.8,28.53-76.88,29.3-94.56-7.32l-20.96,1.87c-15.93-1.57-32.44-1.9-45.46-12.53-18.79-15.33-15.19-39.87-.97-57.04-8.11-25.51-7.69-54.42,2.81-79.15,3.82-8.99,9.87-16.39,14.03-24.97,17.72-36.51,14.68-78.64,27.04-116.71-29.79-17.54-62.79-32.82-83.11-61.93s-24.23-58.89-22.82-92.26c.34-8.04,4.22-26.51,3-32.92-.68-3.6-5.85-12.41-7.45-17.54-2.77-8.93-2.91-17.83-4.97-26.03-1.38-5.5-13.2-20.4-16.71-28.29-13.62-30.62-18.34-73.08,15.16-92.19,8.65-4.93,24.02-8.06,30.54-13.46,4.45-3.7,9.43-13.44,13.51-18.49,13.11-16.22,27.1-35.05,50.35-33.39,20.43,1.45,37.24,17.23,59.15,16.38,3.49-.14,10.62-3.65,14.85-4.64,12.32-2.88,23.99-3.33,36.63-2.88-1.95-5.73.07-13.92,1.74-19.75C238.92,14.05,261.88-1.29,286.03.09c28.44,1.62,51.82,28.2,48.7,56.59l.7.99c6.92.67,13.75,1.85,20.48,3.54,20.45,5.14,26.42,12.99,49.64,7.49,9.83-2.33,19.83-9.9,30.73-12.27,28.34-6.17,41.07,9.39,57.17,29.23,6.09,7.51,11.64,19.59,20.05,23.95,6.04,3.13,13.89,4.66,20.34,7.66,44.24,20.6,34.15,72.06,14.45,107.16-2.54,4.53-8.86,11.43-10.14,15.86-1.23,4.29-1.02,9.9-2.16,14.84-1.75,7.6-5.75,15.98-5.51,23.47.29,8.81,2.62,18.98,3.04,27.98,2.84,61.59-12.15,100.51-64.13,133.96-17.69,11.38-36.5,21.46-55.84,29.68ZM329.48,62.13c9.49-75.82-103.52-75.59-94,0-9.19-.75-18.28-1.1-27.49.02-19.98,2.42-27.43,9.62-49.56,4.54-7.3-1.68-14.99-6.97-22.43-9.57-30.81-10.77-42.45,2.12-60.49,24.55-7.15,8.89-12.02,20.55-22.34,25.66-11.25,5.57-22.99,7.08-33.21,15.79-25.65,21.86-14.43,65.71,0,91.04,2.83,4.96,8.95,11.69,10.74,16.26,3.09,7.9,3.21,20.82,6.49,30.51,1.53,4.53,6.8,13.4,7.25,16.8.84,6.27-2.64,21.32-3.01,28.87-1.63,33.64,1.82,64.63,21.23,92.86,20.65,30.05,55.31,45.14,85.69,63.29-13.67,38.1-10.5,79.4-27.02,116.76-4.28,9.67-10.89,17.68-15.03,26.97-11.13,24.95-11.47,55.57-2.03,81.04-20.87,20.46-16.65,49.85,12.42,58.92,17.77,5.54,35.42,2.96,53.62,2.88,14.28,40.27,78.4,33.37,93.31-3.01,9.68-1.37,19.19-1.18,28.86.33,12.32,28.64,56.99,37.96,81.9,21.93,7.93-5.11,11.1-11.43,15.72-19.28,15.39,1.07,30.53,1.69,45.59-2.42,31.03-8.48,35.04-38.34,14.08-60.2,9.8-23.71,8.79-53.85-.81-77.5-4.03-9.93-10.93-17.99-15.34-27.66-16.48-36.12-14.35-76.92-26.14-114.34,11.77-3.91,23.75-9.91,34.67-15.84,67.44-36.66,90.2-69.32,86.37-148.71-.38-7.81-3.8-22.12-3.03-28.86.6-5.22,5.08-16.22,6.54-22.54.96-4.14.49-8.75,1.95-13.05,1.87-5.49,8.24-12.31,11.3-17.7,17.03-30.02,26.51-78-10.12-97.49-11.25-5.99-23.75-6.08-32.66-16.34-23.23-26.73-31.43-58.23-75.29-42.24-14.2,5.17-24.66,12.04-41.25,11.77-6.34-.1-26.64-9.37-35.66-11.32-6.84-1.48-13.8-2.53-20.82-2.69ZM303.68,50.68c0,11.7-9.49,21.19-21.19,21.19s-21.19-9.49-21.19-21.19,9.49-21.19,21.19-21.19,21.19,9.49,21.19,21.19ZM298.87,50.73c0-9.05-7.33-16.38-16.38-16.38s-16.38,7.33-16.38,16.38,7.33,16.38,16.38,16.38,16.38-7.33,16.38-16.38Z"/>
</svg>