<?xml version="1.0" encoding="UTF-8"?>
<svg id="_レイヤー_1" data-name="レイヤー 1" xmlns="http://www.w3.org/2000/svg" width="204.61mm" height="305.86mm" viewBox="0 0 580 867">
  <path d="M421.07,513.1c9.68,34.75,8.63,71.99,22.75,105.58,5.06,12.04,13.27,21.64,17.93,34.07,9.07,24.19,9.52,51.35,1.29,75.79,11.17,12.9,16.94,33.54,6.79,48.79-14.41,21.64-46.36,20.65-69.18,19.82-4.46,6.43-8.29,12.62-14.74,17.26-21.56,15.52-59.85,10.98-78.94-6.9-2.63-2.46-8.83-12.38-10-13-4.31-2.24-18.79-2.92-22.9.05-1.84,1.33-4.17,6.69-6.09,8.91-24.8,28.53-76.88,29.3-94.56-7.32l-20.96,1.87c-15.93-1.57-32.44-1.9-45.46-12.53-18.79-15.33-15.19-39.87-.97-57.04-8.11-25.51-7.69-54.42,2.81-79.15,3.82-8.99,9.87-16.39,14.03-24.97,17.72-36.51,14.68-78.64,27.04-116.71-29.79-17.54-62.79-32.82-83.11-61.93s-24.23-58.89-22.82-92.26c.34-8.04,4.22-26.51,3-32.92-.68-3.6-5.85-12.41-7.45-17.54-2.77-8.93-2.91-17.83-4.97-26.03-1.38-5.5-13.2-20.4-16.71-28.29-13.62-30.62-18.34-73.08,15.16-92.19,8.65-4.93,24.02-8.06,30.54-13.46,4.45-3.7,9.43-13.44,13.51-18.49,13.11-16.22,27.1-35.05,50.35-33.39,20.43,1.45,37.24,17.23,59.15,16.38,3.49-.14,10.62-3.65,14.85-4.64,12.32-2.88,23.99-3.33,36.63-2.88-1.95-5.73.07-13.92,1.74-19.75,6.69-23.33,29.65-38.66,53.8-37.29,28.44,1.62,51.82,28.2,48.7,56.59l.7.99c6.92.67,13.75,1.85,20.48,3.54,20.45,5.14,26.42,12.99,49.64,7.49,9.83-2.33,19.83-9.9,30.73-12.27,28.34-6.17,41.07,9.39,57.17,29.23,6.09,7.51,11.64,19.59,20.05,23.95,6.04,3.13,13.89,4.66,20.34,7.66,44.24,20.6,34.15,72.06,14.45,107.16-2.54,4.53-8.86,11.43-10.14,15.86-1.23,4.29-1.02,9.9-2.16,14.84-1.75,7.6-5.75,15.98-5.51,23.47.29,8.81,2.62,18.98,3.04,27.98,2.84,61.59-12.15,100.51-64.13,133.96-17.69,11.38-36.5,21.46-55.84,29.68ZM337,105c9.49-75.82-103.52-75.59-94,0-9.19-.75-18.28-1.1-27.49.02-19.98,2.42-27.43,9.62-49.56,4.54-7.3-1.68-14.99-6.97-22.43-9.57-30.81-10.77-42.45,2.12-60.49,24.55-7.15,8.89-12.02,20.55-22.34,25.66-11.25,5.57-22.99,7.08-33.21,15.79-25.65,21.86-14.43,65.71,0,91.04,2.83,4.96,8.95,11.69,10.74,16.26,3.09,7.9,3.21,20.82,6.49,30.51,1.53,4.53,6.8,13.4,7.25,16.8.84,6.27-2.64,21.32-3.01,28.87-1.63,33.64,1.82,64.63,21.23,92.86,20.65,30.05,55.31,45.14,85.69,63.29-13.67,38.1-10.5,79.4-27.02,116.76-4.28,9.67-10.89,17.68-15.03,26.97-11.13,24.95-11.47,55.57-2.03,81.04-20.87,20.46-16.65,49.85,12.42,58.92,17.77,5.54,35.42,2.96,53.62,2.88,14.28,40.27,78.4,33.37,93.31-3.01,9.68-1.37,19.19-1.18,28.86.33,12.32,28.64,56.99,37.96,81.9,21.93,7.93-5.11,11.1-11.43,15.72-19.28,15.39,1.07,30.53,1.69,45.59-2.42,31.03-8.48,35.04-38.34,14.08-60.2,9.8-23.71,8.79-53.85-.81-77.5-4.03-9.93-10.93-17.99-15.34-27.66-16.48-36.12-14.35-76.92-26.14-114.34,11.77-3.91,23.75-9.91,34.67-15.84,67.44-36.66,90.2-69.32,86.37-148.71-.38-7.81-3.8-22.12-3.03-28.86.6-5.22,5.08-16.22,6.54-22.54.96-4.14.49-8.75,1.95-13.05,1.87-5.49,8.24-12.31,11.3-17.7,17.03-30.02,26.51-78-10.12-97.49-11.25-5.99-23.75-6.08-32.66-16.34-23.23-26.73-31.43-58.23-75.29-42.24-14.2,5.17-24.66,12.04-41.25,11.77-6.34-.1-26.64-9.37-35.66-11.32-6.84-1.48-13.8-2.53-20.82-2.69ZM311.19,93.55c0,11.7-9.49,21.19-21.19,21.19s-21.19-9.49-21.19-21.19,9.49-21.19,21.19-21.19,21.19,9.49,21.19,21.19ZM306.38,93.6c0-9.05-7.33-16.38-16.38-16.38s-16.38,7.33-16.38,16.38,7.33,16.38,16.38,16.38,16.38-7.33,16.38-16.38ZM343,315h-17v8.01s8.01-.01,8.01-.01v8.01c-19.63,4.44-22.2-24.81-2.51-23.02,2.2.2,6.27,2.37,7.52,1.59l2.99-6.56c-11.53-6.21-31.8-3.7-33.92,11.57-3.21,23.1,16.38,28.37,34.91,22.41v-22ZM271,300v27.5c0,.9,3.09,6.92,4.08,7.92,5.38,5.44,18.87,4.9,23.94-.91.53-.61,2.99-4.72,2.99-5.01v-29.5h-10v27.5c0,5.43-11,4.11-11-1v-26.5h-10ZM237,300c12.02-1.33,36.32,1.04,27.77,19.27-4.47,9.52-16.76,5.4-18.34,7.66l-.43,12.07h-9.01v-39.01ZM246,319c14.24,2.16,14.48-13.53,0-11.01v11.01ZM246,308v11.01c14.24,2.16,14.48-13.53,0-11.01ZM283.46,632.04c4.63,5.03,14.78,5.53,17.35-1.56-.88-1.64-2.12-2.47-3.8-1.48,1.68-16.3-23.74-8.02-13.56,3.04ZM341,635.99c-5.37-1.85-11.09,1.97-15.52-1.97-7.03-6.24,1.95-14.23,9.52-12.03l-.99-5.99c9.97-.69,3.83,13.91,6.99,19.98ZM329.53,625.01c-2.28.67-2.58,8.14.97,8.04l4.42-4.4-5.39-3.64ZM308.98,633.99l3.13-8.88,2.87-.11c.76,3.4.83,11.76,5.94,8.92.18-8.66-3.83-17.64-12.92-9.92-5.42-15.06-8.23,10.85.97,9.99ZM238.66,617.21l-.66,8.79-5,1.48,6,1.51.47,6.03,3.52.97.06-6.95c.31-.32,9.45-.36,6.94-3.03l-8-1.01c-.5-2.19.15-9.61,2.87-5.36,1.41,2.21,1.26,5.12,5.13,4.36-.84-5.56-6.08-11.97-11.33-6.78ZM256.03,619.46l-3.1,1.21c1,5.49.38,15.43,8.07,14.34l1.96-8.57c2.82-1.91,7.55,3.2,8.04.05.59-3.82-9.92-4.84-11.98-1.49l-2.99-5.54ZM275.52,624.01c-2.98.63-2.04,12.83,3.48,10.99-.05-1.87-.36-11.65-3.48-10.99ZM330.5,633.04l4.42-4.4-5.39-3.64c-2.28.67-2.58,8.14.97,8.04ZM249.95,497.47c.79,5.05,11.18,3.18,15.07,4.09,2.94-10.64-5.19-18.68-16.01-14.54.49,6.12,8.43-1.15,10.99,4.98-4.24-1.72-10.93-.13-10.05,5.48ZM322.5,495.98c-4.57-1.96-2.25-7.75-2.97-8.99-2.33-4.02-7.55,2.07-2.55,8.52,2.29,2.95,5.37,3.86,9.02,3.49.55,3.57-4.55,3.03-6.49,1.98-2.36,1.99,3.83,3.98,5.73,3.83,8.84-.71,6.61-11.64,6.75-17.82-1.18.15-2.89-.38-3.83.18-.46.27-2.98,8.13-5.66,8.81ZM289,496.5c0,.82,2.57,5.3,3.51,5.5,4.29-.54.98-5.93,3.99-7.98l5.48,7.5c6.28.88-.09-6.13-.04-8.97,0-.32,3.43-1,2.06-3.55l-9.99,1.99c.21-3.74.22-9.61-5.01-9v14.5ZM231,483c.79,5.7-2.67,18.47,4.99,19.01,2.01-3.5-1.02-10.77,4-11,6.44,24.97,10.49.14,1.04-2.62-1.95-.57-4.04.92-5.06.2l-.98-5.58h-3.98ZM268.12,487.67c-.56,1.82,1.24,11.89,2.84,12.87,5.47,3.35,3.78-9.9,9.03-9.54.76,3.63.7,10.72,6,9.99.43-9.36-2.92-16.76-12.98-10.99.82-3.7-3.81-5.86-4.89-2.34ZM356.51,487.01c-4.34,1.37.73,16.33,8.78,13.83,1.4-.43,2.58-2.68,3.2-2.69.66,0,4.19,4.02,6.51,2.84l-4.47-12.02-4.48-.94-2.06,8.96c-6.39-.35-1.28-10.53-7.48-9.99ZM342.74,486.21c8.52-.7,14.83,13.36,4.54,15.6-12.87,2.8-17.58-14.53-4.54-15.6ZM345.74,490.25l-2.83-.78c-8.16,2.06-1.96,14.44,4.65,7.51l-1.81-6.73ZM227.27,484.23c-6.56-2.7-15.42-.71-22.27-.22l1.67,2.82,7.28.22c1.51,1.47-.74,16.49,6.05,13.44l-1.01-13.49c1.81.83,13.96-.43,8.27-2.78ZM342.91,489.48c-8.16,2.06-1.96,14.44,4.65,7.51l-1.81-6.73-2.83-.78ZM221.5,588.98c-3.19-2.51-.29-7.07-1.97-10.02-.7-1.34-2.77-.31-3.3.28-3.15,3.51-.1,13.29,5.36,13.75.78.07,8.23.05,8.87-.01,2.08-.21,3.89-2.93,7.53-.99l-1.46-11.03c-6.1-3.21-4.14,5.72-7.53,8.03l-1.02-9c-7.8-1.12-3.03,5.19-6.5,8.98ZM292.99,581v-7c8.48.27,3.24,12.82,6.04,18.51l-1.55,2.49c-5.43-3.47-7.58,2.39-13.45-2.54-6.65-5.59,1.63-14.96,8.96-11.46ZM288.62,583.06c-3.19.52-3.8,7.5-.13,8.73,6.77-.9,4.01-9.36.13-8.73ZM188.95,589.47c.84,5.34,10.73,2.59,14.47,4.41,3.55-.85.62-9.55-.96-11.84-3.5-5.06-9.12-4.73-14.45-3.03.49,6.12,8.43-1.15,10.99,4.98-4.24-1.72-10.93-.13-10.05,5.48ZM306,588.01c3.5,4.98,9.38,3.62,12.51-1.01l2.52,2.51c-3.56,6.8-13.84,5.8-18.03,0-7.75-10.75,13.09-15.65,13.97-5.9.57,6.25-6.49,5.78-10.98,4.41ZM311.95,581.03c-1.13-.79-5.06,1.14-5.93,2.47l5.4,2.45c2.28-.55,1.01-4.59.53-4.92ZM261.12,579.67c-.56,1.82,1.24,11.89,2.84,12.87,5.47,3.35,3.78-9.9,9.03-9.54.76,3.63.7,10.72,6,9.99.43-9.36-2.92-16.76-12.98-10.99.82-3.7-3.81-5.86-4.89-2.34ZM367.05,590.46c6.05,5.79,9.08-.12,10.44-.24,1.66-.14,4.97,5.35,7.5,1.28-3.79-2.94-5.35-6.67-4.99-11.49l-4.89.09c-1.54,13.35-6.19,10.29-6.1-1.11-7.6-1.95-4.79,8.74-1.95,11.46ZM359.5,582.98c3.26.1.22-10.33-6.98-9.01-4.24.78-3.41,6.55-3.64,9.92l-4.88,1.12c.35,3.2,5.34,2.62,5.87,3.12,1.02.98-.4,9.95,5.03,4.29l-.9-5.42c2.69-.23,6.02,1.02,7.98-1.5l-7.83-1.64-.14-6.86c2.29-1.73,3.76,5.92,5.49,5.97ZM255.75,580.25c.77.73,3.4,6.96,3.28,8.21-.84,8.58-20.38,6.71-17.82-4.74,1.26-5.63,10.84-6.97,14.55-3.47ZM246.25,589.75c2.5,1.63,5.51,1.97,7.3-.78,1.12-14.09-13.21-5.13-7.3.78ZM323.46,578.98c-1.17,1.68,1.73,17.12,7.54,15.02l3-9.57,7.01,1.56c-.1-6.66-7.54-5.15-11.98-2.99.64-3.03-3.43-7.06-5.55-4.02ZM387,591.5c0,.21,2.45,2.86,3.49,2.51l.35-17.35-.79-1.21-3.06-.44v16.5ZM288.49,591.78c6.77-.9,4.01-9.36.13-8.73-3.19.52-3.8,7.5-.13,8.73ZM306.02,583.5l5.4,2.45c2.28-.55,1.01-4.59.53-4.92-1.13-.79-5.06,1.14-5.93,2.47ZM253.55,588.98c1.12-14.09-13.21-5.13-7.3.78,2.5,1.63,5.51,1.97,7.3-.78ZM317.32,540.7c.65,1.17,5.73,1.96.65,5.77-10.42,7.81-23.95-8.07-13.92-12.91,9.68-4.67,10.15,1.53,13.26,7.14ZM308.73,535.15c-.88.13-3.7,1.76-3.71,2.35,6.61,6.94,9.85-3.25,3.71-2.35ZM351,547.01c3.24-.37,7.46,1.19,9.99-1.51-16.73.81-10.37-19.66,1.57-12.56,3.72,2.21,2.33,10.9,3.01,15.07-4.45,3.3-11.17,3.8-14.57-1ZM357.62,534.06c-2.94,1.6-3.93,5.61-1.11,7.93,2.66.81,4.22-2.47,4.46-4.52l-3.35-3.41ZM284,529l4.92.09.21,4.78c15.51,3.19,11.99,16.85-3.17,13.66-.39-.26-1.96-3.69-1.96-4.03v-14.5ZM289,545c5.6.26,7.25-5.78,1.49-7.97-2.49,1.91-1.3,5.27-1.49,7.97ZM333.49,532.01c-6.78-2.06-2.31,18.24,2.49,14.99.58-.4,2-10.81,6.01-9.99.76,3.63.7,10.72,6,9.99.61-9.06-3.24-17.07-12.98-10.99l-1.52-4ZM219.95,537.96l-5.95,1.06c.32,3.04,6.67,2.74,6.95,3.04.75.81-1.08,8.54,4.06,5.44v-6.5c2.68-.21,6.01,1.03,7.97-1.5l-8.54-2.43-.43-6.07,3.09.59,2.42,5.41,2.49-1.52c.15-.73-2.64-5.65-3.28-6.18-6.25-5.17-10.49,2.39-8.77,8.66ZM249.75,534.25c.77.73,3.4,6.96,3.28,8.21-.79,8.03-18.92,7.29-17.98-3.88.51-6.06,10.71-8.1,14.7-4.33ZM240.25,543.75c2.87,2.87,8.61,1.02,7.6-4.01-1.9-9.55-12.82-1.2-7.6,4.01ZM255.11,533.58c-.44,2.09,2.82,16.55,7.88,14.42l2.99-9.56,7.01,1.56c-.12-7.31-7.42-4.52-11.98-2.99,1.14-3.62-5.1-7.23-5.9-3.42ZM323.01,537c-1,13.89,7.75,15.1,3.93.07l-3.93-.07ZM305.02,537.5c6.61,6.94,9.85-3.25,3.71-2.35-.88.13-3.7,1.76-3.71,2.35ZM356.51,541.99c2.66.81,4.22-2.47,4.46-4.52l-3.35-3.41c-2.94,1.6-3.93,5.61-1.11,7.93ZM290.49,537.02c-2.49,1.91-1.3,5.27-1.49,7.97,5.6.26,7.25-5.78,1.49-7.97ZM247.85,539.74c-1.9-9.55-12.82-1.2-7.6,4.01,2.87,2.87,8.61,1.02,7.6-4.01ZM330,689c4.08-.2,17.54-1.3,15.59,6.03-.8,3.02-3.52,2.91-4.59,4.96,3.84.65,5.1,1.55,5.1,5.52-.01,8.63-10.05,6.24-16.11,6.5v-23ZM340.85,692.14l-6.85-.14v6.01c3.37,2.21,11.09-3.19,6.85-5.87ZM341.86,707.87l-.84-5.39c-1.57-1.18-5.25-2.49-6.58-.53l-.45,7.06,7.87-1.13ZM256,712h4c-1.94-18.3,9.89-18.81,8.01,0h2.99c-.18-9.77,2.85-21.43-10.99-15.01v-9s-4.01,0-4.01,0v24ZM234,689v3s6,0,6,0v20h5v-20h7.01s0-3,0-3h-18ZM326,705h-12c-.3,6.1,5.79,5.02,9.99,4.01v2.99c-4.54.29-12.14.84-13.78-4.7-4.25-14.3,16.55-17.44,15.79-2.3ZM322,702.99c.43-7.15-9.34-6.24-7.49.01h7.49ZM307,705h-12c.23,5.97,5.66,5.45,9.99,4v2.99c-5.16.07-11.6,1.33-13.54-4.94-4.43-14.28,16.9-16.96,15.55-2.06ZM303,703c1.54-7.72-9.47-6.11-7.5.01h7.5ZM276,712h4c-.63-7.82-.49-12.62,8.02-14.5l-.52-2.51-7.01,3.02-1.12-2.01h-3.36v16ZM341.02,702.48c-1.57-1.18-5.25-2.49-6.58-.53l-.45,7.06,7.87-1.13-.84-5.39ZM334,692v6.01c3.37,2.21,11.09-3.19,6.85-5.87l-6.85-.14ZM314.51,703.01h7.49c.43-7.16-9.34-6.25-7.49,0ZM295.51,703.01h7.5c1.54-7.73-9.47-6.12-7.5,0ZM219.08,255.58c-.12,3.24,1.91,11.71,6.42,8.43l2.52-9.01c4.29-.64,1.58,6.85,4.6,7.89l3.39.12c-.18-2.98.06-5.97,2.5-7.99,1.86-.06,1.23,13.3,6.39,7.33.74-6.59-4.51-15.91-10.39-8.36-3.17-5.82-6.53-3.87-10.49.02-.52-7.17-4.75-3.39-4.93,1.58ZM310.58,258c-.11-8.66-8.68-9.96-14.51-5.43-5.68,10.23,8.77,17.37,16.32,11.32,1.89-1.51,1.8-2.55,1.6-4.89-5.46.78-9.08,7.98-13.99,1,3.94,1.3,7.51,1.21,10.58-2.01ZM289.86,246.14c2.26,1.54,2.35,16.6,2.13,19.86-5.84-1.19-16.91,2.43-17.06-6.54-.11-6.62,6.65-7.8,12.06-7.47l-.99-5.99,3.86.14ZM280.09,262.91c6.63.64,7.79-4.45,2.32-7.86-3.62.81-3.82,5.04-2.32,7.86ZM317.48,258l-.34,3.3c3.51,6.82,10.59.92,14.37,4.68,3.18.11.77-11.5-1.98-14.01s-13.45-2.96-13.51-.47l10.98,3.49c-3.63-.27-7.15-.03-9.52,3.01ZM253.27,262.26c3.11,1.36,5.71-1.29,5.73,1.23-2.19,3.24-4.99,1.47-7.99,2.01,10.49,7.98,16.28-3.81,13.55-13.55l-4.5-.88c-.54,3.4-2.36,9.08-6.42,7.99l-1.64-9.05c-8.85-.98-4.38,9.79,1.27,12.26ZM336,250c-.41,3.4.78,16.18,5.51,15.81,3.05-.24,2.03-7.85,4.46-9.34,3.62-2.21,5.3,3.63,8,.04-3.62-4.65-8.25-4.05-12.97-1.5l-1.15-4.86-3.85-.15ZM359.84,247.66l-.79-1.21-3.05-.44.91,12.41,3.08.59-.15-11.35ZM282.42,255.05c-3.62.81-3.82,5.04-2.32,7.86,6.63.64,7.79-4.45,2.32-7.86Z"/>
</svg>