<?xml version="1.0" encoding="UTF-8"?>
<svg id="_レイヤー_1" data-name="レイヤー 1" xmlns="http://www.w3.org/2000/svg" width="204.61mm" height="305.86mm" viewBox="0 0 580 867">
  <path d="M344,82.99c11.79-.2,23.46,4.97,34.58,6.93,15.14,2.67,16.91.84,30.41-2.43,31.22-7.57,42.59,3.17,63.91,23.11,3.74,3.5,7.2,9.34,11.76,12.24,6.45,4.09,18.59,5.52,26.32,8.68,37.55,15.36,35.99,55.36,16.04,85.01-2.76,4.1-9.9,10.59-11.45,13.55-2.16,4.12-3.52,14.49-5.81,20.19-8.35,20.81-26.67,35.48-48.63,39.87-2.07,10.4,3,19.04,1.92,29.42-2.21,21.33-3.69,44.45-9.79,65.21-1.58,5.39-4.3,10.34-5.82,15.74,3.92,7.47,8.18,14.1,11.33,22.24,5.01,12.97,6.91,27.2,12.05,39.95,13.02,32.26,34.96,56,40.02,92.98,3.55,25.95-3.16,53.94,2.66,78.34,1.47,6.17,4.55,12.53,6.22,18.78,10.2,38.15,9.51,75.62-6.25,112.18-1.37,3.17-6.64,11.04-6.96,12.94s3.01,10.22,3.37,13.72c2.71,26.26-15.24,42.25-39.65,46.1-8.54,1.35-22.4.07-29.49,2.51-2.24.77-4.56,4.62-6.8,6.2-29.94,20.99-93.2,21.48-118.45-7.42-6.66-7.62-4.97-12.16-17.98-12.09-2.18.01-13.01,2.53-14.46,3.62-1.17.88-5.54,8.2-7.64,10.36-25.31,26-86.4,26.66-115.13,6.33-2.77-1.96-5.51-5.84-8.04-6.96-5.87-2.62-24.23-1.62-33.24-3.76-18.44-4.36-33.34-18.22-34.04-37.99-.16-4.61,1.92-9.67.8-13.79-1.22-4.51-11.71-19.56-14.61-26.38-11.84-27.84-12.26-66.12-5.65-95.37,3.81-16.87,11.55-31.49,11.6-49.49.09-29.77-4.74-47.87,4.64-78.26,8.69-28.16,27.97-51.11,37.31-77.69,2.55-7.26,10.91-33.05,11.77-39.31.46-3.33-1.01-6.79-.81-10.7.27-5.07,4.11-12.29,3.94-15.94s-4.56-14.2-5.65-19.38c-2.2-10.45-2.04-20.47-3.42-30.58-1.28-9.36-5.11-18.7-5.86-28.14s-.21-21.76.99-31.48c-22.48-2.84-41.46-19.01-49.77-39.74-2.39-5.96-3.53-15.1-6.04-19.96-2.33-4.54-10.07-11.43-13.62-17.38-17.14-28.67-17.85-65.1,16.45-80.39,8.19-3.65,21.3-5.22,27.89-9.11,7.49-4.42,19.98-20.79,28.6-27.4,16.54-12.68,28.36-12.5,47.9-7.94,7.36,1.72,21.64,7.56,28.15,7.86,4.12.19,17.73-3.72,23.24-4.63,4-.66,8.14-1.24,12.2-1.31-6.16-26.12,4.19-52.63,27.98-65.52,44.78-24.26,96.15,18.58,81.02,66.51ZM337,86.99c16.25-39.74-17.66-80.52-59.85-70.35-24.58,5.93-40.38,29.88-38.13,54.84.45,4.97,2.76,9.52,2.99,14.51-9.39,1.4-18.84,2.68-28.21,4.3-4.02.7-10.93,3.6-14.31,3.55-8.85-.12-28.14-9.57-39.11-10.73-23.1-2.44-33.91,8.61-49.41,23.34-3.93,3.73-7.87,10.58-12.61,13.39-6.24,3.69-18.22,5.53-25.6,8.4-38.88,15.07-32.53,54.07-11.73,82.23,6.58,8.9,7.35,5.89,10.42,17.58,7,26.58,24.82,47.08,53.56,48.94.35,13.86-1.87,26.53.12,40.38.94,6.55,3.85,13.14,4.8,19.2,1.64,10.47,1.32,21.63,3.38,32.62,1.06,5.66,6.04,18.54,6.26,22.28.18,3.16-2.99,9.22-3.44,13.13-.54,4.59.75,9.7.35,13.54-.66,6.27-9.82,33.89-12.44,41.37-11.11,31.68-33.69,56.12-40.72,91.28-5.55,27.74,2.5,55.63-3.16,81.84-2.38,11.03-7.22,21.97-9.64,33.36-7.8,36.64-4.42,73.47,13.7,106.31,1.63,2.95,6.97,9.06,7.59,11.45.93,3.58-1.34,13.54-.52,19.49,3.99,29.15,40.17,30.79,63.03,30.97,24.67,29.16,93.01,29.07,118.22,1.8,2.22-2.4,5.79-9.18,7.56-10.44,6.73-4.82,24.9-4.03,32.68-1.31,16.17,38.19,89.61,39.73,117.73,17.72,2.18-1.71,6.28-7.19,8.23-7.77,4.75-1.41,19.32-.42,25.78-1.22,32.02-3.96,48.23-23.58,35.72-55.31,21.45-34.38,25.34-76.56,16.31-115.69-1.99-8.64-5.63-16.93-7.64-25.36-6.68-28.03,1.46-56.48-4.34-85.66-5.91-29.77-21.4-49.84-34.05-75.95-9.45-19.51-11.41-41.86-20.94-60.06-1.48-2.83-6.81-8.93-7.32-10.67-1.65-5.57,5.57-19.7,7.29-26.28,4.87-18.59,2.9-34.22,5.55-51.45.52-3.36,2.82-5.69,3.01-10.05.25-5.9-2.6-9.93-3.07-15s1.36-9.83,1.13-14.88c.48-1.47,15.3-4.96,18.57-6.43,15.99-7.2,27.25-22.2,32.32-38.68,1.18-3.83,1.43-9.99,2.5-12.5,1.25-2.94,10.61-12.12,13.51-16.49,14-21.07,20.2-54.05-3.71-70.34-10.78-7.34-20.55-7.81-31.84-12.16s-13.06-10.67-20.95-18.05c-15.3-14.32-26.48-24.42-48.91-20.86-5.02.8-20.13,6.95-22.01,6.88s-4.03-1.7-6.19-1.91c-12.14-1.22-18.77-3.1-30.39-5.61-7.22-1.56-14.75-2.26-22.04-3.47ZM312.89,59.67c0,12.64-10.25,22.89-22.89,22.89s-22.89-10.25-22.89-22.89,10.25-22.89,22.89-22.89,22.89,10.25,22.89,22.89ZM307.38,59.7c0-9.6-7.78-17.38-17.38-17.38s-17.38,7.78-17.38,17.38,7.78,17.38,17.38,17.38,17.38-7.78,17.38-17.38ZM344,611c-6.48-1.37-17.79,2.57-18.1-7.48-.23-7.42,6.19-7.78,12.1-7.51v-7c3.31-1.19,5.99,4.14,5.99,6.5v15.5ZM332.63,599.06c-3.08.9-3.28,7.38-.03,8.86,8.22-.55,4.86-10.28.03-8.86ZM286,604.01c4.95,7.56,9.61.08,14.99-1,1.7,10.44-15.97,8.89-19.87,1.35-5.83-11.28,17.32-15.8,16.44-2.35-3.31,3.47-7.37,3.34-11.56,2.01ZM293,600.99c-.26-8.93-9.95-2.13-6.35,0h6.35ZM234.01,600l-5.99,1.5c.95,2.49,6.39,2.15,6.86,2.62.38.38.29,7.59,3.6,6.88,2.14-.46,1.63-4.95.76-6.54l8.73-2.95-8.97-2.51v-6.99c3.22-.22,3.65,3.49,4.11,5.87l3.88.12c-2.43-12.58-15.44-12.72-12.99,2.01ZM304.17,594.66c-1.01,3.18.73,17.53,5.89,13.91l5.44-10.55,3.64,10.84,3.86.14c.62-9.73-3.91-19.03-13.99-11,1.38-4.01-3.57-7.36-4.84-3.34ZM250.99,593.49c-1.56,1.06,1.01,12.89,2.01,14.77.56,1.05,2.51,1.76,3.56,1.73,3.79-.11,1.45-7.53,5.45-9.51,4.01-1.99,5.16,3.55,7.98.03-3.78-5.4-8.88-3.94-13.97-1.5.78-2.68-1.81-7.69-5.02-5.51ZM273,598c.08,4.4-1.4,12.43,4.99,11.99-.08-3.96,1.06-12.55-4.99-11.99ZM277.96,595.52c.31-4.95-5.14-9.4-5.96-4.99-.1.53,1.72,4.66,2.25,5.2.93.96,3.61,1.51,3.72-.21ZM332.6,607.92c8.22-.55,4.86-10.28.03-8.86-3.08.9-3.28,7.38-.03,8.86ZM286.65,601h6.35c-.26-8.93-9.95-2.13-6.35,0ZM216.99,195.51c6.34,3.35,3.96-6.41,7.53-9.5l4.01,8.96c4.79,1.57,2.55-7.33,5.99-8.96,2.05-.97,1.35,1.68,1.51,2.45.81,3.8.77,10.23,5.49,5.52,1-6.88-4.27-17.35-11.02-9-3.49-6.2-7.19-4.31-11.49.02v-4.01c-7.35-2.6-5.78,12.54-2.02,14.52ZM292,198c-6.19-1.28-18.12,2.41-18.11-7.5,0-6.6,6.52-8.21,12.12-7.5v-7c3.31-1.19,5.99,4.14,5.99,6.5v15.5ZM280.63,186.06c-4.89,1.43-1.67,13.52,3.93,7,3.19-3.71-1.34-7.76-3.93-7ZM309.75,182.26c1.21,1.14,2.99,6.07,1.82,7.78-3.59,2.8-7.56,1.57-11.56,1.45,4.77,5.35,9.95,2.1,14.48-1.49,4.54,4.44-2.98,7.31-6.97,7.46-14.69.55-16.54-15.49-5.02-16.51,1.94-.17,5.82-.04,7.25,1.31ZM307,187.99c.58-5.25-4.43-5.14-6.98-1.49,2.07,2.49,4.15,2.55,6.98,1.49ZM250.03,193.43c2.45.75,4.67.28,6.97,1.07-1.05,1.21-1.83,2.14-3.52,2.48-1.59.32-5.33-.96-5.47,1.01,4.53,1.73,9.2,3.94,12.85-.63,3.07-3.85,3.9-19.53-1.9-15.9-1.61,1.01-3.28,8.31-6.46,9.5-3.87-2.57-3.86-5.63-3.5-9.97-8.71-1.61-4.2,10.84,1.03,12.43ZM335.99,197c-3.36-1.51-6.52.2-9.38-.02-13.36-1.05-7.45-14.73,3.37-9.97v-1.98s-11.97-2.52-11.97-2.52c10.56-7.48,20.17,3.08,17.97,14.5ZM323,190.01c-.79,4.39,8.03,3.42,7.98,1.49-2.3-3.36-4.6-2.61-7.98-1.49ZM338.96,182.53c-.36,2.61,1.96,13.3,4.75,14.29,6.08,2.16,2.86-7.27,6.27-9.35,3.05-1.87,4.89,1.94,8.02,1.53.3-6.59-8.99-5.92-12.98-3,.89-4.62-5.28-9.05-6.05-3.47ZM363.5,190.98c1.49.04,4.56-17.11-2.49-14.98.43,4.99-1.6,11.15,2.49,14.98ZM270,225l6.13,28.87,8.76.02,3.61-20.9,2.93,20.08,9.47.83,6.1-28.89h-8s-2.01,19.99-2.01,19.99c-1.94-.41-1.76-2.01-2-3.49-.43-2.64-1.11-15.55-2.1-16.39l-8.96.32-3.44,20.57-2.49-21.02h-8.01ZM379,225v29h19v-6.01s-11.02-.57-11.02-.57v-5.43s11.02.01,11.02.01v-6.01s-11.02-.57-11.02-.57v-4.43s11.02.01,11.02.01v-6.01h-19.01ZM312,225v29h19v-6.01s-11.01.01-11.01.01v-5.43s11.01-.58,11.01-.58l-.94-5.56-10.08-1.01v-4.43s11.02.01,11.02.01v-6.01h-19.01ZM241,225v6.01c.61.62,7.75-1.3,9,1.49v21.5h8v-23h8.01s0-6,0-6h-25ZM213,225v6.01s8,0,8,0v23h8v-23h8.01s0-6,0-6h-24ZM353,225v29h21v-6.01s-13,0-13,0v-23h-8ZM338,225v29h8v-29h-8ZM182.34,228.34c8.74-8.68,26.15-3.67,26.73,10.15.84,19.91-25.23,21.1-29.58,7.53-1.67-5.21-1.16-13.7,2.85-17.68ZM190.71,231.21c-5.54,1.62-5.57,14.95,0,16.57,14.29,4.18,13.91-20.63,0-16.57ZM190.71,247.78c14.29,4.18,13.91-20.63,0-16.57-5.54,1.62-5.57,14.95,0,16.57ZM167.5,225c8.81,1.55,9.5,12.87,1.52,16.5,3.78,3.04,4.81,8.02,5.98,12.49l-7.86-.13-3.76-9.91-3.37.04v10.01s-8,0-8,0v-29c4.72.57,11.03-.79,15.5,0ZM160,238c4.4.68,8.38-1.24,6.56-6.05l-6.55-1.95v8ZM166.56,231.95l-6.55-1.95v8c4.39.68,8.37-1.24,6.55-6.05ZM420.5,225c8.39,1.48,8.52,12.35,1.67,16.49l5.83,12.5-8.04-.45c-2.44-3.37-1.2-9.39-6.44-9.57-3.17-.11-.82,7.77-1.51,10.03h-7.01v-29.01c4.72.57,11.03-.79,15.5,0ZM412,238l6.06-.44c1.33-.92,1.36-4.3.48-5.61l-5.57-1.52-.97,7.57ZM418.06,237.56c1.33-.92,1.36-4.3.48-5.61l-5.57-1.52-.97,7.57,6.06-.44ZM284.56,193.06c3.19-3.71-1.34-7.76-3.93-7-4.89,1.43-1.67,13.52,3.93,7ZM300.02,186.5c2.07,2.49,4.15,2.55,6.98,1.49.58-5.25-4.43-5.14-6.98-1.49ZM330.98,191.5c-2.3-3.36-4.6-2.61-7.98-1.49-.79,4.39,8.03,3.42,7.98,1.49ZM333.01,467.51c3.48-4.25,4.1-21.38-2.03-15.03-4.21,4.35-6.78,17.94-9.41-.54l-4.56-.94c-1.17,8.05,3.45,14.57,11.99,13.01l-1.67,2.82-6.33.18c2.7,4.12,8.91,4.29,12.01.5ZM290.5,445.97c-1.68-.25-1.79.58-2.01,2-.29,1.9.29,10.21.6,12.44.46,3.36,1.89,7.21,5.91,6.58.68-.7-1.77-8.62,2.99-7.99,1.05,4.14,2.89,8.93,8.01,7.99.76-3.97-6.19-8.92-.96-10.49l-1.02-3.04-10.01,2.54c-.08-3.35,1.22-9.32-3.51-10.02ZM260.68,453.31c1.62,1.77,4.5,12.44,3.31,13.68-5.02-1.03-18.26,2.24-17.03-6.44.68-4.78,7.45-4.47,11.03-4.05-3.09-3.52-7.8-2.39-11.99-2.51.52-5.85,11.93-3.68,14.68-.68ZM250.99,463l7.99-1.5c-2.07-2.4-4.57-2.95-7.38-1.58l-.6,3.07ZM268.62,465.09c6.91,5.11,4.89-9.11,10.37-9.08l3.98,10.55c4.93.76,2.86-6.44,1.53-9.55-2.68-6.25-7.72-5.76-12.49-2-5.16-14.74-6.71,7.63-3.39,10.09ZM361.51,451.01c-5.75,7.99,5.88,21.6,12.99,12.02,2.02,2.7,4.12,3.46,7.49,2.97l-4.33-7.17-.8-5.68c-6.56-2.97-6.18,5.44-7.88,9.85-5.33-1.13-2.14-13.68-7.48-11.99ZM227,463.5c0,1.45,2.8,4.61,5.04,3.04,1.77-1.24.16-12.11,3.45-10.53,4.05,3.15,1.78,11.47,7.5,11.99,2.22-4.26-1.26-13.41-5.71-14.78-1.61-.5-4.16.18-5.36-.64-1.63-1.13,0-6.88-4.93-5.57v16.5ZM344.73,451.23c12.17-2.48,17.09,14.06,6.71,15.71-14.42,2.3-18.41-13.32-6.71-15.71ZM346.74,454.14c-5.87.82-5.18,10.85,1.7,9.89,6.22-.87,3.17-10.56-1.7-9.89ZM222.54,451.87l1.46-2.35c-.68-.99-1.33-1.31-2.5-1.51-3.29-.57-22.08-.92-23.5,1.01,1.81,4.18,5.79,3.2,9.42,2.1l1.12.84c1.64,2.69-.74,16.94,6.47,14.54l-1.01-15.5,8.54.87ZM258.98,461.5c-2.07-2.4-4.57-2.95-7.38-1.58l-.6,3.07,7.99-1.5ZM348.44,464.03c6.22-.87,3.17-10.56-1.7-9.89-5.87.82-5.18,10.85,1.7,9.89ZM333,681c9.61-.76,24.63,2.73,12,12.99,5.14-.17,7,5.17,4.77,9.28-2.25,4.15-12.44,3.82-16.77,3.73v-26ZM338,692c9.76-.03,10.89-8.1,0-7.01v7.01ZM345.87,701.87c1.21-6.06-2.35-7.59-7.87-6.88v8.01s7.87-1.13,7.87-1.13ZM254,707h4c.27-5.75-2.27-17.73,7.12-14.41l.89,14.42h3.99c.13-9.84,2.14-23.95-11.99-16v-10s-4.01,0-4.01,0v26ZM230.5,681c-1.05,0-1.92,2.84-1.5,3.99h8v22.01h4v-20.5l1.65-1.34,6.35-.16v-4h-18.5ZM308,699h-13c.85,5.42,6.67,6.19,10.98,4l1.02,2.98c-8.09,2.78-16.85.51-15.95-9.36,1.09-12,19.69-10.11,16.96,2.38ZM304,697c.66-7.14-6.41-7.54-8.98-1.49,2.15,2.63,6.01,1.2,8.98,1.49ZM328,699h-12c-1.12,8.13,10.03,2.94,10.99,5.51s-6.38,2.63-7.49,2.53c-10.45-.93-11.14-16.51-1.95-17.98,8.15-1.31,11.08,1.81,10.45,9.94ZM316,697c2.97-.29,6.82,1.14,8.98-1.49-2.57-6.05-9.64-5.65-8.98,1.49ZM275,707h4c-.02-4.8-.86-11.8,4.27-14.24,1.41-.67,4.58-.53,4.74-1.26,1.17-5.39-7.27-1.32-9,.51l-.1-2.89-3.91-.12v18ZM338,695v8.01s7.87-1.13,7.87-1.13c1.21-6.06-2.35-7.59-7.87-6.88ZM338,685v7.01c9.76-.03,10.9-8.1,0-7.01ZM295.02,695.51c2.15,2.63,6.01,1.2,8.98,1.49.66-7.14-6.41-7.54-8.98-1.49ZM324.98,695.51c-2.57-6.05-9.64-5.65-8.98,1.49,2.97-.29,6.82,1.14,8.98-1.49ZM307.01,510c-1.79,1.73,5.35,5.94,9.99,2.48,1.51-1.12,1.83-4.21,3.48-3.47,6.13,2.75-2.8,10.15-11.53,7.53s-11.01-14.87-.2-16.32c13.2-1.77,13.79,15.98-1.75,9.78ZM312.9,503.09c-3.94-2.84-11.25,6.17.13,4.44,1.56-.68.24-4.17-.13-4.44ZM355.01,516.99l10.98-2.5c0-2.52-2.62.14-5.72-1.23-8.78-3.86-5.53-14.81,3.17-14.22,7.2.48,7.25,7.77,7.58,13.5.54,9.45-10.12,7.16-16.01,4.45ZM360.08,509.93c2.25,1.59,7.49-1.64,5.43-5.91-2.84-5.9-8.48,3.75-5.43,5.91ZM289.11,501.89c5.26.83,12.01,3,10.9,9.56-.81,4.79-13.03,6.83-15.1,4.13-.8-2.63-2.57-18.39-.81-19.48l3.97.32,1.04,5.46ZM290.49,505.02c-2.13.1-2.57,9.72.99,8.97l3.38-5.36-4.37-3.61ZM332.96,500.68c.4,4.82-.22,14.23,6.06,14.87,2.12-1.62,1.72-10.72,6.97-10.54-1.39,6.47,6.78,17.41,6.04,5.52-.95-15.11-13.28-5.86-14.02-6.52l-1.02-5-4.03,1.68ZM238.76,500.22c9.26-1.35,14.77,9.85,9.23,14.26-11.68,9.29-26.47-11.75-9.23-14.26ZM240.68,503.15c-8.56.79-4.67,16.98,4.17,7.16.24-2.19-1.53-7.4-4.17-7.16ZM214.89,505.9l-5.89,1.6c1.29,3.78,3.53,2.41,7,2.5.43.44-1.5,8.38,3.48,7,2.88-.8-.47-5.11.93-7.05l7.59-1.45c-.08-4.24-7.02-1.25-8.58-3.42l.58-7.07c3.5,1.15,2.67,7.1,6.98,6.99.17-12.93-14.83-14.17-12.1.9ZM253,500c-.41,3.67,1.84,17.29,6.52,16.94,3.66-3.07,1.11-9.6,6.81-10.79l5.17,1.86c1.52-6.52-8.14-5.4-12.48-3.01l-1.15-4.87-4.87-.14ZM326.01,505c-.23,2.53-.65,12.3,3.5,11.98,3.05-.24-.49-9.98.49-11.98h-3.99ZM329.56,496.94l-4.56-.93c-1.07,1.02,2.21,7.85,4.99,6.99l-.43-6.06ZM313.03,507.53c1.56-.68.24-4.17-.13-4.44-3.94-2.84-11.25,6.17.13,4.44ZM365.51,504.02c-2.84-5.9-8.48,3.75-5.43,5.91,2.25,1.59,7.49-1.64,5.43-5.91ZM291.49,514l3.38-5.36-4.37-3.61c-2.13.1-2.57,9.72.99,8.97ZM244.85,510.3c.24-2.19-1.53-7.4-4.17-7.16-8.56.79-4.67,16.98,4.17,7.16ZM213.49,549.01c-5.55-1.15-4.85,16.72,3.95,15.99,1.58-.13,3-1.64,4.06-1.64,1.26,0,2.76,1.91,4.94,1.67s3.77-3.41,7.04-1.04l1.5-1.48c-3.24-2.04-.67-10.73-3.55-11.47-3.92-1.02-4.84,6.41-5.44,8.97-4.04.74-.77-5.63-2.44-8.05-.94-1.37-3.24-1.27-4.62-.52-2.34,1.66.91,8.3-2.91,9.57-1.61-2.39-.03-11.47-2.53-11.99ZM299,567c-2.06.72-3.48-1.57-4.7-1.79-1.9-.34-2.64,2.42-7.83.83-11.42-3.5-3.82-18.52,6.51-14.04v-7c3.56-1.25,6.01,2.42,6.01,5.5v16.5ZM287.62,555.07c-6.21,2.03,3.27,15.78,5.24,2.64-.78-2.04-3.08-3.35-5.24-2.64ZM318.78,558.77c-3.5,1.91-6.99,1.77-10.78,1.24,1.98,3.64,6.89,3.82,10,1.48,1.57-1.18,2.43-5.46,4.87-2.36,4.62,5.87-15.31,11.78-20.13.61-5.22-12.09,19.33-15.25,16.03-.97ZM314,556.99c.78-6.17-3.38-6.12-6.99-2.48-1.13,2.36,5.81,2.72,6.99,2.48ZM193,554.99c-1.48-4.98-11.38-.64-11.99-3.5-.88-4.13,11.08-2.79,14.07-.06,2.39,2.18,5.87,14.02,2.4,14.58-4.29-3.34-11.84,1.71-15.38-3.65-4.02-6.08,6.22-8.58,10.9-7.37ZM186.01,558.01c-.99,4.59,4.64,5.38,6.99,2.48.63-3-5.19-2.67-6.99-2.48ZM259,549c.05,5.16.09,11.72,3.96,15.54,4.5,2.41,3.73-11.35,9.03-10.53-1.17,10.96,9.98,16.46,5.53,2.99-3.8-11.5-12.54-3.02-13.51-3.99.2-3.74-1.5-4.44-5.01-4.01ZM244.74,549.21c7.78-1.51,11.36,4.97,11.79,11.76-10.69,15.31-29.97-8.22-11.79-11.76ZM251.37,557.76c0-2.65-2.15-4.8-4.8-4.8s-4.8,2.15-4.8,4.8,2.15,4.8,4.8,4.8,4.8-2.15,4.8-4.8ZM373.38,550.12l-3.4.45c-1.44,5.81,2.64,15.19,9.48,14.47,2.28-.24,3.09-3.15,4.82-2.89,1.46.22,4.31,3.41,6.7,2.85l-5.59-13.92c-5.27-1.81-4.77,5.54-6.17,8.66-.61,1.35-.11,1.58-2.22,1.26l-3.63-10.88ZM354.13,546.63l-.57,8.43-5.56,2.42,6.05,1.95,1.43,5.57,3.51.98.44-7.06,7.55-2.42-8.06-1.95c-2.18-1.5-.99-10.33,1.93-5.93.85,1.28,2.58,7.85,5.13,5.36,2.85-2.78-7.34-14.92-11.86-7.36ZM326,549c-.37,3.59,1.2,16.77,5.65,16.87,3.72.09,2.17-8.67,6.37-10.42l6.96,1.55c-1.72-6.91-7.99-4.79-12.97-3-.52-3.73-2.04-5.65-6.02-5ZM394,562.5c0,.33,2.06,3.38,2.51,3.5,4.92,1.25.25-17.23,1.33-19.34l-1.36-1.65-2.48,1.49v16ZM292.86,557.71c-.78-2.04-3.08-3.35-5.24-2.64-6.21,2.03,3.27,15.78,5.24,2.64ZM307.01,554.51c-1.13,2.36,5.81,2.72,6.99,2.48.78-6.17-3.38-6.12-6.99-2.48ZM192.99,560.48c.63-3-5.19-2.67-6.99-2.48-.99,4.59,4.64,5.38,6.99,2.48ZM246.57,552.96c-2.65,0-4.8,2.15-4.8,4.8s2.15,4.8,4.8,4.8,4.8-2.15,4.8-4.8-2.15-4.8-4.8-4.8Z"/>
</svg>