<?xml version="1.0" encoding="UTF-8"?>
<svg id="_レイヤー_1" data-name="レイヤー 1" xmlns="http://www.w3.org/2000/svg" width="177.05mm" height="300.59mm" viewBox="0 0 501.86 852.05">
  <path d="M304.95,73.51c11.79-.2,23.46,4.97,34.58,6.93,15.14,2.67,16.91.84,30.41-2.43,31.22-7.57,42.59,3.17,63.91,23.11,3.74,3.5,7.2,9.34,11.76,12.24,6.45,4.09,18.59,5.52,26.32,8.68,37.55,15.36,35.99,55.36,16.04,85.01-2.76,4.1-9.9,10.59-11.45,13.55-2.16,4.12-3.52,14.49-5.81,20.19-8.35,20.81-26.67,35.48-48.63,39.87-2.07,10.4,3,19.04,1.92,29.42-2.21,21.33-3.69,44.45-9.79,65.21-1.58,5.39-4.3,10.34-5.82,15.74,3.92,7.47,8.18,14.1,11.33,22.24,5.01,12.97,6.91,27.2,12.05,39.95,13.02,32.26,34.96,56,40.02,92.98,3.55,25.95-3.16,53.94,2.66,78.34,1.47,6.17,4.55,12.53,6.22,18.78,10.2,38.15,9.51,75.62-6.25,112.18-1.37,3.17-6.64,11.04-6.96,12.94s3.01,10.22,3.37,13.72c2.71,26.26-15.24,42.25-39.65,46.1-8.54,1.35-22.4.07-29.49,2.51-2.24.77-4.56,4.62-6.8,6.2-29.94,20.99-93.2,21.48-118.45-7.42-6.66-7.62-4.97-12.16-17.98-12.09-2.18.01-13.01,2.53-14.46,3.62-1.17.88-5.54,8.2-7.64,10.36-25.31,26-86.4,26.66-115.13,6.33-2.77-1.96-5.51-5.84-8.04-6.96-5.87-2.62-24.23-1.62-33.24-3.76-18.44-4.36-33.34-18.22-34.04-37.99-.16-4.61,1.92-9.67.8-13.79-1.22-4.51-11.71-19.56-14.61-26.38-11.84-27.84-12.26-66.12-5.65-95.37,3.81-16.87,11.55-31.49,11.6-49.49.09-29.77-4.74-47.87,4.64-78.26,8.69-28.16,27.97-51.11,37.31-77.69,2.55-7.26,10.91-33.05,11.77-39.31.46-3.33-1.01-6.79-.81-10.7.27-5.07,4.11-12.29,3.94-15.94s-4.56-14.2-5.65-19.38c-2.2-10.45-2.04-20.47-3.42-30.58-1.28-9.36-5.11-18.7-5.86-28.14s-.21-21.76.99-31.48c-22.48-2.84-41.46-19.01-49.77-39.74-2.39-5.96-3.53-15.1-6.04-19.96-2.33-4.54-10.07-11.43-13.62-17.38-17.14-28.67-17.85-65.1,16.45-80.39,8.19-3.65,21.3-5.22,27.89-9.11,7.49-4.42,19.98-20.79,28.6-27.4,16.54-12.68,28.36-12.5,47.9-7.94,7.36,1.72,21.64,7.56,28.15,7.86,4.12.19,17.73-3.72,23.24-4.63,4-.66,8.14-1.24,12.2-1.31-6.16-26.12,4.19-52.63,27.98-65.52,44.78-24.26,96.15,18.58,81.02,66.51ZM297.94,77.51c16.25-39.74-17.66-80.52-59.85-70.35-24.58,5.93-40.38,29.88-38.13,54.84.45,4.97,2.76,9.52,2.99,14.51-9.39,1.4-18.84,2.68-28.21,4.3-4.02.7-10.93,3.6-14.31,3.55-8.85-.12-28.14-9.57-39.11-10.73-23.1-2.44-33.91,8.61-49.41,23.34-3.93,3.73-7.87,10.58-12.61,13.39-6.24,3.69-18.22,5.53-25.6,8.4-38.88,15.07-32.53,54.07-11.73,82.23,6.58,8.9,7.35,5.89,10.42,17.58,7,26.58,24.82,47.08,53.56,48.94.35,13.86-1.87,26.53.12,40.38.94,6.55,3.85,13.14,4.8,19.2,1.64,10.47,1.32,21.63,3.38,32.62,1.06,5.66,6.04,18.54,6.26,22.28.18,3.16-2.99,9.22-3.44,13.13-.54,4.59.75,9.7.35,13.54-.66,6.27-9.82,33.89-12.44,41.37-11.11,31.68-33.69,56.12-40.72,91.28-5.55,27.74,2.5,55.63-3.16,81.84-2.38,11.03-7.22,21.97-9.64,33.36-7.8,36.64-4.42,73.47,13.7,106.31,1.63,2.95,6.97,9.06,7.59,11.45.93,3.58-1.34,13.54-.52,19.49,3.99,29.15,40.17,30.79,63.03,30.97,24.67,29.16,93.01,29.07,118.22,1.8,2.22-2.4,5.79-9.18,7.56-10.44,6.73-4.82,24.9-4.03,32.68-1.31,16.17,38.19,89.61,39.73,117.73,17.72,2.18-1.71,6.28-7.19,8.23-7.77,4.75-1.41,19.32-.42,25.78-1.22,32.02-3.96,48.23-23.58,35.72-55.31,21.45-34.38,25.34-76.56,16.31-115.69-1.99-8.64-5.63-16.93-7.64-25.36-6.68-28.03,1.46-56.48-4.34-85.66-5.91-29.77-21.4-49.84-34.05-75.95-9.45-19.51-11.41-41.86-20.94-60.06-1.48-2.83-6.81-8.93-7.32-10.67-1.65-5.57,5.57-19.7,7.29-26.28,4.87-18.59,2.9-34.22,5.55-51.45.52-3.36,2.82-5.69,3.01-10.05.25-5.9-2.6-9.93-3.07-15s1.36-9.83,1.13-14.88c.48-1.47,15.3-4.96,18.57-6.43,15.99-7.2,27.25-22.2,32.32-38.68,1.18-3.83,1.43-9.99,2.5-12.5,1.25-2.94,10.61-12.12,13.51-16.49,14-21.07,20.2-54.05-3.71-70.34-10.78-7.34-20.55-7.81-31.84-12.16s-13.06-10.67-20.95-18.05c-15.3-14.32-26.48-24.42-48.91-20.86-5.02.8-20.13,6.95-22.01,6.88s-4.03-1.7-6.19-1.91c-12.14-1.22-18.77-3.1-30.39-5.61-7.22-1.56-14.75-2.26-22.04-3.47ZM273.84,50.19c0,12.64-10.25,22.89-22.89,22.89s-22.89-10.25-22.89-22.89,10.25-22.89,22.89-22.89,22.89,10.25,22.89,22.89ZM268.33,50.22c0-9.6-7.78-17.38-17.38-17.38s-17.38,7.78-17.38,17.38,7.78,17.38,17.38,17.38,17.38-7.78,17.38-17.38Z"/>
</svg>