<?xml version="1.0" encoding="UTF-8"?>
<svg id="_レイヤー_1" data-name="レイヤー 1" xmlns="http://www.w3.org/2000/svg" width="144.03mm" height="299.33mm" viewBox="0 0 408.28 848.49">
  <path d="M393.34,262.48c-3.41,4.76-4.05,13.71-10.33,21.18-5.31,6.32-9.99,6.87-14.66,10.84-7.62,6.48-12.82,19.94-23.61,26.88-5.83,3.75-23.27,8.53-30.21,7.81-8.95-.93-13.28-6.55-19.48-12l-7.1,31.5c5.2,22.95,3.85,50.1,15.24,70.84,18.25,33.2,28.43,56.12,31.84,95.16,2.86,32.75,7.23,56.26,13.72,88.28,1.54,7.62,1.72,16.87,3.75,24.25,3.13,11.39,13.84,23.71,18.72,35.28,13.11,31.09,9.5,65.79-6.05,95.2,36.41,22.52,28.31,73.44-16.64,77.46-18.99,1.7-32.52-3.79-49.86-9.76-21.9,29.63-70.62,31.26-93.13,1.78h-1.47c-16.74,24.57-55.59,27.39-79.35,10.83-4.51-3.14-8.08-7.25-12.16-10.86-11.65,1.45-23.36,7.15-34.98,8.07-23.14,1.83-49.09-4.09-55.82-29.26-5.74-21.45,5.34-35.68,21.14-48.41-15.79-31.58-19.25-66.49-4.05-99.06,4.58-9.82,13.86-20.16,16.73-30.27,2.02-7.11,2.27-16.06,3.73-23.27,4.98-24.62,13.61-52.67,15.77-77.23,3.34-38.07,6.13-64.52,25.15-98.85,3.73-6.72,9.92-13.13,12.31-20.69,3.33-10.53,10.61-56.65,10.57-67.5-.03-8.68-5.49-20.74-7.09-29.5l-5.01,7.47c-11.22,14.84-27.07,11.22-42.25,5.3s-19.17-21.08-29.03-29.46c-4.67-3.98-9.35-4.53-14.66-10.84-6.28-7.47-6.92-16.42-10.33-21.18-2.68-3.73-7.95-6.64-10.88-12.62-12.66-25.89,8.73-68.1,22.76-90.59,8.55-13.7,31.83-44.83,44.51-53.49,18.98-12.98,33.82-9.52,52.94-15.06,8.13-2.36,18.75-12.63,27.51-15.48C139.09,40.99,162.82,2.5,199.49.14c38.42-2.47,64.65,28.89,59.28,66.28-.41,2.88-3.05,6.79-.75,9.28,9.14,2.96,18.24,12.35,27,15.01,14.5,4.4,28.02,2.83,43.7,10.3,25.44,12.1,59.49,66.5,70.49,92.51,9.78,23.15,14.84,44.47-1.65,65.7-1.25,1.61-3.63,2.44-4.23,3.27ZM294.05,305.19c3.44,3.36,4.6,7.78,7.97,11.52,6.01,6.67,13.06,9.12,22.1,7.06,12.77-2.91,19.75-6.87,28.44-16.56,3.83-4.27,8.9-13.36,12.56-16.44,8.64-7.28,13.73-6.45,19.8-19.2,4.07-8.54,2.54-7.63,8.67-15.33,16.14-20.29,9.02-42.07-.37-63.72-10.28-23.71-43.64-76.35-66.8-87.2-14.94-7-28.13-5.77-42.41-9.59-9.99-2.67-22.88-15.13-33.55-18.52-.56-.88,2.65-8.78,3.12-10.98,8.57-40.4-31.08-72.78-69.22-57.22-26.88,10.97-39.26,43.3-25.32,69.16-11.52,1.6-24.01,15-33.97,17.55-14.74,3.77-28.03,2.37-43.41,9.59-22.62,10.6-55.19,61.45-65.48,84.52s-18.63,45.1-1.68,66.4c6.13,7.7,4.6,6.79,8.67,15.33,6.07,12.75,11.17,11.92,19.8,19.2,6.95,5.85,12.55,18.75,21.57,25.43,3.01,2.23,16.44,7.07,20.23,7.77,19.63,3.67,22.06-11.27,32.26-22.77,1.75,4.75,3.99,9.13,5.51,14,1.73,5.56,5.48,19.19,5.59,24.51.19,9.65-7.39,60.5-10.36,69.71-2.47,7.66-9.91,16.03-13.89,23.11-17.95,31.87-20.58,59.91-23.79,95.21-2.28,25.11-10.67,53.19-15.75,78.25-1.47,7.27-1.73,16.19-3.75,23.25-3.31,11.6-13.78,23.58-18.72,35.28-9.96,23.64-10.02,47.41-2.29,71.63,1.23,3.85,9.46,21.35,9.45,22.57-.04,2.71-5.48,4.76-7.46,6.49-27.36,23.96-18.93,61.15,18.1,64.86,20.08,2.01,36.68-4.37,55.72-8.95,18.91,30.54,71.79,30,88.59-2.31l2.05-.61c16.61,33.4,70.49,33.38,89.7,2.12,8.52-.48,15.81,4.88,23.54,7.16,24.66,7.29,60.92,2.62,63.77-28.79,1.64-18.13-10.52-29.38-23.9-39.1,16.05-31.32,21.04-65.21,6.09-98.07-4.98-10.95-14.77-21.89-17.73-33.27-1.9-7.31-2.21-16.71-3.73-24.27-4.87-24.15-11.62-48.64-13.75-73.25-2.93-33.84-4.37-57.13-19.1-88.9-8.08-17.42-16.77-23.9-20.55-44.45-2.18-11.85-7.45-37.88-7.31-48.69.07-5.45,5.35-24.51,7.07-30.92,1.14-4.24,2.52-8.43,3.93-12.58ZM226.28,50.62c0,12.28-9.96,22.24-22.24,22.24s-22.24-9.96-22.24-22.24,9.96-22.24,22.24-22.24,22.24,9.96,22.24,22.24ZM221.33,50.6c0-9.55-7.74-17.3-17.3-17.3s-17.3,7.74-17.3,17.3,7.74,17.3,17.3,17.3,17.3-7.74,17.3-17.3ZM101.04,607.17c1.57,1.67,10.4.62,7.99-1.97-1.09-1.18-8.91-2.17-7.99,1.97Z"/>
</svg>