<?xml version="1.0" encoding="UTF-8"?>
<svg id="_レイヤー_1" data-name="レイヤー 1" xmlns="http://www.w3.org/2000/svg" width="204.61mm" height="305.86mm" viewBox="0 0 580 867">
  <path d="M479.3,270.3c-3.41,4.76-4.05,13.71-10.33,21.18-5.31,6.32-9.99,6.87-14.66,10.84-7.62,6.48-12.82,19.94-23.61,26.88-5.83,3.75-23.27,8.53-30.21,7.81-8.95-.93-13.28-6.55-19.48-12l-7.1,31.5c5.2,22.95,3.85,50.1,15.24,70.84,18.25,33.2,28.43,56.12,31.84,95.16,2.86,32.75,7.23,56.26,13.72,88.28,1.54,7.62,1.72,16.87,3.75,24.25,3.13,11.39,13.84,23.71,18.72,35.28,13.11,31.09,9.5,65.79-6.05,95.2,36.41,22.52,28.31,73.44-16.64,77.46-18.99,1.7-32.52-3.79-49.86-9.76-21.9,29.63-70.62,31.26-93.13,1.78h-1.47c-16.74,24.57-55.59,27.39-79.35,10.83-4.51-3.14-8.08-7.25-12.16-10.86-11.65,1.45-23.36,7.15-34.98,8.07-23.14,1.83-49.09-4.09-55.82-29.26-5.74-21.45,5.34-35.68,21.14-48.41-15.79-31.58-19.25-66.49-4.05-99.06,4.58-9.82,13.86-20.16,16.73-30.27,2.02-7.11,2.27-16.06,3.73-23.27,4.98-24.62,13.61-52.67,15.77-77.23,3.34-38.07,6.13-64.52,25.15-98.85,3.73-6.72,9.92-13.13,12.31-20.69,3.33-10.53,10.61-56.65,10.57-67.5-.03-8.68-5.49-20.74-7.09-29.5l-5.01,7.47c-11.22,14.84-27.07,11.22-42.25,5.3s-19.17-21.08-29.03-29.46c-4.67-3.98-9.35-4.53-14.66-10.84-6.28-7.47-6.92-16.42-10.33-21.18-2.68-3.73-7.95-6.64-10.88-12.62-12.66-25.89,8.73-68.1,22.76-90.59,8.55-13.7,31.83-44.83,44.51-53.49,18.98-12.98,33.82-9.52,52.94-15.06,8.13-2.36,18.75-12.63,27.51-15.48-12.48-34.24,11.24-72.73,47.91-75.1,38.42-2.47,64.65,28.89,59.28,66.28-.41,2.88-3.05,6.79-.75,9.28,9.14,2.96,18.24,12.35,27,15.01,14.5,4.4,28.02,2.83,43.7,10.3,25.44,12.1,59.49,66.5,70.49,92.51,9.78,23.15,14.84,44.47-1.65,65.7-1.25,1.61-3.63,2.44-4.23,3.27ZM380.01,313c3.44,3.36,4.6,7.78,7.97,11.52,6.01,6.67,13.06,9.12,22.1,7.06,12.77-2.91,19.75-6.87,28.44-16.56,3.83-4.27,8.9-13.36,12.56-16.44,8.64-7.28,13.73-6.45,19.8-19.2,4.07-8.54,2.54-7.63,8.67-15.33,16.14-20.29,9.02-42.07-.37-63.72-10.28-23.71-43.64-76.35-66.8-87.2-14.94-7-28.13-5.77-42.41-9.59-9.99-2.67-22.88-15.13-33.55-18.52-.56-.88,2.65-8.78,3.12-10.98,8.57-40.4-31.08-72.78-69.22-57.22-26.88,10.97-39.26,43.3-25.32,69.16-11.52,1.6-24.01,15-33.97,17.55-14.74,3.77-28.03,2.37-43.41,9.59-22.62,10.6-55.19,61.45-65.48,84.52s-18.63,45.1-1.68,66.4c6.13,7.7,4.6,6.79,8.67,15.33,6.07,12.75,11.17,11.92,19.8,19.2,6.95,5.85,12.55,18.75,21.57,25.43,3.01,2.23,16.44,7.07,20.23,7.77,19.63,3.67,22.06-11.27,32.26-22.77,1.75,4.75,3.99,9.13,5.51,14,1.73,5.56,5.48,19.19,5.59,24.51.19,9.65-7.39,60.5-10.36,69.71-2.47,7.66-9.91,16.03-13.89,23.11-17.95,31.87-20.58,59.91-23.79,95.21-2.28,25.11-10.67,53.19-15.75,78.25-1.47,7.27-1.73,16.19-3.75,23.25-3.31,11.6-13.78,23.58-18.72,35.28-9.96,23.64-10.02,47.41-2.29,71.63,1.23,3.85,9.46,21.35,9.45,22.57-.04,2.71-5.48,4.76-7.46,6.49-27.36,23.96-18.93,61.15,18.1,64.86,20.08,2.01,36.68-4.37,55.72-8.95,18.91,30.54,71.79,30,88.59-2.31l2.05-.61c16.61,33.4,70.49,33.38,89.7,2.12,8.52-.48,15.81,4.88,23.54,7.16,24.66,7.29,60.92,2.62,63.77-28.79,1.64-18.13-10.52-29.38-23.9-39.1,16.05-31.32,21.04-65.21,6.09-98.07-4.98-10.95-14.77-21.89-17.73-33.27-1.9-7.31-2.21-16.71-3.73-24.27-4.87-24.15-11.62-48.64-13.75-73.25-2.93-33.84-4.37-57.13-19.1-88.9-8.08-17.42-16.77-23.9-20.55-44.45-2.18-11.85-7.45-37.88-7.31-48.69.07-5.45,5.35-24.51,7.07-30.92,1.14-4.24,2.52-8.43,3.93-12.58ZM312.24,58.43c0,12.28-9.96,22.24-22.24,22.24s-22.24-9.96-22.24-22.24,9.96-22.24,22.24-22.24,22.24,9.96,22.24,22.24ZM307.3,58.42c0-9.55-7.74-17.3-17.3-17.3s-17.3,7.74-17.3,17.3,7.74,17.3,17.3,17.3,17.3-7.74,17.3-17.3ZM330,256h9v-14c6.86,6.71,5.34,16.86,17.99,13.99l-9.67-16.49,9.67-15.49-9.8.2-7.7,12.8-.49-13.02h-9.01v32.01ZM298,224v24.5c0,1.22,4.26,5.56,5.73,6.27,4.65,2.24,13.72,1.94,17.3-2.24.84-.98,2.97-6.11,2.97-7.03v-21.5h-9v23.5c0,3.18-9,2.53-9-2v-21.5h-8ZM266,255.99l-8.34.05-1.71-5.99-10.07.53-.93,5.37-8.95.04,10.1-31.89,9.41.88,10.48,31.01ZM254,242.99c-1.27-3.32-.91-8.85-3.99-10.99l-2.01,10.99h5.99ZM207.93,232.52c-.48,11.19,16.8,10.2,16.02,14.87s-10.89,2.21-13.46-.36c-4.6,5.28-1.61,7.74,4.25,8.73,7.29,1.23,17.35.26,17.35-9.26,0-8.35-8.22-9.26-14.49-11.39-3.33-7.51,8.38-5.07,12.39-3.1l.93-6.93c-7.21-1.87-22.53-3.15-22.98,7.44ZM271,224v32h21v-7.01s-13,0-13,0v-25h-8ZM363,224v32h9v-32h-9ZM332,720.5l1.66-1.34c8.85-2.33,23.3,5.05,10.35,11.33,4.64,1.84,7.93,5.76,4.46,10.47s-11.2,2.53-16.47,3.03v-23.5ZM343.85,723.14l-6.85-.14v7c3.2,1.22,11.03-4.22,6.85-6.86ZM337,741c5.49.77,9.55-1.05,7.57-7.08l-7.57-.93v8.01ZM215.02,182.6c-.52,4.32,1.24,11.92,6.9,10.32l3.09-9.92c2.64-.25,1.62-.06,1.97,1.49.51,2.26.37,8.7,4.51,7.5l4.01-8.97c2.27-.02.75,11.95,6.49,9.98,1.93-4.08-1.53-15.37-7.28-13.87-1.37.36-2.76,2.86-3.21,2.85-.67,0-6.38-7.08-11.49.01-.18-6.33-4.41-4.25-4.99.6ZM214.51,603.03c-5.32-.23-5.32,14.67,3.24,15.81,2.37.32,3.52-1.49,4.76-1.49,1.11,0,2.44,1.61,4,1.61,2.36,0,4.87-3.31,8.5-.96-1.29-3.31.69-13.85-4.05-12.58-5.11,1.37-1.17,8.64-5.94,8.58-.04-4.39,1.52-10.8-5.08-8.57-2.34,1.66.91,8.3-2.91,9.57-1.52-2.19-.17-11.87-2.51-11.97ZM296.85,599.15c2.71,1.64,2.17,17.29,2.14,20.85-3.72-1.86-8.32,1.11-11.01.56-12.31-2.49-7.04-18.9,5.01-14.57v-7s3.86.16,3.86.16ZM287.62,609.07c-2.48.81-2.64,7.88.83,7.93,7.01.1,5.09-9.87-.83-7.93ZM312.31,186.71c.33.57,2.18.73,2.58,1.9,2.52,7.31-15.58,8.66-19.37.37-4.19-9.15,9.81-14.45,14.51-8.52,1.55,1.96,1.21,4.41,2.28,6.25ZM305.9,181.1c-1.9-1.18-6.42,1.1-5.89,3.89,4.3,1.58,8.6,1.84,5.89-3.89ZM292,195c-5.63-1.92-12.5,2.47-16.47-3.02-5.32-7.36,3.55-13.98,10.46-10.98v-7s3.87.15,3.87.15c.05,1.44,2.14,4.68,2.14,5.36v15.5ZM281.62,183.06c-6.76,5.75-.03,14.15,4.41,4.44l-4.41-4.44ZM343,664c-4.04-1.41-8.33.47-12.01-.45-6.05-1.5-8.3-8.31-3.37-12.43l10.34-2.61-.95-5.51c3.55-1.27,5.99,2.41,5.99,5.5v15.5ZM332.62,652.06c-6.76,5.75-.03,14.15,4.41,4.44l-4.41-4.44ZM335.02,193.53c1.29-.8.13-6.37-.29-7.77-2.44-8.19-7.99-8.85-15.76-7.3l.58,3.49c3.36-1.61,6.06-.51,9.46.05.67,3.56-2.35.76-5.03,1.37-3.57.81-8.3,4.85-4.72,8.38,3.12,3.08,11.57,1.72,15.77,1.77ZM315.75,556.26c2.6,2.44,3.67,9.12-1.47,9.52l-7.26.71c6,4.8,8.62.72,13.48-2.48,4.69,3.94-3.35,7.73-6.95,7.82-7.38.18-16.8-7.5-10.59-14.39,2.09-2.32,10.43-3.4,12.81-1.17ZM309.73,558.15c-.88.13-3.7,1.76-3.71,2.35,6.61,6.94,9.85-3.25,3.71-2.35ZM321.05,518.45l6.94,3.03c0,3.03-11.3-.82-7.99,2.5.21.21,5.13,1.75,5.77,1.84,8.36,1.14,11.03-10.97,9.07-17.16-2.39-7.54-8.14,8.31-10.34,8.32-3.35-2.55-3.88-5.97-3.5-9.99-8.18-1.02-4.97,8.42.05,11.46ZM308,614.01c3.84,5.68,9.12,2.19,12.5-1.99l2.42,3.34c-8.53,13.94-30.72-5.3-16.95-10.88s19.51,12.45,2.03,9.53ZM312.95,606.04c-1.68-.78-7.31,2.05-5.94,3.95l6.99,1-1.05-4.96ZM287,658.01c3.38,4.82,9.29,2.39,11.51-2.01,4.19-1.1,3.18,7.83-6.01,7.81s-16.81-11.33-8.78-15.59c12.61-6.68,21.86,11.9,3.28,9.79ZM291.94,650.06l-5.88,1.01c-2.45,3.98,9.4,6.95,5.88-1.01ZM367.74,556.26c1.02,1.08,2.78,14.46,2.09,15.58-1.78,2.89-14.48,3.22-15.83-1.83,3.16-.11,10.78,3.16,10.99-2-21.17,1.21-6.92-21.99,2.74-11.75ZM359.08,564.92c7.11,1.57,8-9.4.83-7.32-1.08,2.69-2.41,4.44-.83,7.32ZM254,744h4c-1.82-18.84,10.75-20.68,8.01,0h4v-14.5c0-3.84-9.49-3.38-11.99-1.5v-9s-4.01,0-4.01,0v25ZM252.62,187.94c-3.68-.6-1.93-7.22-3.09-8.97-3.27-4.89-8.18,5.02-.59,10.59,2.77,2.03,4.76,1.52,8.06,1.44l-1.67,2.82-6.33.18c12.13,9.8,15.7-4.5,14-15.01-6.07-2.49-6,9.66-10.37,8.94ZM290.51,501.97c-1.62-.38-1.79.61-1.93,1.92-.49,4.7-.6,20.04,6.42,19.1v-7.99c5.57-.86,3.26,6.93,8.66,7.87l2.32-1.36-3.96-8.02c-.17-.71,5.18-1.33,2-4l-10,2.51c-.09-3.36,1.23-9.3-3.5-10.03ZM289.11,556.89c.61.75,7.98.46,10.14,5.37,3.94,8.94-12.41,11.15-14.33,8.07-.96-1.53-3.93-21.04,2.57-19.33,2.41,1.14.95,5.06,1.62,5.88ZM289.01,560c.29,2.96-1.15,6.81,1.49,8.97,6.34-3.2,5.31-7.79-1.49-8.97ZM263.99,523c-2.61.36-2.55.03-3.47-2-4,4.45-17.53-.35-12.21-6.7,2.39-2.85,6.55-1.91,9.68-2.79-1.6-2.94-10.3-.77-11-1.51v-2.97c11.51-3.69,19.14,4.53,16.99,15.97ZM259,516.01c-3.37-1.12-5.67-1.87-7.98,1.49-.06,1.93,8.76,2.9,7.98-1.49ZM194,608.99c-2.44-4.25-7.32-1.84-10.99-2l.97-3.51c10.72-3.58,19.65,7.07,14.53,16.5-3.34-3.76-12.1,1.96-15.03-3.98s5.97-8.19,10.53-7.01ZM195,613.01c-1.09-1.18-8.91-2.17-7.99,1.97,1.57,1.67,10.4.62,7.99-1.97ZM267.95,506.44c-2.22,1.64,0,13.86,2.01,15.1,5.16,3.18,4.32-9.57,9.03-10.54l2.94,10.4,3.12.15c2.67-8.89-4.06-18.67-13.04-10.55l-1.03-5-3.04.44ZM360.51,507.01c-4.98,6.33,2.47,17.82,10.29,14.31,1.4-.63,1-2.38,1.71-2.35,2.12.08,4.47,4,7.48,3.02.2-3.16-2.22-3.6-3.47-7-.8-2.18-.75-4.77-1.56-6.98l-4.76,1.2-2.22,8.78c-5.78.28-1.82-12.78-7.48-10.99ZM260,602.99c.22,5.54-1.53,15.39,5.98,16.01.16-1.46,3.51-13.28,6.01-11,.15,2.29,2.16,13.48,5.97,10.98,1.72-1.13-.89-11.44-2.19-12.74-2.1-2.09-8.14-1.57-10.27.74l-1.64-3.81-3.85-.18ZM332.16,556.7c-.33,1.39,1.54,12.02,2.79,12.84,6.43,4.22,3.91-9.69,10.03-9.53-1.43,6.06,7.52,15.56,6.36,6.19-2.02-16.32-13.64-6.43-14.34-7.19,1.26-5.12-3.82-6.66-4.84-2.3ZM319.54,661.96c5.95,1.92,2.18-11.72-1.23-12.76-2.67-.81-6.96-.66-8.81,1.78-6.85-12.8-5.95,3.89-4.32,9.83,8.48,4.85,4.42-7.89,10.81-8.8.74,2.1,1.6,9.33,3.55,9.96ZM369.14,604.13c-2.35,5.39,1.94,14.81,8.37,14.8,2.44,0,3.86-2.57,5.17-2.77,1.64-.25,5.98,4.68,7.32,1.32.48-1.21-4.23-3.75-4.03-5.94l-.97-6.54-4.89.09-3.6,9.88c-1.79,0-3.7-9.04-3.55-10.94l-3.81.09ZM227.99,556.54c-.94-9.52-15.93-8.57-12.03,4.42l-5.95,1.06c1.19,3.14,4.05,3.19,6.98,3.01-.15,3.99.58,10.2,4.95,5.36l-.93-6.37h8.01s0-3,0-3l-8.58-.93.58-7.07c.81-.61,7.89,12.86,6.97,3.54ZM246.99,648.54c-.94-9.52-15.93-8.57-12.03,4.42l-5.95,1.06c.43,3.7,6.7,2.71,6.99,3s-.6,6.07,2.52,6.99c4.81-.22.41-6.92,1.48-7.99h8.01s0-3,0-3l-8.58-.93.58-7.07c.81-.61,7.89,12.86,6.97,3.54ZM228,519.5c0,1.43,2.99,4.46,4.99,3.5l2.52-11c4.4-.93,2.75,13.91,8.49,10.49,1.08-8.42-2.97-14.95-12.01-13.49.27-3.26.35-6.76-4-6.01v16.5ZM325.72,728.28c1.23,1.23,3.2,7.78,2.29,8.72l-13.01.51c.04,1.93,3.09,4.06,4.75,4.34,3.6.61,7.16-3.43,6.27,2.14-25.75,5.67-13.08-28.5-.29-15.72ZM324,733.99c1-6.05-7.89-6.6-8.97-1.48-.63,3,7.44.87,8.97,1.48ZM240.31,616.68c-10.42-9.35,13.17-21.77,16.49-4.94,1.72,8.72-11.24,9.66-16.49,4.94ZM249.85,607.17c-11.21-1.54-8.37,14.13,2.02,7.7l-2.02-7.7ZM238.73,555.23c8.09-1.64,10.7,3.28,12.29,10.23-9.36,16.93-29.92-6.65-12.29-10.23ZM243.76,559.24c-7.64-4.22-11.29,9.23-2.23,8.82,6.06-.28,4.17-5.07,2.23-8.82ZM308,737h-13c1.04,5.65,6.54,5.24,10.99,4.01v2.99c-5.34-.1-12.48,1.7-14.54-4.94-4.79-15.42,18.19-18.28,16.55-2.06ZM304,733.99c1-6.05-7.89-6.6-8.97-1.48-.63,3,7.44.87,8.97,1.48ZM354.73,520.75c-4.59,4.88-16.66,1.72-17.53-5.47s8.45-10.16,13.78-7.75c3.43,1.55,6.79,9.98,3.75,13.23ZM348.87,510.13c-5.93-1.14-9.52,4.23-5.29,8.79,2.5,1.48,5.21,1.73,6.96-.93,1.42-2.81-.87-5.29-1.66-7.86ZM359.48,599.01c-10.3-2.09-4.66,6.82-6.91,10.05l-5.56,2.42,6.05,1.95,1.43,5.57,3.51.98.44-7.06,7.55-2.42c-1.37-2.82-8.37-.89-8.99-1.51v-7.01c5.49-1.43,1.94,7.09,8,6,.51-3.25-2.4-8.35-5.52-8.98ZM214.53,502.95c-2.43-.06-13.59.68-14.52,2.57.45,4.79,9.11.57,9.99,1.48.1,5.41.05,12.3,4.5,15.98,3.95-2.32-.51-14.95.5-15.98h10c3.03-2.65-9.53-4.03-10.47-4.05ZM230,719v4s8,0,8,0v21h4v-21h7s0-4,0-4h-19ZM338,178c-.01,3.44,2.02,19.88,8.08,15.57,1.55-1.1-.1-8.29,4.64-9.47,8.51,4.73,8.5-1.82,1.53-2.93-3.27-.52-5.25,1.53-8.23,1.83l-1.15-4.87-4.86-.13ZM251.01,647c.52,5.41.3,17.31,7.96,15.97l3.02-9.53,8.01,1.56c-1.37-6.31-8.47-5.68-12.98-2.99.1-3.91-2.24-5.53-6.01-5.01ZM325.46,603.97c-.85,3.15,1.92,16.16,6.06,15.83,3.08-.24,1.89-8.53,5.49-10.37l6.99,1.57c-1.68-7.03-8-4.38-12.98-2.99.65-3.03-3.47-7.06-5.56-4.03ZM253.12,556.58c2.18,5.81.17,15.73,8.88,14.42-.28-3.67-.03-7.11,3.01-9.56l6.99,1.55c-.17-7.53-8.28-4.55-12.99-2.99.83-4.31-2.49-7.29-5.89-3.43ZM275,744h4c-.17-3.98-.3-10.62,3.45-13.06,2.13-1.39,6.26-.43,5.56-4.44l-8.51,3.49-.59-2.88-3.91-.11v17ZM397,602.5c0-.39-2.17-3.48-2.5-3.48-.65.77-1.92,1.38-2.08,2.44-.12.79.56,15.08.79,15.84.43,1.45,2.1,3.01,3.79,2.71v-17.5ZM361.5,173.02c-2.52-.04-1.63,12.84-.49,14.98,3.73,2.67,4.63-13.9.49-14.98ZM274.51,651.01c-2.84.6-2.39,13.82,3.48,11.99-.4-4.12,1.89-10.69-3.48-11.99ZM325.47,559.96c-1.15,4.02-1.15,11.67,4.53,11.03-.2-2.91.76-8.53-1.23-10.75-.53-.59-2.6-1.62-3.3-.28ZM272.02,644.49c1.69,2.16,2.39,7.19,5.99,4.99l-1.03-6.49-4.97,1.5ZM324.02,552.49c1.69,2.16,2.39,7.19,5.99,4.99l-1.03-6.49-4.97,1.5ZM250.01,232l-2.01,10.99h5.99c-1.27-3.32-.91-8.85-3.99-10.99ZM344.57,733.93l-7.57-.93v8.01c5.49.77,9.55-1.05,7.57-7.08ZM336.99,723v7c3.2,1.22,11.03-4.22,6.85-6.86l-6.85-.14ZM288.45,617c7.01.1,5.09-9.87-.83-7.93-2.48.81-2.64,7.88.83,7.93ZM300,184.99c4.3,1.58,8.6,1.84,5.89-3.89-1.9-1.18-6.42,1.1-5.89,3.89ZM286.03,187.5l-4.41-4.44c-6.76,5.75-.03,14.15,4.41,4.44ZM337.03,656.5l-4.41-4.44c-6.76,5.75-.03,14.15,4.41,4.44ZM306.02,560.5c6.61,6.94,9.85-3.25,3.71-2.35-.88.13-3.7,1.76-3.71,2.35ZM307.01,609.99l6.99,1-1.05-4.96c-1.68-.78-7.31,2.05-5.94,3.95ZM286.06,651.07c-2.45,3.98,9.4,6.95,5.88-1.01l-5.88,1.01ZM359.92,557.6c-1.08,2.69-2.41,4.44-.83,7.32,7.11,1.57,8-9.4.83-7.32ZM290.49,568.98c6.34-3.2,5.31-7.79-1.49-8.97.29,2.96-1.15,6.81,1.49,8.97ZM251.02,517.5c-.06,1.93,8.76,2.9,7.98-1.49-3.37-1.12-5.67-1.87-7.98,1.49ZM187,614.99c1.57,1.67,10.4.62,7.99-1.97-1.09-1.18-8.91-2.17-7.99,1.97ZM315.02,732.52c-.63,3,7.44.87,8.97,1.48,1-6.05-7.89-6.6-8.97-1.48ZM251.87,614.87l-2.02-7.7c-11.21-1.54-8.37,14.13,2.02,7.7ZM241.53,568.06c6.06-.28,4.17-5.07,2.23-8.82-7.64-4.22-11.29,9.23-2.23,8.82ZM295.02,732.52c-.63,3,7.44.87,8.97,1.48,1-6.05-7.89-6.6-8.97-1.48ZM343.57,518.92c2.5,1.48,5.21,1.73,6.96-.93,1.42-2.81-.87-5.29-1.66-7.86-5.93-1.14-9.52,4.23-5.29,8.79Z"/>
</svg>