<?xml version="1.0" encoding="UTF-8"?>
<svg id="_レイヤー_1" data-name="レイヤー 1" xmlns="http://www.w3.org/2000/svg" width="170.73mm" height="300.44mm" viewBox="0 0 483.97 851.64">
  <path d="M297.08,40.4c1.07.26,1.98.05,2.95-.46,2.3-1.22,10.29-9.87,13.53-12.48,25.43-20.44,57.46-40.91,87.95-16,29.41,24.03,30.87,78.67,28.52,113.46-.86,12.67-5.66,20,5.52,30.51,15.29,14.38,44.41,11.22,48.04,34.95,2.85,18.62-10.5,26.23-25.55,32.07,5.28,11.76,10.24,27.51,10.08,40.5-.05,3.75-1.86,7.66-1.73,10.84.37,8.94,3.68,16.48,2.7,27.18-1.13,12.28-8.46,18.23-18.97,23.08,2.14,8.34,6.14,16.18,6.91,24.89,2.58,28.93-1.46,51.4-19.57,74.4-5.42,6.89-12.99,9.8-17.44,14.56-3.12,3.33-6.71,13.36-10.55,18.45-4.07,5.39-8.99,9.66-14.41,13.65,8.48,14.1,16.21,29.28,17.97,45.95,2.24,21.15,7.46,44.8,15,65,8.56,22.96,28.17,35.14,26.05,62.02-.27,3.42-2.04,7.02-1.95,9.87.07,2.19,1.5,11.53,1.96,14.05.5,2.72,10.55,15.64,12.84,20.16,12.52,24.75,17.82,59.14,3.29,84.05-2.43,4.16-9.19,10.57-10.42,13.58s-1.14,7.94-2.25,11.75c-5.19,17.93-21.64,28.55-38.68,33.32-3.69,1.03-8.72,1.02-11.87,2.13-3.8,1.34-11.09,7.94-16.6,10.4-24.05,10.74-62.25,13.56-86.04,1.32-5.31-2.73-12.5-10.07-16.64-11.36-19.83-6.18-59.23-5.27-80.16-2.8-16.74,1.97-15.78,3.55-28.6,11.4-26.22,16.07-70.69,13.08-96.94-1.9-4.01-2.29-10.75-8.98-13.01-9.99s-6.27-.91-9.19-1.81c-17.42-5.4-33.93-13.99-39.3-32.7-.93-3.24-.9-8.49-2.02-10.98-.97-2.15-7.47-8.62-9.64-12.36-13.9-23.89-9.8-54.95,1-79.34,5.88-13.28,16.81-23.27,17.03-38.8.07-5.26-2.5-11.72-1.89-19.06,1.73-20.84,16.63-29.87,23.8-47.2,5.83-14.09,8.94-29.74,12.52-44.48,2.97-12.22,3.51-15.41,4.84-28.16,1.61-15.49,9.64-31.15,17.86-44.05-8.59-5.57-14.54-12.58-19.78-21.27-1.89-3.13-3.25-8.7-5.16-10.84-4.73-5.3-12.25-6.82-18.45-15.55-14.25-20.07-9.32-33.08-15.31-53.69-4.32-14.87-7.11-18.52-4.01-35.45.7-3.83,4.97-14.14,4.74-16.25-.19-1.73-3.63-4.96-4.74-7.29-5.9-12.42-.11-24.22.38-35.87.13-3.18-1.68-7.09-1.73-10.84-.17-12.99,4.8-28.74,10.08-40.5-14.86-5.58-28.62-13.93-25.76-32.28,3.61-23.13,33.26-20.64,48.25-34.74,11.89-11.18,5.8-28.14,5.46-42.45-.78-32.59.98-78.32,28.03-101.05,34.87-29.31,74.15,1.82,100.51,26.49,23.26-45.99,90.41-46.44,110.55,1.98ZM190.02,48.44C163.9,26.53,125.88-12.35,90.56,15.46c-19.21,15.12-27.17,53.1-27.56,76.43-.17,9.96,1.75,20.1,2.08,30,.19,5.87.91,21.86-.5,26.59-3.36,11.28-21.54,20.22-31.59,24.41-5.69,2.38-11.76,2.52-16.9,7.1-7.76,6.92-8.31,20.36-1.05,27.93,3.92,4.09,17.14,9.82,22.99,10.51-6.26,14.2-13.06,30.58-12.03,46.53.71,10.89-.26,12.59-1.01,22.92-.84,11.46-.84,20.55,8.76,28.02-6.36,11.66-10.7,30.72-6.2,43.49.78,2.21,2.64,3.99,3.18,5.82,5.81,19.72,1,36.55,15.32,54.68,5.6,7.1,13.82,9.66,17.42,13.58,1.91,2.08,3.86,8.95,5.75,12.25,5.43,9.49,13.1,17.26,22.87,22.26-8.69,13.41-17.85,28.86-19.94,45.06-.66,5.12.51,12.21-.34,16.65-.64,3.37-3.49,8.51-4.5,12.52-4.02,15.97-7.11,32.2-13.52,47.48-9.62,22.93-24.43,24.84-22.75,55.23.58,10.48.34,9.64-1.05,20.07-.25,1.87.79,3.84.64,4.99-.12.91-9.1,11.87-10.77,14.77-12.8,22.19-20.04,57.4-7.65,81,2.62,4.99,11.06,12.89,12.31,15.69,1.1,2.47.18,5.52.77,8.23,3.17,14.58,13.61,23.49,27.07,28.93,5.98,2.42,14.58,2.93,18.96,5.04,2.65,1.28,7.31,6.29,10.59,8.41,24.49,15.81,71.29,20,95.86,2.6,10.77-7.63,8.29-7.86,22.91-10.09,21.88-3.33,70.58-4.35,91.22,2.51,2.23.74,10.78,9.27,16.11,11.87,22.71,11.08,58.82,7.98,81.39-2.67,5.22-2.46,12.56-8.91,16.81-10.19,17.8-5.33,29.41-3.74,41.06-21.94,6.09-9.52,4.04-15.42,7.3-22.7.95-2.12,6.22-6.72,7.89-9.11,17.18-24.69,11.39-60.52-2.25-85.58-1.99-3.65-11.67-15.57-11.96-17.07s.76-2.96.53-4.49c-1.79-11.63-1.62-10.81-.7-22.24,2.08-25.82-15.5-34.4-23.78-55.29-5.78-14.56-8.87-29.35-12.54-44.46-3.02-12.48-3.53-15.18-4.73-28.27-1.49-16.18-11.05-32.9-20.04-46.03,0-2.14,6.49-4.82,8.53-6.51,12.67-10.5,12.04-19.34,19.49-28.51,2.49-3.07,12-6.85,17.02-12.98,18.02-22.03,22.02-45.86,18.92-73.87-.91-8.19-5.28-18.34-9.87-25.11,9.81-5.87,20.81-7.31,22.02-20.95.95-10.81-2.48-18.6-2.71-27.2-.07-2.56,1.5-5.7,1.7-8.81,1.03-15.82-5.65-32.49-12.03-46.53,5.86-.71,19.05-6.42,22.99-10.52,9.97-10.37,5.26-25.98-7.3-31.69-12.03-5.46-23.68-6.69-34.24-16.76-15.08-14.4-7.22-30.23-6.47-48.55,1.37-33.52-4.66-94.85-44.94-104.04-32.07-7.32-62.79,26.03-85.04,44.55-12.67-53.77-89.62-56.14-105.02-3ZM266.45,59.37c0,13.49-10.93,24.42-24.42,24.42s-24.42-10.93-24.42-24.42,10.93-24.42,24.42-24.42,24.42,10.93,24.42,24.42ZM260.7,59.28c0-10.31-8.36-18.67-18.67-18.67s-18.67,8.36-18.67,18.67,8.36,18.67,18.67,18.67,18.67-8.36,18.67-18.67Z"/>
</svg>