<?xml version="1.0" encoding="UTF-8"?>
<svg id="_レイヤー_1" data-name="レイヤー 1" xmlns="http://www.w3.org/2000/svg" width="204.61mm" height="305.86mm" viewBox="0 0 580 867">
  <path d="M345.05,49.96c1.07.26,1.98.05,2.95-.46,2.3-1.22,10.29-9.87,13.53-12.48,25.43-20.44,57.46-40.91,87.95-16,29.41,24.03,30.87,78.67,28.52,113.46-.86,12.67-5.66,20,5.52,30.51,15.29,14.38,44.41,11.22,48.04,34.95,2.85,18.62-10.5,26.23-25.55,32.07,5.28,11.76,10.24,27.51,10.08,40.5-.05,3.75-1.86,7.66-1.73,10.84.37,8.94,3.68,16.48,2.7,27.18-1.13,12.28-8.46,18.23-18.97,23.08,2.14,8.34,6.14,16.18,6.91,24.89,2.58,28.93-1.46,51.4-19.57,74.4-5.42,6.89-12.99,9.8-17.44,14.56-3.12,3.33-6.71,13.36-10.55,18.45-4.07,5.39-8.99,9.66-14.41,13.65,8.48,14.1,16.21,29.28,17.97,45.95,2.24,21.15,7.46,44.8,15,65,8.56,22.96,28.17,35.14,26.05,62.02-.27,3.42-2.04,7.02-1.95,9.87.07,2.19,1.5,11.53,1.96,14.05.5,2.72,10.55,15.64,12.84,20.16,12.52,24.75,17.82,59.14,3.29,84.05-2.43,4.16-9.19,10.57-10.42,13.58s-1.14,7.94-2.25,11.75c-5.19,17.93-21.64,28.55-38.68,33.32-3.69,1.03-8.72,1.02-11.87,2.13-3.8,1.34-11.09,7.94-16.6,10.4-24.05,10.74-62.25,13.56-86.04,1.32-5.31-2.73-12.5-10.07-16.64-11.36-19.83-6.18-59.23-5.27-80.16-2.8-16.74,1.97-15.78,3.55-28.6,11.4-26.22,16.07-70.69,13.08-96.94-1.9-4.01-2.29-10.75-8.98-13.01-9.99s-6.27-.91-9.19-1.81c-17.42-5.4-33.93-13.99-39.3-32.7-.93-3.24-.9-8.49-2.02-10.98-.97-2.15-7.47-8.62-9.64-12.36-13.9-23.89-9.8-54.95,1-79.34,5.88-13.28,16.81-23.27,17.03-38.8.07-5.26-2.5-11.72-1.89-19.06,1.73-20.84,16.63-29.87,23.8-47.2,5.83-14.09,8.94-29.74,12.52-44.48,2.97-12.22,3.51-15.41,4.84-28.16,1.61-15.49,9.64-31.15,17.86-44.05-8.59-5.57-14.54-12.58-19.78-21.27-1.89-3.13-3.25-8.7-5.16-10.84-4.73-5.3-12.25-6.82-18.45-15.55-14.25-20.07-9.32-33.08-15.31-53.69-4.32-14.87-7.11-18.52-4.01-35.45.7-3.83,4.97-14.14,4.74-16.25-.19-1.73-3.63-4.96-4.74-7.29-5.9-12.42-.11-24.22.38-35.87.13-3.18-1.68-7.09-1.73-10.84-.17-12.99,4.8-28.74,10.08-40.5-14.86-5.58-28.62-13.93-25.76-32.28,3.61-23.13,33.26-20.64,48.25-34.74,11.89-11.18,5.8-28.14,5.46-42.45-.78-32.59.98-78.32,28.03-101.05,34.87-29.31,74.15,1.82,100.51,26.49,23.26-45.99,90.41-46.44,110.55,1.98ZM237.99,58c-26.12-21.91-64.14-60.79-99.47-32.98-19.21,15.12-27.17,53.1-27.56,76.43-.17,9.96,1.75,20.1,2.08,30,.19,5.87.91,21.86-.5,26.59-3.36,11.28-21.54,20.22-31.59,24.41-5.69,2.38-11.76,2.52-16.9,7.1-7.76,6.92-8.31,20.36-1.05,27.93,3.92,4.09,17.14,9.82,22.99,10.51-6.26,14.2-13.06,30.58-12.03,46.53.71,10.89-.26,12.59-1.01,22.92-.84,11.46-.84,20.55,8.76,28.02-6.36,11.66-10.7,30.72-6.2,43.49.78,2.21,2.64,3.99,3.18,5.82,5.81,19.72,1,36.55,15.32,54.68,5.6,7.1,13.82,9.66,17.42,13.58,1.91,2.08,3.86,8.95,5.75,12.25,5.43,9.49,13.1,17.26,22.87,22.26-8.69,13.41-17.85,28.86-19.94,45.06-.66,5.12.51,12.21-.34,16.65-.64,3.37-3.49,8.51-4.5,12.52-4.02,15.97-7.11,32.2-13.52,47.48-9.62,22.93-24.43,24.84-22.75,55.23.58,10.48.34,9.64-1.05,20.07-.25,1.87.79,3.84.64,4.99-.12.91-9.1,11.87-10.77,14.77-12.8,22.19-20.04,57.4-7.65,81,2.62,4.99,11.06,12.89,12.31,15.69,1.1,2.47.18,5.52.77,8.23,3.17,14.58,13.61,23.49,27.07,28.93,5.98,2.42,14.58,2.93,18.96,5.04,2.65,1.28,7.31,6.29,10.59,8.41,24.49,15.81,71.29,20,95.86,2.6,10.77-7.63,8.29-7.86,22.91-10.09,21.88-3.33,70.58-4.35,91.22,2.51,2.23.74,10.78,9.27,16.11,11.87,22.71,11.08,58.82,7.98,81.39-2.67,5.22-2.46,12.56-8.91,16.81-10.19,17.8-5.33,29.41-3.74,41.06-21.94,6.09-9.52,4.04-15.42,7.3-22.7.95-2.12,6.22-6.72,7.89-9.11,17.18-24.69,11.39-60.52-2.25-85.58-1.99-3.65-11.67-15.57-11.96-17.07s.76-2.96.53-4.49c-1.79-11.63-1.62-10.81-.7-22.24,2.08-25.82-15.5-34.4-23.78-55.29-5.78-14.56-8.87-29.35-12.54-44.46-3.02-12.48-3.53-15.18-4.73-28.27-1.49-16.18-11.05-32.9-20.04-46.03,0-2.14,6.49-4.82,8.53-6.51,12.67-10.5,12.04-19.34,19.49-28.51,2.49-3.07,12-6.85,17.02-12.98,18.02-22.03,22.02-45.86,18.92-73.87-.91-8.19-5.28-18.34-9.87-25.11,9.81-5.87,20.81-7.31,22.02-20.95.95-10.81-2.48-18.6-2.71-27.2-.07-2.56,1.5-5.7,1.7-8.81,1.03-15.82-5.65-32.49-12.03-46.53,5.86-.71,19.05-6.42,22.99-10.52,9.97-10.37,5.26-25.98-7.3-31.69-12.03-5.46-23.68-6.69-34.24-16.76-15.08-14.4-7.22-30.23-6.47-48.55,1.37-33.52-4.66-94.85-44.94-104.04-32.07-7.32-62.79,26.03-85.04,44.55-12.67-53.77-89.62-56.14-105.02-3ZM314.42,68.92c0,13.49-10.93,24.42-24.42,24.42s-24.42-10.93-24.42-24.42,10.93-24.42,24.42-24.42,24.42,10.93,24.42,24.42ZM308.67,68.84c0-10.31-8.36-18.67-18.67-18.67s-18.67,8.36-18.67,18.67,8.36,18.67,18.67,18.67,18.67-8.36,18.67-18.67ZM390,289h10v-15l10.06.44.93,14.57h9.01v-36.01h-9v14h-11.01s-.43-13.06-.43-13.06l-9.56-.94v36ZM220,303v35h24v-7h-14v-7.01s13.01.01,13.01.01v-6.43s-13.01-.57-13.01-.57v-7.01h14.01v-7h-24ZM338,303v35h24v-7h-14v-7.01s13.01.01,13.01.01v-6.43s-13.01-.57-13.01-.57v-7.01h14.01v-7h-24ZM357.52,267.98c2.68,6.35,18.1,7.04,16.47,12.49-1.25,4.19-13.36-.09-15.98-1.47l-1.06,7.49c7.74,4.95,27.49,4.52,26.99-7.91-.4-9.95-9.74-9.21-15.29-12.73-8.74-5.54,7.42-7.27,11.78-3.95l2.58-6.89c-9.62-4.64-32.04-2.55-25.48,12.97ZM160.06,263.42c.48,11.99,13.37,8.4,17.89,15.97-3.67,5.21-11.31,2.09-15.94-.38l-1.08,7.49c9.4,6.06,32.16,3.21,25.54-12.47-2.67-6.34-16.52-6.61-16.53-10.51-.01-6.06,11.62-2.59,15.04-1.51l2.02-6.99c-7.94-3.32-27.44-4.09-26.95,8.4ZM221.92,256.65c-9.63-7.95-28-3.28-29.83,9.93-2.77,19.99,13.05,27.03,29.83,20.3l-2.48-6.87c-24.87,10.82-23.7-29.86.54-17.02l1.94-6.35ZM303,253v8.01s9,0,9,0v28h10v-28h10.01s0-8,0-8h-29ZM268,253v8.01s10,0,10,0v28h9v-26.5c1.36-2.91,9.3-.78,10-1.49v-8.01h-29ZM185,303v8.01s10,0,10,0v27h9v-27h10.01s0-8,0-8h-29ZM339,253v36h10v-36h-10ZM320,303v35h10v-35h-10ZM211.98,202.53c6.59,3.36,4.59-7.79,8.53-10.52,2.31,2.7.3,6.71,3.09,8.9,5.81,4.55,3.28-7.83,8.39-8.9l1.45,9.05,4.53.92c1.84-7.24-3.92-19.87-11.47-10.99-3.47-6.26-8.19-4.51-12.49.02v-4.01c-7.5-2.7-5.74,13.64-2.03,15.53ZM206.51,603.01c-3.56,1.07-3.62,16.14,5.25,16.81,2.58.2,3.91-1.78,5.58-1.62,1.44.14,2.87,2.26,4.96,1.69,2.59-.71,1.86-4.4,7.18-.88,3.13-1.97.04-3.61-.27-5.71-.37-2.46.17-4.95-.68-7.32-6.68-3.82-4.52,6.79-8.52,9.03l-1.01-10c-7.47-1.33-5.2,3.08-6.27,8.25-.2.95-.37,3-1.72,2.75-2.05-2.96,1.04-14.64-4.5-12.99ZM297.76,599.24c2.06,2.17,3.23,19.43,1.77,21.79s-3.86-1.04-5.86-.83c-1.2.12-2.42,1.66-4.15,1.71-14.43.45-10.84-21.54,4.47-15.91l-.99-7.99c.41-.43,4.04.47,4.76,1.23ZM291.7,616.68c.54-.45,2.18-2.95,1.86-3.68-10.9-12.47-10.58,10.89-1.86,3.68ZM292,205c-7.02-1.23-19.58,2.59-19.1-8.52.31-7.22,7.11-7.77,13.1-7.48.84-.81-3.76-9.63,4.1-6.41-.18,1.48,1.89,4.18,1.89,4.91v17.5ZM278.14,200.85c3.74,2.42,5.52-.81,7.78-3.48l-4.57-5.28c-4.13.77-3.69,5.59-3.22,8.76ZM348,669c-2.2.99-4.49-1.57-5.52-1.63-2.93-.16-5.81,4.07-11.54-.81-8.78-7.47,2.16-16.15,11.06-13.57l-.99-6.99c9.31-1.03,5.7,16.58,6.99,23ZM334.25,664.77c2.3,2.47,8.37-1.12,6.25-5.74-3.35-7.29-10.46.45-6.25,5.74ZM309.01,614c-1.93,1.88,5.16,4.07,6.42,4,2.97-.17,10.49-9.47,9.62-1.5-.73,6.68-21.63,6.71-22.12-5.01-.37-8.84,12.22-11.23,16.55-5.46,6.17,8.24-3.86,10.55-10.47,7.98ZM314.95,606.04c-1.77-1.22-7.58,3.09-6.94,3.95l7.99,1.01-1.05-4.96ZM301,198.01c2.1,3.82,7.78,3.84,11,1.48,2.4-1.76,2.4-7.22,5.81-.14-3.79,9.45-23.11,4.96-22.77-4.74.29-8.39,12.71-10.51,16.79-4.94,6.28,8.56-4.26,9.92-10.84,8.35ZM308,194.99c.71-5.75-2.45-5.75-6.93-3.92l.52,3.01,6.41.91ZM246.09,187.48l-2.47-1.41c-7.5,5.35,2.86,18.39,10.37,13.94.75,7.49-6.8,1.19-8.99,4.99,14.72,6.97,17.85-4.57,15.56-17.05l-4.47-.84c-1.15,4.15-2.8,10.25-8.03,9.84l-1.97-9.46ZM286,662.01c5.77,8.71,12.67-1.92,13.48-1.97.5-.03,2.66.92,2.59,2.48-.43,9.32-23.29,7.22-22.15-5.02.74-7.91,13.05-8.56,15.97-4.89,6.59,8.29-2.85,10.96-9.89,9.4ZM290.54,653.24l-5.52,3.26c1.58,1.81,3.93,2.84,6.36,2.43,2.79-.81,1.06-4.55-.83-5.69ZM339,204c-4.58-1.25-17.96,1.71-18.06-5.47-.09-6.58,7.14-6.52,12.06-6.03-3.36-4.47-9.37-.64-12.98-4,11.44-7.8,21.65,3.26,18.98,15.5ZM334,198.99c-1.1-3.67-7.22-4.81-8.99-1.47-1.47,2.77,7.63,2.78,8.99,1.47ZM191.99,620.99c-4.32-3.24-13.53,1.2-17.08-3.4-5.17-6.71,6.09-9.6,11.08-9.09-3.83-4.86-12.77,1.86-12.53-4.52,12.73-4.95,21.36,4.71,18.52,17.01ZM180.72,612.18c-.97.27-1.58,1.13-2.23,1.82-1.28,2.97,8.58,2.56,8.49.5-1.67-2.23-3.49-3.11-6.26-2.32ZM261.03,602.43l-4.07,1.24c-.83,3.26,1.93,19.73,6.57,15.42l5.96-11.08c1.63-.03,2.34,8.55,3.6,10.38,2.94,4.27,5,.7,4.51-3.41-2.03-16.9-14.85-7.18-15.6-7.99l-.97-4.57ZM358,610c-.63.62-7.11-1.38-5.99,1.48,1.71,2.66,4.04,2.71,6.97,2.53l1.17,6.83,3.85.15v-8.01s7.42.02,7.42.02l.6-2.52-9.02-1.49v-8c4.89,0,2.5,8.26,8,6.99-.35-14.08-16.31-13.98-12.99,2.01ZM309.07,650.43l-4.07-.43c-.79.76-.11,20.58,6.92,16.92.86-.59,1.54-10.81,5.57-10.91,1.81.41,2.66,14.42,7.51,10.99,1.91-1.35-1.03-11.75-3.02-13.47-5.35-4.62-11.05,2.49-11.97,1.47l-.94-4.57ZM376.01,603.01c-4.01,9.23,6.45,23.62,14.49,13.01.56,1.38,6.88,5.61,7.5,2.46-2.77-4.28-5.6-7.94-5-13.49l-5.52.98-2.49,9.02c-7.16-1.1-.88-12.74-8.97-11.99ZM229.95,656.96l-5.95,1.54c1.18,3.21,6.08,2,6.88,2.62.69.54,3.13,18.64,5.55-.18l8.55-2.43-9.87-2.61c-.76-1.64-.16-8.68,2.91-6.42l2.11,5.39,3.86.13c-2.22-13.58-15.92-13.31-14.04,1.96ZM250.73,605.27c.96.99,3.29,6.7,3.35,8.25.45,10.5-21.53,9.6-20-3.96.73-6.49,12.5-8.54,16.65-4.29ZM241.71,607.18c-5.42,1.61-3.09,13.25,5.29,9.31,3.6-1.69.86-11.14-5.29-9.31ZM327.99,603.53c.67,4.21,1.43,16.95,6.68,17.37,3.58.29,2.67-8.81,5.31-10.42,3.31-2.01,8.47,3.46,9.02,0,.67-4.21-11.49-5.85-13.98-1.49.03-4.43-2.45-7.58-7.03-5.47ZM342.94,186.44c-2.09,1.44.94,20.63,8.02,17.52.67-3.18.69-9.02,4.07-10.5,2.89-1.27,4.55,2.42,7.96,1.54-1.32-6.32-9.68-6.09-13.98-3-.61-3.73-1.52-7.54-6.07-5.56ZM249.51,649.93l-2.26,1.52c1.57,4.21,1.01,15.61,6.47,16.39,4.48.64,2.78-3.96,3.72-6.9,2.53-7.83,9.15-.51,10.55-1.95.16-7.07-9.62-5.46-13.98-2.99-.14-2.99-.99-6.36-4.5-6.07ZM402.54,618.96c.86,1.18,1.75,2.37,3.45,2.03.89-.65-.15-21.3-1-21.99-5.15-4.17-5.27,16.09-2.45,19.96ZM366,181.99c.18,2.4-.8,14.3,1.5,15.02l2.52-.6c-.89-5.01,2.39-9.67-.17-14.27l-3.84-.16ZM272,655c.23,4.58-1.75,13.36,4.99,12.99-.23-4.58,1.75-13.36-4.99-12.99ZM386.99,177.01c-1.5.53-2.49,3.83-3.16,5.33-1.67,3.76-3.51,8.27-4.84,12.16-.5,1.45-3.24,6.86-1,7.51l9-24.99ZM271,646.01c-.84.79,2.3,7.71,3.51,7.99,4.35-.6.8-5.08,1.48-7.99h-4.98ZM196.14,193.44l9.98,20,1.46-.73-9.98-20-1.46.73ZM240.74,253.24c28.13-4.79,31.89,35.11,5.4,36.17-24.65.98-25.11-32.82-5.4-36.17ZM241.7,261.21c-7.11,2.1-7.9,23.34,5.56,20.62,10.27-2.07,9.85-25.17-5.56-20.62ZM247.26,281.83c10.27-2.07,9.85-25.17-5.56-20.62-7.11,2.1-7.9,23.34,5.56,20.62ZM303.5,303c10.82,1.8,11.8,15.05,2.48,19.51,3.33,4.69,5.95,9.75,7.01,15.48l-9.9-.1c-1.59-5.23-1.56-13.54-9.1-11.9v12.01s-9,0-9,0v-35c5.66.66,13.1-.9,18.5,0ZM301.76,317.76c1.23-1.91,1.91-4.42.34-6.35l-8.1-1.41v9.01s7.76-1.24,7.76-1.24ZM302.1,311.41l-8.1-1.41v9.01s7.76-1.24,7.76-1.24c1.23-1.91,1.91-4.42.34-6.35ZM269.5,303c10.39,1.72,11.92,15.2,2.49,19.51l7.01,15.48-9.9-.1c-1.59-5.23-1.56-13.54-9.1-11.9v12.01s-9,0-9,0v-35c5.67.65,13.1-.89,18.5,0ZM267.76,317.76c1.23-1.91,1.91-4.42.34-6.35l-8.1-1.41v9.01s7.76-1.24,7.76-1.24ZM268.1,311.41l-8.1-1.41v9.01s7.76-1.24,7.76-1.24c1.23-1.91,1.91-4.42.34-6.35ZM387.5,303c10.39,1.72,11.92,15.2,2.49,19.51l7.01,15.48-9.9-.1c-1.59-5.23-1.56-13.54-9.1-11.9v12.01s-9,0-9,0v-35c5.67.65,13.1-.89,18.5,0ZM385.76,317.76c1.23-1.91,1.91-4.42.34-6.35l-8.1-1.41v9.01s7.76-1.24,7.76-1.24ZM386.1,311.41l-8.1-1.41v9.01s7.76-1.24,7.76-1.24c1.23-1.91,1.91-4.42.34-6.35ZM293.56,613c-10.9-12.47-10.58,10.89-1.86,3.68.54-.45,2.18-2.95,1.86-3.68ZM285.93,197.36l-4.57-5.28c-4.13.77-3.69,5.59-3.22,8.76,3.74,2.42,5.52-.81,7.78-3.48ZM340.5,659.02c-3.35-7.29-10.46.45-6.25,5.74,2.3,2.47,8.37-1.12,6.25-5.74ZM308,609.99l7.99,1.01-1.05-4.96c-1.77-1.22-7.58,3.09-6.94,3.95ZM301.07,191.08l.52,3.01,6.41.91c.71-5.75-2.45-5.75-6.93-3.92ZM285.02,656.5c1.58,1.81,3.93,2.84,6.36,2.43,2.79-.81,1.06-4.55-.83-5.69l-5.52,3.26ZM325.01,197.51c-1.47,2.77,7.63,2.78,8.99,1.47-1.1-3.67-7.22-4.81-8.99-1.47ZM178.49,614c-1.28,2.97,8.58,2.56,8.49.5-1.67-2.23-3.49-3.11-6.26-2.32-.97.27-1.58,1.13-2.23,1.82ZM247,616.49c3.6-1.69.86-11.14-5.29-9.31-5.42,1.61-3.09,13.25,5.29,9.31ZM308,562.01c2.1,3.82,7.78,3.84,11,1.48,2.4-1.76,2.4-7.22,5.81-.14-3.79,9.45-23.11,4.96-22.77-4.74.29-8.39,12.71-10.51,16.79-4.94,6.28,8.56-4.26,9.92-10.84,8.35ZM315,558.99c.71-5.75-2.45-5.75-6.93-3.92l.52,3.01,6.41.91ZM374.7,552.29c1.38,1.7,2.61,14.6,1.38,16.28-3,4.09-13.07,2.92-16.59-.56-1.48-1.64,2.31-1.07,2.99-.99,3.1.35,5.24,1.62,8.52-.03.54-3.28-4.16-1.45-7.37-3.11-12.64-6.52,3.87-20.5,11.07-11.58ZM366.65,553.12c-4.89,1.57-2.58,12.78,3.85,5.88,1.54-3.36.27-7.21-3.85-5.88ZM289,553c5.71-.67,14.33,4.29,11.27,10.76-2.04,4.31-13.54,7-16.08,2.55-1.6-2.79-2-16.63-.27-18.88,3.54-4.61,6.31,1.57,5.08,5.58ZM289.01,565c6.58-.14,8.23-6.98,1.48-8.98-2.91-.86-.93,7.35-1.48,8.98ZM342.5,554.98c-8.26-16.36-9.27,14.16.41,11.92,7.43-22.42,5.51-5.17,9.58-.89.87.91,2.69,1.54,3.5.99,3.92-2.68-4.52-23.43-13.49-12.02ZM233.73,551.24c1.97-.37,4.81-.59,6.74-.22,5.28,1.01,12.04,14.45.8,16.74-14.89,3.03-19.69-14.27-7.54-16.52ZM233.24,563.75c2.62,2.64,9.46,1.3,8.59-4.01-2-12.17-14.48-1.93-8.59,4.01ZM220.85,548.65c-2.71-3.73-7.49-4.73-10.72-1.01l-.19,9.31-6.94,1.54c1.45,3.15,5.43,1.9,7.05,2.95,1.26.81.71,8.34,4.43,7.55,3.39-.71-.45-7.35,1.47-8.53l8.04-.47-1.66-2.82-7.19-.31-.14-7.86c3.7-.46,3.13,4.24,4.22,5.75,2.31,3.21,5.59-.65,1.63-6.1ZM250.05,552.4c-.06,3.13,3.37,19.23,8.87,15.51,1-.68.62-8.81,4.09-10.47,2.86-1.37,4.93,2.1,7.98,1.55-1.43-7-9.08-5.57-13.98-2.99,1.29-5.43-6.86-8.65-6.96-3.6ZM329.51,555.01c-2.82.59-2.27,14.81,3.48,12.99.04-2.52,1.11-13.95-3.48-12.99ZM332.99,554l-1.08-7.9c-9.9-1.87-.54,9.75,1.08,7.9ZM308.07,555.08l.52,3.01,6.41.91c.71-5.75-2.45-5.75-6.93-3.92ZM370.5,559c1.54-3.36.27-7.21-3.85-5.88-4.89,1.57-2.58,12.78,3.85,5.88ZM290.48,556.01c-2.91-.86-.93,7.35-1.48,8.98,6.58-.14,8.23-6.98,1.48-8.98ZM241.83,559.75c-2-12.17-14.48-1.93-8.59,4.01,2.62,2.64,9.46,1.3,8.59-4.01ZM332,711c6.9-.31,21.88-1.12,17.34,9.77-1.03,2.46-4.02,1.11-4.33,3.21,3.98.77,6.12,2.23,6.1,6.52-.03,9.44-12.73,7.38-19.11,7.5v-27ZM337,722c3.28.53,10.89-.48,8.54-5.02-1.97-2.85-5.53-1.93-8.54-1.99v7.01ZM337,726l.97,8.58c5.73.47,11.81-2.28,7.04-8.09l-8.01-.49ZM248,738h4c-2.37-21.07,11.69-21.89,9.01,0h4v-14.5c0-.24-1.97-3.24-2.43-3.57-4.53-3.25-10.01,1.69-10.57,1.07v-11s-4.01,0-4.01,0v28ZM327,730h-13c-.3,4.74,2.74,5.04,6.52,5.09s4.02-2.6,5.46,1.41c-8.34,4.81-18.94-.03-16.75-10.77,2.33-11.47,21.02-8.28,17.78,4.27ZM323,726.99c.68-7.04-10.38-6.62-8.49.01h8.49ZM306,730h-14c.1,4.45,2.77,4.79,6.52,5.1,2.32.19,5.04-2.49,5.48,1.39-.54,2.6-12.85,2.87-15.24-2.74-7.2-16.87,18.59-21.72,17.25-3.75ZM302,726.99c.16-6.18-8.46-7.15-9.98-1.47-.43,2.25.99,1.37,2.47,1.48,2.48.18,5.03-.12,7.51,0ZM222,711v4s8,0,8,0v23h4v-21.5l1.65-1.34,6.35-.16v-4h-20ZM270,738h5.01c-.52-8.89-.97-14.47,9.01-16.5l-.54-2.51c-3.74-.52-5.48,1.43-8.47,3.02l-.06-2.91-4.94-.1v19ZM337.97,734.58c5.73.47,11.81-2.28,7.04-8.09l-8.01-.49.97,8.58ZM345.54,716.98c-1.97-2.85-5.53-1.93-8.54-1.99v7.01c3.28.53,10.89-.48,8.54-5.02ZM314.51,727.01h8.49c.68-7.05-10.38-6.63-8.49,0ZM292.02,725.52c-.43,2.25.99,1.37,2.47,1.48,2.48.18,5.03-.12,7.51,0,.16-6.18-8.46-7.15-9.98-1.47ZM333.98,499.48c-1.91,1.19-3.19,9.25-7.44,9.52-3.31-2.54-2.08-6.56-2.97-10.06l-4.56-.94c-1.65,8.61,4.04,16.44,13,14.01-.75,2.39-1.74,3.81-4.45,3.83-1.96.01-5.22-2.56-4.55,1.15,4.38,1.41,8.73,3.38,12.69-.3s5.76-21.84-1.71-17.21ZM255,503.99c-2.86-5.34-8.88-.11-11.99-3.5-.81-3.58,9.55-2.66,11.28-2.27,7.8,1.75,9.74,17.23,6.18,17.8-4.09-3.22-12.06,1.43-15.54-3.43-4.5-6.28,4.76-9.94,10.07-8.59ZM248,508.01c-.75,4.58,9.07,3.36,8.98,1.49-2.59-3.01-5.54-2.76-8.98-1.49ZM288.08,494.65c-.2.66.81,12,1.03,13.73.37,2.92,1.45,8.71,5.41,6.65,1.37-2.58-1.15-7.57,2.95-8.03,3.7,2.95,3.4,9.13,9.51,7.99.74-3.05-3.06-6.07-2.96-8.51.07-1.69,2.64-3.23,1.96-5.48l-11.99,2-.15-8.85c-1.65-.87-4.97-2.13-5.77.5ZM269.03,497.43l-4.07,1.24c-.38,3.52.79,16.51,5.55,16.14,2.5-.19,3.43-10.39,6.98-11.79,1.63-.03,2.34,8.55,3.6,10.38,2.94,4.27,5,.7,4.51-3.41-2.03-16.9-14.85-7.18-15.6-7.99l-.97-4.57ZM360.7,512.72c-6.59,7.84-24.95-.32-18.14-10.67,7.64-11.6,24.83,2.7,18.14,10.67ZM355.87,510.87l-1.83-8.41c-5.74-2.24-10.66,3.84-6.38,8.61,2.72,1.4,5.52,1.07,8.21-.2ZM373.5,510.98c-4.01-1.78-2.2-16.27-7.54-12.52-6.26,4.39,6.65,24.84,14.54,12.59l6.01,3.92c3.59-2.63-1.05-4.09-2.29-6.69-1.11-2.33-.97-4.9-1.68-7.32l-5.46-.86-3.59,10.89ZM227.97,500.58c-1.18-.9-.81-9.24-4.95-6.57-1.64,1.06-.28,19.16,1.22,20.77,1.12,1.2,3.3.75,4.66.12.62-4.19-1.53-9.08,2.6-11.88,5.14,3.05,1.25,13.34,8.5,12.98,1.11-8.57-1.97-17.74-12.03-15.42ZM219.98,497.5c-2.46-5.18-26.28-3.32-27.98-1.49-1.56,1.69,1.75,2.52,2.73,2.71,2.75.54,5.5.21,8.26.28.13,2.71,1.27,15.45,3.66,16.03l3.34-.04-.99-16.99c.6-.64,9.23,3.1,10.97-.5ZM256.98,509.5c-2.59-3.01-5.54-2.76-8.98-1.49-.75,4.58,9.07,3.36,8.98,1.49ZM354.05,502.46c-5.74-2.24-10.66,3.84-6.38,8.61,2.72,1.4,5.52,1.07,8.21-.2l-1.83-8.41Z"/>
</svg>