<?xml version="1.0" encoding="UTF-8"?>
<svg id="_レイヤー_1" data-name="レイヤー 1" xmlns="http://www.w3.org/2000/svg" width="200.27mm" height="264.12mm" viewBox="0 0 567.69 748.68">
  <path d="M331.8,71.3c31.99,1.27,63.01,11.87,88.73,30.88,11.31-5.99,27.44-7.44,38.8-.9,8.21,4.73,7.44,11.02,10.92,14.08,1.88,1.65,10.94,4.85,14.23,6.77,18.37,10.73,31.84,26.02,40.5,45.5,9.21,20.72,18.41,49.23,25.85,71.15,12.21,36,26.64,84.15,7.8,119.84-2.92,5.53-7.41,9.24-10.24,13.76-2.61,4.17-4.2,10.29-7.17,14.83-15.2,23.2-39.28,26.68-63.39,35.58,6.63,12.09,13.6,26.08,14.96,40.02.82,8.46-.51,20.09.31,27.86.28,2.68,4.98,10.35,6.19,13.64,12.1,32.86,14.85,66.71-6.49,96.5,5.38,22.9-.15,43.76-11.19,63.79-.99,1.79-4.42,5.46-4.65,6.41-.41,1.72,2.52,8.7,2.84,11.8,3.82,37.09-26.46,46.89-57.46,47.55-3.66.08-9.14-1.67-11.82-.88-1.3.39-8.86,7.94-13.03,10-27.91,13.81-82.02,13.21-103.66-11.71-3.12-3.6-7.07-13.61-12.83-10.26-.45.26-4.25,7.13-5.69,8.8-22.94,26.67-79.29,28.3-108.18,11.16-2.86-1.7-9.29-7.94-10.89-8.19-2.7-.43-8.84,1.13-12.94,1.01-30.58-.9-59.12-11.42-55.5-47.48.36-3.53,3.91-11.55,3.78-12.86-.16-1.7-7.35-10.22-8.96-12.98-9.75-16.7-12.51-37.48-8.2-56.2-22.72-29.24-18.34-64.85-6.1-97.43,1.2-3.19,5.53-10.55,5.93-12.91,1.17-6.89-.2-19.82.56-27.6,1.47-15.09,9.32-29.25,15.98-42.51-3.36-.02-6.77-.64-10.01-1.5-21.87-5.79-41.28-11.58-54.4-31.6-2.97-4.54-4.56-10.65-7.17-14.83-7.63-12.22-12.88-15.02-16.93-31.07-11.08-43.98,20.89-123.84,37.49-166.53,10.05-25.85,29.37-50.65,56.97-58.53-6.56-21.03,15.2-39.46,33.98-26.39,2.98,2.08,5.71,6.74,8.79,8.21,1.81.86,9.65,2.26,11.23,1.72,2.52-.86,9.98-6.79,13.38-8.67,4.79-2.66,10.25-5.51,15.56-6.94-1.87-16.24,8.07-27.48,23.98-29.02.29-17.11,16.48-26.9,32.11-20.86,12.07-37.88,62.99-46.38,88.01-15.48,12.34,15.24,13.73,34.16,8.03,52.47ZM323.79,75.3c31.09-64.14-64.57-101.94-85.01-33.99-16.69-8.48-33.59.33-28.99,20-16.84-2.98-29.55,9.38-23,26-3.15.37-6.5,1.82-9.36,3.15-4.54,2.12-25.4,14.85-27.14,14.95-2.03.11-10.92-1.43-12.78-2.31-2.68-1.28-5.2-5.21-7.81-7.19-18.38-13.9-35.47,4.32-25.91,23.4-28.4,6.8-48.41,30.55-58.75,56.76C29.43,215.65-2.04,295.63,6.45,336.15c3.77,17.98,9.13,19.6,17.2,32.8,6.48,10.6,6.73,17.83,17.67,27.33,9.42,8.16,33.91,17.1,46.23,18.77,4.07.55,8.16.15,12.24.26-3.96,8.33-9.24,16.12-12.85,24.64-6.57,15.48-7.45,27.25-8.23,43.86-.12,2.61,1.48,4.72.91,7.74-.61,3.27-5.75,11.62-7.31,15.77-9.64,25.77-13.6,55.77-.03,81,1.34,2.49,7.38,10.13,7.52,11.49.25,2.38-1.84,8.34-2.05,11.94-1.32,23.23,5.71,39.42,19.84,57.2-20.47,45.76,24.74,60.59,61.59,54.58,26.24,27.65,91.42,27.05,114.43-3.92,4.82-6.49,2.97-8.85,13.74-7.36,4.87.67,5.45,5.93,8.47,9.52,23.69,28.14,87.89,29.5,112.58,1.74,28.39,3.82,70.77-1.35,66.29-39.61-.41-3.46-4.21-11.91-3.74-13.9.22-.94,5.8-7.83,7.02-10.04,10.71-19.42,14.4-39.25,9.1-61.02,18.68-23.28,19.65-53.11,11.44-80.87-2.03-6.88-10.14-21.73-10.7-26.38-.83-6.99.76-18.83-.03-26.89-1.7-17.29-10.84-32.65-18.98-47.51,11.32.86,20.89-4.86,30.98-8.53,11.22-4.09,17.07-4.09,27.03-12.97,10.5-9.36,10.85-16.58,17.13-26.87,2.55-4.17,7.17-7.66,10.02-12.98,15.41-28.69,7.03-65.91-1.67-95.67-7.91-27.05-20.79-64.3-32.03-89.97-7.78-17.79-21.46-34.01-38.45-43.55-2.75-1.54-16.27-6.95-16.79-7.71-.58-.85-.28-3.07-.99-4.48-6.89-13.79-23.05-14.75-36.24-9.79-2.98,1.12-4.37,4.11-8.26,3.35-1.38-.27-14.74-10.13-18.07-12.02-24.1-13.64-50.25-18.75-77.67-20.84ZM304.78,47.86c0,11.59-9.4,20.99-20.99,20.99s-20.99-9.4-20.99-20.99,9.4-20.99,20.99-20.99,20.99,9.4,20.99,20.99ZM299.45,47.85c0-8.65-7.01-15.66-15.66-15.66s-15.66,7.01-15.66,15.66,7.01,15.66,15.66,15.66,15.66-7.01,15.66-15.66Z"/>
</svg>