<?xml version="1.0" encoding="UTF-8"?>
<svg id="_レイヤー_1" data-name="レイヤー 1" xmlns="http://www.w3.org/2000/svg" width="204.61mm" height="305.86mm" viewBox="0 0 580 867">
  <path d="M338,142.99c31.99,1.27,63.01,11.87,88.73,30.88,11.31-5.99,27.44-7.44,38.8-.9,8.21,4.73,7.44,11.02,10.92,14.08,1.88,1.65,10.94,4.85,14.23,6.77,18.37,10.73,31.84,26.02,40.5,45.5,9.21,20.72,18.41,49.23,25.85,71.15,12.21,36,26.64,84.15,7.8,119.84-2.92,5.53-7.41,9.24-10.24,13.76-2.61,4.17-4.2,10.29-7.17,14.83-15.2,23.2-39.28,26.68-63.39,35.58,6.63,12.09,13.6,26.08,14.96,40.02.82,8.46-.51,20.09.31,27.86.28,2.68,4.98,10.35,6.19,13.64,12.1,32.86,14.85,66.71-6.49,96.5,5.38,22.9-.15,43.76-11.19,63.79-.99,1.79-4.42,5.46-4.65,6.41-.41,1.72,2.52,8.7,2.84,11.8,3.82,37.09-26.46,46.89-57.46,47.55-3.66.08-9.14-1.67-11.82-.88-1.3.39-8.86,7.94-13.03,10-27.91,13.81-82.02,13.21-103.66-11.71-3.12-3.6-7.07-13.61-12.83-10.26-.45.26-4.25,7.13-5.69,8.8-22.94,26.67-79.29,28.3-108.18,11.16-2.86-1.7-9.29-7.94-10.89-8.19-2.7-.43-8.84,1.13-12.94,1.01-30.58-.9-59.12-11.42-55.5-47.48.36-3.53,3.91-11.55,3.78-12.86-.16-1.7-7.35-10.22-8.96-12.98-9.75-16.7-12.51-37.48-8.2-56.2-22.72-29.24-18.34-64.85-6.1-97.43,1.2-3.19,5.53-10.55,5.93-12.91,1.17-6.89-.2-19.82.56-27.6,1.47-15.09,9.32-29.25,15.98-42.51-3.36-.02-6.77-.64-10.01-1.5-21.87-5.79-41.28-11.58-54.4-31.6-2.97-4.54-4.56-10.65-7.17-14.83-7.63-12.22-12.88-15.02-16.93-31.07-11.08-43.98,20.89-123.84,37.49-166.53,10.05-25.85,29.37-50.65,56.97-58.53-6.56-21.03,15.2-39.46,33.98-26.39,2.98,2.08,5.71,6.74,8.79,8.21,1.81.86,9.65,2.26,11.23,1.72,2.52-.86,9.98-6.79,13.38-8.67,4.79-2.66,10.25-5.51,15.56-6.94-1.87-16.24,8.07-27.48,23.98-29.02.29-17.11,16.48-26.9,32.11-20.86,12.07-37.88,62.99-46.38,88.01-15.48,12.34,15.24,13.73,34.16,8.03,52.47ZM330,146.99c31.09-64.14-64.57-101.94-85.01-33.99-16.69-8.48-33.59.33-28.99,20-16.84-2.98-29.55,9.38-23,26-3.15.37-6.5,1.82-9.36,3.15-4.54,2.12-25.4,14.85-27.14,14.95-2.03.11-10.92-1.43-12.78-2.31-2.68-1.28-5.2-5.21-7.81-7.19-18.38-13.9-35.47,4.32-25.91,23.4-28.4,6.8-48.41,30.55-58.75,56.76-15.62,39.59-47.08,119.57-38.59,160.09,3.77,17.98,9.13,19.6,17.2,32.8,6.48,10.6,6.73,17.83,17.67,27.33,9.42,8.16,33.91,17.1,46.23,18.77,4.07.55,8.16.15,12.24.26-3.96,8.33-9.24,16.12-12.85,24.64-6.57,15.48-7.45,27.25-8.23,43.86-.12,2.61,1.48,4.72.91,7.74-.61,3.27-5.75,11.62-7.31,15.77-9.64,25.77-13.6,55.77-.03,81,1.34,2.49,7.38,10.13,7.52,11.49.25,2.38-1.84,8.34-2.05,11.94-1.32,23.23,5.71,39.42,19.84,57.2-20.47,45.76,24.74,60.59,61.59,54.58,26.24,27.65,91.42,27.05,114.43-3.92,4.82-6.49,2.97-8.85,13.74-7.36,4.87.67,5.45,5.93,8.47,9.52,23.69,28.14,87.89,29.5,112.58,1.74,28.39,3.82,70.77-1.35,66.29-39.61-.41-3.46-4.21-11.91-3.74-13.9.22-.94,5.8-7.83,7.02-10.04,10.71-19.42,14.4-39.25,9.1-61.02,18.68-23.28,19.65-53.11,11.44-80.87-2.03-6.88-10.14-21.73-10.7-26.38-.83-6.99.76-18.83-.03-26.89-1.7-17.29-10.84-32.65-18.98-47.51,11.32.86,20.89-4.86,30.98-8.53,11.22-4.09,17.07-4.09,27.03-12.97,10.5-9.36,10.85-16.58,17.13-26.87,2.55-4.17,7.17-7.66,10.02-12.98,15.41-28.69,7.03-65.91-1.67-95.67-7.91-27.05-20.79-64.3-32.03-89.97-7.78-17.79-21.46-34.01-38.45-43.55-2.75-1.54-16.27-6.95-16.79-7.71-.58-.85-.28-3.07-.99-4.48-6.89-13.79-23.05-14.75-36.24-9.79-2.98,1.12-4.37,4.11-8.26,3.35-1.38-.27-14.74-10.13-18.07-12.02-24.1-13.64-50.25-18.75-77.67-20.84ZM310.99,119.55c0,11.59-9.4,20.99-20.99,20.99s-20.99-9.4-20.99-20.99,9.4-20.99,20.99-20.99,20.99,9.4,20.99,20.99ZM305.66,119.54c0-8.65-7.01-15.66-15.66-15.66s-15.66,7.01-15.66,15.66,7.01,15.66,15.66,15.66,15.66-7.01,15.66-15.66ZM261,368h6.01s.93-13.56.93-13.56l10.06-.44v14h7v-30h-7.01s.01,12.01.01,12.01l-10.07-.44-.93-11.57h-6.01v30.01ZM214,368l6.56-.94.43-13.07,10.07.44.93,13.57h6.01v-30.01h-6.01s-.93,11.56-.93,11.56l-10.07.44v-12.01s-6.99,0-6.99,0v30ZM360,338v19.5c0,1.28,2.29,6.36,3.44,7.56,3.69,3.85,12.05,3.95,16.29,1.17,1.34-.88,4.27-4.67,4.27-5.73v-22.5h-6v20.5c0,5.26-11,5.91-11,0v-20.5h-7ZM333,338v5.01s13.01.5,13.01.5c-3.81,8.35-14.36,14.64-13.01,24.49h21v-6.01s-13,0-13,0c1.75-4.07,16.74-20.22,13-23.99h-21ZM205.53,343.84c4.13-4.55-.11-5.98-4.3-6.57-7.63-1.08-15.53.89-14.19,10.15s14.63,5.41,14.05,13.09c-.33,4.42-11.01,2.12-13.08-.51l-.92,5.91c8.39,3.91,23.57,3.62,20.7-9.19-1.9-8.52-16.93-4.89-13.56-13.47,3.6-2.35,7.64-.76,11.31.6ZM304,338v5.01s8,0,8,0v25h7v-25h8.01s0-5,0-5h-23ZM246,338v30h7v-30h-7ZM295.95,550.5c.01,8.63,14.58,11.55,18.91,4.84l-1.38-3.34c-4.37,2.93-7.84,7.01-12.48,1.49,1.52-1.03,3.28.69,5.39.52,5.1-.41,7.04-5.24,3.35-8.76-3.43-3.27-13.81-1.77-13.8,5.24ZM281.51,540.01c4.74-1.47,2.36,4.9,3.43,5.52,13.29.68,13.2,14.41-.46,13.57-7.18-.45-4.75-18.53-2.97-19.08ZM285.01,556c6.49.37,6.08-8.4-.01-6.49v6.49ZM345,558.01c3.24-.37,7.46,1.19,9.99-1.51-16.95,1.05-10.09-18.98.57-12.55,2.62,1.58,4.25,12.88,2.95,15.07-1.72,2.88-12.02,3.11-13.51-1ZM353.79,546.24c-.5-.51-1.59-.72-2.31-.98l-1.97,1.75c-2.72,11.2,8.6,3.72,4.28-.76ZM217.9,548.9l-5.89,1.6c1.02,2.6,5.7,2.23,6.56,3.44,1.15,1.61-1,6.72,2.92,5.06,3.17-1.34-.2-5.61,1.46-6.52l7.03-1.97c-1.96-2.52-5.3-1.28-7.98-1.5v-7s7,5.99,7,5.99c-.75-11.47-13.27-12.93-11.1.9ZM325,543c.06,5.18-1.06,11.26,3.51,14.99,2.56.53,4.21-8.28,5.5-9.99,2.76-2.32,3.27,8.3,4.95,9.52,4.13,3.01,3.77-8.87-.4-11.59s-8.64,1.96-9.56,1.07c.05-2.89-.78-4.57-4.01-4ZM237.71,544.22c13.24-3.05,16.4,15.22,3.87,14.72-10.14-.41-13.14-12.59-3.87-14.72ZM238.66,547.14c-4.61,1.55-1.75,10.24,3.62,8.72,4.67-1.32,2.66-10.83-3.62-8.72ZM255.4,543.09c-6.24-1.92-1.99,15.67,2.25,15.78,3.57.09,1.44-7.44,5.35-9.44l6.99,1.57c-1.6-6.64-7.19-4.73-11.96-3l-2.63-4.9ZM321.84,549.66l-.79-1.21-3.05-.44c.06,3.63-1.16,10.36,3.99,10.99l-.15-9.34ZM217.11,290.39c.34,3.81,1.56,6.37,5.94,5.2l2.96-9.59c3.83,2.52.01,9.67,6.98,9-.17-2.95.04-7.9,4-8l1.15,7.85,3.85.15c.85-3.68-1.8-12.65-6.43-12.04-1.51.2-2.79,2.15-3.93,1.95-1.25-.22-2.07-3.26-5.08-2.97l-4.05,3.04c-.77-.04-1.22-2.52-1.65-2.78-4.17-2.48-3.97,5.52-3.73,8.19ZM293.06,283.56c-11.02,7.11,8.5,19.8,15.01,11.01,2.88-3.89-1.08-3.69-1.75-4.86-3.01-5.22-4.54-11.77-13.25-6.15ZM287.99,298c-5.2-1.65-15.27,1.91-16.82-5.73-1.48-7.25,5.06-8.63,10.83-8.26v-6c8.39.32,3.53,13.98,5.99,19.99ZM277.69,287.11c-5.27,1.32-1.81,11.59,2.86,5.95,2.71-3.27.3-6.74-2.86-5.95ZM325.73,296.76c3.34-.25,1.52-7.11.52-9.5-2.06-4.93-9.9-7.2-14.26-4.77-1.52.85-.54,2.09.65,2.39,1.42.35,9.43-.13,9.38,1.63l-9.79,2.7c-2.26,8.21,8.14,7.95,13.51,7.55ZM248.06,282.44l-3.04-.43c-3.06,6.66,2.91,13.36,9.98,12l-1.67,2.9-4.82-.92-.51,2c12.09,5.82,14.8-4.8,12.53-15.01-5.64-3.11-3.98,9.51-10.52,8.03l-1.95-8.55ZM334.08,282.44l-4.07-.44c.07,3.28,1.1,13.92,4.64,14.87,4.84,1.31,2.41-6.62,5.35-8.42l7,.54c.08-7.07-11.35-2.42-11.96-3.02l-.96-3.53ZM353.84,279.66l-.78-1.21-3.05-.44c.15,3.4-.4,6.88.27,10.26.19.98,1.02,4.29,2.71,2.73,1.07-.99,1.4-9.58.86-11.34ZM280.55,293.05c2.71-3.27.3-6.74-2.86-5.95-5.27,1.32-1.81,11.59,2.86,5.95ZM284.99,549.51v6.49c6.5.37,6.09-8.4,0-6.49ZM351.49,545.26l-1.97,1.75c-2.72,11.2,8.6,3.72,4.28-.76-.5-.51-1.59-.72-2.31-.98ZM246.01,499.03l-.02,2.96c.63.67,8.51-1.33,10,1.51-2.92.28-10.92.62-9.62,5.51,1.7,6.4,8.28,3.13,12.17,3.43,1.12.09,1.7,2.12,3.45,1.54,1.19-11.02-4.69-18.31-15.98-14.96ZM325.49,499.01c-4.16-1.31-4.14,8.86-8.95,8.99-2.81-2.27-2.59-4.83-1.98-8.02l-4.55-.98c-1.4,7.11,3.66,13.2,11,12.01-1.35,3.13-3.61,3.5-6.49,1.98l-.51,2c11.51,8.82,16.57-14.37,11.49-15.98ZM284.15,496.73c-.15.62.66,11.61.87,12.75.36,1.97,2.72,4.68,4.98,4.51v-6.49c4.91-2.31,4.22,7.11,10,6.49,1.23-2.84-2.74-6.84-2.62-8.48.07-1.04,2.36-2.61,1.62-4.51l-9.99,2c2.05-4.44-3.23-12.82-4.86-6.27ZM264.49,499.97c-.43,2.68.9,15.85,5.54,12.62,1.9-3.46,1.76-7.78,5.95-9.59l2.98,9.53,2.55-.52c1-9.02-4.02-16.41-12.51-9.02,1.26-4.19-3.77-7.63-4.52-3.03ZM349.95,499.44c-4.63,6.92,6.86,19.51,11.09,10.58h1.45c1.9,2.12,4.07,4.7,6.5,1.48-3.59-1.22-4.53-10.9-6.58-11.43-5.2-1.33-2.31,9.15-7.39,8.92l-2.02-9.99-3.04.44ZM334.71,499.22c8.02-1.85,10.25,2.18,12.08,9.12-7.42,16.23-27.47-5.58-12.08-9.12ZM339.87,502.13l-5.95,1.55c-1.13,1.74-1.07,5.21.75,6.39,2.53,1.28,5.16,1.51,6.88-1.09l-1.68-6.85ZM229,511.5c0,.42,3.03,3.92,4.53,1.53,1.15-1.82-.79-9.87,2.95-9.03l4.48,9.53,2.55-.52c1.13-6.44-3.04-13.43-10.38-12.15l-1.14-5.88h-2.99v16.51ZM204.24,496.74c-3.39,1.44.03,3.14,2.33,3.19,1.88.04,3.54-1.07,5.42-.94,1.17,1.25-.88,15.69,6,14l-1-14c.44-.44,12.09,1.22,9-1.98-1.53-1.59-19.08-1.41-21.76-.27ZM333.92,503.68c-1.13,1.74-1.07,5.21.75,6.39,2.53,1.28,5.16,1.51,6.88-1.09l-1.68-6.85-5.95,1.55ZM242.28,555.86c4.67-1.32,2.66-10.83-3.62-8.72-4.61,1.55-1.75,10.24,3.62,8.72ZM325,669c8.13-1.52,21.73,2.36,11,10.5,2.92,2.07,4.09,2.05,4.1,6.01.02,8.27-9.2,6.4-15.11,6.5v-23ZM329.01,679l6.56-1.94-.48-3.64c-1.5-1.79-4.01-1.49-6.08-1.42v7ZM329,689c10.67,1.16,10.07-7.88,0-8v8ZM253,692h4s1.25-12.77,1.25-12.77c1.45-1.58,4.89-.66,5.6,1.44l.17,11.34h2.99c.1-8.41,2.22-21.28-9.99-14.01l-.95-9.56-3.06-.44v24ZM302,685h-11c-.26,1.78.32,3.69,2.01,4.51,2.14,1.05,8.09-1.32,7.97.99-.11,2.05-11.65,3.29-13.53-2.44-4.88-14.88,15.81-17.43,14.56-3.06ZM297.73,679.28c-2.94-2.76-7.34-.55-6.73,3.72h7.99c.48-.44-.69-3.18-1.27-3.72ZM231,669v3c2.43.09,5.38-.77,7,1.5v18.5h4v-20h6.01s0-3,0-3h-17ZM320,685h-11c-.34,7.31,6.51,2.94,9.99,5.51.44,2.54-7.42,1.66-8.47,1.46-7.67-1.46-8.64-18.5,4.94-15.95,4.29.8,5.07,5.28,4.54,8.98ZM317,682.99c.43-7.15-9.34-6.24-7.49.01h7.49ZM272,692h4c.09-3.59-.88-9.68,2.44-12.06,1.73-1.24,5.54-.57,5.57-3.43-3.36-1.92-5.61.64-8,2.49l-.1-2.89-3.91-.11v16ZM329.01,681v8c10.66,1.16,10.06-7.88,0-8ZM335.57,677.06l-.48-3.64c-1.5-1.79-4.01-1.49-6.08-1.42v7s6.56-1.94,6.56-1.94ZM291,682.99h7.99c.48-.44-.69-3.18-1.27-3.72-2.94-2.76-7.34-.55-6.73,3.72ZM309.51,683.01h7.49c.43-7.16-9.34-6.25-7.49,0ZM159.55,602.92c3.02-.18,7.17-1.02,10.2-1.71,2.02-.46,3.71,1.94,5.23-.7-2.95-1.76-.91-9.97-3.56-10.46-5.39-.99-2.32,8.81-5.9,7.96-.97-13.22-5.28-8.92-7.01.99-2.84-1.48-.85-9.39-1.51-10-8.76-1.63-5.04,14.38,2.55,13.92ZM249.01,589.49c-6-1.5-14.05-1.24-12.99,6.92,1.39,10.65,20.38,8.51,18.98,2.11-.86-3.9-5.19,1.25-6.25,1.72-3.22,1.41-6.2,1.24-7.75-2.23,7.22,2.46,13.57-1,8.01-8.52ZM384.71,589.22c-12.04,3.5,4.61,22.51,14.01,12.51,2.03-2.16,1.13-5.72-1.72-4.24-3.55,1.84-6.88,7.26-10.99.52,15.01,4.48,12.29-12.74-1.29-8.79ZM438,604c-4.3-1.43-13.08,2.05-15.5-2.99-3.37-7.04,4.07-12.65,10.49-10.01v-6.99c2.49-.49,5.01,2.35,5.01,4.5v15.5ZM428.62,593.06c-2.99.49-4.58,8.61.87,8,5.48-.61,2.66-8.58-.87-8ZM233,604c-5.95-1.34-16.14,2.8-16.11-6.5.02-6.2,5.89-8.05,11.1-6.5.54-2.57-2.27-5.18.52-6.99,1.92-.38,4.49,4.47,4.49,5.49v14.5ZM226.74,599.74c3.62-3.51-3.74-9.99-5.55-4.03-1.35,4.43,2.24,7.24,5.55,4.03ZM126,589.01c.12,5.12,6.47,1.07,10,3l-.49,1.97c-4.58-2.89-11.7,3.35-7.54,7.55,3.01,3.04,10.06.29,14.02,1.47,1.24-10.8-5.03-17.83-15.99-13.99ZM197.01,588c-.7.66-.37,16.05,5.01,14.55,1.44-.53,3.6-11.85,5.97-9.55.49,2.25,1.01,4.52,1.86,6.68.41,1.05,1.01,4.07,2.64,3.3,3.09-1.45.8-10.23-.96-12.01-3.34-3.4-9.83,1.79-10.52,1.02v-4.01s-4,0-4,0ZM402,587.99c-.62.58-.13,16.23,5.02,14.56l5.48-9.53,3.41,9.38,3.08.6c.57-8.1-1.95-17.54-11.5-11.03l-1.64-3.81-3.84-.18ZM283.64,584.92l-1.77,8.96-4.87,1.13c.91,2.7,3.34,2.88,5.81,3.17l1.2,5.82,3.89-1.58-.9-5.42c2.69-.23,6.02,1.02,7.98-1.5-1.9-3.02-7.93.03-8.91-3.14-.71-2.31,1.38-8.1,3.17-4.07.87,1.96,1.1,6.61,4.76,3.19.11-.81-2.61-5.62-3.28-6.18-2.01-1.68-4.85-1.49-7.08-.38ZM338.96,593.96c-2.29,0-5.26-.11-4.96,3.03l5.93,1.07c-.05,3.25-.35,6.69,4.06,5.94v-7s6.98-1.49,6.98-1.49l-7.55-2.43-.43-6.06,6.99,5.99c-.32-11.93-13.45-12.81-11.03.97ZM297.01,589c-1.32,5.32,2.41,14.13,8.53,13.99,2.07-.05,2.92-2.67,4.1-2.88.72-.13,7.52,4.7,7.35,1.39-.03-.64-6.96-7.68-4.99-11.5-7.74-1.75-3.06,8.16-8.98,9l-2.07-9.94-3.93-.07ZM178.3,591.29c7.19-8.87,22.47,4.75,14.07,10.59-7.87,5.47-19.97-3.31-14.07-10.59ZM187.74,592.25l-2.83-.78c-5.44,2.21-5.01,6.73-.19,9.38l5.2-2.52-2.18-6.09ZM257.46,588.97c-1.46,2.09,1.52,13.57,5.06,15.02,3.31.73,1.78-7.56,5.48-9.55,3.14-1.69,4.41,3.66,6.98.06-3.48-4.45-7.42-4-11.96-1.5.13-2.87-3.32-7.22-5.56-4.03ZM355.51,587.96c-3.82-.2-.82,10.74.26,12.77.95,1.79,2.17,2.23,3.74,3.24l4.48-9.54,7,1.56c-1.62-6.47-7.24-5.17-11.98-2.99.1-2.38-1.01-4.72-3.5-5.04ZM319,601.5c0,1.06,2.84,1.9,4,1.5v-15.5c0-1.86-2.1-3.18-4-2.5v16.5ZM374.01,593l1.07,9.94,2.91.07v-10.01s-3.99,0-3.99,0ZM374.51,584.01c-3.01.57.32,9.05,3.48,6.99.68-2.15-.65-7.52-3.48-6.99ZM429.49,601.06c5.48-.61,2.66-8.58-.87-8-2.99.49-4.58,8.61.87,8ZM221.19,595.71c-1.35,4.43,2.24,7.24,5.55,4.03,3.62-3.51-3.74-9.99-5.55-4.03ZM184.91,591.48c-5.44,2.21-5.01,6.73-.19,9.38l5.2-2.52-2.18-6.09-2.83-.78Z"/>
</svg>