<?xml version="1.0" encoding="UTF-8"?>
<svg id="_レイヤー_1" data-name="レイヤー 1" xmlns="http://www.w3.org/2000/svg" width="204.61mm" height="305.86mm" viewBox="0 0 580 867">
  <path d="M346.03,88.95l20.99,7.58c25.51-26.76,53.48-65.78,96.03-57.08,14.12,2.89,42.13,20.28,51.92,31.08,22.38,24.69,21.06,57.09-12.02,70.13.39,6.33,1.5,12.4,1.03,18.83-.35,4.83-4.96,17.89-4.75,19.88.15,1.38,3.16,5.26,4.04,7.85,3.8,11.13.5,19.77-5.29,29.26,19.01,7,35.15,22.15,22.29,43.03,12.36,17.07,22.18,37.33,20.72,58.99-.18,2.61-1.94,5.06-1.91,7.01.03,2.29,4.72,14.98,5.59,19.3,2.34,11.66,4.11,25.83,3.3,37.67-.46,6.68-4.89,19.7-3.78,24.79,1.01,4.63,10.45,7.16,14.44,11.08,15.09,14.8,5.96,39.23-14.65,41.65,3.59,18.59,8.47,43.5-3.56,59.92-1.73,2.36-7.19,6.14-7.43,8.58,1.75,10,4.79,19.86,8.83,29.16,1.47,3.4,7.62,16.43,9.31,18.69,3.62,4.83,7.55,5.27,9.8,13.2,3.04,10.71-1.27,17.78-7.78,25.76,2.72,5.3,4.85,11.04,6.17,16.86,1.69,7.45,1.34,16.21,3.14,22.86,1.16,4.28,6.23,8.02,8.38,11.62,9.6,16.1-2.23,36.49-20.84,35.35-.81,14.97-3.86,28.25-13.49,40.01-4.49,5.47-16.32,13.82-18.75,19.25-3.09,6.91-2.4,17.55-4.02,24.98-7.46,34.24-46.58,37.29-75.25,37.84-2.77.05-6.08-1.78-8.79-1.12-.74.18-2.66,4.27-3.73,5.51-32.32,37.13-110.49,28.8-126.21-21.24-2.04-1.78-16.48-1.77-18.52,0-16.8,52.45-100.24,59.36-129.94,15.71-3.04-.11-5.71,1.21-8.79,1.14-30.06-.71-56.93-1.73-72.68-30.41-7.24-13.17-7.18-15.35-8.94-30.06-1.37-11.4-8.63-12.63-15.39-20.61-10.17-12.02-13.7-25.45-14.49-41.01-19.32,1.24-31.43-18.19-21.8-35.31,1.86-3.3,5.8-6.36,6.88-9.12,2.15-5.49,2.15-17.49,4.21-24.79,1.87-6.64,4.91-12.07,7.78-18.22-10.54-7.36-12.2-22.15-4.48-32.47,6.75-9.01,10.42-12.62,15.27-23.73,2.4-5.52,10.72-26.82,8.64-31.33-.69-1.51-4.48-4.14-5.91-6.11-13.22-18.13-8.18-40.4-4.58-60.91-22.92-3.28-30.16-30.82-10.94-44.44,3.21-2.27,11.32-4.15,11.95-8.11.6-3.76-3.18-12.5-3.91-17.05-2.72-17.01.12-36.17,3.97-52.82.79-3.42,3.45-8.48,3.72-11.32.25-2.63-1.56-4.5-1.72-6.84-1.15-17.13,3.83-31.3,11.75-46.09,1.27-2.37,8.77-13.01,8.82-13.83.07-1.22-2.58-4.67-3.14-6.5-6.07-19.79,9.67-29.91,25.48-36.54-5.37-9.15-8.92-17.74-5.48-28.44.9-2.79,4.34-6.96,4.39-9.49.07-3.54-4.49-14.07-4.88-20.03-.41-6.27.98-11.69,1.02-17.83-39.61-16.28-31.42-55.84-2.52-78.64,9.65-7.61,30.63-20.16,42.43-22.57,41.6-8.5,69.93,28.78,94.5,55.6,5.38,3.16,16.47-5.55,22.57-6.06-8.9-29.51,11.51-62.34,40.98-69.49,42.73-10.37,79.55,27.27,70.03,69.46ZM340.08,92.93c-.63-4,1.57-7.59,1.91-11.44,1.89-21.51-8.26-42.38-27.63-52.35-42.58-21.89-88.1,19.47-73.36,63.85l-26.69,9.84c-27.99-23.57-48.81-63.26-91.69-58.71-14.11,1.5-43.72,20.12-53.13,30.87-20.64,23.54-17.73,52.79,14.57,61.62-.9,9.94-2.42,18.52-.62,28.45.61,3.39,4.75,13.84,4.59,15.4-.21,2.08-4.74,5.72-5.6,9.47-2.86,12.37,2.75,19.27,8.56,29.05-13.74,6.65-32.81,11.59-28.77,31.29.6,2.92,5.19,7.95,4.66,10.01-10.65,14.03-23.9,38.06-21.77,56.11.34,2.91,2.69,7.13,2.63,8.93-.09,2.91-4.13,11.72-5.07,15.85-3.23,14.07-4.89,30.9-3.66,45.31.65,7.55,5.07,15.53,3.74,22.78s-8.82,7.1-14.07,10.92c-16.85,12.27-6.13,37.07,14.32,34.82-2.15,18.23-9.74,42.88.8,59.69,3.08,4.91,9.4,7.86,9.26,13.81-.2,8.37-5.51,23.25-8.89,31.17-4.7,11.02-8.14,15.72-15.61,24.39-8.86,10.27-4.07,22.69,6.21,29.42-3.29,6.78-7.15,13.2-9.26,20.52-2.34,8.14-1.91,17.76-4.16,24.84-1.18,3.72-6.28,7.63-8.22,11.78-7.33,15.64,7.19,29.72,22.83,25.4,1.46,15.35,1.91,28.85,12.07,41.45,5.38,6.67,16.73,13.43,17.89,22.11,2.18,16.3,1.89,19.76,10.27,34.73,15.03,26.85,51.78,22.74,78.16,23.84,28.07,42.71,109.04,35.7,122.9-15.92,1.79-2.13,23.63-2.13,26.13-.33,14.66,51.81,94.91,59.23,123.3,16.25,24.42-.85,62.65,2.49,77.16-21.84,7.05-11.81,4.11-24.89,9.44-37.56,2.83-6.75,14.72-15.04,19.72-21.28,10.32-12.85,10.83-25.64,12.03-41.48,12.59,4.01,25.54-6,23.91-19.4-1.1-9.03-10.31-13.26-12.45-21.56-1.09-4.22.03-8.38-.49-12.51-1.3-10.36-5.3-20.78-9.96-30.03,8.5-3.87,11.6-12.72,9.75-21.75-1.11-5.43-6.93-8.19-9.61-12.39-6.43-10.08-18.37-38.25-18.25-49.84.07-7.03,2.46-4.98,5.48-8.61,15.88-19.08,7.48-42.8,4.6-64.89,20.88,1.89,31.72-22.74,13.94-35.44-5.09-3.64-10.74-2.94-12.69-10.3-2.15-8.11,1.65-13.09,2.63-20.88,1.33-10.57.38-25-1.17-35.59-1.14-7.79-6.57-21.41-6.76-27.32-.1-3.2,1.65-5.3,1.97-8.05,1.64-14.29-5.94-31.78-12.75-44.09-1.57-2.84-8.83-12.14-9-13.99-.13-1.4,3.99-5.8,4.6-9.07,3.79-20.46-14.6-24.22-28.76-31.29,6.06-10.05,12.64-18.88,7.79-31.28-1.05-2.68-4.34-5.35-4.56-7.34s3.64-10.89,4.32-14.3c2.08-10.5.45-19.01-.62-29.45,28.03-7.49,35.61-31.56,19.47-55.52-10.18-15.12-42.76-36.03-60.86-37.14-40.46-2.47-61.8,35.32-88.19,58.89l-27.28-9.92ZM313.44,68.38c0,12.79-10.37,23.17-23.17,23.17s-23.17-10.37-23.17-23.17,10.37-23.17,23.17-23.17,23.17,10.37,23.17,23.17ZM308.06,68.48c0-9.8-7.95-17.75-17.75-17.75s-17.75,7.95-17.75,17.75,7.95,17.75,17.75,17.75,17.75-7.95,17.75-17.75ZM217.94,262.96l3.57-10.96c2.93-.76,1.56,7.23,3.42,8.57l4.06.44c.03-3.3.63-7.46,4-9,1.43,4.06-.26,10.47,6.01,9.99.46-5.08-.07-9.88-4-13.53-3.93-1.95-7.48,2.9-7.98,2.53-.17-2.62-2.81-4.21-5.29-3.83-3.69.56-2.58,4.17-5.72,3.84v-4.01c-4.73-4.74-7.96,18.38,1.94,15.97ZM223,300v34h7.01s.93-14.56.93-14.56h11.13l.93,14.57h7.01v-34.01h-8c-1.17,2.98,2.21,12.1.06,13.55l-12.05.45v-14h-7ZM364,299v34h22v-6h-14v-9.01s13.01.01,13.01.01v-4.43s-13.01-.57-13.01-.57v-8.01s13.01.01,13.01.01v-6.01h-21.01ZM214.94,302.63c-8.44-6.4-28.82-1.79-21.81,11.75,3.66,7.06,19.79,4.37,14.2,13.71-5.61,3.53-13.81-2.63-14.33-2.08l-.6,6.03c9.21,6.83,30.44,1.63,22.48-12.42-3.15-5.56-14.98-4.76-14.98-10.11,0-6.14,10.36-3.38,14.08-1.5l.95-5.37ZM258,300v34h21v-6h-14v-9.01s13.02-.57,13.02-.57l-.03-5.42-12.05.56-.94-7.56h14v-6h-21ZM314,300v6.01s9,0,9,0v28h8v-28h9.01s0-6,0-6h-26ZM286,300v34h23v-6h-15v-28h-8ZM348,300v33h8v-33h-8ZM287.85,242.15c2.89,1.75,1.63,17.94,3.14,21.84-5.3-1.24-16.67,2.32-18.79-4.7-2.55-8.48,5.84-11.43,12.79-10.3l-.99-6.99,3.85.15ZM279.62,252.06c-6.76,5.75-.03,14.15,4.41,4.44l-4.41-4.44ZM312.51,548c-14.86-2.84-15,13.6-3.03,15.02,3.64.43,12.34.18,10.42-5.41-.4-1.15-2.24-1.32-2.57-1.92-1.39-2.47-1.26-7.02-4.82-7.7ZM242,247c-1.19,4.97,1.95,12.08,6.99,13.61,2.46.75,4.13-1.28,6.01-.11-2.96,4.39-4.6,2.91-8.99,3,11.62,10,17.54-5.16,14.52-15.52-4.76-3.41-5.22,3.29-7.07,5.98-5.13,7.48-7.56-1.43-6.45-6.96h-5.01ZM308.77,248.23c.42.42,1.76,4.06,1.84,4.75.63,5.46-7.89,5.02-11.61,4.51,2.12,3.19,6.6,3.24,9.79,1.78,1.55-.71,1.71-2.23,2.16-2.57,3.65-2.77,5.22,2.55,1.43,5.18-11.05,7.67-26.13-7.79-15.77-13.77,2.48-1.43,10.13-1.93,12.16.12ZM302.67,249.1l-4.65,3.4c4.53,4.91,11.63.35,4.65-3.4ZM334.99,263c-4.57-1.39-17.15,2.1-17.09-5.5.05-6.24,6.98-5.35,11.09-5.99-3.12-3.77-11.5,1.43-11.99-4.49,12.54-4.24,19.4,3.77,17.99,15.98ZM323.64,255.12c-5.43,1.65,3.7,6.86,6.34,2.38-1.57-2.14-3.68-3.19-6.34-2.38ZM351,562.01c3.24-.37,7.46,1.19,9.99-1.51-8.93,1.91-14.57-11.71-5.47-13.47,11.34-2.19,9.71,8.14,10.03,15.99-1.98,3.21-12.87,3.29-14.55-1ZM357.62,549.06c-2.94,1.6-3.93,5.61-1.11,7.93,2.66.81,4.22-2.47,4.46-4.52l-3.35-3.41ZM289,544v6c3.88-.42,7.28.78,9.46,4.06,5.24,7.88-9.84,11.36-12.44,8.47-2.32-2.59-4.93-21.47,2.98-18.53ZM290.01,561c6.29-2.03,6.15-8.62-1.01-7.99l1.01,7.99ZM330.12,548.67c-.56,1.82,1.24,11.89,2.84,12.87,5.47,3.35,3.78-9.9,9.03-9.54.76,3.63.7,10.72,6,9.99.43-9.36-2.92-16.76-12.98-10.99.82-3.7-3.81-5.86-4.89-2.34ZM219.96,553.96l-4.94,1.54,5.79,2.68,1.19,5.18c6.34,3.02,2.52-5.92,3-6.35,2.69-.19,6.01.97,7.99-1.52l-8.58-3.45.6-6.03c2.18.04,4.29,8.72,6.98,5.99,3.76-3.81-14.3-17.09-12.03,1.97ZM338.01,246c-.81.8,1.38,21.9,8.54,16.04.77-4,.05-8.56,4.96-9.69l6.5,1.63c-2.41-6.45-8.65-5.06-13.99-2.99.09-3.89-2.21-5.53-6.01-5ZM241.74,548.21c13.02-2.51,15.76,18.26,1.49,15.14-9.29-2.03-11.3-13.24-1.49-15.14ZM243.74,551.14c-5.79.81-4.91,10.1.6,9.63,5.83-.49,4.23-10.3-.6-9.63ZM255.99,548.56c.45,5.93-.23,15.82,8.01,14.45-.11-2.96-.28-6.28,2-8.55l8.01.54c-1.49-5.7-8.89-4.7-12.99-1.99.58-3.77-1.23-6.44-5.02-4.44ZM361.01,256l2.96-.02c4.1-18.83-7.51-20.8-2.96.02ZM323.95,552.45c-2.2,1.6-.3,13.14,4.05,10.04l-1.02-10.49-3.03.44ZM198.14,251.44l10.98,22,1.46-.73-10.98-22-1.46.73ZM390.99,242c-3.62,5-8.42,13.14-10.53,18.96-.34.94-1.32,3.25.53,3.03l10-21.99ZM323.01,543c-1.16,1.19,1.4,8.75,4.99,6.99.38-1.69-2.39-9.67-4.99-6.99ZM284.03,256.5l-4.41-4.44c-6.76,5.75-.03,14.15,4.41,4.44ZM298.02,252.5c4.53,4.91,11.63.35,4.65-3.4l-4.65,3.4ZM329.98,257.5c-1.57-2.14-3.68-3.19-6.34-2.38-5.43,1.65,3.7,6.86,6.34,2.38ZM335,687c9.69-.75,24.6,2.76,12,12.99,5.46.6,7.45,5.42,4.43,9.95-3.26,4.9-11.38,2.55-16.43,3.06v-26ZM346.86,696.87l-.8-5.44-7.07-.44v7.01s7.87-1.13,7.87-1.13ZM340.64,701.08c-2.31.73-3.51,9,1.84,8.99,9.52-.01,5.66-11.36-1.84-8.99ZM254,708.5c0,.9,1.79,3.63,1.03,5.49l3.97.02c-2.42-20.96,10.57-21.26,8.01,0h3.99c.28-9.32,1.76-24.37-11.99-17v-10s-5.01,0-5.01,0v21.5ZM230,688v4s7,0,7,0v22h5v-22h7s0-4,0-4h-19ZM310,706h-13c-.16,1.62-.22,2.31,1,3.5,3.39,3.32,8.75-.9,9.99,2.02,1.02,2.41-7.18,2.63-8.41,2.45-10.93-1.53-9.98-20.93,3.84-18.92,5.33.77,6.43,6.35,6.58,10.95ZM306,702.99c-.06-7.18-10.18-6.54-8.49.01h8.49ZM330,706h-13c-1.24,1.1,2.69,4.22,3.97,4.59,3.64,1.07,9.12-3.03,6.36,2.42-4.82,2.04-12.19.52-13.88-4.96-4.96-16.08,18.65-18.68,16.55-2.05ZM326,702.99c.68-7.04-10.38-6.62-8.49.01h8.49ZM276,714h4c-.77-8.55.05-14.09,9.02-16.5l-.52-2.51c-3.94-.46-5.67,2.04-8.48,4.01v-4.01s-4.01,0-4.01,0v19ZM342.48,710.07c9.52-.01,5.66-11.36-1.84-8.99-2.31.73-3.51,9,1.84,8.99ZM346.06,691.43l-7.07-.44v7.01s7.87-1.13,7.87-1.13l-.8-5.44ZM297.51,703.01h8.49c-.06-7.19-10.18-6.55-8.49,0ZM317.51,703.01h8.49c.68-7.05-10.38-6.63-8.49,0ZM356.51,556.99c2.66.81,4.22-2.47,4.46-4.52l-3.35-3.41c-2.94,1.6-3.93,5.61-1.11,7.93ZM289.01,553l1.01,7.99c6.29-2.03,6.15-8.62-1.01-7.99ZM244.34,560.77c5.83-.49,4.23-10.3-.6-9.63-5.79.81-4.91,10.1.6,9.63ZM249.01,503.52l10.98,2.5c-.48,1.86-4.25.76-6.24,1.26-6.22,1.57-5.46,8.78,1.83,9.7,3.43.43,6.81-1.29,10.41.02.29-10.99-5.48-19.27-16.98-13.48ZM321.52,511c-3.03-.71-.95-8.24-3.5-9.51-3.19-1.59-3.29,3.09-3.09,5.04.48,4.7,6.38,8.77,11.07,7.48.03,4.05-4.3,3.43-6.99,2-1.9,2.43,7.34,6.43,11.48.99,2.83-3.71,1.03-10.5,1.5-15-5.59-2.65-6.22,10-10.48,9ZM290.48,497.25c-3.03.45-1.79,10.4-1.39,13.16.47,3.29,1.84,7.2,5.91,6.58v-6.42s2.51-.6,2.51-.6c2.05,3.7,2.04,7.55,7.49,7.01l-3.03-8.58,2.03-4.41-9.99,2c-.07-1.94-.13-6.34-1.23-7.75-.4-.51-1.62-.68-2.29-1ZM238.51,507.01c3.82-.81,2.97,9.6,6,10.99,4.34,1,2.72-11.07-3.48-13.53-1.5-.6-4.04-.16-5.09-.91-1.37-.98-.56-6.16-3.43-5.55s-1.9,16.62.94,19.11c.58,1.11,3.33-.05,3.45-.23,1.09-1.77-1.52-7.97,1.61-9.88ZM359.56,502.94l-4.56-.94c-1.85,8.2,6.2,18.76,13.47,11.23l6.52,2.77c.54-3.19-2.39-4.3-3.53-6.96-1.35-3.13.43-8.61-5.99-5.06l-1.48,8.02c-5.12.04-3.15-7.14-4.43-9.06ZM268.95,501.44c-2.13,1.57.1,12.92,2.01,14.1,5.28,3.26,3.61-9.09,9.04-8.54.55,3.54,1.24,9.78,6,8.99.69-8.82-4.09-17.61-12.98-10l-1.03-5-3.04.44ZM342.74,501.21c8.48-.81,15.03,13.95,3.49,15.59-12.16,1.73-16.49-14.35-3.49-15.59ZM345.76,505.23c-10.41-2.97-8.27,14.29,1.81,6.78l-1.81-6.78ZM219.05,503.6c.82-3.34,7.85,1.72,9.93-2.1-.04-3.7-20.67-2.57-23.98-1.49l1.66,2.83,7.9,1.1c1.55,2.24-1.36,14.16,5.43,13.07l-.94-13.4ZM347.57,512l-1.81-6.78c-10.41-2.97-8.27,14.29,1.81,6.78ZM241.01,605.5c4.36,6.03,14.8,6.37,17.95-.89-.99-1.64-2.17-2.65-3.95-1.6,2.04-15.14-22.49-9.26-14.01,2.49ZM391.06,594.56c-8.66,5.6,3.17,19.1,13.86,12.86,7.32-4.27-.1-4.92-.7-5.62s-.62-5.8-2.47-7.53c-2.31-2.16-8.2-1.31-10.69.29ZM159.5,604.98c-4.41-4.02,3.22-11.09-5.49-9.98-1.13,3.52-.82,11.66,2.98,13.5,2.11,1.02,12.94.19,15.29-1.25l3.71.74-1.96-11.55c-5.95-1.27-3.53,5.59-6.54,8.55l-1.97-8.02c-.68-1.64-4.11-.26-4.38.18-.99,1.61,1.24,6.07-1.64,7.82ZM447,609c-5.14-1.71-12.47,2.18-15.89-3.61-4.14-7.02,4.35-11.93,10.88-10.39l-.99-5.99c2.96-1.08,6,1.8,6,4.49v15.5ZM436.53,598.01c-2.28.67-2.58,8.14.97,8.04l4.42-4.4-5.39-3.64ZM236.99,609.99c-5.62-1.79-9.95,2.48-14.98-1.51-6.87-5.45,1.27-15.53,8.98-11.48v-7c8.41.32,3.55,13.98,6,19.99ZM226.62,599.06c-4.46.73-3.26,11.79,2.96,7.02,3.45-2.65-1.03-7.34-2.96-7.02ZM126.02,596.5l10.97,3c-4.08.68-8.75-.09-10.04,5.05,1.23,7.98,10.59,4.08,16.04,5.45,1.57-10.7-6.66-20.53-16.97-13.5ZM199.12,595.67c-.76,2.45,1.34,16.12,5.92,12.92,2.14-2.82,1.39-8.55,5.45-9.6.63-.01,2.63,14.2,6.04,9.04,1.22-2.19-.77-10.51-2.51-11.54-3.52-1.35-7-.41-10.01,1.52.83-3.71-3.81-5.86-4.9-2.34ZM415.5,596.98c-8.56-15.94-6.28,14.93.56,9.58l3.06-8.45,2.87-.12c-.76,2.29,2.67,13.11,5.94,8.93,1.07-1.36-1.87-10.4-3.18-11.66-2.65-2.53-7.21-.88-9.25,1.71ZM305.49,594.01c-5.62-1.8-4.44,11.35,2.46,13.55,5.58,1.78,6.59-2.4,7.54-2.41.66,0,4.2,4,6.51,2.84l-5.52-12.99c-6.2-.29-3.37,7.78-7.46,9.99-1.62-2.08-1.74-10.42-3.52-10.99ZM354.45,591.05c-5.86-6.27-11.48.73-9.56,7.84-.49.58-6.03.28-4.88,2.59l5.93,1.58.97,5.35,3.08.59v-7.01c2.69-.21,6.02,1.03,7.98-1.5.04-2.48-14.47.57-7.46-8.49,2.18-1.05,1.91,3.68,2.71,4.74,2.54,3.35,5.51-1.1,1.22-5.7ZM193.75,596.25c.79.76,3.4,6.94,3.28,8.2-.8,8.14-20.05,7.53-17.81-4.76.97-5.35,11.67-6.2,14.53-3.44ZM184.25,605.75c2.63,2.63,7.99,1.2,7.58-2.98-.96-9.97-13.28-2.7-7.58,2.98ZM292.5,592.02c8.72,15.03,7.73-3.92-1.77-2.84-4.91.56-3.62,7.37-3.72,10.83l-5,1.48c1.03,2.35,5.61,1.14,5.98,1.52.31.32-.79,7.68,4,6.99l.44-7.06,7.57-2.92-9-1.01c.1-2.45-.8-5.29,1.51-6.98ZM360.01,593c.17,3.54,1.19,15.77,5.65,15.87,3.53.08,1.94-7.64,5.35-9.43l6.99,1.55c.18-6.66-7.81-5.45-11.98-2.99-.44-3.72-2.09-5.67-6.01-5ZM261,594c1.18,5.38.14,16.17,7.99,15l2.13-8.88c1.53-.99,9.33,2.48,7.87-.61-3.44-3.64-8.11-3.11-11.98-.51l-1.15-4.86-4.86-.13ZM325,607.5c0,1.06,2.84,1.9,4,1.5v-14.5c0-.77-1.67-2.94-1.01-4.51h-2.99v17.51ZM383.49,597.01c-3.71-.87-2.64,9.01-1.26,10.75,4.71,5.93,4.52-9.98,1.26-10.75ZM381.51,589.01c-3.44.82,1.94,8.78,3.48,6.99.19-2.61.71-7.98-3.48-6.99ZM437.5,606.04l4.42-4.4-5.39-3.64c-2.28.67-2.58,8.14.97,8.04ZM229.58,606.08c3.45-2.65-1.03-7.34-2.96-7.02-4.46.73-3.26,11.79,2.96,7.02ZM191.83,602.77c-.96-9.97-13.28-2.7-7.58,2.98,2.63,2.63,7.99,1.2,7.58-2.98Z"/>
</svg>