<?xml version="1.0" encoding="UTF-8"?>
<svg id="_レイヤー_1" data-name="レイヤー 1" xmlns="http://www.w3.org/2000/svg" width="200.53mm" height="294.17mm" viewBox="0 0 568.44 833.87">
  <path d="M340.21,71.2l20.99,7.58c25.51-26.76,53.48-65.78,96.03-57.08,14.12,2.89,42.13,20.28,51.92,31.08,22.38,24.69,21.06,57.09-12.02,70.13.39,6.33,1.5,12.4,1.03,18.83-.35,4.83-4.96,17.89-4.75,19.88.15,1.38,3.16,5.26,4.04,7.85,3.8,11.13.5,19.77-5.29,29.26,19.01,7,35.15,22.15,22.29,43.03,12.36,17.07,22.18,37.33,20.72,58.99-.18,2.61-1.94,5.06-1.91,7.01.03,2.29,4.72,14.98,5.59,19.3,2.34,11.66,4.11,25.83,3.3,37.67-.46,6.68-4.89,19.7-3.78,24.79,1.01,4.63,10.45,7.16,14.44,11.08,15.09,14.8,5.96,39.23-14.65,41.65,3.59,18.59,8.47,43.5-3.56,59.92-1.73,2.36-7.19,6.14-7.43,8.58,1.75,10,4.79,19.86,8.83,29.16,1.47,3.4,7.62,16.43,9.31,18.69,3.62,4.83,7.55,5.27,9.8,13.2,3.04,10.71-1.27,17.78-7.78,25.76,2.72,5.3,4.85,11.04,6.17,16.86,1.69,7.45,1.34,16.21,3.14,22.86,1.16,4.28,6.23,8.02,8.38,11.62,9.6,16.1-2.23,36.49-20.84,35.35-.81,14.97-3.86,28.25-13.49,40.01-4.49,5.47-16.32,13.82-18.75,19.25-3.09,6.91-2.4,17.55-4.02,24.98-7.46,34.24-46.58,37.29-75.25,37.84-2.77.05-6.08-1.78-8.79-1.12-.74.18-2.66,4.27-3.73,5.51-32.32,37.13-110.49,28.8-126.21-21.24-2.04-1.78-16.48-1.77-18.52,0-16.8,52.45-100.24,59.36-129.94,15.71-3.04-.11-5.71,1.21-8.79,1.14-30.06-.71-56.93-1.73-72.68-30.41-7.24-13.17-7.18-15.35-8.94-30.06-1.37-11.4-8.63-12.63-15.39-20.61-10.17-12.02-13.7-25.45-14.49-41.01-19.32,1.24-31.43-18.19-21.8-35.31,1.86-3.3,5.8-6.36,6.88-9.12,2.15-5.49,2.15-17.49,4.21-24.79,1.87-6.64,4.91-12.07,7.78-18.22-10.54-7.36-12.2-22.15-4.48-32.47,6.75-9.01,10.42-12.62,15.27-23.73,2.4-5.52,10.72-26.82,8.64-31.33-.69-1.51-4.48-4.14-5.91-6.11-13.22-18.13-8.18-40.4-4.58-60.91-22.92-3.28-30.16-30.82-10.94-44.44,3.21-2.27,11.32-4.15,11.95-8.11.6-3.76-3.18-12.5-3.91-17.05-2.72-17.01.12-36.17,3.97-52.82.79-3.42,3.45-8.48,3.72-11.32.25-2.63-1.56-4.5-1.72-6.84-1.15-17.13,3.83-31.3,11.75-46.09,1.27-2.37,8.77-13.01,8.82-13.83.07-1.22-2.58-4.67-3.14-6.5-6.07-19.79,9.67-29.91,25.48-36.54-5.37-9.15-8.92-17.74-5.48-28.44.9-2.79,4.34-6.96,4.39-9.49.07-3.54-4.49-14.07-4.88-20.03-.41-6.27.98-11.69,1.02-17.83-39.61-16.28-31.42-55.84-2.52-78.64,9.65-7.61,30.63-20.16,42.43-22.57,41.6-8.5,69.93,28.78,94.5,55.6,5.38,3.16,16.47-5.55,22.57-6.06-8.9-29.51,11.51-62.34,40.98-69.49,42.73-10.37,79.55,27.27,70.03,69.46ZM334.26,75.17c-.63-4,1.57-7.59,1.91-11.44,1.89-21.51-8.26-42.38-27.63-52.35-42.58-21.89-88.1,19.47-73.36,63.85l-26.69,9.84c-27.99-23.57-48.81-63.26-91.69-58.71-14.11,1.5-43.72,20.12-53.13,30.87-20.64,23.54-17.73,52.79,14.57,61.62-.9,9.94-2.42,18.52-.62,28.45.61,3.39,4.75,13.84,4.59,15.4-.21,2.08-4.74,5.72-5.6,9.47-2.86,12.37,2.75,19.27,8.56,29.05-13.74,6.65-32.81,11.59-28.77,31.29.6,2.92,5.19,7.95,4.66,10.01-10.65,14.03-23.9,38.06-21.77,56.11.34,2.91,2.69,7.13,2.63,8.93-.09,2.91-4.13,11.72-5.07,15.85-3.23,14.07-4.89,30.9-3.66,45.31.65,7.55,5.07,15.53,3.74,22.78s-8.82,7.1-14.07,10.92c-16.85,12.27-6.13,37.07,14.32,34.82-2.15,18.23-9.74,42.88.8,59.69,3.08,4.91,9.4,7.86,9.26,13.81-.2,8.37-5.51,23.25-8.89,31.17-4.7,11.02-8.14,15.72-15.61,24.39-8.86,10.27-4.07,22.69,6.21,29.42-3.29,6.78-7.15,13.2-9.26,20.52-2.34,8.14-1.91,17.76-4.16,24.84-1.18,3.72-6.28,7.63-8.22,11.78-7.33,15.64,7.19,29.72,22.83,25.4,1.46,15.35,1.91,28.85,12.07,41.45,5.38,6.67,16.73,13.43,17.89,22.11,2.18,16.3,1.89,19.76,10.27,34.73,15.03,26.85,51.78,22.74,78.16,23.84,28.07,42.71,109.04,35.7,122.9-15.92,1.79-2.13,23.63-2.13,26.13-.33,14.66,51.81,94.91,59.23,123.3,16.25,24.42-.85,62.65,2.49,77.16-21.84,7.05-11.81,4.11-24.89,9.44-37.56,2.83-6.75,14.72-15.04,19.72-21.28,10.32-12.85,10.83-25.64,12.03-41.48,12.59,4.01,25.54-6,23.91-19.4-1.1-9.03-10.31-13.26-12.45-21.56-1.09-4.22.03-8.38-.49-12.51-1.3-10.36-5.3-20.78-9.96-30.03,8.5-3.87,11.6-12.72,9.75-21.75-1.11-5.43-6.93-8.19-9.61-12.39-6.43-10.08-18.37-38.25-18.25-49.84.07-7.03,2.46-4.98,5.48-8.61,15.88-19.08,7.48-42.8,4.6-64.89,20.88,1.89,31.72-22.74,13.94-35.44-5.09-3.64-10.74-2.94-12.69-10.3-2.15-8.11,1.65-13.09,2.63-20.88,1.33-10.57.38-25-1.17-35.59-1.14-7.79-6.57-21.41-6.76-27.32-.1-3.2,1.65-5.3,1.97-8.05,1.64-14.29-5.94-31.78-12.75-44.09-1.57-2.84-8.83-12.14-9-13.99-.13-1.4,3.99-5.8,4.6-9.07,3.79-20.46-14.6-24.22-28.76-31.29,6.06-10.05,12.64-18.88,7.79-31.28-1.05-2.68-4.34-5.35-4.56-7.34s3.64-10.89,4.32-14.3c2.08-10.5.45-19.01-.62-29.45,28.03-7.49,35.61-31.56,19.47-55.52-10.18-15.12-42.76-36.03-60.86-37.14-40.46-2.47-61.8,35.32-88.19,58.89l-27.28-9.92ZM307.62,50.63c0,12.79-10.37,23.17-23.17,23.17s-23.17-10.37-23.17-23.17,10.37-23.17,23.17-23.17,23.17,10.37,23.17,23.17ZM302.24,50.73c0-9.8-7.95-17.75-17.75-17.75s-17.75,7.95-17.75,17.75,7.95,17.75,17.75,17.75,17.75-7.95,17.75-17.75Z"/>
</svg>