<?xml version="1.0" encoding="UTF-8"?>
<svg id="_レイヤー_1" data-name="レイヤー 1" xmlns="http://www.w3.org/2000/svg" width="157.71mm" height="300.61mm" viewBox="0 0 447.04 852.13">
  <path d="M275.47,79.5c1.42.04,2.88.14,4.28-.21,4.67-1.17,29.53-28.78,35.7-34.3,21.67-19.39,49.78-38.61,79.03-22,26.67,15.14,18.92,51.87,17.94,76.98-.83,21.31.42,41.64-4.25,62.75-1.63,7.37-5.75,16.21-6.6,23.4-3.98,33.89,19.14,77.45,18.97,114.89-.06,13.66-6.57,25.32.71,38.21,1.82,3.23,5.18,6,7.05,8.95,10.29,16.31,7.16,32.64-9.92,41.95,1.92,8.01,5.54,15.54,7.41,23.57,1.69,7.26,1.71,14.1,2.91,21.09.84,4.88,3.67,9.57,3.83,15.23.23,8.51-4.01,18.66-11.88,22.69l-.28,1.3c4.4,11.64,7.48,23.75,8.97,36.15,4.15,34.59.96,70.02,6.42,104.58,2.13,13.53,6.28,27.02,8.4,40.6,6.45,41.49,3.64,83.02-24.29,116.16,6.13,30.14-6.96,51.7-37.19,57.73-10.19,2.03-26.36,1.86-35.26,4.74-2.48.8-10.77,8.05-14.9,10.1-32.04,15.88-88.67,9.12-104.2-27.38l-9.17-.2c-14.2,29.85-47.65,37.33-78.21,35.08-17.11-1.26-34.95-9.92-46.16-22.84-24-2.81-53.75-3.42-64.48-29.52-4.45-10.82-.74-19.58-3.26-27.74-.78-2.53-7.41-10.21-9.36-13.64-29.55-52.01-14.96-89.4-6.49-143.1,7.36-46.62-1.37-95.83,15.39-140.73l-.28-1.3c-7.87-4.03-12.11-14.18-11.88-22.69.16-5.65,2.97-10.33,3.83-15.23s.66-10.32,1.68-15.32c2.06-10.02,5.85-19.54,8.63-29.34-14.38-7.69-19.74-21.5-12.79-36.81,2.56-5.63,7.13-9.17,9.91-14.09,7.14-12.65.78-24.66.72-38.2-.13-29.11,11.31-56.45,16.6-84.48,4.9-25.94.97-30.28-4.24-53.83-4.67-21.11-3.42-41.44-4.25-62.75-.99-25.34-8.47-62.52,19.02-77.89,42.65-23.85,84.73,31.97,112.41,56.53l5.53-.1C152.83,32.46,196.61-13.62,243.72,3.75c30.38,11.2,43.5,46.17,31.74,75.75ZM266.47,84.5c1.03-4.38,3.9-7.92,5.27-12.22,12.07-37.77-21.53-74.31-60.12-65.12-33.62,8.01-49.58,47.01-31.16,76.33l-16.05,1.46C137.78,62.69,98.9,7.25,58.47,26.01c-27.83,12.91-18.92,54.06-17.96,77.95.55,13.7-.54,27.35.97,41.03,1.99,18.07,10.81,35.23,10.03,53.05-1.58,36.14-21.28,70.1-19.08,109,.38,6.79,3.7,17.58,2.83,23.7-2.28,16.04-25.87,26.84-13.63,46.1,2.9,4.56,12.58,9.16,12.89,11.19.63,4.2-7.23,23.97-8.58,30.44-2.23,10.69-3.07,21.84-5.52,32.53-.47,8.73,5.65,17.31,14.06,19.52-18.97,41.76-10.92,89.09-16.02,133.47-5.89,51.28-25.85,89.02-1.16,141.19,2.52,5.32,15.49,23.53,15.89,25.97.61,3.7-1.22,11.99-.46,17.6,1.89,13.92,12.65,24.19,25.51,28.49,11.09,3.71,31.37,2.94,39.46,6.54,3.21,1.43,3.77,4.37,5.88,6.12,31.55,26.28,93.6,22.83,111.09-18.2l16.82-.7c14.84,36.66,69.1,44.3,100.66,26.68,3.62-2.02,11.7-9.32,14.07-9.93,7.69-1.98,21.61-1.83,30.59-3.41,25.54-4.49,40.79-16.19,38.66-44.32-.24-3.1-2.45-7.05-1.81-9.75.47-1.95,8.38-11.75,10.24-14.84,34.04-56.51,10.25-94.27,4.59-151.44-3.15-31.82-.63-64.04-5.16-95.84-1.85-13.04-5.41-25.68-10.86-37.63,20.35-7.73,12.85-23.09,10.13-38.64-.74-4.2-.67-8.9-1.59-13.41-1.33-6.57-9.23-26.15-8.58-30.44.3-2.02,9.99-6.63,12.89-11.19,12.25-19.26-11.35-30.06-13.63-46.1-.87-6.11,2.45-16.91,2.83-23.7,2.2-38.98-17.5-72.91-19.08-109-.72-16.38,6.25-28.84,8.75-44.33,2.76-17.09,1.57-32.78,2.25-49.75.96-23.87,10.02-64.67-17.28-77.64-40.61-19.3-79.65,35.43-105.7,58.66l-16.98-.49ZM246.41,56.44c0,12.67-10.27,22.95-22.95,22.95s-22.95-10.27-22.95-22.95,10.27-22.95,22.95-22.95,22.95,10.27,22.95,22.95ZM240.7,56.46c0-9.52-7.72-17.23-17.23-17.23s-17.23,7.72-17.23,17.23,7.72,17.23,17.23,17.23,17.23-7.72,17.23-17.23Z"/>
</svg>