<?xml version="1.0" encoding="UTF-8"?>
<svg id="_レイヤー_1" data-name="レイヤー 1" xmlns="http://www.w3.org/2000/svg" width="178.65mm" height="300.52mm" viewBox="0 0 506.42 851.88">
  <defs>
    <style>
      .cls-1 {
        fill: #fff;
      }
    </style>
  </defs>
  <path d="M439.22,308.48c-2.31,2.27,8.74,16.62,10.53,19.98,16.29,30.58,10.56,79.32-16.51,102.53-2.84,2.44-7.86,4.54-10.02,6.98-3.11,3.5-6.28,12.78-10.16,17.84-2.59,3.38-5.94,6.04-8.79,9.17,11.18,13.63,20.11,32.32,21.95,50.02,2.34,22.52,8.08,47.31,16.27,68.73,7.87,20.57,25.19,31.04,25.18,55.25,0,4.72-2.3,11.61-2.13,14.86.04.82,2.66,15.16,2.89,15.94.25.85,5.93,7.67,7.22,9.78,16.3,26.77,25.29,67.62,6.41,95.25-1.7,2.49-7.55,8.01-8.31,9.69-1.22,2.71-1.33,8.8-2.48,12.52-5.53,17.87-20.72,28.17-38.02,32.98-3.65,1.01-8.59.73-11.97,2.03-2.48.95-5.87,4.68-8.75,6.25-26.82,14.62-70.06,19.91-96.97,3.37-3.57-2.2-8.9-8.03-11.09-8.91-7.96-3.17-35.23-5.08-44.69-5.31-13.58-.33-44.7.91-56.98,5.12-3.09,1.06-7.98,6.69-11.9,9.1-25.88,15.91-73.05,11.89-98.2-4.14-2.85-1.82-8.89-7.78-10.5-8.5-3.68-1.65-11.87-2.13-16.96-4.04-11.42-4.27-24.45-13.24-29.19-24.81-2.18-5.3-1.92-12.5-3.33-15.67-.7-1.56-6.66-7.25-8.32-9.68-18.87-27.63-9.89-68.47,6.41-95.25,1.29-2.12,6.97-8.93,7.22-9.78.23-.78,2.84-15.13,2.89-15.94.18-3.31-2.31-10.14-2.31-14.69.02-23.94,17.59-35.08,25.37-55.42,8.19-21.42,13.93-46.22,16.27-68.73,1.84-17.69,10.76-36.39,21.95-50.02-2.85-3.13-6.2-5.79-8.79-9.17-3.88-5.06-7.05-14.34-10.16-17.84-2.17-2.44-7.18-4.54-10.02-6.98-27.04-23.19-32.78-71.99-16.51-102.53,1.79-3.35,12.84-17.7,10.53-19.98-27.21-.82-51.93-26.79-54.04-53.47-.67-8.5,1.81-19.72.96-26.94s-9.04-19.59-11.43-27.59c-8.47-28.38,3.12-61.73,31.15-73.87,9.88-4.28,23.7-6,32.7-11.3,11.09-6.54,23.6-21.46,35.75-29.25,23.42-15.02,40.95-6.82,65.27.17,9.99-5.84,20.22-11.6,30.5-16.33C187.21,25.52,230.52-12.25,273.47,3.74c26.6,9.9,42,38.47,34.9,66.17l30.5,16.33c20.34-5.41,37.54-14.01,58.35-4.25,16.12,7.57,28.83,25.16,42.67,33.33,8.62,5.09,21.87,6.83,31.32,10.68,29.86,12.16,41.69,47.17,31.78,76.74-2.26,6.75-9.39,17.88-10.53,23.47-1.33,6.52,1.54,21.24.76,29.76-2.4,26.14-27.37,51.87-53.99,52.52ZM301.23,74.46c15.29-43.35-28.99-83.74-70.87-63.35-22.85,11.13-34.15,39.44-25.12,63.36-13.56,3.09-24.56,11.67-36.73,17.83-19.36-4.16-37.29-14.69-56.94-4.99-15.51,7.66-29.12,26-42.62,33.38-8.79,4.8-21.34,6.54-30.69,10.31C10.98,141.97-.04,173.24,8.77,200.44c2.16,6.67,9.1,17.22,10.23,22.77,2.27,11.11-1.81,23.93.67,36.33,4.85,24.28,28.4,44.65,53.56,43.94,2.31,10.86-3.3,14.05-7.82,21.69-17.81,30.11-16.21,71.22,7.84,97.78,4.46,4.93,11.38,7.27,14.42,10.58,2.18,2.37,4.65,9.83,6.74,13.26,4.01,6.56,9.02,12.43,15.82,16.21-14.15,18.09-22.72,35.81-24.82,58.98-.88,9.71-1.6,11.03-3.91,20.29-4,16.02-7.33,32.9-13.8,48.2-7.18,16.98-23.57,27.85-23.57,48.52,0,4.87,2.98,11.12,2.78,14.86-.12,2.26-2.15,5.49-2.6,8.23-.48,2.89.4,6.18-.11,8.89-.2,1.1-10.61,14.88-12.5,18.5-11.79,22.54-18.2,55.74-4.65,78.69,2.85,4.83,10.02,10.81,11.65,14.35,1.25,2.72.28,8.25,1.47,12.53,3.06,11.04,15.24,19.52,25.37,23.63,5.84,2.37,15.48,3.21,19.61,5.39,2.39,1.26,6.8,6.02,9.94,8.06,23.9,15.48,66.38,19.58,91.48,5.22,4.6-2.63,10.47-9.08,13.81-10.19,16.81-5.61,94.66-7.48,108.34,1.33,2.63,1.69,5.06,5.14,8.58,7.42,23.1,14.97,59.87,12.17,84.28,1.44,6.07-2.67,14.28-9.82,18.81-11.19,3.82-1.15,8.62-1.07,12.84-2.16,16.13-4.17,29.78-15.8,33.55-32.45.68-3.01-.14-6.62.95-9.05,1.19-2.65,8.79-9.61,11.29-13.71,15.62-25.59,6.22-63.02-8.77-86.83-1.48-2.35-7.44-8.89-7.83-10.17-.84-2.81.22-6.63-.29-9.71-.45-2.74-2.48-5.97-2.6-8.23-.2-3.73,2.78-9.99,2.78-14.86,0-20.67-16.39-31.54-23.57-48.52-6.47-15.3-9.8-32.18-13.8-48.2-2.31-9.26-3.03-10.58-3.91-20.29-2.1-23.17-10.67-40.89-24.82-58.98,6.8-3.79,11.81-9.65,15.82-16.21,2.09-3.42,4.56-10.88,6.74-13.26,3.05-3.31,9.96-5.65,14.42-10.58,20.94-23.12,26.36-64.18,11.55-91.49-5.37-9.9-14.18-15.44-11.53-27.98,25.16.71,48.72-19.66,53.56-43.94,2.47-12.39-1.61-25.25.67-36.33,1.22-5.93,8.02-15.94,10.23-22.77,8.98-27.68-2.47-58.8-30.18-69.73-9.14-3.61-21.38-5.32-29.98-10.02-13.5-7.38-27.11-25.72-42.62-33.38-19.65-9.7-37.59.83-56.94,4.99-12.18-6.17-23.18-14.71-36.73-17.84Z"/>
  <path d="M276.29,56.54c0,12.74-10.32,23.06-23.06,23.06s-23.06-10.32-23.06-23.06,10.32-23.06,23.06-23.06,23.06,10.32,23.06,23.06ZM270.48,56.52c0-9.53-7.73-17.25-17.25-17.25s-17.25,7.73-17.25,17.25,7.73,17.25,17.25,17.25,17.25-7.73,17.25-17.25Z"/>
  <path class="cls-1" d="M89.23,631.49c.74,4.18-7.56,3.69-7.99,1.47-.7-3.58,6.09-2.41,7.99-1.47Z"/>
</svg>