<?xml version="1.0" encoding="UTF-8"?>
<svg id="_レイヤー_1" data-name="レイヤー 1" xmlns="http://www.w3.org/2000/svg" width="204.61mm" height="305.86mm" viewBox="0 0 580 867">
  <path d="M475.99,318c-2.31,2.27,8.74,16.62,10.53,19.98,16.29,30.58,10.56,79.32-16.51,102.53-2.84,2.44-7.86,4.54-10.02,6.98-3.11,3.5-6.28,12.78-10.16,17.84-2.59,3.38-5.94,6.04-8.79,9.17,11.18,13.63,20.11,32.32,21.95,50.02,2.34,22.52,8.08,47.31,16.27,68.73,7.87,20.57,25.19,31.04,25.18,55.25,0,4.72-2.3,11.61-2.13,14.86.04.82,2.66,15.16,2.89,15.94.25.85,5.93,7.67,7.22,9.78,16.3,26.77,25.29,67.62,6.41,95.25-1.7,2.49-7.55,8.01-8.31,9.69-1.22,2.71-1.33,8.8-2.48,12.52-5.53,17.87-20.72,28.17-38.02,32.98-3.65,1.01-8.59.73-11.97,2.03-2.48.95-5.87,4.68-8.75,6.25-26.82,14.62-70.06,19.91-96.97,3.37-3.57-2.2-8.9-8.03-11.09-8.91-7.96-3.17-35.23-5.08-44.69-5.31-13.58-.33-44.7.91-56.98,5.12-3.09,1.06-7.98,6.69-11.9,9.1-25.88,15.91-73.05,11.89-98.2-4.14-2.85-1.82-8.89-7.78-10.5-8.5-3.68-1.65-11.87-2.13-16.96-4.04-11.42-4.27-24.45-13.24-29.19-24.81-2.18-5.3-1.92-12.5-3.33-15.67-.7-1.56-6.66-7.25-8.32-9.68-18.87-27.63-9.89-68.47,6.41-95.25,1.29-2.12,6.97-8.93,7.22-9.78.23-.78,2.84-15.13,2.89-15.94.18-3.31-2.31-10.14-2.31-14.69.02-23.94,17.59-35.08,25.37-55.42,8.19-21.42,13.93-46.22,16.27-68.73,1.84-17.69,10.76-36.39,21.95-50.02-2.85-3.13-6.2-5.79-8.79-9.17-3.88-5.06-7.05-14.34-10.16-17.84-2.17-2.44-7.18-4.54-10.02-6.98-27.04-23.19-32.78-71.99-16.51-102.53,1.79-3.35,12.84-17.7,10.53-19.98-27.21-.82-51.93-26.79-54.04-53.47-.67-8.5,1.81-19.72.96-26.94s-9.04-19.59-11.43-27.59c-8.47-28.38,3.12-61.73,31.15-73.87,9.88-4.28,23.7-6,32.7-11.3,11.09-6.54,23.6-21.46,35.75-29.25,23.42-15.02,40.95-6.82,65.27.17,9.99-5.84,20.22-11.6,30.5-16.33-10.89-44.4,32.42-82.17,75.38-66.17,26.6,9.9,42,38.47,34.9,66.17l30.5,16.33c20.34-5.41,37.54-14.01,58.35-4.25,16.12,7.57,28.83,25.16,42.67,33.33,8.62,5.09,21.87,6.83,31.32,10.68,29.86,12.16,41.69,47.17,31.78,76.74-2.26,6.75-9.39,17.88-10.53,23.47-1.33,6.52,1.54,21.24.76,29.76-2.4,26.14-27.37,51.87-53.99,52.52ZM338,83.97c15.29-43.35-28.99-83.74-70.87-63.35-22.85,11.13-34.15,39.44-25.12,63.36-13.56,3.09-24.56,11.67-36.73,17.83-19.36-4.16-37.29-14.69-56.94-4.99-15.51,7.66-29.12,26-42.62,33.38-8.79,4.8-21.34,6.54-30.69,10.31-27.27,10.97-38.28,42.25-29.47,69.45,2.16,6.67,9.1,17.22,10.23,22.77,2.27,11.11-1.81,23.93.67,36.33,4.85,24.28,28.4,44.65,53.56,43.94,2.31,10.86-3.3,14.05-7.82,21.69-17.81,30.11-16.21,71.22,7.84,97.78,4.46,4.93,11.38,7.27,14.42,10.58,2.18,2.37,4.65,9.83,6.74,13.26,4.01,6.56,9.02,12.43,15.82,16.21-14.15,18.09-22.72,35.81-24.82,58.98-.88,9.71-1.6,11.03-3.91,20.29-4,16.02-7.33,32.9-13.8,48.2-7.18,16.98-23.57,27.85-23.57,48.52,0,4.87,2.98,11.12,2.78,14.86-.12,2.26-2.15,5.49-2.6,8.23-.48,2.89.4,6.18-.11,8.89-.2,1.1-10.61,14.88-12.5,18.5-11.79,22.54-18.2,55.74-4.65,78.69,2.85,4.83,10.02,10.81,11.65,14.35,1.25,2.72.28,8.25,1.47,12.53,3.06,11.04,15.24,19.52,25.37,23.63,5.84,2.37,15.48,3.21,19.61,5.39,2.39,1.26,6.8,6.02,9.94,8.06,23.9,15.48,66.38,19.58,91.48,5.22,4.6-2.63,10.47-9.08,13.81-10.19,16.81-5.61,94.66-7.48,108.34,1.33,2.63,1.69,5.06,5.14,8.58,7.42,23.1,14.97,59.87,12.17,84.28,1.44,6.07-2.67,14.28-9.82,18.81-11.19,3.82-1.15,8.62-1.07,12.84-2.16,16.13-4.17,29.78-15.8,33.55-32.45.68-3.01-.14-6.62.95-9.05,1.19-2.65,8.79-9.61,11.29-13.71,15.62-25.59,6.22-63.02-8.77-86.83-1.48-2.35-7.44-8.89-7.83-10.17-.84-2.81.22-6.63-.29-9.71-.45-2.74-2.48-5.97-2.6-8.23-.2-3.73,2.78-9.99,2.78-14.86,0-20.67-16.39-31.54-23.57-48.52-6.47-15.3-9.8-32.18-13.8-48.2-2.31-9.26-3.03-10.58-3.91-20.29-2.1-23.17-10.67-40.89-24.82-58.98,6.8-3.79,11.81-9.65,15.82-16.21,2.09-3.42,4.56-10.88,6.74-13.26,3.05-3.31,9.96-5.65,14.42-10.58,20.94-23.12,26.36-64.18,11.55-91.49-5.37-9.9-14.18-15.44-11.53-27.98,25.16.71,48.72-19.66,53.56-43.94,2.47-12.39-1.61-25.25.67-36.33,1.22-5.93,8.02-15.94,10.23-22.77,8.98-27.68-2.47-58.8-30.18-69.73-9.14-3.61-21.38-5.32-29.98-10.02-13.5-7.38-27.11-25.72-42.62-33.38-19.65-9.7-37.59.83-56.94,4.99-12.18-6.17-23.18-14.71-36.73-17.84ZM313.06,66.06c0,12.74-10.32,23.06-23.06,23.06s-23.06-10.32-23.06-23.06,10.32-23.06,23.06-23.06,23.06,10.32,23.06,23.06ZM307.25,66.03c0-9.53-7.73-17.25-17.25-17.25s-17.25,7.73-17.25,17.25,7.73,17.25,17.25,17.25,17.25-7.73,17.25-17.25ZM307,593.01c2.03,3.68,6.85,3.8,10,1.47,1.52-1.12,1.82-4.22,3.48-3.47,2.96,1.33,1.54,5.37-1.11,6.87-11.15,6.31-25-8.3-14.31-14.3,12.85-7.22,21.88,13.21,1.93,9.43ZM310.67,585.11c-1.64.14-5.3,2.74-2.71,4.42l6.01-1.03c-1.01-1.07-1.21-3.58-3.3-3.4ZM355.01,598.99l10.98-2.5c.29-2.48-2.36-.19-4.99-.91-14.6-4,.25-21.03,8.02-12.09.77.88,2.09,10.29,2.08,12.02-.06,8.84-10.75,6.6-16.09,3.47ZM360.08,591.93c2.25,1.59,7.49-1.64,5.43-5.91-2.84-5.9-8.48,3.75-5.43,5.91ZM289.13,583.86c.61.95,9.42,1.02,10.69,6.87,1.86,8.57-14.04,10.97-15.62,5.57-.24-.83-1.25-14.82-1.04-15.57.14-.49.44-.91.76-1.31l3.55-1.41c2.44,1.21.93,4.72,1.66,5.85ZM289,588c-1.61,15.46,9.33,3.62,4,.49-1.26-.74-2.65-.51-4-.49ZM333,582c.13,4.11,0,13.55,3.98,15.54l2.51-.54,5.01-9.97c3.52,3.21,1.14,11.65,7.49,10.97.69-10.3-2.92-18.04-13.99-11.99.2-3.75-1.5-4.44-5.01-4.01ZM238.77,582.19c7.79-1.13,11.18,5.27,11.06,12.08-11.37,15.16-29.24-9.44-11.06-12.08ZM242.74,586.25c-10.46-3.13-8.4,15.11,1.8,7.75,1.46-2.34-.73-5.57-1.8-7.75ZM215.13,579.63l-.57,8.43-5.56,2.42c1.35,2.24,4.57,1,6.05,1.95,1.69,1.08-.22,7.84,4.43,6.55,2.88-.8-.47-5.11.93-7.05l7.59-1.45c-.08-4.24-7.02-1.25-8.58-3.42l.58-7.07c3.5,1.15,2.67,7.1,6.98,6.99.64-6.47-6.59-13.25-11.86-7.36ZM252.99,582.53c.5,5.75.48,16.38,8,16.47.69-3.81.46-8.2,4.04-10.55l6.96,1.55c-1.74-6.94-8-4.77-12.98-2.99.27-3.57-2.74-6.34-6.02-4.47ZM329.81,588.69l-.75-1.25-3.06-.44c-2.21,13.05,7.51,17.95,3.81,1.68ZM329.56,578.94l-4.56-.93c.31,2.98,1.16,8.08,4.99,7l-.43-6.07ZM246,345h7v-21l12.16,20.84,7.84.16v-34h-7v20c-2.41.53-1.62-.42-2.23-1.31-2.13-3.09-9.07-17.17-10.77-18.19-1.88-1.13-4.85-.31-7-.51v34ZM210,345h8v-15h12v15h8v-34h-8v14l-11.06-.44-.93-13.57h-8.01v34.01ZM314,311v22.5c0,2.94,3.85,8.95,6.63,10.37,4.68,2.39,13.74,1.79,17.39-2.35.52-.59,2.98-4.73,2.98-5.02v-25.5h-7v23.5c0,6.15-12,5.11-12,1v-24.5h-8ZM379,311v34h22v-6h-14v-9.01s13.01.01,13.01.01v-4.43s-12.07-1.01-12.07-1.01l-.94-7.56h14v-6h-22ZM348,311v6h15c-4.05,9.72-15.92,16.72-15,28h24v-6h-15c4.32-9.42,16.11-17,15-28h-24ZM169.6,312.97c-7.19-3.34-22.37-4.39-22.68,6.52-.37,13.02,16.83,9.54,16.16,16.99-.5,5.56-11.63,2.38-14.55.51-4.38,5.21-.16,7.27,5.06,7.92,7.29.91,17.43-.03,17.43-9.42,0-11.68-16.81-9.95-16.99-14.95-.29-8.12,14.06-1.71,14.95-2.55l.62-5.02ZM199.06,311.44c-14.38-3.45-25.8,4.61-23.8,19.8,1.74,13.19,15.7,16.47,26.74,12.27,2.17-1.79.3-4.33-.02-6.51-25.66,11.75-25.9-29.79,0-18,1.33-4.44,2.28-6.31-2.93-7.56ZM422.5,311c11.56,1.63,14.37,12.06,4.51,18.56l5.99,15.44-7.04-.45c-3.66-14.58-12.95-19.43-10.95.46h-7.01v-34.01c4.56.45,10.09-.62,14.5,0ZM415,317l.93,9.57c12.39,1.95,12.63-12.36-.93-9.57ZM415.93,326.57c12.39,1.95,12.63-12.36-.93-9.57l.93,9.57ZM297.86,311.14l11.14,33.85-7.9-.09-2.04-7.46c-8.09-1.47-11.38-1.43-13,7.12l-8.06.43,11.48-33.01,8.37-.84ZM298,331.99c-1.85-4.31-1.63-10.85-4.98-13.99l-3.01,13.99h7.99ZM293.01,318l-3.01,13.99h7.99c-1.85-4.31-1.63-10.85-4.98-13.99ZM307.97,589.53l6.01-1.03c-1.01-1.07-1.21-3.58-3.3-3.4-1.64.14-5.3,2.74-2.71,4.42ZM365.51,586.02c-2.84-5.9-8.48,3.75-5.43,5.91,2.25,1.59,7.49-1.64,5.43-5.91ZM293.01,588.49c-1.26-.74-2.65-.51-4-.49-1.61,15.46,9.33,3.62,4,.49ZM334.93,545.43c.39-1.72,1.39-10.13.13-10.99h-4.12c-3.36,9.9-9.12,12.37-9.38-.5l-4.56-.94c-1.81,7.2,4.24,15.92,11.99,13.01-.43,4.64-4.88,3.66-7.99,3.01,4.18,6.57,12.3,3.58,13.93-3.58ZM290.63,528.06c-3.25.59-1.89,11.28-1.51,14.32.35,2.79,1.39,8.7,5.42,6.65,1.55-1.68-1.24-7.28,1.97-7.04,3.77.66,3.54,8.96,9.49,7,.25-2.94-3.9-7.43-2.72-9.78.11-.22,3.75-.6.73-3.76l-10.01,2.54c.33-2.4.46-10.63-3.38-9.93ZM258,538.99c-2.61-6.16-10.69.51-11.99-4.48.46-2.2,8.35-1.74,10.28-1.3,7.71,1.74,9.38,16.69,6.22,16.77-3.44-3.22-13.4,1.66-15.34-4.68s6.21-8.36,10.83-6.31ZM259,543.02c-2.52-.69-4.68-3.18-7.4-1.09-3.85,2.96,6.09,6.41,7.4,1.09ZM339.29,536.28c4.48-5.44,15.05-4.33,17.23,3.69,4.72,17.3-26.84,7.97-17.23-3.69ZM351.91,544.9c.27-3.51-1.15-10.16-5.61-8.16-7.39,3.32-1.97,12.77,5.61,8.16ZM281.31,535.19c-2.83-.87-6.55-.21-8.81,1.79l-3.01-4.97c-4.03-1.03-2.59,12.86-.98,14.99.81,1.07,3.2,1.32,4.48,2.01.31-1.67,3.29-13.02,6.01-11,6.16,25.29,10.12-.4,2.32-2.81ZM361.51,533.01c-5.84,8.17,6.06,22.29,12.99,12.01,2.01,2.74,4.12,3.44,7.5,2.97-3.31-3.71-5.4-7.82-5-12.99l-5.52.98-2.49,9.02c-5.33-1.13-2.14-13.68-7.48-11.99ZM227,546.5c0,.34,2.52,2.27,3,3.03,4.01,1.75,2.49-11.59,4.51-11.54,4.79.11,2.82,12.35,8.48,12.01,2.42-4.34-1.72-14.43-6.55-15.04-1.54-.19-3.82,1.1-4.47.61-1.97-1.48.52-7.82-4.97-6.57v17.5ZM198.01,531.49c2.61,3.83,7.01,2.28,11,2.5-.21,3.6-.02,15.72,5.49,15.01l-.49-16.01c1.39-1.36,10.28,3.93,9.99-1.99-1.09-1.51-22.78-1.78-25.99.48ZM251.6,541.93c-3.85,2.96,6.09,6.41,7.4,1.09-2.52-.69-4.68-3.18-7.4-1.09ZM346.3,536.74c-7.39,3.32-1.97,12.77,5.61,8.16.27-3.51-1.15-10.16-5.61-8.16ZM244.54,594.01c1.46-2.34-.73-5.57-1.8-7.75-10.46-3.13-8.4,15.11,1.8,7.75ZM147.53,631.96l-4.37.2c-.99,4.64-1.3,9.2,2.28,12.89,4.41,4.53,6.76.15,9.04.32.86.06,2.05,1.76,4.02,1.75,2.54,0,4.74-3.18,8.5-1.13l-1.08-11.91-5.81.03c-.2,2.81.04,6.5-3.1,7.88l-1.01-9.01-4.06.44-1.94,9.57c-4.78-2.18-.87-8.3-2.46-11.04ZM232,649c-2.06.71-4.14-1.66-5.5-1.65-2.23.03-2.38,2.48-7.22.89-11.27-3.69-4.21-18.26,6.71-14.24v-6.99c3.86-1.21,6.01,4.85,6.01,7.5v14.5ZM224.68,643.69c.59-.69.97-1.45,1.14-2.35-.05-2.45-4.16-5.86-6.4-3.43-2.55,2.11-1.31,5.51.55,7.66,1.2.87,4.06-1.13,4.7-1.88ZM458.99,649c-2.19,1.01-4.51-1.58-5.51-1.63-2.75-.14-5.03,3.88-10.54-.81-8.07-6.87,2.16-15.45,10.05-12.56l-.99-6.99c9.91-.77,4.48,15.28,6.99,21.99ZM447.69,637.1c-3.63.9-3.7,7.34-.07,8.85l5.3-4.59c-.36-2.1-3.08-4.8-5.23-4.26ZM251.91,640.9c-4.31,1.84-7.32,2.46-11.91,1.11,3.8,5.29,10.83,3.49,13.5-1.99,7.5,8.26-9.67,10.23-15.45,5.44-13.12-10.88,14.74-23.15,13.86-4.55ZM245.95,634.04c-1.77-.46-6.4,1.3-5.94,3.45,1.69,2.3,4.63,1.44,6.99,1.51l-1.05-4.96ZM411.87,640.88c-3.91,1.81-6.67,2.14-10.87,1.62,3.71,4.78,10.37,2.65,12.49-2.49l2.54,3.5c-3.97,9.21-22.55,4.08-21.01-5.92,1.39-9.05,19.8-8.12,16.85,3.3ZM407,639c1.4-9.98-11.9-1.4-4.49,0,1.4.26,3.04-.07,4.49,0ZM130.99,648c-2.68,1.29-3.22-2.03-3.44-2-.83.11-2.11,1.46-4.01,1.5-13.98.32-11.72-12.06,1.46-11-2.11-3.92-14.59.95-10.55-4.56,1.07-1.46,5.14-1.09,6.97-.85,8.54,1.12,10.86,9.45,9.58,16.9ZM126,641.01c-1.9-.93-8.69-2.11-7.99,1.47.43,2.22,8.73,2.7,7.99-1.47ZM286.01,638h-5.01s0,2.99,0,2.99l5.96.05c.43,3.28-.05,6.77,3.55,7.93,2.54-1.91,1.25-5.27,1.5-7.97l8-1.02c.81-4.38-8.45-2.45-9.01-2.98v-7c4.33-.06,2.9,7.16,8,5.99-1.4-13.25-15.7-12.45-12.99,2.01ZM192,630.99c-.65,3.01.41,19.55,6.06,15.57,2.09-3.47,1.75-8.6,5.93-10.56l2.94,10.4,3.12.15c2.78-9.45-3.7-18.67-13.04-10.55l-1.16-4.85-3.85-.15ZM419.13,631.13c-1.59.95-.56,17.98,5.85,15.86,1.18-4.02,1.79-8.97,6.01-10.99l2.93,10.4,3.12.15c2.51-8.84-4.3-19.02-13.03-10.55l-1.13-4.87h-3.75ZM303.16,632.15c-2.94,5.73,2.38,15.91,9.29,14.88,2.31-.34,3.24-3.18,4.87-2.92,1.41.23,3.98,3.92,6.68,2.88l-5-14c-5.92-.95-5.44,3.71-6.73,7.79-.29.91.07,3.09-1.75,2.2-2.32-1.13-3.87-8.42-3.53-10.99l-3.83.15ZM350.66,626.96c-2.26.55-1.22,8.13-2.1,10.1l-5.56,2.42c1.35,2.25,4.58,1,6.05,1.95,1.16.75.97,7.6,3.44,7.54,3.35-.08.97-7.46,1.49-7.98,2.44.85,11.7-1.26,6.77-3.26-2.75-1.12-11.46-.24-7.28-6.76.61-.96,1.42-1.16,2.5-.98.03,1.65,2.61,8.37,5.01,5.99s-3.36-10.72-10.33-9.03ZM175.71,632.21c15.86-3.64,18.28,18.89,2.03,15.56-8.92-1.83-11.02-13.5-2.03-15.56ZM181.85,635.17c-5.83-2.34-9.65,5.54-5.26,8.76,2.44,1.62,4.92,1.04,6.95-.92,1.52-2.45-.9-5.47-1.69-7.84ZM260.79,644.71c.92,1.87,2.29,3.67,4.68,3.29l3.68-9.83c2.69-1.32,5.01.96,6.81,1.4,3.95.95,1.23-4.74-3.7-5.37-2.52-.32-4.31,1.47-6.66,1.69l-2.71-4.75c-7.32-2.78-3.76,10.23-2.1,13.58ZM365.01,631c.43,4.95.32,16.37,6.54,16.97,2.18.21,1.1-.16,1.55-1.37.94-2.53,1.32-9.52,5.4-9.26.81.05,4.95,4.38,5.5,1.14.79-4.62-10.66-5.14-12.98-1.49-.14-4.08-1.56-6.76-6.01-6ZM327,645.5c0,1.12,4.58,4.57,5.03.02-2.25-4.05.81-16.38-3.03-18.03l-2,1.01v17ZM391.84,637.66l-.79-1.21-3.05-.44c.38,4.16-1.98,11.35,3.99,11.99l-.15-10.34ZM391.56,627.94l-4.56-.93c-.22,3.42.78,7.7,4.99,6.99l-.43-6.06ZM225.82,641.34c-.05-2.45-4.16-5.86-6.4-3.43-2.55,2.11-1.31,5.51.55,7.66,1.2.87,4.06-1.13,4.7-1.88.59-.69.97-1.45,1.14-2.35ZM447.62,645.95l5.3-4.59c-.36-2.1-3.08-4.8-5.23-4.26-3.63.9-3.7,7.34-.07,8.85ZM240.01,637.49c1.69,2.3,4.63,1.44,6.99,1.51l-1.05-4.96c-1.77-.46-6.4,1.3-5.94,3.45ZM402.52,638.99c1.4.26,3.04-.07,4.49,0,1.4-9.98-11.9-1.4-4.49,0ZM118.01,642.48c.43,2.22,8.73,2.7,7.99-1.47-1.9-.93-8.69-2.11-7.99,1.47ZM176.59,643.92c2.44,1.62,4.92,1.04,6.95-.92,1.52-2.45-.9-5.47-1.69-7.84-5.83-2.34-9.65,5.54-5.26,8.76ZM333,720c4.91-.08,18.97-1.52,16.6,7.01-.85,3.05-3.49,2.91-4.59,4.97,5.55.32,7.31,6.49,4.02,10.55s-11.28,1.98-16.03,2.47v-25ZM344.77,724.24l-6.77-1.24v7.01s6.01-.49,6.01-.49c1.62-1.49,2.14-3.44.76-5.27ZM338,742c5.09.45,9.77-1.2,7.56-7.07l-7.56-1.93v9ZM254,745h4c-2.36-19.41,10.85-20.6,8.01,0h3.99c.37-9.55,1.62-23.36-11.99-16v-10s-4.01,0-4.01,0v26ZM308,738h-13c.73,1.89,1.9,3.97,3.97,4.61,3.49,1.06,8.06-3.43,7.03,2.39-6.62.93-14.19.7-14.96-7.62-1.34-14.54,19.28-13.84,16.95.63ZM304,734.99c.63-4.14-3.55-6.22-7-4.5l-1.98,3.03c-.79,2.96,7.9.89,8.98,1.47ZM328,738h-12c-.25,2.27-.2,2.62,1.7,3.8,3.7,2.31,6.58-1.21,9.28,1.7-.1,2.01-13.66,4.89-15.58-5.47-2.58-13.98,19.48-15.32,16.6-.02ZM324,735c1.54-7.72-9.47-6.11-7.5.01h7.5ZM229,720v3s6.35.16,6.35.16l1.65,1.34v20.5h4v-20.5l1.65-1.34,6.35-.16v-3h-20.01ZM275,745h4c-.6-8.17.13-13.89,9.02-15.5l-.52-2.51-7.98,3.02-.6-2.88-3.91-.13v18ZM345.56,734.93l-7.56-1.93v9c5.09.45,9.76-1.2,7.56-7.07ZM338,723v7.01s6.01-.49,6.01-.49c1.62-1.49,2.14-3.44.76-5.27l-6.77-1.24ZM296.99,730.49l-1.98,3.03c-.79,2.96,7.9.89,8.98,1.47.63-4.14-3.55-6.22-7-4.5ZM316.51,735.01h7.5c1.54-7.73-9.47-6.12-7.5,0ZM217.51,254.02c-5.63,1.37-4.03,14.35.46,15.59,4.18,1.15,4.46-7.96,6.05-10.61,2.64-.26,1.62-.05,1.97,1.49.93,4.14-.05,8.42,6.01,7.51-.2-3.02.1-5.94,2.52-8l3.43,8.55c7.34,2.37,2.85-11.29-.64-12.37-4.12-1.27-5.95,1.58-6.82,1.58-.75,0-2.28-3.62-6.98-2.82-3.12.53-1.36,3.71-4.48,3.05l-1.51-3.98ZM289.85,250.15c2.18,1.32,3.05,18.65,1.68,20.88-1.48,2.42-3.18-.89-4.84-.84-1.42.04-3,1.61-5.03,1.53-12.87-.48-8.32-19.78,4.33-14.72v-7s3.86.16,3.86.16ZM284.75,266.75c5.19-4.98-8.87-13.59-5.71,1.2.63.57,4.8-.34,5.71-1.2ZM301,265.01c2.59,4.08,6.68,3.65,10.24,1,1.87-1.39,1.29-4.58,4.81-1.34.43,8-14.76,8.67-19.6,1.39-6.6-9.93,9.11-15.87,14.02-9.04,5.46,7.59-3.52,8.96-9.47,7.99ZM307,261.99c.78-6.17-3.38-6.12-6.99-2.48-1.13,2.36,5.81,2.72,6.99,2.48ZM252.57,267.99c1.51.05,3.44-1.68,4.43-.5-1.73,4.87-5.3,2.55-8.99,3,11.38,9.38,17.46-3.8,14.56-14.55l-4.47-.84c-.69,2.55-2.54,9.97-6.46,8.84-3.29-2.28-2.66-6.51-2.63-9.94-10.11-1.19-2.93,13.78,3.57,14ZM330,259.99c-2.81-5.88-11.45,1.24-12-4.98,7.66-2.47,15.03-1.44,17.31,7.17.76,2.88,1.78,6.7-.81,8.8-2.02-3.12-4.32-.81-7-.9-13.91-.47-9.28-12.56,2.49-10.09ZM331,264.01c-1.09-1.18-8.91-2.17-7.99,1.97,1.57,1.67,10.4.62,7.99-1.97ZM339.01,254c-.31,3.71,1.43,16.06,5.58,16.95,3.76.81,2.4-8.83,6.45-10.5l6.96,1.55c-1.74-6.94-8-4.77-12.98-2.99.1-3.9-2.24-5.53-6.01-5ZM362.5,264.02l2.52-.6c-1-3.28,1.79-11.05-.24-13.17-5.39-5.61-4.43,13.08-2.27,13.77ZM390.99,251c-1.5.23-1.87,1.89-2.51,2.98-2.88,4.86-8.16,14.86-10.02,19.99-.34.94-1.32,3.25.53,3.03l12-25.99ZM279.05,267.96c.63.57,4.8-.34,5.71-1.2,5.19-4.98-8.87-13.59-5.71,1.2ZM300.01,259.51c-1.13,2.36,5.81,2.72,6.99,2.48.78-6.17-3.38-6.12-6.99-2.48ZM323,265.99c1.57,1.67,10.4.62,7.99-1.97-1.09-1.18-8.91-2.17-7.99,1.97Z"/>
</svg>