<?xml version="1.0" encoding="UTF-8"?>
<svg id="_レイヤー_1" data-name="レイヤー 1" xmlns="http://www.w3.org/2000/svg" width="204.61mm" height="305.86mm" viewBox="0 0 580 867">
  <path d="M458.1,133.9c23.37-1.94,37.83,19.63,25.7,40.4-1.17,2-5.43,6.56-5.66,7.42-.7,2.61,1.91,8.05,1.78,11.63-.18,5.24-2.9,10.78-5.6,15.14,8.98,12.33,20.97,20.8,18.59,37.92-.52,3.75-3.25,6.69-3.76,9.34-.62,3.24,7.29,13.3,9.37,17.22,2.98,5.61,9.33,17.94,10.24,23.76,1.96,12.47-3.4,22.46-9.59,32.77,2.69,4.13,7.37,5.95,10.84,8.98,4.37,3.82,6.45,9.53,12.99,9.52l-2,4.97c13.35,7.9,13.03,28.99,1.02,38.54-5.51,4.38-17.16,13.85-23.22,15.78-3.01.96-6.64,1.4-9.8,1.71,12.38,18.93,22.6,37.03,22.04,60.54-.12,5.1-2.5,13.3-2.12,17.96.56,6.95,9.99,10.76,8,24.91-.39,2.77-2.72,5.96-2.66,7.91.14,3.95,3.86,13.94,4.61,19.31,1.51,10.75,3.27,29.29,2.02,39.75-.47,3.96-3.94,9.31-3.7,11.86,1.1,11.86,12.16,30.7,15.53,43.54,6.28,23.91,6.98,80.53-2.23,103.2-5.03,12.37-12.54,19.29-19.32,29.68-7.26,11.13-7.15,17.49-10.65,29.35-10.34,35.06-40.52,35.75-71.85,39.15-11.8,14.24-31.63,23.51-50.12,24.88-33.06,2.45-67.85-6.15-83.21-38.08l-11.17.2c-9.64,22.86-35.69,36.15-59.62,37.88-27.05,1.95-55.26-3.15-73.2-24.88-18.38-2.68-40.61-2.31-55.82-14.18-19.31-15.07-14.33-35.26-26.7-54.3-6.61-10.17-13.98-16.99-19-29-9.79-23.4-8.88-81.57-1.84-106.2,2.87-10.05,15.02-33.71,14.92-42-.02-2.08-3.33-7.22-3.79-11.09-1.26-10.59.55-28.86,2.02-39.75.74-5.46,3.78-13.37,3.9-18.18s-3.32-9.48-3.07-14.91c.31-6.9,4.54-10.78,5.95-16.13,2.41-9.22.37-21.14,1.22-30.78,1.67-19.02,12.29-36.34,22.87-51.62-7.77.46-15.05-1.48-21.01-6.5-5.17-4.35-8.25-6.51-13.47-10.53-14.14-10.9-17.56-29.69-2.44-41.39,2.98-2.31,6.7-3.46,9.41-5.59,5.28-4.15,11.13-10.01,16.33-14.49-2.81-5.08-8.26-14.02-9.38-19.45-3.61-17.44,10.35-37.76,19.41-51.78.83-3.01-3.22-7.93-3.77-11.86-2.41-17.35,9.42-25.52,18.59-37.92-2.7-4.36-5.42-9.9-5.6-15.14-.13-3.58,2.48-9.02,1.78-11.63-.23-.86-4.49-5.42-5.66-7.42-12.05-20.64,2.36-42.44,25.7-40.4,1.12-5.57,2.2-11.2,3.83-16.66,6.53-21.8,22.94-76.07,36.29-91.71,25.89-30.3,64.9-13.3,84.47,14.45,22.61-25.18,64.38-25.19,87,0,15.39-19.29,32.6-32.94,58.89-29.87,9.42,1.1,19.01,7.92,25.12,14.88,13.58,15.49,30.2,70.38,36.75,92.25,1.64,5.46,2.71,11.09,3.83,16.66ZM477,403h15.5c9.02,0,12.51-7.21,17.57-11.43,2.87-2.39,6.79-2.69,9.97-6.03,5.76-6.06,6.92-16.4,2.41-23.5-1.73-2.72-7.36-5.95-8.01-7.06-.71-1.21.83-2.76.1-3.97-.29-.49-6.98-7.01-8.07-7.99-4.43-4.01-10.88-7.12-14.37-12.73-.56-2.12,4.27-6.26,5.64-9.05,1.09-2.21,3.66-8.21,4.48-10.52,3.13-8.79.53-14.59-2.76-22.69-4.35-10.73-11.06-21.72-18.39-30.68,15.95-19.13-2.61-34.98-15.06-48.85,4.86-4.32,8.28-10.26,8.01-16.95-.13-3.2-3.31-9.25-2.9-10.84s4.92-4.84,6.31-6.77c13.63-18.96-2.39-39.88-24.43-32.93-1.67-21.28-11.12-40.64-18.04-60.47-7.76-22.23-13.5-57.56-40.92-64.09-20.26-4.82-37.59,6.01-50.56,20.54-1.91,2.13-7.93,12.02-9.98,12.02-17.86-25.22-54.08-29.3-77.99-9.99l-10.01,9.97c-13.11-19.79-33.87-38.65-59.56-32.54-27.42,6.52-33.15,41.85-40.92,64.09-6.92,19.83-16.37,39.19-18.04,60.47-21.99-7.05-37.97,14.1-24.43,32.93,1.39,1.93,5.9,5.19,6.31,6.77s-2.78,7.64-2.9,10.84c-.27,6.69,3.15,12.63,8.01,16.95-12.34,13.96-31.53,29.89-15.06,48.85-7.32,8.97-14.04,19.95-18.39,30.68-3.29,8.11-5.89,13.9-2.76,22.69.82,2.31,3.39,8.31,4.48,10.52,1.37,2.8,6.19,6.94,5.64,9.05-4.13,5.79-10.05,9.34-15.42,13.67-1.76,1.42-2.74,3.86-3.78,4.72-2.89,2.36-7.61,3.08-11.22,6.28-10.9,9.66-7.09,23.51,3.62,31.44,2.76,2.04,6.55,3.05,8.44,4.56,2.03,1.61,3.45,5.37,6.53,7.47,7.13,4.84,16.8,4.33,24.95,4.08.17,5.84-4.3,8.28-6.84,12.16-8.89,13.54-17.4,28.39-19.15,44.85-1.03,9.64.35,22.77-1.08,31.92-.75,4.78-5.43,7.93-5.95,14.07-.57,6.81,3.06,9.9,3.1,14.98.04,6.11-4.13,17.84-4.96,25.14-1.56,13.69-3.57,32.48,3.43,44.45-4.48,17.68-14.91,34.97-18.29,52.69-4.18,21.93-4.61,72.43,3.55,92.91,4.74,11.89,11.98,18.46,18.61,28.39,8.58,12.85,7.81,18.45,11.86,32.14,4.46,15.07,14.01,24.45,29.28,28.72,8.26,2.31,37.71,4.27,41.49,7.51,1.55,1.33,2.29,3.7,3.9,5.1,30.78,26.77,92.95,24.97,116.23-10.84,1.05-1.62,3.43-8.03,4.04-8.47,2.21-1.59,17.76-1.67,19.58-.04,8,22.1,31.32,34.07,53.7,36.8,23.28,2.84,47.77-1.51,65.98-17,1.98-1.68,2.78-4.13,4.44-5.56,3.73-3.2,26.46-4.43,33.27-5.73,18.66-3.55,31.4-10.87,37.3-29.7,4.25-13.55,3.51-20.04,12.06-32.94,6.59-9.95,13.86-16.46,18.61-28.39,8.77-22.03,7.95-78.71,1.32-101.68-4.29-14.85-12.19-28.85-16.05-43.93,7-11.97,4.99-30.76,3.43-44.45-.79-6.92-5.71-21.49-5.62-26.32.03-1.62,2.08-3.73,2.52-6.04.85-4.5.43-10.63-1.92-14.62-1.52-2.59-5.28-4.28-5.83-7.18-.89-4.63,1.85-15.5,2.03-20.93.86-27-12.55-46.93-28.04-67.54ZM314.33,76.15c0,13.44-10.89,24.33-24.33,24.33s-24.33-10.89-24.33-24.33,10.89-24.33,24.33-24.33,24.33,10.89,24.33,24.33ZM308.55,76.22c0-10.25-8.31-18.55-18.55-18.55s-18.55,8.31-18.55,18.55,8.31,18.55,18.55,18.55,18.55-8.31,18.55-18.55ZM210.01,263.5c-.71,3.93-.71,12.8,3.95,14.11,4.91,1.39,3.51-9.81,7.55-11.61,1.47,4.21-.15,11.32,6.49,10-.04-3.33.73-6.86,3.51-8.98l2.99,8.99c7.88,4.57,3.56-11.67-.18-12.83-4.21-1.31-6.49,1.93-7.67,1.72-1.51-.27-2.09-3.77-7.09-2.91-3.34.57-2.29,3.03-4.54,4,1.33-4.56-4.09-7.54-5-2.49ZM292,280c-2.06.71-4.14-1.67-5.5-1.65-2.6.03-2.43,2.48-8.04.68-11.94-3.83-3.67-19.49,7.53-15.03-3.6-11.6,6.01-8.58,6.01-1.5v17.5ZM280.69,267.1c-4.27,1.06-4.21,12.27,2.86,7.95,5.07-3.1.38-8.76-2.86-7.95ZM317.75,520.25c.23.22,2.72,5.24,2.85,5.74,1.39,5.31-9.33,5.2-12.6,4.5,6.48,7.33,9.77-.07,15.99-1.49,1.3,9.97-13.29,9.63-18.89,4.39-10.41-9.74,6.86-18.73,12.65-13.14ZM315,527c.8-10.74-11.84-1.38-4.49,0,1.4.26,3.04-.07,4.49,0ZM302,273.01c2.22,4.07,6.97,3.33,10.26,1.01,1.21-.85,1.36-3.41,3.22-3.02,2.44.51,1.92,4.74-.54,6.44-11.79,8.11-27.83-9.08-15.89-14.89,13.86-6.76,22.57,13.3,2.95,10.46ZM306.95,264.03c-9,.33-6.53,7.43,1.04,4.95l-1.04-4.95ZM249.62,271.94c-3.96-.65-1.79-8.16-3.06-10-2.41-3.51-5.66-.33-5.12,4.11.76,6.18,7.36,11.67,13.56,8.96-.44,1.05-2.15,3.14-3.04,3.53-2.66,1.18-6.6-2.68-5.95,1.44,14.5,6.72,16.22-6.51,15-17.99l-4.87.14c-.47,2.39-3.48,10.3-6.52,9.81ZM288.87,515.15l.23,5.77c5.58.35,14.46,5.09,10.79,11.46-2.09,3.62-12.46,6.02-14.94,3.18s-4.96-25.68,3.92-20.41ZM289,525c.29,2.97-1.14,6.82,1.49,8.98,6.11-2.87,6.12-9.51-1.49-8.98ZM373.74,520.25c.96,1.02,2.17,10.2,2.28,12.28.54,9.71-10.98,7.65-17.01,4.45l11.99-2c.62-3.43-4.63-1.41-7.74-2.74-11.67-4.97,2.14-20.86,10.48-11.99ZM366.69,521.1c-3.39.83-3.7,8.13-1.16,8.88,3.47.43,4.58-3.07,5.26-5.69l-1.22-2.37-2.89-.83ZM332,266.99c-1.25-4.07-11.3-.2-11.99-3.51-.88-4.19,11.79-2.85,14.94.07,2.56,2.37,6.24,14.86,2.53,15.45-4.09-3.22-12.06,1.43-15.54-3.43-4.5-6.28,4.76-9.94,10.07-8.59ZM332.99,273.99c-.42-4.69-4.57-4.48-7.94-2.92-1.33,4.4,4.66,4.02,7.94,2.92ZM216.5,517.02c2.04,0,3.62,10.56,7.5,5.46-4.25-13.4-16.4-11.21-14,3.53h-6c-.59,4.21,5.88,3.36,6.82,4.16,1.01.86.44,9.24,5.18,6.32v-7.5s8.99-1.01,8.99-1.01c-1.73-4.22-6.27-2.88-10-2.98.2-2.71-.98-6.06,1.5-7.98ZM336.94,518.44c-2.43,1.78-1.31,18.02,5.08,17.09.93-.71,4.2-14.09,6.97-11.53,5.49,27.35,10.91-.22,2.32-2.8-4.14-1.25-6.72.43-10.3,1.8l-1.02-4.99-3.04.44ZM234.74,519.23c4.46-.78,7.38-.32,10.11,3.42,10.09,13.84-9.94,18.37-16.07,9.07-3.76-5.7-.38-11.39,5.96-12.5ZM233.25,531.76c3.08,3.06,9.81,1.57,8.36-4.8-2.34-10.28-13.81-.61-8.36,4.8ZM342,261c-.16,3.9,1.46,19.61,7.47,18l3.94-10.08c3.45-2.72,5.15,1.29,8.08,1.09,1.36-7.54-9.3-6.1-13.48-3.01l-1.15-5.86-4.86-.14ZM251.1,519.1c-.08,5.62.32,19.82,8.79,16.78-.22-3.4.67-11.39,5.43-10.66,1.96.3,4.69,5.23,5.67.29-4.16-5.41-8.65-3.18-13.99-1.51l-1.24-4.79-4.66-.11ZM366.51,256.01c-3.53,1.81-1.11,18.6,2.48,15.99,1.37-2.89,2.45-17.02-2.48-15.99ZM327.99,524.59c-1.69,16.82,8.82,15.51,3.87-.44l-3.87.44ZM396.99,258c-1.5.23-1.87,1.89-2.51,2.98-2.88,4.86-8.16,14.86-10.02,19.99-.34.94-1.32,3.25.53,3.03l12-25.99ZM328.51,514.01c-3.45.97.89,9.85,4.48,7.98-.3-2.34-.53-9.09-4.48-7.98ZM202,316v36h9v-15h11v15h9v-36h-9v14h-11v-14h-9ZM388,316v36h9v-16c2.41-.53,1.62.42,2.23,1.31,3.07,4.45,5.35,9.78,7.93,14.53l10.85-.35-10.82-18.17,10.81-17.31-11.01.47c-2.91,4.13-4.89,9.07-7.75,13.21-.61.89.18,1.84-2.23,1.31v-15h-9ZM323,316v36h24v-7h-14v-8.01s13.01.01,13.01.01v-6.43s-13.01-.57-13.01-.57v-6.01h14.01v-8h-24ZM158.93,318.62c-23.45-11.69-39.78,13.9-9.93,20.87l1.06,3c-.47,4.93-11.8,2.03-14.57-.46-8.64,10.78,10.53,11.78,17.52,9.48,5.99-1.97,8.62-8.39,6.22-14.26-3.05-7.46-17.76-5.91-16.3-12.66.69-3.21,12.66-.58,15.06.41l.94-6.39ZM424,316v36h23v-7.01s-12.36-.13-12.36-.13c-1.59-.47-1.64-1.84-1.73-3.35-.06-.96.02-1.93.22-2.87l1.5-1.5,11.37-.13v-7.01s-13.01.01-13.01.01v-6.01h14.01v-8h-23ZM194.58,318.96c-13.66-7.56-30.7-1.63-30.65,15.54s17.79,21.49,31.08,15.49l-2.01-6.99c-26.08,11.19-25.01-30.24,0-17l1.59-7.04ZM240,316v36h10v-36h-10ZM369.5,316c12.97,1.58,15.67,12.44,5.67,20.49l6.83,15.5-9.9-.1c-2.38-14.73-11.04-19.54-9.09.11h-9.01v-36.01c4.94.43,10.68-.59,15.5,0ZM370.75,324.24c-1.57-1.55-5.63-1.22-7.76-1.25-3.16,18.4,13.56,6.97,7.76,1.25ZM363,323c-3.16,18.4,13.56,6.97,7.76,1.25-1.57-1.55-5.63-1.22-7.76-1.25ZM272.5,316c21.54,2.51,15.08,27.65-4.51,25v11.01s-9.99,0-9.99,0v-36c4.64.38,9.96-.53,14.5,0ZM268,334c12.18.92,12.16-11.94,0-11.01v11.01ZM268,323v11.01c12.18.92,12.16-11.94,0-11.01ZM291,316c10.65.53,27.12-2.55,27.08,12.5-.03,10.42-9.23,12.63-18.09,12.5v11.01s-8.99,0-8.99,0v-36ZM300,334c7.18.9,11.53-2.28,8.03-9.53l-8.03-1.48v11.01ZM308.02,324.47l-8.03-1.48v11.01c7.18.9,11.53-2.28,8.03-9.53ZM283.56,275.05c5.07-3.1.38-8.76-2.86-7.95-4.27,1.06-4.21,12.27,2.86,7.95ZM310.51,526.99c1.4.26,3.04-.07,4.49,0,.8-10.74-11.84-1.38-4.49,0ZM344.85,614.15c3.22,1.96,1.26,18.87,3.14,22.84-5.49-1.57-17.6,2.61-19.79-4.7-2.48-8.28,5.66-13.17,12.78-10.29v-8s3.86.16,3.86.16ZM334.24,625.25c-4.34,8.61,2.41,12.36,6.8,4.25l-4.02-5.02-2.78.76ZM297.87,628.88c-4.15,1.65-7.47,2.94-11.86,1.13-.38,2.23.17,1.99,1.94,2.49,5.43,1.55,8.79.34,11.55-4.48,5.74,4.05-.21,8.36-5.11,8.91-5.33.6-13.61-2.6-14.37-8.52-1.62-12.65,20.23-13.21,17.85.47ZM291.89,622.09c-1.95-1.22-8.33,1.89-6.89,3.9,2.19.36,4.85,1.95,7.04.55,1.49-.95.26-4.19-.15-4.44ZM305.17,619.66c-1.2,3.83-.08,17.59,6.79,15.31-.37-1.8,3.54-12.87,6.03-10.96,4.01,23.88,11.85,4.84,3.55-2.04-5.31-4.4-10.66,1.98-11.53,1.03,1.39-4.02-3.58-7.36-4.84-3.34ZM232.14,614.14l-1.58,10.92-5.56.94c-.73,4.31,6.06,3.05,6.53,3.9.38,3.82.7,10.37,5.35,5.43l-.88-6.33,8.99-1.02-1.66-2.82-7.44-.76.11-7.4c3.74-.76,3.62,6.55,5.51,6.99,4.67-.13,1.06-7.19-.8-8.7-2.05-1.67-6.03-1.51-8.58-1.15ZM248.14,619.14c-1.29,2.01,1.89,21.58,8.73,16.71l2.82-9.94c3.83-2.61,7.08,4.15,8.3.57.78-2.27-.03-1.97-1.25-2.75-4.96-3.16-7.75-1.07-12.73.27.34-4.27-1.6-7.28-5.87-4.86ZM276.86,625.64l-4.85-1.65c.08,4.4-1.4,12.44,4.99,12l-.14-10.35ZM272.51,614.01c-3.45.96.89,9.86,4.48,7.99.13-2.5-.64-9.05-4.48-7.99ZM341.04,629.5l-4.02-5.02-2.78.76c-4.34,8.61,2.41,12.36,6.8,4.25ZM285,625.99c2.19.36,4.85,1.95,7.04.55,1.49-.95.26-4.19-.15-4.44-1.95-1.22-8.33,1.89-6.89,3.9ZM307.99,268.98l-1.04-4.95c-9,.33-6.53,7.43,1.04,4.95ZM290.49,533.98c6.11-2.87,6.12-9.51-1.49-8.98.29,2.97-1.14,6.82,1.49,8.98ZM365.53,529.99c3.47.43,4.58-3.07,5.26-5.69l-1.22-2.37-2.89-.83c-3.39.83-3.7,8.13-1.16,8.88ZM325.05,271.07c-1.33,4.4,4.66,4.02,7.94,2.92-.42-4.69-4.57-4.48-7.94-2.92ZM241.6,526.95c-2.34-10.28-13.81-.61-8.36,4.8,3.08,3.06,9.81,1.57,8.36-4.8ZM332,711c9.17-1.47,26.4,3.12,13,12.5,14.99,11.03-1.09,16.78-13,14.5v-27ZM344.86,716.13l-7.87-1.13v7.01s7.07-.44,7.07-.44l.8-5.44ZM337,735c12.36,1.51,12.38-10.51,0-9.01v9.01ZM248,738h4c-2.2-20.33,11.97-21.99,9.01,0h4v-14.5c0-.24-1.97-3.24-2.42-3.57-4.29-3.1-9.83,1.88-10.57,1.06v-10s-4.01,0-4.01,0v27ZM222,711v4s8,0,8,0v23h5v-23h8s0-4,0-4h-21ZM327,730h-13c-.58,2.54,1.71,4.99,3.98,5.6,3.22.86,9.2-3.11,6.35,2.42-6.95,2.35-14.36.45-15.26-7.63-1.67-14.9,20.14-15.78,17.93-.39ZM316.7,722.17c-1.44.44-4.64,4.29-2.73,5.36,1.8.85,8.61,1.08,9.03-1.06l-1.99-3.98c-1.27-.77-2.94-.74-4.32-.32ZM292,730c-.67,3.12,2.75,5.8,5.55,5.97,3.31.2,7.4-3.59,6.46,2.03-9.73,2.37-17.37-.27-16.02-11.52,1.48-12.37,20.1-8.74,18.02,3.53h-14ZM293.26,723.26c-5.77,5.51,8.57,6.15,8.71,3.25-1.26-3.54-5.38-6.43-8.71-3.25ZM271,738h4c.06-4.65-1.09-11.09,3.45-14.05,2.3-1.5,6.13-.31,5.56-4.44-.36-2.61-8.1,2.17-9,3.49v-4.01s-4.01,0-4.01,0v19ZM337,726v9.01c12.36,1.51,12.38-10.51,0-9.01ZM337,715v7.01s7.07-.44,7.07-.44l.8-5.44-7.87-1.13ZM313.97,727.53c1.8.85,8.61,1.08,9.03-1.06l-1.99-3.98c-1.27-.77-2.94-.74-4.32-.32s-4.64,4.29-2.73,5.36ZM301.98,726.51c-1.26-3.54-5.38-6.43-8.71-3.25-5.77,5.51,8.57,6.15,8.71,3.25ZM323.56,466.94l-4.5-.88c-3.36,8.18,4.38,17.32,12.94,13.95-1.25,4.74-4.92,4.28-8.99,2.99-2.1,2.04,7.89,6.76,12.44,1.94,3.69-3.9,2.51-11.36,2.41-16.3l-1.47-1.53-3.32-.05c-2.29,11.17-9.78,14.44-9.5-.12ZM262,484c-4.34-1.17-17.29,1.04-18.01-5.53-.66-6.03,6.88-6.31,11.01-6.96-3.12-3.77-11.5,1.43-11.99-4.49,13.39-4.5,20.91,3.9,18.99,16.99ZM256.99,477.02c-3.65-1.73-5.74-3.19-8.97.48.01,2.15,9.69,4.22,8.97-.48ZM295.49,471.96c-2.81-2.15-.63-5.92-2-8.94-1.52-3.37-5.01-1.7-5.4,1.41,2.53,6.14-2.33,18.96,6.91,19.57l-.04-7.33,2.56-1.61c1.41.05,4.22,11.08,8.49,8.45,2.59-1.59-2.04-6.87-1.97-9.02.06-1.69,2.64-3.23,1.96-5.48l-10.51,2.95ZM368.43,467.06c-8.04-2.46-4.22,14.25,3.31,15.77,5.61,1.13,5.55-2.18,6.44-2.62,2.67-1.3,5.67,3.84,8.82,2.78l-6.59-14.92c-5.42-1.88-4.66,6.33-6.17,9.66-.61,1.34-.09,1.58-2.22,1.26-1.79-1.86-2.28-11.53-3.59-11.93ZM271.98,482.99c6.97-23.04,5.95-4.72,9.5-.97,6.17,6.51,4.71-12.09-1.2-13.82-3.32-.97-6.55.28-8.78,2.78l-1.51-4.99c-9.76-2.96-3.11,20.59,1.99,16.99ZM223,479.5c0,1.86,2.8,5.67,5.03,4.05,4.88-26.25,6.81-1.53,8.92,0,6.29,4.59,4.47-12.81-2.65-14.34-2.06-.44-4.15,0-6.2-.31l-1.16-6.83-3.93-.07v17.5ZM343.34,480.65c-9.25-9.37,8.54-21.21,15.86-9.36s-8.86,16.45-15.86,9.36ZM347.24,471.24c-4.73,7.47,5.36,14.25,8.73,5.28-.74-2.32-1.85-6.22-4.48-6.57l-4.25,1.28ZM210,469.5c0-.31-1.38-1.41-1-2.49h11c1.21-3.77-3.16-3.82-6.47-4.05-2.21-.15-20.57-.31-20.55,1.55.24,4.6,10.09,1.55,11.02,2.49.2,5.34-.52,15.63,6,17.01v-14.5ZM248.02,477.5c.01,2.15,9.69,4.22,8.97-.48-3.65-1.73-5.74-3.19-8.97.48ZM355.98,476.53c-.74-2.32-1.85-6.22-4.48-6.57l-4.25,1.28c-4.73,7.47,5.36,14.25,8.73,5.28ZM208.6,586.9c4.57,2.95,6.6-.55,8.9-.54,1.13,0,2.56,1.6,4.09,1.68,2.47.13,5.33-3.38,9.41-1.04l-2.45-13.12-4.33.35-2.23,8.77c-1.44,1.46-1.81-.1-1.98-1.49-.34-2.75.31-5.69-1.05-8.49l-4.82,1.12-1.63,9.85c-3.65-3.64-1.87-7.64-1.52-11.97-8.85-3.43-7.01,11.88-2.38,14.87ZM297.89,567.11l2.1,22.89c-2.2.99-4.48-1.57-5.52-1.63-2.88-.17-5.71,4.04-11.45-.9-8.47-7.29,2.33-16.44,10.97-13.48l-1-6.99,4.89.11ZM286.25,585.77c3.17,2.26,6.02-.98,7.36-3.72-3.27-8.76-11.22-3.55-7.36,3.72ZM309,583.01c1.1,2.62,4.91,3.42,7.45,3,2.09-.35,9.44-9.65,8.58-1.55-.81,7.65-23.27,6.46-22.11-5.97.8-8.55,15.3-10.08,17.63-1.51,2,7.4-6.5,5.97-11.55,6.02ZM313.54,574.24l-5.52,3.26c1.58,1.81,3.93,2.84,6.36,2.43,2.79-.81,1.06-4.55-.83-5.69ZM192.99,589c-1.88.75-3.53-1.59-4.51-1.63s-2.27,1.46-4.69,1.42c-13.43-.27-10.54-13.22,2.2-12.27-3.12-3.77-11.5,1.43-11.99-4.49,13.57-4.33,20.41,3.78,18.99,16.98ZM179,583.99c4.8,2.22,11.71.58,5.28-3.85-1.56-.75-6.53,2.1-5.28,3.85ZM257.94,571.43c-2.13,1.47-.43,18.4,6.04,16.55.21-2.01,3.9-13.94,7.01-10.99-1.89,6.6,7.58,17.05,6.78,6.77-.72-9.27-6.62-14.66-14.76-7.77l-1.08-4.93-4,.37ZM383.5,583.98c-3.65-2.69-3.16-7.1-3.94-11.04l-4.53-.93c-2.61,9.32,5.93,21.51,14.61,13.08l6.84,2.91c2.92-1.97-1.46-3.71-2.56-6.43-.69-1.72-1.37-8.07-2-8.5-6.02-4.08-6.4,10.87-8.42,10.9ZM356.94,577.95l-5.94,1.55c1.38,3.27,5.55,1.87,6.84,2.66,1.63.99-.23,8.11,3.68,7.59s.66-6.05,1.89-7.8l8.56-2.44-9.93-2.54.96-7.95c2.89,1.09,3.24,4.34,4.12,6.86l3.86.13c-2.08-13.93-15.55-13.34-14.05,1.95ZM242.46,571.51c8.07-.5,11.5,5.21,12.07,12.46-3.75,4.84-8.24,6.44-14.11,4.1-9.59-3.82-8.05-15.94,2.04-16.56ZM248.82,583.81c.96-1.64-1.04-7.44-2.8-8.34-11.92-1.32-7.2,15.64,2.8,8.34ZM328.01,571c-.05,3.93,1.21,17.99,6.49,18.04,3.9.04,1.71-8.66,5.49-10.58,3.36-1.71,4.71,1.86,8.01,1.53-.14-7.48-9.36-5.02-13.99-2.99.43-4.33-1.58-6.58-6-6ZM400.91,567.59c-1.86,2.53-.93,20.3,1.6,21.41.42.18,2.57.4,2.54-.59l-1.12-21.35-3.02.53ZM293.61,582.05c-3.27-8.76-11.22-3.55-7.36,3.72,3.17,2.26,6.02-.98,7.36-3.72ZM308.02,577.5c1.58,1.81,3.93,2.84,6.36,2.43,2.79-.81,1.06-4.55-.83-5.69l-5.52,3.26ZM184.29,580.14c-1.56-.75-6.53,2.1-5.28,3.85,4.8,2.22,11.71.58,5.28-3.85ZM246.01,575.46c-11.92-1.32-7.2,15.64,2.8,8.34.96-1.64-1.04-7.44-2.8-8.34Z"/>
</svg>