<?xml version="1.0" encoding="UTF-8"?>
<svg id="_レイヤー_1" data-name="レイヤー 1" xmlns="http://www.w3.org/2000/svg" width="174.57mm" height="300.55mm" viewBox="0 0 494.84 851.96">
  <path d="M415.52,124.43c23.37-1.94,37.83,19.63,25.7,40.4-1.17,2-5.43,6.56-5.66,7.42-.7,2.61,1.91,8.05,1.78,11.63-.18,5.24-2.9,10.78-5.6,15.14,8.98,12.33,20.97,20.8,18.59,37.92-.52,3.75-3.25,6.69-3.76,9.34-.62,3.24,7.29,13.3,9.37,17.22,2.98,5.61,9.33,17.94,10.24,23.76,1.96,12.47-3.4,22.46-9.59,32.77,2.69,4.13,7.37,5.95,10.84,8.98,4.37,3.82,6.45,9.53,12.99,9.52l-2,4.97c13.35,7.9,13.03,28.99,1.02,38.54-5.51,4.38-17.16,13.85-23.22,15.78-3.01.96-6.64,1.4-9.8,1.71,12.38,18.93,22.6,37.03,22.04,60.54-.12,5.1-2.5,13.3-2.12,17.96.56,6.95,9.99,10.76,8,24.91-.39,2.77-2.72,5.96-2.66,7.91.14,3.95,3.86,13.94,4.61,19.31,1.51,10.75,3.27,29.29,2.02,39.75-.47,3.96-3.94,9.31-3.7,11.86,1.1,11.86,12.16,30.7,15.53,43.54,6.28,23.91,6.98,80.53-2.23,103.2-5.03,12.37-12.54,19.29-19.32,29.68-7.26,11.13-7.15,17.49-10.65,29.35-10.34,35.06-40.52,35.75-71.85,39.15-11.8,14.24-31.63,23.51-50.12,24.88-33.06,2.45-67.85-6.15-83.21-38.08l-11.17.2c-9.64,22.86-35.69,36.15-59.62,37.88-27.05,1.95-55.26-3.15-73.2-24.88-18.38-2.68-40.61-2.31-55.82-14.18-19.31-15.07-14.33-35.26-26.7-54.3-6.61-10.17-13.98-16.99-19-29-9.79-23.4-8.88-81.57-1.84-106.2,2.87-10.05,15.02-33.71,14.92-42-.02-2.08-3.33-7.22-3.79-11.09-1.26-10.59.55-28.86,2.02-39.75.74-5.46,3.78-13.37,3.9-18.18s-3.32-9.48-3.07-14.91c.31-6.9,4.54-10.78,5.95-16.13,2.41-9.22.37-21.14,1.22-30.78,1.67-19.02,12.29-36.34,22.87-51.62-7.77.46-15.05-1.48-21.01-6.5-5.17-4.35-8.25-6.51-13.47-10.53-14.14-10.9-17.56-29.69-2.44-41.39,2.98-2.31,6.7-3.46,9.41-5.59,5.28-4.15,11.13-10.01,16.33-14.49-2.81-5.08-8.26-14.02-9.38-19.45-3.61-17.44,10.35-37.76,19.41-51.78.83-3.01-3.22-7.93-3.77-11.86-2.41-17.35,9.42-25.52,18.59-37.92-2.7-4.36-5.42-9.9-5.6-15.14-.13-3.58,2.48-9.02,1.78-11.63-.23-.86-4.49-5.42-5.66-7.42-12.05-20.64,2.36-42.44,25.7-40.4,1.12-5.57,2.2-11.2,3.83-16.66,6.53-21.8,22.94-76.07,36.29-91.71,25.89-30.3,64.9-13.3,84.47,14.45,22.61-25.18,64.38-25.19,87,0,15.39-19.29,32.6-32.94,58.89-29.87,9.42,1.1,19.01,7.92,25.12,14.88,13.58,15.49,30.2,70.38,36.75,92.25,1.64,5.46,2.71,11.09,3.83,16.66ZM434.42,393.53h15.5c9.02,0,12.51-7.21,17.57-11.43,2.87-2.39,6.79-2.69,9.97-6.03,5.76-6.06,6.92-16.4,2.41-23.5-1.73-2.72-7.36-5.95-8.01-7.06-.71-1.21.83-2.76.1-3.97-.29-.49-6.98-7.01-8.07-7.99-4.43-4.01-10.88-7.12-14.37-12.73-.56-2.12,4.27-6.26,5.64-9.05,1.09-2.21,3.66-8.21,4.48-10.52,3.13-8.79.53-14.59-2.76-22.69-4.35-10.73-11.06-21.72-18.39-30.68,15.95-19.13-2.61-34.98-15.06-48.85,4.86-4.32,8.28-10.26,8.01-16.95-.13-3.2-3.31-9.25-2.9-10.84s4.92-4.84,6.31-6.77c13.63-18.96-2.39-39.88-24.43-32.93-1.67-21.28-11.12-40.64-18.04-60.47-7.76-22.23-13.5-57.56-40.92-64.09-20.26-4.82-37.59,6.01-50.56,20.54-1.91,2.13-7.93,12.02-9.98,12.02-17.86-25.22-54.08-29.3-77.99-9.99l-10.01,9.97C189.82,19.74,169.06.87,143.37,6.98c-27.42,6.52-33.15,41.85-40.92,64.09-6.92,19.83-16.37,39.19-18.04,60.47-21.99-7.05-37.97,14.1-24.43,32.93,1.39,1.93,5.9,5.19,6.31,6.77s-2.78,7.64-2.9,10.84c-.27,6.69,3.15,12.63,8.01,16.95-12.34,13.96-31.53,29.89-15.06,48.85-7.32,8.97-14.04,19.95-18.39,30.68-3.29,8.11-5.89,13.9-2.76,22.69.82,2.31,3.39,8.31,4.48,10.52,1.37,2.8,6.19,6.94,5.64,9.05-4.13,5.79-10.05,9.34-15.42,13.67-1.76,1.42-2.74,3.86-3.78,4.72-2.89,2.36-7.61,3.08-11.22,6.28-10.9,9.66-7.09,23.51,3.62,31.44,2.76,2.04,6.55,3.05,8.44,4.56,2.03,1.61,3.45,5.37,6.53,7.47,7.13,4.84,16.8,4.33,24.95,4.08.17,5.84-4.3,8.28-6.84,12.16-8.89,13.54-17.4,28.39-19.15,44.85-1.03,9.64.35,22.77-1.08,31.92-.75,4.78-5.43,7.93-5.95,14.07-.57,6.81,3.06,9.9,3.1,14.98.04,6.11-4.13,17.84-4.96,25.14-1.56,13.69-3.57,32.48,3.43,44.45-4.48,17.68-14.91,34.97-18.29,52.69-4.18,21.93-4.61,72.43,3.55,92.91,4.74,11.89,11.98,18.46,18.61,28.39,8.58,12.85,7.81,18.45,11.86,32.14,4.46,15.07,14.01,24.45,29.28,28.72,8.26,2.31,37.71,4.27,41.49,7.51,1.55,1.33,2.29,3.7,3.9,5.1,30.78,26.77,92.95,24.97,116.23-10.84,1.05-1.62,3.43-8.03,4.04-8.47,2.21-1.59,17.76-1.67,19.58-.04,8,22.1,31.32,34.07,53.7,36.8,23.28,2.84,47.77-1.51,65.98-17,1.98-1.68,2.78-4.13,4.44-5.56,3.73-3.2,26.46-4.43,33.27-5.73,18.66-3.55,31.4-10.87,37.3-29.7,4.25-13.55,3.51-20.04,12.06-32.94,6.59-9.95,13.86-16.46,18.61-28.39,8.77-22.03,7.95-78.71,1.32-101.68-4.29-14.85-12.19-28.85-16.05-43.93,7-11.97,4.99-30.76,3.43-44.45-.79-6.92-5.71-21.49-5.62-26.32.03-1.62,2.08-3.73,2.52-6.04.85-4.5.43-10.63-1.92-14.62-1.52-2.59-5.28-4.28-5.83-7.18-.89-4.63,1.85-15.5,2.03-20.93.86-27-12.55-46.93-28.04-67.54ZM271.75,66.68c0,13.44-10.89,24.33-24.33,24.33s-24.33-10.89-24.33-24.33,10.89-24.33,24.33-24.33,24.33,10.89,24.33,24.33ZM265.97,66.75c0-10.25-8.31-18.55-18.55-18.55s-18.55,8.31-18.55,18.55,8.31,18.55,18.55,18.55,18.55-8.31,18.55-18.55Z"/>
</svg>