<?xml version="1.0" encoding="UTF-8"?>
<svg id="_レイヤー_1" data-name="レイヤー 1" xmlns="http://www.w3.org/2000/svg" width="204.61mm" height="305.86mm" viewBox="0 0 580 867">
  <path d="M482,135c25.54-7.06,45.88,18.11,30.22,40.72-1.34,1.93-5.8,5.83-6.07,6.97-.47,1.99,1.95,6.94,1.76,10.65-.27,5.32-2.79,10.81-5.69,15.17,14.08,13.73,29.53,28.06,16.93,48.84,10.18,14.52,26.27,33.85,22.39,52.71-.75,3.65-9.64,18.17-9.46,19.3,8.62,6.34,16.7,14.18,26.5,18.61-1.82,6.12,2.79,6.83,5.59,11.34,6.32,10.17,4.32,23.87-4.71,31.67-3.49,3.01-7.3,3.57-10.39,5.61-2.15,1.42-3.57,3.89-5.61,5.39-7.16,5.24-15.61,7.32-24.47,7.04,11.17,14.21,21.93,29.42,24.72,47.77,1.55,10.21-.36,24.08,1.3,32.7.57,2.95,6.01,6.74,6.89,13.11,1.22,8.82-3.07,14.27-2.89,18.82s3.83,13.9,4.68,19.39c1.65,10.65,3.43,28.14,2.18,38.6-.5,4.16-3.96,9.23-3.86,12.01.36,9.42,15.64,34.43,18.89,47.17,5.27,20.65,5.73,73.77-1.18,93.67-5.85,16.85-15.76,24.14-25.75,37.25-9.06,11.89-8.16,18.33-12.96,31.04-13.22,34.99-50.98,32.21-82.13,35.89-30.84,33.57-107.08,33.24-138.31,1.47-2.71-2.76-8.58-12.63-9.9-13.6-2.64-1.95-18.77-1.95-21.41,0-1.53,1.13-8.16,11.99-11.4,15.1-31.52,30.21-106.56,30.13-136.8-2.97-30.69-3.67-69.36-1-82.13-35.89-4.77-13.03-3.69-18.84-12.96-31.04-11.24-14.79-22.34-22.82-27.51-42.49-4.98-18.96-4.31-69.23.58-88.43,3.21-12.59,18.54-38.01,18.89-47.17.11-2.78-3.36-7.85-3.86-12.01-1.24-10.46.53-27.95,2.18-38.6.87-5.6,4.44-14.78,4.66-19.37.24-4.9-3.92-9.68-2.86-17.84.84-6.49,6.28-10.91,6.89-14.1,1.65-8.67-.26-22.47,1.3-32.7,2.74-18.01,13.25-33.66,24.72-47.28-8.94-.67-17.15-2.16-24.47-7.52-2.04-1.49-3.46-3.97-5.61-5.39-3.09-2.03-6.9-2.6-10.39-5.61-9.04-7.8-11.03-21.49-4.71-31.67,1.41-2.28,5.7-5.65,6.06-7.04.41-1.58-.9-3.69-.44-4.33.99-1.39,6.66-2.06,8.26-3.25,1.13-.83,2.69-4.02,4.84-5.66,4.39-3.34,9.97-5.18,13.37-9.67.19-1.13-8.7-15.65-9.46-19.3-3.88-18.85,12.21-38.19,22.39-52.71-12.46-21.03,2.79-35.01,16.93-48.84-2.89-4.35-5.42-9.85-5.69-15.17-.19-3.71,2.24-8.65,1.76-10.65-.23-.98-6.8-7.39-8.38-10.66-11.06-22.87,9.14-43.44,32.53-37.03,2.11-20.42,12.81-39.25,20.49-58.02,6.97-17.06,10.63-34.35,23-49,29.19-34.53,74.89-15.79,97.02,16.01,6.49-5.45,11.22-12.58,18.58-17.41,27.87-18.3,64.25-10.08,82.88,16.95l1.52.46c16.6-23.3,47.19-42.31,76.5-31.49,26.88,9.93,33.98,41.13,43.53,64.47,7.68,18.78,18.4,37.64,20.49,58.02ZM53.5,403c6.38.75,13.97-.55,20.5,0-16.78,18.6-31.37,37.38-33.04,63.46-.47,7.42,1.09,17.01-.02,23.98-.72,4.51-5.95,6.56-6.85,13.14-1.15,8.43,2.92,11.93,2.95,16.9.03,3.86-3.95,14.27-4.78,19.29-1.72,10.41-3.56,29.49-2.18,39.64.52,3.8,4.72,9.5,4.7,10.9-.02,1.16-4.43,12.46-5.3,14.67-2.74,6.94-6.86,13.48-9.66,20.34-12.23,30.04-14.38,92.91,3.77,120.58,6.36,9.71,21.54,22.5,25.66,32.34,2.08,4.97,2.95,14.25,5.04,19.96,7.24,19.79,21.8,25.44,41.36,28.64,10.38,1.7,30.08,1.44,38.62,4.38,1.49.51,7.18,7.28,9.81,9.19,26.96,19.56,78.25,19.93,106.95,4.09,10.4-5.74,19.74-15.36,24.97-26.03,9.43-1.96,18.63-1.95,28.03,0,9.22,18.83,27.48,30,47.61,34.39,31.1,6.78,71.68,3.38,94.09-21.66,25.51-4.49,65.03-.13,77.99-28.01,3.55-7.63,4.48-19.9,7.87-26.13,7.93-14.55,22.82-24.71,30.28-40.72,10.51-22.55,9.35-80.19,1.16-103.87-3.29-9.51-8.81-18.17-12.5-27.5-.87-2.21-5.28-13.51-5.3-14.67-.03-1.41,4.18-7.1,4.7-10.9,1.38-10.15-.46-29.23-2.18-39.64-.83-5.04-4.8-15.38-4.77-19.28.02-3.69,4-8.08,3.78-13.72-.34-8.62-6.88-11.31-7.68-16.32-1.11-6.98.46-16.56-.02-23.98-1.66-25.95-16.23-45.01-33.04-63.46h20.5c3.89,0,11.46-3.83,14.54-6.46,1.49-1.27,2.2-3.71,3.41-4.59,1.69-1.24,4.12-1.02,5.95-2.05,10.78-6.06,15.73-16.86,8.44-28.24-2.77-4.32-9.69-5.92-6.85-10.63-5.68-.37-6.96-5.21-10.49-8.03-5.35-4.28-13.37-6.71-17.43-13.64,4.27-5.88,12.89-18.65,12.92-25.86.05-13.59-17.4-35.73-25.6-46.45-.34-1.35,2.89-3.58,3.82-5.34,9.93-18.87-10.3-30.89-21.19-43.21,8.36-7.18,10.02-17.03,5.14-26.85,24.47-18.36,10.48-51.47-19.86-38.79l-1.83-.81c-1.57-22.26-12.76-41.88-20.95-62.06-14.02-34.55-23.72-76.15-72.96-61.92-18.44,5.33-31.15,22.05-43.13,35.9-1.81.39-5.8-8.31-7.46-10.44-25.19-32.26-74.93-25.78-92.5,10.48-2.08.48-8.27-9.16-9.96-11.02-17.32-19.04-39.81-34.73-66.77-24.75-24.93,9.23-31.47,40.08-40.26,61.74-8.19,20.18-19.37,39.79-20.95,62.06-1.08,1.79-8.85-1.87-11.99-2.08-19.5-1.34-28.91,18.16-17.54,33.54,1.44,1.95,7.57,6.69,7.84,8.15-4.88,9.83-3.22,19.67,5.14,26.85-10.89,12.32-31.12,24.34-21.19,43.21.92,1.76,4.16,3.99,3.82,5.34-8.09,10.45-26.47,34.05-25.54,47.3.5,7.19,8.61,19.1,12.86,25.01-4.03,6.75-11.48,9.11-16.86,13.2-4.36,3.31-8.06,8.2-10.62,12.38-.91,1.49-5.35,3.71-7.28,6.72-7.56,11.79-2.06,22.65,9.15,28.53,6.37,3.34,3.93,2.3,8.66,6.34,3.68,3.15,9.76,5.9,14.54,6.46ZM308.01,553c-.4,2.06.89,2.39,2.41,3.08,7.42,3.33,10.52-4.39,12.06-4.07,2.64.55,1.96,5.14-1.21,6.77-5.32,2.74-14.32,1.39-17.73-3.81-6.78-10.35,9.45-17.26,14.93-9.94,6.16,8.22-3.7,10.83-10.47,7.98ZM313.95,545.03c-3.07-.2-6.68,1.32-5.95,4.96,2.54.39,4.5,1.03,7,0l-1.05-4.96ZM359,559.01c3.83-.55,9.01,1.44,11.99-1.53.23-2.9-3.2-.01-6.02-.88-1.17-.36-4.43-3.02-5.02-4.05-5.11-8.85,8.28-15.12,13.64-8.65,1.6,1.94,3.11,14.58,1.49,16.68-2.89,3.77-13.65,2.8-16.09-1.58ZM369.77,545.27c-4.82-4.75-7.95,6.6-4.24,7.72,3.43,1.04,6.48-5.51,4.24-7.72ZM289,545c8.03-1.22,17.5,8.07,7.92,13.42-3.44,1.92-9.95,2.97-12.36-.47s-3.64-24.63,3.52-19.52l.93,6.57ZM293.74,549.25c-1.02-1.03-3.29-1.3-4.74-1.25-2.22,15.96,9.36,5.91,4.74,1.25ZM336.1,542.12c-.96,1.56.35,13.64,1.89,15.39,5.58,6.31,5.71-9.72,11-10.5.56.57,2.15,17.36,6.53,11.02,1.52-2.2-1.01-11.65-2.93-13.11-3.35-2.57-8.79-.38-11.58,2.09,1.39-3.17-3.15-7.75-4.91-4.88ZM235.77,542.2c13.06-1.8,17.93,20.03.99,17.58-11.96-1.73-13.22-15.9-.99-17.58ZM239.85,546.17c-2.18-1.34-6.17.64-7.36,2.87-3.38,7.56,10.35,11.05,9.5,2.56-.08-.76-1.89-5.27-2.14-5.42ZM223.97,545.51c-2.11-5.95-6.59-11.67-12.97-6.77l-.99,10.26-5.99,1.5c1.18,3.21,6.05,1.99,6.86,2.62,1.11.87-.29,7.45,3.62,7.86,2.86-1.35.83-8.32,1.49-8.98,2.95-.31,6.78,1.17,8.98-1.5-2.58-2.61-6.58-2.59-9.98-2.5l.14-6.37,1.36-1.61,3.51,6.98,3.96-1.49ZM251,542c-.39,3.92,1.12,17.98,6.49,18.04,4.14.04.95-11.77,7.93-11.07l5.56,2.03c-.61-7.43-9.34-6.41-13.99-2.99.43-4.36-1.61-6.57-6.01-6ZM328,546.99c.23,4.56-1.76,13.36,4.99,13l-1.14-12.85-3.85-.15ZM327.01,538.54l2.64,6.49,3.35-.04-1.22-6.75c-1.87-1.15-3.4-1.91-4.77.3ZM347,274v9h17c-2.84,6.65-14.13,16.23-16.46,22.04-1.33,3.3-.19,7.48-.54,10.96h30v-9h-17c2.24-7.52,13.99-16.87,16.46-23.04,1.26-3.14.26-6.72.54-9.96h-30ZM210.99,292.51c4.81,7.25,22.15,6.06,16.42,14.41-5.29,3.73-15.39-3.65-16.41-2.91l-1.97,8.94c9.13,4.23,29.56,6.29,30.99-7.42.63-5.99-1.2-9.71-6.32-12.72-3.52-2.07-13.4-2.98-13.52-7.13-.18-6.35,14.31-2.79,17.8-.66l.89-8.88c-10.98-6.69-38.77,0-27.88,16.38ZM306,274v9.01s11,0,11,0v33h11v-31.5c1.56-3.07,11.16-.65,12.01-1.49v-9.01h-34.01ZM286,274v42h12v-42h-12ZM263.5,274c11.44,1.22,19.42,8.2,14.57,20.57-4.01,10.24-18.11,6.17-19.64,8.36l-.43,13.07h-10.01v-42.01c4.99.38,10.6-.52,15.5,0ZM267.76,292.77c5.16-5.17-2.29-13.19-8.83-10.34-1.38.98-1.4,10.27-.49,11.62,1.32,1.95,8.11-.08,9.32-1.29ZM258.93,282.43c-1.38.98-1.4,10.27-.49,11.62,1.32,1.95,8.11-.08,9.32-1.29,5.16-5.17-2.29-13.19-8.83-10.34ZM314.29,77.09c0,13.42-10.88,24.29-24.29,24.29s-24.29-10.88-24.29-24.29,10.88-24.29,24.29-24.29,24.29,10.88,24.29,24.29ZM308.57,77.07c0-10.26-8.32-18.57-18.57-18.57s-18.57,8.32-18.57,18.57,8.32,18.57,18.57,18.57,18.57-8.32,18.57-18.57ZM308,549.99c2.54.39,4.5,1.03,7,0l-1.05-4.96c-3.07-.2-6.68,1.32-5.95,4.96ZM365.54,552.99c3.43,1.04,6.48-5.51,4.24-7.72-4.82-4.75-7.95,6.6-4.24,7.72ZM289.01,548c-2.22,15.96,9.36,5.91,4.74,1.25-1.02-1.03-3.29-1.3-4.74-1.25ZM210.16,218.66c-.58,1.86-.4,8.54.06,10.62.57,2.6,4.73,5.9,6.26,3.74l3.53-11.02c2.59-.3,1.58.02,2.01,1.45,1.4,4.61-.83,8.94,5.97,8.55-.82-1.64,2.58-11.09,3.99-10-.16,13.83,11.5,14.37,5.52.99-4.5-10.07-10.9-1.56-11.48-1.99-2.28-6.61-7.34-3.9-11.01,0,.81-3.66-3.74-5.9-4.85-2.34ZM292,235c-5.46-1.71-15.49,2.56-18.48-4.01-3.69-8.1,5.33-14.21,12.47-10.99-3.53-11.52,6.01-9.12,6.01-1.5v16.5ZM279.24,223.25c-4.69,9.21,3.69,12.45,6.6,3.4l-3.82-4.16-2.78.76ZM301,228.01c1.26,3.37,5.42,3.56,8.47,2.96,3.46-.68,4.62-5.06,5.01-4.97,4.13.9,3.19,5.44.24,7.23-14.53,8.8-27.93-13.19-12.98-15.98,15.69-2.93,16.07,16.46-.74,10.76ZM308,225c.8-10.74-11.84-1.38-4.49,0,1.4.26,3.04-.07,4.49,0ZM246.07,217.43l-4.01-.37c-2.95,8.52,4.34,15.57,12.94,13.95-.28,1.12-1.65,2.46-2.7,2.79-1.37.42-6.63-.69-5.81,1.21,12.96,8.79,16.74-6.4,14.03-17.03-4.36-6.37-6.31,13.03-12.43,8.93l-2.02-9.47ZM338.99,234c-7.32-1.26-20.08,3.2-17.77-8.79,1.64-.91,3.32-1.97,5.18-2.4,2.51-.58,6.37,1.54,5.6-1.79-2.36-2.22-12.97,1.76-12-2.5,11.72-7.18,20.42,3.63,18.99,15.48ZM332.93,227.09c-10.1-3.73-11,4.54.08,2.91l-.08-2.91ZM346,216.42c-2-.51-3.92.11-4.1,2.07-.4,4.22,2.36,19.21,9,15.39.5-6.35.47-12.6,7.83-9.13,4.43,2.09,4.08-1.71.64-3.63-4.51-2.52-6.98-.03-11.36.87l-2.01-5.58ZM369.86,213.64l-4.85-1.65,1.01,15,2.92-.04.92-13.32ZM379.99,222.01c-1.44-.24-1.31,1.69-1.73,2.74-2.04,5.19-4.31,11.88-5.75,17.26-.45,1.68-2.78,7.18-.52,7.99l8-27.99ZM393.99,192c-3.08,3.67-6.89,10.44-8.53,14.96-.34.94-1.32,3.25.53,3.03l8-17.99ZM285.84,226.64l-3.82-4.16-2.78.76c-4.69,9.21,3.69,12.45,6.6,3.4ZM303.51,224.99c1.4.26,3.04-.07,4.49,0,.8-10.74-11.84-1.38-4.49,0ZM333.01,230l-.08-2.91c-10.1-3.73-11,4.54.08,2.91ZM232.49,549.03c-3.38,7.56,10.35,11.05,9.5,2.56-.08-.76-1.89-5.27-2.14-5.42-2.18-1.34-6.17.64-7.36,2.87ZM139.55,595.99c-8.22-4.58-6.88,10.53-2.07,14.03,5.07,3.69,5.94.04,9.03.03,1.67,0,3.04,1.88,4.58,1.53,2.44-.56,3.6-4.64,7.42-.59,2.99-1.89-.07-4.3-.32-6.75s.79-4.75-.28-7.13l-4.77.04c-1.23.77-3.24,20.57-5.23-.03h-4.8c-.27,3.24.26,8.02-3.09,9.89l-.46-11.01ZM229,612.99c-5.88-1.64-13.18,1.93-17.94-2.55-7.03-6.61,2.96-16.98,10.94-12.45v-8c1.1.08,2.4-.23,3.4.11,4,1.39,1.75,18.73,3.61,22.88ZM215.24,601.25c-1.9,3.01-2.15,7.83,2.08,8.6,2.07-.8,5.27-2.49,4.56-5.15l-3.87-4.21-2.78.76ZM469,613c-6.6-1.55-18.29,3.03-19.82-6.76-1.14-7.3,7.9-10.25,13.82-9.25l-.99-6.99c9.53-.97,5.21,16.4,6.99,23ZM457.65,600.08c-4.08.68-5.14,9.01-.16,9.97l4.57-4.61c.44-1.9-2.71-5.64-4.41-5.36ZM237,606.01c4.37,5.67,10.89,3.17,14.5-1.99l2.34,3.31c-3.44,8.1-16.35,6.8-20.85.18-7.85-11.56,13.56-18.76,16.58-6.51,1.6,6.47-8.28,6.48-12.58,5.01ZM244,602.99c1.72-5.78-5.38-6.63-6.99-2.48-.97,2.5,5.88,2.65,6.99,2.48ZM407,606.01c3.15,5.45,11.51,3.83,13.49-2,8.03,3.72-.66,8.87-6.02,9.04-4.91.16-13.14-4.31-13.46-9.62-.66-11.02,19.89-12.23,18.57.58-4.02,3.02-7.89,3.29-12.58,2ZM414,602.99c1.72-5.78-5.38-6.63-6.99-2.48-.97,2.5,5.88,2.65,6.99,2.48ZM121.99,612c-3.89-1.21-7.73.35-11.38-.05-11.3-1.24-8.62-13.3,3.11-11.21,3.09.55,1.19-2.47-3.27-2.78-2.51-.17-4.9,1.07-7.46.03v-2.97c13.01-3.77,19.89,4.28,18.99,16.98ZM109.65,604.15c-2.2.67-2.2,3.02,0,3.69,8.17,2.5,8.22-6.18,0-3.69ZM428.95,610.55c5.9,3.93,5.45-8.66,9.55-10.53,1.79-.02,2.1,9.97,5.1,10.89,6.02,1.84,1.64-11.4-.62-13.38-3.15-2.77-7.74-1.26-10.48,1.45-1.87-1.46-1.49-6.09-4.99-4.97-3.06.98-.15,15.49,1.44,16.54ZM186,596.51c-.65,3.52,1.4,18.19,6.91,14.39,1.2-2.46,2.19-10.83,5.58-10.91,1.72-.04,1.72,14.88,7.41,10.9.47-5.77-.53-15.55-8.17-14.67-2.75.32-4.16,2.61-6.72,2.78,1.32-4.56-4.07-7.55-5.01-2.49ZM309.95,610.55c6.26,2.01,7.65-2.39,8.54-2.4.52,0,4.92,4.35,7.51,2.84-.38-2.77-2.69-3.85-3.79-6.7-.93-2.39-1.19-4.61-1.36-7.12l-5.65.05c-.67.93-1.05,11.05-3.69,9.78-3.02-3.2-3.78-7.79-3.52-12-9.58-1.34-3.92,13.67,1.95,15.56ZM364.49,599.99c3.58-.69-1.55-8.99-4.19-9.78-8.75-2.62-7.93,4.54-8.73,10.86l-5.56.94c-.62,4.55,6.24,2.36,6.96,3.03.15,3.25.78,9.71,5.04,7.45v-7.49s8.99-2.51,8.99-2.51l-9.56-2.43-.43-7.07,2.92.06c.71,2.58,1.26,6.47,4.56,6.94ZM169.74,595.24c6.87-1.24,10.99.87,12.8,7.73,3.73,14.17-25.29,11.39-18.78-3.72,1.06-2.46,3.48-3.56,5.98-4.01ZM175.76,599.25c-3.6-4.48-12.14,4.96-5.76,9.27,3.19,1.15,7.92.48,7.49-3.62-.07-.67-1.49-5.36-1.73-5.65ZM297.5,599.98c5.53,0-3.16-15.75-10.03-9l-1.91,10.09-5.56.94c-.69,4.51,6.46,2.45,7,2.99-.18,3,.07,5.97,2.51,8,3.72.87,2.1-7.61,2.49-7.99l7.99-1.01-1.67-2.82-7.33-.17v-8c3.5-.94,4.66,6.97,6.5,6.97ZM368.93,595.63c1.47,3.74,1.38,13.23,4.5,15.44,7.19,5.11,4-7.22,8.58-9.63,2.64-1.39,4.81,2.55,7.99,1.55-1.75-6.95-9.02-5.23-13.99-2.99-.1-4.95-2.73-7.95-7.08-4.38ZM261.01,594.43l-5.01.6c1.35,3.88,1.36,16.46,6.54,17.01,5.69.61,1.71-8.08,6.47-10.6,2.64-1.39,4.82,2.55,7.99,1.55-1.75-6.95-9.02-5.23-13.99-2.99l-2-5.57ZM329,609.5c0,.94,3.55,3.2,4.99,2.5.19-3.25-.17-21.48-2.51-21.99l-2.48,1.49v18ZM394.62,600.12c-3.68,1.23-.76,16.75,4.3,10.25l-.92-10.37-3.37.12ZM397.56,590.94l-4.56-.93c-.36,3.2,1.18,7.79,4.99,7.99l-.43-7.06ZM217.33,609.85c2.07-.8,5.27-2.49,4.56-5.15l-3.87-4.21-2.78.76c-1.9,3.01-2.15,7.83,2.08,8.6ZM457.49,610.05l4.57-4.61c.44-1.9-2.71-5.64-4.41-5.36-4.08.68-5.14,9.01-.16,9.97ZM237.01,600.51c-.97,2.5,5.88,2.65,6.99,2.48,1.72-5.78-5.38-6.63-6.99-2.48ZM407.01,600.51c-.97,2.5,5.88,2.65,6.99,2.48,1.72-5.78-5.38-6.63-6.99-2.48ZM109.65,607.85c8.17,2.5,8.22-6.18,0-3.69-2.2.67-2.2,3.02,0,3.69ZM170,608.52c3.19,1.15,7.92.48,7.49-3.62-.07-.67-1.49-5.36-1.73-5.65-3.6-4.48-12.14,4.96-5.76,9.27ZM319.11,490.61c-4.21,6.42,4.88,15.33,11.88,13.4l-1.67,2.82-6.33.18c4.82,6.67,13.7,3.27,14.94-4.57.41-2.57,1.38-15.34-3.98-11.97-1.97,1.23-4.09,12.78-8.87,9.44-1.2-.84-1.55-16.04-5.98-9.29ZM261.99,507c-4.93-1.22-18.94,2.12-18-6.47.56-5.14,8.11-5.55,12-5.03-3.36-4.47-9.37-.64-12.98-4,11.36-7.92,21.9,3.58,18.97,15.5ZM248,501.99c2.89.62,6.58,2.46,8.98-.49-1.98-3.25-8.79-4.19-8.98.49ZM290.51,484.94c-1.14.11-2.07.55-2.42,1.71-.2.66.79,12.16,1.01,13.76.46,3.36,1.89,7.21,5.91,6.58v-8c6.92-1.73,3.98,9.6,12,8,1.61-1.53-6.38-10.78-.96-11.5l-1.01-3.04-11.02,2.54c-.37-3.52,1.79-10.59-3.5-10.06ZM272.07,505.57l5.43-10.55c1.79-.02,2.1,9.97,5.1,10.89,6.02,1.84,1.64-11.4-.62-13.38-3.15-2.77-7.74-1.26-10.48,1.45-1.87-1.46-1.49-6.09-4.99-4.97-3.06.98-.83,21.19,5.57,16.56ZM363.91,493.49c-.25,6.52,5.95,15.36,13.07,11.99.92-.43,1.87-2.32,2.5-2.33.52,0,4.92,4.35,7.51,2.84-.38-2.77-2.69-3.85-3.79-6.7-.93-2.39-1.19-4.61-1.36-7.12l-5.65.05c-.67.94-1.04,11.03-3.69,9.78-3.14-1.13-3-11.62-3.53-11.98-2.1-1.4-4.96.45-5.07,3.47ZM223,501.5c0,3.09,2.45,6.76,6,5.5-.39-1.94-.02-12.85,3.49-12,3.07.75,2.63,13.91,7,12.99,4.02-.84.07-14.8-6.01-15.98-1.76-.34-3.63.29-5.39-.11l-2.6-6.9-2.49,1.5v15ZM359.7,504.71c-5.46,6.78-24.36-.51-17.6-11.11,6.63-10.39,25.29,1.56,17.6,11.11ZM347.24,502.75c1.99,2,6.45,1.33,8.32-.76.86-16.37-14.83-5.8-8.32.76ZM210,492.5c0-.31-1.38-1.41-1-2.49h10.99c.29-3.37-5.17-3.75-7.51-3.99s-19.5-.39-19.46,2.49c2.97,4.48,6.76,1.45,10.98,1.5-.13,4.22.16,8.98,1.54,12.99.91,2.63,1.22,4.78,4.47,4.01v-14.5ZM256.98,501.5c-1.98-3.25-8.79-4.19-8.98.49,2.89.62,6.58,2.46,8.98-.49ZM355.56,502c.86-16.37-14.83-5.8-8.32.76,1.99,2,6.45,1.33,8.32-.76ZM336,693c5.34.04,16.65-.74,17.1,6.5.26,4.22-1.58,4.86-5.1,6,.98,2.05,6.36.66,6.06,7.98-.38,9.32-11.68,5.98-18.06,6.52v-27ZM340,704c12.04,1.65,12.01-8.67,0-7.01v7.01ZM348.75,709.24c-1.72-1.71-6.38-1.18-8.75-1.25-3.51,16.1,14.68,7.11,8.75,1.25ZM252,720h4c-2.22-20.34,10.98-21.88,8,0h5.01c-.43-6.53,2.45-19.75-7.52-19.1-2.62.17-3.18,2.09-5.48,2.09v-10s-4.01,0-4.01,0v27ZM309,712h-13c.05,6.33,6.46,6.98,10.99,4l-.11,3.88c-5.93,2.31-13.61.97-15.41-5.86-4.08-15.48,19.51-18.78,17.54-2.02ZM305,710c.98-8.24-9.98-8.26-9.01,0h9.01ZM317,712c-.67,3.12,2.75,5.8,5.55,5.97,3.31.2,7.4-3.59,6.46,2.03-9.73,2.37-17.37-.27-16.02-11.52,1.46-12.19,19.92-9.25,18.02,3.53h-14ZM318.26,705.26c-5.77,5.51,8.57,6.15,8.71,3.25-1.26-3.54-5.38-6.43-8.71-3.25ZM226,693v4s6.35.16,6.35.16l1.65,1.34v21.5h4v-21.5l1.65-1.34,6.35-.16v-4h-20ZM274,720h5.01c-.5-9.32-1.03-14.03,9.01-16.5l-.53-2.51-8.98,3.02-.61-2.88-3.9-.14v19ZM340,708c-3.51,16.1,14.68,7.11,8.75,1.25-1.72-1.71-6.38-1.18-8.75-1.25ZM340,697v7.01c12.04,1.65,12.01-8.67,0-7.01ZM296,710h9.01c.98-8.24-9.98-8.26-9.01,0ZM326.98,708.51c-1.26-3.54-5.38-6.43-8.71-3.25-5.77,5.51,8.57,6.15,8.71,3.25Z"/>
</svg>