<?xml version="1.0" encoding="UTF-8"?>
<svg id="_レイヤー_1" data-name="レイヤー 1" xmlns="http://www.w3.org/2000/svg" width="201.03mm" height="300.66mm" viewBox="0 0 569.84 852.28">
  <path d="M476.94,125.61c25.54-7.06,45.88,18.11,30.22,40.72-1.34,1.93-5.8,5.83-6.07,6.97-.47,1.99,1.95,6.94,1.76,10.65-.27,5.32-2.79,10.81-5.69,15.17,14.08,13.73,29.53,28.06,16.93,48.84,10.18,14.52,26.27,33.85,22.39,52.71-.75,3.65-9.64,18.17-9.46,19.3,8.62,6.34,16.7,14.18,26.5,18.61-1.82,6.12,2.79,6.83,5.59,11.34,6.32,10.17,4.32,23.87-4.71,31.67-3.49,3.01-7.3,3.57-10.39,5.61-2.15,1.42-3.57,3.89-5.61,5.39-7.16,5.24-15.61,7.32-24.47,7.04,11.17,14.21,21.93,29.42,24.72,47.77,1.55,10.21-.36,24.08,1.3,32.7.57,2.95,6.01,6.74,6.89,13.11,1.22,8.82-3.07,14.27-2.89,18.82s3.83,13.9,4.68,19.39c1.65,10.65,3.43,28.14,2.18,38.6-.5,4.16-3.96,9.23-3.86,12.01.36,9.42,15.64,34.43,18.89,47.17,5.27,20.65,5.73,73.77-1.18,93.67-5.85,16.85-15.76,24.14-25.75,37.25-9.06,11.89-8.16,18.33-12.96,31.04-13.22,34.99-50.98,32.21-82.13,35.89-30.84,33.57-107.08,33.24-138.31,1.47-2.71-2.76-8.58-12.63-9.9-13.6-2.64-1.95-18.77-1.95-21.41,0-1.53,1.13-8.16,11.99-11.4,15.1-31.52,30.21-106.56,30.13-136.8-2.97-30.69-3.67-69.36-1-82.13-35.89-4.77-13.03-3.69-18.84-12.96-31.04-11.24-14.79-22.34-22.82-27.51-42.49-4.98-18.96-4.31-69.23.58-88.43,3.21-12.59,18.54-38.01,18.89-47.17.11-2.78-3.36-7.85-3.86-12.01-1.24-10.46.53-27.95,2.18-38.6.87-5.6,4.44-14.78,4.66-19.37.24-4.9-3.92-9.68-2.86-17.84.84-6.49,6.28-10.91,6.89-14.1,1.65-8.67-.26-22.47,1.3-32.7,2.74-18.01,13.25-33.66,24.72-47.28-8.94-.67-17.15-2.16-24.47-7.52-2.04-1.49-3.46-3.97-5.61-5.39-3.09-2.03-6.9-2.6-10.39-5.61-9.04-7.8-11.03-21.49-4.71-31.67,1.41-2.28,5.7-5.65,6.06-7.04.41-1.58-.9-3.69-.44-4.33.99-1.39,6.66-2.06,8.26-3.25,1.13-.83,2.69-4.02,4.84-5.66,4.39-3.34,9.97-5.18,13.37-9.67.19-1.13-8.7-15.65-9.46-19.3-3.88-18.85,12.21-38.19,22.39-52.71-12.46-21.03,2.79-35.01,16.93-48.84-2.89-4.35-5.42-9.85-5.69-15.17-.19-3.71,2.24-8.65,1.76-10.65-.23-.98-6.8-7.39-8.38-10.66-11.06-22.87,9.14-43.44,32.53-37.03,2.11-20.42,12.81-39.25,20.49-58.02,6.97-17.06,10.63-34.35,23-49,29.19-34.53,74.89-15.79,97.02,16.01,6.49-5.45,11.22-12.58,18.58-17.41,27.87-18.3,64.25-10.08,82.88,16.95l1.52.46c16.6-23.3,47.19-42.31,76.5-31.49,26.88,9.93,33.98,41.13,43.53,64.47,7.68,18.78,18.4,37.64,20.49,58.02ZM48.43,393.61c6.38.75,13.97-.55,20.5,0-16.78,18.6-31.37,37.38-33.04,63.46-.47,7.42,1.09,17.01-.02,23.98-.72,4.51-5.95,6.56-6.85,13.14-1.15,8.43,2.92,11.93,2.95,16.9.03,3.86-3.95,14.27-4.78,19.29-1.72,10.41-3.56,29.49-2.18,39.64.52,3.8,4.72,9.5,4.7,10.9-.02,1.16-4.43,12.46-5.3,14.67-2.74,6.94-6.86,13.48-9.66,20.34-12.23,30.04-14.38,92.91,3.77,120.58,6.36,9.71,21.54,22.5,25.66,32.34,2.08,4.97,2.95,14.25,5.04,19.96,7.24,19.79,21.8,25.44,41.36,28.64,10.38,1.7,30.08,1.44,38.62,4.38,1.49.51,7.18,7.28,9.81,9.19,26.96,19.56,78.25,19.93,106.95,4.09,10.4-5.74,19.74-15.36,24.97-26.03,9.43-1.96,18.63-1.95,28.03,0,9.22,18.83,27.48,30,47.61,34.39,31.1,6.78,71.68,3.38,94.09-21.66,25.51-4.49,65.03-.13,77.99-28.01,3.55-7.63,4.48-19.9,7.87-26.13,7.93-14.55,22.82-24.71,30.28-40.72,10.51-22.55,9.35-80.19,1.16-103.87-3.29-9.51-8.81-18.17-12.5-27.5-.87-2.21-5.28-13.51-5.3-14.67-.03-1.41,4.18-7.1,4.7-10.9,1.38-10.15-.46-29.23-2.18-39.64-.83-5.04-4.8-15.38-4.77-19.28.02-3.69,4-8.08,3.78-13.72-.34-8.62-6.88-11.31-7.68-16.32-1.11-6.98.46-16.56-.02-23.98-1.66-25.95-16.23-45.01-33.04-63.46h20.5c3.89,0,11.46-3.83,14.54-6.46,1.49-1.27,2.2-3.71,3.41-4.59,1.69-1.24,4.12-1.02,5.95-2.05,10.78-6.06,15.73-16.86,8.44-28.24-2.77-4.32-9.69-5.92-6.85-10.63-5.68-.37-6.96-5.21-10.49-8.03-5.35-4.28-13.37-6.71-17.43-13.64,4.27-5.88,12.89-18.65,12.92-25.86.05-13.59-17.4-35.73-25.6-46.45-.34-1.35,2.89-3.58,3.82-5.34,9.93-18.87-10.3-30.89-21.19-43.21,8.36-7.18,10.02-17.03,5.14-26.85,24.47-18.36,10.48-51.47-19.86-38.79l-1.83-.81c-1.57-22.26-12.76-41.88-20.95-62.06-14.02-34.55-23.72-76.15-72.96-61.92-18.44,5.33-31.15,22.05-43.13,35.9-1.81.39-5.8-8.31-7.46-10.44-25.19-32.26-74.93-25.78-92.5,10.48-2.08.48-8.27-9.16-9.96-11.02C208.13,14.56,185.63-1.13,158.67,8.85c-24.93,9.23-31.47,40.08-40.26,61.74-8.19,20.18-19.37,39.79-20.95,62.06-1.08,1.79-8.85-1.87-11.99-2.08-19.5-1.34-28.91,18.16-17.54,33.54,1.44,1.95,7.57,6.69,7.84,8.15-4.88,9.83-3.22,19.67,5.14,26.85-10.89,12.32-31.12,24.34-21.19,43.21.92,1.76,4.16,3.99,3.82,5.34-8.09,10.45-26.47,34.05-25.54,47.3.5,7.19,8.61,19.1,12.86,25.01-4.03,6.75-11.48,9.11-16.86,13.2-4.36,3.31-8.06,8.2-10.62,12.38-.91,1.49-5.35,3.71-7.28,6.72-7.56,11.79-2.06,22.65,9.15,28.53,6.37,3.34,3.93,2.3,8.66,6.34,3.68,3.15,9.76,5.9,14.54,6.46ZM309.23,67.7c0,13.42-10.88,24.29-24.29,24.29s-24.29-10.88-24.29-24.29,10.88-24.29,24.29-24.29,24.29,10.88,24.29,24.29ZM303.51,67.68c0-10.26-8.32-18.57-18.57-18.57s-18.57,8.32-18.57,18.57,8.32,18.57,18.57,18.57,18.57-8.32,18.57-18.57Z"/>
</svg>