<?xml version="1.0" encoding="UTF-8"?>
<svg id="_レイヤー_1" data-name="レイヤー 1" xmlns="http://www.w3.org/2000/svg" width="204.61mm" height="305.86mm" viewBox="0 0 580 867">
  <path d="M337.02,33.99h1.47c15.66-22.01,47.79-27.11,66.02-5.01,11.62,14.08,24.68,60.69,29.99,80.01,3.77,13.75,5.51,26.6,6.7,40.8,17.9,4.41,29.6,19.95,21.36,38.25-.82,1.83-3.53,3.8-3.4,5.26.18,2.02,7.47,13.47,9.02,17.01,10.91,24.93,6.52,51.16,14.09,76.91,4.9,16.67,23.63,18.6,20.65,40.18-.48,3.48-2.49,7.55-4.89,10.09,18.89,9.62,22.34,34.05,2.92,45.06,11.26,16.84,7.82,37.87-11,46.99,2.16,4.64,5.04,7.87,5.8,13.2.62,4.38-1.11,10.21-.56,12.48.38,1.6,3.88,5.58,5.01,8.08,3.32,7.36,5.39,15.19,8.33,22.67,4.39,11.15,11.22,18.3,9.4,31.43-.57,4.1-3.43,6.96-3.83,10.93,21.26,15.25,13.43,44.54-12.08,48.67,9.65,16.22,17.62,38.05-2.29,50.2-2.46,1.5-6.27,1.3-6.76,4.31,5.28,43.89,15.87,84.71-2.77,127.15-2.34,5.33-11.14,17.87-11.98,21.09s1.73,10.82,1.71,14.63c-.15,21.05-14.97,37.32-34.86,42.14-8.24,2-24.91,1.9-31.27,4.73-2.55,1.14-8.13,6.89-11.85,9.15-27.63,16.83-75.97,14.57-97.89-10.95-1.81-2.1-5-8.38-6.5-8.56-8.61-1.44-11.03,7.27-16.03,12.08-26.12,25.12-81.9,24.89-107.2-1.79-30.74-2-59.69-6.35-65.18-41.82-.48-3.13.48-6.81-.34-9.66-.47-1.65-11.64-15.9-13.96-20.04-23.85-42.6-15.17-76.11-9.95-121.3.38-3.33,2.08-16.27.13-17.88-.96-.79-4.02-1.25-5.72-2.28-19.76-12.04-11.98-34.1-2.29-50.2-25.56-4.04-34.37-33.55-11.93-48.57-1.78-4.27-4.68-9.41-5-14.08-.73-10.43,6.84-18.21,10.67-27.12,3.36-7.81,5.14-17.23,9.09-24.91,1.35-2.62,6.07-7.77,6.61-9.29.49-1.37-.81-9.69-.19-13.3s3.28-7.41,5.74-10.24c-18.94-9.58-22.55-28.51-11.22-46.01-13.63-8.31-17.86-27.59-6.3-39.52,3.31-3.42,17.52-10.31,18.15-12.91.82-3.37-3.03-8.59-3.53-12.64-1.89-15.28,7.16-20.17,10.47-31.36,7.58-25.65,2.85-51.31,13.59-76.41,1.06-2.48,7.46-13.35,7.52-14.15.04-.65-3.21-7.09-3.54-10.1-1.29-11.52,4.25-18.34,12.41-25.36,4.99-4.29,14.05-8.27,16.68-14.32,2.88-6.62,2.71-18.28,4.1-25.89,3.91-21.32,16.06-54.11,24.2-74.8,5.14-13.07,13.47-28.18,26.79-34.21,16.39-7.41,36.66-.93,48.19,12.15,24.93-23,68.62-19.28,87.52,9.04ZM435.13,153.86c-1.26-10.62-1.51-21.38-3.6-31.9-3.53-17.78-20.26-72.51-29.72-86.28-12.57-18.3-32.27-20.03-49.83-7.2l-14.48,15.51c-11.98-20.22-31.41-30.1-55.05-28.03-13,1.14-24.21,8.87-33.82,16.96-14.96-19.24-40.87-25.6-57.47-4.25-9.86,12.69-28.34,67.04-32.66,84.34-2.64,10.56-2.47,21.27-4.79,31.21-3.63,15.56-15.96,16.65-25.26,26.74-7.49,8.13-6.58,17.67-.62,26.36-3.36,5.95-7.5,12.7-10.03,19-9.2,22.94-5.05,49.69-12.27,73.73-2.74,9.12-11.33,15.04-10.49,27.3.53,7.76,7.15,9.82,3.03,18.24-1.66,3.4-13.54,8.51-17.61,12.38-11.39,10.81-7.44,28.21,7.59,32.6-3.21,12.24-12.87,23.68-3.48,36.34,3.86,5.21,14.45,9.28,14.95,10.04,2.83,4.29-3.61,7.41-5.39,10.69-4.29,7.94-.13,13.21-1.29,17.62-.36,1.37-6.3,8.49-7.73,11.36-3.69,7.39-5.18,16.14-8.39,23.61-5.97,13.92-17.01,22.97-4.12,38.82-2.77,5.24-8.11,6.8-11.04,12.02-7.27,12.97-1.34,25.94,12.46,30.4,2.66.86,11.68,1.56,11.98,3.05-11.4,17.63-23.99,45.95,6.06,52.09,1.13,21.89-5.78,43.19-7.05,64.9-1.86,31.82,3.59,58.3,21.18,84.81,1.41,2.12,9.44,11.53,9.58,12.3.25,1.29-1.01,5.1-.77,7.86,1.98,22.11,14.95,32.32,35.79,36.23,7.09,1.33,20.71,1.23,26.45,3.55,3.31,1.34,11.89,9.81,17.44,12.56,25.96,12.85,67,8.73,86.29-14.34,1.43-1.71,4.26-7.55,5-8,.79-.47,13.09-1.77,14.52-1.49,2.64.52,4.5,6.05,6.53,8.49,22.75,27.29,69.46,28.44,97.3,8.35,2.15-1.55,5.71-6.14,7.37-6.63,7-2.05,19.39-1.91,27.48-3.52,24.96-4.95,35.06-18.8,33.81-44.17-.13-2.59-1.96-5.9-1.72-7.89s5.79-8.89,7.25-11.6c9.94-18.46,15.41-36.38,16.47-57.53,1.43-28.38-8.29-56.56-8.05-84.88,30.06-6.21,17.55-34.39,6.06-52.09,1.71-2.44,4.79-1.12,7.27-1.76,12.4-3.21,21.51-10.3,19.76-24.29-1.09-8.75-9.22-12.66-13.58-19.38.84-4,4.16-5.61,5.11-10.03,2.47-11.54-5.17-20.2-9.06-30.05-2.67-6.77-4.16-14.08-7.33-20.67-1.49-3.1-6.6-9.5-6.99-11.09-.7-2.87,1.45-5.18,1.76-7.84,1.2-10.41-7.38-13.63-7.99-18.89-.58-4.92,1.15-2.93,4.44-4.61,10.42-5.3,16.09-14.4,14.53-26.32-.67-5.15-6.87-15.01-5.96-18.88,10.54-5.74,16.09-15.16,10.79-26.94-3.35-7.45-11.1-9.14-16.72-14.26,1.29-1.59,3.32-2.86,4.42-4.56,13.29-20.46-12.18-27.66-17.17-44.7-1.56-5.33-5.52-22.52-6.18-27.82-.79-6.26.39-13.49-.1-19.9-1.34-17.9-9.35-34.19-18.75-49.02,17.13-16.13,3.96-35.46-16.1-38.62ZM318.57,65.06c0,13.53-10.97,24.49-24.49,24.49s-24.49-10.97-24.49-24.49,10.97-24.49,24.49-24.49,24.49,10.97,24.49,24.49ZM293.66,46.38c-24.31.5-23.04,38.15.75,37.54,24.09-.62,23.25-38.03-.75-37.54ZM210,360h9v-14h10v14h9v-34h-9.01s.01,13.01.01,13.01h-9.43s-.57-13.01-.57-13.01h-9.01v34.01ZM310,326v34h9v-16c7.62,6.7,6.29,20.18,20.01,15.49l-10.03-17.07,10.02-16.41-10.8.2-9.2,13.79v-14h-9ZM245,326v24.5c0,.55,2.49,5.13,3.13,5.87,5.3,6.14,19.21,5.06,23.08-2.66.31-.62,1.79-4.94,1.79-5.21v-22.5h-9v22.5c0,5.96-10,5.69-10,1v-23.5h-9ZM279.52,339.98c2.44,5.82,17.04,6.24,15.47,11.49-1.08,3.61-12.53.64-14.98-1.47l-1.59,7.04c7.72,4.44,25.31,5.59,25.67-6.53.2-6.57-2.5-7.87-7.71-10.38-2.43-1.17-12.74-2.74-6.95-7.21,3.44-2.65,8.6,1.27,12.52,1.05l.97-6.89c-9.32-3.21-29.54-1.78-23.39,12.9ZM342.01,326.49c6.51,10.5,13.08,20.54,10.99,33.51h10.01c-2.24-13.31,4.9-23.02,10.99-34-2.71.4-7.81-.86-10.02.47-1.94,1.17-4.36,12.24-5.49,12.53-1.98.5-1.44-.85-1.95-2-1.47-3.3-2.63-7.4-3.65-10.89l-10.88.37ZM215.97,232c.54-.39,2.95-13.52,5.02-12,1.43,4.95-.14,10.89,7.01,10-.13-3.2-.38-8.75,3.99-9,1.45,4.06-.28,10.47,6,9.99,2.35-7.43-3.21-19.91-11.5-12.17l-6.01-3.81-6.47,3.98v-4c-8.25-.18-6.2,17.99,1.96,17ZM209.02,602.49c3.16,1.45,5.39-.3,8.37-.4,1.23-.04,2.77,1.02,4.16.98,2.66-.07,5.35-3.04,9.44-1.08l-2-13c-8.42-1.54-4.28,5.01-8.5,9-2.07-2.76-.07-13.1-5.91-8.88-2.72,1.96.61,7.9-3.57,9.88l-1.02-12c-8.36-1.75-5.91,13.23-.98,15.49ZM292,234c-2.16.67-3.7-1.84-5.32-1.8-2.11.06-3.33,2.21-6.68,1.38-13.48-3.35-6.56-20.2,5.99-15.58-3.82-11.38,6.01-9.25,6.01-1.5v17.5ZM279.09,221.09c-5.56,17.2,13.71,5.22,3.88.43-1.23-.6-2.55-.83-3.88-.43ZM345.75,630.26c2.28,2.7.79,17.13,2.18,21.67-2.51,1.74-4.31-.81-6.25-.7-3.88.21-5.35,3.25-10.66-.75-8.35-6.29,1.7-17.59,9.97-13.47v-8c.41-.41,4.08.45,4.76,1.25ZM334.09,648.9c11.12,1.05,5.61-12.41.33-8-2.41,2.22-1.35,5.28-.33,8ZM300,605c-6.71-2.22-13.01,2.87-18.01-3.48-6.43-8.17,4.09-14.48,12-12.52l-.99-6.99c4.58-1.75,6.99,5.3,6.99,8.49v14.5ZM288.64,592.08c-3.79.63-5,7.89-1.04,9.84,2.95-.41,5.24-2.7,6.15-5.44-.97-1.22-3.59-4.66-5.11-4.4ZM301,226.01c2.72,4.46,7.1,4.64,11.27,2.01.35-.22,4.72-6.4,5.73-1.5,1.29,6.25-13.94,9.06-19.93,2.9-10.35-10.66,7.53-18.59,13.41-12.41,7.16,7.52-3.43,12.51-10.49,9ZM308,223c.77-6.16-3.4-6.13-7-2.48-.68,2.97,5.23,2.69,7,2.48ZM308,545.01c3.42,6.11,10.52,4.44,13.51-1.01,3.91-1.01,5.12,7.13-5.02,8-16.87,1.46-20.08-19.05-3.12-17.96,7.34.47,10.85,10.67,2.04,11.92-2.91.41-4.75-.55-7.42-.96ZM315,542c.77-6.16-3.4-6.13-7-2.48-.68,2.97,5.23,2.69,7,2.48ZM286.01,645c2.12,6.77,10.66,3.35,13.5-1,6.93,4.43-2.12,7.96-7.01,8.08-10.74.26-17.6-12.63-8.75-16.83,15.11-7.17,21.68,15.68,2.26,9.75ZM291.89,637.1c-1.96-1.23-8.32,1.88-6.89,3.89l7.99,1-1.1-4.89ZM320.79,596.77c-3.98,1.88-7.55,2.4-11.79,1.24,1.63,4.15,7.89,3.81,11,1.48,1.57-1.18,2.43-5.48,4.88-2.37.95,1.2-.22,3.85-1.32,4.94-6.23,6.14-21.72.65-20.53-8.47,1.37-10.53,22.02-8.56,17.77,3.18ZM311.74,590.17c-1.4.28-2.78,1.25-3.72,2.33,7.48,7.45,11.57-3.88,3.72-2.33ZM246.91,222.54c-1.23-3.13.47-4.65-.86-7.08l-3.96-.36c-3.65,7.67,3.82,16.2,11.9,13.9-.7,5.75-5.17,3.19-8.99,3.01,12.98,11.34,18.07-4.46,16-16.01l-4.84.17c-1.53,4.22-5.87,14.98-9.25,6.38ZM375.76,552.76c-3.42,3.28-12.49,2.5-15.76-1.26,3.38-1.6,8.11,1.19,10.99-2.01l-7.7-2.29c-13.8-10.29,10.14-22,12.62-6.61.34,2.09,1.08,10.99-.15,12.17ZM367.65,536.09c-2.91.49-5.66,7.63-2.04,8.83,6.29,2.08,6.84-9.64,2.04-8.83ZM289.14,535.86c.6.96,8.63.72,11.11,6.41,3.64,8.36-12.13,12.75-15.69,7.69-2.17-3.08-2.93-20.42.93-20.72,4.8.65,2.73,5.15,3.66,6.63ZM289.01,540c.03,1.91-.96,9.73,2.47,8.99,5.53-3.9,4.59-8.88-2.47-8.99ZM186,592.99c-2.11-4.76-7.92-2.57-12-3l.59-3.08c6.59-2.29,14.1-.85,16.74,6.27.72,1.96,2.5,9.15.71,10.39-.42.29-9.15.34-10.24.23-13.84-1.43-6.77-15.02,4.2-10.8ZM187,597.01c-1.62-1.14-9.91-2.95-7.99,1.48,1.05,2.43,8.55,2.54,7.99-1.48ZM332,220.99c-2.86-5.34-8.88-.11-11.99-3.5-.81-3.58,9.55-2.66,11.28-2.27,8.37,1.88,9.3,17.91,6.21,17.77-3.44-3.79-11.77,1.9-15.57-3.41-4.49-6.28,4.76-9.94,10.07-8.59ZM327.73,224.15c-1.19.33-1.86,1.57-2.71,2.35,0,1.79,7.62,2.58,8.96,0-1.51-1.71-3.96-2.99-6.25-2.35ZM340.03,533.43l-4.07,1.24c.54,5.27-.88,15.23,6.06,15.88,2.66-3.63,2.57-9.26,6.97-11.55,5.84,26.3,11.43,2.96,3.58-2.07-4.81-3.08-10.95,1.73-11.57,1.07l-.97-4.57ZM263.5,590.98c-8.26-16.36-9.27,14.16.41,11.92,7.43-22.42,5.51-5.17,9.58-.89.87.92,2.69,1.54,3.5.99,3.6-2.45-4.28-23.58-13.49-12.02ZM305.17,634.66c-1.14,3.64-.05,16.26,5.85,15.9,2.86-3.75,2.1-9.39,6.97-11.56.75.58,1.96,14.06,6.04,11.53,3.12-1.94-.18-11.98-2.45-13.61-4.46-3.2-10.95,1.74-11.58,1.08,1.38-4.02-3.57-7.37-4.84-3.34ZM210.01,541h-6.01s.07,2.92.07,2.92l6.93,1.08.44,6.06,4.56.94-.56-7.02c1.66-2.35,8.87,1.05,8.56-3.97l-9-1.01v-8c4.89,0,2.5,8.26,8,6.99-1.22-13.68-16.33-14.31-12.99,2.01ZM242.49,638.99c2.1-1.53,1.4-1.79.74-3.71-1.94-5.68-6.48-8.13-12.02-5.06l-1.2,10.79h-6c-.46,4.24,5.5,3.25,6.8,4.18,1.4,1,.74,10.89,6.08,5.23l-.88-6.41c.62-.63,7.63,1.3,8.99-1.52,1.52-3.1-8.4-1.78-9.55-3.42-.93-2.66-1.23-7.24,2.55-7.07.27,1.69,2.26,7.43,4.5,6.99ZM234.73,534.23c14.66-3.01,18.25,20.59,1.23,17.35-10.92-2.08-12.27-15.09-1.23-17.35ZM239.86,538.14c-10-3.04-11.07,11.48-1.42,9.86,5.6-.94,2.75-6.35,1.42-9.86ZM381.95,602.55c6.26,2.01,7.65-2.39,8.54-2.4.52,0,4.92,4.34,7.51,2.84l-5.94-14.58-4.84.81c-.69.96-1.07,11.03-3.7,9.76-3.02-3.2-3.78-7.79-3.52-12-9.58-1.34-3.92,13.67,1.95,15.56ZM370.98,588.56c-.36-5.58-6.57-7.62-11.32-6.6-2.26.54-1.54,9.07-1.71,10.99l-5.95,1.06c-.7,4.49,6.49,2.47,7,2.98-.2,3.23-.47,6.07,2.51,8,3.27.69,2.94-6.16,1.48-7.98l9-1.02-1.67-2.82-7.33-.17v-8c1.51-1.72,8.6,13.04,7.99,3.55ZM240.73,587.24c5.35-.99,8.69-.9,11.46,4.06,8.79,15.71-17.74,16.71-18.27,4.18-.2-4.68,2.35-7.41,6.8-8.24ZM242.71,590.16c-9.16,2.56-.03,18.74,6.09,6.54-1.15-3.14-1.62-7.79-6.09-6.54ZM341.99,215.52c.5,4.19,1.35,16.95,6.68,17.37,4.36.35,1.29-12.1,8.77-10.91,2.19.35,3.42,3.7,5.54.52-2.99-5.92-8.66-4.52-13.95-2.51-.37-4.02-3.03-6.41-7.04-4.47ZM248,634c-.54,3.89,1.41,19.57,7.48,18l3.68-10.83c3.02-1.86,9.52,4.18,8.86.33-1.04-6.09-10.66-5.01-14.01-1.49l-1.15-5.86-4.86-.14ZM250.13,535.58c-.56,2.47,2.47,15.93,6.55,16.26,5.43.44.79-12.11,8.76-10.86,1.15.18,4.89,3.72,5.56.5.97-4.65-11.53-5.36-13.98-1.49,1.34-4.64-5.93-8.65-6.88-4.42ZM328.94,586.44c-2.08,1.41.89,20.56,8.05,17.56.2-3.82.63-8.19,4.04-10.55l7.97,1.54c-1.31-6.32-9.68-6.1-13.98-2.99l-2.14-5.86c-.82-.5-3.1-.27-3.94.3ZM406,588.5c0-.91-1.58-3.97-1.48-5.52l-2-.98-1.51,1.49v17c0,1.49,3.07,4.47,5,3.5v-15.5ZM368.5,225.98c1.89-1.22,1.35-2.68,1.53-4.45.42-4.3,2.25-12.16-4.02-11.53-1.24,5.16-1.7,12.07,2.49,15.98ZM332.86,540.64l-4.85-1.65c-.07,4.65-1.1,11.96,4.99,13l-.14-11.35ZM271.99,639.59c-1.69,16.82,8.82,15.51,3.87-.44l-3.87.44ZM194.01,214.01c2.77,10.01,8.06,20.6,13.98,28.99l-13.98-28.99ZM397.99,211c-1.5.23-1.87,1.89-2.51,2.98-3.34,5.63-8.26,15.28-10.7,21.3-.37.91-1.88,3.82.21,3.71l13-27.99ZM387.99,203.01c-1.65,1.17-2.98,4.71-3.85,6.63-2.58,5.74-6.27,14.34-7.7,20.31-.24,1.01-1.32,3.27.55,3.04l11-29.99ZM272.51,629.01c-3.73,1.12.55,9.45,4.48,7.98-.28-2.3-.58-9.16-4.48-7.98ZM328.51,529.01c-3.3.85.99,9.63,4.48,7.99.48-2.62-.55-9.01-4.48-7.99ZM183.15,222.58l12.16,17.87,1.36-.93-12.16-17.87-1.36.93ZM373,309h9v-18l10.16,17.84,8.84.16v-34h-8v18c-2.36.49-1.61-.3-2.24-1.29-1.69-2.62-7.18-15.27-8.74-16.22-2.1-1.28-6.48-.14-9.01-.49v34ZM259,275v34h22v-7.01s-13.01.01-13.01.01v-6.43s12.01-.57,12.01-.57v-7.01s-12.01.01-12.01.01v-6.01s13.01.01,13.01.01v-7.01h-22.01ZM203.57,276.94c-6.92-3.49-23.88-3.99-24.63,6.57-.91,12.69,16.16,10.61,16.11,16-.06,6.86-14.22-.23-15.05.49l-.92,6.91c8.31,3.24,24.85,4.93,25-7.41.16-13.07-16.14-9.64-16.13-15,1-6.44,13.96-.33,15.04-1.5l.57-6.07ZM211,275v34h10v-34h-10ZM321,275v34h10v-34h-10ZM304.5,275c10.36,1.72,13.58,13.49,3.48,18.52l7.02,15.47-9.9-.09c-.99-3.89-1.42-11.74-6.58-11.93-2.12-.08-1.3,0-1.52,1.5-.28,1.91.4,10.15.01,10.54h-9.01v-34.01c5.06.58,11.67-.8,16.5,0ZM297,291c10.15.38,11.35-10.49,0-9.01v9.01ZM297,282v9.01c10.16.38,11.36-10.49,0-9.01ZM243.5,275c5.86.82,11.62,5.16,8.74,11.74-1.76,4.02-5.53,1.9-5.24,5.25,6.84.06,9.08,9.42,4.72,13.73-.64.63-7.55,3.28-8.22,3.28h-14.5v-34c4.56.45,10.09-.62,14.5,0ZM238,288c8.89.87,9.98-7.56,0-6.01v6.01ZM238,302.01c10.21,1.5,10.56-8.63,0-7.01v7.01ZM238,295v7.01c10.2,1.5,10.56-8.63,0-7.01ZM238,281.99v6.01c8.9.87,9.99-7.56,0-6.01ZM356.86,275.14l11.14,33.85-9.95-.05-1.15-6.84h-9.8s-1.15,6.84-1.15,6.84l-9.95.04,11.1-33.89,9.76.04ZM352.99,284c-2.59-.28-1.59,0-2.02,1.47s-2.44,10.07-1.97,10.53h6l-2.01-12ZM350.97,285.46c-.45,1.53-2.44,10.07-1.97,10.53h6l-2.01-12c-2.59-.28-1.59,0-2.02,1.47ZM282.97,221.53c-1.23-.6-2.55-.83-3.88-.43-5.56,17.2,13.71,5.22,3.88.43ZM334.42,640.91c-2.41,2.22-1.35,5.28-.33,8,11.12,1.05,5.61-12.41.33-8ZM287.6,601.92c2.95-.41,5.24-2.7,6.15-5.44-.97-1.22-3.59-4.66-5.11-4.4-3.79.63-5,7.89-1.04,9.84ZM301,220.51c-.68,2.97,5.23,2.69,7,2.48.77-6.16-3.4-6.13-7-2.48ZM308,539.51c-.68,2.97,5.23,2.69,7,2.48.77-6.16-3.4-6.13-7-2.48ZM285.01,640.99l7.99,1-1.1-4.89c-1.96-1.23-8.32,1.88-6.89,3.89ZM308.02,592.5c7.48,7.45,11.57-3.88,3.72-2.33-1.4.28-2.78,1.25-3.72,2.33ZM365.61,544.92c6.29,2.08,6.84-9.64,2.04-8.83-2.91.49-5.66,7.63-2.04,8.83ZM291.47,548.99c5.53-3.9,4.59-8.88-2.47-8.99.03,1.91-.96,9.73,2.47,8.99ZM179.01,598.49c1.05,2.43,8.55,2.54,7.99-1.48-1.62-1.14-9.91-2.95-7.99,1.48ZM325.02,226.5c0,1.79,7.62,2.58,8.96,0-1.51-1.71-3.96-2.99-6.25-2.35-1.19.33-1.86,1.57-2.71,2.35ZM238.45,548c5.6-.94,2.75-6.35,1.42-9.86-10-3.04-11.07,11.48-1.42,9.86ZM336,738c4.92.06,20-2.09,17.58,7.03-.98,3.67-4.91,2.86-4.58,5.96,5.27.19,7.21,4.9,4.86,9.38-2.88,5.48-12.46,4.53-17.86,4.64v-27ZM341,749l7.91-2.62-.39-3.41-7.52-1.98v8.01ZM341,761c12.37,1.34,12.43-10.06,0-9.01v9.01ZM251,765h5.01c.46-3.77-1.24-12.34,1.47-15.02,1.82-1.8,6.53-1.03,6.53.52v14.5h5.01c.6-9.46.45-26.93-13-17v-11s-5.01,0-5.01,0v28ZM309,757h-13c.19,6.06,5.99,5.44,10.36,3.91l1.63,2.59c-7.46,3.59-16.74,1.35-17.04-8.04-.45-14.47,21.24-13.86,18.05,1.54ZM305,754c1.1-7.85-10.1-7.86-9.01,0h9.01ZM317,757c.73,1.93,1.86,3.89,3.95,4.58,2.96.98,10.92-2.47,7.97,2.33-1.86,3.02-14.12.83-15.71-4.61-5.13-17.49,20.09-19.83,17.79-2.29h-14ZM327,753.99c-.09-6.88-7.95-8.33-9.98-1.48-.87,2.95,8.54.89,9.98,1.48ZM225,738v3s8,0,8,0v24h5v-22.5l1.65-1.34,6.35-.16v-3h-21.01ZM274,765h5.01c.09-7.88-2.2-15.63,8.03-16.52l-.04-3.48-8.5,3.99-.59-2.87-3.91-.13v19ZM341,752v9.01c12.36,1.34,12.43-10.06,0-9.01ZM348.92,746.38l-.39-3.41-7.52-1.98v8.01s7.92-2.62,7.92-2.62ZM296,754h9.01c1.1-7.85-10.1-7.86-9.01,0ZM317.01,752.52c-.87,2.95,8.54.89,9.98,1.48-.09-6.88-7.95-8.33-9.98-1.48ZM248.8,596.7c-1.15-3.14-1.62-7.79-6.09-6.54-9.16,2.56-.03,18.74,6.09,6.54ZM327.52,492.06c-6.39.06-.33-14.47-8.04-10.08-2.89,7.9,4.32,16.96,12.51,13.02-.31,4.76-5.61,4.83-8.98,3-2.15,2.76,9.1,7.12,13.47.98,1.62-2.28,3.6-15.43,1.43-16.88-6.95-1.72-4.91,8.17-10.39,9.96ZM306.01,486.51l-1.63-2.44-8.89,2.89c-2.96-1.87-.44-6.81-1.93-9-.99-1.45-4.11-1.42-5.12,0-.42.59.42,12.75.66,14.46.47,3.41,1.92,7.21,5.91,6.58v-8c6.92-1.73,3.98,9.6,12,8,.87-3.19-4.02-8.29-2.72-10.78.14-.27,1.29-.22,1.41-.45l.32-1.27ZM261.99,499c-5.23-1.34-18.61,2.11-18.1-6.51.33-5.56,7.91-5.67,12.1-4.99-3.19-4.95-12.26.43-12.99-5.5,13.4-3.95,20.37,3.71,18.99,16.99ZM257,493.99c-1.34-3.67-7.17-5.22-8.99-1.48-1.38,2.84,7.6,2.74,8.99,1.48ZM271.5,485.98c-8.26-16.36-9.27,14.16.41,11.92,7.43-22.42,5.51-5.17,9.58-.89.87.92,2.69,1.54,3.5.99,3.6-2.45-4.28-23.58-13.49-12.02ZM373.5,493.98c-3.65-2.69-3.16-7.1-3.94-11.04l-4.55-.95c-2.09,9.44,5.44,21.75,14.63,13.1l6.84,2.91c1.79-.37,1.25-1.24.51-2.48-2.44-4.07-4.62-5.95-4.45-11.56-1.01-1.59-4.28-.78-5.31.28-1.37,1.43-1.83,9.74-3.74,9.74ZM223,496.5c0,.8,3.72,3.7,5.04,2.04l1.87-10.96c4.08-5.54,5.2,12.4,8.59,12.39,5.15-2.91.15-14.52-4.2-15.78-2.05-.59-4.34.26-6.37-.63l-1.41-5.59-3.51-.99v19.5ZM357.72,483.29c1.31,1.07,4.2,7.52,4.27,9.33.28,7.72-15.41,9.27-19.85.75-4.76-9.13,9.76-14.82,15.58-10.08ZM350.73,485.13c-7.11,1.06-5.58,11.19.67,10.88,7.83-.39,4.44-11.64-.67-10.88ZM218.32,479.18c-3.43-1.69-26.35-2.22-26.3,1.32,3.17,4.08,6.75,1.11,10.86,1.62,2.05,1.29-.44,19.22,7.12,16.38l-1.01-16.5c1.77.6,15.06.01,9.32-2.81ZM248.01,492.51c-1.38,2.84,7.6,2.74,8.99,1.48-1.34-3.67-7.17-5.22-8.99-1.48ZM351.4,496.01c7.83-.39,4.44-11.64-.67-10.88-7.11,1.06-5.58,11.19.67,10.88Z"/>
</svg>