<?xml version="1.0" encoding="UTF-8"?>
<svg id="_レイヤー_1" data-name="レイヤー 1" xmlns="http://www.w3.org/2000/svg" width="167.27mm" height="300.51mm" viewBox="0 0 474.15 851.84">
  <path d="M284.81,24.31h1.47c15.66-22.01,47.79-27.11,66.02-5.01,11.62,14.08,24.68,60.69,29.99,80.01,3.77,13.75,5.51,26.6,6.7,40.8,17.9,4.41,29.6,19.95,21.36,38.25-.82,1.83-3.53,3.8-3.4,5.26.18,2.02,7.47,13.47,9.02,17.01,10.91,24.93,6.52,51.16,14.09,76.91,4.9,16.67,23.63,18.6,20.65,40.18-.48,3.48-2.49,7.55-4.89,10.09,18.89,9.62,22.34,34.05,2.92,45.06,11.26,16.84,7.82,37.87-11,46.99,2.16,4.64,5.04,7.87,5.8,13.2.62,4.38-1.11,10.21-.56,12.48.38,1.6,3.88,5.58,5.01,8.08,3.32,7.36,5.39,15.19,8.33,22.67,4.39,11.15,11.22,18.3,9.4,31.43-.57,4.1-3.43,6.96-3.83,10.93,21.26,15.25,13.43,44.54-12.08,48.67,9.65,16.22,17.62,38.05-2.29,50.2-2.46,1.5-6.27,1.3-6.76,4.31,5.28,43.89,15.87,84.71-2.77,127.15-2.34,5.33-11.14,17.87-11.98,21.09s1.73,10.82,1.71,14.63c-.15,21.05-14.97,37.32-34.86,42.14-8.24,2-24.91,1.9-31.27,4.73-2.55,1.14-8.13,6.89-11.85,9.15-27.63,16.83-75.97,14.57-97.89-10.95-1.81-2.1-5-8.38-6.5-8.56-8.61-1.44-11.03,7.27-16.03,12.08-26.12,25.12-81.9,24.89-107.2-1.79-30.74-2-59.69-6.35-65.18-41.82-.48-3.13.48-6.81-.34-9.66-.47-1.65-11.64-15.9-13.96-20.04-23.85-42.6-15.17-76.11-9.95-121.3.38-3.33,2.08-16.27.13-17.88-.96-.79-4.02-1.25-5.72-2.28-19.76-12.04-11.98-34.1-2.29-50.2-25.56-4.04-34.37-33.55-11.93-48.57-1.78-4.27-4.68-9.41-5-14.08-.73-10.43,6.84-18.21,10.67-27.12,3.36-7.81,5.14-17.23,9.09-24.91,1.35-2.62,6.07-7.77,6.61-9.29.49-1.37-.81-9.69-.19-13.3s3.28-7.41,5.74-10.24c-18.94-9.58-22.55-28.51-11.22-46.01-13.63-8.31-17.86-27.59-6.3-39.52,3.31-3.42,17.52-10.31,18.15-12.91.82-3.37-3.03-8.59-3.53-12.64-1.89-15.28,7.16-20.17,10.47-31.36,7.58-25.65,2.85-51.31,13.59-76.41,1.06-2.48,7.46-13.35,7.52-14.15.04-.65-3.21-7.09-3.54-10.1-1.29-11.52,4.25-18.34,12.41-25.36,4.99-4.29,14.05-8.27,16.68-14.32,2.88-6.62,2.71-18.28,4.1-25.89,3.91-21.32,16.06-54.11,24.2-74.8,5.14-13.07,13.47-28.18,26.79-34.21,16.39-7.41,36.66-.93,48.19,12.15,24.93-23,68.62-19.28,87.52,9.04ZM382.92,144.18c-1.26-10.62-1.51-21.38-3.6-31.9-3.53-17.78-20.26-72.51-29.72-86.28-12.57-18.3-32.27-20.03-49.83-7.2l-14.48,15.51c-11.98-20.22-31.41-30.1-55.05-28.03-13,1.14-24.21,8.87-33.82,16.96-14.96-19.24-40.87-25.6-57.47-4.25-9.86,12.69-28.34,67.04-32.66,84.34-2.64,10.56-2.47,21.27-4.79,31.21-3.63,15.56-15.96,16.65-25.26,26.74-7.49,8.13-6.58,17.67-.62,26.36-3.36,5.95-7.5,12.7-10.03,19-9.2,22.94-5.05,49.69-12.27,73.73-2.74,9.12-11.33,15.04-10.49,27.3.53,7.76,7.15,9.82,3.03,18.24-1.66,3.4-13.54,8.51-17.61,12.38-11.39,10.81-7.44,28.21,7.59,32.6-3.21,12.24-12.87,23.68-3.48,36.34,3.86,5.21,14.45,9.28,14.95,10.04,2.83,4.29-3.61,7.41-5.39,10.69-4.29,7.94-.13,13.21-1.29,17.62-.36,1.37-6.3,8.49-7.73,11.36-3.69,7.39-5.18,16.14-8.39,23.61-5.97,13.92-17.01,22.97-4.12,38.82-2.77,5.24-8.11,6.8-11.04,12.02-7.27,12.97-1.34,25.94,12.46,30.4,2.66.86,11.68,1.56,11.98,3.05-11.4,17.63-23.99,45.95,6.06,52.09,1.13,21.89-5.78,43.19-7.05,64.9-1.86,31.82,3.59,58.3,21.18,84.81,1.41,2.12,9.44,11.53,9.58,12.3.25,1.29-1.01,5.1-.77,7.86,1.98,22.11,14.95,32.32,35.79,36.23,7.09,1.33,20.71,1.23,26.45,3.55,3.31,1.34,11.89,9.81,17.44,12.56,25.96,12.85,67,8.73,86.29-14.34,1.43-1.71,4.26-7.55,5-8,.79-.47,13.09-1.77,14.52-1.49,2.64.52,4.5,6.05,6.53,8.49,22.75,27.29,69.46,28.44,97.3,8.35,2.15-1.55,5.71-6.14,7.37-6.63,7-2.05,19.39-1.91,27.48-3.52,24.96-4.95,35.06-18.8,33.81-44.17-.13-2.59-1.96-5.9-1.72-7.89s5.79-8.89,7.25-11.6c9.94-18.46,15.41-36.38,16.47-57.53,1.43-28.38-8.29-56.56-8.05-84.88,30.06-6.21,17.55-34.39,6.06-52.09,1.71-2.44,4.79-1.12,7.27-1.76,12.4-3.21,21.51-10.3,19.76-24.29-1.09-8.75-9.22-12.66-13.58-19.38.84-4,4.16-5.61,5.11-10.03,2.47-11.54-5.17-20.2-9.06-30.05-2.67-6.77-4.16-14.08-7.33-20.67-1.49-3.1-6.6-9.5-6.99-11.09-.7-2.87,1.45-5.18,1.76-7.84,1.2-10.41-7.38-13.63-7.99-18.89-.58-4.92,1.15-2.93,4.44-4.61,10.42-5.3,16.09-14.4,14.53-26.32-.67-5.15-6.87-15.01-5.96-18.88,10.54-5.74,16.09-15.16,10.79-26.94-3.35-7.45-11.1-9.14-16.72-14.26,1.29-1.59,3.32-2.86,4.42-4.56,13.29-20.46-12.18-27.66-17.17-44.7-1.56-5.33-5.52-22.52-6.18-27.82-.79-6.26.39-13.49-.1-19.9-1.34-17.9-9.35-34.19-18.75-49.02,17.13-16.13,3.96-35.46-16.1-38.62ZM266.36,55.38c0,13.53-10.97,24.49-24.49,24.49s-24.49-10.97-24.49-24.49,10.97-24.49,24.49-24.49,24.49,10.97,24.49,24.49ZM241.45,36.69c-24.31.5-23.04,38.15.75,37.54,24.09-.62,23.25-38.03-.75-37.54Z"/>
</svg>