<?xml version="1.0" encoding="UTF-8"?>
<svg id="_レイヤー_1" data-name="レイヤー 1" xmlns="http://www.w3.org/2000/svg" width="204.61mm" height="305.86mm" viewBox="0 0 580 867">
  <path d="M238.01,55.99l10.46-13.02c23.27-21.49,58.98-21.74,82.54-.48l10.98,13.5c8.85-17.81,22.8-34.28,41.66-41.85,58.78-23.6,74.93,71.7,64.86,109.86-1.46,5.53-4.99,10.86-5.56,16.44-1.46,14.24,6.85,25.94,4.05,39.54,13.94.93,27.92,2.7,35.44,16.07,11.07,19.68-2.87,37.27-22.43,41.95,9.47,15.41,17.86,31.66,20.71,49.78,1.05,6.66,1.98,15.03,2.28,21.72.56,12.58,1.02,25.99-5.98,36.92,5.07,5.12,12.25,6.88,17.9,11.15,12.06,9.11,18.65,25.2,8.5,38.32-9.09,11.75-20.97,8.5-33.41,13.1,4.73,7.86,5.86,16.31,2.48,24.97-1.05,2.69-5.18,7.05-5.21,7.5-.08.94,6.5,14.23,7.48,17.27,1.99,6.24,3.17,10.7,2.02,17.51-.65,3.82-4.55,8.18-4.76,10.28-.34,3.35,4.08,9.74,4.73,14.22,1.55,10.61-2.25,17.54-8.53,25.53,6.72,27.17,4.07,55.61,5.75,83.26,3.67,60.51,28.53,99.93-2.79,160.13-1.73,3.32-6.91,9.6-7.72,12.28-1.25,4.18-.1,9.85-.58,14.42-3.48,33.26-35.62,38.85-63.16,40.84-27.59,29.72-79.49,28.48-104.12-4.3-1.1-1.46-3.72-6.88-4.12-6.95-3.47-.62-7.1,7.69-9.5,10.51-20.35,23.92-60.99,28.81-87.29,12.35-3.28-2.05-12.51-11.02-14.39-11.61-8.06-2.53-21.36-2.17-30.49-4.51-17.87-4.57-31.22-19.63-32.78-38.22-.29-3.42.91-9.45.46-11.61-.61-2.92-13.25-21.72-15.96-28.89-18.28-48.4-1.31-80.93,3.48-127.49,2.59-25.14.74-50.84,3.02-75.98.41-4.48,4.34-24.53,3.49-26.46-1.96-4.45-6.15-6.79-7.26-13.79-1.87-11.79,4.39-15.89,4.77-22.85.13-2.4-4.13-7.33-4.78-11.15-.5-2.97-.55-7.7-.15-10.68.82-6.14,9.97-22.31,9.87-25.1-.04-1.2-3.21-5.64-4.01-7.94-2.98-8.56-1.22-14.42,2.05-22.53-3.66-.91-7.03-2.97-10.74-3.78-4.6-1-8.63-.26-13.81-2.19-16.27-6.03-20.27-25.68-9.98-39.07,6.96-9.06,16.78-10.99,24.42-18.62-2.63-6.14-9.4-15.4-9.86-21.97-.23-3.26,1.61-5.22,1.89-7.96.88-8.53.88-17.15,2.37-25.63,3.37-19.2,11.98-37.39,23.71-52.78-20.51-4.76-34.13-24.03-21.24-43.76,7.81-11.96,21.31-13.23,34.25-14.26-1.9-13.84,5.36-25.16,4.04-39.54-.53-5.74-3.48-9.74-4.98-15.02-7.98-28.2-.41-91.89,27.24-108.64,31.31-18.96,66.33,11.39,78.71,39.19ZM363.35,34.35c-8.65,8.28-14.84,22.76-21.85,32.63-21.02-45.95-82.02-46.01-103,0-8.69-13.4-14.72-27.42-27.59-37.39-20.72-16.07-43.28-20.07-60.32,3.5-13.15,18.18-18.6,65.29-13.93,86.75,1.48,6.82,6.03,15.06,6.4,21.63.59,10.75-4.46,20.43-5.04,30.05-.2,3.35,1.44,10.21.89,11.84-1.17,3.45-15.63,3.16-19.17,3.88-13.88,2.85-22.65,14.47-19.3,28.83,2.51,10.78,19.2,16.41,28.57,18.94-10.5,14.51-19.31,27.7-24.26,45.22-3.87,13.71-4.15,27.83-6.55,41.52-1.11,6.31,7.58,20.64,12.79,24.75-11.52,12.69-42.73,20.27-31.38,43.4,5.35,10.9,13.21,8.44,22.46,10.54,6.66,1.51,13.01,5.78,19.95,6.56-6.11,8.08-10.58,14.21-6.2,24.69,1.36,3.24,5.41,6.06,5.06,8.56-4.84,10.84-14.71,25.44-10.08,37.47.89,2.32,4.63,6.42,4.78,7.76.57,4.87-6.91,13.4-5.47,23.93.95,6.96,7.86,11.75,7.96,15.03.11,3.53-2.41,10.91-2.91,15.2-2.75,23.75-1.64,47.22-3.1,70.9-3.46,55.9-28.41,102.3,2.15,156.76,1.47,2.62,9.33,13.13,9.52,14.34.52,3.28-1.16,10.46-.46,15.6,2.36,17.25,15.55,26.88,31.54,30.46,7.77,1.74,22.73,1.86,28.78,4.22,4.32,1.69,11.91,11.4,19.11,14.89,26.9,13.07,59.4,5.25,77.71-17.93,2.76-3.5,3.29-8.18,8.34-8.66,8.15-.77,11.16,9.97,16.27,15.27,19.96,20.68,57.32,22.75,80.33,6.34,3.41-2.43,9.59-9.19,12.83-10.17,18.66-5.68,39.86.66,53.27-19.73,8.4-12.77,2.92-20.3,5.81-31.19.67-2.52,6.22-8.92,7.93-12.07,31.74-58.22,6.15-103.33,2.79-163.13-.87-15.48.15-31.5-.97-47.03-.85-11.77-2.41-23.57-5.06-35.06,2.3-2.97,5.06-4.4,6.89-8.13,2.37-4.83,2.79-9.24,1.94-14.58-.72-4.49-5.62-11.62-5.33-15.27.19-2.4,4.61-5.57,5.34-9.2,2.55-12.48-5.57-24.9-10.5-35.78,11.35-9.42,11.49-23.84-.26-32.99-.02-.96,15.9-6.59,17.93-7.05,8.76-1.99,17.49.1,22.62-10.38,11.31-23.08-20.5-31.6-32.55-43.56,2.13-1.67,3.64-2.35,5.2-4.78,7.82-12.23,2.78-52.66-1.49-66.94s-12.82-27.18-20.72-39.77c9.36-2.53,26.07-8.18,28.57-18.94,3.35-14.43-5.31-25.96-19.3-28.83-3.49-.72-18.08-.46-19.19-3.88-.35-1.08,1.08-7.87.91-10.84-.64-10.78-6.33-20.98-4.98-33.02.58-5.23,4.06-10.39,5.51-15.49,6.3-22.26.76-70.17-12.28-89.73-18.12-27.19-46.25-19.67-66.87.08ZM314.27,84.91c0,13.4-10.87,24.27-24.27,24.27s-24.27-10.87-24.27-24.27,10.87-24.27,24.27-24.27,24.27,10.87,24.27,24.27ZM288.79,66.21c-24.92,1.91-21.87,41.11,5.65,36.73,20.14-3.2,17.79-38.53-5.65-36.73ZM211.62,208.12c-3.2,1.06-3.08,19.3,5.35,15.85l3.05-10.96c2.57-.28,1.59-.02,2.02,1.45.91,3.14.77,10.31,5.96,7.91l3.51-9.35c1.33-.03,2.75,15.13,7.03,9.01,3.25-4.65-5.04-19.6-12.51-10.03-1.94-7.06-7.33-3.78-11.01,0v-4.01s-3.39.12-3.39.12ZM206.98,526.48c-4.7,2.41-1.59,16.16,5.59,16.53,2.26.12,3.72-1.65,4.93-1.65,2.59,0,5.23,4.22,8.98-1.13l4.52,1.77-1.12-12.86-5.68.07-2.69,8.78c-3.46-3.51,1.38-12.1-6.58-9.57l-1.94,10.57c-5.1-1.48,1.02-16.12-6.01-12.52ZM297.75,522.26c1.41,1.48,3.04,21.91,2.25,22.73-2.08.67-3.99-1.57-5.48-1.61-1.63-.05-3.27,1.63-5.77,1.41-14.44-1.26-8.69-20.85,5.26-15.8l-.93-6.37c.63-2.19,3.48-1.62,4.68-.36ZM287.63,532.06c-6.41,1.86.21,16.09,6.12,4.42-1.33-1.64-3.78-5.1-6.12-4.42ZM292,226c-4.93-1.5-9.08.81-13.73-.78-11.4-3.88-3.1-19.84,7.72-14.22,1.26-1.71-4.18-10.49,4.12-7.41-.18,1.48,1.89,4.18,1.89,4.91v17.5ZM280.62,213.05c-3.73,2.05-3.72,7.86,0,9.9l5.31-5.31-5.31-4.59ZM347,592c-2.06.71-4.14-1.66-5.5-1.65-1.2.01-2.58,1.69-4.9,1.62-14.15-.38-9.89-20.24,4.39-15.98l-.99-6.99,4.86.13c.04,1.44,2.14,4.69,2.14,5.37v17.5ZM335.69,579.11c-4.22,1.06-4.28,12.21,2.86,7.95,4.69-2.8.35-8.76-2.86-7.95ZM317.75,475.26c.65.61,2.14,4.34,2.24,5.33.66,6.84-7.47,5.14-11.98,4.9,6.48,7.33,9.77-.07,15.99-1.49,1.3,9.97-13.29,9.63-18.89,4.39-10.33-9.67,6.66-18.74,12.64-13.14ZM313.9,477.1c-8.31-.11-7.53,6.37,1.09,4.89l-1.09-4.89ZM309.01,537c2.43,6.82,10.37,3.71,13.5-1,3.59-.81,4.16,7.12-5,8.03-12.3,1.22-20.27-12.23-10.52-16.54,15.95-7.05,20.37,15.89,2.02,9.51ZM316,533.99l-2.6-4.92-5.38,3.43c2.2,2.38,5.12,2.53,7.98,1.49ZM286,585.01c4.54,8.37,13.01-2.32,14.48-2.01,2.98.64,1.79,5.55-1.92,7.06-18.41,7.53-27.28-18.18-7.2-16.73,3.34.24,5.35,2.57,6.18,5.65,2,7.4-6.5,5.97-11.55,6.02ZM290.54,576.24l-5.52,3.26c1.58,1.81,3.93,2.84,6.36,2.43,2.79-.81,1.06-4.55-.83-5.69ZM312.79,217.77c-3.98,1.88-7.55,2.4-11.79,1.24,2.04,3.79,7.82,3.87,11,1.48,1.57-1.18,2.42-5.47,4.88-2.37,1.48,1.87-1.08,5.25-3.14,6.12-5.95,2.5-16.28.59-18.33-6.21-3.91-12.96,21.53-14.39,17.38-.26ZM301.07,214.92c8.9,4.2,9.72-6.62.52-3.01l-.52,3.01ZM359,491.99c2.62-3.66,9.06,1.87,11.99-3.49-5.43-.43-12.11-.99-12.11-8,0-9.31,14.66-9.62,16.09-1.98.37,2.01,1.24,12.35.54,13.5-5.84,4.65-10.51,2.39-16.52-.03ZM366.67,476.11c-3.07.78-3.95,6.96-1.14,8.88,3.38,1.01,6.63-5.32,4-7.99-.74-1.05-1.66-1.2-2.86-.89ZM289.12,475.88c.56.7,8.74.73,11.15,6.4,3.51,8.27-12.72,12.03-15.71,7.65-2.41-3.53-3.21-23.41,2.46-20.5,2.89,1.48,1.46,5.63,2.1,6.44ZM289,480c.29,2.97-1.14,6.82,1.49,8.98,6.11-2.87,6.12-9.51-1.49-8.98ZM242.46,207.96c-1.88,5.76.38,10.73,5.58,13.49l6.94,1.03c-2.29,3.5-3.89,2.22-6.92,1.96-5.16-.44-.19,3.12,2.51,3.51,11.55,1.69,11.34-10.7,9.94-18.98-5.66-4.33-5.47,9.04-10.01,9.08-5.58-.77-2.46-7.94-3.66-9.9-.28-.46-3.67-1.78-4.39-.2ZM192.99,543.99c-4.36-2.89-7.64-.32-12.43-1.05-7.07-1.08-7.67-8.98-.81-10.69,2.27-.57,6.31.74,7.24-1.24l-11.31-.97-1.68-3.02c13.47-4.83,21.04,4.22,18.99,16.98ZM181.73,535.15c-6.6,1.85,2.77,7.6,6.25,2.35-1.49-1.69-3.96-3-6.25-2.35ZM331.99,214c.58-2.3-.99-2.4-2.73-2.72-3.08-.57-6.18-.2-9.27-.28v-2.97c9.73-2.91,18.08.86,18.92,11.61.66,8.54-2.49,3.87-4.42,3.72-.92-.07-2.56,1.63-4.87,1.6-14.32-.21-9.47-15.26,2.37-10.96ZM328.66,216.22c-1.25.11-4,1.69-3.65,3.26.57,2.62,9.9,2.14,7.53-1.51-1.09-.86-2.4-1.88-3.88-1.75ZM309.07,573.43l-4.06-.43c-.1,3.53-.25,14.86,2.97,16.55,5.49,2.88,4.7-8.97,8.54-10.53,1.76-.72,1.6,1.1,1.94,2,.84,2.24,2.43,13.28,6.07,8.01,1.6-2.31-1.19-11.83-3.19-13.1-3.72-2.36-8.35-.48-11.32,2.07l-.94-4.57ZM231.66,570.21l-.66,9.79c-9.16-.58-7.1,5.29,1,3.99-.21,3.21-.54,7.27,3.48,8,2.52-1.89,1.58-5.09.76-7.54l.7-.98,8.06-.47v-2.99s-8.95-1.05-8.95-1.05l-.05-6.95c4.31-.06,2.88,7.16,7.99,5.99.72-6.55-6.83-13.21-12.33-7.78ZM222.49,478.99c3.58-.69-1.55-8.99-4.19-9.78-8.87-2.66-8.23,5.39-8.29,11.79h-6c-.46,4.24,5.5,3.25,6.8,4.18,1.43,1.02.44,9.31,5.24,6.24l-.04-7.42c2.41.92,12.97-1.09,7.77-3.26l-8.33-1.67c-.93-2.66-1.22-7.24,2.55-7.07.5,2.6,1.28,6.53,4.5,6.99ZM260.51,525.02c-5.89-.36-3.36,18.95,3.48,17.98,1.27-4.18,1.95-9.04,5.51-11.98,1.86-.03,2.6,15.37,7.49,11.98,4.21-2.92-4.44-23.94-13.97-12l-2.5-5.97ZM242.77,526.2c10.06-1.38,16.95,12.82,6.81,16.87-13.51,5.4-23.29-14.61-6.81-16.87ZM246.85,530.16c-1.29-.79-6,.08-6.92,1.51-5.57,8.58,10.39,12.38,8.91,3.09-.08-.53-1.77-4.47-1.98-4.6ZM365.04,521.43c-1.87-.58-6.07-.76-7.03,1.33l-1.01,10.25-5.99,1.49c1.37,3.26,5.54,1.86,6.82,2.65,1.53.94-.11,7.93,3.66,7.83,2.18-.06,1.44-7.42,1.49-8.98.65-.65,7.61,1.35,8.98-1.5-2.58-2.61-6.58-2.59-9.98-2.5l.14-6.37,1.36-1.61,3.51,6.98c7.41.87,1.86-8.39-1.97-9.57ZM379.56,527.94c-1.94-2.84-5.69-1.05-5.33,3.29.67,8.08,9.79,17.22,14.79,7.77l7.97,4c-1.37-5.35-5.3-8.9-5.07-14.91l-4.79.05-3.15,10.86c-5.23-1.57-3.05-9.05-4.42-11.06ZM336.94,473.44c-2.4,1.76-1.52,19.4,6.02,16.52-.48-1.77,3.79-13.08,6.03-10.96-1.2,8.03,8.96,18.24,6.76,5.74-2.76-15.67-13.97-6.04-14.74-6.75l-1.02-4.99-3.04.44ZM229.31,487.69c-8.58-9.56,10.33-20.7,16.88-8.39,6.62,12.45-10.37,15.64-16.88,8.39ZM242.39,482.89c0-2.82-2.29-5.1-5.1-5.1s-5.1,2.29-5.1,5.1,2.29,5.1,5.1,5.1,5.1-2.29,5.1-5.1ZM328,526c-.5,3.91,1.6,19.57,7.47,18l3.94-10.08c3.45-2.72,5.15,1.29,8.08,1.09,1.25-7.53-9.29-6.38-13.48-3.01l-1.15-5.86-4.86-.14ZM251.1,474.11c-.05,5.53.58,19.94,8.8,16.78-.33-3.15,1.02-11.5,5.41-10.64,2.11.41,4.7,5.12,5.68.27-4.16-5.41-8.65-3.18-13.99-1.51l-1.24-4.79-4.66-.11ZM345.35,207.13c-7.87-2.06.04,24.68,5.18,16.9,3.26-4.94-1.91-13.39,11.47-8.03-.2-7.17-9.44-5.15-13.99-2.99.18-2.49-.19-4.81-2.66-5.87ZM255.47,590.99l3.94-10.08c3.45-2.72,5.15,1.28,8.08,1.09,2.14-5.11-6.01-5.67-9.77-4.78-1.33.32-1.93,2.29-3.72,1.77l-1.09-5.9c-8.1-5.4-4.36,19.75,2.56,17.9ZM400.1,538.4c.4,2.81,1.6,7.33,4.94,5.02.68-.88-.18-20.72-1.05-21.43-5.2-4.21-4.26,13.84-3.89,16.41ZM369.86,204.64l-4.85-1.65,1.01,15,2.92-.04.92-13.32ZM273.51,578.01c-2.73.57-2.67,14.85,3.48,12.99-.54-4.33,2.12-11.55-3.48-12.99ZM328,478.99c.03,2.1-.59,11.53,1.63,12.05l3.36-.04-1.14-11.86-3.85-.15ZM396.99,204c-6.82,9.08-10.68,20.43-15.98,30.51l1.98.49c3.07-10.95,10.3-20.26,14-31ZM380.99,210.01l-7.26,18.23c-.43,2.89-1.91,5.76-2.5,8.5-.22,1.01-1.01,3.51.76,3.26l9-29.99ZM328.51,469.01c-3.73,1.12.55,9.45,4.48,7.98-.28-2.3-.58-9.16-4.48-7.98ZM271,569.01c.53,8.96,8.54,11.4,4.88.11l-4.88-.11ZM184.15,215.58l12.16,17.87,1.36-.93-12.16-17.87-1.36.93ZM193.09,205.42l8.12,17.93,1.55-.7-8.12-17.93-1.55.7ZM397,263v32h8v-18l9.49,17.01,8.51.99v-32h-8v17c-6.72-6.22-5.96-20-18-17ZM279,263v23.5c0,.29,2.47,4.49,2.97,5.03,4.33,4.62,14.95,4.93,19.55.5.96-.93,3.48-5.63,3.48-6.52v-22.5h-8v20.5c0,6.22-10,6.22-10,0v-20.5h-8ZM369,263v32h21v-7.01s-12.01.01-12.01.01v-6.43s11.01-.57,11.01-.57v-6.01s-11.01.01-11.01.01v-6.01s12.01.01,12.01.01v-6.01h-21.01ZM311,263v30.5l1.5,1.5h19.5v-7.01s-12.01.01-12.01.01v-6.43s11.01-.57,11.01-.57v-6.01s-11.01.01-11.01.01v-6.01s12.01.01,12.01.01v-6.01h-21.01ZM189,263v32h21v-7.01s-13,0-13,0l.44-6.07,11.57-.93v-6.01s-12.01,0-12.01,0c.04-1.9-.67-5.1,1.64-5.86l11.37-.13v-6.01h-21.01ZM245,263.01l10.14,31.86,8.2.18,10.66-32.04-8.51.98-5.98,22.03-5.55-22.96-8.95-.04ZM157,263v7.01s9,0,9,0v25h8v-25h9.01s0-7,0-7h-26ZM233.5,263c8.55,1.72,9.1,13.84,1.49,17.52l6,14.47-8.04-.45c-3.58-13.48-10.34-17.57-8.95.46h-8.01v-32.01c5.17.71,12.68-.97,17.5,0ZM224,277c3.44.2,7.24.52,8.05-3.56-.03-4.76-4.22-4.77-8.05-4.45v8.01ZM232.04,273.45c-.03-4.76-4.22-4.77-8.05-4.45v8.01c3.44.2,7.24.52,8.05-3.56ZM355.5,263c9.88,1.63,10.13,13.63,1.5,17.5,4.3,3.58,5.01,9.54,6.99,14.5l-8.9-.1c-1.44-4.36-1.32-12.33-7.59-11.91l-.51,12.02h-8.01v-32.01c5.07.58,11.66-.8,16.5,0ZM347,277c10.4,1.63,10.88-9.75,0-8.01v8.01ZM347,269v8.01c10.4,1.63,10.88-9.75,0-8.01ZM293.75,536.48c-1.33-1.64-3.78-5.1-6.12-4.42-6.41,1.86.21,16.09,6.12,4.42ZM280.62,222.95l5.31-5.31-5.31-4.59c-3.73,2.05-3.72,7.86,0,9.9ZM338.55,587.05c4.69-2.8.35-8.76-2.86-7.95-4.22,1.06-4.28,12.21,2.86,7.95ZM314.99,481.99l-1.09-4.89c-8.31-.11-7.53,6.37,1.09,4.89ZM313.4,529.07l-5.38,3.43c2.2,2.38,5.12,2.53,7.98,1.49l-2.6-4.92ZM285.02,579.5c1.58,1.81,3.93,2.84,6.36,2.43,2.79-.81,1.06-4.55-.83-5.69l-5.52,3.26ZM301.58,211.91l-.52,3.01c8.9,4.2,9.72-6.62.52-3.01ZM365.53,484.99c3.38,1.01,6.63-5.32,4-7.99-.74-1.05-1.66-1.2-2.86-.89-3.07.78-3.95,6.96-1.14,8.88ZM290.49,488.98c6.11-2.87,6.12-9.51-1.49-8.98.29,2.97-1.14,6.82,1.49,8.98ZM187.98,537.5c-1.49-1.69-3.96-3-6.25-2.35-6.6,1.85,2.77,7.6,6.25,2.35ZM325.01,219.49c.57,2.62,9.9,2.14,7.53-1.51-1.09-.86-2.4-1.88-3.88-1.75-1.25.11-4,1.69-3.65,3.26ZM239.93,531.67c-5.57,8.58,10.39,12.38,8.91,3.09-.08-.53-1.77-4.47-1.98-4.6-1.29-.79-6,.08-6.92,1.51ZM237.29,477.78c-2.82,0-5.1,2.29-5.1,5.1s2.29,5.1,5.1,5.1,5.1-2.29,5.1-5.1-2.29-5.1-5.1-5.1ZM323.09,422.48c-2.06-2.64-3.76-1.28-4.65,1.48-2.12,6.57,5.94,13.7,12.55,12.05-.22,6.13-7.27.19-8.99,3.98,6.76,3.29,14.55,3.45,15.93-5.55.4-2.58,1.38-15.34-3.98-11.97-2.2,1.38-4.01,12.53-8.83,9.4-1.78-1.15-1.12-8.2-2.04-9.38ZM261.99,439c-4.48-1.08-17.39,1.52-18.04-5.56-.5-5.43,8.07-7,12.04-5.94-3.36-4.47-9.37-.64-12.98-4,11.36-7.92,21.9,3.58,18.97,15.5ZM257,432.01l-7.49-1.02c-3.17,6.33,9.92,4.24,7.49,1.02ZM290.51,416.94c-1.14.11-2.07.55-2.42,1.71-.2.66.79,12.16,1.01,13.76.46,3.36,1.89,7.21,5.91,6.58v-8c6.92-1.73,3.98,9.6,12,8,1.61-1.53-6.38-10.78-.96-11.5l-1.01-3.04-11.02,2.54c-.37-3.52,1.79-10.59-3.5-10.06ZM272.06,437.59l5.44-10.57c2.41-.03,1.76,12.36,6.99,10.97,3.01-.88-.58-11.32-2.02-12.96-3.02-3.42-8.14-1.92-10.97.94-1.87-1.46-1.5-6.09-4.99-4.97-2.79.89-.4,14.39.74,15.73.77.91,3.74,1.68,4.81.85ZM223,433.5c0,3.41,2.32,6.09,6,5.5-.82-4.02,1.68-17.74,5.5-8.99,1.62,3.7.24,8.33,5.01,9.97,4.5-7.12-2.7-18.35-11.47-16.01l-2.55-6.96-2.49,1.5v15ZM371.71,437.79c6.54,1.48,6.08-2.82,6.8-2.82,1.92,0,5.19,4.41,8.48,3.02-.12-2.54-2.42-3.56-3.51-5.98-1.3-2.91-1.04-5.87-2.43-8.6l-4.84.81c-.69.96-1.07,11.03-3.7,9.76-3.02-3.2-3.78-7.79-3.52-12-9.82-1.14-3.75,14.34,2.72,15.8ZM347.73,422.23c16.21-3.3,18.77,20.17,1,16.53-9.52-1.95-10.97-14.51-1-16.53ZM354.76,434.75c2.21-2.14-.09-7.17-1.74-9.31-12.95-1-5.46,16.29,1.74,9.31ZM213.5,418c-2.45-.28-20.52-.39-20.48,2.5,3.23,3.96,6.83,1.67,10.98,1.5-.72,2.71,1.45,16.38,3.51,17.02s2.69,0,2.91-1.92c.27-2.42-1.22-14.31-.42-15.11h10c.26-3.2-4.13-3.72-6.5-3.99ZM249.5,431c-3.17,6.33,9.92,4.24,7.49,1.02l-7.49-1.02ZM353.02,425.44c-12.95-1-5.46,16.29,1.74,9.31,2.21-2.14-.09-7.17-1.74-9.31ZM332,677c4.92.06,20-2.09,17.58,7.03-.98,3.67-4.91,2.86-4.58,5.96,5.51.05,7.32,5.61,4.44,9.95-3.35,5.03-12.21,2.47-17.43,3.06v-26ZM337.01,688c11,.22,10.83-9.09,0-8v8ZM337,700c12.36,1.51,12.38-10.51,0-9.01v9.01ZM248,703h5.01c.25-5.71-2.35-17.84,6.75-14.77l1.25,14.78h4v-14.5c0-4.74-8.79-5.92-11.99-2.5v-10s-5.01,0-5.01,0v27ZM327,695h-13.01c-.64,3.37,1.09,5.77,4.56,5.95,2.91.15,8.54-3.39,5.78,2.06-4.87,1.86-12.41,1.09-14.57-4.28-6.45-15.99,19.04-21.81,17.24-3.74ZM321.75,688.25c-3.22-3.17-7.46-.35-8.73,3.26.11,2.25,8.14,1.39,9.97,1.49.05-1.43-.22-3.74-1.24-4.74ZM306,695l-13.03.47-.5,2.56c3.41,6.32,14.06-1.66,10.86,4.99-10.43,3.72-18.29-3.11-14.88-14.07,2.83-9.12,19.69-4.91,17.55,6.04ZM292,692.99c1.83-.1,9.87.76,9.97-1.49-2.59-6.65-10.22-5.89-9.97,1.49ZM222,677v3s8,0,8,0v23h5v-23h8.01s0-3,0-3h-21ZM271,703h4c-.6-7.59-.3-15.23,9.02-15.5l-.02-3.49c-3.68-.24-6.35,1.88-8.98,4v-4.01s-4.01,0-4.01,0v19ZM337,691v9.01c12.36,1.51,12.38-10.51,0-9.01ZM337,680v8c11.01.22,10.84-9.09,0-8ZM313.02,691.51c.11,2.25,8.14,1.39,9.97,1.49.05-1.43-.22-3.74-1.24-4.74-3.22-3.17-7.46-.35-8.73,3.26ZM301.98,691.51c-2.59-6.65-10.22-5.89-9.97,1.49,1.83-.1,9.87.76,9.97-1.49Z"/>
</svg>