<?xml version="1.0" encoding="UTF-8"?>
<svg id="_レイヤー_1" data-name="レイヤー 1" xmlns="http://www.w3.org/2000/svg" width="154.02mm" height="299.19mm" viewBox="0 0 436.58 848.11">
  <path d="M166.19,45.56l10.46-13.02c23.27-21.49,58.98-21.74,82.54-.48l10.98,13.5c8.85-17.81,22.8-34.28,41.66-41.85,58.78-23.6,74.93,71.7,64.86,109.86-1.46,5.53-4.99,10.86-5.56,16.44-1.46,14.24,6.85,25.94,4.05,39.54,13.94.93,27.92,2.7,35.44,16.07,11.07,19.68-2.87,37.27-22.43,41.95,9.47,15.41,17.86,31.66,20.71,49.78,1.05,6.66,1.98,15.03,2.28,21.72.56,12.58,1.02,25.99-5.98,36.92,5.07,5.12,12.25,6.88,17.9,11.15,12.06,9.11,18.65,25.2,8.5,38.32-9.09,11.75-20.97,8.5-33.41,13.1,4.73,7.86,5.86,16.31,2.48,24.97-1.05,2.69-5.18,7.05-5.21,7.5-.08.94,6.5,14.23,7.48,17.27,1.99,6.24,3.17,10.7,2.02,17.51-.65,3.82-4.55,8.18-4.76,10.28-.34,3.35,4.08,9.74,4.73,14.22,1.55,10.61-2.25,17.54-8.53,25.53,6.72,27.17,4.07,55.61,5.75,83.26,3.67,60.51,28.53,99.93-2.79,160.13-1.73,3.32-6.91,9.6-7.72,12.28-1.25,4.18-.1,9.85-.58,14.42-3.48,33.26-35.62,38.85-63.16,40.84-27.59,29.72-79.49,28.48-104.12-4.3-1.1-1.46-3.72-6.88-4.12-6.95-3.47-.62-7.1,7.69-9.5,10.51-20.35,23.92-60.99,28.81-87.29,12.35-3.28-2.05-12.51-11.02-14.39-11.61-8.06-2.53-21.36-2.17-30.49-4.51-17.87-4.57-31.22-19.63-32.78-38.22-.29-3.42.91-9.45.46-11.61-.61-2.92-13.25-21.72-15.96-28.89-18.28-48.4-1.31-80.93,3.48-127.49,2.59-25.14.74-50.84,3.02-75.98.41-4.48,4.34-24.53,3.49-26.46-1.96-4.45-6.15-6.79-7.26-13.79-1.87-11.79,4.39-15.89,4.77-22.85.13-2.4-4.13-7.33-4.78-11.15-.5-2.97-.55-7.7-.15-10.68.82-6.14,9.97-22.31,9.87-25.1-.04-1.2-3.21-5.64-4.01-7.94-2.98-8.56-1.22-14.42,2.05-22.53-3.66-.91-7.03-2.97-10.74-3.78-4.6-1-8.63-.26-13.81-2.19-16.27-6.03-20.27-25.68-9.98-39.07,6.96-9.06,16.78-10.99,24.42-18.62-2.63-6.14-9.4-15.4-9.86-21.97-.23-3.26,1.61-5.22,1.89-7.96.88-8.53.88-17.15,2.37-25.63,3.37-19.2,11.98-37.39,23.71-52.78-20.51-4.76-34.13-24.03-21.24-43.76,7.81-11.96,21.31-13.23,34.25-14.26-1.9-13.84,5.36-25.16,4.04-39.54-.53-5.74-3.48-9.74-4.98-15.02-7.98-28.2-.41-91.89,27.24-108.64,31.31-18.96,66.33,11.39,78.71,39.19ZM291.53,23.92c-8.65,8.28-14.84,22.76-21.85,32.63-21.02-45.95-82.02-46.01-103,0-8.69-13.4-14.72-27.42-27.59-37.39C118.37,3.08,95.81-.91,78.77,22.65c-13.15,18.18-18.6,65.29-13.93,86.75,1.48,6.82,6.03,15.06,6.4,21.63.59,10.75-4.46,20.43-5.04,30.05-.2,3.35,1.44,10.21.89,11.84-1.17,3.45-15.63,3.16-19.17,3.88-13.88,2.85-22.65,14.47-19.3,28.83,2.51,10.78,19.2,16.41,28.57,18.94-10.5,14.51-19.31,27.7-24.26,45.22-3.87,13.71-4.15,27.83-6.55,41.52-1.11,6.31,7.58,20.64,12.79,24.75-11.52,12.69-42.73,20.27-31.38,43.4,5.35,10.9,13.21,8.44,22.46,10.54,6.66,1.51,13.01,5.78,19.95,6.56-6.11,8.08-10.58,14.21-6.2,24.69,1.36,3.24,5.41,6.06,5.06,8.56-4.84,10.84-14.71,25.44-10.08,37.47.89,2.32,4.63,6.42,4.78,7.76.57,4.87-6.91,13.4-5.47,23.93.95,6.96,7.86,11.75,7.96,15.03.11,3.53-2.41,10.91-2.91,15.2-2.75,23.75-1.64,47.22-3.1,70.9-3.46,55.9-28.41,102.3,2.15,156.76,1.47,2.62,9.33,13.13,9.52,14.34.52,3.28-1.16,10.46-.46,15.6,2.36,17.25,15.55,26.88,31.54,30.46,7.77,1.74,22.73,1.86,28.78,4.22,4.32,1.69,11.91,11.4,19.11,14.89,26.9,13.07,59.4,5.25,77.71-17.93,2.76-3.5,3.29-8.18,8.34-8.66,8.15-.77,11.16,9.97,16.27,15.27,19.96,20.68,57.32,22.75,80.33,6.34,3.41-2.43,9.59-9.19,12.83-10.17,18.66-5.68,39.86.66,53.27-19.73,8.4-12.77,2.92-20.3,5.81-31.19.67-2.52,6.22-8.92,7.93-12.07,31.74-58.22,6.15-103.33,2.79-163.13-.87-15.48.15-31.5-.97-47.03-.85-11.77-2.41-23.57-5.06-35.06,2.3-2.97,5.06-4.4,6.89-8.13,2.37-4.83,2.79-9.24,1.94-14.58-.72-4.49-5.62-11.62-5.33-15.27.19-2.4,4.61-5.57,5.34-9.2,2.55-12.48-5.57-24.9-10.5-35.78,11.35-9.42,11.49-23.84-.26-32.99-.02-.96,15.9-6.59,17.93-7.05,8.76-1.99,17.49.1,22.62-10.38,11.31-23.08-20.5-31.6-32.55-43.56,2.13-1.67,3.64-2.35,5.2-4.78,7.82-12.23,2.78-52.66-1.49-66.94s-12.82-27.18-20.72-39.77c9.36-2.53,26.07-8.18,28.57-18.94,3.35-14.43-5.31-25.96-19.3-28.83-3.49-.72-18.08-.46-19.19-3.88-.35-1.08,1.08-7.87.91-10.84-.64-10.78-6.33-20.98-4.98-33.02.58-5.23,4.06-10.39,5.51-15.49,6.3-22.26.76-70.17-12.28-89.73-18.12-27.19-46.25-19.67-66.87.08ZM242.45,74.47c0,13.4-10.87,24.27-24.27,24.27s-24.27-10.87-24.27-24.27,10.87-24.27,24.27-24.27,24.27,10.87,24.27,24.27ZM216.97,55.77c-24.92,1.91-21.87,41.11,5.65,36.73,20.14-3.2,17.79-38.53-5.65-36.73Z"/>
</svg>