<?xml version="1.0" encoding="UTF-8"?>
<svg id="_レイヤー_1" data-name="レイヤー 1" xmlns="http://www.w3.org/2000/svg" width="204.61mm" height="305.86mm" viewBox="0 0 580 867">
  <path d="M461,287.01c20.16,17.31,26.12,40.15,18.02,65.51-.8,2.51-3.54,6.28-3.73,8.11-1.74,17.19,3.41,23.47-6.87,41.29-6.3,10.93-13.79,11.87-18.87,18.13-1.91,2.35-4.02,8.65-6.13,11.87-2.85,4.35-6.66,7.93-9.29,12.4,3.65,5.32,7.68,10.97,10.05,17,1.88,4.77,2.33,10.39,4.3,14.7,4.88,10.66,11.21,15.36,14.8,29.2,3.78,14.59,1.74,25.53,2.93,39.05.28,3.16,4.13,10.48,5.13,14.89s.86,10.63,1.87,14.13c.32,1.1,9.7,14.6,11.65,18.35,12.6,24.27,26.9,53.96,20.37,81.74,28.94,24.79,36.94,62.31,20.63,96.98-2.45,5.22-12.96,19.48-13.68,22.4-.76,3.11,2.28,7.48,2.73,10.83,3.89,28.84-23.94,50.18-50.38,52.45-7.69.66-17.44-1.66-23.93-.98-4.71.49-12.11,3.46-17.59,4.47-21.68,3.98-49.4,5.04-67.5-9.55-2.5-2.02-8.62-10.06-9.53-10.53-1.23-.64-8.05.17-11.24-.71-6.07-1.68-12.53-7.27-13.9-13.58-19.89-2.89-39.31-4.16-59.14.06-5.99,9.45-14.15,16.44-26.05,13.87-19.3,29.65-69.15,26.67-98.03,14.77-5.38-2.22-12.43-7.96-16.61-9.39-4.53-1.55-11.42-1.71-16.79-3.21-21.82-6.06-41.8-23.23-39.23-47.75.35-3.38,3.21-9.12,3.03-10.97-.13-1.33-7.73-11.26-9.21-13.87-21.6-38.11-16.39-75.7,17.01-104.4-2.42-15.51.13-30.57,5.98-44.95,3.9-9.6,11.21-24.66,16.33-33.67,1.69-2.97,8.2-10.84,8.64-12.36,1.33-4.64,1.39-12.67,2.7-18.3,1.42-6.1,4.45-12.94,5.43-18.57,3.11-17.83.54-29.6,9.54-47.46,2.29-4.54,7.75-10.07,9.27-13.73,1.14-2.75.95-6.26,1.97-9.03,3.12-8.47,7.19-14.78,11.38-22.6-3.51-2.06-6.53-5.89-8.91-9.26-2.86-4.07-5.31-11.33-7.72-14.28-2.82-3.46-10.42-6.6-14.87-12.13-14.46-17.96-8.65-28.37-11.64-47.36-.71-4.5-4.68-11.32-5.69-17.31-3.76-22.27,3.82-41.71,20.75-56.24-29.19-1.73-47.88-26.79-49.99-54.52-.5-6.52,1.24-15.44.69-20.86-.27-2.62-6.61-13.34-7.99-17.84-8.38-27.33-4.33-61.87,22.62-76.95,10.1-5.65,22.9-6.85,31.99-12.01,7.78-4.41,16.53-15.72,24.2-21.8,20.88-16.54,34.11-16.37,58.91-7.05l36.59-13.45c1.59-1.18.93-10.35,1.42-13.58,8.32-54.2,91.16-58.45,104.26-3.16,1.45,6.1.74,11.18,2.27,16.73l36.59,13.45c14.45-4.34,25.99-9.48,41.13-4.16s25.03,19.36,36.3,28.7c11.69,9.69,27.59,9.76,40.74,18.26,24.39,15.78,27.46,49.2,19.56,75.01-1.38,4.5-7.72,15.22-7.99,17.84-.55,5.42,1.19,14.34.69,20.86-2.11,27.73-20.81,52.79-49.99,54.52ZM338.02,65.97c6.43-43.98-44.99-72.46-79.5-43.94-12.72,10.52-19.18,27.7-16.55,43.94-7.94.45-14.66,5.27-21.7,7.81-3.37,1.21-17.97,6.75-19.99,7.03-4.81.67-19.22-6.47-26.81-6.8-26.97-1.18-40.13,29.43-61.2,37.77-11.12,4.4-21.62,5.28-31.75,13.25-20.62,16.21-21.03,48.73-12.55,71.5,1.38,3.71,5.16,9.07,5.8,12.2,1.48,7.24-.42,17.92.24,25.76,2.28,27.18,23.06,48.73,50.99,48.52.08,8.04-5.03,8.96-9.51,13.98-13.28,14.89-17.08,36.32-9.98,55,.82,2.17,4.02,6.56,4.2,7.66.46,2.8-1.77,9.42-1.75,12.81.07,13.69,7.05,29.76,17.56,38.52,2.32,1.94,7.1,3.75,8.52,5.48,2.11,2.58,4.82,10.5,7.55,14.45,3.56,5.15,7.53,8.8,12.37,12.7-4.77,6.75-10.34,13.91-13,21.86-1.26,3.78-1.33,8.33-2.52,11.48-.97,2.58-5.39,6.64-7.25,9.75-11.6,19.39-8.22,30.82-11.26,50.74-.69,4.51-4.22,11.98-5.45,17.55-1.3,5.9-1.55,15.63-2.93,20.07-.64,2.06-8.04,10.17-10.1,13.9-7.71,14-20.17,39.97-21.44,55.56-.59,7.28.46,14.54.8,21.77-9.1,10.21-19.16,17.34-24.58,30.46-10.7,25.91-5.5,49.17,8.35,72.18,1.91,3.18,8.38,10.63,9.04,13.07.38,1.4-2.51,6.67-3.12,9.01-6.34,24,16.73,41.56,37.68,46.33,4.51,1.03,10.74.93,14.12,1.88,1.69.48,9.81,6.95,13.35,8.65,25.74,12.35,81.83,17.48,96.5-13.71,11.66,2.37,22.81-1.13,24.97-14.03,21.94-2.55,43.27-2.9,65.21.07,1.92.56,5.31,9.9,10.32,12.68,7.06,3.92,11.51.13,15.66,1.08.57.13,5.25,8.06,6.71,9.54,17.76,18.01,51.48,14.64,74,10.02,3.58-.73,8.71-3.29,11.61-3.48,4.78-.32,12.87,2.08,17.83,2,29.07-.45,64.96-26.84,47.75-58.38,18.54-25.56,29.93-53.58,18.83-85.19-4.94-14.08-14.88-22.79-24.88-33.16,4.34-14.29,1.8-26.89-2.03-40.93s-12.41-32.19-19.25-44.75c-2.07-3.8-10.21-13.25-10.67-15.33-.92-4.15-.59-9.32-1.7-14.3s-4.94-11.95-5.19-15.62c-1.46-22.06,1.98-34.94-10.15-56.04-1.75-3.04-6.82-8.5-7.64-10.36-1.05-2.36-.98-6.82-2.02-9.98-3.34-10.06-8.53-16.89-14.49-25.42,4.6-3.22,8.21-7.06,11.39-11.66,2.73-3.95,5.44-11.87,7.55-14.45,1.41-1.73,6.19-3.55,8.52-5.48,11.34-9.46,17.24-24.79,17.32-39.48.02-2.93-1.91-9.44-1.52-11.86.18-1.11,2.51-3.7,3.21-5.66,6.95-19.66,6.12-39.64-7.97-56-4.64-5.38-10.62-6.73-10.52-14.98,27.93.21,48.71-21.34,50.99-48.52.66-7.84-1.24-18.52.24-25.76.64-3.13,4.41-8.49,5.8-12.2,8.57-22.99,8.05-55.87-13.11-71.94-10.01-7.6-20.32-8.51-31.19-12.81-19.08-7.55-32.87-35.12-55.5-37.49-12.04-1.26-26.09,7.42-32.51,6.52-2.02-.28-16.62-5.82-19.99-7.03-7.04-2.53-13.76-7.36-21.7-7.81ZM311.28,51.84c0,11.77-9.54,21.3-21.3,21.3s-21.3-9.54-21.3-21.3,9.54-21.3,21.3-21.3,21.3,9.54,21.3,21.3ZM306.59,51.82c0-9.17-7.43-16.6-16.6-16.6s-16.6,7.43-16.6,16.6,7.43,16.6,16.6,16.6,16.6-7.43,16.6-16.6ZM219.5,239.07l3.52-10.07c2.57-.29,1.59-.01,2.02,1.45,1.19,4.08-.16,8.55,5.97,7.55-.34-3.6.49-7.29,3.99-9.01-1.26,8.7,8.2,15.34,5.56,2.94-1.41-6.65-6.18-9.98-11.05-3.96-3.49-6.2-7.19-4.31-11.49.02v-4.01c-9.92-2.73-3.49,20.72,1.49,15.08ZM292,241c-4.39-1.24-8.66.66-13.03-.48-11.11-2.9-3.13-18.74,7.02-13.52v-8c3.32-1.19,6.01,4.14,6.01,6.5v15.5ZM279.09,237.9c13.65-.34,2.55-13.74-.44-6.67l.44,6.67ZM301.01,234c-.4,2.07.9,2.4,2.43,3.08,6.68,2.99,9.41-4.4,11.05-4.08,3.86,3.47.23,6.55-3.46,7.52-14.91,3.89-22.33-14.03-9.29-16.29,6.58-1.14,10.22,1,10.77,7.81-2.94,3.39-7.56,3.89-11.51,1.96ZM302.7,227.16c-1.18.34-1.85,1.56-2.69,2.34,7.54,7.28,9.66-4.37,2.69-2.34ZM261.48,238.98c1.2-2.73,2.75-19.96-3.5-13.5-4.2,4.33-6.78,17.95-9.41-.54l-4.56-.94c-1.65,7.75,3.82,15.08,11.99,13.01.42,2.05-1.96,3.48-3.62,3.71-1.85.27-5.06-2.49-4.37,1.27,4.39,2.37,11.25,2.06,13.48-3.01ZM337,240c-4.67-1.13-12.89,1.65-16.47-2.02-4.9-5.02,4.28-10.97,8.99-8l.48-1.97-11-1.02v-2.99c11.93-2.95,18.86,3.97,18,15.99ZM330.99,235.99c-.55-5.04-5.25-4.74-7.97-1.49,2.19,2.37,5.13,2.53,7.97,1.49ZM343.03,223.45l-3.08,1.21c-.46,3.73,1.5,15.43,5.56,16.34,3.24.72,2.79-8.87,5.46-10.54l8.02,1.54c.08-6.61-8.86-5.55-12.98-2.99l-2.99-5.55ZM361.99,219.51l1.01,14.49c3.19,3.05,6.48-18.4-1.01-14.49ZM330,318v30h19v-5.01s-12.01.01-12.01.01v-7.43s11.57-1.51,11.57-1.51l.44-4.06h-12.01s0-7.01,0-7.01h12.01s0-4.99,0-4.99h-19ZM231,318v30h19v-5.01s-12.01.01-12.01.01v-7.43s11.01-.57,11.01-.57v-5.01s-11.01.01-11.01.01v-7.01s12.01.01,12.01.01v-5.01h-19.01ZM201,318v5.01s8,0,8,0v25h7v-25h9.01s0-5,0-5h-24ZM315,318v30h7v-30h-7ZM372.5,318c8.05,1.41,7.71,13.56.52,16.5l5.98,13.5-6.88-.11c-1.28-4.27-2.53-12.38-8.6-11.89l-.51,12.02h-7.01v-30.01c5.02.61,11.74-.83,16.5,0ZM363,332c11.32.36,12.55-10.86,0-9.01v9.01ZM363,323v9.01c11.33.36,12.56-10.86,0-9.01ZM273.5,318c7.59,1.64,7.12,12.89.67,16.49l5.83,13.5-6.86-.13c-2.02-4.73-1.89-11.84-8.63-11.87l-.51,12.02h-7.01v-30.01c4.81.7,12.08-.96,16.5,0ZM264,332c3.41.24,9.13-1.13,8.76-5.34-.96-4.74-4.86-3.72-8.77-3.66v9.01ZM272.77,326.66c-.96-4.74-4.86-3.72-8.77-3.66v9.01c3.41.24,9.14-1.13,8.77-5.34ZM301.5,318c8.7,1.53,8.55,13.48.5,16.5,4.17,3.33,4.75,8.96,7,13.49l-7.04-.45c-2.03-3.28-2.79-12.78-8.38-11.43-2.85.69-1.15,9.53-1.58,11.89h-6.01v-30.01c4.72.57,11.03-.79,15.5,0ZM292,323c-2.74,17.83,14.11,4.66,8.06.44l-8.06-.44ZM300.06,323.44l-8.06-.44c-2.74,17.83,14.11,4.66,8.06.44ZM278.65,231.24l.44,6.67c13.65-.34,2.55-13.74-.44-6.67ZM300.02,229.5c7.54,7.28,9.66-4.37,2.69-2.34-1.18.34-1.85,1.56-2.69,2.34ZM323.02,234.5c2.19,2.37,5.13,2.53,7.97,1.49-.55-5.04-5.25-4.74-7.97-1.49ZM315.75,557.26c3.88,3.68,2.19,9.07-3.35,9.73-2.61.31-4.34-1.29-6.4-.5,2.13,3.19,6.59,3.24,9.79,1.78,2.26-1.03,1.69-4.31,5.2-3.27,1.47,12.31-21.06,8.4-19.99-2.4.73-7.35,10.99-8.89,14.74-5.34ZM312.99,562.99c.18-9.43-11.67-1.33-4.49,0,1.41.26,3.04-.08,4.49,0ZM353,571.01c4.29-.47,8.04,3.02,10.99-1.52-4.98-.38-11.3-1.6-11.07-7.96.24-6.73,9.16-8.78,13.06-5.02,1.97,1.9,3.18,14.58,2.12,16.02-4,3.92-12.17,3.38-15.11-1.53ZM362.97,558.03c-7.77-2.13-7.07,11.71-1.39,7.06,1.87-1.53,2.33-4.87,1.39-7.06ZM289,558c18.2,1.18,11,18.98-4.08,13.33-1.18-3.22-2.01-19.49.59-20.32l3.01.96.48,6.03ZM289.01,569c7.15.43,6.24-9.34-.01-7.49v7.49ZM217.01,562h-5.01s.06,2.92.06,2.92c7.69,1.14,4.66,1.06,6.7,5.81,2.64,6.17,5.95-1.48,3.25-5.73,10.97.78,10.52-4.35,0-4.02v-6.99c4.73-.18,1.75,7.44,6.99,5.99-.73-13.04-14.76-12.3-11.99,2.01ZM332,555c.21,5.1-1.43,16.14,5.97,15.99.92-.65,1.41-10.79,6.01-9.98.76,3.63.7,10.72,6,9.99.58-3.58-.86-12.69-4.7-13.84-3.07-.8-5.72.58-7.79,2.82l-1.57-4.92-3.93-.07ZM238.71,556.21c3.27-.75,7.47-.94,9.76,1.82,4.59,5.54,4.52,13.24-3.97,14.01-12.5,1.14-15.81-13.53-5.8-15.83ZM245.86,567.85c1.53-17.46-14.37-4.47-7.18.22l7.18-.22ZM253.96,557.53c-.41,2.86,3.21,18.36,8,14.44.99-.81.1-10.71,5.49-10.01,2.15.28,3.39,3.78,5.53.55-2-5.15-8.98-4.14-12.96-1.51.88-4.61-5.26-9.05-6.05-3.47ZM328.05,560.45l-3.04-.45c-1.31,4.2-.44,7.36.9,11.41l3.09.59-.94-11.56ZM324.01,551c-.4,3.3.98,5.93,3.49,7.97,2.7-2,1.38-5.35.35-7.83l-3.84-.15ZM308.51,562.99c1.41.26,3.04-.08,4.49,0,.18-9.43-11.67-1.33-4.49,0ZM361.58,565.09c1.87-1.53,2.33-4.87,1.39-7.06-7.77-2.13-7.07,11.71-1.39,7.06ZM288.99,561.51v7.49c7.16.43,6.25-9.34,0-7.49ZM334,695c3.51.39,13.59-1.27,15.51,1.99.75,1.84.89,4.47.3,6.33-.79,2.51-3.48,1.75-3.8,3.67,4.05.19,5.21,2.66,5.09,6.53-.28,9.05-10.71,6.03-17.1,6.49v-25ZM345.85,699.14l-7.86-1.15v7.01l7.86-1.15v-4.71ZM338,717.01c5.29.47,10.9-.6,8.56-7.07l-7.61-1.52-.96,8.59ZM253,720h4c-1.79-19.76,11.16-20.5,9.01,0h3.99c-.08-3.84.71-14.65-2.39-17.1-4.15-3.28-10.08,1.68-10.6,1.09v-10s-4.01,0-4.01,0v26ZM329,713h-13c-1.22,1.08,2.69,4.25,3.98,4.6,3.62.98,8.03-3.35,7.02,2.39-4.64,1.57-13.2.78-14.8-4.7-4.82-16.53,18.79-18.59,16.8-2.29ZM325,709.99c.68-7.04-10.38-6.62-8.49.01h8.49ZM308,713h-13c.66,1.66,1.57,3.45,3.25,4.28,2.31,1.14,8.87-1.14,8.73,1.22s-14.87,5.17-15.93-6.12c-1.35-14.33,20.14-14.51,16.95.63ZM304,710c1.29-6.71-6.97-6.93-8.99-1.47-.78,2.94,7.62.91,8.99,1.47ZM229,695v3s7,0,7,0v22h5v-22h7.01s0-3,0-3h-19ZM275,720h4c.21-2.74-.35-5.74.06-8.44,1.08-7.02,8.46-5.88,8.95-7.06,2.56-6.19-7.97.56-8.5.51l-.6-2.88-3.91-.13v18ZM346.56,709.93l-7.61-1.52-.96,8.59c5.29.47,10.9-.6,8.56-7.07ZM338,698v7.01l7.86-1.15v-4.71l-7.86-1.15ZM316.51,710.01h8.49c.68-7.05-10.38-6.63-8.49,0ZM295.02,708.52c-.78,2.94,7.62.91,8.99,1.47,1.29-6.71-6.97-6.93-8.99-1.47ZM154.53,621.09c2.01-.07,3.2-1.67,3.99-1.72,1-.07,2.53,1.6,4.07,1.67,2.37.12,4.77-3.1,8.41-1.05-.42-11.82-3.69-20.73-8.51-3.99l-1.93-8.06-4.53-.9c-1.07.72.14,9.32-3.02,9.96-1.81-2.1,0-11.33-1.02-11.99-5.95-3.87-7.71,16.42,2.54,16.08ZM231.85,601.15c1.16.68,2.96,21,2.14,21.85-2.05.72-4.13-1.66-5.49-1.64-2.94.03-4.6,3.71-9.86-.49-7.68-6.13,1.23-16.8,9.35-12.86v-7s3.86.15,3.86.15ZM221.11,618.88c2.61,1.61,5.73-.06,6.52-2.86.93-3.28-5.25-7.28-6.46-3.37l-.06,6.23ZM392.76,616.74c3.23,7.91,19.31,6.36,19.27.76l-2.54-3.5c-2.3,5.37-8.28,6.85-12.49,2.49,4.12.14,6.99.38,10.87-1.62,2.05-14.58-20.7-11.82-15.11,1.87ZM237.76,616.74c3.03,7.41,18.59,7.06,19.08.58l-2.35-3.31c-2.63,4.99-8.45,7.41-12.49,2.48,4.12.14,6.99.38,10.87-1.62,2.05-14.58-20.7-11.82-15.11,1.87ZM453,623c-1.89.73-3.52-1.58-4.52-1.63-2.2-.11-3.35,3.11-8.75.39-9.89-4.96-1.44-18.04,8.26-13.76l-.99-6.99c3.55-1.27,5.99,2.41,5.99,5.5v16.5ZM441.09,611.1c-3.85,8.17,3.47,12.41,5.95,3.46-.25-2.85-3.39-4.16-5.95-3.46ZM128.71,621.72c2.45,0,3.52-2.77,5.95.11,4.25.69.84-11.42-1.19-13.8-3.39-3.96-9.89-3.51-14.47-2.02.33,5.5,7.22.88,11,3,.78,3.42-3.17,1.53-5.45,2.04-.84.19-4.07,1.7-4.33,2.15-3.2,5.65,3.84,8.5,8.49,8.51ZM195,605c-.28,2.97.51,14.05,2.95,15.55,5.16,3.17,4.31-9.56,9.03-10.54,5.11,25.14,9.7,1.49,3.03-2.51-4.1-2.46-9.44,2.08-10.01,1.52.2-3.75-1.5-4.44-5.01-4.01ZM417.51,604.02l-3.41,2.65c.43,2.84.68,17.11,5.91,13.9,2.29-1.4,2.2-8.96,5.49-10.56,2.23-.03,1.65,13.94,7.03,10.01,1.06-10.13-3.1-16.52-13.53-11.03l-1.5-4.98ZM297.49,609.99c3.25-.61-1.67-8.31-3.75-9.28-6.75-3.15-8.51,6.2-7.73,11.29l-5.02.5c.06,3.69,4.98,1.88,5.9,2.6s.01,8.01,3.62,7.86c2.15-.09,1.8-6.46.5-7.97l8-1.02c.64-4.76-7.34-2.33-8-2.99v-7c3.49-.78,3.58,6.54,6.49,5.99ZM181.77,605.2c9.47-1.3,16.12,14.34,4.49,16.59-12.73,2.46-18.08-14.72-4.49-16.59ZM180.67,609.14c-4.7,1.57-2.12,11.33,3.62,9.72,4.88-1.37,3.14-11.98-3.62-9.72ZM302,606c-.73,5.33,1.31,14.12,7.59,15.01,4.09.58,4.61-2.64,6.05-2.92s4.69,3.97,7.36,2.9c-.7-2.83-2.64-4.93-3.81-7.78-.51-1.25-.95-6-1.22-6.18-4.68-3.15-5.71,5.8-6.52,7.95-.31.82-.31,2.86-1.94,2-2.54-1.32-2.72-8.39-2.51-11h-5.01ZM347.13,602.63l-.57,8.43-5.56,2.42c1.35,2.25,4.58,1,6.05,1.95s.34,6.37,3.44,7.54c2.52-1.94,1.26-5.26,1.5-7.97l7.99-1.01-1.67-2.82-6.89-1.1c-1.71-2.44.07-9.62,2.45-5.45,1.44,2.52.76,6.23,5.11,5.38.65-6.47-6.59-13.25-11.86-7.36ZM261.79,618.71c.83,1.68,2.41,3.87,4.68,3.29s.46-10.7,6.03-10.66l3.51,2.18c3.41,1.24,1.82-5.13-3.58-5.49-2.68-.18-4.83,1.88-7.43,1.98l-1.09-4.91c-7.34-2.7-3.8,10.23-2.12,13.62ZM362.19,607.26c-.06,1.91,2.45,11.91,3.77,13.28,6.61,6.86,3.27-9.26,9.55-9.2l3.51,2.18c3.41,1.24,1.82-5.13-3.58-5.49-2.68-.18-4.83,1.88-7.43,1.98l-1.09-4.91c-2.04-.38-4.64-.45-4.73,2.17ZM326,619.5c0,1.86,2.1,3.18,4,2.5v-17.5c0-.56-1.47-2.22-1.01-3.5l-2.99,1.5v17ZM385.91,621.4l3.08.6c2.66-16.51-9.17-15.75-3.08-.6ZM384.01,601c-.37,3.2,1.24,8.6,5.01,6.48l-1.13-6.37-3.88-.12ZM227.62,616.02c.93-3.28-5.25-7.28-6.46-3.37l-.06,6.23c2.61,1.61,5.73-.06,6.52-2.86ZM447.04,614.55c-.25-2.85-3.39-4.16-5.95-3.46-3.85,8.17,3.47,12.41,5.95,3.46ZM184.29,618.86c4.88-1.37,3.14-11.98-3.62-9.72-4.7,1.57-2.12,11.33,3.62,9.72ZM248.01,506.03l-.02,2.96c.63.67,8.51-1.33,10,1.51-3.51.84-10.07,1.15-10.1,5.99-.04,7.48,12.26,4.68,17.1,5.5.75-10.95-5.4-19.57-16.99-15.97ZM329.29,524.78c5.86-1.73,5.97-17.9,3.2-18.78-4.43-1.4-4.67,10.64-8.88,9.94-3.68-.61-1.92-7.34-3.05-9.02l-4.56-.94c-1.17,8.05,3.45,14.57,12,13.01-1.21,4.85-4.12,3.24-8,3,1.28,3.5,6.18,3.69,9.29,2.77ZM289.01,501c-1.03.7-1.45,24.6,5.99,21,.66-.64-1.75-8.65,2.99-8,.9,3.43,2.58,8.58,7.01,7.99,1.51-1.56-2.91-8.06-2.94-9.54-.01-.52,5.3-1.88,1.96-3.96-2.58-1.6-7.13,2.84-10,2.5,1.23-2.67-.87-12.81-5-9.99ZM267.12,506.67c-.53,1.72,1.48,12.99,2.84,13.87,5.75,3.71,3.96-7.29,8.54-9.52,1.75-.02,3.55,15.36,7.03,10.01,1.52-2.33-1.01-11.07-2.78-12.77-4.21-4.03-9.81,2.75-10.74,1.73,1.41-4.09-3.66-7.31-4.89-3.33ZM358,505.99c-2.7,8.47,6.88,22.14,13.5,12.02,2,2.71,4.14,3.46,7.5,2.98l-6.56-13.97c-5.99.46-3.36,7.57-6.93,10.95l-3.65-11.83-3.85-.15ZM342.71,506.22c12.18-2.8,17.08,14.07,6.74,15.72-14.88,2.38-16.78-13.42-6.74-15.72ZM344.71,509.12c-4.98,1.29-5.53,10.93,1.73,9.91,6.55-.92,2.63-11.04-1.73-9.91ZM229,518.5c0,.53,3.08,4.48,3.5,4.48,3.46-1.61,1.15-12.87,4.99-11.98,4.11,3.21.99,10.23,6.02,11.97,4.62-6.99-1.95-17.39-10.51-14.97.27-3.26.35-6.76-4-6.01v16.5ZM223.45,503.05c-6.95-2.39-15.48-.58-22.44.96,2.3,4.26,6.23,2.59,9.96,2.01,1.77,5.3.19,11.2,3.54,16l2.52-.6-1.01-15.41h9.99c.37-2.22-.92-2.39-2.55-2.95ZM346.44,519.03c6.55-.92,2.63-11.04-1.73-9.91-4.98,1.29-5.53,10.93,1.73,9.91ZM238.67,568.07l7.18-.22c1.53-17.46-14.37-4.47-7.18.22ZM215.99,274.51l7.15,29.36,7.76.02c.76-.64,2.41-15.64,3.11-18.39.35-1.39-.02-3.12,1.99-3.5l3.02,21.99,8.94-.04,6.05-29.95-6.56.94-3.94,21.07-3.5-22.02-8.95.06-3.06,21.95c-2-.38-1.64-2.11-1.99-3.5-.7-2.75-2.34-17.74-3.11-18.39l-6.91.41ZM339,304h7.01s-.01-13.01-.01-13.01h10.43s.57,13.01.57,13.01h7.01v-30.01h-7.01s.01,12.01.01,12.01h-10.43s-.57-12.01-.57-12.01h-7.01v30.01ZM310.93,281.52c-.47,11.25,15.71,7.94,15.14,14.96-.4,4.96-11,1.89-14.06.52-1.53,5.23-.79,6.17,4.59,6.91,5.89.81,15.22,1.15,16.36-6.47,1.29-8.65-7.38-10.78-13.96-12.92l-1.06-3c.52-5.35,10.43-1.02,12.44-1.58,1.68-.47,2.22-3.82,1.53-4.84-1.17-1.71-20.53-4.15-20.97,6.43ZM260,274v30h19v-5.01s-11.36-.13-11.36-.13c-1.59-.47-1.64-1.84-1.73-3.35-.06-.96.02-1.93.22-2.87l1.5-1.5,10.37-.13v-5.01s-10.36-.14-10.36-.14c-1.56-.46-1.73-1.83-1.73-3.36,0-.9.07-1.78.52-2.57l12.57-.92v-5.01h-19.01ZM286,274v30h20v-5.01s-13,0-13,0v-25h-7Z"/>
</svg>