<?xml version="1.0" encoding="UTF-8"?>
<svg id="_レイヤー_1" data-name="レイヤー 1" xmlns="http://www.w3.org/2000/svg" width="172.27mm" height="302.02mm" viewBox="0 0 488.33 856.11">
  <path d="M415.14,280.75c20.16,17.31,26.12,40.15,18.02,65.51-.8,2.51-3.54,6.28-3.73,8.11-1.74,17.19,3.41,23.47-6.87,41.29-6.3,10.93-13.79,11.87-18.87,18.13-1.91,2.35-4.02,8.65-6.13,11.87-2.85,4.35-6.66,7.93-9.29,12.4,3.65,5.32,7.68,10.97,10.05,17,1.88,4.77,2.33,10.39,4.3,14.7,4.88,10.66,11.21,15.36,14.8,29.2,3.78,14.59,1.74,25.53,2.93,39.05.28,3.16,4.13,10.48,5.13,14.89s.86,10.63,1.87,14.13c.32,1.1,9.7,14.6,11.65,18.35,12.6,24.27,26.9,53.96,20.37,81.74,28.94,24.79,36.94,62.31,20.63,96.98-2.45,5.22-12.96,19.48-13.68,22.4-.76,3.11,2.28,7.48,2.73,10.83,3.89,28.84-23.94,50.18-50.38,52.45-7.69.66-17.44-1.66-23.93-.98-4.71.49-12.11,3.46-17.59,4.47-21.68,3.98-49.4,5.04-67.5-9.55-2.5-2.02-8.62-10.06-9.53-10.53-1.23-.64-8.05.17-11.24-.71-6.07-1.68-12.53-7.27-13.9-13.58-19.89-2.89-39.31-4.16-59.14.06-5.99,9.45-14.15,16.44-26.05,13.87-19.3,29.65-69.15,26.67-98.03,14.77-5.38-2.22-12.43-7.96-16.61-9.39-4.53-1.55-11.42-1.71-16.79-3.21-21.82-6.06-41.8-23.23-39.23-47.75.35-3.38,3.21-9.12,3.03-10.97-.13-1.33-7.73-11.26-9.21-13.87-21.6-38.11-16.39-75.7,17.01-104.4-2.42-15.51.13-30.57,5.98-44.95,3.9-9.6,11.21-24.66,16.33-33.67,1.69-2.97,8.2-10.84,8.64-12.36,1.33-4.64,1.39-12.67,2.7-18.3,1.42-6.1,4.45-12.94,5.43-18.57,3.11-17.83.54-29.6,9.54-47.46,2.29-4.54,7.75-10.07,9.27-13.73,1.14-2.75.95-6.26,1.97-9.03,3.12-8.47,7.19-14.78,11.38-22.6-3.51-2.06-6.53-5.89-8.91-9.26-2.86-4.07-5.31-11.33-7.72-14.28-2.82-3.46-10.42-6.6-14.87-12.13-14.46-17.96-8.65-28.37-11.64-47.36-.71-4.5-4.68-11.32-5.69-17.31-3.76-22.27,3.82-41.71,20.75-56.24-29.19-1.73-47.88-26.79-49.99-54.52-.5-6.52,1.24-15.44.69-20.86-.27-2.62-6.61-13.34-7.99-17.84-8.38-27.33-4.33-61.87,22.62-76.95,10.1-5.65,22.9-6.85,31.99-12.01,7.78-4.41,16.53-15.72,24.2-21.8,20.88-16.54,34.11-16.37,58.91-7.05l36.59-13.45c1.59-1.18.93-10.35,1.42-13.58,8.32-54.2,91.16-58.45,104.26-3.16,1.45,6.1.74,11.18,2.27,16.73l36.59,13.45c14.45-4.34,25.99-9.48,41.13-4.16s25.03,19.36,36.3,28.7c11.69,9.69,27.59,9.76,40.74,18.26,24.39,15.78,27.46,49.2,19.56,75.01-1.38,4.5-7.72,15.22-7.99,17.84-.55,5.42,1.19,14.34.69,20.86-2.11,27.73-20.81,52.79-49.99,54.52ZM292.16,59.71c6.43-43.98-44.99-72.46-79.5-43.94-12.72,10.52-19.18,27.7-16.55,43.94-7.94.45-14.66,5.27-21.7,7.81-3.37,1.21-17.97,6.75-19.99,7.03-4.81.67-19.22-6.47-26.81-6.8-26.97-1.18-40.13,29.43-61.2,37.77-11.12,4.4-21.62,5.28-31.75,13.25-20.62,16.21-21.03,48.73-12.55,71.5,1.38,3.71,5.16,9.07,5.8,12.2,1.48,7.24-.42,17.92.24,25.76,2.28,27.18,23.06,48.73,50.99,48.52.08,8.04-5.03,8.96-9.51,13.98-13.28,14.89-17.08,36.32-9.98,55,.82,2.17,4.02,6.56,4.2,7.66.46,2.8-1.77,9.42-1.75,12.81.07,13.69,7.05,29.76,17.56,38.52,2.32,1.94,7.1,3.75,8.52,5.48,2.11,2.58,4.82,10.5,7.55,14.45,3.56,5.15,7.53,8.8,12.37,12.7-4.77,6.75-10.34,13.91-13,21.86-1.26,3.78-1.33,8.33-2.52,11.48-.97,2.58-5.39,6.64-7.25,9.75-11.6,19.39-8.22,30.82-11.26,50.74-.69,4.51-4.22,11.98-5.45,17.55-1.3,5.9-1.55,15.63-2.93,20.07-.64,2.06-8.04,10.17-10.1,13.9-7.71,14-20.17,39.97-21.44,55.56-.59,7.28.46,14.54.8,21.77-9.1,10.21-19.16,17.34-24.58,30.46-10.7,25.91-5.5,49.17,8.35,72.18,1.91,3.18,8.38,10.63,9.04,13.07.38,1.4-2.51,6.67-3.12,9.01-6.34,24,16.73,41.56,37.68,46.33,4.51,1.03,10.74.93,14.12,1.88,1.69.48,9.81,6.95,13.35,8.65,25.74,12.35,81.83,17.48,96.5-13.71,11.66,2.37,22.81-1.13,24.97-14.03,21.94-2.55,43.27-2.9,65.21.07,1.92.56,5.31,9.9,10.32,12.68,7.06,3.92,11.51.13,15.66,1.08.57.13,5.25,8.06,6.71,9.54,17.76,18.01,51.48,14.64,74,10.02,3.58-.73,8.71-3.29,11.61-3.48,4.78-.32,12.87,2.08,17.83,2,29.07-.45,64.96-26.84,47.75-58.38,18.54-25.56,29.93-53.58,18.83-85.19-4.94-14.08-14.88-22.79-24.88-33.16,4.34-14.29,1.8-26.89-2.03-40.93s-12.41-32.19-19.25-44.75c-2.07-3.8-10.21-13.25-10.67-15.33-.92-4.15-.59-9.32-1.7-14.3s-4.94-11.95-5.19-15.62c-1.46-22.06,1.98-34.94-10.15-56.04-1.75-3.04-6.82-8.5-7.64-10.36-1.05-2.36-.98-6.82-2.02-9.98-3.34-10.06-8.53-16.89-14.49-25.42,4.6-3.22,8.21-7.06,11.39-11.66,2.73-3.95,5.44-11.87,7.55-14.45,1.41-1.73,6.19-3.55,8.52-5.48,11.34-9.46,17.24-24.79,17.32-39.48.02-2.93-1.91-9.44-1.52-11.86.18-1.11,2.51-3.7,3.21-5.66,6.95-19.66,6.12-39.64-7.97-56-4.64-5.38-10.62-6.73-10.52-14.98,27.93.21,48.71-21.34,50.99-48.52.66-7.84-1.24-18.52.24-25.76.64-3.13,4.41-8.49,5.8-12.2,8.57-22.99,8.05-55.87-13.11-71.94-10.01-7.6-20.32-8.51-31.19-12.81-19.08-7.55-32.87-35.12-55.5-37.49-12.04-1.26-26.09,7.42-32.51,6.52-2.02-.28-16.62-5.82-19.99-7.03-7.04-2.53-13.76-7.36-21.7-7.81ZM265.42,45.58c0,11.77-9.54,21.3-21.3,21.3s-21.3-9.54-21.3-21.3,9.54-21.3,21.3-21.3,21.3,9.54,21.3,21.3ZM260.72,45.56c0-9.17-7.43-16.6-16.6-16.6s-16.6,7.43-16.6,16.6,7.43,16.6,16.6,16.6,16.6-7.43,16.6-16.6Z"/>
</svg>