<?xml version="1.0" encoding="UTF-8"?>
<svg id="_レイヤー_1" data-name="レイヤー 1" xmlns="http://www.w3.org/2000/svg" width="204.61mm" height="305.86mm" viewBox="0 0 580 867">
  <path d="M349.03,63.97c9.32-2.2,18.71.04,25.47,6.96,21.05-16.54,44.81-33.34,70.74-41.2,19.99-6.06,39.37-8.24,56.78,5.75,37.8,30.39,21.92,93.77,11.95,133.93,10.13,6.8,12.38,20.59,7.54,31.59-3.73,8.48-10.91,6.97-1.55,16.55,10.78,11.04,39.73,14.01,42.81,32.19,3.44,20.34-11.13,27.62-26.84,34.89,2.95,13.35,6.65,27.45,2.12,40.91-1.05,3.12-4.48,7.8-4.87,10.21-.18,1.08-.36,20.17-.2,21.76.42,4.15,5.04,11.35,6.53,16.49,5.44,18.84,2.06,40.27-8.07,56.91-2.47,4.06-7.16,8.19-8.85,11.15-1.93,3.41-2.96,9.68-5.03,13.97-10.61,22-34.74,42-58.58,47.52,1.58,6.3,3.05,12.6,3.91,19.06.56,4.18-.28,8.43.37,12.63,2.08,13.47,14.6,55.33,21.34,66.66,7.32,12.3,17.81,20.65,19.41,36.59,1.33,13.17-2.84,23.72,1.22,37.78.53,1.82,7.56,10.54,9.31,13.69,16.34,29.44,22.63,65.56,2.9,94.93-1.56,2.32-5.87,5.73-6.87,8.13-1.23,2.99-1.16,8.13-2.25,11.75-4.79,15.87-19.24,28.46-34.86,33.14-5.14,1.54-11.97,1.71-16.44,3.56-4.13,1.71-9.78,7.04-14.62,9.38-27.21,13.18-70.03,15.28-95.71-2.05-2.24-1.51-6.54-6.42-8.06-7.02-6.49-2.56-30.13-4.48-38.06-4.86-12.22-.59-55.99.31-65.47,5.62-8.78,4.92-13.94,11.45-25.4,15.6-22.32,8.08-61.91,1.94-82.35-10.01-4.55-2.66-10.06-8.21-14.09-9.91-16.2-6.85-29.1-5.73-41.77-22.23-7.3-9.51-4.66-16.19-7.99-24.01-.57-1.33-4.83-4.63-6.31-6.69-19.52-27.04-13.81-65.53,1.31-93.35,2.09-3.85,11.08-15.32,11.48-17.52.44-2.46-.23-5.27.12-7.88,1.21-9.1.48-8.37-.11-17.04-1.91-27.76,16.36-36.71,25.05-59.02,4.69-12.04,15.02-45.2,16.78-57.28.63-4.35-.32-10.61.32-15.63s2.3-10.21,3.9-15.1c-19.8-6.31-37.32-21.33-47.82-39.21-3.59-6.11-5.56-13.66-8.79-19.21-1.81-3.12-5.64-6.61-7.83-10.17-9.66-15.75-13.52-33.68-10.13-51.97.89-4.79,5.18-14.52,5.04-18.08-.25-6.21-1.88-17.37-2.61-24.25s-4.05-11.41-5.44-17.56c-2.74-12.18.52-26.14,3.56-38.05-10.17-1.47-23.53-14.6-24.92-24.6-4.5-32.53,33.64-27.14,45.66-48.93-8.21-8.74-11.61-20.6-6.77-32.01,1.51-3.55,7.61-9.12,7.79-10.1.26-1.37-5.73-22.8-6.46-27.19-5.48-32.88-7.23-83.75,21.77-106.6,27.68-21.82,61.64-6.34,88.59,8.24,5.41,2.93,23.87,15.91,27.29,16.74,2.35.57,8.62-.81,13.09-.12,8.24,1.27,15.54,6.13,22.94,9.55,3.94-72.54,107.01-76.74,118.04-5.02ZM236,63.5c-.57,4.83.42,10.55,0,15.5-12.17-8.1-26.58-18.58-42.02-13.55-33.28-21.83-93.26-61.59-122.78-13.75-14.73,23.87-13.26,60.67-8.91,87.51,1.77,10.92,5.17,21.45,7.79,32.15-16.29,7.79-13.25,28.53-.31,38.12-3.37,6.52-8.63,13.01-14.86,16.93-12.48,7.84-34.61,10.32-32.92,30.08.93,10.95,14.88,23.33,26.02,23.51-2.47,14.37-8.19,29.37-3.48,43.97,3.76,11.67,3.14,12.66,4.49,24.51.51,4.51,3.06,12.5,3.02,16.04s-4.71,14.35-5.59,19.41c-2.73,15.81,1.05,33.78,9.73,47.38,2.09,3.27,6.03,6.51,7.68,9.32,3.41,5.82,5.23,13.98,9.34,20.66,6.93,11.28,18.07,22.79,29.5,29.5,6.5,3.82,13.39,5.84,20.28,8.69-2.8,5.57-5.23,13.9-5.85,20.13-.51,5.15.43,10.57-.36,15.64-1.93,12.37-11.22,41.78-15.74,54.26-7.49,20.64-27.13,35.34-26.06,58.02.18,3.82,2.96,10.57,2.77,12.8-.14,1.65-2.18,5.47-2.63,8.27-.49,3.1.51,6.9-.32,9.69-.36,1.22-6.14,7.1-7.61,9.39-16.24,25.46-25.63,66.15-7.02,92.64,2.19,3.11,6.67,6.42,8.23,9.77,1.91,4.12,1.08,7.98,2.04,11.96,3.22,13.4,19.55,24.1,32.05,27.95,4.29,1.32,10.37,1.61,13.79,3.21s9.39,7.65,13.8,10.2c17.95,10.38,53.79,16.18,73.7,10.86,13.16-3.52,17.86-9.95,27.71-16.29,12.96-8.34,98.09-8.35,111.02,0,2.71,1.75,5.77,5.67,9.17,7.83,25.4,16.11,67.52,11.23,92.99-2.65,3.6-1.96,7.25-6,10.78-7.22,4.06-1.41,9.13-1.27,13.56-2.44,14.81-3.92,29.27-14.9,34.05-29.95,3.09-9.72.12-9.16,6.92-18.08,23.39-30.69,15.63-70.75-5.14-100.8-1.4-2.03-5.13-4.71-5.62-6.38-.87-2.91.1-7.36-.29-10.71-1.12-9.63-.69-8.74.06-18.1,1.79-22.04-9.02-28.35-18.82-44.15-6.66-10.73-20.88-57.99-22.92-71.08-.84-5.37.2-11.18-.36-16.64-.67-6.41-3.68-12.35-4.88-18.61,23.74-2.27,47.43-21.31,58.8-41.71,3.14-5.64,4.24-12.78,6.77-17.23,1.52-2.68,5.91-6.62,8.06-9.94,11.24-17.35,14.58-39.05,7.39-58.65-3.69-10.06-5.02-7.21-4.97-18.94.05-14.16-.28-14,4.24-26.75,5.57-15.72.66-30.38-3.29-45.78,8.13-.26,23.39-8.47,26.88-15.63,12.15-24.96-21.96-29.42-34.79-38.96-2.59-1.92-12.71-12.47-12.95-15.08,7.88-8.94,13.97-18.05,8.26-30.23-2.09-4.46-5.9-5.81-8.39-9.53,4.36-14.44,7.69-29.28,9.82-44.23,2.74-19.27,5.18-37.38-.34-56.33-7.94-27.28-27.32-43.77-56.7-38.71-33.32,5.74-60.87,26.92-87.31,46.46-7.91-9.93-18.27-11.66-29.48-5.76.11-42.67-45.14-69.01-82.31-46.8-12.58,7.52-23.95,23.57-25.7,38.3ZM313.84,64.98c0,13.17-10.67,23.84-23.84,23.84s-23.84-10.67-23.84-23.84,10.67-23.84,23.84-23.84,23.84,10.67,23.84,23.84ZM308.44,65.02c0-10.19-8.26-18.44-18.44-18.44s-18.44,8.26-18.44,18.44,8.26,18.44,18.44,18.44,18.44-8.26,18.44-18.44ZM227,259l6.1,30.9,9.85.05,3.55-21.96,3.61,21.9,9.85.06,6.04-30.95h-7.99s-3.51,22.01-3.51,22.01l-2.49-22.02h-11.01l-2.49,22.02-3.55-21.96-7.95-.05ZM332,353v32h21v-7.01s-12.01.01-12.01.01v-6.01s11.01.01,11.01.01v-6.01l-11.02-.57v-5.43s12.02.01,12.02.01v-7.01h-21.01ZM297.91,267.5c0,10.77,15.1,9.35,15.13,13.98-2.01,5.35-10.37,1.81-14.03-.48l-.03,7.5c6.73,3.99,22.97,3.21,23.05-6.98s-10.84-8.42-16.02-14.02c3.35-4.27,10.03-2.93,13.97-.5l.99-6.96c-7.48-2.73-23.07-4.04-23.07,7.46ZM228,353v32h20v-7.01s-12.01.01-12.01.01v-6.01s11.01.01,11.01.01v-6.01l-11.02-.57v-5.43s12.02.01,12.02.01v-7.01h-20.01ZM272,259v31h20v-6.01s-12.01.01-12.01.01v-6.43s11.01-.57,11.01-.57v-6.01s-11.01.01-11.01.01v-6.01s12.01.01,12.01.01v-6.01h-20.01ZM196,353v7c.62.63,7.75-1.31,9,1.5v23.5h8v-25h9.01s0-7,0-7h-26ZM327,259v6.01s8,0,8,0v25h9v-25h8.01s0-6,0-6h-25ZM215.51,223.8c2.92-.23,3.56-10.01,5.99-11.79,2.48,4.37.01,11.09,7.49,10-.14-3.2-.38-8.74,4-9-.89,9.09,8.06,15.18,5.77,2.72-1.42-7.74-5.83-8.67-12.25-4.7-1.94-4.89-7.24-3.84-10.02-.05l-1.51-3.98c-8.35-1.06-5.03,17.24.53,16.8ZM316,353v32h9v-32h-9ZM289.74,203.26c3.69,4,1.78,16.41,2.26,21.74-6.09-1.82-10.41,2.53-15.95-1.55-8.75-6.44,1.34-17.16,9.95-13.45v-7.99c.45-.48,3.24.71,3.75,1.26ZM280.69,213.1c-4.27,1.06-4.21,12.27,2.86,7.95,5.07-3.1.38-8.76-2.86-7.95ZM301,218.01c3.71,5.95,9.86,3.86,13.51-1.01,4.5,1.04,2.17,4.77-.6,6.41-5.03,2.99-12.35,1.7-16.31-2.52-9.41-10.04,8.16-18.79,13.87-10.87s-4.01,10.53-10.47,7.99ZM306.95,210.04c-1.77-.46-6.4,1.3-5.94,3.45,1.69,2.3,4.63,1.44,6.99,1.51l-1.05-4.96ZM248.05,220.45c2.55.87,4.72.15,6.95,1.04-1.68,4.97-5.31,2.12-8.99,3,11.01,8.64,15.6-1.62,16.03-12.05.12-2.78-.2-4.86-3.52-4.5s-3.98,8.4-8.01,10.01c-4.28-2.75-3.69-6.37-3.5-10.96-9.12-1.13-4.86,11.44,1.05,13.45ZM321.27,221.74c-.8-.84-1.06-2.11-1.14-3.24.59-6.14,7.34-5.26,11.86-5.99-2.4-4.31-14.07,1.29-11.03-5.04,5.46-1.42,12.4-.85,15.45,4.61,1.07,1.91,3.45,10.25,1.6,11.47-.44.29-9.54.59-10.52.51-1.48-.12-5.3-1.34-6.23-2.32ZM325,219.99c2.68-.2,6.02,1.01,7.98-1.49-2.34-3.54-8.65-4.09-7.98,1.49ZM341.13,208.58c-.6,2.67,3.02,16.69,7.38,16.4,3.54-3.41,1.17-12.06,7.93-10.99.83.13,5.31,3.68,5.54.52.33-4.54-11.27-5.45-13.96-1.51,1.34-4.64-5.93-8.65-6.88-4.42ZM365.01,202c-1.65,5.13-1.72,12.08,2.49,15.98,2.43.03,1.42-12.69,1.34-14.82l-3.83-1.16ZM394.99,206c-1.5.23-1.87,1.89-2.51,2.98-2.6,4.39-7.34,13.36-9.02,17.99-.34.94-1.32,3.25.53,3.03l11-23.99ZM371.35,233.49l1.64.51,6.43-20.72-1.64-.51-6.43,20.72ZM392.99,183c-3.08,3.67-6.89,10.44-8.53,14.96-.34.94-1.32,3.25.53,3.03l8-17.99ZM359,353c6.75.27,22.84-1.57,24.05,7.45.69,5.12-.37,7.9-5.08,10.07l6.04,13.97-8.06.06c-2.95-4.66-1.6-12.42-8.96-10.55v11.01s-8,0-8,0v-32ZM368.58,359.12c-2.28.55-1.9,6.03-1.13,7.94,4.35,2.74,9.44-1.13,7.11-6.12l-5.98-1.82ZM367.45,367.05c4.35,2.74,9.44-1.13,7.11-6.12l-5.98-1.82c-2.28.55-1.9,6.03-1.13,7.94ZM285,353c14.24-1.6,35.12,3.18,18.01,18.98,4.47,1.42,4.83,9.22,6.99,13.01l-8.9-.09c-1.16-3.88-1.22-10.7-6.58-10.93-2.12-.09-1.31.03-1.53,1.51-.27,1.79.38,9.17.01,9.54h-8.01v-32.01ZM299.77,360.21l-6.31-.26-.46,8.05c5.87.66,9.86-1.9,6.77-7.79ZM293.46,359.95l-.46,8.05c5.87.66,9.86-1.9,6.77-7.79l-6.31-.26ZM255,353c13.49-1.67,34.91,3.52,18.02,18.5,4.4,3.3,4.28,9.08,6.98,13.49l-8.86-.13c-1.91-3.56-1.45-10.71-6.62-10.89-2.12-.07-1.3,0-1.52,1.5-.27,1.79.38,9.17.01,9.54h-8.01v-32.01ZM263,368c9.87.74,10.17-9.05,0-9v9ZM263.01,359v9c9.87.74,10.16-9.05,0-9ZM344,306l6.48,31.02,9.38.84,3.64-22.87,3.5,23.02,9.9-.11,7.1-31.89-9-.02-2.5,21.01c-2.43.71-1.27-2.24-1.44-3.54-.77-5.8-1.52-11.63-2.06-17.45l-9.85.13-3.64,21.87-3.61-21.9-7.9-.1ZM267,338h8v-17c6.96,5.94,6.02,20.09,18,17v-32h-8v17c-3.53-2.32-7.35-14.9-9.98-16.52-1.95-1.2-5.7-.2-8.02-.48v32ZM89,336.5c2.13,2.61,5.98,1.22,9,1.5v-14l9.06.44.93,13.57h8.01v-32.01h-8.01s-.57,12.02-.57,12.02h-9.43s.01-12.02.01-12.02h-9.01v30.51ZM167,318h-14v6.01s6,0,6,0l-.96,7.59c-20.13-.71-12.97-27,5.9-17.6l2.05-5.97c-14.17-5.34-29.91-1.35-28,16.49,1.49,13.89,18.38,16.63,29,10.99v-17.5ZM389,338h8.01s.13-12.36.13-12.36c.83-2.52,8.89-2.52,9.72,0l.13,12.37h8.01v-32.01h-8.01s.01,12.01.01,12.01h-9.43s-.57-12.01-.57-12.01h-8.01v32.01ZM174,338h8.01s.13-12.36.13-12.36c.83-2.52,8.89-2.52,9.72,0l.13,12.37h8.01v-32.01h-8.01s.01,12.01.01,12.01h-9.43s-.57-12.01-.57-12.01h-8.01v32.01ZM470,306v32h19.5l1.5-7h-13.01s.44-6.06.44-6.06l11.57-.93v-6.01s-12.01.01-12.01.01v-5.01s12.07-.43,12.07-.43l.94-6.56h-21ZM251.9,306.1l10.1,31.89-8.9-.09-1.59-5.92c-6.31-2.83-10.38-1.2-10.61,5.92l-8.9.09,10.48-31.01,9.41-.88ZM247.99,314c-2.64-.24-1.63-.06-1.98,1.5-.71,3.12-1,6.42-2.01,9.5h5.99s-2-11-2-11ZM438,306v7.01s9,0,9,0v25h8v-25h9.01s0-7,0-7h-26ZM207,306v32h20.5l1.5-7h-13s0-25,0-25h-9ZM123,338h9v-32h-9v32ZM423,306v32h9v-32h-9ZM246.01,315.49c-.71,3.12-1,6.42-2.01,9.5h5.99s-2-11-2-11c-2.64-.24-1.63-.06-1.98,1.5ZM300,306c12.54-.61,26.44-.38,26.43,15.5,0,16.09-13.59,17.05-26.43,16.5v-32ZM308,331c6.62,1.25,11-2.87,11.02-9.5.02-8.97-11.02-11.25-11.02-8v17.5ZM319.02,321.5c.02-8.97-11.02-11.25-11.02-8v17.5c6.62,1.25,11-2.87,11.02-9.5ZM283.56,221.05c5.07-3.1.38-8.76-2.86-7.95-4.27,1.06-4.21,12.27,2.86,7.95ZM301.01,213.49c1.69,2.3,4.63,1.44,6.99,1.51l-1.05-4.96c-1.77-.46-6.4,1.3-5.94,3.45ZM332.98,218.5c-2.34-3.54-8.65-4.09-7.98,1.49,2.68-.2,6.02,1.01,7.98-1.49ZM358,542.01l12-.03c.54-3.28-4.16-1.45-7.37-3.11-7.46-3.85-5.05-13.68,3.92-13.92,9.06-.24,9.69,10.83,8.46,17.55-1.02,5.52-14.45,4.4-17-.49ZM365.63,528.07c-5.56,1.61-1.14,15.24,4.42,4.39.27-2.29-2.01-5.09-4.42-4.39ZM288.86,522.15l.18,5.82c5.65-.41,15.26,5.99,10.39,11.97-2.36,2.89-12.06,5.13-14.42,2.57s-5.11-25.76,3.86-20.36ZM289,540c6.7-.61,8.23-6.21,1.49-8.97-2.63,2.16-1.2,6.01-1.49,8.97ZM317.75,527.26c.62.59,2.2,4.4,2.26,5.33.39,5.81-8.19,5-12,4.9,2.15,3.28,7.35,3.37,10.39,1.4,1.25-.81,2.41-3.79,3.08-3.83.54-.03,2.66.86,2.59,2.45-.43,9.68-24.67,6.87-21.87-5.79,1.29-5.83,12.13-7.67,15.54-4.46ZM313.89,529.09c-1.34-.98-5.86.82-6.87,2.41,3.29,5.79,11.11.69,6.87-2.41ZM351.95,528.55c-3.16-2.42-7.88-1.37-10.46,1.43-8.24-15.75-6.85,8.9-3.85,11.1.7.52,3.62,1.29,4.26.84l5.6-10.9c1.59-.02,2.87,14.13,7.49,10.98,1.86-1.27-.97-11.86-3.03-13.44ZM221.45,523.05c-6.37-6.79-12.91.98-10.55,8.84l-5.88,2.59,7,1.51c-.21,3.21-.54,7.27,3.48,8,2.57-2.01,1.66-5.51.51-7.98l9-1.02-1.67-2.82-7.33-.17v-8c3.71-.46,3.14,4.24,4.23,5.75,2.62,3.63,5.79-1.83,1.23-6.7ZM234.73,526.23c6.8-1.38,11.06,1.03,12.81,7.74,3.21,12.28-19.12,11.85-19.61.5-.19-4.43,2.56-7.38,6.8-8.25ZM240.76,530.24c-.61-.64-2.21-1.11-3.1-.99-4.44,1.08-6.26,5.4-3.68,9.27,3.04,2.16,5.83,2.06,8.12-1,1.43-1.25-.46-6.35-1.34-7.28ZM250.93,526.67c1.49,6.13,0,17.69,9.07,16.34-.52-3.42.84-11.38,5.34-10.75,1.06.15,9.82,4.18,4.99-1.3-4.16-4.72-12.77.66-13.32.05.51-4.3-2.2-7.84-6.08-4.34ZM332.99,542.99l-1-12c-9.71-2.49-2.66,15.85,1,12ZM331.56,521.94l-4.56-.93c-.36,3.2,1.18,7.79,4.99,7.99l-.43-7.06ZM344.74,620.26c1.43,1.27,3.1,20.08,2.16,21.63-2.45,1.82-4.27-.77-6.22-.66-1.57.09-3.19,1.71-5.03,1.53-6.18-.61-10.52-8.01-6.72-13.33,1.85-2.6,9.13-3.87,12.07-2.43l-.96-6.42c.46-1.9,3.79-1.14,4.71-.32ZM334.63,630.06c-3.62,1.75-2.97,8.84.82,8.94,2.61-.35,4.57-2,5.3-4.52-1.32-1.63-3.79-5.11-6.12-4.42ZM286.01,635c2.12,6.77,10.66,3.35,13.5-1,4.5,1.04,2.17,4.77-.6,6.41-5.18,3.08-13.17,1.89-16.93-2.9-8.56-10.9,9.69-17.81,14.46-10.46,5.4,8.33-3.9,10.61-10.43,7.94ZM293,631.99l-2.6-4.92-5.38,3.43c2.2,2.38,5.12,2.53,7.98,1.49ZM232,620.75l-.99,10.26-5.99,1.5c1.75,2.67,3.96,2.52,6.86,2.62l1.19,6.81,3.93.07v-8.01s8.01,0,8.01,0v-2.97s-9.01-1.02-9.01-1.02c.17-2.81-.95-6.13,1.5-7.98,3.07,2.19,1.94,8.11,6.49,6.98.96-6.88-5.83-13.26-12-8.25ZM305.1,624.12c-.65,1.06.34,13.54,1.09,14.69.15.22,4.29,2.15,4.83,1.74l5.48-11.53c2.26-.04,2.39,14.71,8.03,11.01,1.28-10.21-4.33-19.18-14.52-11.03,1.39-3.17-3.15-7.75-4.91-4.88ZM248.94,624.44c-2.07,1.44,1.42,18.66,6.52,17.55,2.99-2.9,1.54-11.38,6.96-11.02,2.46.16,4.49,3.71,6.56.52-4.04-5.5-8.73-5.24-13.97-1.5.36-3.25-2.49-8.04-6.07-5.56ZM271.99,629.59c-.12,4.72-.72,9.26,3.51,12.39,2.35.05,1.83-10.97.35-12.83l-3.86.44ZM271.1,621.38c.63,2.9,2.44,6.31,5.89,5.61l-1.1-6.88c-1.52.05-5.34-1.27-4.79,1.27ZM335.45,639c2.61-.35,4.57-2,5.3-4.52-1.32-1.63-3.79-5.11-6.12-4.42-3.62,1.75-2.97,8.84.82,8.94ZM290.4,627.07l-5.38,3.43c2.2,2.38,5.12,2.53,7.98,1.49l-2.6-4.92ZM370.05,532.45c.27-2.29-2.01-5.09-4.42-4.39-5.56,1.61-1.14,15.24,4.42,4.39ZM290.49,531.02c-2.63,2.16-1.2,6.01-1.49,8.97,6.7-.61,8.23-6.21,1.49-8.97ZM307.02,531.5c3.29,5.79,11.11.69,6.87-2.41-1.34-.98-5.86.82-6.87,2.41ZM318.9,474.59c-2.22,4.57.12,9.21,3.9,12.11l8.19,2.79-8.99,2.01c6.35,5.69,14.24,3.26,15.77-5.23.79-4.36,1.69-13.65-4.83-10.82-4.19,12.27-9.9,12.28-10.02-1.36l-4.03.51ZM245.32,482.3c2.63-3.14,7.27-1.78,10.68-2.79-2.61-4.87-14.03,1.37-11.03-5.04,5.06-1.19,12.16-1.05,15.26,3.8,1.17,1.83,3.23,9.3,2.69,11.09-.47,1.56-8.58,1.81-10.37,1.7-3.27-.21-6.82-1.66-8.39-4.76-.34-1.37.28-2.94,1.16-3.99ZM257,484.01c-1.9-.93-8.69-2.11-7.99,1.47.43,2.22,8.73,2.7,7.99-1.47ZM289.01,469c-.92.66-.21,13.33.08,15.41.46,3.36,1.89,7.21,5.91,6.58.93-.95-1.77-8.52,1.51-8.01,4.26.66,3.85,9.78,10.49,8.01l-3.98-9.51c1.99-1.59,3.7-1.22,2.98-4.47-4.41-1.85-7.51,2.64-11.99,1.99,1.27-2.78-.99-12.85-4.99-10ZM265.15,475.73c-.34,1.29,1.72,12.81,2.47,13.36,6.39,4.72,5.58-7.92,9.88-10.07l6,11.96c4.6-1.22.26-13.45-1.48-14.5-4.22-2.53-10.53,1.87-11,1.51.05-4.37-4.59-7.11-5.87-2.27ZM367.49,474.01c-5.88-1.8-4.67,10.29-.01,14.01,7.47,5.98,9.42-.84,11.01-.85.6,0,4.89,4.31,7.5,2.82l-5.65-14.04c-8.2-1.98-2.95,8.81-9.34,10.05-1.93-2.26-1.56-11.39-3.53-11.99ZM347.73,474.23c4.37-.9,7.47-.2,10.12,3.43,10.77,14.78-12.53,18.01-17.12,7.06-2.04-4.86,2.29-9.52,7-10.49ZM350.49,477.35c-1.71.01-5.43,3.31-5.47,5.13,7.65,16.15,14.38-5.21,5.47-5.13ZM228.97,476.58c-1.82-2.99.21-7.39-4.95-6.58-.4,3.97-1.46,19.81,2.65,20.87l2.87-.84c1.32-3.95-1.15-8.36,2.97-11.01,4.58,3.53,1.8,11,7.01,12.95,3.34-2.99.87-10.9-1.85-13.63-3.96-3.96-7.57-.92-8.69-1.77ZM220.51,473c-.83-1.09-1.64-1.73-3.03-1.98-7.67-1.35-15.95-.91-23.47.99l1.67,2.82,9.33.17c.68.68-1.27,18.66,6,15.5l-1.01-16.49c.81-.81,12.22,3.03,10.51-1ZM249.01,485.48c.43,2.22,8.73,2.7,7.99-1.47-1.9-.93-8.69-2.11-7.99,1.47ZM345.02,482.48c7.65,16.15,14.38-5.21,5.47-5.13-1.71.01-5.43,3.31-5.47,5.13ZM211.55,578.99c-8.23-4.83-6.42,10.19-2.51,13.47,4.45,3.74,6.24.13,8.66-.28,1.2-.2,2.63,1.95,4.8,1.95s3.06-1.66,4.25-1.91c1.59-.34,3.01.86,3.73.78,2.67-.31-.26-3.98-.43-5.54-.28-2.47.05-4.99-.05-7.45-8.78-1.72-3.87,5.88-8.99,9l-1.48-9.04-3.93-.04c-1.52,1.21-.15,8.95-3.59,10.07l-.46-11.01ZM300,596c-2.22.94-4.35-1.48-5.51-1.58-3.27-.28-6.79,3.95-12.02-1.38-7.08-7.21,3.21-15.73,11.53-13.05l-.99-6.99c9.31-1.05,5.7,16.58,6.99,23ZM286.14,591.86c15.58.29,1.56-14.87-.99-5.14-.46,1.76.32,3.55.99,5.14ZM318.75,579.26c1.31,1.23,2.88,5.97,1.79,7.75-1.89,3.09-8.65,1.27-11.53,2.48,5.71,7.27,11.73-2.04,13.46-2.21,4.66-.44,2.91,6.68-4.03,7.64-7.6,1.05-16.79-2.51-15.39-11.37,1.06-6.68,12.49-7.32,15.7-4.3ZM316,584.99l-2.46-4.75-5.52,3.26c2.36,2.77,4.82,2.67,7.98,1.49ZM187,582.99c-1.76-4.32-10.23.12-11.99-3.51-1-2.06,5.67-2.58,6.49-2.57,9.91.09,15.16,9.96,10.97,18.09-4.08-3.22-12.07,1.43-15.54-3.43-4.45-6.21,5.01-9.45,10.07-8.59ZM180,589.99c4.83,1.73,11.77.91,5.29-3.85-1.61-.84-6.64,2.36-5.29,3.85ZM258.13,577.12c-1.75,1.07.11,20.53,5.93,16.44,1.91-1.34,1.75-10.85,6.93-10.56.46,2.6,1.58,13.63,6.03,10.52,4.2-2.94-4.48-22.91-14.01-11.52l-1.14-4.86h-3.74ZM374,578c-.37,5.49-.04,11.25,5.05,14.45,6.8,4.27,7.24-.91,9.59-1.35,1.82-.34,5.69,5.61,8.34,1.41-4.62-1.64-4.62-12.77-6.58-13.42-6.14-2.05-4.76,8.2-7.9,10.91-3.26-3.31-3.94-7.51-3.49-11.99h-5.01ZM366.57,573.93c-2.27-1.62-5.32-.84-7.9-.97-2.21.53-1.64,9.12-1.66,11.04-9.16-.58-7.1,5.29,1,3.99-.21,3.21-.54,7.27,3.48,8,3.24-1.58.36-7.18.95-8.02l8.57-1.49c-.07-3.4-6.89-2.64-8.91-3.59l-.1-6.89c1.92-2.22,5.16,8.92,7.99,5.99,1.2-1.24-2.1-7.11-3.43-8.06ZM240.71,578.22c3.16-.72,8.41-.7,10.74,1.83,8.79,9.55-.77,18.3-11.46,13.46-7.91-3.59-7.03-13.53.71-15.29ZM246.87,581.13c-12.24-.84-8.36,15.18,1.65,8.88,1.72-2.8-.74-6.23-1.65-8.88ZM327.99,577.56c.37,5.79-.15,18.02,7.98,17.42,1.77-9.15,1.98-13.01,12.02-8.99-1.26-6.72-9.4-6.02-13.98-3,.03-3.63-1.96-7.66-6.02-5.44ZM400.22,592.28c.49,1.5,2.02,3.02,3.77,2.71.88-.68,0-21.29-1-21.99-5.38-3.8-3.44,17.18-2.77,19.28ZM285.14,586.72c-.46,1.76.32,3.55.99,5.14,15.58.29,1.56-14.87-.99-5.14ZM313.54,580.24l-5.52,3.26c2.36,2.77,4.82,2.67,7.98,1.49l-2.46-4.75ZM185.29,586.14c-1.61-.84-6.64,2.36-5.29,3.85,4.83,1.73,11.77.91,5.29-3.85ZM248.52,590.01c1.72-2.8-.74-6.23-1.65-8.88-12.24-.84-8.36,15.18,1.65,8.88ZM332,713c6.84-.2,20.71-.71,16.34,9.77-1.03,2.46-4.02,1.11-4.33,3.21,3.98.77,6.12,2.23,6.1,6.52-.03,9.09-11.78,7.5-18.11,7.5v-27ZM336,724c12.04,1.65,12.01-8.67,0-7.01v7.01ZM336,736c13.16,2.13,13.61-10.25,0-8.01v8.01ZM248,740h5.01c-2.5-20.78,10.94-21.91,8,0h4v-15.5c0-4.7-9.14-4.25-11.99-1.5v-10s-5.01,0-5.01,0v27ZM327,732h-14c1.23,6.27,7.18,5.55,11.99,4,.1,7.26-14,5.01-15.74-1.75-4.34-16.86,19.3-18.62,17.75-2.26ZM323,728.99c.16-6.18-8.46-7.15-9.98-1.47-.43,2.25.99,1.37,2.47,1.48,2.48.18,5.03-.12,7.51,0ZM306,732h-14c.06,5.81,6.19,5.66,10.55,4.32l1.45,2.67c-4.95,1.69-13.62,2.26-15.55-3.94-5.3-17.03,18.34-20.14,17.55-3.05ZM301,728.99c.68-7.04-10.38-6.62-8.49.01h8.49ZM223,713v4s6.35.16,6.35.16l1.65,1.34v21.5h4v-23h8s0-4,0-4h-20ZM271,740h4c-.48-8.39-.44-14.84,9.02-16.5l-.52-2.51-7.98,3.02-.6-2.88-3.91-.13v19ZM336,728v8.01c13.16,2.13,13.61-10.25,0-8.01ZM336,717v7.01c12.04,1.65,12.01-8.67,0-7.01ZM313.02,727.52c-.43,2.25.99,1.37,2.47,1.48,2.48.18,5.03-.12,7.51,0,.16-6.18-8.46-7.15-9.98-1.47ZM292.51,729.01h8.49c.68-7.05-10.38-6.63-8.49,0ZM237.66,529.25c-4.44,1.08-6.26,5.4-3.68,9.27,3.04,2.16,5.83,2.06,8.12-1,1.43-1.25-.46-6.35-1.34-7.28-.61-.64-2.21-1.11-3.1-.99Z"/>
</svg>