<?xml version="1.0" encoding="UTF-8"?>
<svg id="_レイヤー_1" data-name="レイヤー 1" xmlns="http://www.w3.org/2000/svg" width="192.81mm" height="299.69mm" viewBox="0 0 546.55 849.51">
  <path d="M332.31,51.64c9.32-2.2,18.71.04,25.47,6.96,21.05-16.54,44.81-33.34,70.74-41.2,19.99-6.06,39.37-8.24,56.78,5.75,37.8,30.39,21.92,93.77,11.95,133.93,10.13,6.8,12.38,20.59,7.54,31.59-3.73,8.48-10.91,6.97-1.55,16.55,10.78,11.04,39.73,14.01,42.81,32.19,3.44,20.34-11.13,27.62-26.84,34.89,2.95,13.35,6.65,27.45,2.12,40.91-1.05,3.12-4.48,7.8-4.87,10.21-.18,1.08-.36,20.17-.2,21.76.42,4.15,5.04,11.35,6.53,16.49,5.44,18.84,2.06,40.27-8.07,56.91-2.47,4.06-7.16,8.19-8.85,11.15-1.93,3.41-2.96,9.68-5.03,13.97-10.61,22-34.74,42-58.58,47.52,1.58,6.3,3.05,12.6,3.91,19.06.56,4.18-.28,8.43.37,12.63,2.08,13.47,14.6,55.33,21.34,66.66,7.32,12.3,17.81,20.65,19.41,36.59,1.33,13.17-2.84,23.72,1.22,37.78.53,1.82,7.56,10.54,9.31,13.69,16.34,29.44,22.63,65.56,2.9,94.93-1.56,2.32-5.87,5.73-6.87,8.13-1.23,2.99-1.16,8.13-2.25,11.75-4.79,15.87-19.24,28.46-34.86,33.14-5.14,1.54-11.97,1.71-16.44,3.56-4.13,1.71-9.78,7.04-14.62,9.38-27.21,13.18-70.03,15.28-95.71-2.05-2.24-1.51-6.54-6.42-8.06-7.02-6.49-2.56-30.13-4.48-38.06-4.86-12.22-.59-55.99.31-65.47,5.62-8.78,4.92-13.94,11.45-25.4,15.6-22.32,8.08-61.91,1.94-82.35-10.01-4.55-2.66-10.06-8.21-14.09-9.91-16.2-6.85-29.1-5.73-41.77-22.23-7.3-9.51-4.66-16.19-7.99-24.01-.57-1.33-4.83-4.63-6.31-6.69-19.52-27.04-13.81-65.53,1.31-93.35,2.09-3.85,11.08-15.32,11.48-17.52.44-2.46-.23-5.27.12-7.88,1.21-9.1.48-8.37-.11-17.04-1.91-27.76,16.36-36.71,25.05-59.02,4.69-12.04,15.02-45.2,16.78-57.28.63-4.35-.32-10.61.32-15.63s2.3-10.21,3.9-15.1c-19.8-6.31-37.32-21.33-47.82-39.21-3.59-6.11-5.56-13.66-8.79-19.21-1.81-3.12-5.64-6.61-7.83-10.17-9.66-15.75-13.52-33.68-10.13-51.97.89-4.79,5.18-14.52,5.04-18.08-.25-6.21-1.88-17.37-2.61-24.25s-4.05-11.41-5.44-17.56c-2.74-12.18.52-26.14,3.56-38.05-10.17-1.47-23.53-14.6-24.92-24.6-4.5-32.53,33.64-27.14,45.66-48.93-8.21-8.74-11.61-20.6-6.77-32.01,1.51-3.55,7.61-9.12,7.79-10.1.26-1.37-5.73-22.8-6.46-27.19-5.48-32.88-7.23-83.75,21.77-106.6,27.68-21.82,61.64-6.34,88.59,8.24,5.41,2.93,23.87,15.91,27.29,16.74,2.35.57,8.62-.81,13.09-.12,8.24,1.27,15.54,6.13,22.94,9.55,3.94-72.54,107.01-76.74,118.04-5.02ZM219.28,51.16c-.57,4.83.42,10.55,0,15.5-12.17-8.1-26.58-18.58-42.02-13.55-33.28-21.83-93.26-61.59-122.78-13.75-14.73,23.87-13.26,60.67-8.91,87.51,1.77,10.92,5.17,21.45,7.79,32.15-16.29,7.79-13.25,28.53-.31,38.12-3.37,6.52-8.63,13.01-14.86,16.93-12.48,7.84-34.61,10.32-32.92,30.08.93,10.95,14.88,23.33,26.02,23.51-2.47,14.37-8.19,29.37-3.48,43.97,3.76,11.67,3.14,12.66,4.49,24.51.51,4.51,3.06,12.5,3.02,16.04s-4.71,14.35-5.59,19.41c-2.73,15.81,1.05,33.78,9.73,47.38,2.09,3.27,6.03,6.51,7.68,9.32,3.41,5.82,5.23,13.98,9.34,20.66,6.93,11.28,18.07,22.79,29.5,29.5,6.5,3.82,13.39,5.84,20.28,8.69-2.8,5.57-5.23,13.9-5.85,20.13-.51,5.15.43,10.57-.36,15.64-1.93,12.37-11.22,41.78-15.74,54.26-7.49,20.64-27.13,35.34-26.06,58.02.18,3.82,2.96,10.57,2.77,12.8-.14,1.65-2.18,5.47-2.63,8.27-.49,3.1.51,6.9-.32,9.69-.36,1.22-6.14,7.1-7.61,9.39-16.24,25.46-25.63,66.15-7.02,92.64,2.19,3.11,6.67,6.42,8.23,9.77,1.91,4.12,1.08,7.98,2.04,11.96,3.22,13.4,19.55,24.1,32.05,27.95,4.29,1.32,10.37,1.61,13.79,3.21s9.39,7.65,13.8,10.2c17.95,10.38,53.79,16.18,73.7,10.86,13.16-3.52,17.86-9.95,27.71-16.29,12.96-8.34,98.09-8.35,111.02,0,2.71,1.75,5.77,5.67,9.17,7.83,25.4,16.11,67.52,11.23,92.99-2.65,3.6-1.96,7.25-6,10.78-7.22,4.06-1.41,9.13-1.27,13.56-2.44,14.81-3.92,29.27-14.9,34.05-29.95,3.09-9.72.12-9.16,6.92-18.08,23.39-30.69,15.63-70.75-5.14-100.8-1.4-2.03-5.13-4.71-5.62-6.38-.87-2.91.1-7.36-.29-10.71-1.12-9.63-.69-8.74.06-18.1,1.79-22.04-9.02-28.35-18.82-44.15-6.66-10.73-20.88-57.99-22.92-71.08-.84-5.37.2-11.18-.36-16.64-.67-6.41-3.68-12.35-4.88-18.61,23.74-2.27,47.43-21.31,58.8-41.71,3.14-5.64,4.24-12.78,6.77-17.23,1.52-2.68,5.91-6.62,8.06-9.94,11.24-17.35,14.58-39.05,7.39-58.65-3.69-10.06-5.02-7.21-4.97-18.94.05-14.16-.28-14,4.24-26.75,5.57-15.72.66-30.38-3.29-45.78,8.13-.26,23.39-8.47,26.88-15.63,12.15-24.96-21.96-29.42-34.79-38.96-2.59-1.92-12.71-12.47-12.95-15.08,7.88-8.94,13.97-18.05,8.26-30.23-2.09-4.46-5.9-5.81-8.39-9.53,4.36-14.44,7.69-29.28,9.82-44.23,2.74-19.27,5.18-37.38-.34-56.33-7.94-27.28-27.32-43.77-56.7-38.71-33.32,5.74-60.87,26.92-87.31,46.46-7.91-9.93-18.27-11.66-29.48-5.76.11-42.67-45.14-69.01-82.31-46.8-12.58,7.52-23.95,23.57-25.7,38.3ZM297.12,52.64c0,13.17-10.67,23.84-23.84,23.84s-23.84-10.67-23.84-23.84,10.67-23.84,23.84-23.84,23.84,10.67,23.84,23.84ZM291.72,52.69c0-10.19-8.26-18.44-18.44-18.44s-18.44,8.26-18.44,18.44,8.26,18.44,18.44,18.44,18.44-8.26,18.44-18.44Z"/>
</svg>