<?xml version="1.0" encoding="UTF-8"?>
<svg id="_レイヤー_1" data-name="レイヤー 1" xmlns="http://www.w3.org/2000/svg" width="204.61mm" height="305.86mm" viewBox="0 0 580 867">
  <path d="M345.11,81.9c5.2.32,9.27,3.84,13.92,5.58,3.08,1.15,15.09,5.24,17.6,5.48,10.61,1.02,19.5-8.65,36.41-4.49,19.54,4.81,29.11,22.71,43.63,32.37,7.17,4.76,18.7,6.12,27,10,30.15,14.06,36.68,48.09,27.61,77.95-1.54,5.06-6.58,12.7-7.22,16.78-1.06,6.79.51,15.74-.08,22.92-1.97,24.11-19.99,48.53-44.98,51.53,16.12,16.03,21.61,36.95,15.49,58.98-.92,3.31-3.97,8.59-4.33,10.76-.49,2.96,1.14,10.21.82,14.73-.79,11.31-6.62,26.3-14.46,34.54-3.04,3.2-10.17,6.7-11.95,9.05-.78,1.03-4.65,9.14-4.56,10.35.12,1.73,2.81,7.77,3.55,10.52.57,2.14.04,4.72.61,6.39.25.73,6.81,5.82,8.34,7.66,8.51,10.2,9.33,23.75,8.48,36.5-.23,3.41-2.05,6.53-2.07,10.01-.04,7.28,2.65,18.85,3.13,26.97.66,11.12.82,10.01,3.45,20.52,1.27,5.08,1,11.99,2.77,16.23,1.45,3.46,6.64,8.86,8.9,13.1,3.82,7.17,8.67,17.49,12,25,7.93,17.86,11.8,35.59,7.06,55.06,8.84,10.67,18.77,18.48,24.24,31.63,9.91,23.8,6.75,49.46-5.31,71.65-2,3.68-9.01,12.62-9.75,15.3-.68,2.45,2.1,6.71,2.49,9.61,4.2,31.29-27.03,52.65-55.37,53.46-6.04.17-13.66-2.26-18.81-1.83-2.59.22-7.35,2.64-10.72,3.3-24.64,4.8-56.98,7.78-76.55-11.47-2.92-2.87-7.99-12.4-9.76-13.74-10.43-7.91-38.77-9.9-52.24-9.34-5.56.23-27.06,2.14-31.21,3.79-.53.21-9.49,5.21-9.95,5.55-1.65,1.24-7.26,11.46-10.81,14.69-22.17,20.13-68.82,16.49-94.17,4.18-3.57-1.74-7.71-5.57-11.13-6.87-4.42-1.69-10.31-1.54-15.21-2.79-22.77-5.82-43.33-24.66-39.91-49.92.34-2.49,3.02-7.4,2.71-8.95-.18-.88-8.47-12.27-9.96-14.97-19.22-34.67-13.69-73.59,17.62-98.62-4.12-24.06,4.54-40.41,14.41-60.69,2.11-4.34,3.74-9.86,5.96-14.04s7.45-9.64,8.9-13.1c.98-2.33,7.37-29.98,8.04-33.96,3.6-21.33.55-30.29,11.72-51.28,4.82-9.05,6.11-11.15,9.77-21.23.93-2.55,5.19-10.14,5.29-11.2.8-8.3-4.66-15.37-8.74-21.86-5.99-9.53-8.18-8.05-14.78-15.22-7.84-8.51-13.45-23.42-14.06-34.93-.24-4.47,1.2-9.71,1-12.99-.15-2.44-4.59-11.1-5.5-15.51-4.31-20.95,1.5-40.05,16.53-55.02-25-3-43.02-27.42-44.98-51.53-.59-7.18.99-16.13-.08-22.92-.64-4.08-5.68-11.72-7.22-16.78-9.07-29.86-2.54-63.89,27.61-77.95,8.3-3.87,19.84-5.23,27-10s16.27-15.84,24.2-21.8c20.5-15.44,32.16-13.05,55.88-6.05l31.49-11.08c-2.51-18.54-.28-35.84,12.14-50.37,22.55-26.4,63.34-26.45,85.94,0,12.44,14.56,14.73,31.8,12.14,50.37ZM340.76,820.25c1.58,1.5,5.07,8.84,7.73,11.76,18.34,20.08,48.4,17.07,72.55,12.52,4.15-.78,8.53-3.23,12.47-3.55,7.06-.58,15.91,1.75,23.98,1,22.07-2.06,48.58-20.6,45.26-45.23-.45-3.33-3.9-10.05-3.59-12.03.2-1.3,10.56-16.16,12.37-19.7,10.75-21.09,12.92-43.49,3.66-65.7-5.42-13-15.87-20.91-25.02-31.02,5.84-19.37,2.02-37.03-5.99-54.98-3.25-7.3-8.25-18.14-12-25-2.02-3.7-9.32-11.63-9.94-14.06-1.05-4.12-.48-10.34-1.69-15.31-.92-3.75-3.7-7.82-4.31-11.69-1.02-6.51.22-14.07-.25-20.75-.35-5-2.86-12.77-2.8-17.02.05-3.96,2.58-10.16,2.85-14.95.5-9.01-1.2-19.13-6.62-26.45-2.16-2.92-10.43-9.04-10.96-10.1-.68-1.35-.07-7.93-.91-11.03s-4.26-7.33-4.37-8.62c-.07-.77,6.33-12.84,6.97-13.7,2.44-3.25,9.54-6.25,13.37-10.63,15.27-17.4,8.54-27.12,10.95-45.54.14-1.07,2.83-4.65,3.55-6.96,5.17-16.44,4.77-34.19-5.39-48.65-2.56-3.65-13.61-12.79-12.58-16.27.51-1.75,11.63-2.42,14.75-3.3,22.34-6.36,33.37-30.08,34.24-51.76.19-4.7-1.46-13.61-.87-16.79.67-3.53,5.73-11.11,7.28-15.8,8.75-26.49,4.15-59.77-23.08-72.84-8.85-4.25-20.25-5.35-28.52-10.48s-17.93-17.56-26.94-24.06c-18.37-13.27-30.22-8.58-50.33-2.59l-37.61-13.49c-.8-.45-.93-1.06-.95-1.92-.1-3.47,3.05-11.37,3.05-16.09,0-65.51-101.03-66.32-102.12-.95-.09,5.36,3.1,13.19,3,17.03-.02.87-.12,1.48-.95,1.92l-37.61,13.48c-20.66-6.23-32.19-10.6-50.89,3.03-8.77,6.4-18.84,19.22-26.99,24.01-7.69,4.52-18.28,5.78-26.52,9.48-30.51,13.7-33.33,49.35-22.77,77.75,1.27,3.41,5.05,8.63,5.59,11.49.6,3.18-1.05,12.09-.87,16.79.87,21.67,11.89,45.4,34.24,51.76,3.12.89,14.24,1.56,14.75,3.3,1.02,3.48-10.02,12.62-12.58,16.27-10.34,14.72-10.38,31.93-5.39,48.65.74,2.47,3.17,5.58,3.48,7.36.77,4.57-.95,13.62-.33,19.5.86,8.2,5.91,19.42,11.37,25.63,3.6,4.1,11.51,7.86,13.39,10.61,1.05,1.53,1.2,3.91,2.3,5.7,5.93,9.66,9.9,12.66,9.85,25.21-.01,3.31-4.65,10.17-6.07,13.93-3.86,10.27-3.8,10.39-9.16,19.84-9.75,17.21-8.66,25.75-10.82,44.18-1.27,10.78-5.85,21.95-7.87,33.13-2.5,13.83-3.28,9.61-9.51,20.49-7.87,13.76-20.46,40.95-21.59,56.41-.37,4.98,1.69,15.8.78,18.78-.79,2.6-11.27,11.26-13.77,14.24-19.89,23.76-18.59,55.87-3.84,81.77,2.17,3.82,9.55,12.6,10.4,15.68.49,1.76-2.92,8.7-3.34,11.78-2.89,21.22,17.38,37.69,36.11,42.37,4.87,1.22,11.22,1.04,14.92,2.08,1.28.36,4.94,3.85,7.04,4.96,26.58,14.12,74.44,21.42,96.64-3.7,1.94-2.19,6.92-10.99,7.71-11.54,4.14-2.9,14.78-7.19,19.84-7.91,12.97-1.87,28.91-2.72,41.98-2,5.29.29,22.62,1.78,26.78,3.22.68.24,11.96,6.52,12.49,7.02ZM171.99,275.51l7.02,33.48h10s4.5-26,4.5-26l4.6,25.9,8.76-.02,7.14-33.87-6.9.11-4.6,24.9-4.64-24.87-9.42.8-4.43,24.05-4.02-24.98-8,.5ZM312.67,67.89c0,12.52-10.15,22.67-22.67,22.67s-22.67-10.15-22.67-22.67,10.15-22.67,22.67-22.67,22.67,10.15,22.67,22.67ZM307.18,68.02c0-9.49-7.69-17.18-17.18-17.18s-17.18,7.69-17.18,17.18,7.69,17.18,17.18,17.18,17.18-7.69,17.18-17.18ZM224,322v35h22v-6.01s-13.56-.93-13.56-.93l-.44-8.07h13.01s.01-5.42.01-5.42l-13.02-.57v-8.01h14.01v-6h-22ZM335,322v35h22v-6h-14v-9.01s13.01.01,13.01.01v-5.43s-13.01-.57-13.01-.57v-8.01h14.01v-6h-22ZM270,275v34h22v-6h-14v-9.01s13.01.01,13.01.01v-5.43s-13.01-.57-13.01-.57v-7.01h14.01v-6h-22ZM380.01,275.01l7.92,16.49-8.93,17.49,8.86-.13,5.64-12.87,5.66,12.84,8.84.16-8.92-17.49,7.92-16.49c-1.95.38-6.51-.68-7.84.16-.65.41-4.84,12.81-6.15,11.83-2.77-7.53-2.92-14.08-13.01-11.99ZM314,275v34h8v-14l12.56-.94.44-5.06h-13.01s0-8.01,0-8.01h13.01s0-5.99,0-5.99h-21ZM190,322l.94,6.56,9.06.44v28h8v-28h10.01s0-7,0-7h-28ZM318,322v35c3.02-.28,6.87,1.11,9-1.5v-33.5h-9ZM221,275v34h9v-34h-9ZM220.43,237.97l5.07-10.98c2.62,3.31-.34,9.51,5.52,9.55,1.83-1.41,1.32-7.7,4.97-8.54l2.15,8.86,3.85.15c.73-4.72-.97-14.11-7.42-13.03-1.51.25-2.85,2.12-3.94,1.93-1.51-.27-3.72-5.44-8.23-1.99-1.17.9-.78,3.23-2.39,3.08v-4c-8.74-2.51-5.46,16.83.42,14.98ZM292,240c-2.06.72-3.48-1.57-4.7-1.79-2.15-.38-4.17,3.51-10.02,0-8.67-5.19-.05-15.97,8.73-13.21v-7c3.31-1.19,5.99,4.14,5.99,6.5v15.5ZM279.11,235.88c2.09,1.62,6.19-.25,6.8-2.57.83-3.18-5.48-7.76-6.74-3.65l-.06,6.23ZM319.17,235.33c1.48,4.25,9.29,2.1,12.35,2.15.72.01,1.54,1.25,2.14,1.33,4.02.52,1.39-8.44.55-10.52-2.78-6.9-9.97-6.92-16.21-5.28.34,5.72,8.08.88,10.99,4.5-2.25.68-8.45.38-9.77,2.7-.59,1.04-.46,3.96-.05,5.12ZM309.75,224.26c.44.42,2.01,3.84,2.1,4.49.8,5.63-8.21,5.09-11.84,4.75,1.61,1.86,4.08,2.74,6.49,2.59,4.14-.25,5.67-4.97,7.99-4.08.87.33,2.24,2.05,1.03,3.01-5.25,7.4-20.99,4.57-20.59-5.49.3-7.41,11.37-8.53,14.81-5.26ZM306.99,229.99c.18-9.43-11.67-1.33-4.49,0,1.41.26,3.04-.08,4.49,0ZM258.94,223.44c-1.2.84-2.78,9.9-7.37,8.53-3.67-1.1.13-9.8-5.06-9.97-5.26,6.4,3.33,16.98,10.48,13-.27,4.31-4.19,4.7-7.48,2.98l-.51,2c3.79,1.7,8.31,3.13,11.72-.26s3.88-20.25-1.78-16.28ZM338.46,222.98c-1.07,1.53,1.77,16.04,6.03,16.06,4.58.02.44-11.27,7.95-10.06.75.12,5.64,3.69,5.54.51-.14-4.31-10.95-3.78-13.94-2.53.54-3.02-3.45-7.04-5.58-3.99ZM360,218l1.02,13.99h2.97c-.92-5.37,4.55-13.88-3.99-13.99ZM387.99,223c-3.35,4.33-7.65,11.79-9.53,16.96-.34.94-1.32,3.25.53,3.03l9-19.99ZM353.74,274.24c8.79-1.49,18.84,2.32,20.82,11.7,3.25,15.38-5.29,25.14-20.97,22.97-17.78-2.47-17.81-31.63.15-34.67ZM364.72,300.72c3.82-3.82,3.49-15.98-1.8-19.14-11.53-6.9-19.33,9.2-12.4,18.4,3.01,4,10.9,4.04,14.19.74ZM362.92,281.58c-11.53-6.9-19.33,9.2-12.4,18.4,3.01,4,10.9,4.04,14.19.74,3.82-3.82,3.49-15.98-1.8-19.14ZM267.5,322c12.77,1.55,15.05,13,4.52,19.5,2.7,1.03,7.88,14.65,6.98,15.5-10.72,2.31-8.09-6.81-12.67-13.03l-5.33.03v13.01s-6.34-.16-6.34-.16l-1.65-1.34v-33.5c4.63.4,9.99-.55,14.5,0ZM269.75,329.24c-1.69-1.69-6.41-1.18-8.76-1.24v10.01c5.54,2.14,13.63-3.9,8.76-8.77ZM261,328v10.01c5.54,2.14,13.63-3.9,8.76-8.77-1.69-1.69-6.41-1.18-8.76-1.24ZM299.5,322c12.77,1.55,15.05,13,4.52,19.5,2.7,1.04,7.88,14.64,6.98,15.5l-7.04-.45-5.63-12.58-5.33.03v13.01s-6.34-.16-6.34-.16l-1.65-1.34v-33.5c4.63.4,9.99-.55,14.5,0ZM301.75,329.24c-1.69-1.69-6.41-1.18-8.76-1.24v10.01c5.54,2.14,13.63-3.9,8.76-8.77ZM293,328v10.01c5.54,2.14,13.63-3.9,8.76-8.77-1.69-1.69-6.41-1.18-8.76-1.24ZM364,322c14.43-1.99,36.71,3.43,19.02,19.5l7,14.99-7.92.41c-.72-2.85-2.25-9.44-4.04-11.46-1.4-1.59-5.63-2.9-6.07.03-.4,2.65.81,8.82-.43,10.6l-7.56.94v-35ZM372,338c13.01,1.86,13.25-12.01,0-10.01v10.01ZM372,328v10.01c13.01,1.86,13.25-12.01,0-10.01ZM256.5,275c8.89,1.77,8.77,15.48.5,18.49l6.99,15.5-7.88-.11c-2.15-5.58-2.16-14.52-10.11-12.89v13.01s-8,0-8,0v-34c5.47.74,13.4-1.02,18.5,0ZM246,290c13.03,1.85,12.85-11.58,0-10.01v10.01ZM246,280v10.01c13.03,1.85,12.85-11.58,0-10.01ZM285.91,233.31c.83-3.18-5.48-7.76-6.74-3.65l-.06,6.23c2.09,1.62,6.19-.25,6.8-2.57ZM302.51,229.99c1.41.26,3.04-.08,4.49,0,.18-9.43-11.67-1.33-4.49,0ZM317.87,534.88c-3.91,1.74-6.69,2.35-10.87,1.13,1.98,3.65,6.89,3.82,10,1.48,1.57-1.18,2.43-5.46,4.87-2.36,4.62,5.87-15.31,11.78-20.13.61s18.74-15.42,16.12-.86ZM313,532.99l-1.52-5-5.47,3.51,6.99,1.49ZM368.72,527.28c1.42,2.21,2.07,13.09.38,15.31-5.23,4.4-9.74,1.22-15.08-.6-.24-1.74,2.27-.94,3.48-.99,2.5-.1,5.03.08,7.52,0v-3c-4.37,3.21-11.53-2.85-10.85-7.27.95-6.14,11.82-7.72,14.56-3.44ZM363.75,534.78c2.23-2.39,1.51-7.33-2.22-7.77-5.07,3.35-1.82,12.11,2.22,7.77ZM289,528c5.55-1.08,14.4,4.68,10.08,10.58-2.22,3.03-11.68,5.17-14.17,2.02-.73-.93-1.98-15.03-1.49-16.62,1.97-6.45,7.43-1.76,5.59,4.02ZM293.77,532.25l-4.76-1.25v7.99c3.6.89,7.22-4.41,4.76-6.75ZM333,524.99c.19,5.14-1.4,16.17,5.97,15.99,1.18-4.02,1.79-8.97,6.01-10.99.18,2.3,2.11,13.44,5.94,10.95,2.07-1.35-.52-11.12-2.19-12.69-3.11-2.92-8.36-.99-10.73,1.74l-1.14-4.86-3.87-.14ZM236.71,526.22c1.82-.41,5.01-.52,6.84-.26,5.98.83,11.47,12.91,1.47,15.57-12.47,3.32-18.58-13.02-8.31-15.31ZM245.39,533.83c0-2.62-2.13-4.75-4.75-4.75s-4.75,2.13-4.75,4.75,2.13,4.75,4.75,4.75,4.75-2.13,4.75-4.75ZM217.63,521.13c-2.6.9-1.95,7.4-2.04,9.89l-5.57,2.46,6.05,1.95,1.43,5.57,3.51.98v-6.99c.34-.32,10.73-.08,8-2.99l-9-1.01v-7.01c5.49-1.43,1.95,7.09,8,6,.06-6-4.14-10.61-10.37-8.86ZM256.95,540.54c6.57,6.89,3.28-9.24,9.55-9.19.54,0,6.9,3.62,5.49.16-4.14-5.63-7.62-2.22-12.98-1.52l-1.1-4.91c-8.18-3.09-3.14,13.17-.96,15.46ZM326.51,530.01c-3.33,1.06-1.07,12.64,3.49,11.99-.35-2.56,1.79-13.66-3.49-11.99ZM325.01,521.01c-.22,3.41.78,7.7,4.99,6.99.22-3.41-.78-7.7-4.99-6.99ZM311.48,528l-5.47,3.51,6.99,1.49-1.52-5ZM344,634.99c-5.94-1.49-16.92,2.62-18.61-5.97-1.49-7.6,6.53-9.78,12.61-9.03.21-2.58-2.38-5.09.5-6.97,8.04,3.86,2.68,14.66,5.5,21.97ZM331.05,631.97c3.16.32,5.82-1.47,6.71-4.49l-4.39-4.4c-4.56,1.07-3.59,5.49-2.31,8.89ZM287,629.01c1.15,3.1,7.22,2.32,9.31,1.05.36-.22,4.76-6.51,4.72-.55-.06,10.29-28.2,3.3-18.93-8.91,7.92-10.44,27.83,9.26,4.9,8.42ZM291.89,621.1c-9.53-.55-7.06,6.91,1.11,3.89l-1.11-3.89ZM310.06,632.57l4.45-9.56c1.94-.44,1.46.73,1.94,2,1.18,3.14,1.14,10.56,6.09,7.02.84-8.83-4.71-17.28-13.53-10.03-5.3-15.67-8.65,12.74,1.05,10.57ZM235.01,624l-5.99,1.5c1.75,2.59,4.04,2.76,6.98,2.5.49.47-1.52,9.41,4,6.5v-7.5s8,0,8,0v-2.99c-6.38.24-12.55-.37-7.51-7.98,6.16,11.91,9.37,3.31,3.22-1.72-6.95-5.7-10.46,3.66-8.71,9.71ZM254.03,617.45l-3.08,1.21c.32,5.58.43,16.49,8.04,15.34.68-9.43,1.86-11.5,11-8.01-1.25-6.48-8.47-6.07-12.98-2.99l-2.99-5.55ZM274.51,622.01c-2.85.62-2.38,13.82,3.48,11.99-.23-3.86,1.45-10.44-3.48-11.99ZM272,614.01l3.51,6.99c4.11-.54,1.23-4.27,1.43-6.94l-4.94-.05ZM337.75,627.48l-4.39-4.4c-4.56,1.07-3.59,5.49-2.31,8.89,3.16.32,5.82-1.47,6.71-4.49ZM293,624.99l-1.11-3.89c-9.53-.55-7.06,6.91,1.11,3.89ZM361.53,527c-5.07,3.35-1.82,12.11,2.22,7.77,2.23-2.39,1.51-7.33-2.22-7.77ZM289.01,531v7.99c3.6.89,7.22-4.41,4.76-6.75l-4.76-1.25ZM240.64,529.08c-2.62,0-4.75,2.13-4.75,4.75s2.13,4.75,4.75,4.75,4.75-2.13,4.75-4.75-2.13-4.75-4.75-4.75ZM247.01,477.03l-.02,2.96,11,1.02v1.98c-3.81-2.19-7.32-.35-10.54,1.99-2.19,10.44,10.27,6.67,16.54,8.01,1.46-11.82-4.98-19.26-16.98-15.96ZM322.03,489.43c2.45.75,4.66.28,6.97,1.07-2.4,4.8-7.07,0-8.99,3.49,4.55,1.69,9.18,3.97,12.86-.63,3.08-3.86,3.89-19.55-1.9-15.9-2.2,1.38-7.25,21.59-9.96-.46-8.71-1.6-4.2,10.84,1.03,12.43ZM289.01,472c-1,.68-1.44,23.36,5.99,20.99.68-.7-1.77-8.62,2.99-7.99,1.05,4.15,2.88,8.93,8.01,7.99.88-.78-2.68-6.4-2.86-7.75-.36-2.7,3.28-3.77.87-5.75l-10,2.5c1.23-2.67-.87-12.81-5-9.99ZM267.94,476.44c-2.6,1.91-.28,18.93,5.12,15.12,1.47-1.59,2.35-10.25,5.43-9.56l3.44,9.4,3.12.14c2.64-8.68-4.47-17.98-13.03-10.55l-1.03-5-3.04.44ZM362.64,489.86c6.46,5.68,9.79-.68,10.84-.7.99-.02,5.01,5.47,7.49,1.34-3.87-2.95-5.12-6.54-5.11-11.35-8.15-3.48-4.06,7.99-9.86,8.85-3.55-22.18-11.56-5.34-3.37,1.86ZM227.91,473.58c-.57,5.06-2.24,20.13,5.08,19.41-.44-1.95.23-11.8,3.49-10.99l3.66,10.85,3.85.15c.8-7.96-2.82-15.78-11.95-14.05l-1.11-5.91-3.02.54ZM352.72,478.29c1.09.89,3.99,6.91,4.03,8.38.27,9.54-19.83,7.78-19.49-2.01.23-6.63,10.9-10.08,15.46-6.38ZM350.86,488.85c1.53-17.46-14.37-4.47-7.18.22l7.18-.22ZM199,475.5c2.67,3.01,5.86,2.88,9.42,1.61l1.11.84c.24,2.17.77,15.94,4.95,15.04,2.03-.44,1.12-2.8,1.06-3.98-.22-3.97-.99-7.98-.55-12.02l8.55.68,1.45-2.67c-1.09-1.52-22.99-2.49-25.99.48ZM343.67,489.07l7.18-.22c1.53-17.46-14.37-4.47-7.18.22ZM333,686c9.8-1.1,22.75.84,12,11.98,13.63,7.84-2.25,15.43-12,13.02v-25ZM337,696c10.69,1.38,10.66-8.4,0-7.01v7.01ZM344.74,700.25c-.87-.75-7.29-1.69-7.74-1.25l.97,8.58c4.13,1.22,11.17-3.58,6.77-7.33ZM254,711h4c.29-4.01-1.23-11.39,2.43-14.07,8.65-6.32,4.57,13.11,5.58,14.07h4v-14.5c0-2.89-5.04-3.91-7.45-3.51-1.92.31-2.55,2.32-4.55,2.01v-10s-4.01,0-4.01,0v26ZM230,686v3s7,0,7,0v22h5v-22h7.01s0-3,0-3h-19ZM308,703l-12.04.47c-2.19,5.23,6.83,5.43,10.03,3.53l-1.65,3.84c-5.94.99-11.85.22-13.14-6.59-2.74-14.52,18.14-15.86,16.8-1.25ZM304,700.99c.63-4.14-3.55-6.22-7-4.5l-1.98,3.03c-.79,2.96,7.9.89,8.98,1.47ZM328,703l-12.04.47c-2.19,5.23,6.83,5.43,10.03,3.53l-1.65,3.84c-5.94.99-11.85.22-13.14-6.59-2.74-14.52,18.14-15.86,16.8-1.25ZM324,700.99c.63-4.14-3.55-6.22-7-4.5l-1.98,3.03c-.79,2.96,7.9.89,8.98,1.47ZM275,711h4c-.02-4.8-.86-11.8,4.27-14.24,1.41-.67,4.58-.53,4.74-1.26,1.38-6.36-7.59.59-8.5.52l-.6-2.88-3.91-.13v18ZM337,699l.97,8.58c4.13,1.22,11.17-3.58,6.77-7.33-.87-.75-7.29-1.69-7.74-1.25ZM337,689v7.01c10.69,1.38,10.66-8.4,0-7.01ZM296.99,696.49l-1.98,3.03c-.79,2.96,7.9.89,8.98,1.47.63-4.14-3.55-6.22-7-4.5ZM316.99,696.49l-1.98,3.03c-.79,2.96,7.9.89,8.98,1.47.63-4.14-3.55-6.22-7-4.5ZM212.51,574.01c-3.13.98-2.45,15.28,5.16,15.77,1.65.11,2.72-1.4,3.97-1.54,1.88-.21,3.64,1.73,5.46,1.29,2.33-.56,3.01-4.12,6.4-.56l1.49-1.49c-2.33-4.57,1.73-13.56-6.07-11.05l-3.92,8.57-1.01-9h-5.01s-1.01,10-1.01,10c-4.28-1.38.67-13.92-5.48-11.99ZM299,591c-5.63-1.92-12.5,2.47-16.47-3.02-5.2-7.2,3.59-14.41,10.46-10.98v-7c3.56-1.25,6.01,2.42,6.01,5.5v15.5ZM288.62,579.06c-6.76,5.75-.03,14.15,4.41,4.44l-4.41-4.44ZM190.55,590.04c.72.06,8.14-.22,8.48-.47,2.98-2.08-.97-14.05-6.74-15.36-2.18-.5-9.17-.95-10.28,1.3-1.91,3.89,12.18-.9,10.98,4.48-10.58-3.67-15.71,8.94-2.44,10.04ZM307,584.01c1.81,3.42,6.04,4.75,9.35,2.87.49-.28,7.61-7.1,6.68-1.38-1.24,7.64-20,6.97-21.03-3.1-1.16-11.28,19.21-11.32,16.53.6-3.46,3.17-7.53,1.96-11.54,1ZM309.71,577.16c-1.18.34-1.86,1.55-2.69,2.34,6.96,7.73,9.98-4.46,2.69-2.34ZM276.5,589.98c5.32-7.06-2.32-19.65-11-12l-3.01-4.98c-5.71-.33-1.98,14.58-.53,15.53,6.22,4.07,4.27-9.35,10.03-9.53.52,3.98,1.12,8.38,4.51,10.98ZM370.51,574.01c-4.26,1.35-.69,18,9.78,14.8,1.43-.44,2.84-2.8,3.21-2.8s3.69,4.59,6.5,2.98l-4.45-12.04-5.51-.92-2.05,8.96c-6.82-.56-.93-11.42-7.48-10.99ZM364.99,575.54c-.94-9.52-15.93-8.57-12.03,4.42l-5.95,1.06c1.19,3.14,4.05,3.19,6.98,3.01l1.03,6.98,3.01-.47.93-7.07,7.05-.46v-2.99s-8.59-.94-8.59-.94l.59-7.06c1.97,1.47,7.81,11.98,6.98,3.54ZM244.73,574.23c4.25-.86,6.92-.45,9.48,3.06,11.14,15.24-16.71,17.16-16.29,4.25.13-3.92,3.11-6.56,6.81-7.31ZM246.73,577.13c-6.03.89-6.63,11.32,1.72,9.86,6.09-1.06,2.18-10.44-1.72-9.86ZM325.12,575.58c2.18,5.81.17,15.73,8.88,14.42-.28-3.67-.03-7.11,3.01-9.56l6.99,1.55c-.17-7.53-8.28-4.55-12.99-2.99.83-4.31-2.49-7.29-5.89-3.43ZM393,587.5c0,.26,2.35,2.74,3.48,2.5,2.97-.65-.55-15.11.36-18.34l-1.36-1.65-2.48,1.49v16ZM293.03,583.5l-4.41-4.44c-6.76,5.75-.03,14.15,4.41,4.44ZM307.02,579.5c6.96,7.73,9.98-4.46,2.69-2.34-1.18.34-1.86,1.55-2.69,2.34ZM248.45,587c6.09-1.06,2.18-10.44-1.72-9.86-6.03.89-6.63,11.32,1.72,9.86Z"/>
</svg>