<?xml version="1.0" encoding="UTF-8"?>
<svg id="_レイヤー_1" data-name="レイヤー 1" xmlns="http://www.w3.org/2000/svg" width="166.75mm" height="296.88mm" viewBox="0 0 472.67 841.54">
  <path d="M291.41,70.19c5.2.32,9.27,3.84,13.92,5.58,3.08,1.15,15.09,5.24,17.6,5.48,10.61,1.02,19.5-8.65,36.41-4.49,19.54,4.81,29.11,22.71,43.63,32.37,7.17,4.76,18.7,6.12,27,10,30.15,14.06,36.68,48.09,27.61,77.95-1.54,5.06-6.58,12.7-7.22,16.78-1.06,6.79.51,15.74-.08,22.92-1.97,24.11-19.99,48.53-44.98,51.53,16.12,16.03,21.61,36.95,15.49,58.98-.92,3.31-3.97,8.59-4.33,10.76-.49,2.96,1.14,10.21.82,14.73-.79,11.31-6.62,26.3-14.46,34.54-3.04,3.2-10.17,6.7-11.95,9.05-.78,1.03-4.65,9.14-4.56,10.35.12,1.73,2.81,7.77,3.55,10.52.57,2.14.04,4.72.61,6.39.25.73,6.81,5.82,8.34,7.66,8.51,10.2,9.33,23.75,8.48,36.5-.23,3.41-2.05,6.53-2.07,10.01-.04,7.28,2.65,18.85,3.13,26.97.66,11.12.82,10.01,3.45,20.52,1.27,5.08,1,11.99,2.77,16.23,1.45,3.46,6.64,8.86,8.9,13.1,3.82,7.17,8.67,17.49,12,25,7.93,17.86,11.8,35.59,7.06,55.06,8.84,10.67,18.77,18.48,24.24,31.63,9.91,23.8,6.75,49.46-5.31,71.65-2,3.68-9.01,12.62-9.75,15.3-.68,2.45,2.1,6.71,2.49,9.61,4.2,31.29-27.03,52.65-55.37,53.46-6.04.17-13.66-2.26-18.81-1.83-2.59.22-7.35,2.64-10.72,3.3-24.64,4.8-56.98,7.78-76.55-11.47-2.92-2.87-7.99-12.4-9.76-13.74-10.43-7.91-38.77-9.9-52.24-9.34-5.56.23-27.06,2.14-31.21,3.79-.53.21-9.49,5.21-9.95,5.55-1.65,1.24-7.26,11.46-10.81,14.69-22.17,20.13-68.82,16.49-94.17,4.18-3.57-1.74-7.71-5.57-11.13-6.87-4.42-1.69-10.31-1.54-15.21-2.79-22.77-5.82-43.33-24.66-39.91-49.92.34-2.49,3.02-7.4,2.71-8.95-.18-.88-8.47-12.27-9.96-14.97-19.22-34.67-13.69-73.59,17.62-98.62-4.12-24.06,4.54-40.41,14.41-60.69,2.11-4.34,3.74-9.86,5.96-14.04s7.45-9.64,8.9-13.1c.98-2.33,7.37-29.98,8.04-33.96,3.6-21.33.55-30.29,11.72-51.28,4.82-9.05,6.11-11.15,9.77-21.23.93-2.55,5.19-10.14,5.29-11.2.8-8.3-4.66-15.37-8.74-21.86-5.99-9.53-8.18-8.05-14.78-15.22-7.84-8.51-13.45-23.42-14.06-34.93-.24-4.47,1.2-9.71,1-12.99-.15-2.44-4.59-11.1-5.5-15.51-4.31-20.95,1.5-40.05,16.53-55.02-25-3-43.02-27.42-44.98-51.53-.59-7.18.99-16.13-.08-22.92-.64-4.08-5.68-11.72-7.22-16.78-9.07-29.86-2.54-63.89,27.61-77.95,8.3-3.87,19.84-5.23,27-10s16.27-15.84,24.2-21.8c20.5-15.44,32.16-13.05,55.88-6.05l31.49-11.08c-2.51-18.54-.28-35.84,12.14-50.37,22.55-26.4,63.34-26.45,85.94,0,12.44,14.56,14.73,31.8,12.14,50.37ZM287.06,808.54c1.58,1.5,5.07,8.84,7.73,11.76,18.34,20.08,48.4,17.07,72.55,12.52,4.15-.78,8.53-3.23,12.47-3.55,7.06-.58,15.91,1.75,23.98,1,22.07-2.06,48.58-20.6,45.26-45.23-.45-3.33-3.9-10.05-3.59-12.03.2-1.3,10.56-16.16,12.37-19.7,10.75-21.09,12.92-43.49,3.66-65.7-5.42-13-15.87-20.91-25.02-31.02,5.84-19.37,2.02-37.03-5.99-54.98-3.25-7.3-8.25-18.14-12-25-2.02-3.7-9.32-11.63-9.94-14.06-1.05-4.12-.48-10.34-1.69-15.31-.92-3.75-3.7-7.82-4.31-11.69-1.02-6.51.22-14.07-.25-20.75-.35-5-2.86-12.77-2.8-17.02.05-3.96,2.58-10.16,2.85-14.95.5-9.01-1.2-19.13-6.62-26.45-2.16-2.92-10.43-9.04-10.96-10.1-.68-1.35-.07-7.93-.91-11.03s-4.26-7.33-4.37-8.62c-.07-.77,6.33-12.84,6.97-13.7,2.44-3.25,9.54-6.25,13.37-10.63,15.27-17.4,8.54-27.12,10.95-45.54.14-1.07,2.83-4.65,3.55-6.96,5.17-16.44,4.77-34.19-5.39-48.65-2.56-3.65-13.61-12.79-12.58-16.27.51-1.75,11.63-2.42,14.75-3.3,22.34-6.36,33.37-30.08,34.24-51.76.19-4.7-1.46-13.61-.87-16.79.67-3.53,5.73-11.11,7.28-15.8,8.75-26.49,4.15-59.77-23.08-72.84-8.85-4.25-20.25-5.35-28.52-10.48s-17.93-17.56-26.94-24.06c-18.37-13.27-30.22-8.58-50.33-2.59l-37.61-13.49c-.8-.45-.93-1.06-.95-1.92-.1-3.47,3.05-11.37,3.05-16.09,0-65.51-101.03-66.32-102.12-.95-.09,5.36,3.1,13.19,3,17.03-.02.87-.12,1.48-.95,1.92l-37.61,13.48c-20.66-6.23-32.19-10.6-50.89,3.03-8.77,6.4-18.84,19.22-26.99,24.01-7.69,4.52-18.28,5.78-26.52,9.48-30.51,13.7-33.33,49.35-22.77,77.75,1.27,3.41,5.05,8.63,5.59,11.49.6,3.18-1.05,12.09-.87,16.79.87,21.67,11.89,45.4,34.24,51.76,3.12.89,14.24,1.56,14.75,3.3,1.02,3.48-10.02,12.62-12.58,16.27-10.34,14.72-10.38,31.93-5.39,48.65.74,2.47,3.17,5.58,3.48,7.36.77,4.57-.95,13.62-.33,19.5.86,8.2,5.91,19.42,11.37,25.63,3.6,4.1,11.51,7.86,13.39,10.61,1.05,1.53,1.2,3.91,2.3,5.7,5.93,9.66,9.9,12.66,9.85,25.21-.01,3.31-4.65,10.17-6.07,13.93-3.86,10.27-3.8,10.39-9.16,19.84-9.75,17.21-8.66,25.75-10.82,44.18-1.27,10.78-5.85,21.95-7.87,33.13-2.5,13.83-3.28,9.61-9.51,20.49-7.87,13.76-20.46,40.95-21.59,56.41-.37,4.98,1.69,15.8.78,18.78-.79,2.6-11.27,11.26-13.77,14.24-19.89,23.76-18.59,55.87-3.84,81.77,2.17,3.82,9.55,12.6,10.4,15.68.49,1.76-2.92,8.7-3.34,11.78-2.89,21.22,17.38,37.69,36.11,42.37,4.87,1.22,11.22,1.04,14.92,2.08,1.28.36,4.94,3.85,7.04,4.96,26.58,14.12,74.44,21.42,96.64-3.7,1.94-2.19,6.92-10.99,7.71-11.54,4.14-2.9,14.78-7.19,19.84-7.91,12.97-1.87,28.91-2.72,41.98-2,5.29.29,22.62,1.78,26.78,3.22.68.24,11.96,6.52,12.49,7.02ZM258.97,56.18c0,12.52-10.15,22.67-22.67,22.67s-22.67-10.15-22.67-22.67,10.15-22.67,22.67-22.67,22.67,10.15,22.67,22.67ZM253.49,56.31c0-9.49-7.69-17.18-17.18-17.18s-17.18,7.69-17.18,17.18,7.69,17.18,17.18,17.18,17.18-7.69,17.18-17.18Z"/>
</svg>