<?xml version="1.0" encoding="UTF-8"?>
<svg id="_レイヤー_1" data-name="レイヤー 1" xmlns="http://www.w3.org/2000/svg" width="138.43mm" height="297.47mm" viewBox="0 0 392.4 843.23">
  <path d="M145.19,44.78c20.69-40.61,81.33-39.92,102.51,0,10.69-16.8,20.72-30.85,39.3-39.7,59.58-28.4,77.66,70.01,66.71,108.71-1.43,5.06-4.98,10.33-5.5,15.49-1.36,13.25,6.75,26.35,4.74,39.75-.47,3.16-2.74,6.61-2.77,9.23-.06,4.32,3.25,14.58,3.91,20.16,1.04,8.83.91,17.82,2.39,26.61,4.62,27.24,14.43,48.98,12.77,78.31-.33,5.79-2.81,13.27-1.98,18.9,1.87,12.59,14.91,15.96,12.82,34.96-.93,8.48-9.53,18.01-9.61,19.09-.05.67,2.32,4.86,2.63,7.1.47,3.48-.8,7.79-.49,9.96s7.25,8.93,7.62,17-4.3,13.24-6.89,19.71c4.93,11.26,12.21,22.87,8.18,35.56-.9,2.85-4.25,6.7-4.25,8.68,0,2.12,4.13,8.65,4.7,12.24,1.86,11.78-2.15,17.61-7.85,26.75,6.47,30.56,3.49,62.07,6.1,93,4.35,51.48,25.16,90.92-.13,142.89-2.4,4.93-10.32,14.89-11.42,18.58-3.95,13.24,3.17,20.05-8.94,35.06-16.63,20.61-33.73,12.87-53.8,19.2-2.38.75-11.32,9.68-15.02,11.98-23.68,14.73-61.27,11.59-81.71-7.68-3.12-2.94-11.25-15.22-13.49-15.55l-10.47,13.57c-20.5,21.22-59.68,24.99-84.35,9.29-3.51-2.23-11.99-10.85-14.39-11.61-19.94-6.29-36.54,1.43-53.31-18.69-12.23-14.66-5.95-20.37-9.19-34.81-.73-3.27-9.11-14.17-11.33-18.67-25.77-52.06-4.97-90.99-.46-142.56,2.79-31.92-.69-64.57,6.61-96.03-7.49-7.07-9.79-16.6-7.14-26.5.83-3.11,4.29-8.23,4.33-10.64.02-1.36-3.45-6.02-4.25-8.34-4.49-13.02,3.69-26.19,9.32-37.65-5.77-8.66-7.66-15.97-4.13-26.11s1.31-8.13,2.28-17.73c.25-2.41,2.35-6.35,1.9-7.83-.29-.97-4.5-3.42-5.9-5.16-7.41-9.19-6.26-22.42.16-31.83,1.89-2.76,5.11-4.6,6.6-7.4,5.86-10.94.43-31.32,1.19-44.81,1.23-21.86,9.29-41.97,12.77-63.23,1.44-8.8,1.39-17.77,2.39-26.61.65-5.72,3.38-13.54,3.66-18.38.18-3.12-2.26-7.34-2.67-10.85-1.59-13.5,6.1-25.94,4.89-38.9-.5-5.36-4.92-12.48-6.33-18.67-5-22.04.16-67.27,11.81-86.84,19.34-32.5,52.42-27.57,77.01-3.98,7.56,7.25,11.03,17.86,18.49,24.99ZM248.19,56.78c-1.4.94-3.81-6.9-4.45-8.04-13.76-24.75-42.02-35.35-68.53-24.44-14.5,5.97-24.26,18.47-30.52,32.46-11.31-19.14-21.04-36.96-42.12-46.86-17.62-8.27-34.83-2.48-45.81,12.94-12.91,18.14-18.57,66.7-13.07,87.94,1.53,5.92,5.98,12.9,6.25,18.76.61,13.49-6.57,26.19-4.65,39.64.46,3.21,2.93,6.14,2.86,8.97-.1,4.06-3.15,12.13-3.82,17.25-1.19,9.12-1.02,18.51-2.4,27.6-3.05,20.14-11.33,39.61-12.72,60.28-1.11,16.43,5.2,38.67-2.8,52.2-2.38,4.03-6.53,6.37-8.71,11.29-5.3,11.98-.27,22.45,11.48,27.49-2.25,3.5-4.54,8.05-4.71,12.27-.13,3.37,2.74,9.81,2.59,10.59-.18.92-3.42,3.55-4.41,5.59-3.79,7.79-1.37,18.33,5.46,23.7-5.14,11-14.97,25.3-10.96,37.92,1.07,3.37,4.88,6.04,4.99,7.87.22,3.75-4.69,11.52-5.47,16.51-1.62,10.41,2.62,13.99,8.48,21.49-8.49,33.9-4.39,69.49-7.94,104.06-4.78,46.54-22.33,80.76-1.46,128.47,2.81,6.43,13.25,20.32,14.28,23.76.79,2.66-.99,9.02-.53,13.5,2.14,20.92,16.46,29.85,35.51,33.48,4.57.87,23.89,2.31,26,3.51.44.25,1.03,2.39,2.14,3.33,28.8,24.14,69.77,24.75,93.5-6.61,1.78-2.35,3.03-7.35,6.06-7.93,1.69-.33,7.13-.31,8.5.51.88.53,7.8,11.86,10.47,14.53,23.8,23.72,69.23,22.76,90.27-4.03,26.17-2.36,59.44-5.11,61.26-38.53.21-3.86-1.65-8.92-.8-11.75.98-3.3,11.25-16.91,13.98-23.05,21.28-47.85,3.69-82.38-1.17-129.18-3.19-30.76-.89-61.78-5.3-92.7-.51-3.54-1.55-7.06-2.49-10.51,4.32-5.98,8.77-8.96,9.57-17.08.81-8.2-5.94-14.93-5.86-20.75.04-2.64,4.07-6.26,5.12-9.91,1.62-5.66.97-8.08-.59-13.5-1.6-5.55-8.81-17.25-9.32-20.79-.44-3.09,2.86-4.05,4.3-6.32,4.38-6.9,5.07-14.48.77-21.64-1.21-2.01-4.76-4.75-5.05-5.99-.4-1.71,1.26-7.93.75-11.72-.41-3.01-1.79-5.82-3.74-8.09,7.94-7.34,12.06-14.82,10.83-26-1.1-9.99-11.95-17.43-12.94-27.11-.5-4.91,1.76-10.87,1.98-15.85,1.46-32.89-8-52.98-12.76-83.32-1.38-8.78-1.31-17.78-2.4-26.6-.66-5.37-3.7-13.85-3.82-18.25-.07-2.82,2.41-5.76,2.86-8.97,1.89-13.31-5.19-25.64-4.95-38.86.11-5.75,5.05-13.58,6.54-19.54,4.56-18.23,1.27-43.83-2.82-62.19-5.95-26.67-25.96-52.82-56.06-38.69-20.39,9.57-31.77,27.51-41.64,46.87ZM219.99,70.91c0,13.13-10.65,23.78-23.78,23.78s-23.78-10.65-23.78-23.78,10.65-23.78,23.78-23.78,23.78,10.65,23.78,23.78ZM214.36,70.91c0-10.02-8.13-18.15-18.15-18.15s-18.15,8.13-18.15,18.15,8.13,18.15,18.15,18.15,18.15-8.13,18.15-18.15Z"/>
</svg>