<?xml version="1.0" encoding="UTF-8"?>
<svg id="_レイヤー_1" data-name="レイヤー 1" xmlns="http://www.w3.org/2000/svg" width="204.61mm" height="305.86mm" viewBox="0 0 580 867">
  <path d="M238.98,55c20.69-40.61,81.33-39.92,102.51,0,10.69-16.8,20.72-30.85,39.3-39.7,59.58-28.4,77.66,70.01,66.71,108.71-1.43,5.06-4.98,10.33-5.5,15.49-1.36,13.25,6.75,26.35,4.74,39.75-.47,3.16-2.74,6.61-2.77,9.23-.06,4.32,3.25,14.58,3.91,20.16,1.04,8.83.91,17.82,2.39,26.61,4.62,27.24,14.43,48.98,12.77,78.31-.33,5.79-2.81,13.27-1.98,18.9,1.87,12.59,14.91,15.96,12.82,34.96-.93,8.48-9.53,18.01-9.61,19.09-.05.67,2.32,4.86,2.63,7.1.47,3.48-.8,7.79-.49,9.96s7.25,8.93,7.62,17-4.3,13.24-6.89,19.71c4.93,11.26,12.21,22.87,8.18,35.56-.9,2.85-4.25,6.7-4.25,8.68,0,2.12,4.13,8.65,4.7,12.24,1.86,11.78-2.15,17.61-7.85,26.75,6.47,30.56,3.49,62.07,6.1,93,4.35,51.48,25.16,90.92-.13,142.89-2.4,4.93-10.32,14.89-11.42,18.58-3.95,13.24,3.17,20.05-8.94,35.06-16.63,20.61-33.73,12.87-53.8,19.2-2.38.75-11.32,9.68-15.02,11.98-23.68,14.73-61.27,11.59-81.71-7.68-3.12-2.94-11.25-15.22-13.49-15.55l-10.47,13.57c-20.5,21.22-59.68,24.99-84.35,9.29-3.51-2.23-11.99-10.85-14.39-11.61-19.94-6.29-36.54,1.43-53.31-18.69-12.23-14.66-5.95-20.37-9.19-34.81-.73-3.27-9.11-14.17-11.33-18.67-25.77-52.06-4.97-90.99-.46-142.56,2.79-31.92-.69-64.57,6.61-96.03-7.49-7.07-9.79-16.6-7.14-26.5.83-3.11,4.29-8.23,4.33-10.64.02-1.36-3.45-6.02-4.25-8.34-4.49-13.02,3.69-26.19,9.32-37.65-5.77-8.66-7.66-15.97-4.13-26.11s1.31-8.13,2.28-17.73c.25-2.41,2.35-6.35,1.9-7.83-.29-.97-4.5-3.42-5.9-5.16-7.41-9.19-6.26-22.42.16-31.83,1.89-2.76,5.11-4.6,6.6-7.4,5.86-10.94.43-31.32,1.19-44.81,1.23-21.86,9.29-41.97,12.77-63.23,1.44-8.8,1.39-17.77,2.39-26.61.65-5.72,3.38-13.54,3.66-18.38.18-3.12-2.26-7.34-2.67-10.85-1.59-13.5,6.1-25.94,4.89-38.9-.5-5.36-4.92-12.48-6.33-18.67-5-22.04.16-67.27,11.81-86.84,19.34-32.5,52.42-27.57,77.01-3.98,7.56,7.25,11.03,17.86,18.49,24.99ZM341.99,67c-1.4.94-3.81-6.9-4.45-8.04-13.76-24.75-42.02-35.35-68.53-24.44-14.5,5.97-24.26,18.47-30.52,32.46-11.31-19.14-21.04-36.96-42.12-46.86-17.62-8.27-34.83-2.48-45.81,12.94-12.91,18.14-18.57,66.7-13.07,87.94,1.53,5.92,5.98,12.9,6.25,18.76.61,13.49-6.57,26.19-4.65,39.64.46,3.21,2.93,6.14,2.86,8.97-.1,4.06-3.15,12.13-3.82,17.25-1.19,9.12-1.02,18.51-2.4,27.6-3.05,20.14-11.33,39.61-12.72,60.28-1.11,16.43,5.2,38.67-2.8,52.2-2.38,4.03-6.53,6.37-8.71,11.29-5.3,11.98-.27,22.45,11.48,27.49-2.25,3.5-4.54,8.05-4.71,12.27-.13,3.37,2.74,9.81,2.59,10.59-.18.92-3.42,3.55-4.41,5.59-3.79,7.79-1.37,18.33,5.46,23.7-5.14,11-14.97,25.3-10.96,37.92,1.07,3.37,4.88,6.04,4.99,7.87.22,3.75-4.69,11.52-5.47,16.51-1.62,10.41,2.62,13.99,8.48,21.49-8.49,33.9-4.39,69.49-7.94,104.06-4.78,46.54-22.33,80.76-1.46,128.47,2.81,6.43,13.25,20.32,14.28,23.76.79,2.66-.99,9.02-.53,13.5,2.14,20.92,16.46,29.85,35.51,33.48,4.57.87,23.89,2.31,26,3.51.44.25,1.03,2.39,2.14,3.33,28.8,24.14,69.77,24.75,93.5-6.61,1.78-2.35,3.03-7.35,6.06-7.93,1.69-.33,7.13-.31,8.5.51.88.53,7.8,11.86,10.47,14.53,23.8,23.72,69.23,22.76,90.27-4.03,26.17-2.36,59.44-5.11,61.26-38.53.21-3.86-1.65-8.92-.8-11.75.98-3.3,11.25-16.91,13.98-23.05,21.28-47.85,3.69-82.38-1.17-129.18-3.19-30.76-.89-61.78-5.3-92.7-.51-3.54-1.55-7.06-2.49-10.51,4.32-5.98,8.77-8.96,9.57-17.08.81-8.2-5.94-14.93-5.86-20.75.04-2.64,4.07-6.26,5.12-9.91,1.62-5.66.97-8.08-.59-13.5-1.6-5.55-8.81-17.25-9.32-20.79-.44-3.09,2.86-4.05,4.3-6.32,4.38-6.9,5.07-14.48.77-21.64-1.21-2.01-4.76-4.75-5.05-5.99-.4-1.71,1.26-7.93.75-11.72-.41-3.01-1.79-5.82-3.74-8.09,7.94-7.34,12.06-14.82,10.83-26-1.1-9.99-11.95-17.43-12.94-27.11-.5-4.91,1.76-10.87,1.98-15.85,1.46-32.89-8-52.98-12.76-83.32-1.38-8.78-1.31-17.78-2.4-26.6-.66-5.37-3.7-13.85-3.82-18.25-.07-2.82,2.41-5.76,2.86-8.97,1.89-13.31-5.19-25.64-4.95-38.86.11-5.75,5.05-13.58,6.54-19.54,4.56-18.23,1.27-43.83-2.82-62.19-5.95-26.67-25.96-52.82-56.06-38.69-20.39,9.57-31.77,27.51-41.64,46.87ZM210,279.01l7.04,33.94,10.96.06,3.5-24.02,3.51,24,10.94-.04,7.05-33.94-8.89.1-3.61,23.9-4.07-24.05-10.42.05c-1.07,6.58-.95,13.92-2.11,20.39-.19,1.07-.34,3.73-1.89,3.6l-3.12-23.89-8.89-.1ZM243,330.01l7.48,33.01,10.51.97,3.51-24,3.5,24.02,10.96-.06,7.04-33.94-8.95.05-3.55,23.96-3.61-23.9-10.9-.12-2.51,23.01c-2.43.7-1.24-2.2-1.45-3.53-.42-2.68-2.34-18.81-3.18-19.34l-8.86-.13ZM340,445.5l-1.5-1.5h-14.5v7.01s7.01-.01,7.01-.01l-.09,6.93c-22.48,2.57-15.91-28.84,5.07-17.92l1.94-5.4c-9.77-7.59-26.81-3.73-29.48,9.34-4.04,19.79,16.61,25.7,31.55,18.56v-17ZM258,313h9v-14h11v14h8v-34h-8.01s-.57,13.02-.57,13.02h-10.43s.01-13.02.01-13.02h-9.01v34.01ZM291,414h9v-14h10v14h9v-33h-9.01s.01,13.01.01,13.01h-9.43s-.57-13.01-.57-13.01h-9.01v33.01ZM196,414h8.01s.93-13.56.93-13.56l10.06-.44v14h9v-33h-9.01s-.13,11.36-.13,11.36l-1.5,1.5h-7.72s-1.5-1.5-1.5-1.5l-.13-11.37h-8.01v33.01ZM163.91,390.51c.19,6.05,3,7.02,7.73,9.35,3.29,1.62,8.66,1.43,8.43,5.66-1.56,6.34-14.45-1.06-15.06-.51-4.04,8.25,4.62,10.33,11.44,10.03,8.48-.37,15.93-5.72,12.03-15.01-2.54-6.04-16.5-5.83-15.5-11.48,4.53-3.26,9.37-.81,14.02.46l2.01-6.99c-8.68-2.66-25.49-4.53-25.09,8.5ZM345,279v34h22v-7.01s-13.56-.93-13.56-.93l-.44-6.07h13.01s0-7,0-7h-13.01c.04-1.89-.67-5.09,1.64-5.86l12.37-.13v-7.01h-22.01ZM213.14,339.5c-.03,10.37,17.53,10.57,16.81,14.89-.8,4.81-12.06,2-14.94-.38l-1.6,7.05c7.7,4.6,25.14,5.25,25.66-6.58s-11.61-9.49-15.1-12.94c-6.92-6.84,9.72-5.43,13.02-3.53l.97-6.96c-7.92-1.68-24.79-3.71-24.82,8.46ZM339.14,339.5c-.03,10.28,16.53,10.13,16.65,14.82.15,5.52-11.7,1.86-14.78-.31l-1.6,7.05c7.7,4.6,25.14,5.25,25.66-6.58.51-11.43-11.61-9.49-15.1-12.94-6.92-6.84,9.72-5.43,13.02-3.53l.97-6.96c-7.92-1.68-24.79-3.71-24.82,8.46ZM308.96,340.51c1.03,10.85,17.84,8.91,16.03,14.96-1.08,3.61-12.53.64-14.98-1.47l-2.02,6.98c9.37,6.63,33.48,2.8,24.89-12.37-2.73-4.83-14.93-5.78-14.94-9.1-.02-7.17,12.94-.81,14-1.54l.96-6.89c-8.69-1.9-25.2-3.74-23.95,9.43ZM231,381v33h22v-7.01s-13.01.01-13.01.01v-6.43s12.01-.57,12.01-.57v-6.01s-12.01.01-12.01.01v-6.01s13.01.01,13.01.01v-7.01h-22.01ZM326,381v33h22v-7.01s-13.01.01-13.01.01v-6.43s12.01-.57,12.01-.57v-6.01s-12.01.01-12.01.01v-6.01s13.01.01,13.01.01v-7.01h-22.01ZM311,279v7c.62.63,7.75-1.31,9,1.5v25.5h9v-25.5c1.25-2.8,8.38-.87,9-1.5v-7h-27ZM292,330v34h10v-34h-10ZM294,279v34h10v-34h-10ZM211.11,221.11c-1.78,5.54-2.11,16.39,5.84,15.85l4.56-10.96c.81,2.27,2.93,13.91,6.54,8.57,1.68-2.48.49-6.55,3.45-8.55,1.61-.03,2.76,15.1,7.03,9.01,1.47-2.09-1.4-10.92-3.2-12.1-4.13-2.69-5.85,1.05-7.85,1.09-2.26.05-7.3-7.88-10.97.97l-1.65-3.83-3.75-.05ZM209.43,641.06c4.65,2.78,6.13-.58,8.09-.68,1.06-.06,2.86,1.77,5,1.73,2.62-.05,4.69-3.12,8.47-1.11-1.82-4.75,1.44-16.43-6.51-12.01l-2.99,8.01-1.49-9-4.92.09c-1.01.67.29,9.23-3.07,9.91l-1.02-12c-7.82-2.06-5.95,12.43-1.56,15.06ZM345,690c-5.61-1.67-13.17,2.06-17.46-3.04-5.74-6.82,4.39-15.66,11.45-11.96v-7.99c3.26-.51,6.01,3.88,6.01,6.5v16.5ZM334.5,677.04c-8.12,5.77-.46,15.15,4.54,5.46l-4.54-5.46ZM291,239c-2.13.73-3.85-1.97-5.33-1.83-2.12.21-2.53,2.5-6.68,1.39-12.85-3.42-5.81-19.84,6-14.57v-8c2.77-1.17,6.01,3.57,6.01,5.5v17.5ZM279.61,226.08c-2.39,1.25-3.8,6.96-1.67,8.49,7.45,1.65,9.62-6.8,1.67-8.49ZM296.75,622.26c.73.86,3.02,20.97,2.24,21.74-2.2.99-4.48-1.57-5.52-1.63-1.11-.07-2.94,1.89-5.88,1.62-13.57-1.22-8.03-20.39,5.39-15l-.99-7.99c.39-.41,4.07.45,4.75,1.25ZM287.62,631.06c-3.81,2.38-4.47,6.78-1.06,9.92,6.58-1.42,7.55-7.42,1.06-9.92ZM297,682c-4.48,1.48-7.22,2.33-11.99,1.5,2.51,3.96,11.27,3.67,11.99-1.5.12.14,2.88-.08,3.55.94,2.87,3.65-5.91,7.05-8.95,6.98-15.04-.35-17.42-19.41-1.2-17.91,7.35.68,5.72,9.04,6.59,9.99ZM290.95,675.03c-1.07-.77-6.35,1.26-5.95,3.46,3.66,4.65,9.5-.9,5.95-3.46ZM261.05,224.45c-1.19-10.33-6.43,1.82-7.59,3.51-4.95,7.21-6.99-.62-6.89-6.02l-4.56-.94c-1.65,7.65,3.8,16.17,11.99,13-.27,4.31-4.19,4.7-7.48,2.98l-.51,2c12.13,6.01,16.3-3.6,15.04-14.54ZM309.75,222.26c1.31,1.23,2.88,5.97,1.79,7.75-1.89,3.09-8.65,1.27-11.53,2.48,5.71,7.27,11.73-2.04,13.46-2.21,4.65-.44,2.93,6.66-4.03,7.64-16.35,2.31-21.86-16.48-5.94-17.01,1.77-.06,4.95.12,6.25,1.34ZM305.9,224.09c-3.94-2.84-11.25,6.17.13,4.44,1.56-.68.24-4.17-.13-4.44ZM307,637.01c3.04,4.92,11.66,3.86,13.11-1.94,6.17,1.69,2.06,7.07-2.67,7.87s-10.32.32-13.46-3.43c-10.35-12.33,15.89-21.21,15.59-4.5-4.02,3.02-7.89,3.29-12.58,2ZM314,633.99c.78-6.17-3.38-6.12-6.99-2.48-1.13,2.36,5.81,2.72,6.99,2.48ZM307,586.01c3.73,6.09,10.1,2.71,13.5-1.99l2.31,3.32c-4,9-23.18,4.91-21.78-5.75,1.21-9.29,18.58-9.18,17.87,1.76-3.06,3.6-7.61,3.83-11.9,2.67ZM312.93,578.07l-6.91,2.43c3.23,4.09,9.51,3.88,6.91-2.43ZM287.86,571.15l.18,5.81c17.92,2.7,13.89,17.44-3.38,15.08l-.96-1.26c-1.32-3.54-3.68-19.62.92-20.65l3.23,1.02ZM289.49,580.02c-2.14.1-2.56,9.74.98,8.96,5.01-3.78,4.43-6.23-.98-8.96ZM372.83,592.83c-5.15,2.96-11.59,3.39-15.82-1.34l10.99-.51c.7-3.24-3.87-1.58-6.74-2.74-7.35-2.99-5.93-14.3,4.26-14.28,9.19.02,7.7,12.72,7.31,18.87ZM363.63,577.07c-3.11.9-3.89,8.62.72,8.85l3.69-5.36c-.16-1.95-2.37-4.08-4.42-3.49ZM333.69,223.31c1.87,2.04,5.32,14.19,1.79,14.7-4.91-3.31-11.61,1.75-16.01-4.01-2.74-5.75,5.6-9.43,10.06-7.01l.48-1.97-11-1.02v-2.97c4.16-1.35,11.5-1.2,14.69,2.28ZM326.66,229.22c-1.3.11-2.77,1.3-3.64,2.28,7.51,7.23,10.83-2.9,3.64-2.28ZM193.99,643c-4.48-1.08-17.37,1.54-18.04-5.55-.5-5.3,8.27-6.42,12.04-5.94-1.96-4.29-12.84.08-11.99-3.99,11.89-6.02,19.63,3.81,17.99,15.48ZM182.64,635.12c-5.43,1.65,3.7,6.86,6.34,2.38-1.57-2.14-3.68-3.19-6.34-2.38ZM231,679c-.54.54-7.34-1.26-6,1.48.91,2.6,5.79,1.76,6.05,1.97.89.75,4.93,18.3,5.94-.46,12.26.33,9.54-4.94-1-3.99v-8c4.89,0,2.5,8.26,8,6.99-1.15-13.7-16.11-13.96-12.99,2.01ZM257,627.51c-.65,3.53,1.78,18.75,6.96,14.45.49-.4,1.61-10.95,5.54-10.97,1.17-.02,1.49,14.17,7.5,11.01,1.12-1.06-1.65-11.75-3.4-13.1-4.38-3.36-11.18,1.53-11.59,1.09,1.32-4.56-4.07-7.55-5.01-2.49ZM334.01,576.5c-.51,2.72.44,12.71,2.97,14.04,5.49,2.88,4.7-8.97,8.54-10.53,2.14-.45,1.32.88,1.75,2.2.6,1.86,2.5,13.11,6.28,7.82,1.18-1.65-1.31-10.87-2.95-12.12-4.18-2.39-7.76-.49-11.59,1.09,1.32-4.55-4.05-7.56-5-2.49ZM306.51,671.05l-3.41,2.6,2.11,13.11c7.79,4.62,5.18-6.69,10.28-9.75,1.51-.02,2.28,8.19,3.99,9.99,5.61,5.9,4.86-9.18.08-12.08-5.08-3.08-9.81,1.62-10.56,1.07l-2.5-4.95ZM356,622.75l-1.43,9.32-5.56,2.42,6.99,1.51c-.48,2.04.66,8.59,3.48,7.99,2.52-1.93,1.29-5.28,1.52-7.99l7.99-1.01-1.67-2.82-7.33-.17v-8c4.92.24,2.23,7.61,8,6.99.41-6.95-5.54-13.3-12-8.25ZM380.5,637.98c-4.35-1.39-2.17-15.29-7.54-11.52-3.88,2.72,1.24,18.19,10.32,15.38,1.43-.44,2.36-2.56,3.35-2.75,1.51-.29,4.67,3.98,7.36,2.9-.83-4.9-5.05-7.1-4.43-13.06l-5.44-.81-3.62,9.85ZM222.44,574.06c-5.74-9.05-13.99-3.04-11.57,6.8l-5.86,2.62,7,1.51c-1.24,10.27,7.74,10.84,3.99.02l9-1.02-1.67-2.82-7.33-.17v-8c3.71-.47,3.14,4.28,4.23,5.75,1.88,2.54,5.51.49,2.22-4.69ZM234.72,575.23c4.45-.93,7.61-.56,10.28,3.26,10.97,15.71-15.79,17.5-17.07,6.04-.58-5.18,1.64-8.23,6.79-9.3ZM233.27,580.26c-2.92,3.15.15,8.66,4.23,8.66,9.12,0,2.85-16.3-4.23-8.66ZM236.31,639.69c-9.1-10.28,11.76-21.24,16.73-7.24,4.1,11.57-11.15,13.54-16.73,7.24ZM246.76,630.22c-12.24-3.3-9.11,15.59,1.8,7.78l-1.8-7.78ZM248,672c0,4.07.63,17.55,6.49,17.07,4.03-.33,1.25-6.45,4.58-9.54,3.94-3.66,7.5,4.58,8.94-1.01-4.16-5.41-8.65-3.18-13.99-1.51l-1.15-4.87-4.86-.14ZM254.03,574.44l-3.69,2c1.61,5.42.54,16.66,8.62,15.53.68-3.18.69-9.02,4.07-10.5,2.89-1.27,4.55,2.42,7.96,1.54-1.77-6.93-8.96-5.26-13.98-2.99l-2.99-5.56ZM343.41,220.08c-9.19-2.8,2.23,26.6,5.41,16.23,2.46-8-.34-11.29,11.18-7.32-1.75-6.95-9.02-5.23-13.99-2.99.03-1.74-.85-5.38-2.6-5.92ZM333.48,630.92c-2.31-3.79-2.03-5.84-7.47-4.91,1.2,5.89.59,17.92,8.99,17,.4-9.07,1.63-12.81,11-9.01-1.19-5.98-8.23-5.93-12.52-3.08ZM397,638.5c0,1.84,2.53,5.64,5,4.5v-17.5c0-.55-1.49-2.24-1.01-3.5-1.37-.26-3.59.14-3.99,1.5-.7,2.37,0,11.61,0,15ZM363.01,216.58l1,14.42c3.5,2.63,6.23-18.41-1-14.42ZM330.86,581.64l-1.48-1.52-3.38-.12c.07,3.96-1.06,12.56,4.99,12l-.14-10.35ZM272.51,677.01c-2.84.9-1.75,13.65,3.49,11.99-.35-2.56,1.79-13.66-3.49-11.99ZM326.51,570.01c-3.3.85.99,9.63,4.48,7.99.48-2.62-.55-9.01-4.48-7.99ZM272.49,667.02c-3.36,2.75-.59,8.9,3.5,7.97.3-3.94.55-6.38-3.5-7.97ZM391.99,221c-3.35,4.33-7.65,11.79-9.53,16.96-.34.94-1.32,3.25.53,3.03l9-19.99ZM313.78,81.13c0,13.13-10.65,23.78-23.78,23.78s-23.78-10.65-23.78-23.78,10.65-23.78,23.78-23.78,23.78,10.65,23.78,23.78ZM308.15,81.13c0-10.02-8.13-18.15-18.15-18.15s-18.15,8.13-18.15,18.15,8.13,18.15,18.15,18.15,18.15-8.13,18.15-18.15ZM282.74,431.24c15.88-2.72,26.17,8.48,21.03,24.03-3.58,10.83-18.94,12.93-27.26,6.72-10.59-7.91-7.48-28.41,6.23-30.75ZM285.72,438.19c-9.17,2.02-9.49,22.72,4.56,19.59,8.91-1.98,7.74-22.31-4.56-19.59ZM290.28,457.79c8.91-1.98,7.74-22.31-4.56-19.59-9.17,2.02-9.49,22.72,4.56,19.59ZM239,465v-34c14.44-.94,29.87,1.32,28,19.51-.65,6.32-6.87,14.49-13.5,14.49h-14.5ZM248,438v20c14.75,2.49,14.84-22.16,0-20ZM248,458c14.75,2.49,14.84-22.16,0-20v20ZM373.5,381c9.5,1.68,9.74,14.61,1.52,18.5l6.98,14.49-9.9-.09c-1.44-4.36-1.32-12.33-7.59-11.91l-.51,12.02h-9.01v-33.01c5.6.69,13.19-.94,18.5,0ZM364,396l7.51-1.99.53-3.49c-.57-3.48-5.16-3.72-8.05-3.53v9.01ZM371.51,394.02l.53-3.49c-.57-3.48-5.16-3.72-8.05-3.53v9.01l7.51-1.99ZM387,414v-33h16.5c2.36,0,8.66,4.83,9.96,7.04,4.02,6.87,2.21,18.83-4.5,23.41-.74.5-5.06,2.55-5.45,2.55h-16.5ZM396,388.5v18c2.97,3.19,9.42-.77,10.55-4.45.97-3.18.68-10.51-1.8-12.8-1.38-1.27-7.96-3.41-8.75-.76ZM396,406.5c2.97,3.19,9.42-.77,10.55-4.45.97-3.18.68-10.51-1.8-12.8-1.38-1.27-7.96-3.41-8.75-.76v18ZM277.5,381c4.24.85,8.47,6.02,8.5,10.49.07,10.23-8.53,12.11-16.95,12.56l-.05,9.96h-9.01v-33.01c5.17.71,12.69-.97,17.5,0ZM269,397c4.56.6,8.11-.33,8.79-5.34-1.09-4.18-4.88-5.03-8.79-4.66v10.01ZM277.79,391.66c-1.09-4.18-4.88-5.03-8.79-4.66v10.01c4.55.6,8.11-.33,8.79-5.34ZM339.04,682.5l-4.54-5.46c-8.12,5.77-.46,15.15,4.54,5.46ZM277.93,234.57c7.45,1.65,9.62-6.8,1.67-8.49-2.39,1.25-3.8,6.96-1.67,8.49ZM286.56,640.97c6.58-1.42,7.55-7.42,1.06-9.92-3.81,2.38-4.47,6.78-1.06,9.92ZM285.01,678.49c3.66,4.65,9.5-.9,5.95-3.46-1.07-.77-6.35,1.26-5.95,3.46ZM306.03,228.53c1.56-.68.24-4.17-.13-4.44-3.94-2.84-11.25,6.17.13,4.44ZM307.01,631.51c-1.13,2.36,5.81,2.72,6.99,2.48.78-6.17-3.38-6.12-6.99-2.48ZM306.02,580.5c3.23,4.09,9.51,3.88,6.91-2.43l-6.91,2.43ZM290.48,588.99c5.01-3.78,4.43-6.23-.98-8.96-2.14.1-2.56,9.74.98,8.96ZM364.35,585.91l3.69-5.36c-.16-1.95-2.37-4.08-4.42-3.49-3.11.9-3.89,8.62.72,8.85ZM323.02,231.5c7.51,7.23,10.83-2.9,3.64-2.28-1.3.11-2.77,1.3-3.64,2.28ZM188.98,637.5c-1.57-2.14-3.68-3.19-6.34-2.38-5.43,1.65,3.7,6.86,6.34,2.38ZM237.5,588.92c9.12,0,2.85-16.3-4.23-8.66-2.92,3.15.15,8.66,4.23,8.66ZM248.56,638l-1.8-7.78c-12.24-3.3-9.11,15.59,1.8,7.78ZM330,731c10.23-1.57,25.18,2.09,13,12.99,7.22.17,7.11,10.69,1.05,12.56-4.16,1.28-9.68.02-14.05.45v-26ZM335,742c10.32.91,11.65-8.85,0-7.01v7.01ZM335,754c12.37,1.34,12.43-10.06,0-9.01v9.01ZM248,757h4c.1-5.62-1.72-15.38,6.39-14.93l1.46,1.58.15,13.35h5.01c.64-10.2.63-24.02-13-16.01v-11s-4.01,0-4.01,0v27ZM223,731v4s7,0,7,0v22h5v-22h8s0-4,0-4h-20ZM304,750h-13c-1.23,1.1,2.69,4.22,3.97,4.6,3.29.96,5.66-2.01,8.02.92.69,1.93-4.91,2.4-5.64,2.41-16.49.31-12.32-24.31,1.91-18.73,5.44,2.13,4.89,5.61,4.75,10.81ZM300,747c1.23-8.21-9.98-6.84-8.5.01h8.5ZM325,750h-13c-1.23,1.1,2.69,4.22,3.97,4.6,3.29.96,5.66-2.01,8.02.92.69,1.93-4.92,2.4-5.64,2.41-13.74.24-14.14-19.15-1.69-19.57,7.42-.25,9.09,5.23,8.35,11.65ZM321,747c1.23-8.21-9.98-6.84-8.5.01h8.5ZM270,757h4c-.34-7.29.22-14.89,9.04-15.52l-.05-3.48-8.5,3.99-.59-2.87-3.91-.13v18ZM335,745v9.01c12.36,1.34,12.43-10.06,0-9.01ZM335,735v7.01c10.32.91,11.66-8.85,0-7.01ZM291.51,747.01h8.5c1.23-8.22-9.98-6.85-8.5,0ZM312.51,747.01h8.5c1.23-8.22-9.98-6.85-8.5,0ZM323.27,537.26c3.34,1.46,6.41-1.65,6.72,1.23-2.23,3.33-5.15,2.9-8.48,1.5l-.51,2c14.15,6.96,16.73-5.43,14.52-17.01-5.65-4.34-5.49,9.07-10.02,9.09-3.79.02-3.78-7.56-3.51-10.07-9.41-.87-4.34,10.81,1.27,13.26ZM288.6,518.94c-1.71.39-.79,12.29-.49,14.45.5,3.62,1.28,8.26,5.88,7.61l-.04-7.33,2.56-1.61c2.85,2.74,2.75,7.71,7.14,8.82l2.32-1.37-3.71-8.03,2.73-3-1.54-2.48-10.45,2.99c-.18-3.87,1.7-11.45-4.4-10.05ZM254.99,530c.68-5.12-12.09-1.42-11.97-4.5,10.55-7.9,23.03,4.85,17.45,15.51-3.25-2.96-4.28-.28-6.08-.3-3.19-.02-7.86-1.11-9.92-3.71-2.57-5.23,6.22-9.75,10.52-7ZM251.66,532.22c-1.31.11-2.76,1.3-3.64,2.28,1.71,2.39,4.18,3.36,7.01,2.03,2.69-1.74-1.13-4.5-3.37-4.31ZM224.01,519c-1.38.96-2.41,24.23,4.98,22,.74-2.23.14-12.78,3.49-12,3.82,1.92,2.13,13.53,7,11.99,3.44-1.09-.02-10.31-1.46-12.25-2.2-2.97-6.66-3.01-10.03-2.74.35-3.16-.13-6.97-3.99-7ZM265.94,523.44c-2.59,1.9-.48,20.07,5.12,16.12,2.19-3.39,1.74-9.99,6.93-10.56.46,2.6,1.58,13.63,6.03,10.52,2.12-1.48-.59-10.31-1.98-12.06-4.6-5.77-11,1.46-12.03.53l-1.02-5-3.04.44ZM370.5,535.98c-4.58-1.75-1.81-13.6-6.99-11.97-5.09,1.6.66,18.64,9.78,15.83,1.43-.44,2.36-2.56,3.35-2.75,1.51-.29,4.67,3.98,7.36,2.9-.58-4.87-5.48-7.2-4.47-12.96l-2.44-1.56-2.85.75-3.73,9.76ZM345.73,524.23c6.8-1.38,11.06,1.03,12.81,7.74,3.78,14.46-25.32,10.09-18.8-3.74.86-1.82,4.05-3.6,5.99-4ZM351.76,528.24c-12.31-4-8.86,16.86,1.8,6.75l-1.8-6.75ZM212.49,520.02c-2.95-.3-17.2-.02-18.48,2.5.68,3.77,6.96,2.37,9.41,1.59l1.11.84,3.09,15.09,3.37-.04-1-16.01h10c.32-3.32-5.06-3.73-7.51-3.98ZM248.02,534.5c1.71,2.39,4.18,3.36,7.01,2.03,2.69-1.74-1.13-4.5-3.37-4.31-1.31.11-2.76,1.3-3.64,2.28ZM353.56,534.99l-1.8-6.75c-12.31-4-8.86,16.86,1.8,6.75Z"/>
</svg>