<?xml version="1.0" encoding="UTF-8"?>
<svg id="_レイヤー_1" data-name="レイヤー 1" xmlns="http://www.w3.org/2000/svg" width="199.88mm" height="292.69mm" viewBox="0 0 566.58 829.67">
  <path d="M346.63,74.33c27.68-21.49,56.77-44.16,89.03-58.47,98.28-43.59,113.58,60.76,101.68,132.68-3.64,22.02-13.06,43.41-11.66,66.24,19.4,36.76,34.75,73.15,38.94,115.06,2.57,25.62,4.24,56.1-5.82,80.17-1.24,2.97-5.25,8.02-5.64,10.2-.77,4.35,1.4,12.91,1.5,17.58.9,41.14-11.8,81.83-33.84,116.22,6.73,17.73,12.2,36.05,14.67,54.95,2.65,20.26,3.08,39.17-2.84,58.91-.84,2.79-4.48,9.05-4.6,10.94-.2,3.23,3.16,12.36,3.55,17.04.97,11.71-.28,24.73-3.59,35.98,24.34,29.81,6.06,62.76-27.17,73.22-10.8,3.4-13.73,3.76-24.2,8.8-33.63,16.2-104.61,24.22-134.91-1.12-1.51-1.26-2.34-4.05-4.13-4.87-2.65-1.22-15.69-2.83-19.62-3.38-21.55-2.99-46.15-4.09-67.9-3.19-6.68.28-34.79,2.08-38.48,5.52-1.82,1.7-3.1,5.28-5.44,7.56-27,26.44-116.09,15.44-143.07-9.02-2.5-2.27-4.85-6.46-7.11-7.89-2.97-1.89-9.41-2.93-13.34-4.66-22.99-10.14-37.37-25.38-30.18-52.11,1.17-4.37,5.82-11.36,6.14-13.94.46-3.76-1.75-8.13-1.97-11.93-.36-6.17-.53-14.94-.05-21.02s4.99-16.84,4.94-20.98c-.03-2.02-5.52-13.98-6.44-18.45-7.6-37.03,5.59-79.79,20.46-113.54-15.38-28.37-24.95-57.33-25.97-89.96-.33-10.75,3.33-28.22,1.98-36.98-.54-3.52-4.09-7.98-5.42-11.58-12.48-33.65-4.2-95.53,9.31-128.66,4.71-11.55,11.2-22.32,16.35-33.65,2.19-4.82,15.32-33.05,15.63-35.39.42-3.2-1.7-9.97-1.85-13.74-.69-17.42-3.04-25.68-5.67-42.33-10.63-67.29,1.7-182.31,99.07-139.07,32.83,14.58,61.82,38.63,89.63,60.86-.47-48.88,53.69-79.19,94.34-49.83,9.43,6.81,23.67,25.44,23.67,37.33v16.5ZM237.62,86.33c-1.73.45-2-.72-3-1.49-10.6-8.13-21.03-19.24-32.1-27.9C176.85,36.84,126.82.29,93.4,6.6c-54.84,10.36-53.69,95.91-47.61,138.06,1.45,10.06,5.61,21.17,6.75,30.25.78,6.15-.19,13.58.04,19.96.12,3.29,2.02,8.08,1.73,10.84-.19,1.82-7.43,14.61-8.87,17.95-14.42,33.47-30.8,61.33-35.7,98.3-3.65,27.54-6.15,56.22,4.39,82.36,1.19,2.95,3.86,5.07,4.42,8.58,1.42,8.95-2.29,26.19-1.97,36.98s2.15,24.08,4.36,34.64c4.17,20,13.12,38.41,22.62,56.31-15.39,34.42-30.64,81.91-19.22,119.29.94,3.06,5.15,10.72,5.18,12.7.08,5.36-5.72,19.98-5.94,28.97-.16,6.62,4.17,23.46,3.76,25.89-.22,1.35-3.56,5.4-4.44,7.44-10.88,25.43-.99,42.09,23.04,52.38,4.12,1.77,14.42,3.83,16.61,5.39,1.81,1.29,4.9,7.25,8.06,9.94,24.37,20.8,107.45,31.73,130.53,6.51,1.95-2.13,4.7-8.84,5.18-9.04,2.96-1.25,16.59-2.53,20.81-2.97,31.64-3.33,82.07-3.76,112.71,4.27,5.92,1.55,5.9,5.03,10.45,8.55,24.44,18.88,93.46,14.19,120.02.37,3.48-1.81,9.15-7.07,11.25-7.75,4.84-1.56,11.75-1.6,17.57-3.43,30.48-9.59,42.74-40.2,20.55-65.45,3.48-11.76,4.92-24.75,3.92-37.05-.4-4.89-3.94-13.94-3.89-17.03.03-1.51,4.94-11.67,5.92-14.97,10.28-34.78-.5-76.92-12.63-110.03,25.16-40.01,38.92-86.22,32.62-133.89,26.5-49.11,11.56-120.26-9.83-169.27-5.06-11.61-16.92-30.1-17.08-41.93-.27-20.68,9.45-43.68,12.63-64.17,10.14-65.37-1.32-163.9-92.4-124.4-39.24,17.02-66.51,42.23-99.32,67.68-1,.78-1.27,1.94-3,1.49,16.78-42.07-19.15-85.45-63.81-73.3-29.51,8.03-43.41,40.98-35.2,69.3ZM312.01,62.96c0,13.21-10.71,23.92-23.92,23.92s-23.92-10.71-23.92-23.92,10.71-23.92,23.92-23.92,23.92,10.71,23.92,23.92ZM305.96,63.09c0-9.89-8.01-17.9-17.9-17.9s-17.9,8.01-17.9,17.9,8.01,17.9,17.9,17.9,17.9-8.01,17.9-17.9Z"/>
</svg>